<svg xmlns="http://www.w3.org/2000/svg" width="462" height="281" viewBox="0 0 462 281"><path d="M0 0 C152.46 0 304.92 0 462 0 C462 92.73 462 185.46 462 281 C309.54 281 157.08 281 0 281 C0 188.27 0 95.54 0 0 Z " fill="#F0EDFD" transform="translate(0,0)"/><path d="M0 0 C152.46 0 304.92 0 462 0 C462 30.69 462 61.38 462 93 C460.35 93.33 458.7 93.66 457 94 C456.34 93.34 455.68 92.68 455 92 C455 91.34 455 90.68 455 90 C442.79 90 430.58 90 418 90 C418 90.99 418 91.98 418 93 C410.08 93.5 410.08 93.5 402 94 C402 94.99 402 95.98 402 97 C392.89 97.16 392.89 97.16 388.56 96.38 C386.05 95.73 386.05 95.73 384.34 96.98 C383.68 97.48 383.68 97.48 383 98 C379.21 93.35 375.43 88.7 371.65 84.04 C370.64 82.78 369.62 81.53 368.6 80.28 C367.46 78.87 366.32 77.47 365.19 76.06 C364.56 75.29 363.94 74.52 363.29 73.72 C362 72 362 72 362 71 C365.47 70.01 365.47 70.01 369 69 C369.33 57.45 369.66 45.9 370 34 C385.35 33.51 385.35 33.51 401 33 C401 23.43 401 13.86 401 4 C379.88 4 358.76 4 337 4 C337 13.57 337 23.14 337 33 C352.84 33.49 352.84 33.49 369 34 C369.05 38.81 369.09 43.61 369.11 48.42 C369.12 50.05 369.13 51.69 369.15 53.32 C369.18 55.67 369.19 58.02 369.2 60.37 C369.21 61.1 369.22 61.83 369.23 62.59 C369.23 64.39 369.12 66.2 369 68 C367 70 367 70 363.69 70.5 C361.44 70.44 360.38 70.34 358.68 68.83 C357.87 67.79 357.08 66.73 356.32 65.66 C353.23 61.76 348.51 58.99 344 57 C344.1 56.45 344.19 55.89 344.29 55.32 C344.4 54.6 344.51 53.87 344.62 53.12 C344.8 52.05 344.8 52.05 344.98 50.95 C344.98 50.3 344.99 49.66 345 49 C343.11 46.68 343.11 46.68 340 46.75 C336.89 46.68 336.89 46.68 335 49 C334.71 53.15 334.71 53.15 336 57 C334.92 57.35 334.92 57.35 333.82 57.71 C317.83 63.14 302.43 70.36 287.19 77.58 C282.81 79.65 278.38 81.58 273.94 83.5 C269.06 85.61 264.28 87.82 259.56 90.25 C251.93 94.18 244.04 97.54 236.14 100.92 C226.8 104.95 217.55 109.06 210 116 C209.3 115.15 208.6 114.31 207.88 113.44 C206.56 112.02 206.56 112.02 205 111 C201.15 111.04 201.15 111.04 198 113 C197.75 115.96 197.75 115.96 198 119 C200.36 121.36 201.78 121.49 205 122 C204.56 122.64 204.56 122.64 204.12 123.3 C200.21 129.62 198.24 136.2 196.32 143.35 C194.87 148.4 193.66 151.11 189 154 C188.48 154.41 187.96 154.81 187.43 155.23 C185.6 156.22 184.26 156.3 182.19 156.31 C181.54 156.33 180.9 156.35 180.23 156.36 C174.73 155.47 170.44 152.02 166.19 148.62 C165.06 147.74 163.93 146.85 162.8 145.97 C161.89 145.26 161.89 145.26 160.97 144.53 C158.83 142.87 156.68 141.23 154.52 139.59 C153.76 139.02 153 138.44 152.21 137.85 C150.72 136.72 149.23 135.59 147.74 134.47 C138.64 127.56 138.64 127.56 137.25 124.19 C136.58 118.3 136.66 114.81 139.64 109.68 C143.11 105.41 146.76 103.47 152.05 102.22 C152.62 102.08 153.19 101.94 153.78 101.8 C155.62 101.35 157.47 100.93 159.31 100.5 C160.58 100.2 161.85 99.89 163.12 99.58 C165.62 98.98 168.11 98.39 170.61 97.8 C190.26 93.17 208.46 88.54 220.36 70.78 C226.64 60.12 229.86 49.34 229 37 C228.67 36.01 228.34 35.02 228 34 C228.64 33.79 229.28 33.59 229.94 33.38 C232.3 32.11 232.3 32.11 232.94 29.06 C233.27 26.07 233.27 26.07 231.88 24.12 C229.41 22.64 227.83 22.64 225 23 C222.86 25.14 222.57 26.13 222 29 C221.3 29.09 220.59 29.17 219.87 29.26 C209.73 30.7 200.76 34.08 191.3 37.89 C173.48 45.03 155.74 50.8 137 55 C135.72 55.29 134.44 55.58 133.15 55.87 C120.97 58.61 108.78 61.3 96.51 63.65 C71.45 68.47 48.88 77.59 27.03 90.81 C25 92 25 92 22.81 92.99 C20.23 94.43 19.87 96.26 19 99 C17.91 98.77 16.81 98.55 15.69 98.31 C12.73 97.9 12.73 97.9 10 99.06 C8.53 101.91 9.26 103.97 10 107 C14.93 108.23 14.93 108.23 19.44 106.56 C19.95 106.05 20.47 105.53 21 105 C21.78 105.58 22.57 106.16 23.38 106.75 C27.58 109.58 32.27 111.24 37 113 C36.51 114.98 36.51 114.98 36 117 C35.01 116.67 34.02 116.34 33 116 C33.33 116.99 33.66 117.98 34 119 C34.99 119.5 34.99 119.5 36 120 C36.33 119.34 36.66 118.68 37 118 C37 126.25 37 134.5 37 143 C21.66 143.5 21.66 143.5 6 144 C5.67 153.9 5.34 163.8 5 174 C26.12 173.67 47.24 173.34 69 173 C69 163.43 69 153.86 69 144 C58.77 143.67 48.54 143.34 38 143 C38 133.43 38 123.86 38 114 C45.16 116.15 51.78 118.36 58.62 121.19 C59.57 121.58 60.52 121.96 61.49 122.36 C69.87 125.85 77.97 129.78 86 134 C85.35 134.6 84.7 135.19 84.03 135.8 C81.71 137.89 81.71 137.89 81.56 141.12 C81.74 143.93 81.74 143.93 83.19 145.44 C85.92 146.29 87.34 146.06 90 145 C91.36 143.06 92.1 141.22 93 139 C97.26 141.37 100.83 144.21 104.5 147.38 C105.11 147.9 105.72 148.42 106.35 148.96 C110.64 152.7 114.7 156.62 118.69 160.69 C123.69 165.78 128.83 170.35 134.45 174.76 C136.19 176.16 137.9 177.58 139.61 179.02 C155.38 192.22 172.59 202.7 190.3 213.06 C196.84 216.89 203.33 220.78 209.71 224.86 C210.28 225.22 210.85 225.59 211.44 225.96 C215.59 228.64 219.43 231.57 223 235 C222.66 235.42 222.32 235.84 221.98 236.27 C220.78 238.39 220.93 239.33 221.38 241.69 C221.58 242.78 221.79 243.87 222 245 C225.94 245.95 225.94 245.95 229.88 245.44 C231.74 243.05 231.3 240.91 231 238 C230.04 236.34 230.04 236.34 229 235 C229.95 234.5 230.9 234.01 231.88 233.5 C236.28 231.01 240.07 227.83 243.96 224.61 C246 223 246 223 247 223 C247.02 228.05 247.04 233.11 247.05 238.16 C247.06 239.88 247.07 241.6 247.08 243.32 C247.09 245.79 247.09 248.26 247.1 250.73 C247.1 251.5 247.11 252.27 247.11 253.06 C247.11 253.78 247.11 254.5 247.11 255.24 C247.12 255.87 247.12 256.5 247.12 257.15 C246.98 259.23 246.67 261.02 246 263 C243.94 264.25 243.94 264.25 242 265 C242.66 265.66 243.32 266.32 244 267 C243.34 267.66 242.68 268.32 242 269 C242 269.66 242 270.32 242 271 C241.34 271.66 240.68 272.32 240 273 C240 273.66 240 274.32 240 275 C239.34 275.66 238.68 276.32 238 277 C238 277.66 238 278.32 238 279 C236 281 236 281 234.24 281.25 C233.52 281.25 232.81 281.25 232.07 281.25 C231.24 281.25 230.42 281.25 229.56 281.26 C228.2 281.25 228.2 281.25 226.8 281.24 C225.36 281.24 225.36 281.24 223.88 281.25 C220.62 281.25 217.37 281.24 214.11 281.23 C211.75 281.23 209.38 281.23 207.02 281.23 C201.32 281.23 195.61 281.22 189.91 281.21 C183.32 281.19 176.72 281.19 170.13 281.19 C152.71 281.18 135.29 281.15 117.88 281.12 C78.98 281.08 40.08 281.04 0 281 C0 188.27 0 95.54 0 0 Z " fill="#FAFAFE" transform="translate(0,0)"/><path d="M0 0 C1.07 11.49 -4.02 21.32 -11 30 C-11.7 29.15 -12.4 28.31 -13.12 27.44 C-14.44 26.02 -14.44 26.02 -16 25 C-19.85 25.04 -19.85 25.04 -23 27 C-22.74 31.86 -22.74 31.86 -20.44 35.94 C-19.96 36.29 -19.49 36.64 -19 37 C-29.21 44.72 -42.49 46.72 -54.69 49.56 C-57.17 50.14 -59.65 50.73 -62.14 51.32 C-63.67 51.68 -65.2 52.04 -66.73 52.39 C-76.78 54.77 -83.16 57.38 -88.81 66.31 C-89.55 67.54 -90.28 68.77 -91 70 C-92.61 69.72 -92.61 69.72 -94.25 69.44 C-97.11 69.02 -99.24 69.01 -102 70 C-102.04 71.11 -102.08 72.23 -102.12 73.38 C-102.15 74 -102.17 74.63 -102.2 75.27 C-102.15 77.26 -102.15 77.26 -100 79 C-98.25 79.24 -98.25 79.24 -96.38 79.12 C-95.26 79.08 -94.15 79.04 -93 79 C-92.76 79.88 -92.52 80.76 -92.27 81.67 C-91.93 82.84 -91.59 84.01 -91.25 85.19 C-91.09 85.77 -90.94 86.34 -90.77 86.94 C-88.29 95.38 -82.44 99.17 -75.56 104.19 C-73.75 105.52 -71.95 106.85 -70.14 108.19 C-69.26 108.84 -68.38 109.48 -67.47 110.15 C-64.74 112.19 -62.07 114.29 -59.41 116.42 C-52.91 121.58 -46.42 125.91 -38 127 C-38.02 127.85 -38.02 127.85 -38.04 128.71 C-38.04 129.45 -38.05 130.18 -38.06 130.94 C-38.08 132.03 -38.08 132.03 -38.1 133.15 C-38.21 135.02 -38.21 135.02 -37 136 C-32.44 136.55 -32.44 136.55 -28.5 134.81 C-27.55 131.36 -28.9 128.3 -30 125 C-29.5 124.8 -29.01 124.61 -28.5 124.41 C-22.58 121.8 -18.28 118.65 -15 113 C-13.71 109.52 -12.79 105.94 -11.83 102.36 C-8.84 91.35 -3.26 83.76 6 77 C8.97 75.31 12.02 74.01 15.18 72.75 C19.17 71.11 23.07 69.28 27 67.5 C28.75 66.71 30.51 65.92 32.27 65.13 C35.77 63.56 39.26 61.97 42.75 60.38 C45.72 59.02 48.7 57.69 51.69 56.39 C52.36 56.1 53.03 55.81 53.72 55.51 C55 54.95 56.27 54.4 57.55 53.85 C66.99 49.76 76.26 45.31 85.54 40.88 C88.53 39.45 91.53 38.04 94.54 36.64 C96.07 35.91 97.59 35.19 99.12 34.45 C116.7 25.98 116.7 25.98 124 28 C127.15 29.97 129.5 32.27 132 35 C132.7 35.73 133.39 36.45 134.11 37.2 C138.63 42.05 142.84 47.15 147 52.31 C147.48 52.9 147.96 53.49 148.46 54.09 C153.05 59.89 153.05 59.89 153 64 C151.13 67.52 148.61 70.54 146.11 73.63 C145.14 74.82 144.21 76.04 143.28 77.26 C137.88 83.91 131.08 88.7 124.25 93.8 C120.65 96.49 117.17 99.28 113.75 102.19 C108.26 106.83 102.59 111.21 96.87 115.56 C93.25 118.34 89.66 121.14 86.06 123.94 C85.29 124.54 84.52 125.13 83.73 125.75 C77.37 130.71 71.02 135.68 64.69 140.67 C61.79 142.95 58.9 145.23 56 147.5 C54.83 148.42 53.67 149.33 52.5 150.25 C50.17 152.08 47.83 153.92 45.5 155.75 C44.63 156.43 44.63 156.43 43.75 157.13 C42.58 158.04 41.42 158.96 40.25 159.87 C36.71 162.65 33.18 165.44 29.65 168.23 C27.9 169.6 26.15 170.97 24.4 172.33 C22.12 174.11 19.87 175.92 17.63 177.76 C16.57 178.61 15.5 179.46 14.44 180.31 C13.96 180.72 13.48 181.12 12.99 181.54 C11.62 182.61 11.62 182.61 9 184 C4.02 182.94 0.26 179.32 -3.7 176.27 C-7.26 173.69 -11.14 171.7 -15.01 169.62 C-20.09 166.87 -25.05 163.91 -30 160.94 C-30.54 160.62 -31.07 160.29 -31.63 159.96 C-45.55 151.6 -59.3 142.84 -71.61 132.2 C-73.2 130.83 -74.81 129.48 -76.42 128.13 C-82.83 122.74 -88.93 117.2 -94.79 111.22 C-98.04 107.95 -101.45 104.95 -105 102 C-105.52 101.56 -106.03 101.13 -106.57 100.68 C-117.45 91.54 -128.89 82.79 -142.41 77.95 C-145.11 76.96 -147.74 75.87 -150.38 74.75 C-154.98 72.82 -159.61 70.97 -164.26 69.18 C-164.87 68.94 -165.48 68.71 -166.11 68.46 C-168.61 67.5 -171.11 66.53 -173.62 65.58 C-175.48 64.87 -177.34 64.15 -179.2 63.43 C-180.05 63.1 -180.05 63.1 -180.93 62.78 C-184.89 61.23 -184.89 61.23 -186 59 C-159.31 43.6 -132.59 35.02 -102.38 29.43 C-97.13 28.45 -92.03 27.27 -86.91 25.75 C-84.61 25.16 -82.4 24.7 -80.06 24.31 C-56.96 20.38 -34.66 11.78 -13.01 3 C-12.02 2.6 -11.03 2.21 -10.02 1.8 C-9.16 1.45 -8.31 1.1 -7.43 0.74 C-4.83 -0.05 -2.7 -0.14 0 0 Z " fill="#F9F9FD" transform="translate(219,40)"/><path d="M0 0 C0.62 -0 1.25 -0 1.89 -0.01 C3.95 -0.01 6.02 -0.01 8.09 -0 C9.52 -0 10.95 -0.01 12.38 -0.01 C15.39 -0.01 18.39 -0.01 21.39 -0 C25.25 0 29.11 0 32.96 -0 C35.92 -0.01 38.88 -0.01 41.83 -0 C43.25 -0 44.68 -0 46.1 -0.01 C48.08 -0.01 50.07 -0.01 52.05 0 C53.75 0 53.75 0 55.48 0 C58.03 0.13 58.03 0.13 59.03 1.13 C59.13 3.28 59.17 5.39 59.16 7.54 C59.16 8.5 59.16 8.5 59.16 9.47 C59.16 10.83 59.16 12.18 59.16 13.54 C59.15 15.62 59.16 17.7 59.16 19.78 C59.16 21.1 59.16 22.41 59.16 23.72 C59.16 24.35 59.16 24.98 59.17 25.62 C59.14 30.01 59.14 30.01 58.03 31.13 C55.72 31.22 53.45 31.24 51.15 31.23 C50.12 31.22 50.12 31.22 49.07 31.22 C46.87 31.22 44.67 31.2 42.46 31.19 C40.98 31.19 39.49 31.18 38 31.18 C34.34 31.17 30.68 31.15 27.03 31.13 C27.04 32.18 27.05 33.23 27.06 34.31 C27.1 38.2 27.12 42.09 27.14 45.97 C27.15 47.66 27.16 49.34 27.18 51.02 C27.2 53.44 27.21 55.86 27.22 58.28 C27.23 59.03 27.24 59.79 27.25 60.57 C27.25 62.42 27.15 64.28 27.03 66.13 C24.67 68.49 23.25 68.62 20.03 69.13 C20.72 69.93 21.41 70.73 22.12 71.55 C28.39 78.87 34.35 86.34 40.03 94.13 C40.68 93.63 40.68 93.63 41.34 93.11 C44.03 91.55 46.11 92.39 49.03 93.13 C51.03 95.13 51.03 95.13 51.34 98.07 C51.03 101.13 51.03 101.13 49.9 103 C47.23 104.61 45.08 104.32 42.03 104.13 C41.37 104.13 40.71 104.13 40.03 104.13 C38.94 105.71 37.93 107.35 36.96 109 C33.3 115.05 28.93 120.02 24.03 125.13 C23.49 125.7 22.96 126.27 22.41 126.86 C21.33 128 20.19 129.07 19.03 130.13 C18.37 130.13 17.71 130.13 17.03 130.13 C17.03 130.79 17.03 131.45 17.03 132.13 C15.27 133.63 13.51 135.01 11.65 136.38 C10.46 137.28 9.26 138.18 8.06 139.09 C7.41 139.57 6.76 140.06 6.09 140.57 C2.4 143.36 -1.25 146.22 -4.91 149.07 C-5.68 149.66 -6.44 150.26 -7.23 150.87 C-15.84 157.58 -24.45 164.3 -32.97 171.13 C-43 179.17 -53.14 187.05 -63.29 194.93 C-67.97 198.56 -72.63 202.21 -77.29 205.88 C-82.18 209.74 -87.11 213.55 -92.06 217.34 C-96.9 221.06 -101.7 224.84 -106.48 228.64 C-107.04 229.08 -107.6 229.52 -108.17 229.98 C-108.67 230.37 -109.16 230.76 -109.67 231.16 C-110.97 232.13 -110.97 232.13 -112.97 233.13 C-112.31 233.79 -111.65 234.45 -110.97 235.13 C-110.6 238.07 -110.6 238.07 -110.97 241.13 C-112.6 243.07 -112.6 243.07 -114.97 244.13 C-120.1 243.92 -120.1 243.92 -122.35 241.88 C-123.2 239.49 -123.22 237.65 -122.97 235.13 C-121.96 233.47 -121.96 233.47 -120.97 232.13 C-127.86 226.21 -135.04 221.49 -142.92 217 C-146.14 215.17 -149.33 213.31 -152.54 211.45 C-153.49 210.9 -153.49 210.9 -154.47 210.33 C-169.27 201.75 -183.56 192.77 -196.97 182.13 C-197.47 181.73 -197.98 181.34 -198.49 180.93 C-201.21 178.77 -203.89 176.57 -206.54 174.33 C-207.56 173.48 -208.57 172.63 -209.59 171.79 C-216.83 165.77 -223.68 159.53 -230.27 152.8 C-235.97 147.02 -242.11 141.5 -248.97 137.13 C-249.53 138.1 -250.09 139.07 -250.66 140.07 C-252.23 142.41 -252.79 143.05 -255.47 144.19 C-257.97 144.13 -257.97 144.13 -260.29 143.07 C-261.97 141.13 -261.97 141.13 -262.41 138.19 C-261.93 134.86 -261.05 133.68 -258.97 131.13 C-273.73 123.11 -289.36 117.23 -304.97 111.13 C-304.97 120.7 -304.97 130.27 -304.97 140.13 C-302.75 140.12 -300.52 140.11 -298.23 140.09 C-296.08 140.09 -293.93 140.08 -291.78 140.07 C-290.29 140.07 -288.79 140.06 -287.29 140.05 C-285.15 140.04 -283 140.04 -280.85 140.03 C-279.84 140.02 -279.84 140.02 -278.81 140.02 C-277.2 140.02 -275.59 140.07 -273.97 140.13 C-272.38 141.72 -272.85 143.51 -272.83 145.64 C-272.84 146.58 -272.84 146.58 -272.84 147.54 C-272.84 148.18 -272.84 148.82 -272.84 149.47 C-272.84 150.83 -272.84 152.18 -272.84 153.54 C-272.85 155.62 -272.84 157.7 -272.84 159.78 C-272.84 161.1 -272.84 162.41 -272.84 163.72 C-272.84 164.35 -272.84 164.98 -272.83 165.62 C-272.86 170.01 -272.86 170.01 -273.97 171.13 C-275.97 171.22 -277.96 171.25 -279.96 171.24 C-280.9 171.24 -280.9 171.24 -281.85 171.24 C-283.93 171.24 -286 171.23 -288.07 171.23 C-289.5 171.23 -290.94 171.22 -292.37 171.22 C-296.15 171.22 -299.93 171.21 -303.71 171.2 C-307.56 171.19 -311.42 171.18 -315.27 171.18 C-322.84 171.17 -330.41 171.15 -337.97 171.13 C-338 166.88 -338.02 162.62 -338.03 158.37 C-338.03 156.92 -338.04 155.47 -338.05 154.02 C-338.06 151.94 -338.07 149.87 -338.07 147.79 C-338.08 147.14 -338.08 146.49 -338.09 145.82 C-338.09 144.25 -338.03 142.69 -337.97 141.13 C-336.97 140.13 -336.97 140.13 -334.01 140.02 C-332.71 140.02 -331.4 140.02 -330.09 140.03 C-329.06 140.03 -329.06 140.03 -328.01 140.04 C-325.81 140.04 -323.61 140.05 -321.41 140.07 C-319.92 140.07 -318.43 140.08 -316.94 140.08 C-313.29 140.09 -309.63 140.11 -305.97 140.13 C-306.47 128.74 -306.47 128.74 -306.97 117.13 C-308.46 116.63 -308.46 116.63 -309.97 116.13 C-309.97 115.14 -309.97 114.15 -309.97 113.13 C-308.98 113.13 -307.99 113.13 -306.97 113.13 C-306.48 111.64 -306.48 111.64 -305.97 110.13 C-306.61 109.96 -307.25 109.79 -307.91 109.61 C-313.48 108.06 -318.09 106.21 -322.97 103.13 C-323.32 103.65 -323.67 104.16 -324.04 104.69 C-326.29 106.36 -326.84 106.3 -329.54 106 C-331.65 105.58 -332.77 105.29 -334.47 103.94 C-335.26 101.08 -334.75 98.95 -333.97 96.13 C-332.17 94.14 -331.1 94.14 -328.41 93.94 C-325.97 94.13 -325.97 94.13 -323.97 95.13 C-323.79 94.57 -323.61 94.01 -323.42 93.43 C-321.27 90.01 -318.26 88.43 -314.85 86.38 C-314.13 85.94 -313.41 85.5 -312.67 85.05 C-293.76 73.71 -273.24 64.87 -251.46 60.98 C-248.12 60.38 -244.86 59.61 -241.58 58.77 C-236.49 57.47 -231.38 56.35 -226.23 55.3 C-225.45 55.14 -224.67 54.98 -223.87 54.82 C-222.26 54.49 -220.64 54.16 -219.03 53.83 C-196.81 49.27 -175.91 43.4 -154.72 35.19 C-150.77 33.67 -146.81 32.18 -142.85 30.69 C-142.23 30.46 -141.61 30.22 -140.97 29.98 C-139.31 29.36 -137.64 28.74 -135.97 28.13 C-134.94 27.75 -133.91 27.37 -132.85 26.98 C-130.08 26.16 -127.96 25.92 -125.1 26 C-124.32 26.02 -123.54 26.04 -122.73 26.06 C-122.15 26.08 -121.57 26.11 -120.97 26.13 C-120.79 24.95 -120.79 24.95 -120.6 23.75 C-119.97 21.13 -119.97 21.13 -117.97 19.13 C-114.91 18.98 -111.9 19.39 -109.47 21.32 C-108.67 24.22 -109.14 26.26 -109.97 29.13 C-112.04 31 -112.04 31 -113.97 32.13 C-113.64 32.79 -113.31 33.45 -112.97 34.13 C-111.08 48.22 -117.35 62.21 -125.56 73.27 C-129.93 78.65 -135.14 82.43 -140.97 86.13 C-141.74 86.64 -142.52 87.15 -143.31 87.68 C-146.59 89.47 -149.83 90.49 -153.41 91.5 C-154.14 91.71 -154.87 91.93 -155.62 92.14 C-165.97 95.07 -176.52 97.31 -187.04 99.57 C-197.04 101.7 -197.04 101.7 -203.79 108.94 C-205.48 113.48 -205.43 116.84 -204.47 121.63 C-199.4 130.09 -188.75 135.91 -180.92 141.69 C-179.14 143 -177.37 144.32 -175.6 145.65 C-174.62 146.37 -173.64 147.09 -172.66 147.82 C-171.82 148.44 -170.98 149.06 -170.11 149.7 C-165.93 152.5 -161.83 152.82 -156.97 152.13 C-153.44 150.58 -150.69 148.55 -148.93 145.07 C-148.12 142.67 -147.46 140.27 -146.85 137.82 C-145.11 131.14 -142.97 125.8 -138.97 120.13 C-139.76 119.84 -140.54 119.55 -141.35 119.25 C-143.97 118.13 -143.97 118.13 -145.97 116.13 C-146.35 113.19 -146.35 113.19 -145.97 110.13 C-144.35 108.19 -144.35 108.19 -141.97 107.13 C-138.91 107.19 -138.91 107.19 -135.97 108.13 C-134.29 110.19 -134.29 110.19 -132.97 112.13 C-132.34 111.63 -131.7 111.13 -131.05 110.61 C-123.85 105.13 -116.53 101.23 -108.29 97.57 C-107.04 97 -105.79 96.43 -104.54 95.87 C-97.49 92.66 -90.41 89.52 -83.29 86.45 C-78.35 84.32 -73.48 82.05 -68.61 79.75 C-63.43 77.32 -58.2 75.03 -52.94 72.75 C-48.52 70.83 -44.14 68.82 -39.79 66.75 C-33.49 63.78 -27.12 61 -20.72 58.25 C-19.8 57.86 -18.89 57.47 -17.94 57.06 C-11.38 54.26 -11.38 54.26 -7.97 53.13 C-8.3 52.8 -8.63 52.47 -8.97 52.13 C-9.43 46.89 -9.43 46.89 -7.85 44.25 C-5.09 42.6 -3.12 42.74 0.03 43.13 C1.96 44.13 1.96 44.13 3.03 46.13 C2.96 48.85 2.55 51.46 2.03 54.13 C2.47 54.37 2.92 54.61 3.38 54.86 C12.77 60.07 12.77 60.07 15.4 64.38 C16.83 66.27 16.83 66.27 18.73 66.41 C20.9 66.48 20.9 66.48 24.03 66.13 C26.01 64.15 25.28 60.31 25.34 57.59 C25.37 56.46 25.37 56.46 25.41 55.31 C25.47 52.9 25.53 50.48 25.59 48.07 C25.63 46.43 25.68 44.8 25.72 43.17 C25.83 39.15 25.93 35.14 26.03 31.13 C25.06 31.13 24.1 31.14 23.11 31.15 C19.54 31.16 15.98 31.17 12.41 31.18 C10.87 31.19 9.32 31.2 7.77 31.2 C5.56 31.22 3.34 31.22 1.12 31.23 C0.08 31.23 0.08 31.23 -0.98 31.24 C-2.64 31.24 -4.31 31.19 -5.97 31.13 C-7.56 29.54 -7.1 27.75 -7.11 25.62 C-7.11 24.68 -7.11 24.68 -7.11 23.72 C-7.11 22.76 -7.11 22.76 -7.11 21.78 C-7.11 20.43 -7.11 19.07 -7.1 17.72 C-7.1 15.64 -7.1 13.56 -7.11 11.48 C-7.11 10.16 -7.11 8.85 -7.11 7.54 C-7.11 6.91 -7.11 6.28 -7.11 5.64 C-7.08 -0.46 -5.86 0 0 0 Z M-135.35 39.63 C-144.78 43.57 -154.42 46.85 -164.09 50.14 C-166.78 51.06 -169.46 52.02 -172.13 52.98 C-186.48 58.09 -201.06 61.18 -215.97 64.13 C-217.53 64.44 -219.08 64.75 -220.63 65.06 C-223.03 65.54 -225.43 66.02 -227.83 66.49 C-232.61 67.46 -237.35 68.54 -242.09 69.68 C-244.21 70.19 -246.33 70.67 -248.46 71.15 C-269.43 76.03 -293.34 82.77 -309.97 97.13 C-300.95 101.42 -291.73 104.94 -282.36 108.4 C-275.39 110.99 -268.52 113.57 -261.97 117.13 C-261.05 117.61 -260.12 118.09 -259.17 118.59 C-240.37 128.73 -225.8 142.06 -210.37 156.65 C-192.06 173.9 -171.6 187.39 -149.97 200.13 C-142.34 204.65 -134.75 209.22 -127.29 214 C-126.71 214.37 -126.13 214.74 -125.54 215.12 C-124.73 215.65 -124.73 215.65 -123.9 216.18 C-123.39 216.51 -122.88 216.84 -122.35 217.18 C-120.97 218.13 -120.97 218.13 -118.89 220.01 C-117 221.39 -117 221.39 -114.69 220.69 C-110.95 218.54 -107.77 215.9 -104.47 213.13 C-103.03 211.94 -101.59 210.75 -100.15 209.56 C-99.44 208.98 -98.73 208.39 -98 207.79 C-95.24 205.53 -92.43 203.35 -89.6 201.19 C-88.55 200.39 -87.5 199.59 -86.45 198.79 C-85.9 198.37 -85.35 197.95 -84.78 197.52 C-81.19 194.76 -77.61 191.97 -74.04 189.19 C-73.27 188.59 -72.5 188 -71.7 187.38 C-65.34 182.42 -59 177.45 -52.66 172.46 C-49.18 169.72 -45.7 166.99 -42.22 164.26 C-39.29 161.95 -36.36 159.65 -33.44 157.34 C-28.37 153.36 -23.31 149.37 -18.18 145.46 C-11.93 140.69 -5.8 135.79 0.28 130.81 C5.97 126.14 5.97 126.14 8.91 123.95 C16.67 118.09 24.82 110.07 29.03 101.13 C28.9 96.77 26.99 94.44 24.21 91.19 C23.82 90.73 23.43 90.27 23.03 89.79 C22.17 88.78 21.3 87.77 20.43 86.77 C18.94 85.03 17.47 83.27 16.01 81.51 C14.97 80.28 13.94 79.05 12.9 77.82 C12.42 77.24 11.95 76.67 11.45 76.08 C10.02 74.39 8.54 72.75 7.03 71.13 C6.25 70.26 6.25 70.26 5.45 69.38 C2.43 66.36 -0.07 64.67 -4.38 64.3 C-12.28 64.82 -19.41 68.99 -26.41 72.38 C-27.96 73.11 -29.52 73.85 -31.08 74.58 C-33.44 75.69 -35.8 76.8 -38.16 77.92 C-44.73 81.04 -51.37 84.02 -58.03 86.95 C-66.03 90.46 -74 94.02 -81.89 97.76 C-85.53 99.48 -89.19 101.1 -92.88 102.69 C-117.76 112.73 -117.76 112.73 -133.97 133.13 C-134.85 135.96 -135.59 138.83 -136.35 141.69 C-138.33 149.15 -140.69 154.26 -146.97 159.13 C-149.33 160.5 -151.35 161.31 -153.97 162.13 C-153.62 162.85 -153.27 163.57 -152.91 164.32 C-151.86 167.46 -152.02 169 -152.97 172.13 C-153.97 173.13 -153.97 173.13 -155.57 173.26 C-156.2 173.26 -156.82 173.26 -157.47 173.25 C-158.1 173.26 -158.73 173.26 -159.38 173.26 C-160.97 173.13 -160.97 173.13 -161.97 172.13 C-162.04 170.78 -162.06 169.42 -162.04 168.07 C-162.03 167.33 -162.02 166.6 -162.01 165.84 C-161.99 165 -161.99 165 -161.97 164.13 C-162.57 163.99 -163.16 163.86 -163.77 163.72 C-174.58 160.91 -182.72 154.53 -191.13 147.47 C-194.59 144.58 -198.2 141.9 -201.83 139.22 C-203.21 138.2 -204.59 137.16 -205.97 136.13 C-206.87 135.46 -207.76 134.79 -208.69 134.1 C-213.96 129.55 -215.63 122.76 -216.97 116.13 C-218.09 116.17 -219.2 116.21 -220.35 116.25 C-222.25 116.32 -222.25 116.32 -223.97 116.13 C-225.97 114.13 -225.97 114.13 -226.17 112.4 C-226.1 110.65 -226.04 108.89 -225.97 107.13 C-221.91 106.28 -219 106.2 -214.97 107.13 C-214.63 106.47 -214.29 105.8 -213.94 105.12 C-213.46 104.23 -212.97 103.35 -212.47 102.44 C-212.01 101.57 -211.54 100.7 -211.07 99.81 C-205.58 92.8 -197.84 90.95 -189.49 89.05 C-187.62 88.62 -185.77 88.18 -183.91 87.73 C-181.42 87.13 -178.94 86.54 -176.45 85.95 C-159.47 82.49 -159.47 82.49 -143.97 75.13 C-143.64 74.47 -143.31 73.81 -142.97 73.13 C-143.96 72.29 -143.96 72.29 -144.97 71.44 C-146.97 69.13 -146.97 69.13 -147.41 66.5 C-146.97 64.13 -146.97 64.13 -145.85 62.75 C-142.91 61.78 -140.91 62.27 -137.97 63.13 C-136.29 65.18 -136.29 65.18 -134.97 67.13 C-128 58.45 -122.9 48.62 -123.97 37.13 C-128.29 36.81 -131.46 37.93 -135.35 39.63 Z " fill="#1D1E28" transform="translate(342.97265625,2.87060546875)"/><path d="M0 0 C9.24 0 18.48 0 28 0 C27.67 1.32 27.34 2.64 27 4 C28.65 4 30.3 4 32 4 C32 29.74 32 55.48 32 82 C-1.98 82.04 -1.98 82.04 -16.6 82.05 C-26.56 82.05 -36.52 82.06 -46.48 82.08 C-109.91 82.16 -109.91 82.16 -139.59 81.68 C-141.9 81.64 -144.21 81.61 -146.51 81.57 C-149.63 81.53 -152.74 81.47 -155.86 81.41 C-157.22 81.39 -157.22 81.39 -158.62 81.38 C-159.44 81.36 -160.26 81.34 -161.1 81.32 C-161.81 81.3 -162.52 81.29 -163.25 81.28 C-165 81 -165 81 -167 79 C-167.14 76.75 -167.19 74.62 -167.12 72.38 C-167.12 71.76 -167.11 71.15 -167.1 70.52 C-167.07 69.02 -167.04 67.51 -167 66 C-168.26 66.02 -168.26 66.02 -169.55 66.04 C-170.65 66.04 -171.75 66.05 -172.88 66.06 C-173.97 66.07 -175.06 66.09 -176.18 66.1 C-179 66 -179 66 -181 65 C-180.67 64.34 -180.34 63.68 -180 63 C-175.71 63.33 -171.42 63.66 -167 64 C-167.01 63 -167.02 62 -167.04 60.97 C-167.04 59.67 -167.05 58.37 -167.06 57.06 C-167.07 56.4 -167.08 55.74 -167.09 55.06 C-167.1 53.38 -167.05 51.69 -167 50 C-165.21 48.21 -162.55 48.86 -160.14 48.85 C-159.52 48.85 -158.91 48.85 -158.28 48.84 C-156.25 48.84 -154.22 48.83 -152.19 48.83 C-150.79 48.83 -149.38 48.83 -147.97 48.82 C-145.02 48.82 -142.07 48.81 -139.12 48.81 C-135.33 48.81 -131.54 48.8 -127.75 48.78 C-124.85 48.77 -121.94 48.77 -119.04 48.77 C-117.64 48.77 -116.24 48.77 -114.85 48.76 C-112.9 48.75 -110.95 48.75 -108.99 48.76 C-107.88 48.76 -106.77 48.75 -105.63 48.75 C-103 49 -103 49 -101 51 C-100.69 53.24 -100.49 55.38 -100.38 57.62 C-100.34 58.24 -100.3 58.85 -100.26 59.48 C-100.16 60.98 -100.08 62.49 -100 64 C-95.17 59.2 -90.35 54.39 -85.53 49.58 C-83.89 47.95 -82.24 46.31 -80.6 44.68 C-78.24 42.33 -75.89 39.98 -73.54 37.63 C-72.8 36.9 -72.06 36.17 -71.3 35.41 C-70.62 34.73 -69.94 34.05 -69.23 33.35 C-68.63 32.75 -68.03 32.15 -67.41 31.53 C-65.9 30.04 -65.9 30.04 -65 28 C-64.25 28.08 -63.49 28.16 -62.72 28.25 C-59.91 28.27 -59.91 28.27 -58.16 26.25 C-57.61 25.51 -57.06 24.76 -56.5 24 C-54.84 21.75 -54.84 21.75 -53 20 C-50.39 19.88 -50.39 19.88 -48 20 C-46.16 18.1 -46.16 18.1 -45 16 C-45.5 15.71 -45.99 15.42 -46.5 15.12 C-47 14.75 -47.49 14.38 -48 14 C-48 13.34 -48 12.68 -48 12 C-46.88 12.05 -45.76 12.09 -44.61 12.14 C-43.13 12.18 -41.66 12.21 -40.19 12.25 C-39.45 12.28 -38.71 12.32 -37.95 12.35 C-35.89 12.39 -34.02 12.39 -32 12 C-30.25 10.06 -30.25 10.06 -29 8 C-26.62 7.72 -24.53 8 -22.16 8.25 C-21.44 8.17 -20.73 8.09 -20 8 C-19.57 7.35 -19.14 6.69 -18.7 6.02 C-17 4 -17 4 -15.36 3.67 C-13.33 3.61 -11.34 3.65 -9.31 3.75 C-8.26 3.78 -8.26 3.78 -7.19 3.8 C-5.46 3.85 -3.73 3.92 -2 4 C-2 3.34 -2 2.68 -2 2 C-1.34 2 -0.68 2 0 2 C0 1.34 0 0.68 0 0 Z " fill="#EDECFE" transform="translate(430,199)"/><path d="M0 0 C1.31 1.5 1.31 1.5 2 3 C-33.82 16.88 -33.82 16.88 -51.9 19.91 C-56.61 20.71 -61.23 21.72 -65.88 22.85 C-71.85 24.28 -77.83 25.63 -83.83 26.89 C-110.46 32.54 -136.34 39.2 -159 55 C-158.29 55.27 -158.29 55.27 -157.57 55.54 C-152.64 57.42 -147.71 59.3 -142.78 61.19 C-140.94 61.89 -139.1 62.59 -137.27 63.29 C-134.61 64.3 -131.96 65.31 -129.31 66.33 C-128.09 66.79 -128.09 66.79 -126.85 67.26 C-121.74 69.23 -116.85 71.46 -112 74 C-111.08 74.48 -110.15 74.96 -109.2 75.46 C-90.4 85.6 -75.83 98.93 -60.39 113.52 C-42.08 130.77 -21.62 144.26 0 157 C7.63 161.52 15.22 166.09 22.69 170.88 C23.26 171.24 23.84 171.61 24.44 171.99 C25.25 172.52 25.25 172.52 26.07 173.05 C26.58 173.38 27.09 173.71 27.62 174.05 C29 175 29 175 31.08 176.88 C32.96 178.26 32.96 178.26 35.23 177.6 C39.27 175.27 42.74 172.36 46.31 169.38 C47.42 168.46 47.42 168.46 48.56 167.52 C50.38 166.02 52.19 164.51 54 163 C54.66 163.33 55.32 163.66 56 164 C55.01 165.32 54.02 166.64 53 168 C59.58 167.72 62.76 165.32 67.62 161.06 C69.04 159.87 70.46 158.67 71.88 157.48 C72.57 156.89 73.27 156.3 73.99 155.69 C76.8 153.33 79.7 151.09 82.62 148.88 C83.68 148.07 84.74 147.26 85.8 146.45 C86.59 145.85 86.59 145.85 87.39 145.24 C95.33 139.15 103.14 132.9 110.88 126.56 C116.8 121.72 122.84 117.08 128.99 112.52 C134.52 108.41 139.87 104.1 145.2 99.73 C149.38 96.29 153.63 92.96 157.94 89.69 C159.96 88.13 161.98 86.57 164 85 C164.8 84.38 165.6 83.77 166.42 83.13 C171.3 79.11 175.18 74.52 179 69.5 C179.48 68.88 179.96 68.27 180.46 67.63 C183.14 63.97 185.01 60.61 185.32 56.01 C184.66 51.86 181.8 49.09 179.06 46.06 C178.47 45.37 177.87 44.68 177.26 43.96 C176.07 42.59 174.87 41.22 173.66 39.87 C172.22 38.25 170.82 36.62 169.42 34.96 C166.81 31.88 166.81 31.88 164 29 C163.34 29 162.68 29 162 29 C162.33 28.01 162.66 27.02 163 26 C165.64 25.61 165.64 25.61 169 26 C171.32 27.76 173.02 29.96 174.81 32.25 C175.33 32.88 175.84 33.5 176.37 34.15 C181.09 39.96 185.6 45.94 190 52 C190.43 51.66 190.86 51.33 191.31 50.98 C194 49.42 196.08 50.26 199 51 C201 53 201 53 201.31 55.94 C201 59 201 59 199.88 60.88 C197.21 62.48 195.06 62.2 192 62 C191.34 62 190.68 62 190 62 C188.91 63.58 187.91 65.22 186.94 66.88 C183.27 72.92 178.9 77.89 174 83 C173.47 83.57 172.94 84.14 172.39 84.73 C171.31 85.87 170.16 86.95 169 88 C168.34 88 167.68 88 167 88 C167 88.66 167 89.32 167 90 C165.24 91.5 163.48 92.88 161.62 94.25 C160.43 95.15 159.23 96.05 158.04 96.96 C157.39 97.45 156.74 97.93 156.07 98.44 C152.37 101.23 148.72 104.09 145.06 106.94 C143.92 107.83 143.92 107.83 142.74 108.74 C134.13 115.45 125.52 122.17 117 129 C106.98 137.04 96.83 144.92 86.68 152.8 C82.01 156.43 77.34 160.08 72.69 163.75 C67.79 167.61 62.87 171.42 57.92 175.21 C53.07 178.93 48.27 182.71 43.49 186.51 C42.93 186.95 42.38 187.39 41.8 187.85 C41.31 188.24 40.81 188.63 40.31 189.04 C39 190 39 190 37 191 C37.66 191.66 38.32 192.32 39 193 C39.38 195.94 39.38 195.94 39 199 C37.37 200.94 37.37 200.94 35 202 C29.87 201.79 29.87 201.79 27.62 199.75 C26.77 197.36 26.75 195.52 27 193 C28.02 191.34 28.02 191.34 29 190 C22.11 184.08 14.93 179.36 7.05 174.87 C3.84 173.04 0.64 171.18 -2.56 169.32 C-3.52 168.77 -3.52 168.77 -4.49 168.2 C-19.3 159.62 -33.58 150.64 -47 140 C-47.75 139.41 -47.75 139.41 -48.52 138.8 C-51.24 136.64 -53.92 134.44 -56.57 132.2 C-57.58 131.35 -58.6 130.5 -59.62 129.66 C-66.86 123.64 -73.71 117.4 -80.29 110.67 C-85.99 104.89 -92.14 99.37 -99 95 C-99.56 95.97 -100.11 96.94 -100.69 97.94 C-102.26 100.28 -102.82 100.92 -105.5 102.06 C-108 102 -108 102 -110.31 100.94 C-112 99 -112 99 -112.44 96.06 C-111.96 92.73 -111.08 91.55 -109 89 C-123.75 80.99 -139.39 75.09 -155 69 C-154.33 66.33 -153.67 63.67 -153 61 C-154.01 60.82 -154.01 60.82 -155.05 60.63 C-155.94 60.47 -156.83 60.3 -157.75 60.12 C-158.63 59.96 -159.51 59.8 -160.42 59.63 C-162.87 59.03 -164.81 58.22 -167 57 C-167.2 55.14 -167.2 55.14 -167 53 C-165.71 51.75 -165.71 51.75 -163.88 50.7 C-162.86 50.11 -162.86 50.11 -161.82 49.5 C-161.08 49.09 -160.33 48.67 -159.56 48.25 C-158.8 47.81 -158.03 47.38 -157.24 46.93 C-149.36 42.52 -141.29 38.59 -133 35 C-132.39 34.73 -131.79 34.46 -131.17 34.19 C-113.02 26.29 -92.82 22.93 -73.5 19 C-52.86 14.8 -32.54 10.46 -12.85 2.84 C-11.89 2.47 -10.93 2.1 -9.94 1.72 C-9.1 1.39 -8.26 1.06 -7.4 0.72 C-4.75 -0.08 -2.75 -0.35 0 0 Z " fill="#1C1C26" transform="translate(193,45)"/><path d="M0 0 C0.62 -0 1.25 -0 1.89 -0.01 C3.95 -0.01 6.02 -0.01 8.09 -0 C9.52 -0 10.95 -0.01 12.38 -0.01 C15.39 -0.01 18.39 -0.01 21.39 -0 C25.25 0 29.11 0 32.96 -0 C35.92 -0.01 38.88 -0.01 41.83 -0 C43.25 -0 44.68 -0 46.1 -0.01 C48.08 -0.01 50.07 -0.01 52.05 0 C53.75 0 53.75 0 55.48 0 C58.03 0.13 58.03 0.13 59.03 1.13 C59.13 3.28 59.17 5.39 59.16 7.54 C59.16 8.18 59.16 8.82 59.16 9.47 C59.16 10.83 59.16 12.18 59.16 13.54 C59.15 15.62 59.16 17.7 59.16 19.78 C59.16 21.1 59.16 22.41 59.16 23.72 C59.16 24.35 59.16 24.98 59.17 25.62 C59.14 30.01 59.14 30.01 58.03 31.13 C55.72 31.22 53.45 31.24 51.15 31.23 C50.12 31.22 50.12 31.22 49.07 31.22 C46.87 31.22 44.67 31.2 42.46 31.19 C40.98 31.19 39.49 31.18 38 31.18 C34.34 31.17 30.68 31.15 27.03 31.13 C27.04 32.7 27.04 32.7 27.06 34.31 C27.1 38.2 27.12 42.09 27.14 45.97 C27.15 47.66 27.16 49.34 27.18 51.02 C27.2 53.44 27.21 55.86 27.22 58.28 C27.23 59.03 27.24 59.79 27.25 60.57 C27.25 62.42 27.15 64.28 27.03 66.13 C24.38 68.78 22.84 68.48 19.15 68.69 C15.65 68.9 12.4 69.14 9.03 70.13 C8.37 69.14 7.71 68.15 7.03 67.13 C7.69 66.14 8.35 65.15 9.03 64.13 C10.35 64.46 11.67 64.79 13.03 65.13 C13.03 65.79 13.03 66.45 13.03 67.13 C14.84 66.99 16.65 66.84 18.46 66.69 C19.47 66.61 20.48 66.53 21.52 66.45 C23.96 66.4 23.96 66.4 25.03 65.13 C25.19 62.61 25.29 60.12 25.34 57.59 C25.36 56.84 25.39 56.09 25.41 55.31 C25.47 52.9 25.53 50.48 25.59 48.07 C25.63 46.43 25.68 44.8 25.72 43.17 C25.83 39.15 25.93 35.14 26.03 31.13 C25.06 31.13 24.1 31.14 23.11 31.15 C19.54 31.16 15.98 31.17 12.41 31.18 C10.87 31.19 9.32 31.2 7.77 31.2 C5.56 31.22 3.34 31.22 1.12 31.23 C0.08 31.23 0.08 31.23 -0.98 31.24 C-2.64 31.24 -4.31 31.19 -5.97 31.13 C-7.56 29.54 -7.1 27.75 -7.11 25.62 C-7.11 24.99 -7.11 24.37 -7.11 23.72 C-7.11 23.08 -7.11 22.44 -7.11 21.78 C-7.11 20.43 -7.11 19.07 -7.1 17.72 C-7.1 15.64 -7.1 13.56 -7.11 11.48 C-7.11 10.16 -7.11 8.85 -7.11 7.54 C-7.11 6.91 -7.11 6.28 -7.11 5.64 C-7.08 -0.46 -5.86 0 0 0 Z " fill="#1FC30E" transform="translate(342.97265625,2.87060546875)"/><path d="M0 0 C2.47 0.5 2.47 0.5 5 1 C4.12 4.88 4.12 4.88 3 6 C2.84 8.37 2.74 10.72 2.68 13.1 C2.66 13.81 2.64 14.52 2.62 15.25 C2.56 17.52 2.5 19.79 2.44 22.06 C2.39 23.6 2.35 25.14 2.31 26.67 C2.2 30.45 2.1 34.22 2 38 C2.93 37.99 3.87 37.99 4.83 37.98 C8.28 37.97 11.74 37.95 15.19 37.95 C16.69 37.94 18.18 37.93 19.68 37.92 C21.83 37.91 23.97 37.91 26.12 37.9 C27.13 37.89 27.13 37.89 28.16 37.89 C29.77 37.89 31.39 37.94 33 38 C34.59 39.59 34.13 41.38 34.14 43.51 C34.14 44.45 34.14 44.45 34.13 45.41 C34.13 46.05 34.13 46.69 34.14 47.35 C34.14 48.7 34.13 50.06 34.13 51.41 C34.13 53.49 34.13 55.57 34.14 57.65 C34.14 58.97 34.13 60.28 34.13 61.59 C34.13 62.22 34.14 62.85 34.14 63.49 C34.11 67.89 34.11 67.89 33 69 C31.01 69.09 29.01 69.12 27.01 69.11 C26.07 69.11 26.07 69.11 25.12 69.11 C23.05 69.11 20.97 69.11 18.9 69.1 C17.47 69.1 16.04 69.09 14.6 69.09 C10.82 69.09 7.04 69.08 3.26 69.07 C-0.59 69.06 -4.44 69.05 -8.3 69.05 C-15.87 69.04 -23.43 69.02 -31 69 C-31.02 64.75 -31.04 60.49 -31.05 56.24 C-31.06 54.79 -31.07 53.34 -31.08 51.89 C-31.09 49.82 -31.09 47.74 -31.1 45.66 C-31.1 45.01 -31.11 44.36 -31.11 43.69 C-31.11 42.12 -31.06 40.56 -31 39 C-30 38 -30 38 -27.04 37.89 C-25.73 37.89 -24.43 37.89 -23.12 37.9 C-22.09 37.9 -22.09 37.9 -21.04 37.91 C-18.84 37.91 -16.64 37.92 -14.44 37.94 C-12.95 37.94 -11.46 37.95 -9.97 37.95 C-6.31 37.96 -2.66 37.98 1 38 C0.51 26.62 0.51 26.62 0 15 C-0.99 14.67 -1.98 14.34 -3 14 C-3 13.01 -3 12.02 -3 11 C-2.01 11 -1.02 11 0 11 C0.33 9.02 0.66 7.04 1 5 C0.34 5 -0.32 5 -1 5 C-0.67 3.35 -0.34 1.7 0 0 Z " fill="#19C107" transform="translate(36,105)"/><path d="M0 0 C0.92 -0 0.92 -0 1.86 -0.01 C3.89 -0.01 5.93 -0.01 7.96 -0 C9.37 -0 10.78 -0.01 12.19 -0.01 C15.14 -0.01 18.1 -0.01 21.06 -0 C24.85 0 28.65 0 32.45 -0 C35.36 -0.01 38.27 -0.01 41.18 -0 C42.58 -0 43.98 -0 45.38 -0.01 C47.33 -0.01 49.28 -0.01 51.24 0 C52.35 0 53.47 0 54.61 0 C57.12 0.13 57.12 0.13 58.12 1.13 C58.21 3.36 58.23 5.56 58.22 7.79 C58.22 8.45 58.21 9.12 58.21 9.8 C58.21 11.93 58.19 14.06 58.18 16.19 C58.18 17.63 58.17 19.07 58.17 20.51 C58.16 24.05 58.14 27.59 58.12 31.13 C49.79 31.15 41.46 31.17 33.14 31.18 C29.27 31.19 25.4 31.19 21.54 31.2 C17.81 31.22 14.08 31.22 10.35 31.22 C8.93 31.23 7.5 31.23 6.08 31.24 C4.09 31.24 2.1 31.24 0.11 31.24 C-1.03 31.25 -2.16 31.25 -3.33 31.25 C-5.88 31.13 -5.88 31.13 -6.88 30.13 C-6.95 27.93 -6.97 25.76 -6.94 23.57 C-6.94 22.95 -6.93 22.34 -6.93 21.7 C-6.92 20.18 -6.9 18.65 -6.88 17.13 C-7.72 17.14 -8.57 17.15 -9.44 17.16 C-10.53 17.17 -11.63 17.18 -12.76 17.19 C-13.85 17.2 -14.94 17.22 -16.06 17.23 C-18.88 17.13 -18.88 17.13 -20.88 16.13 C-20.55 15.47 -20.22 14.81 -19.88 14.13 C-15.59 14.46 -11.3 14.79 -6.88 15.13 C-6.89 14.13 -6.9 13.13 -6.92 12.1 C-6.93 10.8 -6.93 9.5 -6.94 8.19 C-6.95 7.53 -6.96 6.87 -6.97 6.19 C-6.98 4.51 -6.93 2.82 -6.88 1.13 C-5.09 -0.66 -2.42 0 0 0 Z " fill="#1EC20D" transform="translate(269.880859375,247.87060546875)"/><path d="M0 0 C0.99 0.49 0.99 0.49 2 1 C1.69 1.56 1.38 2.11 1.06 2.69 C-0.06 5.13 -0.52 7.37 -1 10 C-1.9 10.15 -1.9 10.15 -2.82 10.3 C-10.23 11.65 -16.92 14.05 -23.91 16.81 C-41.74 23.59 -60.9 26.76 -79.51 30.62 C-106.51 35.99 -106.51 35.99 -132.56 44.69 C-133.6 45.11 -134.64 45.53 -135.71 45.97 C-146.86 50.62 -158.31 55.7 -168 63 C-168.66 63 -169.32 63 -170 63 C-169.85 64.97 -169.85 64.97 -169 67 C-166.92 68.14 -166.92 68.14 -164.44 68.75 C-163.61 68.99 -162.78 69.23 -161.93 69.48 C-161.3 69.65 -160.66 69.82 -160 70 C-160.33 71.65 -160.66 73.3 -161 75 C-160.34 75 -159.68 75 -159 75 C-159 75.99 -159 76.98 -159 78 C-165.23 76.35 -170.54 74.44 -176 71 C-176.35 71.52 -176.7 72.03 -177.06 72.56 C-179.32 74.23 -179.87 74.17 -182.56 73.88 C-184.68 73.45 -185.79 73.16 -187.5 71.81 C-188.29 68.95 -187.78 66.82 -187 64 C-185.19 62.01 -184.13 62.01 -181.44 61.81 C-179 62 -179 62 -177 63 C-176.82 62.44 -176.63 61.88 -176.45 61.3 C-174.3 57.88 -171.29 56.31 -167.88 54.25 C-167.16 53.81 -166.44 53.37 -165.7 52.92 C-146.79 41.58 -126.26 32.74 -104.48 28.85 C-101.15 28.25 -97.89 27.48 -94.61 26.64 C-89.51 25.34 -84.4 24.22 -79.25 23.17 C-78.48 23.01 -77.7 22.85 -76.9 22.69 C-75.29 22.36 -73.67 22.03 -72.06 21.7 C-48.08 16.78 -24.79 10.72 -2.31 0.82 C-1.17 0.41 -1.17 0.41 0 0 Z " fill="#183B4C" transform="translate(196,35)"/><path d="M0 0 C0.99 0 1.98 0 3 0 C2.81 0.62 2.63 1.24 2.44 1.88 C1.76 4.04 1.76 4.04 3 6 C2.54 6.16 2.07 6.32 1.6 6.49 C-0.56 7.24 -2.72 7.99 -4.88 8.75 C-5.6 9 -6.33 9.26 -7.08 9.52 C-11.9 11.21 -16.64 13.04 -21.37 14.95 C-38.28 21.71 -55.23 27.02 -73 31 C-74.28 31.29 -75.56 31.58 -76.85 31.87 C-89.03 34.61 -101.22 37.3 -113.49 39.65 C-127.87 42.41 -141.24 46.3 -154.58 52.41 C-158.96 54.37 -162.11 55.32 -167 55 C-168.66 55.94 -168.66 55.94 -170 57 C-170.99 57 -171.98 57 -173 57 C-173 56.01 -173 55.02 -173 54 C-171.43 52.58 -170.19 52.04 -168.12 51.56 C-164.57 50.62 -161.71 48.48 -158.69 46.44 C-155.76 44.87 -153.13 44.25 -149.92 43.54 C-147.78 43.03 -147.78 43.03 -145.31 41.38 C-142.62 39.77 -141.07 39.92 -138 40 C-137.34 39.34 -136.68 38.68 -136 38 C-134.67 37.65 -133.34 37.31 -132 37 C-131.13 36.51 -131.13 36.51 -130.25 36 C-127.51 34.78 -125.04 34.59 -122.07 34.28 C-120.12 34.02 -118.38 33.58 -116.5 33 C-113.97 32.22 -111.57 31.78 -108.94 31.5 C-106.39 31.23 -104.47 30.82 -102 30 C-99.53 29.18 -97.61 28.77 -95.06 28.5 C-91.86 28.16 -88.99 27.48 -85.92 26.54 C-83.61 25.89 -81.29 25.45 -78.94 25 C-75.16 24.27 -71.64 23.27 -68 22 C-65.24 21.36 -62.56 20.95 -59.75 20.62 C-54.35 19.88 -49.23 17.97 -44.25 15.81 C-42 15 -42 15 -39.5 15.06 C-36.26 14.98 -34.76 13.67 -32 12 C-30.21 11.27 -28.39 10.58 -26.56 9.94 C-25.6 9.6 -24.64 9.26 -23.65 8.91 C-21.65 8.22 -19.64 7.54 -17.62 6.88 C-12.86 5.38 -12.86 5.38 -8.56 2.94 C-6.2 1.52 -3.69 1.41 -1 1 C-0.67 0.67 -0.34 0.34 0 0 Z " fill="#DDEDDE" transform="translate(210,24)"/><path d="M0 0 C5.54 -0.03 11.07 -0.04 16.61 -0.05 C18.49 -0.06 20.38 -0.07 22.26 -0.08 C24.97 -0.09 27.67 -0.09 30.37 -0.1 C31.22 -0.1 32.07 -0.11 32.94 -0.11 C33.72 -0.11 34.5 -0.11 35.31 -0.11 C36 -0.12 36.69 -0.12 37.4 -0.12 C39 0 39 0 40 1 C40.1 2.62 40.13 4.25 40.13 5.88 C40.13 7.35 40.13 7.35 40.14 8.86 C40.13 9.9 40.13 10.93 40.12 12 C40.13 13.55 40.13 13.55 40.14 15.14 C40.14 16.13 40.13 17.11 40.13 18.12 C40.13 19.04 40.13 19.95 40.13 20.88 C40 23 40 23 39 24 C37.4 24.12 37.4 24.12 35.31 24.11 C34.14 24.11 34.14 24.11 32.94 24.11 C32.09 24.11 31.24 24.1 30.37 24.1 C29.07 24.1 29.07 24.1 27.75 24.09 C24.98 24.09 22.21 24.08 19.44 24.06 C17.56 24.06 15.69 24.05 13.81 24.05 C9.21 24.04 4.6 24.02 0 24 C-1.19 21.62 -1.13 20.15 -1.13 17.5 C-1.13 16.61 -1.14 15.73 -1.14 14.81 C-1.13 13.88 -1.13 12.96 -1.12 12 C-1.13 11.07 -1.13 10.14 -1.14 9.19 C-1.14 8.3 -1.13 7.41 -1.13 6.5 C-1.13 5.69 -1.13 4.87 -1.13 4.03 C-1 2 -1 2 0 0 Z " fill="#FF01FF" transform="translate(133,7)"/><path d="M0 0 C1.31 1.5 1.31 1.5 2 3 C-33.82 16.88 -33.82 16.88 -51.9 19.91 C-56.61 20.71 -61.23 21.72 -65.88 22.85 C-71.85 24.28 -77.83 25.63 -83.83 26.89 C-109.79 32.4 -137.45 38.5 -159 55 C-157.35 55.66 -155.7 56.32 -154 57 C-154 57.99 -154 58.98 -154 60 C-159.39 60.32 -162.34 59.73 -167 57 C-167.2 55.14 -167.2 55.14 -167 53 C-165.71 51.75 -165.71 51.75 -163.88 50.7 C-162.86 50.11 -162.86 50.11 -161.82 49.5 C-161.08 49.09 -160.33 48.67 -159.56 48.25 C-158.8 47.81 -158.03 47.38 -157.24 46.93 C-149.36 42.52 -141.29 38.59 -133 35 C-132.39 34.73 -131.79 34.46 -131.17 34.19 C-113.02 26.29 -92.82 22.93 -73.5 19 C-52.86 14.8 -32.54 10.46 -12.85 2.84 C-11.89 2.47 -10.93 2.1 -9.94 1.72 C-9.1 1.39 -8.26 1.06 -7.4 0.72 C-4.75 -0.08 -2.75 -0.35 0 0 Z " fill="#1A1B25" transform="translate(193,45)"/><path d="M0 0 C0.99 0.33 1.98 0.66 3 1 C-3.31 8.97 -10.66 14.79 -18.79 20.83 C-22.38 23.51 -25.84 26.29 -29.25 29.19 C-40.42 38.64 -52.28 47.25 -64 56 C-64.66 55.67 -65.32 55.34 -66 55 C-66 54.34 -66 53.68 -66 53 C-67.32 53.66 -68.64 54.32 -70 55 C-70.21 53.16 -70.21 53.16 -70 51 C-68.54 49.62 -68.54 49.62 -66.62 48.44 C-63.92 46.77 -63.92 46.77 -61.96 44.35 C-61.64 43.9 -61.33 43.46 -61 43 C-60.01 43 -59.02 43 -58 43 C-57.67 42.34 -57.34 41.68 -57 41 C-52.74 36.79 -47.87 33.48 -42.82 30.3 C-40.86 29.12 -40.86 29.12 -40 27 C-39.01 27 -38.02 27 -37 27 C-36.77 26.41 -36.55 25.82 -36.31 25.21 C-34.2 21.64 -30.77 20.05 -27.31 17.88 C-24.71 15.76 -23.96 14.18 -23 11 C-22.34 11 -21.68 11 -21 11 C-20.67 10.01 -20.34 9.02 -20 8 C-18.35 8 -16.7 8 -15 8 C-15.5 6.02 -15.5 6.02 -16 4 C-11.38 4 -6.76 4 -2 4 C-2 3.34 -2 2.68 -2 2 C-1.34 2 -0.68 2 0 2 C0 1.34 0 0.68 0 0 Z " fill="#EBEBF5" transform="translate(362,113)"/><path d="M0 0 C36.25 0 36.25 0 41 1 C40.67 2.65 40.34 4.3 40 6 C37.36 6 34.72 6 32 6 C32 4.68 32 3.36 32 2 C31.01 2 30.02 2 29 2 C29 3.32 29 4.64 29 6 C28.34 6 27.68 6 27 6 C27 4.68 27 3.36 27 2 C25.02 2 23.04 2 21 2 C21 2.99 21 3.98 21 5 C22.32 5 23.64 5 25 5 C25 5.66 25 6.32 25 7 C26.65 7 28.3 7 30 7 C30 8.32 30 9.64 30 11 C29.01 11 28.02 11 27 11 C27 11.66 27 12.32 27 13 C27.99 13.33 28.98 13.66 30 14 C27.03 14 24.06 14 21 14 C20.67 13.34 20.34 12.68 20 12 C19.67 12.66 19.34 13.32 19 14 C18.34 14 17.68 14 17 14 C17 11.69 17 9.38 17 7 C16.67 7.33 16.34 7.66 16 8 C16 8.82 16 9.65 16 10.5 C16 11.32 16 12.15 16 13 C15 14 15 14 12.5 14.1 C10.98 14.08 10.98 14.08 9.44 14.06 C8.43 14.05 7.41 14.04 6.37 14.04 C5.2 14.02 5.2 14.02 4 14 C4 13.01 4 12.02 4 11 C4.66 10.67 5.32 10.34 6 10 C5.34 9.67 4.68 9.34 4 9 C4 8.34 4 7.68 4 7 C2.68 7 1.36 7 0 7 C0 4.69 0 2.38 0 0 Z " fill="#3CCA2E" transform="translate(348,15)"/><path d="M0 0 C1.32 0.66 2.64 1.32 4 2 C4 2.66 4 3.32 4 4 C3.34 4.66 2.68 5.32 2 6 C2 6.66 2 7.32 2 8 C0.02 8.99 0.02 8.99 -2 10 C-1.34 10.66 -0.68 11.32 0 12 C-1.98 12.99 -1.98 12.99 -4 14 C-4 14.66 -4 15.32 -4 16 C-4.66 16.66 -5.32 17.32 -6 18 C-6 18.66 -6 19.32 -6 20 C-6.66 20.66 -7.32 21.32 -8 22 C-8 22.66 -8 23.32 -8 24 C-8.66 24.66 -9.32 25.32 -10 26 C-10 26.66 -10 27.32 -10 28 C-11.98 28.99 -11.98 28.99 -14 30 C-13.34 30.66 -12.68 31.32 -12 32 C-12.66 32.66 -13.32 33.32 -14 34 C-14 34.66 -14 35.32 -14 36 C-15.32 36.66 -16.64 37.32 -18 38 C-17.34 38.66 -16.68 39.32 -16 40 C-16.66 40.66 -17.32 41.32 -18 42 C-18 42.66 -18 43.32 -18 44 C-19.65 44 -21.3 44 -23 44 C-25.54 22.22 -25.54 22.22 -21.54 15.57 C-17.94 11.66 -13.67 8.84 -9.08 6.21 C-5.9 4.36 -2.96 2.18 0 0 Z " fill="#F8F8FD" transform="translate(272,203)"/><path d="M0 0 C-9.76 5.01 -19.71 9.52 -29.74 13.97 C-52.36 23.92 -52.36 23.92 -66.12 43.89 C-67.75 48.21 -69.19 52.59 -70.56 57 C-72.65 63.35 -76.37 66.71 -82 70 C-87.94 71.84 -94.48 71.94 -100.11 69.14 C-103.95 66.83 -107.51 64.17 -111.06 61.46 C-113.42 59.68 -115.8 57.92 -118.17 56.16 C-119.58 55.11 -120.99 54.05 -122.4 53 C-123.78 51.96 -125.17 50.93 -126.56 49.9 C-138.78 40.67 -138.78 40.67 -141 34 C-141.67 26.57 -141.6 20.13 -137 14 C-133.45 10.09 -129.06 7.51 -124 6 C-123.01 6 -122.02 6 -121 6 C-121 6.66 -121 7.32 -121 8 C-121.66 8.23 -122.33 8.46 -123.01 8.7 C-129.3 11.02 -133.89 12.75 -137 19 C-139.37 25.07 -139.82 30.73 -137.23 36.8 C-133.81 42.36 -128.21 45.81 -123.01 49.53 C-120.66 51.25 -118.35 53.02 -116.05 54.8 C-115.18 55.47 -114.3 56.15 -113.4 56.84 C-111.67 58.17 -109.93 59.51 -108.21 60.86 C-102.37 65.3 -96.1 69.96 -88.38 68.94 C-84.1 68.25 -81.21 66.87 -78 64 C-77.13 63.24 -76.27 62.47 -75.38 61.69 C-72.74 58.39 -71.98 54.71 -71 50.69 C-68.18 39.15 -62.51 29.24 -52.54 22.28 C-43.51 17.03 -34.07 12.85 -24.5 8.69 C-22.05 7.62 -19.61 6.54 -17.16 5.47 C-15.65 4.8 -14.14 4.14 -12.63 3.49 C-11.95 3.19 -11.27 2.89 -10.57 2.58 C-9.94 2.31 -9.31 2.04 -8.66 1.76 C-6.87 0.97 -6.87 0.97 -4.7 -0.28 C-3 -1 -3 -1 0 0 Z " fill="#6CBC66" transform="translate(272,91)"/><path d="M0 0 C7.06 1.98 13.84 4.39 20.62 7.19 C21.57 7.58 22.52 7.96 23.49 8.36 C31.87 11.85 39.97 15.78 48 20 C44.34 23.91 44.34 23.91 43 25 C39.94 25 38.35 24.21 35.75 22.62 C32.59 20.76 29.49 19.79 25.99 18.75 C24 18 24 18 22 16 C20.43 15.19 20.43 15.19 18.69 14.5 C18.06 14.24 17.43 13.98 16.79 13.72 C16.2 13.48 15.61 13.24 15 13 C14.2 12.67 13.39 12.34 12.56 12 C9.64 10.86 6.71 9.77 3.77 8.68 C2 8 2 8 0 7 C0 4.69 0 2.38 0 0 Z " fill="#F0F4F3" transform="translate(38,114)"/><path d="M0 0 C5.51 4.36 9.92 9.22 14.31 14.69 C14.93 15.45 15.55 16.2 16.19 16.99 C22.96 25.32 22.96 25.32 23.19 29.44 C22.26 35.49 17.92 40.05 14.14 44.62 C13.18 45.78 12.26 46.97 11.34 48.16 C6.92 53.67 1.46 57.75 -4.12 62.01 C-8.17 65.11 -12.12 68.33 -16.06 71.56 C-21.89 76.32 -27.79 80.96 -33.77 85.53 C-37.29 88.21 -40.77 90.95 -44.25 93.69 C-49.49 97.81 -54.73 101.92 -60 106 C-60 103 -60 103 -58.74 101.62 C-58.15 101.16 -57.56 100.69 -56.96 100.21 C-55.97 99.43 -55.97 99.43 -54.97 98.62 C-54.26 98.07 -53.55 97.51 -52.81 96.94 C-52.08 96.36 -51.36 95.78 -50.61 95.18 C-48.41 93.44 -46.21 91.72 -44 90 C-43.4 89.54 -42.81 89.07 -42.19 88.59 C-39.54 86.54 -36.88 84.49 -34.21 82.46 C-29.62 78.95 -25.09 75.37 -20.55 71.79 C-18.16 69.91 -15.76 68.04 -13.36 66.18 C8.15 50.89 8.15 50.89 20.43 29.15 C19.84 24.86 17.94 22.91 15.06 19.81 C14.06 18.68 13.05 17.54 12.05 16.41 C11.54 15.84 11.03 15.27 10.51 14.69 C8.21 12.12 6.01 9.47 3.81 6.81 C3.08 5.93 2.34 5.05 1.58 4.14 C0 2 0 2 0 0 Z " fill="#6DBE66" transform="translate(356,73)"/><path d="M0 0 C6.93 0 13.86 0 21 0 C21 2.31 21 4.62 21 7 C20.34 7 19.68 7 19 7 C19 5.35 19 3.7 19 2 C18.01 2 17.02 2 16 2 C16.07 2.78 16.14 3.56 16.22 4.37 C16.31 5.38 16.4 6.39 16.5 7.44 C16.59 8.45 16.69 9.46 16.78 10.5 C17 13 17 13 17 14 C14.03 14 11.06 14 8 14 C7.67 13.34 7.34 12.68 7 12 C6.67 12.66 6.34 13.32 6 14 C3.36 14 0.72 14 -2 14 C-2.62 11.62 -2.62 11.62 -3 9 C-2.34 8.34 -1.68 7.68 -1 7 C-0.67 4.69 -0.34 2.38 0 0 Z " fill="#92DF8B" transform="translate(29,155)"/><path d="M0 0 C1.12 -0.02 2.25 -0.04 3.4 -0.06 C4.48 -0.07 5.55 -0.07 6.65 -0.08 C7.64 -0.09 8.63 -0.1 9.65 -0.11 C12.06 0.25 12.06 0.25 13.4 1.77 C13.62 2.26 13.84 2.75 14.06 3.25 C14.39 2.26 14.72 1.27 15.06 0.25 C15.72 0.25 16.38 0.25 17.06 0.25 C17.06 2.23 17.06 4.21 17.06 6.25 C15.74 6.25 14.42 6.25 13.06 6.25 C12.73 5.59 12.4 4.93 12.06 4.25 C11.73 4.91 11.4 5.57 11.06 6.25 C8 6.88 8 6.88 5.06 7.25 C5.39 9.56 5.72 11.87 6.06 14.25 C4.41 14.25 2.76 14.25 1.06 14.25 C1.06 13.59 1.06 12.93 1.06 12.25 C0.4 12.25 -0.26 12.25 -0.94 12.25 C-0.94 12.91 -0.94 13.57 -0.94 14.25 C-2.92 14.25 -4.9 14.25 -6.94 14.25 C-6.94 11.94 -6.94 9.63 -6.94 7.25 C-6.28 7.25 -5.62 7.25 -4.94 7.25 C-4.94 5.6 -4.94 3.95 -4.94 2.25 C-6.92 2.25 -8.9 2.25 -10.94 2.25 C-10.94 3.24 -10.94 4.23 -10.94 5.25 C-9.95 5.58 -8.96 5.91 -7.94 6.25 C-9.59 6.25 -11.24 6.25 -12.94 6.25 C-12.98 4.58 -12.98 2.92 -12.94 1.25 C-10.39 -1.29 -3.42 0.02 0 0 Z " fill="#2AC51A" transform="translate(306.9375,259.75)"/><path d="M0 0 C33.14 11.08 59.88 25.55 84.38 50.41 C88.49 54.45 92.93 58.14 97.4 61.78 C97.99 62.27 98.59 62.76 99.2 63.26 C100.39 64.24 101.58 65.22 102.78 66.18 C103.33 66.63 103.88 67.08 104.44 67.55 C105.18 68.15 105.18 68.15 105.93 68.76 C107 70 107 70 107 73 C86.8 56.06 86.8 56.06 78.38 47.31 C77.01 45.88 77.01 45.88 75 45 C75 44.34 75 43.68 75 43 C74.43 42.75 73.86 42.51 73.27 42.25 C70.62 40.79 68.8 39.04 66.62 36.94 C48.27 19.91 22.87 11.06 0 2 C0 1.34 0 0.68 0 0 Z " fill="#3D5664" transform="translate(41,108)"/><path d="M0 0 C0.66 0.33 1.32 0.66 2 1 C0.74 4.52 -1.06 5.93 -4.27 7.78 C-6.19 9.06 -6.19 9.06 -8.25 11.3 C-11.26 14.38 -14.66 16.75 -18.19 19.19 C-19.43 20.05 -20.68 20.92 -21.92 21.79 C-22.46 22.17 -23.01 22.55 -23.57 22.93 C-25.17 24.07 -25.17 24.07 -27 26 C-31.52 30.25 -36.41 33.72 -41.65 37.02 C-45.25 39.33 -48.01 41.94 -51 45 C-52.66 46.02 -54.32 47.02 -56 48 C-56.33 48.66 -56.66 49.32 -57 50 C-57.66 50 -58.32 50 -59 50 C-59 50.66 -59 51.32 -59 52 C-59.99 51.67 -60.98 51.34 -62 51 C-62 50.34 -62 49.68 -62 49 C-61.34 49 -60.68 49 -60 49 C-59.77 48.4 -59.55 47.8 -59.31 47.19 C-57.63 44.39 -55.81 43.63 -53 42 C-51.28 40.85 -49.57 39.68 -47.88 38.5 C-46.6 37.62 -46.6 37.62 -45.3 36.72 C-43.33 35.24 -41.7 33.77 -40 32 C-35.88 28.26 -31.65 25.03 -27 22 C-26.34 21.34 -25.68 20.68 -25 20 C-19.55 15.03 -13.67 10.94 -7.52 6.88 C-6.84 6.42 -6.15 5.96 -5.45 5.49 C-4.83 5.08 -4.22 4.67 -3.58 4.26 C-1.97 2.97 -1.03 1.77 0 0 Z " fill="#B5E4B2" transform="translate(289,166)"/><path d="M0 0 C1.65 0 3.3 0 5 0 C4.01 0.33 3.02 0.66 2 1 C2 1.66 2 2.32 2 3 C2.99 3.33 3.98 3.66 5 4 C5.33 4.99 5.66 5.98 6 7 C6.66 7 7.32 7 8 7 C8 5.02 8 3.04 8 1 C7.34 0.67 6.68 0.34 6 0 C9.96 0 13.92 0 18 0 C17.01 0.33 16.02 0.66 15 1 C15 1.66 15 2.32 15 3 C15.99 3.33 16.98 3.66 18 4 C18 4.99 18 5.98 18 7 C19.26 8.34 19.26 8.34 21 9 C21.99 8.67 22.98 8.34 24 8 C24 9.98 24 11.96 24 14 C23.44 13.81 22.89 13.63 22.31 13.44 C20 12.85 20 12.85 17.72 13.47 C14.8 14.04 12.15 14.1 9.19 14.06 C8.21 14.05 7.24 14.04 6.23 14.04 C5.13 14.02 5.13 14.02 4 14 C4 13.01 4 12.02 4 11 C4.66 10.67 5.32 10.34 6 10 C5.34 9.67 4.68 9.34 4 9 C4 8.34 4 7.68 4 7 C2.68 7 1.36 7 0 7 C0 4.69 0 2.38 0 0 Z " fill="#60D355" transform="translate(275,260)"/><path d="M0 0 C3.31 5.7 2.1 11.29 0.56 17.31 C-3.42 31.61 -12.46 42.96 -25.23 50.53 C-30.34 53.25 -34.97 55.49 -40.88 54.94 C-38.39 52.45 -36.27 51.94 -32.94 50.81 C-20.47 46.22 -11.5 38.27 -5.57 26.29 C-2.57 19.14 -0.11 11.76 -0.88 3.94 C-1.71 1.77 -1.71 1.77 -3.88 0.94 C-10.48 0.94 -16.1 3.41 -22.12 5.88 C-24.88 6.94 -24.88 6.94 -26.88 6.94 C-26.88 6.28 -26.88 5.62 -26.88 4.94 C-24.03 3.72 -21.17 2.55 -18.31 1.38 C-17.51 1.03 -16.71 0.69 -15.89 0.34 C-10.25 -1.94 -5.62 -3.19 0 0 Z " fill="#0393BC" transform="translate(223.875,35.0625)"/><path d="M0 0 C2.25 0.25 2.25 0.25 4 1 C0.07 5.17 -4.16 8.89 -9 12 C-9.66 12 -10.32 12 -11 12 C-11.33 12.99 -11.66 13.98 -12 15 C-12.66 15 -13.32 15 -14 15 C-15.27 16.1 -15.27 16.1 -16.5 17.5 C-17.78 18.91 -17.78 18.91 -19 20 C-19.66 20 -20.32 20 -21 20 C-23.49 22.35 -25.81 24.79 -28.12 27.31 C-32.22 31.45 -37.26 34.65 -42 38 C-42.66 37.34 -43.32 36.68 -44 36 C-40.15 31.77 -35.86 28.72 -31.11 25.55 C-28.89 24.17 -28.89 24.17 -28 22 C-27.01 22 -26.02 22 -25 22 C-24.8 21.43 -24.61 20.87 -24.41 20.29 C-22.41 17.04 -19.67 15.48 -16.5 13.44 C-15.32 12.67 -14.14 11.9 -12.97 11.12 C-12.19 10.62 -12.19 10.62 -11.39 10.1 C-9.9 9.05 -9.9 9.05 -9 7.37 C-8.51 6.69 -8.51 6.69 -8 6 C-7.01 6 -6.02 6 -5 6 C-4.67 5.34 -4.34 4.68 -4 4 C-2.19 1.81 -2.19 1.81 0 0 Z " fill="#A7E1A4" transform="translate(350,118)"/><path d="M0 0 C8.01 3.75 15.48 8.2 23.02 12.8 C25 14 26.99 15.17 28.98 16.34 C30.28 17.1 31.58 17.86 32.88 18.62 C33.5 18.99 34.13 19.36 34.78 19.74 C39.21 22.4 43.16 25.37 46.97 28.88 C49.03 30.23 49.03 30.23 51.86 30 C55.84 28.73 58.2 26.72 61.25 23.94 C66.77 19 66.77 19 69 19 C67.42 23.34 64.29 25.53 60.75 28.25 C60.19 28.71 59.63 29.17 59.05 29.64 C56.39 31.7 54.37 32.91 51.08 33.73 C47.07 32.78 45.24 30.77 42.29 27.98 C38.56 24.75 34.33 22.46 30.05 20.06 C27.4 18.57 24.76 17.04 22.12 15.53 C21.34 15.08 21.34 15.08 20.54 14.62 C15.81 11.91 11.14 9.12 6.5 6.25 C5.83 5.84 5.16 5.44 4.47 5.02 C2.94 4.07 1.47 3.04 0 2 C0 1.34 0 0.68 0 0 Z " fill="#47474F" transform="translate(176,198)"/><path d="M0 0 C0 0.66 0 1.32 0 2 C-0.66 2.23 -1.33 2.46 -2.01 2.7 C-8.3 5.02 -12.89 6.75 -16 13 C-18.37 19.07 -18.82 24.73 -16.23 30.8 C-12.82 36.34 -7.24 39.81 -2.04 43.52 C2.26 46.64 6.5 49.86 10.75 53.06 C12.52 54.39 14.28 55.71 16.05 57.04 C17.36 58.02 18.68 59.01 20 60 C19.01 60.33 18.02 60.66 17 61 C15.2 59.97 15.2 59.97 13.19 58.35 C12.45 57.76 11.71 57.17 10.94 56.57 C10.16 55.93 9.37 55.29 8.56 54.62 C6.93 53.32 5.31 52.02 3.68 50.72 C2.88 50.08 2.08 49.44 1.26 48.79 C-1.2 46.84 -3.71 44.99 -6.25 43.15 C-17.72 34.85 -17.72 34.85 -20 28 C-20.67 20.57 -20.6 14.13 -16 8 C-11.85 3.44 -6.26 0 0 0 Z " fill="#0395BF" transform="translate(151,97)"/><path d="M0 0 C1.32 0.33 2.64 0.66 4 1 C-9.63 11.56 -9.63 11.56 -16 16 C-16.66 15.67 -17.32 15.34 -18 15 C-18 14.34 -18 13.68 -18 13 C-19.98 13.99 -19.98 13.99 -22 15 C-22.21 13.16 -22.21 13.16 -22 11 C-20.54 9.62 -20.54 9.62 -18.62 8.44 C-15.92 6.77 -15.92 6.77 -13.96 4.35 C-13.64 3.9 -13.33 3.46 -13 3 C-12.01 3 -11.02 3 -10 3 C-9.67 2.34 -9.34 1.68 -9 1 C-5.54 2.49 -5.54 2.49 -2 4 C-2 3.34 -2 2.68 -2 2 C-1.34 2 -0.68 2 0 2 C0 1.34 0 0.68 0 0 Z " fill="#ECEDF3" transform="translate(314,153)"/><path d="M0 0 C0.97 0.19 1.94 0.37 2.94 0.56 C3.95 0.71 4.96 0.85 6 1 C6.33 0.67 6.66 0.34 7 0 C8.85 -0.07 10.71 -0.08 12.56 -0.06 C13.57 -0.05 14.59 -0.04 15.63 -0.04 C16.8 -0.02 16.8 -0.02 18 0 C17.41 5.37 17.41 5.37 17 7 C16.01 7.5 16.01 7.5 15 8 C15 8.99 15 9.98 15 11 C14.01 11.5 14.01 11.5 13 12 C13.66 12.66 14.32 13.32 15 14 C13.35 14 11.7 14 10 14 C10.66 12.68 11.32 11.36 12 10 C7.78 6.78 5.5 5.48 0 6 C0 4.02 0 2.04 0 0 Z " fill="#BFEABD" transform="translate(10,155)"/><path d="M0 0 C0.99 0 1.98 0 3 0 C2.81 0.62 2.63 1.24 2.44 1.88 C1.76 4.04 1.76 4.04 3 6 C0.23 6.98 -2.54 7.96 -5.31 8.94 C-6.1 9.22 -6.88 9.49 -7.69 9.78 C-8.83 10.18 -8.83 10.18 -9.99 10.59 C-10.68 10.84 -11.38 11.08 -12.1 11.34 C-13.73 11.9 -15.36 12.45 -17 13 C-17.66 12.34 -18.32 11.68 -19 11 C-21.6 11.32 -21.6 11.32 -24 12 C-23.25 10.06 -23.25 10.06 -22 8 C-20.12 7.38 -20.12 7.38 -18 7 C-17.34 6.67 -16.68 6.34 -16 6 C-14 5 -14 5 -11.94 4.5 C-10 4.13 -10 4.13 -8.62 3 C-6.24 1.53 -3.74 1.42 -1 1 C-0.67 0.67 -0.34 0.34 0 0 Z " fill="#DCEEDE" transform="translate(210,24)"/><path d="M0 0 C0.33 0.99 0.66 1.98 1 3 C1.74 3.29 2.48 3.58 3.25 3.88 C6.61 5.25 8.6 7.38 11 10 C13.35 12.43 15.77 14.66 18.38 16.81 C21.53 19.46 24.1 22.35 26.64 25.58 C28.05 27.28 28.05 27.28 31 28 C32.61 29.63 32.61 29.63 34.19 31.56 C34.72 32.2 35.25 32.84 35.79 33.5 C36.19 34 36.59 34.49 37 35 C36.34 35.66 35.68 36.32 35 37 C34.75 36.38 34.5 35.76 34.25 35.12 C32.74 32.56 31.62 32.3 29 31 C27.65 29.94 26.34 28.83 25.06 27.69 C24.37 27.07 23.67 26.44 22.95 25.8 C21.37 24.34 19.83 22.85 18.31 21.31 C16.05 18.96 16.05 18.96 13.5 17 C10.8 14.84 8.4 12.48 6 10 C2.32 6.12 2.32 6.12 -2 3 C-1.34 2.01 -0.68 1.02 0 0 Z " fill="#ADE4A9" transform="translate(92,142)"/><path d="M0 0 C5.94 0 11.88 0 18 0 C18 1.98 18 3.96 18 6 C11.86 8.01 6.35 9.03 0 7 C0 4.69 0 2.38 0 0 Z " fill="#2CC61C" transform="translate(348,15)"/><path d="M0 0 C0.5 1.49 0.5 1.49 1 3 C-4.85 7.6 -10.7 12.2 -16.55 16.79 C-17.13 17.24 -17.7 17.69 -18.28 18.15 C-19.43 19.05 -20.58 19.95 -21.72 20.85 C-24.8 23.26 -27.86 25.69 -30.89 28.17 C-31.52 28.69 -32.16 29.2 -32.81 29.73 C-34.04 30.73 -35.26 31.73 -36.47 32.74 C-38.14 34.08 -38.14 34.08 -41 36 C-41.99 35.67 -42.98 35.34 -44 35 C-35.51 28.04 -26.98 21.16 -18.26 14.5 C-14.56 11.67 -10.91 8.81 -7.25 5.94 C-6.64 5.46 -6.03 4.98 -5.4 4.49 C-2.61 2.35 -2.61 2.35 0 0 Z " fill="#494951" transform="translate(294,177)"/><path d="M0 0 C0.33 0.99 0.66 1.98 1 3 C1.66 3 2.32 3 3 3 C3.33 2.34 3.66 1.68 4 1 C5.32 1 6.64 1 8 1 C8 1.99 8 2.98 8 4 C1.07 6.64 -5.86 9.28 -13 12 C-13 11.01 -13 10.02 -13 9 C-12.01 8.67 -11.02 8.34 -10 8 C-10 6.68 -10 5.36 -10 4 C-9.17 3.69 -9.17 3.69 -8.32 3.38 C-7.6 3.11 -6.87 2.84 -6.12 2.56 C-5.41 2.3 -4.69 2.03 -3.95 1.75 C-1.96 1.02 -1.96 1.02 0 0 Z " fill="#DCEFDE" transform="translate(185,33)"/><path d="M0 0 C16.25 0 16.25 0 21 1 C20.67 2.65 20.34 4.3 20 6 C17.36 6 14.72 6 12 6 C12 4.68 12 3.36 12 2 C11.01 2 10.02 2 9 2 C9 3.32 9 4.64 9 6 C8.34 6 7.68 6 7 6 C7 4.68 7 3.36 7 2 C5.02 2 3.04 2 1 2 C1 2.99 1 3.98 1 5 C1.99 5.33 2.98 5.66 4 6 C2.35 5.67 0.7 5.34 -1 5 C-0.67 3.35 -0.34 1.7 0 0 Z " fill="#C4EBC3" transform="translate(368,15)"/><path d="M0 0 C0.66 0.33 1.32 0.66 2 1 C1.67 1.33 1.34 1.66 1 2 C2.98 2.66 4.96 3.32 7 4 C7.69 6.31 7.69 6.31 8 9 C6.94 10.88 6.94 10.88 5 12 C1.35 11.78 -0.38 11.62 -3 9 C-3.56 3.7 -3.56 3.7 -1.5 1.12 C-1 0.75 -0.51 0.38 0 0 Z " fill="#282933" transform="translate(84,135)"/><path d="M0 0 C0.66 0.99 1.32 1.98 2 3 C1.34 3.45 0.67 3.89 -0.01 4.36 C-5.72 8.18 -5.72 8.18 -10.81 12.75 C-13.04 15.04 -15.26 16.4 -18 18 C-18.33 18.66 -18.66 19.32 -19 20 C-19.66 20 -20.32 20 -21 20 C-21 20.66 -21 21.32 -21 22 C-21.99 21.67 -22.98 21.34 -24 21 C-24 20.34 -24 19.68 -24 19 C-23.34 19 -22.68 19 -22 19 C-21.77 18.4 -21.55 17.8 -21.31 17.19 C-19.63 14.39 -17.81 13.63 -15 12 C-13.28 10.85 -11.57 9.68 -9.88 8.5 C-9.03 7.91 -8.18 7.32 -7.3 6.72 C-5.33 5.25 -3.68 3.79 -2 2 C-1.34 1.34 -0.68 0.68 0 0 Z " fill="#ACE3A9" transform="translate(251,196)"/><path d="M0 0 C2.21 0.43 3.2 0.66 4.88 2.19 C5.44 3.88 5.44 3.88 5.44 7.88 C2.14 7.88 -1.16 7.88 -4.56 7.88 C-5.22 6.23 -5.88 4.57 -6.56 2.88 C-4.64 0.05 -3.26 -0.36 0 0 Z " fill="#34353E" transform="translate(228.5625,22.125)"/><path d="M0 0 C1.1 0.02 1.1 0.02 2.21 0.04 C2.95 0.04 3.68 0.05 4.44 0.06 C5 0.07 5.57 0.09 6.15 0.1 C6.48 0.76 6.81 1.42 7.15 2.1 C7.81 1.77 8.47 1.44 9.15 1.1 C8.4 5.85 8.4 5.85 6.15 8.1 C4.5 8.36 4.5 8.36 2.65 8.35 C1.74 8.36 1.74 8.36 0.81 8.36 C-0.85 8.1 -0.85 8.1 -2.85 6.1 C-3.04 3.54 -3.04 3.54 -2.85 1.1 C-1.85 0.1 -1.85 0.1 0 0 Z " fill="#26262F" transform="translate(182.84765625,168.90234375)"/><path d="M0 0 C1.66 1.09 1.66 1.09 3.85 3.09 C3.19 3.42 2.53 3.75 1.85 4.09 C1.21 3.62 0.57 3.14 -0.09 2.65 C-5.12 0.09 -10.49 -0.02 -15.93 1.63 C-20.52 3.34 -24.93 5.47 -29.34 7.59 C-30.69 8.22 -32.03 8.84 -33.38 9.47 C-36.65 10.99 -39.9 12.53 -43.15 14.09 C-43.48 13.43 -43.81 12.77 -44.15 12.09 C-39.23 9.73 -34.29 7.41 -29.33 5.11 C-27.48 4.24 -25.64 3.35 -23.81 2.45 C-16.44 -0.99 -7.87 -3.33 0 0 Z " fill="#6FC167" transform="translate(347.15234375,62.91015625)"/><path d="M0 0 C1.88 2.56 1.88 2.56 3 5 C0.92 6.96 -0.75 7.14 -3.5 7.12 C-4.67 7.09 -5.83 7.05 -7 7 C-7.99 7 -8.98 7 -10 7 C-10.25 4.69 -10.25 4.69 -10 2 C-6.92 -1.55 -4.31 -1.47 0 0 Z " fill="#32333C" transform="translate(205,65)"/><path d="M0 0 C1.45 1.94 2.12 3.7 3 6 C0.24 6.92 -1.24 7.08 -4.06 7 C-7.15 6.9 -7.15 6.9 -10 8 C-10.25 5.19 -10.25 5.19 -10 2 C-6.99 -1.59 -4.26 -1.54 0 0 Z " fill="#2F3039" transform="translate(207,111)"/><path d="M0 0 C1.22 3.66 0.43 5.85 -0.69 9.38 C-0.85 9.94 -1.01 10.5 -1.18 11.09 C-3.27 17.85 -7.09 21.55 -13 25 C-20.16 27.22 -26.42 26.36 -33 23 C-30 22 -30 22 -27.38 23 C-22.75 24.68 -17.76 24.2 -13.27 22.25 C-11.69 21.28 -10.37 20.24 -9 19 C-8.55 18.6 -8.1 18.2 -7.63 17.79 C-3.85 13.91 -2.8 9.57 -1.58 4.39 C-1 2 -1 2 0 0 Z " fill="#71C969" transform="translate(203,136)"/><path d="M0 0 C4.29 0 8.58 0 13 0 C13 1.98 13 3.96 13 6 C8.67 6 4.33 6 0 6 C0 4.02 0 2.04 0 0 Z " fill="#B8E8B5" transform="translate(286,253)"/><path d="M0 0 C0.57 0.4 1.14 0.8 1.72 1.21 C5.85 4.04 9.78 6.52 14.43 8.35 C16.77 9.32 18.86 10.66 21 12 C21.66 12.33 22.32 12.66 23 13 C22.67 13.99 22.34 14.98 22 16 C18.3 14.66 15.02 12.93 11.64 10.95 C10.35 10.2 9.03 9.53 7.69 8.88 C6 8 6 8 4 6 C2.35 4.98 0.68 3.97 -1 3 C-0.67 2.01 -0.34 1.02 0 0 Z " fill="#B3E5B0" transform="translate(169,206)"/><path d="M0 0 C0.7 -0.03 1.4 -0.05 2.12 -0.08 C4 0.25 4 0.25 5.25 1.77 C5.5 2.26 5.75 2.75 6 3.25 C6.33 2.26 6.66 1.27 7 0.25 C7.66 0.25 8.32 0.25 9 0.25 C9 2.23 9 4.21 9 6.25 C7.68 6.25 6.36 6.25 5 6.25 C4.67 5.59 4.34 4.93 4 4.25 C3.67 4.91 3.34 5.57 3 6.25 C0.36 6.25 -2.28 6.25 -5 6.25 C-5.33 4.6 -5.66 2.95 -6 1.25 C-3.79 0.14 -2.45 0.05 0 0 Z " fill="#C8ECC6" transform="translate(315,259.75)"/><path d="M0 0 C0.66 0.99 1.32 1.98 2 3 C-0.29 4.72 -2.23 5.35 -5 6 C-9.24 7.52 -12.99 9.53 -16.62 12.19 C-18 13 -18 13 -21 13 C-21 12.01 -21 11.02 -21 10 C-19.43 8.58 -18.19 8.04 -16.12 7.56 C-13.39 6.84 -11.38 5.51 -9 4 C-6 2.1 -3.51 0.65 0 0 Z " fill="#AAE3A6" transform="translate(58,68)"/><path d="M0 0 C0.83 2.89 1 4.89 1 8 C-2.3 8 -5.6 8 -9 8 C-8.4 2.43 -8.4 2.43 -6.75 0.62 C-4.44 -0.2 -2.43 -0.13 0 0 Z " fill="#34353D" transform="translate(17,97)"/><path d="M0 0 C3.96 0 7.92 0 12 0 C12 1.65 12 3.3 12 5 C11 6 11 6 8.5 6.1 C6.98 6.08 6.98 6.08 5.44 6.06 C4.43 6.05 3.41 6.04 2.37 6.04 C1.59 6.02 0.81 6.01 0 6 C0 5.01 0 4.02 0 3 C0.66 2.67 1.32 2.34 2 2 C1.34 1.34 0.68 0.68 0 0 Z " fill="#B5E8B2" transform="translate(352,23)"/><path d="M0 0 C3.63 0 7.26 0 11 0 C10.34 0.66 9.68 1.32 9 2 C9.99 2.33 10.98 2.66 12 3 C11.67 3.99 11.34 4.98 11 6 C7.37 6 3.74 6 0 6 C0 4.02 0 2.04 0 0 Z " fill="#BDEABA" transform="translate(35,148)"/><path d="M0 0 C1.98 0 3.96 0 6 0 C6 1.65 6 3.3 6 5 C6.99 5 7.98 5 9 5 C9 7.31 9 9.62 9 12 C7.35 12 5.7 12 4 12 C3.34 9.69 2.68 7.38 2 5 C2.66 5 3.32 5 4 5 C4 4.34 4 3.68 4 3 C2.68 3 1.36 3 0 3 C0 2.01 0 1.02 0 0 Z " fill="#25C414" transform="translate(37,157)"/><path d="M0 0 C4.72 0.35 4.72 0.35 7 1 C8.31 2.94 8.31 2.94 9 5 C9.66 5.66 10.32 6.32 11 7 C10.34 7 9.68 7 9 7 C9 7.66 9 8.32 9 9 C6.69 9.33 4.38 9.66 2 10 C2.33 8.02 2.66 6.04 3 4 C2.34 3.67 1.68 3.34 1 3 C0.67 2.01 0.34 1.02 0 0 Z " fill="#AFAEB8" transform="translate(273,202)"/><path d="M0 0 C1.32 0.33 2.64 0.66 4 1 C-3.57 7.88 -3.57 7.88 -7.09 8.17 C-8.74 7.85 -10.37 7.43 -12 7 C-12.66 7.66 -13.32 8.32 -14 9 C-15 6 -15 6 -14.25 4.31 C-13.84 3.88 -13.43 3.45 -13 3 C-12.01 3 -11.02 3 -10 3 C-9.67 2.34 -9.34 1.68 -9 1 C-5.54 2.49 -5.54 2.49 -2 4 C-2 3.34 -2 2.68 -2 2 C-1.34 2 -0.68 2 0 2 C0 1.34 0 0.68 0 0 Z " fill="#E5E4EF" transform="translate(314,153)"/><path d="M0 0 C2.97 0 5.94 0 9 0 C9 1.65 9 3.3 9 5 C8.01 5.5 8.01 5.5 7 6 C7 6.99 7 7.98 7 9 C6.01 9.5 6.01 9.5 5 10 C5.66 10.66 6.32 11.32 7 12 C5.35 12 3.7 12 2 12 C2.66 10.68 3.32 9.36 4 8 C2.35 6.68 0.7 5.36 -1 4 C-0.67 2.68 -0.34 1.36 0 0 Z " fill="#78D86F" transform="translate(18,157)"/><path d="M0 0 C1.98 0 3.96 0 6 0 C6.33 2.31 6.66 4.62 7 7 C1.51 8.22 1.51 8.22 -0.88 7.19 C-2 6 -2 6 -2 4 C-1.34 4 -0.68 4 0 4 C0 2.68 0 1.36 0 0 Z " fill="#24252F" transform="translate(223,239)"/><path d="M0 0 C0.99 0 1.98 0 3 0 C2.81 0.62 2.63 1.24 2.44 1.88 C1.76 4.04 1.76 4.04 3 6 C-1.95 7.48 -1.95 7.48 -7 9 C-8 4 -8 4 -7 2 C-5.01 1.63 -3.01 1.29 -1 1 C-0.67 0.67 -0.34 0.34 0 0 Z " fill="#E3EFE6" transform="translate(210,24)"/><path d="M0 0 C1.21 0.01 2.41 0.02 3.62 0.04 C4.24 0.04 4.85 0.04 5.49 0.05 C7.01 0.06 8.53 0.08 10.06 0.1 C10.06 2.08 10.06 4.06 10.06 6.1 C9.4 6.1 8.74 6.1 8.06 6.1 C8.06 4.78 8.06 3.46 8.06 2.1 C7.4 2.1 6.74 2.1 6.06 2.1 C6.06 3.42 6.06 4.74 6.06 6.1 C5.4 6.1 4.74 6.1 4.06 6.1 C4.06 4.78 4.06 3.46 4.06 2.1 C2.08 2.1 0.1 2.1 -1.94 2.1 C-1.94 3.09 -1.94 4.08 -1.94 5.1 C-0.95 5.43 0.04 5.76 1.06 6.1 C-0.59 6.1 -2.24 6.1 -3.94 6.1 C-3.98 4.43 -3.98 2.76 -3.94 1.1 C-2.94 0.1 -2.94 0.1 0 0 Z " fill="#C2EBC0" transform="translate(297.94140625,259.90234375)"/><path d="M0 0 C1.21 0.01 2.41 0.02 3.62 0.04 C4.24 0.04 4.85 0.04 5.49 0.05 C7.01 0.06 8.53 0.08 10.06 0.1 C10.06 2.41 10.06 4.72 10.06 7.1 C9.4 7.1 8.74 7.1 8.06 7.1 C8.06 5.45 8.06 3.8 8.06 2.1 C7.07 2.1 6.08 2.1 5.06 2.1 C5.06 3.75 5.06 5.4 5.06 7.1 C4.4 7.1 3.74 7.1 3.06 7.1 C3.06 5.45 3.06 3.8 3.06 2.1 C1.08 2.1 -0.9 2.1 -2.94 2.1 C-2.94 3.09 -2.94 4.08 -2.94 5.1 C-1.95 5.43 -0.96 5.76 0.06 6.1 C-1.26 6.1 -2.58 6.1 -3.94 6.1 C-3.98 4.43 -3.98 2.76 -3.94 1.1 C-2.94 0.1 -2.94 0.1 0 0 Z " fill="#B5E8B1" transform="translate(39.94140625,154.90234375)"/><path d="M0 0 C2.25 0.25 2.25 0.25 4 1 C-0.41 5.85 -5.58 9.35 -11 13 C-11.66 12.34 -12.32 11.68 -13 11 C-9.39 7.09 -9.39 7.09 -8 6 C-7.01 6 -6.02 6 -5 6 C-4.67 5.34 -4.34 4.68 -4 4 C-2.19 1.81 -2.19 1.81 0 0 Z " fill="#BFE3BF" transform="translate(350,118)"/><path d="M0 0 C0.54 0.24 1.09 0.48 1.64 0.73 C0.98 0.73 0.32 0.73 -0.36 0.73 C-0.48 1.35 -0.6 1.97 -0.73 2.61 C-1.36 4.73 -1.36 4.73 -3.36 6.73 C-5.98 6.86 -5.98 6.86 -8.36 6.73 C-8.36 7.39 -8.36 8.05 -8.36 8.73 C-9.02 8.73 -9.68 8.73 -10.36 8.73 C-10.36 9.39 -10.36 10.05 -10.36 10.73 C-11.68 10.73 -13 10.73 -14.36 10.73 C-13.12 7.03 -11.08 5.68 -8.04 3.48 C-7.56 3.11 -7.07 2.73 -6.57 2.34 C-2.92 -0.33 -2.92 -0.33 0 0 Z " fill="#F3F2FC" transform="translate(322.35546875,146.265625)"/><path d="M0 0 C3 1 3 1 4 3 C4.33 2.01 4.66 1.02 5 0 C6.65 0 8.3 0 10 0 C10.33 1.32 10.66 2.64 11 4 C9.68 4 8.36 4 7 4 C7 4.66 7 5.32 7 6 C4.03 6 1.06 6 -2 6 C-1.34 4.02 -0.68 2.04 0 0 Z " fill="#F1E0FD" transform="translate(155,20)"/><path d="M0 0 C0.66 0 1.32 0 2 0 C2 1.32 2 2.64 2 4 C2.99 4 3.98 4 5 4 C5 4.66 5 5.32 5 6 C3.68 5.67 2.36 5.34 1 5 C1.33 5.99 1.66 6.98 2 8 C1.01 8 0.02 8 -1 8 C-0.67 7.01 -0.34 6.02 0 5 C-0.66 5 -1.32 5 -2 5 C-2 6.98 -2 8.96 -2 11 C-3.32 10.67 -4.64 10.34 -6 10 C-6.33 8.68 -6.66 7.36 -7 6 C-5.68 6 -4.36 6 -3 6 C-3 5.01 -3 4.02 -3 3 C-2.34 3 -1.68 3 -1 3 C-0.67 2.01 -0.34 1.02 0 0 Z " fill="#4C4D56" transform="translate(306,183)"/><path d="M0 0 C1.82 0.9 3.63 1.82 5.44 2.75 C6.45 3.26 7.46 3.77 8.5 4.3 C11 6 11 6 11.85 8.2 C11.92 9.09 11.92 9.09 12 10 C11.01 10.5 11.01 10.5 10 11 C8.35 9.91 6.7 8.8 5.06 7.69 C4.15 7.07 3.23 6.46 2.29 5.82 C0 4 0 4 -1 1 C-0.67 0.67 -0.34 0.34 0 0 Z " fill="#B2E5AF" transform="translate(150,194)"/><path d="M0 0 C4.29 0 8.58 0 13 0 C13 1.98 13 3.96 13 6 C11 6 9 6 7 6 C7 4.35 7 2.7 7 1 C4.49 2.26 4.13 3.5 3 6 C2.81 5.07 2.81 5.07 2.62 4.12 C2.13 1.81 2.13 1.81 0 0 Z " fill="#E6E7F0" transform="translate(139,20)"/><path d="M0 0 C0.99 0.33 1.98 0.66 3 1 C-6.23 11.74 -6.23 11.74 -12 15 C-12 14.01 -12 13.02 -12 12 C-11.34 12 -10.68 12 -10 12 C-10 11.34 -10 10.68 -10 10 C-9.34 10 -8.68 10 -8 10 C-8 9.34 -8 8.68 -8 8 C-7.34 8 -6.68 8 -6 8 C-6 7.34 -6 6.68 -6 6 C-5.34 6 -4.68 6 -4 6 C-4 5.34 -4 4.68 -4 4 C-3.34 4 -2.68 4 -2 4 C-2 3.34 -2 2.68 -2 2 C-1.34 2 -0.68 2 0 2 C0 1.34 0 0.68 0 0 Z " fill="#E1DFED" transform="translate(362,113)"/><path d="M0 0 C0.78 0.04 1.57 0.08 2.38 0.12 C2.04 1.44 1.72 2.77 1.38 4.12 C1.04 3.47 0.72 2.81 0.38 2.12 C-0.28 2.12 -0.94 2.12 -1.62 2.12 C-1.96 2.78 -2.28 3.44 -2.62 4.12 C-1.97 4.45 -1.31 4.78 -0.62 5.12 C-4.26 6.14 -7.89 6.62 -11.62 7.12 C-11.62 5.81 -11.62 4.48 -11.62 3.12 C-9.87 2.93 -8.11 2.73 -6.35 2.54 C-3.45 1.84 -3.24 0.15 0 0 Z " fill="#0488AF" transform="translate(164.625,91.875)"/><path d="M0 0 C0.66 0.33 1.32 0.66 2 1 C-1.96 3.97 -5.92 6.94 -10 10 C-10.66 9.34 -11.32 8.68 -12 8 C-8.81 4.54 -6.56 2.48 -2 1 C-1.34 0.67 -0.68 0.34 0 0 Z " fill="#B7E4B6" transform="translate(318,146)"/><path d="M0 0 C0.33 0 0.66 0 1 0 C1.08 0.78 1.17 1.57 1.25 2.38 C1.73 5.15 1.73 5.15 4.06 6.31 C4.7 6.54 5.34 6.77 6 7 C5.34 7 4.68 7 4 7 C4.33 9.31 4.66 11.62 5 14 C3.35 14 1.7 14 0 14 C-0.82 9.04 -1.11 4.92 0 0 Z " fill="#41CB33" transform="translate(308,260)"/><path d="M0 0 C3.96 1.76 8.01 4.03 10 8 C9.67 8.66 9.34 9.32 9 10 C8.34 10 7.68 10 7 10 C7 9.34 7 8.68 7 8 C5.79 7.57 5.79 7.57 4.56 7.12 C2 6 2 6 1 4 C0.34 3.67 -0.32 3.34 -1 3 C-0.67 2.01 -0.34 1.02 0 0 Z " fill="#383841" transform="translate(161,187)"/><path d="M0 0 C2.97 1.98 5.94 3.96 9 6 C8.34 6.66 7.68 7.32 7 8 C6.67 8.66 6.34 9.32 6 10 C3.36 8.02 0.72 6.04 -2 4 C-1.34 2.68 -0.68 1.36 0 0 Z " fill="#3C3C45" transform="translate(152,180)"/><path d="M0 0 C3.84 0.77 7.6 2.03 11 4 C12.44 6.19 12.44 6.19 13 8 C7.25 7.25 7.25 7.25 5 5 C4.13 4.5 3.27 4.01 2.38 3.5 C1.59 3 0.81 2.51 0 2 C0 1.34 0 0.68 0 0 Z " fill="#BCE7BA" transform="translate(55,125)"/><path d="M0 0 C4.88 1.75 4.88 1.75 6 4 C8.02 4.65 8.02 4.65 10 5 C10 5.99 10 6.98 10 8 C5.84 7.33 2.55 5.14 -1 3 C-0.67 2.01 -0.34 1.02 0 0 Z " fill="#A0E09B" transform="translate(193,220)"/><path d="M0 0 C0.33 0.66 0.66 1.32 1 2 C1.99 2 2.98 2 4 2 C6 4.25 6 4.25 8 7 C8.58 7.76 9.16 8.53 9.75 9.31 C10.16 9.87 10.57 10.43 11 11 C7.3 11 6.55 10.13 3.81 7.75 C3.1 7.15 2.38 6.54 1.64 5.92 C0 4 0 4 -0.24 1.77 C-0.16 1.18 -0.08 0.6 0 0 Z " fill="#B6E7B3" transform="translate(130,177)"/><path d="M0 0 C1.68 0.29 3.34 0.62 5 1 C5 2.65 5 4.3 5 6 C3.34 6.38 1.68 6.71 0 7 C-1 6 -1 6 -1.12 3.5 C-1 1 -1 1 0 0 Z " fill="#C6ECC5" transform="translate(52,155)"/><path d="M0 0 C3.63 0 7.26 0 11 0 C11 0.66 11 1.32 11 2 C10.34 2 9.68 2 9 2 C8.67 3.32 8.34 4.64 8 6 C8 4.68 8 3.36 8 2 C5.96 3.24 5.1 3.81 4 6 C2.68 6 1.36 6 0 6 C0 4.02 0 2.04 0 0 Z " fill="#C7EDC5" transform="translate(17,155)"/><path d="M0 0 C1.32 0.33 2.64 0.66 4 1 C4 1.66 4 2.32 4 3 C7.3 3 10.6 3 14 3 C14 3.33 14 3.66 14 4 C12.99 4.09 12.99 4.09 11.95 4.18 C11.06 4.27 10.17 4.35 9.25 4.44 C8.37 4.52 7.49 4.6 6.58 4.68 C4.31 4.96 2.2 5.39 0 6 C-0.66 5.01 -1.32 4.02 -2 3 C-1.34 2.01 -0.68 1.02 0 0 Z " fill="#16C004" transform="translate(352,67)"/><path d="M0 0 C1.98 0 3.96 0 6 0 C6.04 1.67 6.04 3.33 6 5 C5 6 5 6 2.44 6.06 C1.23 6.03 1.23 6.03 0 6 C0 4.02 0 2.04 0 0 Z " fill="#DBF2DC" transform="translate(286,253)"/><path d="M0 0 C0.66 0 1.32 0 2 0 C2.33 0.66 2.66 1.32 3 2 C3.99 1.67 4.98 1.34 6 1 C6 2.65 6 4.3 6 6 C1.25 7 1.25 7 -1 7 C-1.04 5 -1.04 3 -1 1 C-0.67 0.67 -0.34 0.34 0 0 Z " fill="#C2EABF" transform="translate(59,155)"/><path d="M0 0 C0.33 0.99 0.66 1.98 1 3 C2.18 3.46 2.18 3.46 3.38 3.94 C6.37 5.15 7.37 6.25 9 9 C9 9.66 9 10.32 9 11 C5.01 9.71 3.35 8.42 1 5 C-0.59 3.77 -0.59 3.77 -2 3 C-1.34 2.01 -0.68 1.02 0 0 Z " fill="#BDE8BB" transform="translate(92,142)"/><path d="M0 0 C0.66 0.33 1.32 0.66 2 1 C1.67 1.66 1.34 2.32 1 3 C1.99 3.33 2.98 3.66 4 4 C2.68 4 1.36 4 0 4 C0 4.66 0 5.32 0 6 C-3.29 6.8 -4.71 7.1 -8 6 C-8 5.34 -8 4.68 -8 4 C-6.68 4.33 -5.36 4.66 -4 5 C-3.85 4.04 -3.85 4.04 -3.69 3.06 C-3.46 2.38 -3.23 1.7 -3 1 C-2.01 0.67 -1.02 0.34 0 0 Z " fill="#5C9B59" transform="translate(281,83)"/><path d="M0 0 C1.67 -0.04 3.33 -0.04 5 0 C6 1 6 1 6.06 3.56 C6.04 4.37 6.02 5.17 6 6 C4.02 6 2.04 6 0 6 C0 4.02 0 2.04 0 0 Z " fill="#CEEDCD" transform="translate(341,15)"/><path d="M0 0 C1.98 0 3.96 0 6 0 C6.04 1.67 6.04 3.33 6 5 C5 6 5 6 2.44 6.06 C1.23 6.03 1.23 6.03 0 6 C0 4.02 0 2.04 0 0 Z " fill="#EEEEF7" transform="translate(162,13)"/><path d="M0 0 C0.6 0.19 1.2 0.37 1.81 0.56 C4.16 1.22 4.16 1.22 7 0 C7 1.98 7 3.96 7 6 C6.4 5.81 5.8 5.63 5.19 5.44 C2.84 4.78 2.84 4.78 0 6 C0 4.02 0 2.04 0 0 Z " fill="#CCEDCB" transform="translate(292,268)"/><path d="M0 0 C1.65 0 3.3 0 5 0 C5.38 1.66 5.71 3.32 6 5 C5 6 5 6 2.44 6.06 C1.23 6.03 1.23 6.03 0 6 C0 4.02 0 2.04 0 0 Z " fill="#BBEAB8" transform="translate(28,148)"/><path d="M0 0 C0.99 0.33 1.98 0.66 3 1 C2.6 1.5 2.2 1.99 1.79 2.5 C-1.6 6.85 -4.06 10.84 -6 16 C-6.66 15.67 -7.32 15.34 -8 15 C-6.52 9.22 -3.42 4.84 0 0 Z " fill="#66A263" transform="translate(211,121)"/><path d="M0 0 C0.66 0.33 1.32 0.66 2 1 C0.35 3.31 -1.3 5.62 -3 8 C-5.97 7.67 -8.94 7.34 -12 7 C-12 6.67 -12 6.34 -12 6 C-8.54 5.5 -8.54 5.5 -5 5 C-4.67 4.01 -4.34 3.02 -4 2 C-2.68 2 -1.36 2 0 2 C0 1.34 0 0.68 0 0 Z " fill="#F0EEFB" transform="translate(370,103)"/><path d="M0 0 C0.6 0.19 1.2 0.37 1.81 0.56 C4.16 1.22 4.16 1.22 7 0 C7 1.98 7 3.96 7 6 C6.4 5.81 5.8 5.63 5.19 5.44 C2.84 4.78 2.84 4.78 0 6 C0 4.02 0 2.04 0 0 Z " fill="#BEE9BB" transform="translate(390,15)"/><path d="M0 0 C1.65 0 3.3 0 5 0 C5.38 1.66 5.71 3.32 6 5 C5 6 5 6 2.44 6.06 C1.23 6.03 1.23 6.03 0 6 C0 4.02 0 2.04 0 0 Z " fill="#DAF1DB" transform="translate(360,8)"/><path d="M0 0 C1.21 0.03 1.21 0.03 2.44 0.06 C2.44 1.71 2.44 3.36 2.44 5.06 C0.79 5.39 -0.86 5.72 -2.56 6.06 C-2.94 4.41 -3.28 2.74 -3.56 1.06 C-2.56 0.06 -2.56 0.06 0 0 Z " fill="#A7E4A3" transform="translate(288.5625,267.9375)"/><path d="M0 0 C1.68 0.29 3.34 0.62 5 1 C5 2.65 5 4.3 5 6 C3.35 6 1.7 6 0 6 C-0.38 4.34 -0.71 2.68 -1 1 C-0.67 0.67 -0.34 0.34 0 0 Z " fill="#D9F1D9" transform="translate(27,163)"/><path d="M0 0 C6.75 0.75 6.75 0.75 9 3 C11.57 3.65 11.57 3.65 14 4 C13.01 4.99 12.02 5.98 11 7 C7.2 5.55 3.62 3.85 0 2 C0 1.34 0 0.68 0 0 Z " fill="#B5E3B2" transform="translate(69,132)"/><path d="M0 0 C0.33 0.99 0.66 1.98 1 3 C-2.78 5.36 -6.67 5.6 -11 6 C-10.5 4.06 -10.5 4.06 -9 2 C-6.91 1.5 -4.92 1.31 -2.78 1.18 C-0.98 1.19 -0.98 1.19 0 0 Z " fill="#AFE5AB" transform="translate(174,38)"/><path d="M0 0 C2.31 0 4.62 0 7 0 C7 1.65 7 3.3 7 5 C6.01 5.33 5.02 5.66 4 6 C3.67 5.34 3.34 4.68 3 4 C2.67 4.66 2.34 5.32 2 6 C1.34 6 0.68 6 0 6 C0 4.02 0 2.04 0 0 Z " fill="#D0EECF" transform="translate(365,23)"/><path d="M0 0 C2.31 0 4.62 0 7 0 C7 1.32 7 2.64 7 4 C4.36 4 1.72 4 -1 4 C-0.67 2.68 -0.34 1.36 0 0 Z " fill="#C7C9CD" transform="translate(200,114)"/><path d="M0 0 C1.65 0.33 3.3 0.66 5 1 C4.44 4.27 3.5 5.83 1 8 C1 7.01 1 6.02 1 5 C0.34 5 -0.32 5 -1 5 C-0.67 3.35 -0.34 1.7 0 0 Z " fill="#13C001" transform="translate(36,105)"/><path d="M0 0 C2.64 0 5.28 0 8 0 C8 1.32 8 2.64 8 4 C5.69 4 3.38 4 1 4 C0.67 2.68 0.34 1.36 0 0 Z " fill="#B8BBBD" transform="translate(197,68)"/><path d="M0 0 C2.64 0 5.28 0 8 0 C8 1.32 8 2.64 8 4 C5.36 4 2.72 4 0 4 C0 2.68 0 1.36 0 0 Z " fill="#A4A5AA" transform="translate(224,26)"/><path d="M0 0 C1.65 0 3.3 0 5 0 C5.33 1.32 5.66 2.64 6 4 C4.12 5.06 4.12 5.06 2 6 C1.34 5.67 0.68 5.34 0 5 C0 3.35 0 1.7 0 0 Z " fill="#13C001" transform="translate(245,213)"/><path d="M0 0 C0.33 0.66 0.66 1.32 1 2 C0 5 0 5 -2.88 6.69 C-6 8 -6 8 -9 8 C-9 7.01 -9 6.02 -9 5 C-7.36 3.53 -6.08 3.02 -3.94 2.5 C-1.78 2.12 -1.78 2.12 0 0 Z " fill="#C0EABD" transform="translate(46,73)"/><path d="M0 0 C1.45 0.03 1.45 0.03 2.94 0.06 C2.94 1.05 2.94 2.04 2.94 3.06 C0.96 3.72 -1.02 4.38 -3.06 5.06 C-3.62 3.12 -3.62 3.12 -4.06 1.06 C-3.06 0.06 -3.06 0.06 0 0 Z " fill="#9999A0" transform="translate(87.0625,137.9375)"/><path d="M0 0 C2.31 0 4.62 0 7 0 C7 1.32 7 2.64 7 4 C4.69 4 2.38 4 0 4 C0 2.68 0 1.36 0 0 Z " fill="#A0A2A5" transform="translate(11,101)"/><path d="M0 0 C2.31 0 4.62 0 7 0 C7 1.32 7 2.64 7 4 C4.36 4 1.72 4 -1 4 C-0.67 2.68 -0.34 1.36 0 0 Z " fill="#CED0D2" transform="translate(119,112)"/><path d="M0 0 C-2.4 2.9 -4.31 3.5 -8 4 C-8 2.68 -8 1.36 -8 0 C-4.95 -0.98 -3.05 -0.98 0 0 Z " fill="#07799B" transform="translate(177,91)"/><path d="M0 0 C0.99 0 1.98 0 3 0 C2.67 2.31 2.34 4.62 2 7 C1.34 7 0.68 7 0 7 C-0.66 6.34 -1.32 5.68 -2 5 C-4.6 5.32 -4.6 5.32 -7 6 C-6.25 4.06 -6.25 4.06 -5 2 C-2.94 1.31 -2.94 1.31 -1 1 C-0.67 0.67 -0.34 0.34 0 0 Z " fill="#A3E19F" transform="translate(193,30)"/><path d="M0 0 C1.65 0 3.3 0 5 0 C5 1.98 5 3.96 5 6 C3.35 6 1.7 6 0 6 C0 4.02 0 2.04 0 0 Z " fill="#C4EBC2" transform="translate(300,268)"/><path d="M0 0 C1.98 0 3.96 0 6 0 C6.33 1.32 6.66 2.64 7 4 C6.01 4.33 5.02 4.66 4 5 C2.31 4.06 2.31 4.06 1 3 C0.01 3.49 0.01 3.49 -1 4 C-0.67 2.68 -0.34 1.36 0 0 Z " fill="#A8A9AC" transform="translate(337,49)"/><path d="M0 0 C1.65 0 3.3 0 5 0 C5 1.98 5 3.96 5 6 C3.35 6 1.7 6 0 6 C0 4.02 0 2.04 0 0 Z " fill="#E8F6E8" transform="translate(361,15)"/><path d="M0 0 C1.65 0 3.3 0 5 0 C5 1.98 5 3.96 5 6 C3.35 6 1.7 6 0 6 C0 4.02 0 2.04 0 0 Z " fill="#C7ECC6" transform="translate(348,15)"/><path d="M0 0 C1.65 0 3.3 0 5 0 C5 1.98 5 3.96 5 6 C3.35 6 1.7 6 0 6 C0 4.02 0 2.04 0 0 Z " fill="#C3EBC0" transform="translate(367,8)"/><path d="M0 0 C1.32 0.33 2.64 0.66 4 1 C4 2.32 4 3.64 4 5 C5.65 5 7.3 5 9 5 C6.25 6.87 4.45 7.1 1.25 6.62 C0.18 6.42 -0.89 6.21 -2 6 C-1.67 5.38 -1.34 4.76 -1 4.12 C0.14 2.09 0.14 2.09 0 0 Z " fill="#57D04B" transform="translate(290,261)"/><path d="M0 0 C0 1.98 0 3.96 0 6 C-0.66 6 -1.32 6 -2 6 C-2 5.34 -2 4.68 -2 4 C-3.32 3.67 -4.64 3.34 -6 3 C-6 2.01 -6 1.02 -6 0 C-3 -1 -3 -1 0 0 Z " fill="#1AC109" transform="translate(283,261)"/><path d="M0 0 C1.98 0 3.96 0 6 0 C5.67 1.65 5.34 3.3 5 5 C2 5 2 5 -1 4 C-0.67 2.68 -0.34 1.36 0 0 Z " fill="#ACB0B1" transform="translate(183,169)"/><path d="M0 0 C0.66 0.33 1.32 0.66 2 1 C0.68 5.12 -1.92 6.35 -5.54 8.27 C-6.02 8.51 -6.5 8.75 -7 9 C-7 8.01 -7 7.02 -7 6 C-5.36 4.96 -3.69 3.96 -2 3 C-0.7 1.43 -0.7 1.43 0 0 Z " fill="#A3E09F" transform="translate(289,166)"/><path d="M0 0 C1.32 0.33 2.64 0.66 4 1 C0.39 4.91 0.39 4.91 -1 6 C-1.99 6 -2.98 6 -4 6 C-4 5.34 -4 4.68 -4 4 C-4.66 3.67 -5.32 3.34 -6 3 C-4.02 2.67 -2.04 2.34 0 2 C0 1.34 0 0.68 0 0 Z " fill="#5CAB56" transform="translate(292,78)"/><path d="M0 0 C1.98 0 3.96 0 6 0 C6.33 1.32 6.66 2.64 7 4 C4.69 4 2.38 4 0 4 C0 2.68 0 1.36 0 0 Z " fill="#ACAEB3" transform="translate(223,239)"/><path d="M0 0 C-0.66 1.65 -1.32 3.3 -2 5 C-2.66 5 -3.32 5 -4 5 C-5.63 6.46 -5.63 6.46 -7 8 C-7.31 6.25 -7.31 6.25 -7 4 C-2.78 0 -2.78 0 0 0 Z " fill="#B3E3B2" transform="translate(299,160)"/><path d="M0 0 C1.65 0 3.3 0 5 0 C5 1.98 5 3.96 5 6 C3.35 6 1.7 6 0 6 C0 4.02 0 2.04 0 0 Z " fill="#DEF2DE" transform="translate(41,163)"/><path d="M0 0 C1.65 0 3.3 0 5 0 C5 1.98 5 3.96 5 6 C3.35 6 1.7 6 0 6 C0 4.02 0 2.04 0 0 Z " fill="#ECEBF7" transform="translate(156,13)"/><path d="M0 0 C1.65 0 3.3 0 5 0 C5 1.98 5 3.96 5 6 C3.35 6 1.7 6 0 6 C0 4.02 0 2.04 0 0 Z " fill="#F1F0FD" transform="translate(150,13)"/><path d="M0 0 C2.31 0 4.62 0 7 0 C7 1.32 7 2.64 7 4 C4.69 4 2.38 4 0 4 C0 2.68 0 1.36 0 0 Z " fill="#A8A9AE" transform="translate(385,99)"/><path d="M0 0 C0.99 0.33 1.98 0.66 3 1 C2.67 2.65 2.34 4.3 2 6 C0.68 5.67 -0.64 5.34 -2 5 C-1.12 1.12 -1.12 1.12 0 0 Z " fill="#FF01FF" transform="translate(193,39)"/><path d="M0 0 C2.48 0.49 2.48 0.49 5 1 C4.67 2.32 4.34 3.64 4 5 C2.68 5 1.36 5 0 5 C0 3.35 0 1.7 0 0 Z " fill="#C0E9BE" transform="translate(384,15)"/><path d="M0 0 C1.65 0 3.3 0 5 0 C5 2 5 4 5 6 C3.35 6 1.7 6 0 6 C0 5.01 0 4.02 0 3 C0.66 2.67 1.32 2.34 2 2 C1.34 1.34 0.68 0.68 0 0 Z " fill="#CBEDC9" transform="translate(279,268)"/><path d="M0 0 C2.95 1.37 5.44 2.99 8 5 C7.67 5.99 7.34 6.98 7 8 C5.83 7.05 4.66 6.09 3.5 5.12 C2.85 4.59 2.2 4.06 1.53 3.51 C1.03 3.01 0.52 2.51 0 2 C0 1.34 0 0.68 0 0 Z " fill="#A4E29F" transform="translate(141,188)"/><path d="M0 0 C0.66 0.33 1.32 0.66 2 1 C0.61 4.37 -0.98 5.99 -4 8 C-5 5 -5 5 -4.25 3.31 C-3.84 2.88 -3.43 2.45 -3 2 C-2.01 2 -1.02 2 0 2 C0 1.34 0 0.68 0 0 Z " fill="#BFE8BC" transform="translate(304,154)"/><path d="M0 0 C7.67 5.97 7.67 5.97 9 11 C5.42 8.32 2.62 5.69 0 2 C0 1.34 0 0.68 0 0 Z " fill="#6DC066" transform="translate(356,73)"/><path d="M0 0 C2.06 0.44 2.06 0.44 4 1 C4.33 2.32 4.66 3.64 5 5 C3.35 5.33 1.7 5.66 0 6 C-0.38 4.34 -0.71 2.68 -1 1 C-0.67 0.67 -0.34 0.34 0 0 Z " fill="#EFEEFB" transform="translate(138,13)"/><path d="M0 0 C1.65 0 3.3 0 5 0 C4.01 0.33 3.02 0.66 2 1 C2 1.66 2 2.32 2 3 C2.99 3.33 3.98 3.66 5 4 C5 4.66 5 5.32 5 6 C3.35 6 1.7 6 0 6 C0 4.02 0 2.04 0 0 Z " fill="#DFF3E0" transform="translate(288,260)"/><path d="M0 0 C1.65 0 3.3 0 5 0 C4.01 0.33 3.02 0.66 2 1 C2 1.66 2 2.32 2 3 C2.99 3.33 3.98 3.66 5 4 C5 4.66 5 5.32 5 6 C3.35 6 1.7 6 0 6 C0 4.02 0 2.04 0 0 Z " fill="#E0F3DF" transform="translate(275,260)"/><path d="M0 0 C-0.93 0.87 -1.87 1.72 -2.81 2.56 C-3.33 3.04 -3.86 3.51 -4.39 4 C-4.92 4.33 -5.45 4.66 -6 5 C-6.99 4.67 -7.98 4.34 -9 4 C-8.67 3.01 -8.34 2.02 -8 1 C-2.6 -1.3 -2.6 -1.3 0 0 Z " fill="#C8E5CA" transform="translate(320,147)"/><path d="M0 0 C0.87 0.34 0.87 0.34 1.75 0.69 C-0.14 2.58 -2.1 4.11 -4.25 5.69 C-4.91 5.36 -5.57 5.03 -6.25 4.69 C-6.25 4.03 -6.25 3.37 -6.25 2.69 C-3.03 -0.42 -3.03 -0.42 0 0 Z " fill="#B8E4B7" transform="translate(337.25,130.3125)"/><path d="M0 0 C0.66 0.33 1.32 0.66 2 1 C-0.31 3.64 -2.62 6.28 -5 9 C-5.66 8.34 -6.32 7.68 -7 7 C-4.69 4.69 -2.38 2.38 0 0 Z " fill="#6DCB64" transform="translate(368,117)"/><path d="M0 0 C1.65 0 3.3 0 5 0 C5 1.65 5 3.3 5 5 C3.35 5.33 1.7 5.66 0 6 C0.19 5.38 0.37 4.76 0.56 4.12 C1.24 1.96 1.24 1.96 0 0 Z " fill="#CEEECE" transform="translate(381,23)"/><path d="M0 0 C1.65 0 3.3 0 5 0 C5 0.99 5 1.98 5 3 C4.01 3 3.02 3 2 3 C2 3.66 2 4.32 2 5 C2.99 5.33 3.98 5.66 5 6 C3.35 6 1.7 6 0 6 C0 4.02 0 2.04 0 0 Z " fill="#E0F3E0" transform="translate(373,23)"/><path d="M0 0 C1.65 0 3.3 0 5 0 C4.67 1.32 4.34 2.64 4 4 C3.01 4 2.02 4 1 4 C0.67 4.66 0.34 5.32 0 6 C0 4.02 0 2.04 0 0 Z " fill="#F3DAFC" transform="translate(144,13)"/><path d="M0 0 C1.65 0 3.3 0 5 0 C4.81 0.62 4.63 1.24 4.44 1.88 C3.76 4.04 3.76 4.04 5 6 C3.35 6 1.7 6 0 6 C0.66 4.68 1.32 3.36 2 2 C1.34 1.34 0.68 0.68 0 0 Z " fill="#D4EFD4" transform="translate(49,163)"/><path d="M0 0 C1.98 0 3.96 0 6 0 C6 0.66 6 1.32 6 2 C5.34 2 4.68 2 4 2 C4 3.32 4 4.64 4 6 C3.34 6 2.68 6 2 6 C2 4.68 2 3.36 2 2 C1.34 2 0.68 2 0 2 C0 1.34 0 0.68 0 0 Z " fill="#BCE8BA" transform="translate(354,15)"/><path d="M0 0 C0.33 0 0.66 0 1 0 C1 1.65 1 3.3 1 5 C0.34 5 -0.32 5 -1 5 C-1 5.66 -1 6.32 -1 7 C-1.99 6.67 -2.98 6.34 -4 6 C-4 5.34 -4 4.68 -4 4 C-3.34 4 -2.68 4 -2 4 C-1.34 2.68 -0.68 1.36 0 0 Z " fill="#BEE7BC" transform="translate(231,211)"/><path d="M0 0 C0.99 0.33 1.98 0.66 3 1 C0.36 2.98 -2.28 4.96 -5 7 C-5.66 6.34 -6.32 5.68 -7 5 C-6.58 4.72 -6.16 4.45 -5.72 4.16 C-5.17 3.8 -4.63 3.44 -4.06 3.06 C-3.52 2.7 -2.97 2.34 -2.41 1.97 C-1.01 1.07 -1.01 1.07 0 0 Z " fill="#6CC164" transform="translate(195,154)"/><path d="M0 0 C1.65 0 3.3 0 5 0 C5 1.65 5 3.3 5 5 C3.35 5 1.7 5 0 5 C0 3.35 0 1.7 0 0 Z " fill="#E2F3E3" transform="translate(29,156)"/><path d="M0 0 C2.06 0.44 2.06 0.44 4 1 C2.71 2.38 1.37 3.71 0 5 C-0.66 5 -1.32 5 -2 5 C-1.12 1.12 -1.12 1.12 0 0 Z " fill="#AFE3AC" transform="translate(350,118)"/><path d="M0 0 C0.99 0 1.98 0 3 0 C2.67 0.99 2.34 1.98 2 3 C0.37 3.73 0.37 3.73 -1.56 4.19 C-2.2 4.35 -2.84 4.5 -3.5 4.67 C-4 4.78 -4.49 4.89 -5 5 C-5 4.01 -5 3.02 -5 2 C-4.36 1.86 -3.72 1.71 -3.06 1.56 C-1.02 1.19 -1.02 1.19 0 0 Z " fill="#A5E2A0" transform="translate(74,62)"/><path d="M0 0 C0.33 0.66 0.66 1.32 1 2 C2.65 2 4.3 2 6 2 C6 2.33 6 2.66 6 3 C4.35 3 2.7 3 1 3 C1 4.98 1 6.96 1 9 C0.34 8.67 -0.32 8.34 -1 8 C-0.67 6.35 -0.34 4.7 0 3 C-0.66 3 -1.32 3 -2 3 C-2 2.34 -2 1.68 -2 1 C-1.34 0.67 -0.68 0.34 0 0 Z " fill="#4BCD3D" transform="translate(372,20)"/><path d="M0 0 C0.33 0 0.66 0 1 0 C1.25 2.31 1.25 2.31 1 5 C-0.69 6.88 -0.69 6.88 -3 8 C-5.75 7.69 -5.75 7.69 -8 7 C-5.74 5.3 -3.76 4.57 -1 4 C-0.67 2.68 -0.34 1.36 0 0 Z " fill="#40CB31" transform="translate(389,16)"/><path d="M0 0 C2.47 0.5 2.47 0.5 5 1 C5 1.99 5 2.98 5 4 C3.35 4 1.7 4 0 4 C0 2.68 0 1.36 0 0 Z " fill="#F3F2FC" transform="translate(161,20)"/><path d="M0 0 C0 0.99 0 1.98 0 3 C-0.99 3 -1.98 3 -3 3 C-3.33 3.66 -3.66 4.32 -4 5 C-4 3.68 -4 2.36 -4 1 C-4.99 0.67 -5.98 0.34 -7 0 C-3.99 -0.93 -3.13 -1.04 0 0 Z " fill="#21C311" transform="translate(309,269)"/><path d="M0 0 C1.32 0 2.64 0 4 0 C4.33 1.32 4.66 2.64 5 4 C4.01 4.5 4.01 4.5 3 5 C1.5 4.19 1.5 4.19 0 3 C0 2.01 0 1.02 0 0 Z " fill="#C2E9C1" transform="translate(157,200)"/><path d="M0 0 C2.97 0.5 2.97 0.5 6 1 C4.75 2.56 4.75 2.56 3 4 C0.81 3.69 0.81 3.69 -1 3 C-0.67 2.01 -0.34 1.02 0 0 Z " fill="#F0F0FA" transform="translate(302,159)"/><path d="M0 0 C2.76 0.57 4.74 1.3 7 3 C6.67 3.66 6.34 4.32 6 5 C3.56 4.19 3.56 4.19 1 3 C0.67 2.01 0.34 1.02 0 0 Z " fill="#9BDF95" transform="translate(55,125)"/><path d="M0 0 C2.64 0 5.28 0 8 0 C8 0.66 8 1.32 8 2 C5.29 3.35 2.99 3.07 0 3 C0 2.01 0 1.02 0 0 Z " fill="#F2EFFF" transform="translate(354,113)"/><path d="M0 0 C1.65 0 3.3 0 5 0 C4.67 0.99 4.34 1.98 4 3 C2.02 3.33 0.04 3.66 -2 4 C-1.34 2.68 -0.68 1.36 0 0 Z " fill="#AAE3A6" transform="translate(82,59)"/><path d="M0 0 C1.65 0 3.3 0 5 0 C5 0.99 5 1.98 5 3 C3.02 3.66 1.04 4.32 -1 5 C-0.67 3.35 -0.34 1.7 0 0 Z " fill="#F1F6F5" transform="translate(188,34)"/><path d="M0 0 C2.48 0.99 2.48 0.99 5 2 C4.67 2.99 4.34 3.98 4 5 C1.52 4.01 1.52 4.01 -1 3 C-0.67 2.01 -0.34 1.02 0 0 Z " fill="#B2E5AF" transform="translate(49,122)"/><path d="M0 0 C0.66 0.66 1.32 1.32 2 2 C1.34 2 0.68 2 0 2 C0 2.66 0 3.32 0 4 C-0.66 4 -1.32 4 -2 4 C-2.33 5.32 -2.66 6.64 -3 8 C-3.66 7.67 -4.32 7.34 -5 7 C-2.25 1.12 -2.25 1.12 0 0 Z " fill="#F4F2FF" transform="translate(352,121)"/><path d="M0 0 C0.33 0.66 0.66 1.32 1 2 C-0.25 3.5 -0.25 3.5 -2 5 C-4.19 5.19 -4.19 5.19 -6 5 C-5.67 4.01 -5.34 3.02 -5 2 C-2.44 0.81 -2.44 0.81 0 0 Z " fill="#B9E6B7" transform="translate(162,41)"/><path d="M0 0 C0.99 0 1.98 0 3 0 C3.33 1.98 3.66 3.96 4 6 C2.68 6 1.36 6 0 6 C0 4.02 0 2.04 0 0 Z " fill="#C5EBC4" transform="translate(308,268)"/><path d="M0 0 C1.32 0.33 2.64 0.66 4 1 C3.67 2.32 3.34 3.64 3 5 C2.01 5 1.02 5 0 5 C0 3.35 0 1.7 0 0 Z " fill="#77D86E" transform="translate(270,260)"/><path d="M0 0 C0.33 0.66 0.66 1.32 1 2 C0.34 2 -0.32 2 -1 2 C-1 3.98 -1 5.96 -1 8 C-3.14 5.86 -3.43 4.87 -4 2 C-2.68 1.34 -1.36 0.68 0 0 Z " fill="#57D04B" transform="translate(40,160)"/><path d="M0 0 C1.98 0 3.96 0 6 0 C6.33 1.65 6.66 3.3 7 5 C1.57 3.14 1.57 3.14 0 0 Z " fill="#6ED564" transform="translate(29,155)"/><path d="M0 0 C0.66 0.66 1.32 1.32 2 2 C-0.31 3.32 -2.62 4.64 -5 6 C-5 5.01 -5 4.02 -5 3 C-2.5 1.31 -2.5 1.31 0 0 Z " fill="#9FE09B" transform="translate(321,142)"/><path d="M0 0 C1.32 0.33 2.64 0.66 4 1 C3.67 1.66 3.34 2.32 3 3 C2.01 3 1.02 3 0 3 C-0.33 3.99 -0.66 4.98 -1 6 C-1.33 5.34 -1.66 4.68 -2 4 C-1.06 1.88 -1.06 1.88 0 0 Z " fill="#EEF2F5" transform="translate(322,137)"/><path d="M0 0 C2.97 0.5 2.97 0.5 6 1 C5.67 1.99 5.34 2.98 5 4 C3.06 3.69 3.06 3.69 1 3 C0.67 2.01 0.34 1.02 0 0 Z " fill="#B1E5AE" transform="translate(42,120)"/><path d="M0 0 C-0.33 1.65 -0.66 3.3 -1 5 C-1.99 4.67 -2.98 4.34 -4 4 C-4 3.01 -4 2.02 -4 1 C-2 0 -2 0 0 0 Z " fill="#0880A4" transform="translate(157,94)"/><path d="M0 0 C1.98 0.5 1.98 0.5 4 1 C3.67 1.99 3.34 2.98 3 4 C1.68 4 0.36 4 -1 4 C-0.67 2.68 -0.34 1.36 0 0 Z " fill="#3A4F40" transform="translate(283,82)"/><path d="M0 0 C0.99 0 1.98 0 3 0 C2.67 0.99 2.34 1.98 2 3 C-0.56 4.19 -0.56 4.19 -3 5 C-1.12 1.12 -1.12 1.12 0 0 Z " fill="#F1F2F5" transform="translate(43,78)"/><path d="M0 0 C0.66 0 1.32 0 2 0 C2 1.98 2 3.96 2 6 C0.68 5.67 -0.64 5.34 -2 5 C-1.34 3.35 -0.68 1.7 0 0 Z " fill="#D1EED1" transform="translate(395,15)"/><path d="M0 0 C2.46 1.23 3.42 2.78 5 5 C3.35 5.33 1.7 5.66 0 6 C-1 3 -1 3 0 0 Z " fill="#55D049" transform="translate(372,8)"/><path d="M0 0 C0.99 0 1.98 0 3 0 C3 0.99 3 1.98 3 3 C3.66 3 4.32 3 5 3 C5 3.66 5 4.32 5 5 C3.68 4.67 2.36 4.34 1 4 C0.67 2.68 0.34 1.36 0 0 Z " fill="#81828A" transform="translate(299,189)"/><path d="M0 0 C1.32 0.66 2.64 1.32 4 2 C3.34 3.32 2.68 4.64 2 6 C1.67 5.34 1.34 4.68 1 4 C0.34 3.67 -0.32 3.34 -1 3 C-0.67 2.01 -0.34 1.02 0 0 Z " fill="#41414A" transform="translate(161,187)"/><path d="M0 0 C0.99 0 1.98 0 3 0 C3.33 1.65 3.66 3.3 4 5 C2.68 5 1.36 5 0 5 C0 3.35 0 1.7 0 0 Z " fill="#9EE199" transform="translate(36,149)"/><path d="M0 0 C0 1.98 0 3.96 0 6 C-0.66 6 -1.32 6 -2 6 C-2 4.68 -2 3.36 -2 2 C-2.66 1.67 -3.32 1.34 -4 1 C-2 0 -2 0 0 0 Z " fill="#A8E5A3" transform="translate(308,260)"/><path d="M0 0 C2.47 0.99 2.47 0.99 5 2 C4.67 2.99 4.34 3.98 4 5 C2.35 4.01 0.7 3.02 -1 2 C-0.67 1.34 -0.34 0.68 0 0 Z " fill="#B2E5AF" transform="translate(163,203)"/><path d="M0 0 C0.33 0.99 0.66 1.98 1 3 C1.99 3.33 2.98 3.66 4 4 C3.01 5.49 3.01 5.49 2 7 C1.67 6.34 1.34 5.68 1 5 C-0.52 3.88 -0.52 3.88 -2 3 C-1.34 2.01 -0.68 1.02 0 0 Z " fill="#A4CFA3" transform="translate(92,142)"/><path d="M0 0 C1.65 0 3.3 0 5 0 C5 0.66 5 1.32 5 2 C4.01 2.5 4.01 2.5 3 3 C1.88 4.52 1.88 4.52 1 6 C0.67 4.02 0.34 2.04 0 0 Z " fill="#E4E4ED" transform="translate(393,97)"/><path d="M0 0 C0.66 0.99 1.32 1.98 2 3 C0.35 3.66 -1.3 4.32 -3 5 C-2.67 4.01 -2.34 3.02 -2 2 C-2.66 1.67 -3.32 1.34 -4 1 C-2.68 0.67 -1.36 0.34 0 0 Z " fill="#C4EBC2" transform="translate(58,68)"/><path d="M0 0 C0.99 0 1.98 0 3 0 C2.67 2.31 2.34 4.62 2 7 C1.34 7 0.68 7 0 7 C-0.38 5.01 -0.71 3.01 -1 1 C-0.67 0.67 -0.34 0.34 0 0 Z " fill="#B5C3B7" transform="translate(193,30)"/><path d="M0 0 C0.99 0 1.98 0 3 0 C3 1.32 3 2.64 3 4 C2.01 4.33 1.02 4.66 0 5 C-0.33 4.34 -0.66 3.68 -1 3 C-0.67 2.01 -0.34 1.02 0 0 Z " fill="#6AD460" transform="translate(359,24)"/><path d="M0 0 C2.31 0 4.62 0 7 0 C6.34 0.66 5.68 1.32 5 2 C4.3 3.32 3.63 4.65 3 6 C2.81 5.07 2.81 5.07 2.62 4.12 C2.13 1.81 2.13 1.81 0 0 Z " fill="#EEEDF6" transform="translate(139,20)"/><path d="M0 0 C1.98 0.5 1.98 0.5 4 1 C3.01 1.99 2.02 2.98 1 4 C0.34 3.67 -0.32 3.34 -1 3 C-0.67 2.01 -0.34 1.02 0 0 Z " fill="#C1E8BF" transform="translate(238,206)"/><path d="M0 0 C2.97 0.5 2.97 0.5 6 1 C5.67 1.99 5.34 2.98 5 4 C2.53 3.01 2.53 3.01 0 2 C0 1.34 0 0.68 0 0 Z " fill="#A6E2A2" transform="translate(69,132)"/><path d="M0 0 C0.66 0.66 1.32 1.32 2 2 C1.01 3.48 1.01 3.48 0 5 C-1.32 4.67 -2.64 4.34 -4 4 C-2.68 2.68 -1.36 1.36 0 0 Z " fill="#F5F8F8" transform="translate(53,72)"/><path d="M0 0 C1.98 0.5 1.98 0.5 4 1 C2.62 2.5 2.62 2.5 1 4 C0.34 4 -0.32 4 -1 4 C-0.67 2.68 -0.34 1.36 0 0 Z " fill="#AEE5AA" transform="translate(203,26)"/><path d="M0 0 C2 1 2 1 3 3 C2.01 3 1.02 3 0 3 C-0.33 3.99 -0.66 4.98 -1 6 C-1.62 4.12 -1.62 4.12 -2 2 C-1.34 1.34 -0.68 0.68 0 0 Z " fill="#2C2F38" transform="translate(224,23)"/><path d="M0 0 C1.69 0.94 1.69 0.94 3 2 C2.34 2 1.68 2 1 2 C0.67 2.66 0.34 3.32 0 4 C-0.99 3.67 -1.98 3.34 -3 3 C-3 2.34 -3 1.68 -3 1 C-2.01 0.67 -1.02 0.34 0 0 Z " fill="#66D45B" transform="translate(280,260)"/><path d="M0 0 C0.99 0 1.98 0 3 0 C3 1.32 3 2.64 3 4 C2.01 4 1.02 4 0 4 C0 2.68 0 1.36 0 0 Z " fill="#3ECA30" transform="translate(288,254)"/><path d="M0 0 C0.66 0.99 1.32 1.98 2 3 C0.02 3.33 -1.96 3.66 -4 4 C-2.68 2.68 -1.36 1.36 0 0 Z " fill="#E1E0EA" transform="translate(278,198)"/><path d="M0 0 C0.99 0 1.98 0 3 0 C2.67 1.32 2.34 2.64 2 4 C1.01 3.67 0.02 3.34 -1 3 C-0.67 2.01 -0.34 1.02 0 0 Z " fill="#BEE5BE" transform="translate(279,174)"/><path d="M0 0 C1.32 0.33 2.64 0.66 4 1 C3.67 1.99 3.34 2.98 3 4 C2.01 3.67 1.02 3.34 0 3 C0 2.01 0 1.02 0 0 Z " fill="#6CD462" transform="translate(33,116)"/><path d="M0 0 C0.99 0.99 1.98 1.98 3 3 C2.67 3.66 2.34 4.32 2 5 C1.01 4.34 0.02 3.68 -1 3 C-0.67 2.01 -0.34 1.02 0 0 Z " fill="#B2E4B0" transform="translate(193,220)"/><path d="M0 0 C1.32 0.66 2.64 1.32 4 2 C1.69 2.33 -0.62 2.66 -3 3 C-2.01 2.01 -1.02 1.02 0 0 Z " fill="#E8E6F1" transform="translate(272,203)"/><path d="M0 0 C0 0.99 0 1.98 0 3 C-1.5 4.19 -1.5 4.19 -3 5 C-3 4.01 -3 3.02 -3 2 C-1.5 0.81 -1.5 0.81 0 0 Z " fill="#43434C" transform="translate(273,194)"/><path d="M0 0 C0.66 0 1.32 0 2 0 C1.67 1.98 1.34 3.96 1 6 C0.67 5.34 0.34 4.68 0 4 C-0.66 3.67 -1.32 3.34 -2 3 C-1.34 3 -0.68 3 0 3 C0 2.01 0 1.02 0 0 Z " fill="#C5C8CA" transform="translate(304,188)"/><path d="M0 0 C2.12 0.38 2.12 0.38 4 1 C3.34 1 2.68 1 2 1 C2 1.66 2 2.32 2 3 C0.68 2.67 -0.64 2.34 -2 2 C-1.34 1.34 -0.68 0.68 0 0 Z " fill="#F6F5FF" transform="translate(320,146)"/><path d="M0 0 C0.99 0 1.98 0 3 0 C3 0.66 3 1.32 3 2 C3.66 2.33 4.32 2.66 5 3 C3.35 3 1.7 3 0 3 C0 2.01 0 1.02 0 0 Z " fill="#919398" transform="translate(118,113)"/><path d="M0 0 C0.99 0.33 1.98 0.66 3 1 C2.67 1.99 2.34 2.98 2 4 C1.01 3.67 0.02 3.34 -1 3 C-0.67 2.01 -0.34 1.02 0 0 Z " fill="#252833" transform="translate(163,93)"/><path d="M0 0 C1.32 0.33 2.64 0.66 4 1 C3.01 1.99 2.02 2.98 1 4 C0.67 2.68 0.34 1.36 0 0 Z " fill="#0684AA" transform="translate(173,90)"/><path d="M0 0 C0.66 0.99 1.32 1.98 2 3 C0.68 3.33 -0.64 3.66 -2 4 C-2 3.01 -2 2.02 -2 1 C-1.34 0.67 -0.68 0.34 0 0 Z " fill="#70D667" transform="translate(39,77)"/><path d="M0 0 C0.99 0 1.98 0 3 0 C2.67 1.32 2.34 2.64 2 4 C1.01 4 0.02 4 -1 4 C-0.67 2.68 -0.34 1.36 0 0 Z " fill="#BBE6B9" transform="translate(96,56)"/><path d="M0 0 C0.99 0 1.98 0 3 0 C3 0.99 3 1.98 3 3 C2.34 3 1.68 3 1 3 C0.67 3.66 0.34 4.32 0 5 C0 3.35 0 1.7 0 0 Z " fill="#F99DFC" transform="translate(147,21)"/><path d="M0 0 C1.65 0 3.3 0 5 0 C5 0.99 5 1.98 5 3 C4.01 3 3.02 3 2 3 C2 2.34 2 1.68 2 1 C1.34 0.67 0.68 0.34 0 0 Z " fill="#A4E1A0" transform="translate(361,15)"/><path d="M0 0 C0.99 0.33 1.98 0.66 3 1 C3 1.99 3 2.98 3 4 C2.01 3.67 1.02 3.34 0 3 C0 2.01 0 1.02 0 0 Z " fill="#BEE9BB" transform="translate(175,211)"/><path d="M0 0 C0.66 0.33 1.32 0.66 2 1 C2 1.99 2 2.98 2 4 C1.01 4 0.02 4 -1 4 C-0.67 2.68 -0.34 1.36 0 0 Z " fill="#C3E6C4" transform="translate(253,194)"/><path d="M0 0 C0.99 0 1.98 0 3 0 C2.67 1.65 2.34 3.3 2 5 C0 2.25 0 2.25 0 0 Z " fill="#A4A6A8" transform="translate(186,169)"/><path d="M0 0 C0.66 0.33 1.32 0.66 2 1 C1.34 2.32 0.68 3.64 0 5 C-0.56 3.06 -0.56 3.06 -1 1 C-0.67 0.67 -0.34 0.34 0 0 Z " fill="#ACE3AA" transform="translate(289,166)"/><path d="M0 0 C0.99 0.33 1.98 0.66 3 1 C2.67 1.99 2.34 2.98 2 4 C1.34 4 0.68 4 0 4 C0 2.68 0 1.36 0 0 Z " fill="#28C518" transform="translate(28,164)"/><path d="M0 0 C0.66 0.66 1.32 1.32 2 2 C0.68 2.99 -0.64 3.98 -2 5 C-2.33 4.01 -2.66 3.02 -3 2 C-2.01 1.34 -1.02 0.68 0 0 Z " fill="#A7E0A4" transform="translate(302,157)"/><path d="M0 0 C0.33 0.66 0.66 1.32 1 2 C0.67 2.66 0.34 3.32 0 4 C-0.99 4 -1.98 4 -3 4 C-2.67 3.01 -2.34 2.02 -2 1 C-1.34 0.67 -0.68 0.34 0 0 Z " fill="#F2F2FC" transform="translate(326,141)"/><path d="M0 0 C1.32 0 2.64 0 4 0 C4 0.66 4 1.32 4 2 C2.68 2.33 1.36 2.66 0 3 C0 2.01 0 1.02 0 0 Z " fill="#BAE3B8" transform="translate(322,140)"/><path d="M0 0 C0.66 0.66 1.32 1.32 2 2 C0.02 2.99 0.02 2.99 -2 4 C-2 3.01 -2 2.02 -2 1 C-1.34 0.67 -0.68 0.34 0 0 Z " fill="#A4DFA0" transform="translate(340,127)"/><path d="M0 0 C0.99 0.33 1.98 0.66 3 1 C1.68 1.99 0.36 2.98 -1 4 C-1 1 -1 1 0 0 Z " fill="#678169" transform="translate(363,122)"/><path d="M0 0 C1.98 0.99 1.98 0.99 4 2 C4 2.66 4 3.32 4 4 C3.01 4 2.02 4 1 4 C0.67 2.68 0.34 1.36 0 0 Z " fill="#589A54" transform="translate(297,76)"/><path d="M0 0 C0.99 0 1.98 0 3 0 C2.67 0.99 2.34 1.98 2 3 C1.01 3.33 0.02 3.66 -1 4 C-0.67 2.68 -0.34 1.36 0 0 Z " fill="#B4E4B1" transform="translate(106,54)"/><path d="M0 0 C0.66 0.33 1.32 0.66 2 1 C2 1.99 2 2.98 2 4 C1.01 4 0.02 4 -1 4 C-0.67 2.68 -0.34 1.36 0 0 Z " fill="#42CB34" transform="translate(362,9)"/><path d="M0 0 C0.99 0 1.98 0 3 0 C3 0.99 3 1.98 3 3 C2.01 3 1.02 3 0 3 C0 2.01 0 1.02 0 0 Z " fill="#29C519" transform="translate(311,262)"/><path d="M0 0 C0.66 0.99 1.32 1.98 2 3 C0.02 3.99 0.02 3.99 -2 5 C-1.34 3.35 -0.68 1.7 0 0 Z " fill="#A2E09D" transform="translate(251,196)"/><path d="M0 0 C0.99 0.33 1.98 0.66 3 1 C2.67 1.99 2.34 2.98 2 4 C1.34 3.67 0.68 3.34 0 3 C0 2.01 0 1.02 0 0 Z " fill="#B6E7B3" transform="translate(146,192)"/><path d="M0 0 C0.33 1.32 0.66 2.64 1 4 C0.01 4.33 -0.98 4.66 -2 5 C-1.34 3.35 -0.68 1.7 0 0 Z " fill="#A4E0A1" transform="translate(270,181)"/><path d="M0 0 C0.66 0 1.32 0 2 0 C2.33 0.99 2.66 1.98 3 3 C2.01 3 1.02 3 0 3 C0 2.01 0 1.02 0 0 Z " fill="#B4E6B0" transform="translate(126,175)"/><path d="M0 0 C0.99 0 1.98 0 3 0 C3 0.99 3 1.98 3 3 C2.01 3 1.02 3 0 3 C0 2.01 0 1.02 0 0 Z " fill="#35C826" transform="translate(11,157)"/><path d="M0 0 C0.99 0 1.98 0 3 0 C3 0.99 3 1.98 3 3 C2.01 3 1.02 3 0 3 C0 2.01 0 1.02 0 0 Z " fill="#35C826" transform="translate(52,157)"/><path d="M0 0 C1.32 0.33 2.64 0.66 4 1 C3.67 1.66 3.34 2.32 3 3 C2.01 2.67 1.02 2.34 0 2 C0 1.34 0 0.68 0 0 Z " fill="#C1EABF" transform="translate(55,125)"/><path d="M0 0 C0.99 0 1.98 0 3 0 C3 0.99 3 1.98 3 3 C2.01 3 1.02 3 0 3 C0 2.01 0 1.02 0 0 Z " fill="#8F9296" transform="translate(199,115)"/><path d="M0 0 C0.99 0 1.98 0 3 0 C3 0.99 3 1.98 3 3 C2.01 3 1.02 3 0 3 C0 2.01 0 1.02 0 0 Z " fill="#86878C" transform="translate(197,68)"/><path d="M0 0 C0.99 0 1.98 0 3 0 C3 0.99 3 1.98 3 3 C2.01 3 1.02 3 0 3 C0 2.01 0 1.02 0 0 Z " fill="#50CE43" transform="translate(210,24)"/><path d="M0 0 C0.99 0 1.98 0 3 0 C3 0.99 3 1.98 3 3 C2.01 3 1.02 3 0 3 C0 2.01 0 1.02 0 0 Z " fill="#F784FF" transform="translate(161,20)"/><path d="M0 0 C0.99 0 1.98 0 3 0 C3 0.99 3 1.98 3 3 C2.01 3 1.02 3 0 3 C0 2.01 0 1.02 0 0 Z " fill="#39C92A" transform="translate(343,17)"/><path d="M0 0 C0.99 0 1.98 0 3 0 C3 0.99 3 1.98 3 3 C2.01 3 1.02 3 0 3 C0 2.01 0 1.02 0 0 Z " fill="#28C518" transform="translate(384,17)"/><path d="M0 0 C0.99 0.33 1.98 0.66 3 1 C2.01 2.49 2.01 2.49 1 4 C0.67 2.68 0.34 1.36 0 0 Z " fill="#B6E5B5" transform="translate(186,217)"/><path d="M0 0 C0.66 0.33 1.32 0.66 2 1 C1.67 1.99 1.34 2.98 1 4 C0.34 3.67 -0.32 3.34 -1 3 C-0.67 2.01 -0.34 1.02 0 0 Z " fill="#A8E2A5" transform="translate(233,210)"/><path d="M0 0 C1.98 0.99 1.98 0.99 4 2 C3.34 2.66 2.68 3.32 2 4 C1.34 2.68 0.68 1.36 0 0 Z " fill="#9FE199" transform="translate(137,185)"/><path d="M0 0 C1.98 0.99 1.98 0.99 4 2 C3.34 2.66 2.68 3.32 2 4 C1.34 2.68 0.68 1.36 0 0 Z " fill="#048EB7" transform="translate(163,152)"/><path d="M0 0 C1.98 0.99 1.98 0.99 4 2 C3.34 2.66 2.68 3.32 2 4 C1.34 2.68 0.68 1.36 0 0 Z " fill="#048EB7" transform="translate(138,133)"/><path d="M0 0 C0.99 0.33 1.98 0.66 3 1 C3 1.66 3 2.32 3 3 C2.01 3 1.02 3 0 3 C0 2.01 0 1.02 0 0 Z " fill="#FF01FF" transform="translate(164,14)"/><path d="M0 0 C0.99 0.33 1.98 0.66 3 1 C3 1.66 3 2.32 3 3 C2.01 2.67 1.02 2.34 0 2 C0 1.34 0 0.68 0 0 Z " fill="#3ACA2C" transform="translate(227,215)"/><path d="M0 0 C0.66 0.33 1.32 0.66 2 1 C1.67 1.99 1.34 2.98 1 4 C0.34 3.34 -0.32 2.68 -1 2 C-0.67 1.34 -0.34 0.68 0 0 Z " fill="#A5E2A1" transform="translate(255,193)"/><path d="M0 0 C0.66 0.99 1.32 1.98 2 3 C1.01 3 0.02 3 -1 3 C-0.67 2.01 -0.34 1.02 0 0 Z " fill="#A2E29D" transform="translate(292,164)"/><path d="M0 0 C0.99 0.33 1.98 0.66 3 1 C1.51 1.99 1.51 1.99 0 3 C0 2.01 0 1.02 0 0 Z " fill="#667F69" transform="translate(195,154)"/><path d="M0 0 C0.66 0 1.32 0 2 0 C1.67 0.99 1.34 1.98 1 3 C0.34 3 -0.32 3 -1 3 C-0.67 2.01 -0.34 1.02 0 0 Z " fill="#6DA26B" transform="translate(354,130)"/><path d="M0 0 C0.99 0.99 1.98 1.98 3 3 C2.01 3 1.02 3 0 3 C0 2.01 0 1.02 0 0 Z " fill="#65A162" transform="translate(374,94)"/><path d="M0 0 C0.99 0.99 1.98 1.98 3 3 C2.01 3 1.02 3 0 3 C0 2.01 0 1.02 0 0 Z " fill="#65A162" transform="translate(365,83)"/><path d="M0 0 C0.66 0.33 1.32 0.66 2 1 C2 1.66 2 2.32 2 3 C1.01 2.67 0.02 2.34 -1 2 C-0.67 1.34 -0.34 0.68 0 0 Z " fill="#9CDF97" transform="translate(179,213)"/><path d="M0 0 C0.66 0.99 1.32 1.98 2 3 C1.01 3 0.02 3 -1 3 C-0.67 2.01 -0.34 1.02 0 0 Z " fill="#A6E0A3" transform="translate(307,152)"/><path d="M0 0 C0.66 0.66 1.32 1.32 2 2 C1.01 2.33 0.02 2.66 -1 3 C-0.67 2.01 -0.34 1.02 0 0 Z " fill="#A6E0A3" transform="translate(347,122)"/><path d="M0 0 C0.99 0.33 1.98 0.66 3 1 C2.34 1.66 1.68 2.32 1 3 C0.67 2.01 0.34 1.02 0 0 Z " fill="#3FCA31" transform="translate(351,118)"/><path d="M0 0 C0.66 0 1.32 0 2 0 C1.67 0.99 1.34 1.98 1 3 C0.34 2.34 -0.32 1.68 -1 1 C-0.67 0.67 -0.34 0.34 0 0 Z " fill="#048BB3" transform="translate(212,71)"/><path d="M0 0 C0.66 0.66 1.32 1.32 2 2 C1.01 2 0.02 2 -1 2 C-0.67 1.34 -0.34 0.68 0 0 Z " fill="#9DE197" transform="translate(163,203)"/></svg>