<?xml version="1.0" encoding="UTF-8"?>
<svg version="1.1" xmlns="http://www.w3.org/2000/svg" width="465" height="292">
<path d="M0 0 C153.45 0 306.9 0 465 0 C465 96.36 465 192.72 465 292 C311.55 292 158.1 292 0 292 C0 195.64 0 99.28 0 0 Z " fill="#F9F9FE" transform="translate(0,0)"/>
<path d="M0 0 C3.5625 0.3125 3.5625 0.3125 5.5 1.5 C6.94968434 3.97299093 6.98567323 5.49134512 6.5625 8.3125 C5.0390625 9.96875 5.0390625 9.96875 3.5625 11.3125 C4.243125 11.59222656 4.92375 11.87195312 5.625 12.16015625 C8.94263383 13.5322096 12.25269131 14.92167614 15.5625 16.3125 C16.18318359 16.56950684 16.80386719 16.82651367 17.44335938 17.09130859 C33.41160885 23.72032959 47.72228999 31.95396782 61.5625 42.3125 C62.5525 41.6525 63.5425 40.9925 64.5625 40.3125 C68.23923806 39.84312918 69.92102418 39.86840136 73 42 C74.5625 44.3125 74.5625 44.3125 74.5 46.875 C73.49229572 49.49503113 72.88299623 50.73787756 70.5625 52.3125 C66.81400923 52.78106135 65.79503796 52.46752531 62.5625 50.3125 C60.87619881 53.82283129 60.87619881 53.82283129 60.9375 57.625 C61.14375 58.181875 61.35 58.73875 61.5625 59.3125 C61.93375 58.8175 62.305 58.3225 62.6875 57.8125 C65.3640868 55.67123056 67.22311623 55.96464752 70.5625 56.3125 C71.5525 56.9725 72.5425 57.6325 73.5625 58.3125 C74.21075345 64.25482331 74.21075345 64.25482331 72.375 67.25 C70.00208382 68.64101983 68.26563576 68.53167317 65.5625 68.3125 C65.8925 68.9725 66.2225 69.6325 66.5625 70.3125 C67.490625 70.250625 68.41875 70.18875 69.375 70.125 C72.5625 70.3125 72.5625 70.3125 74.4375 71.4375 C76.10913625 74.22356042 76.02626624 76.13238862 75.5625 79.3125 C73.875 81.25 73.875 81.25 71.5625 82.3125 C67.34330675 82.10154034 66.11666284 80.97812213 62.5625 78.3125 C60.5825 81.2825 58.6025 84.2525 56.5625 87.3125 C57.531875 87.786875 58.50125 88.26125 59.5 88.75 C62.5625 90.3125 62.5625 90.3125 63.5625 91.3125 C63.82543056 95.34410191 63.85654844 96.87142734 61.5625 100.3125 C62.31869629 100.51407715 63.07489258 100.7156543 63.85400391 100.92333984 C67.29901493 101.84281925 70.74326126 102.76513213 74.1875 103.6875 C75.37730469 104.00460938 76.56710938 104.32171875 77.79296875 104.6484375 C79.52353516 105.1125 79.52353516 105.1125 81.2890625 105.5859375 C82.34689941 105.86872559 83.40473633 106.15151367 84.49462891 106.44287109 C87.5523629 107.3096265 90.55573118 108.28397227 93.5625 109.3125 C93.748125 107.889375 93.748125 107.889375 93.9375 106.4375 C94.5625 103.3125 94.5625 103.3125 96.5625 101.3125 C100.61511287 100.96759678 102.11004176 101.01086118 105.5625 103.3125 C105.5625 104.3025 105.5625 105.2925 105.5625 106.3125 C106.8825 105.9825 108.2025 105.6525 109.5625 105.3125 C108.9025 104.3225 108.2425 103.3325 107.5625 102.3125 C107.04930004 98.97670026 107.24027974 97.75406109 109.25 95 C111.5625 93.3125 111.5625 93.3125 114.125 92.875 C116.5625 93.3125 116.5625 93.3125 118.375 94.4375 C120.10423843 97.16787647 119.88620699 99.14017149 119.5625 102.3125 C118.93368273 103.66409575 118.27295688 105.00197596 117.5625 106.3125 C118.09875 106.44785156 118.635 106.58320312 119.1875 106.72265625 C124.91595488 108.29609698 130.31533836 110.37769703 135.75 112.75 C136.41451172 113.03818604 137.07902344 113.32637207 137.76367188 113.62329102 C142.20414253 115.59383255 146.3786095 117.84340768 150.5625 120.3125 C151.09875 119.4875 151.635 118.6625 152.1875 117.8125 C154.5625 115.3125 154.5625 115.3125 157.5625 114.8125 C160.76406191 115.34609365 162.20492168 116.13627386 164.5625 118.3125 C164.78679687 117.47203125 165.01109375 116.6315625 165.2421875 115.765625 C166.82152613 111.63504703 169.03788392 108.56563386 171.6875 105.0625 C175.1408306 101.07670483 175.1408306 101.07670483 176.5625 96.3125 C175.9025 95.3225 175.2425 94.3325 174.5625 93.3125 C174.23394401 90.15836249 174.02748119 88.15726654 175.75 85.4375 C178.26048407 83.87926851 179.65552053 83.81618643 182.5625 84.3125 C184.9375 85.9375 184.9375 85.9375 186.5625 88.3125 C186.37873488 91.37525204 185.93223455 93.5730309 184.5625 96.3125 C185.39652344 96.55742188 186.23054688 96.80234375 187.08984375 97.0546875 C191.01489357 98.47635909 194.51568739 100.37217112 198.125 102.4375 C199.71962993 103.33668656 201.31471588 104.2350647 202.91015625 105.1328125 C204.24071045 105.88353027 204.24071045 105.88353027 205.59814453 106.64941406 C210.7704068 109.55119718 215.96837196 112.40646034 221.16366577 115.26672363 C224.31331416 117.00138156 227.46126067 118.73912258 230.609375 120.4765625 C234.68109858 122.72352574 238.75396963 124.96838626 242.828125 127.2109375 C256.43992069 134.71707206 269.87359982 142.43888015 282.86914062 150.97607422 C286.97215396 153.66428809 291.11132456 156.27627035 295.30078125 158.828125 C296.26790039 159.41811279 297.23501953 160.00810059 298.23144531 160.6159668 C300.13727203 161.77454607 302.04670665 162.92721436 303.95996094 164.07348633 C304.82008789 164.5970874 305.68021484 165.12068848 306.56640625 165.66015625 C307.33799072 166.12429932 308.1095752 166.58844238 308.90454102 167.06665039 C309.45166748 167.47778076 309.99879395 167.88891113 310.5625 168.3125 C310.5625 168.9725 310.5625 169.6325 310.5625 170.3125 C311.2225 170.3125 311.8825 170.3125 312.5625 170.3125 C312.5625 169.6525 312.5625 168.9925 312.5625 168.3125 C315.8125 167.5625 315.8125 167.5625 319.5625 167.3125 C322.0625 168.875 322.0625 168.875 323.5625 171.3125 C323.5 174.4375 323.5 174.4375 322.5625 177.3125 C319.10587669 179.61691554 317.61392119 179.57110135 313.5625 179.3125 C312.9025 178.9825 312.2425 178.6525 311.5625 178.3125 C310.9025 179.9625 310.2425 181.6125 309.5625 183.3125 C310.67625 183.415625 311.79 183.51875 312.9375 183.625 C314.731875 183.9653125 314.731875 183.9653125 316.5625 184.3125 C319.0304265 188.01438975 318.82126118 189.88632872 318.8371582 194.30664062 C318.8448246 195.3680854 318.8448246 195.3680854 318.85264587 196.45097351 C318.86654746 198.79031833 318.86558493 201.12936878 318.86328125 203.46875 C318.86716748 205.09395457 318.871502 206.71915812 318.87626648 208.34436035 C318.8837296 211.75060316 318.88343648 215.15674232 318.87817383 218.56298828 C318.87237475 222.93131936 318.88932005 227.29922705 318.9125185 231.6674881 C318.92723771 235.02348314 318.92813011 238.37937574 318.92500877 241.73539734 C318.92552276 243.34617452 318.930775 244.95695731 318.94082069 246.56770325 C318.953135 248.8182035 318.94642472 251.06787278 318.93481445 253.31835938 C318.93544388 254.59948608 318.9360733 255.88061279 318.9367218 257.20056152 C318.5625 260.3125 318.5625 260.3125 317.22160339 262.23132324 C314.64775941 263.90860285 312.39706229 263.59748588 309.375 263.5 C308.28832031 263.47292969 307.20164062 263.44585937 306.08203125 263.41796875 C304.83486328 263.36576172 304.83486328 263.36576172 303.5625 263.3125 C303.57410156 264.38371094 303.58570313 265.45492188 303.59765625 266.55859375 C303.60703299 267.95572743 303.61613331 269.35286299 303.625 270.75 C303.63337891 271.45705078 303.64175781 272.16410156 303.65039062 272.89257812 C303.65903588 274.69943559 303.61470011 276.50637603 303.5625 278.3125 C301.76205043 280.11294957 299.03326589 279.44956544 296.60571289 279.45776367 C295.33091568 279.46414352 294.05611847 279.47052338 292.74269104 279.47709656 C291.34017983 279.47862511 289.93766811 279.47973914 288.53515625 279.48046875 C287.10648057 279.48367965 285.67780522 279.48704359 284.24913025 279.49055481 C281.25047035 279.49655239 278.2518393 279.49839407 275.25317383 279.49780273 C271.40492051 279.49770109 267.5568516 279.51135297 263.70864201 279.52857494 C260.75674078 279.53967706 257.80488438 279.5417225 254.8529644 279.54119301 C253.43394777 279.54237585 252.01493009 279.54681454 250.59593391 279.55452538 C248.61354051 279.56428854 246.63109334 279.56019253 244.64868164 279.55541992 C242.9544381 279.55755745 242.9544381 279.55755745 241.22596741 279.55973816 C238.5625 279.3125 238.5625 279.3125 236.5625 277.3125 C236.30371094 274.45507812 236.30371094 274.45507812 236.296875 270.84375 C236.29300781 268.90435547 236.29300781 268.90435547 236.2890625 266.92578125 C236.29325195 266.25111816 236.29744141 265.57645508 236.30175781 264.88134766 C236.3124593 262.82033843 236.30186057 260.76020081 236.2890625 258.69921875 C236.29292969 256.75982422 236.29292969 256.75982422 236.296875 254.78125 C236.29913086 253.58951172 236.30138672 252.39777344 236.30371094 251.16992188 C236.5625 248.3125 236.5625 248.3125 238.5625 246.3125 C241.18127441 246.06526184 241.18127441 246.06526184 244.54101562 246.06958008 C245.79571655 246.06650345 247.05041748 246.06342682 248.34313965 246.06025696 C249.71834495 246.06715493 251.09354845 246.07442191 252.46875 246.08203125 C253.87357542 246.08322308 255.27840164 246.08367621 256.68322754 246.0834198 C259.62887554 246.08498504 262.57440208 246.09327756 265.52001953 246.10668945 C269.29982017 246.12367938 273.07948724 246.1275038 276.85932159 246.12674427 C279.76061279 246.12701593 282.66187467 246.13249653 285.56315613 246.13974571 C286.95704425 246.14293262 288.3509357 246.14489984 289.74482727 246.14563942 C291.69122508 246.14780271 293.63761052 246.15733949 295.58398438 246.16723633 C297.24705627 246.17295403 297.24705627 246.17295403 298.94372559 246.17878723 C301.5625 246.3125 301.5625 246.3125 303.5625 247.3125 C303.5625 252.2625 303.5625 257.2125 303.5625 262.3125 C305.33625 262.18875 307.11 262.065 308.9375 261.9375 C309.93523437 261.86789062 310.93296875 261.79828125 311.9609375 261.7265625 C314.71758879 261.54886036 314.71758879 261.54886036 316.5625 259.3125 C316.86354869 256.24934907 316.86354869 256.24934907 316.80541992 252.59960938 C316.80826744 251.56523491 316.80826744 251.56523491 316.81117249 250.50996399 C316.81488415 248.22527785 316.80417063 245.940908 316.79296875 243.65625 C316.79177703 242.07206256 316.79132377 240.4878744 316.7915802 238.90368652 C316.79001465 235.58141668 316.78171971 232.25925448 316.76831055 228.93701172 C316.7513206 224.67294158 316.74749618 220.40898985 316.74825573 216.14488983 C316.74798413 212.87301498 316.7425045 209.60116614 316.73525429 206.32929993 C316.73206633 204.75678199 316.73009992 203.1842611 316.72936058 201.61174011 C316.72719836 199.41623894 316.71845672 197.22086465 316.70776367 195.02539062 C316.70395187 193.77455688 316.70014008 192.52372314 316.69621277 191.23498535 C316.76352372 188.37632561 316.76352372 188.37632561 315.5625 186.3125 C312.9225 186.3125 310.2825 186.3125 307.5625 186.3125 C307.18552979 187.02680176 306.80855957 187.74110352 306.42016602 188.47705078 C290.30191827 218.93707932 290.30191827 218.93707932 284.5625 226.3125 C283.9025 226.3125 283.2425 226.3125 282.5625 226.3125 C283.0575 226.869375 283.5525 227.42625 284.0625 228 C285.86934791 230.7855572 286.13285173 232.05334723 285.5625 235.3125 C283.53830677 238.08639443 282.41064923 239.16769403 279 239.75 C276.5625 239.3125 276.5625 239.3125 274.75 238.25 C272.93260389 235.28477476 273.31558025 232.70764655 273.5625 229.3125 C273.8925 228.6525 274.2225 227.9925 274.5625 227.3125 C273.24330566 226.90874146 273.24330566 226.90874146 271.89746094 226.49682617 C268.7300979 225.37201811 266.09714847 224.05773251 263.203125 222.36328125 C261.67220215 221.47310303 261.67220215 221.47310303 260.11035156 220.56494141 C259.02206055 219.92476074 257.93376953 219.28458008 256.8125 218.625 C255.07530394 217.61167665 253.33810164 216.59836382 251.6005249 215.58569336 C250.40140355 214.88640033 249.20271841 214.18635881 248.00445557 213.4855957 C243.86968441 211.06826367 239.72061079 208.67776435 235.5625 206.30078125 C225.56016634 200.58024394 215.62631004 194.85194498 205.9921875 188.52734375 C182.62264488 173.2836177 157.8683921 159.98150773 133.5625 146.3125 C134.15901306 143.28983297 134.78919667 140.29524142 135.5625 137.3125 C133.9125 136.9825 132.2625 136.6525 130.5625 136.3125 C130.5625 137.9625 130.5625 139.6125 130.5625 141.3125 C131.2225 141.3125 131.8825 141.3125 132.5625 141.3125 C132.5625 142.3025 132.5625 143.2925 132.5625 144.3125 C128.53458552 143.6345342 125.2830184 141.59819075 121.8125 139.5625 C121.19358887 139.20414063 120.57467773 138.84578125 119.93701172 138.4765625 C115.41873662 135.84809171 110.9654758 133.13040451 106.5625 130.3125 C106.459375 131.26125 106.35625 132.21 106.25 133.1875 C105.5625 136.3125 105.5625 136.3125 102.5625 138.3125 C99.76726326 138.66190459 98.1976646 138.68483787 95.75 137.25 C93.89213377 134.21874457 94.19116735 131.77827141 94.5625 128.3125 C95.5525 127.3225 96.5425 126.3325 97.5625 125.3125 C86.6725 125.3125 75.7825 125.3125 64.5625 125.3125 C64.8925 124.6525 65.2225 123.9925 65.5625 123.3125 C77.4425 122.8175 77.4425 122.8175 89.5625 122.3125 C82.55909503 120.48898294 82.55909503 120.48898294 75.55541992 118.66650391 C70.96545797 117.47040492 66.37740684 116.26971079 61.80078125 115.0234375 C60.77416382 114.7445166 60.77416382 114.7445166 59.72680664 114.45996094 C57.92639958 113.96858597 56.12721856 113.47272507 54.328125 112.9765625 C51.55035763 112.19576158 51.55035763 112.19576158 48.5625 112.3125 C48.81 113.22 49.0575 114.1275 49.3125 115.0625 C49.5625 118.3125 49.5625 118.3125 47.9375 120.6875 C45.13705503 122.60359393 43.8850955 122.90886329 40.5625 122.3125 C38.75 121.1875 38.75 121.1875 37.5625 119.3125 C37.30984595 116.21748792 37.16314987 114.11120027 38.5625 111.3125 C31.6325 114.7775 31.6325 114.7775 24.5625 118.3125 C24.789375 119.570625 25.01625 120.82875 25.25 122.125 C25.71128398 126.01493205 25.71128398 126.01493205 24.5625 128.3125 C21.46258095 129.86245952 18.95950537 129.6830824 15.5625 129.3125 C13.26845156 125.87142734 13.29956944 124.34410191 13.5625 120.3125 C13.8925 119.9825 14.2225 119.6525 14.5625 119.3125 C9.01118633 118.12745273 3.45761942 116.95446379 -2.10009766 115.79980469 C-3.98850547 115.40610696 -5.87536547 115.00498941 -7.76171875 114.6015625 C-18.25831883 112.48691898 -27.97328186 113.28370673 -38.4375 115.25 C-39.45972656 115.43240234 -40.48195312 115.61480469 -41.53515625 115.80273438 C-47.05123878 116.79567126 -47.05123878 116.79567126 -52.4375 118.3125 C-52.39625 119.42625 -52.355 120.54 -52.3125 121.6875 C-52.4375 125.3125 -52.4375 125.3125 -54.4375 127.3125 C-60.53333333 127.86666667 -60.53333333 127.86666667 -63.375 126.125 C-64.90017639 123.52322852 -65.07427123 122.28409908 -64.4375 119.3125 C-62.58275625 117.33948273 -60.64405596 115.92144706 -58.4375 114.3125 C-59.0975 113.3225 -59.7575 112.3325 -60.4375 111.3125 C-60.97782731 109.00937967 -61.43244288 106.68577804 -61.83984375 104.35546875 C-61.96225937 103.66366013 -62.08467499 102.9718515 -62.21080017 102.25907898 C-62.6065441 100.0073144 -62.99122306 97.7538325 -63.375 95.5 C-63.64259389 93.95781954 -63.91033528 92.41566466 -64.17822266 90.87353516 C-66.21364553 79.05651546 -67.97226482 67.21432259 -69.4375 55.3125 C-70.03304687 55.81136719 -70.62859375 56.31023437 -71.2421875 56.82421875 C-73.4375 58.3125 -73.4375 58.3125 -76.5625 58.125 C-79.4375 57.3125 -79.4375 57.3125 -81.4375 55.3125 C-81.6875 51.8125 -81.6875 51.8125 -81.4375 48.3125 C-79.4375 46.3125 -79.4375 46.3125 -76.0625 46.0625 C-72.69688879 46.29461112 -71.27586137 46.73702188 -68.4375 48.3125 C-60.09047279 43.19900586 -53.09365417 37.5034507 -46.0546875 30.75390625 C-43.4375 28.3125 -43.4375 28.3125 -41.4375 27.3125 C-42.448125 26.61125 -43.45875 25.91 -44.5 25.1875 C-46.16015625 23.81640625 -46.16015625 23.81640625 -47.4375 22.3125 C-47.4375 18.52943288 -47.12365656 16.99865656 -44.4375 14.3125 C-41 13.9375 -41 13.9375 -37.4375 14.3125 C-35.10619281 16.56609695 -34.46678092 18.22465725 -33.4375 21.3125 C-29.5383689 20.05163602 -25.64384872 18.77707502 -21.75 17.5 C-20.64720703 17.14357422 -19.54441406 16.78714844 -18.40820312 16.41992188 C-17.34150391 16.06865234 -16.27480469 15.71738281 -15.17578125 15.35546875 C-14.19649658 15.03602295 -13.21721191 14.71657715 -12.20825195 14.38745117 C-9.39004805 13.29409037 -6.97835126 11.94083485 -4.4375 10.3125 C-4.9325 9.8175 -4.9325 9.8175 -5.4375 9.3125 C-5.625 5.875 -5.625 5.875 -5.4375 2.3125 C-3.4375 0.3125 -3.4375 0.3125 0 0 Z " fill="#212329" transform="translate(98.4375,9.6875)"/>
<path d="M0 0 C4.15014154 0.71445475 7.6500814 2.77812608 11.3125 4.75 C12.05250244 5.14485596 12.79250488 5.53971191 13.55493164 5.9465332 C20.72196488 9.79788334 27.79019569 13.82147642 34.85693359 17.85302734 C41.07310569 21.38639834 47.34195268 24.79689665 53.66210938 28.14038086 C66.53508252 34.95779843 78.91921757 42.33937099 91.18115234 50.19824219 C93.97263023 51.98250572 96.77488687 53.74831765 99.58203125 55.5078125 C101.30470544 56.58851307 103.02736261 57.66924077 104.75 58.75 C105.53044678 59.23936035 106.31089355 59.7287207 107.11499023 60.23291016 C110.50924091 62.37420872 113.84575348 64.50980538 117 67 C115.33274085 73.05906376 112.27559133 78.28917662 109.25 83.75 C108.73695313 84.6884375 108.22390625 85.626875 107.6953125 86.59375 C103.69745434 93.86623569 99.60533038 101.09200443 95 108 C91.21025669 106.57343605 87.74073221 104.84224358 84.203125 102.875 C83.08808594 102.2560083 81.97304688 101.6370166 80.82421875 100.99926758 C79.63263763 100.33315777 78.44123504 99.66672852 77.25 99 C76.64430176 98.66197357 76.03860352 98.32394714 75.41455078 97.97567749 C61.51862689 90.21933807 47.84828677 82.21560712 34.42456055 73.66674805 C25.6982308 68.13184209 16.80091663 62.89745462 7.87988281 57.68408203 C4.96653173 55.98042861 2.05725451 54.26997513 -0.8515625 52.55859375 C-12.07372974 45.96964302 -23.36872188 39.53115055 -34.74047852 33.20410156 C-46.96991061 26.37900009 -58.99816982 19.21597641 -71 12 C-70.67 10.68 -70.34 9.36 -70 8 C-58.42099958 10.35505093 -48.35843053 15.87973981 -38.21875 21.74609375 C-37.42154541 22.20363037 -36.62434082 22.66116699 -35.80297852 23.13256836 C-34.26115758 24.02386148 -32.72725245 24.92903515 -31.20288086 25.84985352 C-26.70521121 28.45894231 -23.33713303 29.98332633 -18 29 C-13.94615484 25.29639514 -11.58896049 19.86776757 -9 15.0625 C-6.19490854 9.88158108 -3.35904348 4.84417613 0 0 Z " fill="#F3F3FD" transform="translate(281,118)"/>
<path d="M0 0 C12.82930395 5.85329407 24.90995363 12.54776934 36.234375 20.96484375 C35.574375 22.94484375 34.914375 24.92484375 34.234375 26.96484375 C33.244375 26.30484375 32.254375 25.64484375 31.234375 24.96484375 C27.59497568 25.28214899 27.59497568 25.28214899 24.234375 25.96484375 C23.54944127 28.82262408 23.54944127 28.82262408 23.234375 31.96484375 C23.894375 32.95484375 24.554375 33.94484375 25.234375 34.96484375 C29.28883142 35.3961689 30.78408458 35.26503736 34.234375 32.96484375 C35.224375 34.94484375 35.224375 34.94484375 36.234375 36.96484375 C35.265 37.27421875 34.295625 37.58359375 33.296875 37.90234375 C30.39371708 38.66007717 30.39371708 38.66007717 29.234375 39.96484375 C28.98432114 42.92301482 28.98432114 42.92301482 29.234375 45.96484375 C31.18653935 47.9170081 32.76637453 48.8131102 35.234375 49.96484375 C34.69695679 50.74347778 34.69695679 50.74347778 34.14868164 51.5378418 C32.52286687 53.90359888 30.90981325 56.27779107 29.296875 58.65234375 C28.73291016 59.46896484 28.16894531 60.28558594 27.58789062 61.12695312 C27.04970703 61.92294922 26.51152344 62.71894531 25.95703125 63.5390625 C25.21078491 64.63093872 25.21078491 64.63093872 24.44946289 65.74487305 C23.09309032 67.94284541 23.09309032 67.94284541 22.76269531 70.61303711 C22.234375 72.96484375 22.234375 72.96484375 19.05859375 75.01953125 C17.69301039 75.65571942 16.3127649 76.2610704 14.921875 76.83984375 C14.18984863 77.14575439 13.45782227 77.45166504 12.70361328 77.7668457 C6.07164288 80.34110692 1.20574474 80.38976108 -5.765625 78.96484375 C-7.59555215 78.65537584 -9.42637613 78.35118863 -11.2578125 78.05078125 C-15.17102706 77.39027051 -19.08188478 76.7214026 -22.984375 76 C-23.80873047 75.84926025 -24.63308594 75.69852051 -25.48242188 75.54321289 C-27.79627179 74.95708046 -29.67957004 74.11175485 -31.765625 72.96484375 C-30.775625 71.47984375 -30.775625 71.47984375 -29.765625 69.96484375 C-30.0897619 66.64244051 -30.37338803 65.35708072 -32.765625 62.96484375 C-35.59948667 62.60152815 -37.17084651 62.60797665 -39.640625 64.08984375 C-41.05875687 66.04075208 -41.05875687 66.04075208 -40.515625 69.02734375 C-39.89940276 71.87399396 -39.89940276 71.87399396 -38.765625 73.96484375 C-47.07686551 75.72682674 -55.26992668 77.38513728 -63.765625 77.96484375 C-65.55105566 73.11723106 -66.4844589 68.39059282 -67.2734375 63.3125 C-67.40378387 62.49414169 -67.53413025 61.67578339 -67.66842651 60.83262634 C-67.94147745 59.10927596 -68.21194962 57.38551523 -68.47998047 55.66137695 C-68.88897614 53.03792017 -69.30915997 50.41642605 -69.73046875 47.79492188 C-69.99546764 46.11338764 -70.2598123 44.43175015 -70.5234375 42.75 C-70.64840607 41.97374771 -70.77337463 41.19749542 -70.90213013 40.39772034 C-71.59414809 35.88715745 -72.0402437 31.54316116 -71.765625 26.96484375 C-70.0703125 25.20703125 -70.0703125 25.20703125 -67.640625 23.83984375 C-62.05651076 20.35770433 -57.58031449 16.20689929 -52.94091797 11.58349609 C-47.12425098 5.94907455 -40.97338953 3.10471321 -33.203125 0.90234375 C-29.6606661 -0.12900504 -26.32019006 -1.14442814 -23.015625 -2.78515625 C-14.66279276 -5.99778403 -7.94482185 -3.47255818 0 0 Z " fill="#FDFDFD" transform="translate(112.765625,37.03515625)"/>
<path d="M0 0 C5.05175058 2.0240274 9.73180046 4.61776714 14.49609375 7.23828125 C15.54861328 7.81288086 16.60113281 8.38748047 17.68554688 8.97949219 C27.83904105 14.54060393 37.91612748 20.23563037 47.97851562 25.95947266 C51.75019765 28.10299293 55.52824368 30.23509432 59.30859375 32.36328125 C59.95723389 32.72929443 60.60587402 33.09530762 61.27416992 33.47241211 C64.78082969 35.44613581 68.31326734 37.35887982 71.87109375 39.23828125 C78.56350099 42.86873764 84.92684708 47.02723101 91.34375 51.1171875 C97.69858406 55.1633774 104.11229821 59.11339344 110.52880859 63.06079102 C114.92791742 65.77302032 119.2821489 68.5236588 123.55859375 71.42578125 C123.04400272 75.19944881 122.2943137 78.06282385 120.55859375 81.42578125 C120.18191031 83.0831884 119.8380183 84.74923396 119.55859375 86.42578125 C118.56859375 86.42578125 117.57859375 86.42578125 116.55859375 86.42578125 C116.27717529 87.15321533 115.99575684 87.88064941 115.70581055 88.63012695 C113.87184306 93.09932502 111.60535661 97.33341328 109.37109375 101.61328125 C108.8814917 102.55131592 108.39188965 103.48935059 107.88745117 104.45581055 C104.52850809 110.80207602 101.01841863 116.77869923 96.55859375 122.42578125 C89.16021682 122.18269172 83.60559128 118.47613507 77.30859375 114.86328125 C76.11476354 114.18770737 74.92058352 113.51275133 73.72607422 112.83837891 C55.29902138 102.39690333 37.15304769 91.48260981 19.171875 80.29296875 C8.79376983 73.83595031 -1.72895327 67.6651923 -12.34378052 61.60604858 C-14.18176635 60.55628706 -16.01859241 59.50452023 -17.85522461 58.45239258 C-23.34687017 55.30993278 -28.84741812 52.19011569 -34.40234375 49.16015625 C-35.28438477 48.67144043 -36.16642578 48.18272461 -37.07519531 47.67919922 C-38.68597211 46.7879364 -40.30473668 45.91089524 -41.93261719 45.05126953 C-45.62128088 42.99163949 -47.14279558 42.08710226 -48.93359375 38.12109375 C-49.10117188 37.23164063 -49.26875 36.3421875 -49.44140625 35.42578125 C-50.76140625 35.42578125 -52.08140625 35.42578125 -53.44140625 35.42578125 C-53.44140625 37.07578125 -53.44140625 38.72578125 -53.44140625 40.42578125 C-52.78140625 40.42578125 -52.12140625 40.42578125 -51.44140625 40.42578125 C-51.44140625 41.41578125 -51.44140625 42.40578125 -51.44140625 43.42578125 C-55.46932073 42.74781545 -58.72088785 40.711472 -62.19140625 38.67578125 C-62.81031738 38.31742188 -63.42922852 37.9590625 -64.06689453 37.58984375 C-68.58516963 34.96137296 -73.03843045 32.24368576 -77.44140625 29.42578125 C-77.54453125 30.37453125 -77.64765625 31.32328125 -77.75390625 32.30078125 C-78.44140625 35.42578125 -78.44140625 35.42578125 -81.44140625 37.42578125 C-84.23664299 37.77518584 -85.80624165 37.79811912 -88.25390625 36.36328125 C-90.11177248 33.33202582 -89.8127389 30.89155266 -89.44140625 27.42578125 C-88.45140625 26.43578125 -87.46140625 25.44578125 -86.44140625 24.42578125 C-97.33140625 24.42578125 -108.22140625 24.42578125 -119.44140625 24.42578125 C-119.11140625 23.76578125 -118.78140625 23.10578125 -118.44140625 22.42578125 C-107.22140625 22.09578125 -96.00140625 21.76578125 -84.44140625 21.42578125 C-89.77540229 19.91242688 -95.10970348 18.40024102 -100.44482422 16.89086914 C-102.2545811 16.37850686 -104.06415611 15.86550164 -105.87353516 15.35180664 C-132.78973648 7.12984723 -132.78973648 7.12984723 -159.71875 12.11328125 C-163.44140625 13.42578125 -163.44140625 13.42578125 -167.44140625 13.42578125 C-167.44140625 12.76578125 -167.44140625 12.10578125 -167.44140625 11.42578125 C-166.60738281 11.17183594 -165.77335937 10.91789062 -164.9140625 10.65625 C-163.78871094 10.31207031 -162.66335937 9.96789062 -161.50390625 9.61328125 C-160.31410156 9.25105469 -159.12429687 8.88882813 -157.8984375 8.515625 C-155.12434713 7.64108126 -152.41636042 6.68735393 -149.69140625 5.67578125 C-141.95830166 3.11695706 -134.93171195 4.52666713 -127.31640625 6.80078125 C-121.55811291 8.42768673 -116.03709198 9.73859497 -110.06640625 10.36328125 C-102.60043001 11.17923494 -95.6494346 13.22814884 -88.49658203 15.48217773 C-87.63919434 15.74587158 -86.78180664 16.00956543 -85.8984375 16.28125 C-84.75338745 16.64706177 -84.75338745 16.64706177 -83.58520508 17.02026367 C-81.12651609 17.48534537 -79.74893092 17.38737808 -77.44140625 16.42578125 C-75.6576121 13.44225231 -75.6576121 13.44225231 -74.44140625 10.42578125 C-55.17022357 9.88101283 -38.40463474 21.95132271 -22.44140625 31.42578125 C-22.13203125 30.14703125 -21.82265625 28.86828125 -21.50390625 27.55078125 C-20.96535381 25.3247645 -20.46770625 23.47838126 -19.44140625 21.42578125 C-18.78140625 21.42578125 -18.12140625 21.42578125 -17.44140625 21.42578125 C-17.31958984 20.39904297 -17.31958984 20.39904297 -17.1953125 19.3515625 C-16.24514528 15.66412597 -14.42043609 12.77606583 -12.37890625 9.61328125 C-11.81333008 8.71706055 -11.81333008 8.71706055 -11.23632812 7.80273438 C-10.31151059 6.33941548 -9.3773856 4.88198602 -8.44140625 3.42578125 C-6.46140625 3.75578125 -4.48140625 4.08578125 -2.44140625 4.42578125 C-2.44140625 3.76578125 -2.44140625 3.10578125 -2.44140625 2.42578125 C-3.10140625 2.42578125 -3.76140625 2.42578125 -4.44140625 2.42578125 C-4.44140625 1.76578125 -4.44140625 1.10578125 -4.44140625 0.42578125 C-2.44140625 -0.57421875 -2.44140625 -0.57421875 0 0 Z M-1.44140625 7.42578125 C-2.79657765 9.6751814 -4.15072486 11.92518409 -5.50390625 14.17578125 C-5.9100415 14.85084717 -6.31617676 15.52591309 -6.73461914 16.22143555 C-9.89712017 21.48979167 -12.98490644 26.79630996 -16.03125 32.1328125 C-17.44140625 34.42578125 -17.44140625 34.42578125 -19.44140625 36.42578125 C-24.7841972 36.94700956 -27.89704521 36.07377971 -32.46875 33.35546875 C-33.58378906 32.70835937 -34.69882813 32.06125 -35.84765625 31.39453125 C-36.42515625 31.05164063 -37.00265625 30.70875 -37.59765625 30.35546875 C-52.81540484 21.29546154 -52.81540484 21.29546154 -69.44140625 15.42578125 C-70.43140625 15.75578125 -71.42140625 16.08578125 -72.44140625 16.42578125 C-72.44140625 17.41578125 -72.44140625 18.40578125 -72.44140625 19.42578125 C-70.07323318 21.06146566 -67.76169137 22.46982139 -65.25390625 23.86328125 C-64.49070068 24.29938721 -63.72749512 24.73549316 -62.94116211 25.18481445 C-61.29359898 26.12478418 -59.64316808 27.0597412 -57.99023438 27.99023438 C-55.50418685 29.39042206 -53.02624985 30.8038625 -50.55078125 32.22265625 C-47.09115722 34.20514504 -43.62863395 36.18242043 -40.1640625 38.15625 C-32.801068 42.35651245 -25.46370224 46.60110378 -18.12451172 50.84277344 C-12.03062502 54.36247934 -5.92641258 57.86277304 0.19189453 61.33984375 C10.14712079 67.00055196 19.95830082 72.8125055 29.5859375 79.01953125 C41.97638118 86.97701024 54.68276853 94.30389614 67.49641418 101.54873657 C71.18182987 103.6355008 74.84895029 105.75100209 78.50390625 107.890625 C79.38820313 108.40810303 80.2725 108.92558105 81.18359375 109.45874023 C82.80795488 110.411942 84.43046325 111.36831067 86.05078125 112.32836914 C89.56796995 114.61399156 89.56796995 114.61399156 93.55859375 115.42578125 C100.29557108 106.86215993 105.19191612 96.350658 110.30224609 86.76806641 C111.13003585 85.22476774 111.97898238 83.69260441 112.85009766 82.17333984 C114.17692322 79.85606517 114.17692322 79.85606517 115.55859375 76.42578125 C114.45337444 72.97355067 112.77661746 71.62565138 109.69140625 69.8671875 C108.89895508 69.40578369 108.10650391 68.94437988 107.29003906 68.46899414 C106.42991211 67.98035889 105.56978516 67.49172363 104.68359375 66.98828125 C97.57637493 62.85262614 90.64528835 58.55598691 83.80859375 53.98828125 C74.71112077 47.97034018 65.26005148 42.78977183 55.6328125 37.67578125 C49.71402082 34.52968019 43.88090448 31.24624756 38.05859375 27.92578125 C29.86798391 23.27102398 21.64227272 18.68597123 13.37109375 14.17578125 C12.34886719 13.61439453 11.32664062 13.05300781 10.2734375 12.47460938 C9.32210937 11.95833984 8.37078125 11.44207031 7.390625 10.91015625 C6.13342651 10.22518066 6.13342651 10.22518066 4.85083008 9.52636719 C2.74099887 8.51336058 0.84436927 7.88983805 -1.44140625 7.42578125 Z " fill="#251A22" transform="translate(282.44140625,110.57421875)"/>
<path d="M0 0 C1.48199902 0.44909061 2.96055236 0.90956564 4.4375 1.375 C5.26121094 1.63023437 6.08492188 1.88546875 6.93359375 2.1484375 C9 3 9 3 10 5 C10.10757913 7.29164352 10.14892695 9.58648047 10.16113281 11.88061523 C10.16858017 12.94184097 10.16858017 12.94184097 10.17617798 14.02450562 C10.19080532 16.36921148 10.19760199 18.71384972 10.203125 21.05859375 C10.20887533 22.68522647 10.21463308 24.31185916 10.22039795 25.93849182 C10.23090911 29.35068071 10.23675123 32.76284602 10.24023438 36.17504883 C10.24572391 40.55122715 10.26976104 44.92709507 10.29820633 49.30317593 C10.31681138 52.66344622 10.32203713 56.02364136 10.32357025 59.38395882 C10.3266014 60.99753583 10.33464548 62.61111138 10.34775543 64.22463799 C10.36477433 66.47999728 10.36294649 68.73459313 10.35644531 70.98999023 C10.36191376 72.91620461 10.36191376 72.91620461 10.36749268 74.8813324 C10 78 10 78 8.66009521 79.91981506 C6.08526956 81.5951936 3.83453059 81.28498486 0.8125 81.1875 C-0.27417969 81.16042969 -1.36085938 81.13335937 -2.48046875 81.10546875 C-3.72763672 81.05326172 -3.72763672 81.05326172 -5 81 C-4.98839844 82.07121094 -4.97679687 83.14242187 -4.96484375 84.24609375 C-4.95546701 85.64322743 -4.94636669 87.04036299 -4.9375 88.4375 C-4.92912109 89.14455078 -4.92074219 89.85160156 -4.91210938 90.58007812 C-4.90346412 92.38693559 -4.94779989 94.19387603 -5 96 C-6.80044957 97.80044957 -9.52923411 97.13706544 -11.95678711 97.14526367 C-13.23158432 97.15164352 -14.50638153 97.15802338 -15.81980896 97.16459656 C-17.22232017 97.16612511 -18.62483189 97.16723914 -20.02734375 97.16796875 C-21.45601943 97.17117965 -22.88469478 97.17454359 -24.31336975 97.17805481 C-27.31202965 97.18405239 -30.3106607 97.18589407 -33.30932617 97.18530273 C-37.15757949 97.18520109 -41.0056484 97.19885297 -44.85385799 97.21607494 C-47.80575922 97.22717706 -50.75761562 97.2292225 -53.7095356 97.22869301 C-55.12855223 97.22987585 -56.54756991 97.23431454 -57.96656609 97.24202538 C-59.94895949 97.25178854 -61.93140666 97.24769253 -63.91381836 97.24291992 C-65.6080619 97.24505745 -65.6080619 97.24505745 -67.33653259 97.24723816 C-70 97 -70 97 -72 95 C-72.25878906 92.14257812 -72.25878906 92.14257812 -72.265625 88.53125 C-72.26820313 87.23832031 -72.27078125 85.94539063 -72.2734375 84.61328125 C-72.26924805 83.93861816 -72.26505859 83.26395508 -72.26074219 82.56884766 C-72.2500407 80.50783843 -72.26063943 78.44770081 -72.2734375 76.38671875 C-72.27085937 75.09378906 -72.26828125 73.80085938 -72.265625 72.46875 C-72.26336914 71.27701172 -72.26111328 70.08527344 -72.25878906 68.85742188 C-72 66 -72 66 -70 64 C-67.38122559 63.75276184 -67.38122559 63.75276184 -64.02148438 63.75708008 C-62.76678345 63.75400345 -61.51208252 63.75092682 -60.21936035 63.74775696 C-58.84415505 63.75465493 -57.46895155 63.76192191 -56.09375 63.76953125 C-54.68892458 63.77072308 -53.28409836 63.77117621 -51.87927246 63.7709198 C-48.93362446 63.77248504 -45.98809792 63.78077756 -43.04248047 63.79418945 C-39.26267983 63.81117938 -35.48301276 63.8150038 -31.70317841 63.81424427 C-28.80188721 63.81451593 -25.90062533 63.81999653 -22.99934387 63.82724571 C-21.60545575 63.83043262 -20.2115643 63.83239984 -18.81767273 63.83313942 C-16.87127492 63.83530271 -14.92488948 63.84483949 -12.97851562 63.85473633 C-11.31544373 63.86045403 -11.31544373 63.86045403 -9.61877441 63.86628723 C-7 64 -7 64 -5 65 C-5 69.95 -5 74.9 -5 80 C-3.22625 79.87625 -1.4525 79.7525 0.375 79.625 C1.37273437 79.55539062 2.37046875 79.48578125 3.3984375 79.4140625 C6.15508879 79.23636036 6.15508879 79.23636036 8 77 C8.30104869 73.93684907 8.30104869 73.93684907 8.24291992 70.28710938 C8.24576744 69.25273491 8.24576744 69.25273491 8.24867249 68.19746399 C8.25238415 65.91277785 8.24167063 63.628408 8.23046875 61.34375 C8.22927703 59.75956256 8.22882377 58.1753744 8.2290802 56.59118652 C8.22751465 53.26891668 8.21921971 49.94675448 8.20581055 46.62451172 C8.1888206 42.36044158 8.18499618 38.09648985 8.18575573 33.83238983 C8.18548413 30.56051498 8.1800045 27.28866614 8.17275429 24.01679993 C8.16956633 22.44428199 8.16759992 20.8717611 8.16686058 19.29924011 C8.16469836 17.10373894 8.15595672 14.90836465 8.14526367 12.71289062 C8.14145187 11.46205688 8.13764008 10.21122314 8.13371277 8.92248535 C8.20102372 6.06382561 8.20102372 6.06382561 7 4 C5.10466658 3.53476937 5.10466658 3.53476937 2.9375 3.375 C1.638125 3.25125 0.33875 3.1275 -1 3 C-0.67 2.01 -0.34 1.02 0 0 Z " fill="#26C317" transform="translate(407,192)"/>
<path d="M0 0 C2.375 1.625 2.375 1.625 4 4 C3.81623488 7.06275204 3.36973455 9.2605309 2 12 C2.83402344 12.24492188 3.66804688 12.48984375 4.52734375 12.7421875 C8.45239357 14.16385909 11.95318739 16.05967112 15.5625 18.125 C17.15712993 19.02418656 18.75221588 19.9225647 20.34765625 20.8203125 C21.23469238 21.32079102 22.12172852 21.82126953 23.03564453 22.33691406 C28.2079068 25.23869718 33.40587196 28.09396034 38.60116577 30.95422363 C41.75081416 32.68888156 44.89876067 34.42662258 48.046875 36.1640625 C52.11859858 38.41102574 56.19146963 40.65588626 60.265625 42.8984375 C73.87742069 50.40457206 87.31109982 58.12638015 100.30664062 66.66357422 C104.40965396 69.35178809 108.54882456 71.96377035 112.73828125 74.515625 C113.70540039 75.10561279 114.67251953 75.69560059 115.66894531 76.3034668 C117.57477203 77.46204607 119.48420665 78.61471436 121.39746094 79.76098633 C122.25758789 80.2845874 123.11771484 80.80818848 124.00390625 81.34765625 C124.77549072 81.81179932 125.5470752 82.27594238 126.34204102 82.75415039 C126.88916748 83.16528076 127.43629395 83.57641113 128 84 C128 84.66 128 85.32 128 86 C128.66 86 129.32 86 130 86 C130 85.34 130 84.68 130 84 C133.25 83.25 133.25 83.25 137 83 C139.5 84.5625 139.5 84.5625 141 87 C140.9375 90.125 140.9375 90.125 140 93 C136.54337669 95.30441554 135.05142119 95.25860135 131 95 C130.34 94.67 129.68 94.34 129 94 C128.68361572 94.61294922 128.36723145 95.22589844 128.04125977 95.85742188 C107.61515206 135.37227953 107.61515206 135.37227953 102 142 C101.34 142 100.68 142 100 142 C100.495 142.556875 100.99 143.11375 101.5 143.6875 C103.30684791 146.4730572 103.57035173 147.74084723 103 151 C100.97580677 153.77389443 99.84814923 154.85519403 96.4375 155.4375 C94 155 94 155 92.1875 153.9375 C90.37010389 150.97227476 90.75308025 148.39514655 91 145 C91.33 144.34 91.66 143.68 92 143 C90.68080566 142.59624146 90.68080566 142.59624146 89.33496094 142.18432617 C86.1675979 141.05951811 83.53464847 139.74523251 80.640625 138.05078125 C79.62000977 137.4573291 78.59939453 136.86387695 77.54785156 136.25244141 C76.45956055 135.61226074 75.37126953 134.97208008 74.25 134.3125 C72.51280394 133.29917665 70.77560164 132.28586382 69.0380249 131.27319336 C67.83890355 130.57390033 66.64021841 129.87385881 65.44195557 129.1730957 C61.30718441 126.75576367 57.15811079 124.36526435 53 121.98828125 C42.99766634 116.26774394 33.06381004 110.53944498 23.4296875 104.21484375 C0.06014488 88.9711177 -24.6941079 75.66900773 -49 62 C-48.625 59.5625 -48.625 59.5625 -48 57 C-47.01 56.505 -47.01 56.505 -46 56 C-46 56.66 -46 57.32 -46 58 C-45.28046143 58.27295898 -44.56092285 58.54591797 -43.81958008 58.82714844 C-41.0466198 59.98060771 -38.5052063 61.29738687 -35.88671875 62.765625 C-34.89849121 63.31863281 -33.91026367 63.87164062 -32.89208984 64.44140625 C-31.30581787 65.33666016 -31.30581787 65.33666016 -29.6875 66.25 C-28.58100098 66.87261719 -27.47450195 67.49523437 -26.33447266 68.13671875 C-4.99074614 80.18251813 16.18296402 92.56208914 36.86474609 105.71777344 C47.66172779 112.57254082 58.80077124 118.84360503 69.93386841 125.13113403 C73.51017063 127.15162504 77.073557 129.19289805 80.62890625 131.25 C82.2315515 132.16705009 83.83439822 133.08374821 85.4375 134 C86.14567871 134.41507813 86.85385742 134.83015625 87.58349609 135.2578125 C92.52304725 138.13528971 92.52304725 138.13528971 98 138 C99.97535682 135.88739627 99.97535682 135.88739627 101.5625 132.875 C101.88694092 132.32038086 102.21138184 131.76576172 102.5456543 131.19433594 C104.81138225 127.26922356 106.93614944 123.26697353 109.078125 119.2734375 C109.61236084 118.28102051 110.14659668 117.28860352 110.69702148 116.26611328 C111.76739484 114.26771636 112.82697078 112.26349566 113.87524414 110.25341797 C114.61182251 108.86727295 114.61182251 108.86727295 115.36328125 107.453125 C115.79938721 106.61942383 116.23549316 105.78572266 116.68481445 104.92675781 C118 103 118 103 121 102 C121.12375 100.906875 121.2475 99.81375 121.375 98.6875 C122 95 122 95 124 92 C124 90.68 124 89.36 124 88 C122.41954788 86.51005563 122.41954788 86.51005563 120.22265625 85.37109375 C119.40764648 84.89913574 118.59263672 84.42717773 117.75292969 83.94091797 C116.42116699 83.19672607 116.42116699 83.19672607 115.0625 82.4375 C113.21337436 81.36842292 111.36574063 80.29676163 109.51953125 79.22265625 C108.58834473 78.68398926 107.6571582 78.14532227 106.69775391 77.59033203 C102.80712531 75.29679767 99.02457272 72.85347915 95.25 70.375 C93.86611183 69.47230905 92.48199862 68.569963 91.09765625 67.66796875 C90.42234863 67.22759277 89.74704102 66.7872168 89.05126953 66.33349609 C80.40641398 60.71361975 71.84000504 55.26380457 62.53515625 50.79296875 C57.72369353 48.35267992 53.05956494 45.67414025 48.375 43 C36.62369776 36.29956804 24.73375376 29.87303207 12.79394531 23.515625 C9.46182261 21.70805616 6.1884293 19.80746695 2.93310547 17.86523438 C0.74448865 16.72764475 0.74448865 16.72764475 -3 17 C-3 17.66 -3 18.32 -3 19 C-2.34 19 -1.68 19 -1 19 C-1 19.66 -1 20.32 -1 21 C-2.98 20.67 -4.96 20.34 -7 20 C-7.2475 20.721875 -7.495 21.44375 -7.75 22.1875 C-9.10983674 25.24713266 -10.82917754 27.4673738 -13 30 C-13.66 29.67 -14.32 29.34 -15 29 C-13.62201874 25.12355776 -11.80760274 22.12103994 -9.375 18.8125 C-6.81284275 15.70893901 -6.81284275 15.70893901 -6 12 C-6.66 11.01 -7.32 10.02 -8 9 C-8.32855599 5.84586249 -8.53501881 3.84476654 -6.8125 1.125 C-4.30201593 -0.43323149 -2.90697947 -0.49631357 0 0 Z " fill="#1F1B24" transform="translate(281,94)"/>
<path d="M0 0 C1.60487828 3.20975655 0.82448599 6.63346002 0.5625 10.125 C0.4617746 11.5297577 0.36145882 12.93454482 0.26147461 14.33935547 C0.17518799 15.54736816 0.08890137 16.75538086 0 18 C1.44620728 17.99214478 1.44620728 17.99214478 2.92163086 17.98413086 C6.48672564 17.96607882 10.05181636 17.95456726 13.61694336 17.94506836 C15.16219766 17.9400286 16.70744716 17.9331968 18.25268555 17.92456055 C20.46925029 17.91247924 22.68575218 17.90676827 24.90234375 17.90234375 C25.5971434 17.89718246 26.29194305 17.89202118 27.00779724 17.88670349 C28.6722933 17.88650723 30.33665499 17.93810871 32 18 C33.88319268 19.88319268 33.13054285 23.11930137 33.1328125 25.625 C33.13376923 26.28709473 33.13472595 26.94918945 33.13571167 27.63134766 C33.13639326 29.03352961 33.13454042 30.4357147 33.13037109 31.83789062 C33.12502246 33.99095713 33.1303167 36.14381502 33.13671875 38.296875 C33.13605796 39.65625046 33.13477679 41.0156258 33.1328125 42.375 C33.13168457 43.62023437 33.13055664 44.86546875 33.12939453 46.1484375 C33 49 33 49 32 50 C29.98049791 50.09935148 27.95749085 50.12799508 25.93554688 50.12939453 C23.98847839 50.13412277 23.98847839 50.13412277 22.0020752 50.13894653 C20.57429979 50.13715675 19.14652469 50.1351058 17.71875 50.1328125 C16.26525862 50.13348558 14.81176736 50.13445564 13.35827637 50.13571167 C10.30833873 50.13718846 7.25843034 50.1350347 4.20849609 50.13037109 C0.29069441 50.1246738 -3.62703878 50.12795291 -7.54483795 50.13394356 C-10.54730754 50.13754969 -13.54976077 50.13641035 -16.55223083 50.13381577 C-17.99718738 50.13314664 -19.44214539 50.13397442 -20.88710022 50.13629532 C-22.90324883 50.13882265 -24.91940262 50.13429052 -26.93554688 50.12939453 C-28.65976868 50.12820114 -28.65976868 50.12820114 -30.41882324 50.12698364 C-33 50 -33 50 -34 49 C-34.10012401 46.79349344 -34.1308118 44.58377614 -34.1328125 42.375 C-34.13376923 41.71290527 -34.13472595 41.05081055 -34.13571167 40.36865234 C-34.13639326 38.96647039 -34.13454042 37.5642853 -34.13037109 36.16210938 C-34.12502246 34.00904287 -34.1303167 31.85618498 -34.13671875 29.703125 C-34.13605796 28.34374954 -34.13477679 26.9843742 -34.1328125 25.625 C-34.13168457 24.37976563 -34.13055664 23.13453125 -34.12939453 21.8515625 C-34 19 -34 19 -33 18 C-30.6243148 17.9116033 -28.27791326 17.88469695 -25.90234375 17.90234375 C-24.83905602 17.90446617 -24.83905602 17.90446617 -23.75428772 17.90663147 C-21.48198288 17.91224557 -19.20977525 17.92480037 -16.9375 17.9375 C-15.40039204 17.94251319 -13.86328255 17.94707641 -12.32617188 17.95117188 C-8.55074358 17.96221958 -4.77538829 17.97949359 -1 18 C-1.01160156 16.78441406 -1.02320313 15.56882813 -1.03515625 14.31640625 C-1.04453278 12.73177236 -1.05363313 11.14713682 -1.0625 9.5625 C-1.07087891 8.76005859 -1.07925781 7.95761719 -1.08789062 7.13085938 C-1.0965143 5.08704779 -1.0522815 3.04316098 -1 1 C-0.67 0.67 -0.34 0.34 0 0 Z " fill="#19C108" transform="translate(162,135)"/>
<path d="M0 0 C9.11483682 1.85386512 16.85268534 5.64054273 25 9.94921875 C26.93758346 10.96720694 28.88775115 11.95545925 30.84375 12.9375 C32.0090625 13.535625 33.174375 14.13375 34.375 14.75 C35.93347656 15.54664063 35.93347656 15.54664063 37.5234375 16.359375 C40.15081879 18.0999115 40.82351595 19.15980114 42 22 C43.96672915 23.1500831 43.96672915 23.1500831 46 24 C46.66 24.66 47.32 25.32 48 26 C49.5207908 26.83106412 51.06632161 27.61737614 52.625 28.375 C53.511875 28.80941406 54.39875 29.24382812 55.3125 29.69140625 C56.199375 30.12324219 57.08625 30.55507812 58 31 C59.54265428 31.76885494 61.08443531 32.53946665 62.625 33.3125 C63.73875 33.869375 64.8525 34.42625 66 35 C66 35.66 66 36.32 66 37 C66.70125 37.0825 67.4025 37.165 68.125 37.25 C71.68758385 38.1793697 73.96651746 39.91819825 77 42 C78.175625 42.556875 79.35125 43.11375 80.5625 43.6875 C85.1577927 45.89643414 89.23024778 48.84208877 93.34399414 51.8269043 C96.48161939 54.07406434 99.43766236 55.57619945 103 57 C105.86608206 58.9879633 108.61151948 61.10009747 111.37890625 63.22265625 C113.77583129 64.8479929 115.24292556 65.41956328 118 66 C119.33333333 67.33333333 120.66666667 68.66666667 122 70 C123.64991582 70.70710678 125.3207762 71.36562656 127 72 C131.03573917 74.11710907 134.98254197 76.38067772 138.875 78.75 C141.06446757 80.13728585 141.06446757 80.13728585 144 81 C145.00135226 81.99864591 146.00125549 82.99874608 147 84 C148.8655851 85.05781043 148.8655851 85.05781043 150.875 85.9375 C154.3260643 87.57754707 157.0143054 89.61144432 160 92 C160.99 92 161.98 92 163 92 C162.42655063 94.86724686 162.1385485 95.8614515 160 98 C141.20540437 87.63357663 122.53467595 77.20011978 104.42456055 65.66674805 C95.6982308 60.13184209 86.80091663 54.89745462 77.87988281 49.68408203 C74.96653173 47.98042861 72.05725451 46.26997513 69.1484375 44.55859375 C57.92627026 37.96964302 46.63127812 31.53115055 35.25952148 25.20410156 C23.03008939 18.37900009 11.00183018 11.21597641 -1 4 C-0.67 2.68 -0.34 1.36 0 0 Z " fill="#E5EAEC" transform="translate(211,126)"/>
<path d="M0 0 C2.125 0.9375 2.125 0.9375 4 2 C3.125 5.875 3.125 5.875 2 7 C1.84285346 8.63256758 1.74914586 10.27135338 1.68359375 11.91015625 C1.64169922 12.89951172 1.59980469 13.88886719 1.55664062 14.90820312 C1.51732422 15.94912109 1.47800781 16.99003906 1.4375 18.0625 C1.39431641 19.10728516 1.35113281 20.15207031 1.30664062 21.22851562 C1.20018895 23.81883972 1.09955692 26.40940175 1 29 C7.6 29 14.2 29 21 29 C21 36.92 21 44.84 21 53 C15.32164603 53.02290685 9.64345119 53.04283457 3.96508789 53.05493164 C2.03181415 53.05997256 0.09854424 53.06680519 -1.8347168 53.07543945 C-4.60726872 53.08751565 -7.37977041 53.09323057 -10.15234375 53.09765625 C-11.45702858 53.10539818 -11.45702858 53.10539818 -12.78807068 53.11329651 C-14.85905814 53.11349185 -16.92994324 53.06208168 -19 53 C-20 52 -20 52 -20.11352539 49.77514648 C-20.10828857 48.81680908 -20.10305176 47.85847168 -20.09765625 46.87109375 C-20.09443359 45.83662109 -20.09121094 44.80214844 -20.08789062 43.73632812 C-20.07532227 42.1034082 -20.07532227 42.1034082 -20.0625 40.4375 C-20.05798828 39.34501953 -20.05347656 38.25253906 -20.04882812 37.12695312 C-20.0369984 34.41794568 -20.01906231 31.7089662 -20 29 C-13.4 29 -6.8 29 0 29 C-0.36778218 22.55272636 -0.36778218 22.55272636 -0.74829102 16.10620117 C-0.79139404 15.30158447 -0.83449707 14.49696777 -0.87890625 13.66796875 C-0.9260376 12.84578857 -0.97316895 12.0236084 -1.02172852 11.17651367 C-1 9 -1 9 0 6 C-0.66 6 -1.32 6 -2 6 C-2 4.35 -2 2.7 -2 1 C-1.34 0.67 -0.68 0.34 0 0 Z " fill="#FE09FE" transform="translate(231,145)"/>
<path d="M0 0 C3.79274747 1.49786041 7.08806568 3.45489407 10.49609375 5.67578125 C14.55500115 8.26639367 18.88861114 10.15961602 23.375 11.875 C23.375 12.535 23.375 13.195 23.375 13.875 C24.138125 13.99875 24.90125 14.1225 25.6875 14.25 C28.375 14.875 28.375 14.875 31.375 16.875 C32.365 17.205 33.355 17.535 34.375 17.875 C35.035 18.535 35.695 19.195 36.375 19.875 C37.68903276 20.57894612 39.0270257 21.23845658 40.375 21.875 C42.375 22.875 44.375 23.875 46.375 24.875 C46.375 25.535 46.375 26.195 46.375 26.875 C47.07625 26.9575 47.7775 27.04 48.5 27.125 C52.06258385 28.0543697 54.34151746 29.79319825 57.375 31.875 C59.41042051 32.94688495 61.46707412 33.95445155 63.54296875 34.9453125 C65.375 35.875 65.375 35.875 68.375 37.875 C69.63790178 38.51587553 70.90942228 39.13995107 72.1875 39.75 C75.79400267 41.52010333 79.04288853 43.62776203 82.375 45.875 C83.86 46.37 83.86 46.37 85.375 46.875 C86.375 47.875 87.375 48.875 88.375 49.875 C89.86 50.37 89.86 50.37 91.375 50.875 C92.035 51.535 92.695 52.195 93.375 52.875 C97.81518129 55.9831269 102.44467616 58.74427035 107.10546875 61.5078125 C108.89100377 62.58343601 110.64059894 63.71873263 112.375 64.875 C113.70067199 65.55677416 115.03253688 66.22691436 116.375 66.875 C115.715 68.855 115.055 70.835 114.375 72.875 C108.079749 70.07539206 102.31019283 66.64317751 96.5625 62.875 C82.53688363 53.68699926 68.45440909 44.7426189 53.546875 37.046875 C49.12782219 34.76432364 44.77986142 32.36214506 40.4375 29.9375 C39.31541138 29.31149902 39.31541138 29.31149902 38.1706543 28.67285156 C36.65759723 27.82797587 35.14482069 26.98259761 33.63232422 26.13671875 C29.92481971 24.06442983 26.21261809 22.00061 22.5 19.9375 C21.77578857 19.53490967 21.05157715 19.13231934 20.30541992 18.7175293 C11.34478084 13.74070608 2.36004748 8.80757882 -6.625 3.875 C-6.25 1.9375 -6.25 1.9375 -5.625 -0.125 C-3.625 -1.125 -3.625 -1.125 0 0 Z " fill="#C6E3CB" transform="translate(289.625,102.125)"/>
<path d="M0 0 C5.70116236 1.61152266 11.14714054 2.91313232 17.0625 3.5 C23.99621376 4.30994255 30.5887321 5.94803244 37.3125 7.8125 C38.33174561 8.07981934 39.35099121 8.34713867 40.40112305 8.62255859 C46.50272594 10.38507668 50.47195961 12.52008788 55.03637695 16.9284668 C57.81098362 19.48865027 60.93233838 21.1774769 64.25 22.9375 C70.66275744 26.41275744 70.66275744 26.41275744 72.875 28.625 C73.04 29.305625 73.205 29.98625 73.375 30.6875 C73.54 31.326875 73.705 31.96625 73.875 32.625 C74.535 32.955 75.195 33.285 75.875 33.625 C75.875 34.615 75.875 35.605 75.875 36.625 C71.84708552 35.9470342 68.5955184 33.91069075 65.125 31.875 C64.50608887 31.51664063 63.88717773 31.15828125 63.24951172 30.7890625 C58.73123662 28.16059171 54.2779758 25.44290451 49.875 22.625 C49.771875 23.57375 49.66875 24.5225 49.5625 25.5 C48.875 28.625 48.875 28.625 45.875 30.625 C43.07976326 30.97440459 41.5101646 30.99733787 39.0625 29.5625 C37.20463377 26.53124457 37.50366735 24.09077141 37.875 20.625 C38.865 19.635 39.855 18.645 40.875 17.625 C29.985 17.625 19.095 17.625 7.875 17.625 C8.205 16.965 8.535 16.305 8.875 15.625 C20.095 15.295 31.315 14.965 42.875 14.625 C37.54100396 13.11164563 32.20670277 11.59945977 26.87158203 10.09008789 C25.06182515 9.57772561 23.25225014 9.06472039 21.44287109 8.55102539 C-5.47333023 0.32906598 -5.47333023 0.32906598 -32.40234375 5.3125 C-36.125 6.625 -36.125 6.625 -40.125 6.625 C-40.125 5.965 -40.125 5.305 -40.125 4.625 C-39.29097656 4.37105469 -38.45695312 4.11710937 -37.59765625 3.85546875 C-36.47230469 3.51128906 -35.34695312 3.16710937 -34.1875 2.8125 C-32.99769531 2.45027344 -31.80789062 2.08804688 -30.58203125 1.71484375 C-27.80794088 0.84030001 -25.09995417 -0.11342732 -22.375 -1.125 C-14.64194694 -3.68380713 -7.61524432 -2.27417841 0 0 Z " fill="#473E1E" transform="translate(155.125,117.375)"/>
<path d="M0 0 C3.96 0 7.92 0 12 0 C12.495 3.465 12.495 3.465 13 7 C15.97 7.33 18.94 7.66 22 8 C22.75 10.125 22.75 10.125 23 13 C21.70427617 15.02456848 20.3726682 17.02678947 19 19 C19.495 20.485 19.495 20.485 20 22 C18.35 22 16.7 22 15 22 C15.33 20.68 15.66 19.36 16 18 C16.66 18 17.32 18 18 18 C18 17.34 18 16.68 18 16 C16.35 16 14.7 16 13 16 C12.4465236 18.07553648 12 19.84365964 12 22 C10.54257537 22.08096803 9.08387193 22.13917774 7.625 22.1875 C6.81289062 22.22230469 6.00078125 22.25710937 5.1640625 22.29296875 C4.44992188 22.19628906 3.73578125 22.09960938 3 22 C2.34 21.01 1.68 20.02 1 19 C0.67 19.99 0.34 20.98 0 22 C-4.62 22 -9.24 22 -14 22 C-15 17 -15 17 -15 15 C-13.35 15 -11.7 15 -10 15 C-10 13.02 -10 11.04 -10 9 C-10.598125 9.33 -11.19625 9.66 -11.8125 10 C-14 11 -14 11 -17 11 C-17 11.66 -17 12.32 -17 13 C-16.01 13.33 -15.02 13.66 -14 14 C-17.96 14 -21.92 14 -26 14 C-26 12.02 -26 10.04 -26 8 C-17.09 8 -8.18 8 1 8 C0.67 7.67 0.34 7.34 0 7 C-0.04092937 4.66702567 -0.04241723 2.33294775 0 0 Z " fill="#56D149" transform="translate(159,158)"/>
<path d="M0 0 C0.73605469 0.47050781 1.47210938 0.94101563 2.23046875 1.42578125 C3.20628906 2.04839844 4.18210937 2.67101562 5.1875 3.3125 C6.15042969 3.92738281 7.11335938 4.54226562 8.10546875 5.17578125 C13.32901595 8.54632806 13.32901595 8.54632806 19 11 C19.61875 11.639375 20.2375 12.27875 20.875 12.9375 C23.24553037 15.23830889 24.9250845 15.83836526 28 17 C32.03573917 19.11710907 35.98254197 21.38067772 39.875 23.75 C42.06446757 25.13728585 42.06446757 25.13728585 45 26 C46.00135226 26.99864591 47.00125549 27.99874608 48 29 C49.8655851 30.05781043 49.8655851 30.05781043 51.875 30.9375 C55.3260643 32.57754707 58.0143054 34.61144432 61 37 C61.99 37 62.98 37 64 37 C63.42655063 39.86724686 63.1385485 40.8614515 61 43 C31.13290267 26.52638271 31.13290267 26.52638271 18.98242188 19.18261719 C16.8313123 17.89936906 14.65895429 16.6570765 12.484375 15.4140625 C11.0098595 14.54782272 9.53588334 13.68066407 8.0625 12.8125 C7.38098877 12.43246826 6.69947754 12.05243652 5.99731445 11.66088867 C2.57128067 9.60245043 0.66125542 8.01111345 -0.44140625 4.19921875 C-0.62574219 3.14347656 -0.81007813 2.08773437 -1 1 C-0.67 0.67 -0.34 0.34 0 0 Z " fill="#E0E4EB" transform="translate(310,181)"/>
<path d="M0 0 C3.78518732 1.4160506 7.19749321 3.15421065 10.69921875 5.16796875 C11.81329102 5.80653809 12.92736328 6.44510742 14.07519531 7.10302734 C15.27937838 7.79771029 16.48347787 8.49253814 17.6875 9.1875 C18.93704173 9.90599264 20.18671823 10.62425094 21.43652344 11.34228516 C24.01584743 12.82486828 26.59399328 14.30947363 29.17138672 15.79541016 C32.7986359 17.88571459 36.43202765 19.96508455 40.06640625 22.04296875 C52.48969315 29.15762645 64.76676346 36.42523519 76.81103516 44.16357422 C86.56723499 50.42261161 96.55044964 56.17558712 106.68432617 61.80297852 C127.95854526 73.6216287 127.95854526 73.6216287 135.640625 78.76953125 C138.4707136 80.24548805 139.86654565 80.70465241 143 80 C144.70926748 78.056065 145.89515281 76.39038493 147.1875 74.1875 C147.74908813 73.27460205 147.74908813 73.27460205 148.32202148 72.34326172 C153.28296177 64.12507651 157.64544442 55.55001558 162 47 C162.66 47 163.32 47 164 47 C161.96395023 52.26295259 159.42148857 57.18982188 156.8125 62.1875 C156.32289795 63.12553467 155.8332959 64.06356934 155.32885742 65.0300293 C151.96991434 71.37629477 148.45982488 77.35291798 144 83 C136.60162307 82.75691047 131.04699753 79.05035382 124.75 75.4375 C123.55616979 74.76192612 122.36198977 74.08697008 121.16748047 73.41259766 C102.74042763 62.97112208 84.59445394 52.05682856 66.61328125 40.8671875 C55.6327413 34.03534799 44.4811135 27.53485301 33.25 21.125 C32.64489594 20.77946075 32.03979187 20.43392151 31.41635132 20.07791138 C25.2741486 16.5707359 19.128083 13.07079283 12.96875 9.59375 C11.22905738 8.60435881 9.48946616 7.61478929 7.75 6.625 C6.55358887 5.95621826 6.55358887 5.95621826 5.33300781 5.27392578 C3.52189685 4.23906369 1.75463105 3.12797711 0 2 C0 1.34 0 0.68 0 0 Z " fill="#D15705" transform="translate(235,150)"/>
<path d="M0 0 C3.96 0 7.92 0 12 0 C12.33 1.65 12.66 3.3 13 5 C13.33 3.35 13.66 1.7 14 0 C17.63 0 21.26 0 25 0 C25 0.66 25 1.32 25 2 C24.34 2 23.68 2 23 2 C23.0721875 2.78246094 23.144375 3.56492187 23.21875 4.37109375 C23.3115625 5.38300781 23.404375 6.39492188 23.5 7.4375 C23.5928125 8.44683594 23.685625 9.45617187 23.78125 10.49609375 C24 13 24 13 24 14 C15.33333333 14 6.66666667 14 -2 14 C-2 13.01 -2 12.02 -2 11 C-1.34 10.67 -0.68 10.34 0 10 C-0.66 9.34 -1.32 8.68 -2 8 C-0.68 7.67 0.64 7.34 2 7 C2 5.35 2 3.7 2 2 C1.34 2 0.68 2 0 2 C0 1.34 0 0.68 0 0 Z " fill="#2FC71F" transform="translate(354,269)"/>
<path d="M0 0 C5.70116236 1.61152266 11.14714054 2.91313232 17.0625 3.5 C24.13333715 4.29944701 30.79311236 6.09406711 37.625 8.0625 C39.21671021 8.51375244 39.21671021 8.51375244 40.84057617 8.97412109 C41.83677979 9.27012207 42.8329834 9.56612305 43.859375 9.87109375 C44.75366211 10.13591553 45.64794922 10.4007373 46.56933594 10.67358398 C49.00029024 11.67670013 50.30222045 12.52477995 51.875 14.625 C51.5625 17.3125 51.5625 17.3125 50.875 19.625 C47 18.75 47 18.75 45.875 17.625 C43.0633662 17.53638008 40.27641745 17.50977645 37.46484375 17.52734375 C36.20179161 17.52946617 36.20179161 17.52946617 34.91322327 17.53163147 C32.21294665 17.53724737 29.51275172 17.54980252 26.8125 17.5625 C24.98632932 17.56751295 23.16015734 17.57207621 21.33398438 17.57617188 C16.84762458 17.58722196 12.36132616 17.60449721 7.875 17.625 C8.205 16.965 8.535 16.305 8.875 15.625 C20.095 15.295 31.315 14.965 42.875 14.625 C37.54100396 13.11164563 32.20670277 11.59945977 26.87158203 10.09008789 C25.06182515 9.57772561 23.25225014 9.06472039 21.44287109 8.55102539 C-5.47333023 0.32906598 -5.47333023 0.32906598 -32.40234375 5.3125 C-36.125 6.625 -36.125 6.625 -40.125 6.625 C-40.125 5.965 -40.125 5.305 -40.125 4.625 C-39.29097656 4.37105469 -38.45695312 4.11710937 -37.59765625 3.85546875 C-36.47230469 3.51128906 -35.34695312 3.16710937 -34.1875 2.8125 C-32.99769531 2.45027344 -31.80789062 2.08804688 -30.58203125 1.71484375 C-27.80794088 0.84030001 -25.09995417 -0.11342732 -22.375 -1.125 C-14.64194694 -3.68380713 -7.61524432 -2.27417841 0 0 Z " fill="#B39509" transform="translate(155.125,117.375)"/>
<path d="M0 0 C13.4295914 2.73144232 25.52743968 9.71933672 37 17 C36.34 18.98 35.68 20.96 35 23 C30.29418587 22.42304195 26.65363907 20.3452995 22.625 18 C21.93470703 17.60498291 21.24441406 17.20996582 20.53320312 16.80297852 C13.29362868 12.63989443 6.13629095 8.33714234 -1 4 C-0.67 2.68 -0.34 1.36 0 0 Z " fill="#F3F3F5" transform="translate(211,126)"/>
<path d="M0 0 C5.05175058 2.0240274 9.73180046 4.61776714 14.49609375 7.23828125 C16.07487305 8.10018066 16.07487305 8.10018066 17.68554688 8.97949219 C27.83904105 14.54060393 37.91612748 20.23563037 47.97851562 25.95947266 C51.75019765 28.10299293 55.52824368 30.23509432 59.30859375 32.36328125 C59.95723389 32.72929443 60.60587402 33.09530762 61.27416992 33.47241211 C64.78082969 35.44613581 68.31326734 37.35887982 71.87109375 39.23828125 C78.56350099 42.86873764 84.92684708 47.02723101 91.34375 51.1171875 C97.69858406 55.1633774 104.11229821 59.11339344 110.52880859 63.06079102 C114.92791742 65.77302032 119.2821489 68.5236588 123.55859375 71.42578125 C122.94320913 76.96424279 122.94320913 76.96424279 120.99609375 79.30078125 C120.52171875 79.67203125 120.04734375 80.04328125 119.55859375 80.42578125 C119.88859375 77.78578125 120.21859375 75.14578125 120.55859375 72.42578125 C120.08252686 72.12510742 119.60645996 71.82443359 119.1159668 71.51464844 C117.66665893 70.5992961 116.21735966 69.68393015 114.76806641 68.76855469 C113.06597965 67.69358722 111.36382972 66.61871978 109.66162109 65.54394531 C105.28077047 62.77768447 100.90082325 60.01002226 96.5234375 57.23828125 C89.54773946 52.82250444 82.56981143 48.4100017 75.55859375 44.05078125 C74.65109375 43.48617187 73.74359375 42.9215625 72.80859375 42.33984375 C64.25871635 37.30445923 55.42944814 32.74581797 46.67636108 28.07669067 C38.32533709 23.62003483 29.9782857 19.16223252 21.74609375 14.48828125 C16.61671705 11.58288248 11.48263807 8.68861885 6.30859375 5.86328125 C5.68750732 5.51595947 5.0664209 5.1686377 4.42651367 4.81079102 C1.10126989 3.01175242 -0.55263543 2.42578125 -4.44140625 2.42578125 C-4.44140625 1.76578125 -4.44140625 1.10578125 -4.44140625 0.42578125 C-2.44140625 -0.57421875 -2.44140625 -0.57421875 0 0 Z " fill="#D20305" transform="translate(282.44140625,110.57421875)"/>
<path d="M0 0 C3.99500618 1.3697164 6.80009492 3.25722422 10 6 C9.56287545 9.05987182 9.06268892 10.90712753 7.3125 13.5 C5.66845861 15.95343844 5.66845861 15.95343844 6.6875 18.6875 C7.91932102 21.09660702 7.91932102 21.09660702 10 23 C11.33642406 25.97377002 11.95994124 28.73807221 12 32 C10.67737235 35.44305381 8.64814136 38.19256789 6.4375 41.125 C5.89802734 41.88425781 5.35855469 42.64351562 4.80273438 43.42578125 C2.74816382 46.30564974 0.64334659 49.14516831 -1.48388672 51.97167969 C-3.69971062 54.96707145 -5.26006803 57.35032885 -6 61 C-5.11828125 60.96777344 -4.2365625 60.93554688 -3.328125 60.90234375 C-0.05956992 60.99825206 2.1755621 61.51279906 5.25 62.5625 C12.00660752 64.74504676 18.82701046 66.60915438 25.6875 68.4375 C36.14297637 71.22952777 46.57996896 74.07862179 57 77 C57.268125 76.05125 57.53625 75.1025 57.8125 74.125 C59 71 59 71 62 69 C65.625 69.25 65.625 69.25 69 70 C69.33 70.66 69.66 71.32 70 72 C67.03 72 64.06 72 61 72 C60.5875 72.969375 60.175 73.93875 59.75 74.9375 C58 78 58 78 56.35839844 78.81323242 C52.86610302 79.08979619 49.81897993 78.05570773 46.515625 77.05078125 C45.41574249 76.7299482 45.41574249 76.7299482 44.29364014 76.40263367 C41.94289965 75.71524543 39.59638937 75.01458256 37.25 74.3125 C34.19406166 73.40812577 31.13650753 72.50935263 28.078125 71.61328125 C27.32414932 71.39183945 26.57017365 71.17039764 25.79335022 70.94224548 C16.46967736 68.22723183 7.05706638 65.85376199 -2.4375 63.8125 C-6 63 -6 63 -7 62 C-7.53459653 56.91402223 -6.44549442 54.52822375 -3.4296875 50.48046875 C-2.33333984 48.94616211 -2.33333984 48.94616211 -1.21484375 47.38085938 C0.34221385 45.25582668 1.90992329 43.13855705 3.48828125 41.02929688 C7.54365871 35.65539549 7.54365871 35.65539549 9.10302734 29.31201172 C8.22265326 25.10596755 6.6459071 22.36751813 4 19 C3.03958697 14.06073299 5.6713197 10.18954536 8 6 C7.236875 5.7525 6.47375 5.505 5.6875 5.25 C2.7635955 3.89004442 1.69995644 2.68414174 0 0 Z " fill="#0393BD" transform="translate(147,50)"/>
<path d="M0 0 C4.09338652 -0.04939115 8.18665798 -0.08571501 12.28027344 -0.10986328 C13.67320781 -0.11992877 15.06612102 -0.13358234 16.45898438 -0.15087891 C18.4595436 -0.1751022 20.46025615 -0.18540814 22.4609375 -0.1953125 C24.26763916 -0.21102295 24.26763916 -0.21102295 26.11083984 -0.22705078 C29 0 29 0 31 2 C30.625 4.625 30.625 4.625 30 7 C27.10391407 7.05413245 24.20884805 7.09373641 21.3125 7.125 C20.49587891 7.14175781 19.67925781 7.15851563 18.83789062 7.17578125 C14.42907071 7.2114802 11.01268424 7.07580814 7 5 C7 5.66 7 6.32 7 7 C9.31 7.33 11.62 7.66 14 8 C14 9.98 14 11.96 14 14 C13.01 13.67 12.02 13.34 11 13 C10.3125 10.9375 10.3125 10.9375 10 9 C10 10.65 10 12.3 10 14 C9.34 14 8.68 14 8 14 C8 12.35 8 10.7 8 9 C7.01 9 6.02 9 5 9 C5 10.65 5 12.3 5 14 C4.67 14 4.34 14 4 14 C4 12.35 4 10.7 4 9 C3.01 9 2.02 9 1 9 C1 8.34 1 7.68 1 7 C0.34 7 -0.32 7 -1 7 C-1 3 -1 3 0 0 Z " fill="#FF9FFF" transform="translate(217,179)"/>
<path d="M0 0 C-4.199211 1.399737 -6.17756608 -0.2465728 -10.0390625 -2.08984375 C-19.08588977 -4.87072865 -26.81366229 -1.77537452 -35.375 1.4375 C-36.53 1.83904297 -37.685 2.24058594 -38.875 2.65429688 C-47.2686679 5.75692243 -53.43480607 9.96560618 -60 16 C-60.9079834 16.82951172 -61.8159668 17.65902344 -62.75146484 18.51367188 C-63.55535645 19.25166016 -64.35924805 19.98964844 -65.1875 20.75 C-75.34468039 30 -75.34468039 30 -80 30 C-79.86948242 30.63164063 -79.73896484 31.26328125 -79.60449219 31.9140625 C-77.11519119 44.01616333 -74.72862826 56.1258742 -72.6875 68.3125 C-72.43081543 69.83133789 -72.43081543 69.83133789 -72.16894531 71.38085938 C-71.93643066 72.7952832 -71.93643066 72.7952832 -71.69921875 74.23828125 C-71.56346436 75.06368408 -71.42770996 75.88908691 -71.2878418 76.73950195 C-71 79 -71 79 -71 83 C-71.66 83 -72.32 83 -73 83 C-74.1225155 76.57732887 -75.24334991 70.15436597 -76.36303711 63.73120117 C-76.74383822 61.54786597 -77.12501872 59.3645969 -77.5065918 57.18139648 C-78.05618356 54.03647045 -78.60439347 50.89130614 -79.15234375 47.74609375 C-79.3221727 46.7760289 -79.49200165 45.80596405 -79.66697693 44.8065033 C-80.52395475 39.8793862 -81.32627737 34.9556042 -82 30 C-81.14019531 29.41734375 -80.28039062 28.8346875 -79.39453125 28.234375 C-72.25622878 23.31203929 -65.66970161 18.15505655 -59.44067383 12.11230469 C-52.62331866 5.54408139 -45.65047285 2.50214791 -36.875 -0.6875 C-35.79089844 -1.09033203 -34.70679688 -1.49316406 -33.58984375 -1.90820312 C-19.93651396 -6.9459274 -13.22847231 -6.77555899 0 0 Z " fill="#038FB8" transform="translate(115,32)"/>
<path d="M0 0 C0.66 0.4125 1.32 0.825 2 1.25 C4.98115806 2.98900887 8.00820723 4.47854034 11.1328125 5.9375 C13 7 13 7 14.5546875 8.5625 C16.05137717 10.26423019 16.05137717 10.26423019 19 11 C19.66 11.66 20.32 12.32 21 13 C25.44018129 16.1081269 30.06967616 18.86927035 34.73046875 21.6328125 C36.51600377 22.70843601 38.26559894 23.84373263 40 25 C41.32567199 25.68177416 42.65753688 26.35191436 44 27 C43.34 28.98 42.68 30.96 42 33 C34.28204318 29.44837385 26.58744306 25.41030547 20 20 C20 19.01 20 18.02 20 17 C18.1526692 15.3505975 16.33769474 14.16884737 14.125 13.0625 C8.72450897 10.36225448 3.89013166 6.5208948 -1 3 C-0.67 2.01 -0.34 1.02 0 0 Z " fill="#D7E4E1" transform="translate(362,142)"/>
<path d="M0 0 C0.99 0.33 1.98 0.66 3 1 C3.99 0.67 4.98 0.34 6 0 C8.03833424 1.2739589 10.03852126 2.61061923 12 4 C12.99 4.33 13.98 4.66 15 5 C15.28875 5.598125 15.5775 6.19625 15.875 6.8125 C17.37206594 9.72346154 19.34303887 11.14012721 22 13 C22.66 13 23.32 13 24 13 C24.598125 13.639375 25.19625 14.27875 25.8125 14.9375 C27.81418651 17.20380559 27.81418651 17.20380559 30.5 17.4375 C33.99106599 18.22298985 35.01856028 20.13792041 37 23 C36.01 23.66 35.02 24.32 34 25 C33.50822266 24.68361572 33.01644531 24.36723145 32.50976562 24.04125977 C21.52786744 16.99403193 10.45231559 10.25533375 -1 4 C-0.67 2.68 -0.34 1.36 0 0 Z " fill="#E6E8F0" transform="translate(346,136)"/>
<path d="M0 0 C3.79274747 1.49786041 7.08806568 3.45489407 10.49609375 5.67578125 C14.55500115 8.26639367 18.88861114 10.15961602 23.375 11.875 C22.715 13.195 22.055 14.515 21.375 15.875 C19.395 14.885 17.415 13.895 15.375 12.875 C15.375 13.535 15.375 14.195 15.375 14.875 C10.11377829 13.36468084 5.70267414 10.97125809 1 8.25 C0.26394531 7.82976562 -0.47210938 7.40953125 -1.23046875 6.9765625 C-3.0313765 5.94747236 -4.82857318 4.91189244 -6.625 3.875 C-6.25 1.9375 -6.25 1.9375 -5.625 -0.125 C-3.625 -1.125 -3.625 -1.125 0 0 Z " fill="#E7EBEC" transform="translate(289.625,102.125)"/>
<path d="M0 0 C3.96 0 7.92 0 12 0 C12 2.31 12 4.62 12 7 C11.34 7 10.68 7 10 7 C10.020625 7.969375 10.04125 8.93875 10.0625 9.9375 C10 13 10 13 9 14 C7.14712498 14.07226502 5.29166122 14.0838122 3.4375 14.0625 C2.42558594 14.05347656 1.41367187 14.04445313 0.37109375 14.03515625 C-0.41136719 14.02355469 -1.19382812 14.01195312 -2 14 C-2 13.01 -2 12.02 -2 11 C-1.34 10.67 -0.68 10.34 0 10 C-0.66 9.34 -1.32 8.68 -2 8 C-0.68 7.67 0.64 7.34 2 7 C2 5.35 2 3.7 2 2 C1.34 2 0.68 2 0 2 C0 1.34 0 0.68 0 0 Z " fill="#8CE083" transform="translate(354,269)"/>
<path d="M0 0 C2.35981637 0.40686489 3.69202965 0.68599101 5.39453125 2.421875 C7.1357698 4.13345742 8.66103084 4.93389141 10.875 5.9375 C14.3260643 7.57754707 17.0143054 9.61144432 20 12 C20.99 12 21.98 12 23 12 C22.42655063 14.86724686 22.1385485 15.8614515 20 18 C13.4 14.37 6.8 10.74 0 7 C0.66 6.67 1.32 6.34 2 6 C1.34 5.01 0.68 4.02 0 3 C0 2.01 0 1.02 0 0 Z " fill="#D4E1DF" transform="translate(351,206)"/>
<path d="M0 0 C-0.33 0.66 -0.66 1.32 -1 2 C-0.6596875 3.423125 -0.6596875 3.423125 -0.3125 4.875 C0 8 0 8 -1.625 10.375 C-4.42544497 12.29109393 -5.6774045 12.59636329 -9 12 C-10.8125 10.875 -10.8125 10.875 -12 9 C-12.53312164 5.42046896 -12.40657541 3.66068504 -10.5 0.5625 C-6.73872372 -1.78829768 -4.27972524 -0.85594505 0 0 Z " fill="#5A5A61" transform="translate(148,120)"/>
<path d="M0 0 C3.96 0 7.92 0 12 0 C12.33 2.97 12.66 5.94 13 9 C12.01 9 11.02 9 10 9 C10 10.65 10 12.3 10 14 C9.67 14 9.34 14 9 14 C9 12.35 9 10.7 9 9 C6.69 9 4.38 9 2 9 C2 9.99 2 10.98 2 12 C3.32 12 4.64 12 6 12 C6 12.66 6 13.32 6 14 C4.35 14 2.7 14 1 14 C1.020625 13.030625 1.04125 12.06125 1.0625 11.0625 C1.35618499 8.12534105 1.35618499 8.12534105 0 7 C-0.04092937 4.66702567 -0.04241723 2.33294775 0 0 Z " fill="#87DF7E" transform="translate(159,158)"/>
<path d="M0 0 C0.70125 0.00515625 1.4025 0.0103125 2.125 0.015625 C2.82625 0.01046875 3.5275 0.0053125 4.25 0 C6.125 0.265625 6.125 0.265625 8.125 2.265625 C8.455 1.605625 8.785 0.945625 9.125 0.265625 C11.765 0.265625 14.405 0.265625 17.125 0.265625 C17.125 2.575625 17.125 4.885625 17.125 7.265625 C15.66757537 7.34659303 14.20887193 7.40480274 12.75 7.453125 C11.93789062 7.48792969 11.12578125 7.52273437 10.2890625 7.55859375 C9.57492188 7.46191406 8.86078125 7.36523438 8.125 7.265625 C7.465 6.275625 6.805 5.285625 6.125 4.265625 C5.795 5.255625 5.465 6.245625 5.125 7.265625 C2.485 7.265625 -0.155 7.265625 -2.875 7.265625 C-3.5 4.890625 -3.5 4.890625 -3.875 2.265625 C-1.875 0.265625 -1.875 0.265625 0 0 Z " fill="#C3EFBF" transform="translate(153.875,172.734375)"/>
<path d="M0 0 C1.95803507 -0.05389087 3.91648909 -0.09274217 5.875 -0.125 C7.51082031 -0.15980469 7.51082031 -0.15980469 9.1796875 -0.1953125 C12 0 12 0 14 2 C13.67 3.65 13.34 5.3 13 7 C7.06 7 1.12 7 -5 7 C-4.34 5.35 -3.68 3.7 -3 2 C-2.01 2 -1.02 2 0 2 C0 1.34 0 0.68 0 0 Z " fill="#FF46FF" transform="translate(234,179)"/>
<path d="M0 0 C12.14411346 2.88337889 24.0705316 6.3331552 36 10 C36 10.33 36 10.66 36 11 C27.50001733 11.59714478 20.00835209 9.35651088 11.9375 7 C10.58168715 6.61350498 9.22556892 6.22807952 7.86914062 5.84375 C4.57627808 4.90628024 1.28689743 3.95813427 -2 3 C-1.34 2.67 -0.68 2.34 0 2 C0 1.34 0 0.68 0 0 Z " fill="#2C2A2D" transform="translate(164,122)"/>
<path d="M0 0 C8.58 0 17.16 0 26 0 C25.67 0.99 25.34 1.98 25 3 C24.01 3 23.02 3 22 3 C22 3.66 22 4.32 22 5 C22.99 5.33 23.98 5.66 25 6 C23.35 6 21.7 6 20 6 C20 4.35 20 2.7 20 1 C19.01 1 18.02 1 17 1 C17 2.65 17 4.3 17 6 C16.67 6 16.34 6 16 6 C16 4.35 16 2.7 16 1 C15.401875 1.33 14.80375 1.66 14.1875 2 C12 3 12 3 9 3 C9 3.66 9 4.32 9 5 C9.99 5.33 10.98 5.66 12 6 C8.04 6 4.08 6 0 6 C0 4.02 0 2.04 0 0 Z " fill="#DDF6DB" transform="translate(133,166)"/>
<path d="M0 0 C0.928125 0.5878125 0.928125 0.5878125 1.875 1.1875 C4.39562922 2.64946495 6.87031851 3.8872509 9.5 5.125 C16.13373342 8.38174224 22.0179896 12.69632794 28 17 C27.34 17.66 26.68 18.32 26 19 C12.24137931 12.24137931 12.24137931 12.24137931 8 8 C6.33927151 7.31867549 4.672233 6.65257873 3 6 C1.63634717 5.04175747 0.29205831 4.05278825 -1 3 C-0.67 2.01 -0.34 1.02 0 0 Z " fill="#B0E1B1" transform="translate(281,164)"/>
<path d="M0 0 C4.75 0.875 4.75 0.875 7 2 C7 2.66 7 3.32 7 4 C7.71542969 4.10441406 8.43085937 4.20882812 9.16796875 4.31640625 C12.31163677 5.07522267 14.55215773 6.26493706 17.3125 7.9375 C18.19550781 8.46214844 19.07851562 8.98679687 19.98828125 9.52734375 C20.65214844 10.01332031 21.31601563 10.49929687 22 11 C22 11.66 22 12.32 22 13 C19 14 19 14 16 12.625 C15.01 12.08875 14.02 11.5525 13 11 C12.01 10.67 11.02 10.34 10 10 C10.33 8.68 10.66 7.36 11 6 C10.01 6 9.02 6 8 6 C8 6.99 8 7.98 8 9 C7.62875 8.54625 7.2575 8.0925 6.875 7.625 C4.45735315 5.52970606 2.04569398 4.87986715 -1 4 C-0.67 2.68 -0.34 1.36 0 0 Z " fill="#077495" transform="translate(119,33)"/>
<path d="M0 0 C2.25002296 0.48214778 4.03125535 1.01704837 6.0625 2.125 C8.14419719 3.32897101 8.14419719 3.32897101 11 2 C14.1875 3.4375 14.1875 3.4375 17 5 C17 5.66 17 6.32 17 7 C17.99 7 18.98 7 20 7 C19.67 7.99 19.34 8.98 19 10 C18.34 10 17.68 10 17 10 C16.01 10.33 15.02 10.66 14 11 C11.49998346 9.7689092 9.18565407 8.50257845 6.8125 7.0625 C5.83120117 6.48338867 5.83120117 6.48338867 4.83007812 5.89257812 C3.21464684 4.93746912 1.60659475 3.96989934 0 3 C0 2.01 0 1.02 0 0 Z " fill="#CAE3CD" transform="translate(260,156)"/>
<path d="M0 0 C0.33 0 0.66 0 1 0 C1.125 3.375 1.125 3.375 1 7 C-1 9 -1 9 -4.4375 9.3125 C-8 9 -8 9 -9.9375 7.8125 C-11.31989817 5.45429135 -11.07487674 3.69115806 -11 1 C-10.28972656 1.01160156 -9.57945313 1.02320313 -8.84765625 1.03515625 C-7.92855469 1.04417969 -7.00945313 1.05320313 -6.0625 1.0625 C-4.68771484 1.07990234 -4.68771484 1.07990234 -3.28515625 1.09765625 C-1.03406673 1.25949049 -1.03406673 1.25949049 0 0 Z " fill="#282831" transform="translate(45,128)"/>
<path d="M0 0 C3.625 -0.1875 3.625 -0.1875 7 0 C7.66 1.98 8.32 3.96 9 6 C6.74831203 8.08489627 5.62263575 9 2.5 9 C-0.74753145 7.70098742 -2.03664044 5.8359638 -4 3 C-3.34 3 -2.68 3 -2 3 C-1.34 2.01 -0.68 1.02 0 0 Z " fill="#34343C" transform="translate(165,83)"/>
<path d="M0 0 C1.77108948 1.12459671 3.54186236 2.24969203 5.3125 3.375 C6.29863281 4.00148437 7.28476562 4.62796875 8.30078125 5.2734375 C10.21287929 6.49651613 12.1114034 7.7409356 14 9 C13.67 9.99 13.34 10.98 13 12 C10.58268363 13.0883156 9.43168481 13.15638393 6.9296875 12.25 C0.70102076 8.46069704 0.70102076 8.46069704 -0.5 4.1875 C-0.665 3.135625 -0.83 2.08375 -1 1 C-0.67 0.67 -0.34 0.34 0 0 Z " fill="#E1E5EB" transform="translate(310,181)"/>
<path d="M0 0 C7.42857143 -0.14285714 7.42857143 -0.14285714 11 1 C9.50259067 5.84455959 9.50259067 5.84455959 8 8 C4.3125 8.9375 4.3125 8.9375 1 9 C-0.61949011 6.42786866 -1.04408751 5.32330841 -0.625 2.25 C-0.41875 1.5075 -0.2125 0.765 0 0 Z " fill="#42424A" transform="translate(195,139)"/>
<path d="M0 0 C4.33333333 0 8.66666667 0 13 0 C13 2.31 13 4.62 13 7 C12.01 6.67 11.02 6.34 10 6 C9.3125 3.9375 9.3125 3.9375 9 2 C9 3.65 9 5.3 9 7 C6 7 3 7 0 7 C0 4.69 0 2.38 0 0 Z " fill="#AFE9A9" transform="translate(359,261)"/>
<path d="M0 0 C0.33 0.66 0.66 1.32 1 2 C4.465 1.505 4.465 1.505 8 1 C9.3950848 3.29778673 10.07438619 4.4792967 9.6875 7.1875 C9 9 9 9 8 10 C5.26468791 10.28792759 3.58756334 10.34443368 1.1875 8.9375 C-0.60842137 6.00731249 -0.18977574 3.3527047 0 0 Z " fill="#55555D" transform="translate(372,239)"/>
<path d="M0 0 C0.66 0.4125 1.32 0.825 2 1.25 C4.98115806 2.98900887 8.00820723 4.47854034 11.1328125 5.9375 C13 7 13 7 14.5546875 8.5625 C16.05137717 10.26423019 16.05137717 10.26423019 19 11 C21 13 21 13 23 16 C21.33333333 16 19.66666667 16 18 16 C17.34 15.34 16.68 14.68 16 14 C15.4225 13.71125 14.845 13.4225 14.25 13.125 C8.80285445 10.40142722 3.93216837 6.55116123 -1 3 C-0.67 2.01 -0.34 1.02 0 0 Z " fill="#B3E0B6" transform="translate(362,142)"/>
<path d="M0 0 C3.38220763 0.57745008 4.5240076 1.71951013 6.5625 4.4375 C6.5625 5.7575 6.5625 7.0775 6.5625 8.4375 C3.2625 8.4375 -0.0375 8.4375 -3.4375 8.4375 C-4.0975 6.7875 -4.7575 5.1375 -5.4375 3.4375 C-3.69857595 1.24096435 -2.79998966 0.50256225 0 0 Z " fill="#1F1F29" transform="translate(278.4375,93.5625)"/>
<path d="M0 0 C2.97 0 5.94 0 9 0 C8.74438677 2.3431213 8.40729228 4.67843403 8 7 C5.04335481 8.4783226 2.25770263 8.06032783 -1 8 C-2.2077558 4.37673261 -1.54311128 3.35853631 0 0 Z " fill="#25252E" transform="translate(115,131)"/>
<path d="M0 0 C-0.33 1.65 -0.66 3.3 -1 5 C-4.875 4.125 -4.875 4.125 -6 3 C-8.8116338 2.91138008 -11.59858255 2.88477645 -14.41015625 2.90234375 C-15.67320839 2.90446617 -15.67320839 2.90446617 -16.96177673 2.90663147 C-19.66205335 2.91224737 -22.36224828 2.92480252 -25.0625 2.9375 C-26.88867068 2.94251295 -28.71484266 2.94707621 -30.54101562 2.95117188 C-35.02737542 2.96222196 -39.51367384 2.97949721 -44 3 C-43.67 2.34 -43.34 1.68 -43 1 C-41.91992676 0.97494385 -40.83985352 0.9498877 -39.72705078 0.92407227 C-35.72757688 0.83004428 -31.72827853 0.72981246 -27.72900391 0.62768555 C-25.99662374 0.5843192 -24.26420037 0.54264537 -22.53173828 0.50268555 C-20.04446373 0.44502406 -17.55740707 0.38131802 -15.0703125 0.31640625 C-13.90461227 0.29133751 -13.90461227 0.29133751 -12.71536255 0.26576233 C-0.32580958 -0.07716543 -0.32580958 -0.07716543 0 0 Z " fill="#26BA16" transform="translate(207,132)"/>
<path d="M0 0 C4.34464536 0.60825035 8.67551867 1.26167392 13 2 C13.66 3.98 14.32 5.96 15 8 C14.34 8.66 13.68 9.32 13 10 C8.71 7.69 4.42 5.38 0 3 C0 2.01 0 1.02 0 0 Z " fill="#EAEEF1" transform="translate(305,115)"/>
<path d="M0 0 C3.375 0.3125 3.375 0.3125 7 1 C9 4 9 4 8.625 6.1875 C8.41875 6.785625 8.2125 7.38375 8 8 C4.62182575 8.84454356 2.32534757 9.10844919 -1 8 C-0.67 5.36 -0.34 2.72 0 0 Z " fill="#35353F" transform="translate(413,177)"/>
<path d="M0 0 C2.5 0.375 2.5 0.375 4.3125 1.75 C5.5 3.375 5.5 3.375 5.5 5.375 C4.84 5.375 4.18 5.375 3.5 5.375 C3.5 6.365 3.5 7.355 3.5 8.375 C1.19 8.375 -1.12 8.375 -3.5 8.375 C-4.16 6.725 -4.82 5.075 -5.5 3.375 C-3.72510401 1.13302612 -2.87824511 0.43173677 0 0 Z " fill="#32323B" transform="translate(212.5,102.625)"/>
<path d="M0 0 C3.0625 0.25 3.0625 0.25 6.0625 2.25 C5.3125 4.6875 5.3125 4.6875 4.0625 7.25 C1.56773949 8.29618989 -0.20606911 8.25 -2.9375 8.25 C-2.9375 6.6 -2.9375 4.95 -2.9375 3.25 C-3.5975 2.92 -4.2575 2.59 -4.9375 2.25 C-2.9375 0.25 -2.9375 0.25 0 0 Z " fill="#383840" transform="translate(165.9375,65.75)"/>
<path d="M0 0 C1.7325 0.1546875 1.7325 0.1546875 3.5 0.3125 C5.5 3.3125 5.5 3.3125 5.125 5.5 C4.91875 6.098125 4.7125 6.69625 4.5 7.3125 C1.125 7.4375 1.125 7.4375 -2.5 7.3125 C-4.5 5.3125 -4.5 5.3125 -5.5 2.3125 C-3.5 0.3125 -3.5 0.3125 0 0 Z " fill="#26262F" transform="translate(22.5,55.6875)"/>
<path d="M0 0 C1.65 0.33 3.3 0.66 5 1 C4.34 2.65 3.68 4.3 3 6 C2.34 6 1.68 6 1 6 C0.566875 7.2065625 0.566875 7.2065625 0.125 8.4375 C-1 11 -1 11 -3 12 C-3.66 11.67 -4.32 11.34 -5 11 C-5 11.66 -5 12.32 -5 13 C-5.66 13 -6.32 13 -7 13 C-5.35821735 8.22390502 -2.73453298 4.20617096 0 0 Z " fill="#A8060A" transform="translate(274,114)"/>
<path d="M0 0 C0.99 0.66 1.98 1.32 3 2 C3 2.66 3 3.32 3 4 C2.01 4.66 1.02 5.32 0 6 C0.33 6.66 0.66 7.32 1 8 C-1.31 8 -3.62 8 -6 8 C-6.12375 7.360625 -6.2475 6.72125 -6.375 6.0625 C-6.684375 5.0415625 -6.684375 5.0415625 -7 4 C-7.66 3.67 -8.32 3.34 -9 3 C-6.39572664 -0.47236449 -4.17901405 -0.43531396 0 0 Z " fill="#2C2C35" transform="translate(169,50)"/>
<path d="M0 0 C5.875 2.75 5.875 2.75 7 5 C7.66 5 8.32 5 9 5 C9 5.99 9 6.98 9 8 C8.01 8.495 8.01 8.495 7 9 C7 9.66 7 10.32 7 11 C4.83125748 10.49396008 3.00032373 10.00016187 1 9 C0.33203125 7.1875 0.33203125 7.1875 -0.1875 5 C-0.36667969 4.278125 -0.54585938 3.55625 -0.73046875 2.8125 C-0.86388672 1.9153125 -0.86388672 1.9153125 -1 1 C-0.67 0.67 -0.34 0.34 0 0 Z " fill="#868686" transform="translate(311,207)"/>
<path d="M0 0 C3.14624993 -0.26218749 4.61837017 -0.24754367 7.3125 1.5 C8.1478125 2.2425 8.1478125 2.2425 9 3 C8.67 4.98 8.34 6.96 8 9 C7.34 8.01 6.68 7.02 6 6 C2.43230448 5.26393501 2.43230448 5.26393501 -1 5 C-0.67 5.99 -0.34 6.98 0 8 C-0.99 8.99 -1.98 9.98 -3 11 C-3.37004405 4.46255507 -3.37004405 4.46255507 -1.5 2.125 C-1.005 1.75375 -0.51 1.3825 0 1 C0 0.67 0 0.34 0 0 Z " fill="#1D1F26" transform="translate(196,134)"/>
<path d="M0 0 C0.99 0 1.98 0 3 0 C3.33 0.66 3.66 1.32 4 2 C4.33 1.34 4.66 0.68 5 0 C6.98 0 8.96 0 11 0 C11 1.32 11 2.64 11 4 C9.68 4 8.36 4 7 4 C7 4.66 7 5.32 7 6 C4.03 6 1.06 6 -2 6 C-1.34 4.02 -0.68 2.04 0 0 Z " fill="#FFBDFF" transform="translate(234,187)"/>
<path d="M0 0 C0.64324219 0.15339844 1.28648437 0.30679688 1.94921875 0.46484375 C5.89767537 1.15746674 9.8131887 1.35800881 13.8125 1.5625 C14.99489258 1.62727539 14.99489258 1.62727539 16.20117188 1.69335938 C18.13394215 1.79878321 20.06695026 1.89983094 22 2 C21.67 3.32 21.34 4.64 21 6 C21 5.01 21 4.02 21 3 C19.02 3 17.04 3 15 3 C15 4.65 15 6.3 15 8 C13 5 13 5 13 3 C12.01 3.33 11.02 3.66 10 4 C8.78130071 6.50447516 8.78130071 6.50447516 8 9 C7.34 8.67 6.68 8.34 6 8 C6.33 6.35 6.66 4.7 7 3 C4.36 3 1.72 3 -1 3 C-0.67 2.01 -0.34 1.02 0 0 Z " fill="#FF19FF" transform="translate(224,184)"/>
<path d="M0 0 C6.875 0.875 6.875 0.875 8 2 C9.093125 1.979375 10.18625 1.95875 11.3125 1.9375 C14.71603882 1.9951871 16.21094566 2.21500522 19 4 C18.34 4 17.68 4 17 4 C17 4.99 17 5.98 17 7 C16.34 7 15.68 7 15 7 C14.34 5.68 13.68 4.36 13 3 C11.68 3 10.36 3 9 3 C9 3.66 9 4.32 9 5 C9.66 5.33 10.32 5.66 11 6 C9.37419034 5.88601335 7.74932843 5.75844341 6.125 5.625 C5.22007813 5.55539063 4.31515625 5.48578125 3.3828125 5.4140625 C1 5 1 5 -1 3 C-0.67 2.01 -0.34 1.02 0 0 Z " fill="#B69708" transform="translate(84,115)"/>
<path d="M0 0 C1.33333333 0.33333333 2.66666667 0.66666667 4 1 C4.70125 1.144375 5.4025 1.28875 6.125 1.4375 C8 2 8 2 10 4 C11.65261839 5.02304948 13.31791365 6.02616054 15 7 C14.01 8.485 14.01 8.485 13 10 C8.71 7.69 4.42 5.38 0 3 C0 2.01 0 1.02 0 0 Z " fill="#EBECF3" transform="translate(325,126)"/>
<path d="M0 0 C1.51400391 0.01740234 1.51400391 0.01740234 3.05859375 0.03515625 C4.07050781 0.04417969 5.08242188 0.05320312 6.125 0.0625 C7.29869141 0.07990234 7.29869141 0.07990234 8.49609375 0.09765625 C8.49609375 0.75765625 8.49609375 1.41765625 8.49609375 2.09765625 C7.83609375 2.09765625 7.17609375 2.09765625 6.49609375 2.09765625 C6.49609375 3.74765625 6.49609375 5.39765625 6.49609375 7.09765625 C5.83609375 7.09765625 5.17609375 7.09765625 4.49609375 7.09765625 C4.49609375 5.44765625 4.49609375 3.79765625 4.49609375 2.09765625 C2.51609375 2.09765625 0.53609375 2.09765625 -1.50390625 2.09765625 C-1.50390625 3.08765625 -1.50390625 4.07765625 -1.50390625 5.09765625 C-0.51390625 5.09765625 0.47609375 5.09765625 1.49609375 5.09765625 C1.49609375 5.75765625 1.49609375 6.41765625 1.49609375 7.09765625 C-0.15390625 6.76765625 -1.80390625 6.43765625 -3.50390625 6.09765625 C-3.54662725 4.4315372 -3.54454457 2.7638274 -3.50390625 1.09765625 C-2.50390625 0.09765625 -2.50390625 0.09765625 0 0 Z " fill="#B9ECB4" transform="translate(370.50390625,268.90234375)"/>
<path d="M0 0 C0.33 0.66 0.66 1.32 1 2 C0.67 2.66 0.34 3.32 0 4 C0.99 3.67 1.98 3.34 3 3 C2.57742724 4.4835001 2.13643678 5.96176424 1.6875 7.4375 C1.44386719 8.26121094 1.20023437 9.08492187 0.94921875 9.93359375 C0.63597656 10.61550781 0.32273437 11.29742187 0 12 C-0.99 12.33 -1.98 12.66 -3 13 C-3.66 12.67 -4.32 12.34 -5 12 C-4.125 7.25 -4.125 7.25 -3 5 C-2.34 5 -1.68 5 -1 5 C-0.67 3.35 -0.34 1.7 0 0 Z " fill="#98080C" transform="translate(266,127)"/>
<path d="M0 0 C3.125 0.375 3.125 0.375 6 1 C6.33 2.98 6.66 4.96 7 7 C4.36 7 1.72 7 -1 7 C-1.625 4.625 -1.625 4.625 -2 2 C-1.34 1.34 -0.68 0.68 0 0 Z " fill="#9AE392" transform="translate(152,173)"/>
<path d="M0 0 C2.8992226 0.46761655 3.86675182 0.86675182 6 3 C6.625 5.125 6.625 5.125 7 7 C6.34 7 5.68 7 5 7 C5 7.66 5 8.32 5 9 C3.02 8.34 1.04 7.68 -1 7 C-1.04254356 5.00045254 -1.04080783 2.99958364 -1 1 C-0.67 0.67 -0.34 0.34 0 0 Z " fill="#CAE4CD" transform="translate(320,119)"/>
<path d="M0 0 C0.99 0.33 1.98 0.66 3 1 C3 1.66 3 2.32 3 3 C7.14093698 3.20970559 7.14093698 3.20970559 11 2 C10.67 3.65 10.34 5.3 10 7 C3.57451737 8.33359073 3.57451737 8.33359073 1.0625 6.875 C-0.30361625 4.46420662 -0.22111261 2.72705554 0 0 Z " fill="#1F1F28" transform="translate(136,124)"/>
<path d="M0 0 C2.375 -0.125 2.375 -0.125 5 0 C5.66 0.66 6.32 1.32 7 2 C6.46428571 5.53571429 6.46428571 5.53571429 5 7 C3.33382885 7.04063832 1.66611905 7.042721 0 7 C0 4.69 0 2.38 0 0 Z " fill="#9FE598" transform="translate(340,269)"/>
<path d="M0 0 C0.66 0.33 1.32 0.66 2 1 C2 1.66 2 2.32 2 3 C3.65 3.33 5.3 3.66 7 4 C7.33 4.99 7.66 5.98 8 7 C3.74433453 8.16063604 0.3164922 7.76173392 -4 7 C-2.92598892 4.08482708 -2.22189824 2.22189824 0 0 Z " fill="#595961" transform="translate(253,125)"/>
<path d="M0 0 C5.9129304 0.64270983 11.34244531 2.19003784 17 4 C17 4.33 17 4.66 17 5 C10.54107286 5.40368295 5.93891422 4.5915262 0 2 C0 1.34 0 0.68 0 0 Z " fill="#1E271B" transform="translate(183,128)"/>
<path d="M0 0 C3.34373475 0.55728913 6.03312999 1.35173889 9 3 C9 3.66 9 4.32 9 5 C10.65 5.33 12.3 5.66 14 6 C14 6.99 14 7.98 14 9 C8.25656667 7.71065782 4.57776674 5.73695244 0 2 C0 1.34 0 0.68 0 0 Z " fill="#A8DFA8" transform="translate(327,124)"/>
<path d="M0 0 C3.33864404 0.57562828 4.69102632 1.59063616 7 4 C7.99 4.33 8.98 4.66 10 5 C9.67 5.99 9.34 6.98 9 8 C7.68 7.67 6.36 7.34 5 7 C4.67 7.66 4.34 8.32 4 9 C2.68 8.01 1.36 7.02 0 6 C0.66 6 1.32 6 2 6 C1.34 5.01 0.68 4.02 0 3 C0 2.01 0 1.02 0 0 Z " fill="#B2DAB9" transform="translate(351,206)"/>
<path d="M0 0 C3.3 0.33 6.6 0.66 10 1 C10 2.32 10 3.64 10 5 C3.6 5.36923077 3.6 5.36923077 0.5625 3.5 C0.046875 3.005 -0.46875 2.51 -1 2 C-0.67 1.34 -0.34 0.68 0 0 Z " fill="#7B6810" transform="translate(103,119)"/>
<path d="M0 0 C1.66611905 -0.042721 3.33382885 -0.04063832 5 0 C6 1 6 1 6.0625 3.5625 C6.041875 4.366875 6.02125 5.17125 6 6 C4.02 6.33 2.04 6.66 0 7 C0 4.69 0 2.38 0 0 Z " fill="#ADE9A7" transform="translate(152,158)"/>
<path d="M0 0 C4.75481646 0.57634139 7.97048212 2.55068521 12 5 C11.67 5.99 11.34 6.98 11 8 C10.0925 7.484375 9.185 6.96875 8.25 6.4375 C5.22210089 4.76123652 5.22210089 4.76123652 2.625 5.3125 C2.08875 5.539375 1.5525 5.76625 1 6 C0.4465236 3.92446352 0 2.15634036 0 0 Z " fill="#BFE3BF" transform="translate(257,152)"/>
<path d="M0 0 C2 0 4 0 6 0 C6 2.31 6 4.62 6 7 C5.01 7 4.02 7 3 7 C2.67 6.34 2.34 5.68 2 5 C1.67 5.66 1.34 6.32 1 7 C0.34 7 -0.32 7 -1 7 C-1.04254356 5.00045254 -1.04080783 2.99958364 -1 1 C-0.67 0.67 -0.34 0.34 0 0 Z " fill="#C0EEBC" transform="translate(391,269)"/>
<path d="M0 0 C1.67542976 0.28604898 3.34385343 0.61781233 5 1 C5 2.65 5 4.3 5 6 C3.34385343 6.38218767 1.67542976 6.71395102 0 7 C-1 6 -1 6 -1.125 3.5 C-1 1 -1 1 0 0 Z " fill="#A7E7A0" transform="translate(384,269)"/>
<path d="M0 0 C0.66 0.33 1.32 0.66 2 1 C2.625 3.5625 2.625 3.5625 3 6 C3.66 6 4.32 6 5 6 C4.67 5.01 4.34 4.02 4 3 C4.99 3 5.98 3 7 3 C7 4.32 7 5.64 7 7 C4.03 7 1.06 7 -2 7 C-1.125 1.125 -1.125 1.125 0 0 Z " fill="#68686E" transform="translate(137,62)"/>
<path d="M0 0 C4.42066456 1.85667911 8.72934283 3.81259023 13 6 C12.67 6.99 12.34 7.98 12 9 C7.21993392 7.08797357 3.20227047 4.97233765 -1 2 C-0.67 1.34 -0.34 0.68 0 0 Z " fill="#A8DDAA" transform="translate(331,195)"/>
<path d="M0 0 C2.64 1.65 5.28 3.3 8 5 C7.67 5.99 7.34 6.98 7 8 C6.01 7.67 5.02 7.34 4 7 C3.67 7.66 3.34 8.32 3 9 C0.53721199 6.53721199 0.00228745 4.29323018 -1 1 C-0.67 0.67 -0.34 0.34 0 0 Z " fill="#C6E2CB" transform="translate(310,181)"/>
<path d="M0 0 C1.67542976 0.28604898 3.34385343 0.61781233 5 1 C5.5625 2.9375 5.5625 2.9375 6 5 C5 6 5 6 1.9375 6.0625 C0.4834375 6.0315625 0.4834375 6.0315625 -1 6 C-1.042721 4.33388095 -1.04063832 2.66617115 -1 1 C-0.67 0.67 -0.34 0.34 0 0 Z " fill="#FF9FFF" transform="translate(242,179)"/>
<path d="M0 0 C1.65 0 3.3 0 5 0 C6 4.75 6 4.75 6 7 C4 7 2 7 0 7 C0 4.69 0 2.38 0 0 Z " fill="#BEEDB9" transform="translate(159,158)"/>
<path d="M0 0 C0.598125 0.185625 1.19625 0.37125 1.8125 0.5625 C4.16408762 1.22093687 4.16408762 1.22093687 7 0 C7 1.98 7 3.96 7 6 C6.401875 5.814375 5.80375 5.62875 5.1875 5.4375 C2.83591238 4.77906313 2.83591238 4.77906313 0 6 C0 4.02 0 2.04 0 0 Z " fill="#D2F2CF" transform="translate(365,277)"/>
<path d="M0 0 C2.125 0.9375 2.125 0.9375 4 2 C3.43628586 5.26954202 2.50037734 6.82575883 0 9 C0 8.01 0 7.02 0 6 C-0.66 6 -1.32 6 -2 6 C-2 4.35 -2 2.7 -2 1 C-1.34 0.67 -0.68 0.34 0 0 Z " fill="#E601E7" transform="translate(231,145)"/>
<path d="M0 0 C3 2 3 2 5 5 C7.05003955 6.19232613 7.05003955 6.19232613 9 7 C8.67 7.99 8.34 8.98 8 10 C5.69 9.01 3.38 8.02 1 7 C1 6.34 1 5.68 1 5 C0.34 5 -0.32 5 -1 5 C-0.67 3.35 -0.34 1.7 0 0 Z " fill="#A0DC9C" transform="translate(248,143)"/>
<path d="M0 0 C1.67542976 0.28604898 3.34385343 0.61781233 5 1 C4.67 2.65 4.34 4.3 4 6 C2.35 6 0.7 6 -1 6 C-1.042721 4.33388095 -1.04063832 2.66617115 -1 1 C-0.67 0.67 -0.34 0.34 0 0 Z " fill="#A9E8A3" transform="translate(359,277)"/>
<path d="M0 0 C2.97 0.495 2.97 0.495 6 1 C6 1.66 6 2.32 6 3 C5.01 3.495 5.01 3.495 4 4 C3.01 5.485 3.01 5.485 2 7 C1.34 7 0.68 7 0 7 C0 6.34 0 5.68 0 5 C-1.32 4.67 -2.64 4.34 -4 4 C-4 3.34 -4 2.68 -4 2 C-2.68 2 -1.36 2 0 2 C0 1.34 0 0.68 0 0 Z " fill="#37C927" transform="translate(171,173)"/>
<path d="M0 0 C0.721875 0.45375 1.44375 0.9075 2.1875 1.375 C4.74894081 2.85494358 7.23277989 3.97217539 10 5 C9.67 5.99 9.34 6.98 9 8 C5.00544473 7.38545304 2.25533664 5.29353263 -1 3 C-0.67 2.01 -0.34 1.02 0 0 Z " fill="#ABDFAC" transform="translate(351,136)"/>
<path d="M0 0 C1.98 0 3.96 0 6 0 C6.5625 1.9375 6.5625 1.9375 7 4 C6 5 6 5 2.9375 5.0625 C1.4834375 5.0315625 1.4834375 5.0315625 0 5 C0 3.35 0 1.7 0 0 Z " fill="#8B8B90" transform="translate(115,131)"/>
<path d="M0 0 C3.37462715 0.54723683 5.08235 1.0549 8 3 C8.99 3.33 9.98 3.66 11 4 C10.34 5.32 9.68 6.64 9 8 C6 6 3 4 0 2 C0 1.34 0 0.68 0 0 Z " fill="#B0E2AF" transform="translate(302,110)"/>
<path d="M0 0 C2.31 0 4.62 0 7 0 C7.33 1.98 7.66 3.96 8 6 C6.68 6 5.36 6 4 6 C4 5.01 4 4.02 4 3 C2.68 3 1.36 3 0 3 C0 2.01 0 1.02 0 0 Z " fill="#29C619" transform="translate(161,167)"/>
<path d="M0 0 C5.71642118 -0.23332331 10.63636982 -0.12310361 16 2 C16.33 2.99 16.66 3.98 17 5 C8.585 3.02 8.585 3.02 0 1 C0 0.67 0 0.34 0 0 Z " fill="#2A2A20" transform="translate(167,121)"/>
<path d="M0 0 C1.67542976 0.28604898 3.34385343 0.61781233 5 1 C4.67 2.65 4.34 4.3 4 6 C2.68 5.67 1.36 5.34 0 5 C-0.5625 3.0625 -0.5625 3.0625 -1 1 C-0.67 0.67 -0.34 0.34 0 0 Z " fill="#12B501" transform="translate(398,191)"/>
<path d="M0 0 C7.4 1.4 7.4 1.4 10 4 C10.99 5.485 10.99 5.485 12 7 C10.33333333 7 8.66666667 7 7 7 C6.34 6.34 5.68 5.68 5 5 C3.700625 4.2575 3.700625 4.2575 2.375 3.5 C1.59125 3.005 0.8075 2.51 0 2 C0 1.34 0 0.68 0 0 Z " fill="#A7DEAA" transform="translate(373,151)"/>
<path d="M0 0 C2.92879371 0.62759865 5.36095629 1.58622659 8 3 C8 3.66 8 4.32 8 5 C5 6 5 6 1.8125 4.5625 C0.884375 4.046875 -0.04375 3.53125 -1 3 C-0.67 2.01 -0.34 1.02 0 0 Z " fill="#067A9D" transform="translate(133,41)"/>
<path d="M0 0 C0.598125 0.185625 1.19625 0.37125 1.8125 0.5625 C4.16408762 1.22093687 4.16408762 1.22093687 7 0 C7 1.98 7 3.96 7 6 C5.0625 5.6875 5.0625 5.6875 3 5 C2.67 4.01 2.34 3.02 2 2 C1.34 3.32 0.68 4.64 0 6 C0 4.02 0 2.04 0 0 Z " fill="#DDF6DA" transform="translate(183,166)"/>
<path d="M0 0 C2.31 0 4.62 0 7 0 C7 1.32 7 2.64 7 4 C4.69 4 2.38 4 0 4 C0 2.68 0 1.36 0 0 Z " fill="#A1A1A5" transform="translate(209,107)"/>
<path d="M0 0 C2.64 0 5.28 0 8 0 C8 1.32 8 2.64 8 4 C5.36 4 2.72 4 0 4 C0 2.68 0 1.36 0 0 Z " fill="#A8A8AC" transform="translate(275,98)"/>
<path d="M0 0 C2.31 0 4.62 0 7 0 C7 1.32 7 2.64 7 4 C4.69 4 2.38 4 0 4 C0 2.68 0 1.36 0 0 Z " fill="#A9A9AD" transform="translate(412,181)"/>
<path d="M0 0 C1.65 0 3.3 0 5 0 C4.814375 0.598125 4.62875 1.19625 4.4375 1.8125 C3.77906313 4.16408762 3.77906313 4.16408762 5 7 C3.35 6.67 1.7 6.34 0 6 C0 4 0 2 0 0 Z " fill="#C3EFBF" transform="translate(144,173)"/>
<path d="M0 0 C1.32 0 2.64 0 4 0 C4 1.98 4 3.96 4 6 C2.35 6.33 0.7 6.66 -1 7 C-1 3 -1 3 0 0 Z " fill="#C5EFC1" transform="translate(167,158)"/>
<path d="M0 0 C2.31 0 4.62 0 7 0 C6.67 1.65 6.34 3.3 6 5 C4.02 5 2.04 5 0 5 C0 3.35 0 1.7 0 0 Z " fill="#9A9A9E" transform="translate(37,129)"/>
<path d="M0 0 C4.71403788 0.47939368 8.66579301 0.96834048 13 3 C13 3.66 13 4.32 13 5 C8.71 4.01 4.42 3.02 0 2 C0 1.34 0 0.68 0 0 Z " fill="#21201E" transform="translate(146,114)"/>
<path d="M0 0 C2.64 0 5.28 0 8 0 C7.67 1.32 7.34 2.64 7 4 C6.01 3.67 5.02 3.34 4 3 C1.85744207 3.38932856 1.85744207 3.38932856 0 4 C0 2.68 0 1.36 0 0 Z " fill="#B1B1B4" transform="translate(143,78)"/>
<path d="M0 0 C-0.57344937 2.86724686 -0.8614515 3.8614515 -3 6 C-4.32 5.34 -5.64 4.68 -7 4 C-6.67 3.01 -6.34 2.02 -6 1 C-3 0 -3 0 0 0 Z " fill="#A9DAAE" transform="translate(374,218)"/>
<path d="M0 0 C2.31 0.33 4.62 0.66 7 1 C6.67 2.32 6.34 3.64 6 5 C3.69 4.67 1.38 4.34 -1 4 C-0.67 2.68 -0.34 1.36 0 0 Z " fill="#AD9009" transform="translate(84,115)"/>
<path d="M0 0 C5.53846154 -0.36923077 5.53846154 -0.36923077 7.875 1.5 C8.24625 1.995 8.6175 2.49 9 3 C5.62182575 3.84454356 3.32534757 4.10844919 0 3 C0 2.01 0 1.02 0 0 Z " fill="#ACACAF" transform="translate(194,115)"/>
<path d="M0 0 C2 0 4 0 6 0 C6 1.65 6 3.3 6 5 C3.69 5 1.38 5 -1 5 C-0.67 3.35 -0.34 1.7 0 0 Z " fill="#A4A4A8" transform="translate(96,13)"/>
<path d="M0 0 C0.598125 0.185625 1.19625 0.37125 1.8125 0.5625 C4.16408762 1.22093687 4.16408762 1.22093687 7 0 C7 1.32 7 2.64 7 4 C4.69 4.33 2.38 4.66 0 5 C0 3.35 0 1.7 0 0 Z " fill="#A5A5A9" transform="translate(54,27)"/>
<path d="M0 0 C1.65 0 3.3 0 5 0 C5 1.98 5 3.96 5 6 C3.35 6 1.7 6 0 6 C0 4.02 0 2.04 0 0 Z " fill="#D9F4D6" transform="translate(373,277)"/>
<path d="M0 0 C1.32 0.66 2.64 1.32 4 2 C4 3.32 4 4.64 4 6 C1.69 5.67 -0.62 5.34 -3 5 C-2.67 4.34 -2.34 3.68 -2 3 C-1.34 3 -0.68 3 0 3 C0 2.01 0 1.02 0 0 Z " fill="#818187" transform="translate(340,226)"/>
<path d="M0 0 C1.65 0 3.3 0 5 0 C5 1.98 5 3.96 5 6 C3.35 6 1.7 6 0 6 C0 4.02 0 2.04 0 0 Z " fill="#FFD0FF" transform="translate(235,179)"/>
<path d="M0 0 C2.475 0.495 2.475 0.495 5 1 C5 1.99 5 2.98 5 4 C5.66 4.33 6.32 4.66 7 5 C4.69 5 2.38 5 0 5 C0 3.35 0 1.7 0 0 Z " fill="#AFAFB3" transform="translate(195,139)"/>
<path d="M0 0 C2.31 0 4.62 0 7 0 C6.67 1.32 6.34 2.64 6 4 C3.69 4 1.38 4 -1 4 C-0.67 2.68 -0.34 1.36 0 0 Z " fill="#B7B7BA" transform="translate(165,83)"/>
<path d="M0 0 C0.598125 0.185625 1.19625 0.37125 1.8125 0.5625 C4.16408762 1.22093687 4.16408762 1.22093687 7 0 C7 1.66666667 7 3.33333333 7 5 C4.69 5 2.38 5 0 5 C0 3.35 0 1.7 0 0 Z " fill="#99999D" transform="translate(163,53)"/>
<path d="M0 0 C1.65 0 3.3 0 5 0 C5 1.98 5 3.96 5 6 C3.35 6 1.7 6 0 6 C0 4 0 2 0 0 Z " fill="#C5EFC1" transform="translate(373,262)"/>
<path d="M0 0 C1.65 0 3.3 0 5 0 C5 1.98 5 3.96 5 6 C3.35 6 1.7 6 0 6 C0 4.02 0 2.04 0 0 Z " fill="#FFD7FF" transform="translate(229,179)"/>
<path d="M0 0 C2.475 0.495 2.475 0.495 5 1 C5 3 5 5 5 7 C3.35 7 1.7 7 0 7 C0.33 5.68 0.66 4.36 1 3 C1.66 3 2.32 3 3 3 C3 2.34 3 1.68 3 1 C2.01 0.67 1.02 0.34 0 0 Z " fill="#C8F0C4" transform="translate(174,173)"/>
<path d="M0 0 C2.475 0.495 2.475 0.495 5 1 C5.33 2.65 5.66 4.3 6 6 C4.02 6 2.04 6 0 6 C0 4.02 0 2.04 0 0 Z " fill="#81DD77" transform="translate(133,166)"/>
<path d="M0 0 C2.31 0 4.62 0 7 0 C6.67 0.99 6.34 1.98 6 3 C5.01 3 4.02 3 3 3 C3 3.66 3 4.32 3 5 C3.99 5.33 4.98 5.66 6 6 C4.35 6 2.7 6 1 6 C0.67 4.02 0.34 2.04 0 0 Z " fill="#D3F3CF" transform="translate(152,166)"/>
<path d="M0 0 C3.465 1.98 3.465 1.98 7 4 C6.01 5.485 6.01 5.485 5 7 C3.02 5.68 1.04 4.36 -1 3 C-0.67 2.01 -0.34 1.02 0 0 Z " fill="#A9DDAC" transform="translate(389,159)"/>
<path d="M0 0 C1.98 0 3.96 0 6 0 C6 0.66 6 1.32 6 2 C5.34 2 4.68 2 4 2 C4 3.65 4 5.3 4 7 C3.34 7 2.68 7 2 7 C2 5.35 2 3.7 2 2 C1.34 2 0.68 2 0 2 C0 1.34 0 0.68 0 0 Z " fill="#C0EEBC" transform="translate(354,269)"/>
<path d="M0 0 C1.98 0 3.96 0 6 0 C6 1.65 6 3.3 6 5 C5.34 5 4.68 5 4 5 C4 4.34 4 3.68 4 3 C2.68 3 1.36 3 0 3 C0 2.01 0 1.02 0 0 Z " fill="#12C000" transform="translate(369,271)"/>
<path d="M0 0 C3.465 1.98 3.465 1.98 7 4 C6.01 5.485 6.01 5.485 5 7 C3.02 5.68 1.04 4.36 -1 3 C-0.67 2.01 -0.34 1.02 0 0 Z " fill="#AEE2AD" transform="translate(295,105)"/>
<path d="M0 0 C1.32 0 2.64 0 4 0 C4 1.98 4 3.96 4 6 C2.35 6 0.7 6 -1 6 C-1 3 -1 3 0 0 Z " fill="#FFD3FF" transform="translate(217,179)"/>
<path d="M0 0 C2.97 0.495 2.97 0.495 6 1 C6 2.32 6 3.64 6 5 C4.02 4.34 2.04 3.68 0 3 C0 2.01 0 1.02 0 0 Z " fill="#89DA83" transform="translate(287,102)"/>
<path d="M0 0 C1.98 0 3.96 0 6 0 C6 1.32 6 2.64 6 4 C4.02 4 2.04 4 0 4 C0 2.68 0 1.36 0 0 Z " fill="#A4A4A8" transform="translate(20,59)"/>
<path d="M0 0 C0.66 0.33 1.32 0.66 2 1 C1.67 1.66 1.34 2.32 1 3 C0.7834375 4.2684375 0.7834375 4.2684375 0.5625 5.5625 C0.376875 6.366875 0.19125 7.17125 0 8 C-0.99 8.495 -0.99 8.495 -2 9 C-2.125 5.625 -2.125 5.625 -2 2 C-1.34 1.34 -0.68 0.68 0 0 Z " fill="#2F2F38" transform="translate(95,10)"/>
<path d="M0 0 C0.33 0.66 0.66 1.32 1 2 C1.66 2 2.32 2 3 2 C3 3.65 3 5.3 3 7 C2.34 6.34 1.68 5.68 1 5 C-1.58354218 4.83312552 -1.58354218 4.83312552 -4 5 C-4 4.01 -4 3.02 -4 2 C-2.68 2 -1.36 2 0 2 C0 1.34 0 0.68 0 0 Z " fill="#31C822" transform="translate(353,269)"/>
<path d="M0 0 C0.99 0 1.98 0 3 0 C3.33 0.66 3.66 1.32 4 2 C4.66 2 5.32 2 6 2 C6 2.99 6 3.98 6 5 C4.35 5 2.7 5 1 5 C0.67 3.35 0.34 1.7 0 0 Z " fill="#666666" transform="translate(314,210)"/>
<path d="M0 0 C1.32 1.65 2.64 3.3 4 5 C3.67 5.66 3.34 6.32 3 7 C-0.465 5.02 -0.465 5.02 -4 3 C-2.68 2.01 -1.36 1.02 0 0 Z " fill="#DFE3E7" transform="translate(290,171)"/>
<path d="M0 0 C1.65 0 3.3 0 5 0 C5 1.32 5 2.64 5 4 C3.68 4.33 2.36 4.66 1 5 C0.67 3.35 0.34 1.7 0 0 Z " fill="#77DA6D" transform="translate(175,167)"/>
<path d="M0 0 C2.31 0.33 4.62 0.66 7 1 C7 1.99 7 2.98 7 4 C4.69 3.34 2.38 2.68 0 2 C0 1.34 0 0.68 0 0 Z " fill="#201F23" transform="translate(183,128)"/>
<path d="M0 0 C1.65 1.65 3.3 3.3 5 5 C2.69 4.67 0.38 4.34 -2 4 C-2 3.01 -2 2.02 -2 1 C-1.34 0.67 -0.68 0.34 0 0 Z " fill="#E4EAEF" transform="translate(343,203)"/>
<path d="M0 0 C0.99 0 1.98 0 3 0 C5 2 5 2 6 5 C3.625 4.6875 3.625 4.6875 1 4 C0.34 3.01 -0.32 2.02 -1 1 C-0.67 0.67 -0.34 0.34 0 0 Z " fill="#E8EBF3" transform="translate(321,192)"/>
<path d="M0 0 C1.98 0.495 1.98 0.495 4 1 C4.33 2.32 4.66 3.64 5 5 C2 5 2 5 -1 3 C-0.67 2.01 -0.34 1.02 0 0 Z " fill="#B0DFB3" transform="translate(325,191)"/>
<path d="M0 0 C2.475 0.99 2.475 0.99 5 2 C4.67 2.99 4.34 3.98 4 5 C2.0625 4.6875 2.0625 4.6875 0 4 C-0.33 3.01 -0.66 2.02 -1 1 C-0.67 0.67 -0.34 0.34 0 0 Z " fill="#80D57D" transform="translate(401,167)"/>
<path d="M0 0 C4.02992782 0.55312735 8.02022924 1.1558062 12 2 C12 2.33 12 2.66 12 3 C3.42857143 3.28571429 3.42857143 3.28571429 0 1 C0 0.67 0 0.34 0 0 Z " fill="#15212C" transform="translate(183,124)"/>
<path d="M0 0 C1.65 0.33 3.3 0.66 5 1 C4.34 2.65 3.68 4.3 3 6 C2.34 5.67 1.68 5.34 1 5 C1 4.34 1 3.68 1 3 C0.34 2.67 -0.32 2.34 -1 2 C-0.67 1.34 -0.34 0.68 0 0 Z " fill="#640C13" transform="translate(274,114)"/>
<path d="M0 0 C1.65 0.99 3.3 1.98 5 3 C4.67 3.99 4.34 4.98 4 6 C2.35 5.01 0.7 4.02 -1 3 C-0.67 2.01 -0.34 1.02 0 0 Z " fill="#AADEAC" transform="translate(319,187)"/>
<path d="M0 0 C1.65 0 3.3 0 5 0 C4.67 1.65 4.34 3.3 4 5 C2.68 4.67 1.36 4.34 0 4 C0 2.68 0 1.36 0 0 Z " fill="#67D65B" transform="translate(155,167)"/>
<path d="M0 0 C3.465 1.485 3.465 1.485 7 3 C6.67 3.99 6.34 4.98 6 6 C3.96166576 4.7260411 1.96147874 3.38938077 0 2 C0 1.34 0 0.68 0 0 Z " fill="#A9E1A7" transform="translate(262,154)"/>
<path d="M0 0 C1.65 0 3.3 0 5 0 C5.33 0.99 5.66 1.98 6 3 C2.71303767 3.79953138 1.28976808 4.09658936 -2 3 C-1.34 3 -0.68 3 0 3 C0 2.01 0 1.02 0 0 Z " fill="#BFBFC1" transform="translate(255,129)"/>
<path d="M0 0 C0.66 0.33 1.32 0.66 2 1 C1.67 2.65 1.34 4.3 1 6 C-0.32 6 -1.64 6 -3 6 C-2.67 4.68 -2.34 3.36 -2 2 C-1.34 2 -0.68 2 0 2 C0 1.34 0 0.68 0 0 Z " fill="#410F17" transform="translate(269,125)"/>
<path d="M0 0 C1.65 0 3.3 0 5 0 C4.67 1.32 4.34 2.64 4 4 C2.35 3.67 0.7 3.34 -1 3 C-0.67 2.01 -0.34 1.02 0 0 Z " fill="#BB9B08" transform="translate(103,119)"/>
<path d="M0 0 C-1.98 0.99 -1.98 0.99 -4 2 C-3.67 2.66 -3.34 3.32 -3 4 C-3.99 4 -4.98 4 -6 4 C-6.33 4.99 -6.66 5.98 -7 7 C-7.6875 5.1875 -7.6875 5.1875 -8 3 C-5.85915306 -0.33020635 -3.75910189 -0.30479204 0 0 Z " fill="#3B3B44" transform="translate(281,94)"/>
<path d="M0 0 C-1.98 0.99 -1.98 0.99 -4 2 C-3.67 2.66 -3.34 3.32 -3 4 C-3.99 4 -4.98 4 -6 4 C-6.33 4.99 -6.66 5.98 -7 7 C-7.6875 5.1875 -7.6875 5.1875 -8 3 C-5.85915306 -0.33020635 -3.75910189 -0.30479204 0 0 Z " fill="#2D2D36" transform="translate(149,74)"/>
<path d="M0 0 C0.99 0 1.98 0 3 0 C3 0.66 3 1.32 3 2 C3.66 2 4.32 2 5 2 C5.33 1.34 5.66 0.68 6 0 C5.67 1.32 5.34 2.64 5 4 C3.02 4 1.04 4 -1 4 C-0.67 2.68 -0.34 1.36 0 0 Z " fill="#BEBEC1" transform="translate(164,70)"/>
<path d="M0 0 C0.66 0 1.32 0 2 0 C2 1.32 2 2.64 2 4 C2.99 4 3.98 4 5 4 C5 4.66 5 5.32 5 6 C3.35 5.67 1.7 5.34 0 5 C0 3.35 0 1.7 0 0 Z " fill="#C5EFC1" transform="translate(367,270)"/>
<path d="M0 0 C0.99 0.33 1.98 0.66 3 1 C2.34 2.98 1.68 4.96 1 7 C0.34 7 -0.32 7 -1 7 C-1.04254356 5.00045254 -1.04080783 2.99958364 -1 1 C-0.67 0.67 -0.34 0.34 0 0 Z " fill="#CCF1C8" transform="translate(391,269)"/>
<path d="M0 0 C1.65 0.99 3.3 1.98 5 3 C4.67 3.99 4.34 4.98 4 6 C2.35 5.01 0.7 4.02 -1 3 C-0.67 2.01 -0.34 1.02 0 0 Z " fill="#A6DBA9" transform="translate(362,212)"/>
<path d="M0 0 C1.65 0.99 3.3 1.98 5 3 C4.67 3.99 4.34 4.98 4 6 C2.35 5.01 0.7 4.02 -1 3 C-0.67 2.01 -0.34 1.02 0 0 Z " fill="#AADDAD" transform="translate(345,202)"/>
<path d="M0 0 C1.65 0.99 3.3 1.98 5 3 C4.67 3.99 4.34 4.98 4 6 C2.35 5.01 0.7 4.02 -1 3 C-0.67 2.01 -0.34 1.02 0 0 Z " fill="#B1E0B3" transform="translate(310,181)"/>
<path d="M0 0 C3.26954202 0.56371414 4.82575883 1.49962266 7 4 C4.69 3.67 2.38 3.34 0 3 C0 2.01 0 1.02 0 0 Z " fill="#EEF2F3" transform="translate(260,156)"/>
<path d="M0 0 C2.475 0.495 2.475 0.495 5 1 C5 2.32 5 3.64 5 5 C3.68 4.67 2.36 4.34 1 4 C0.67 2.68 0.34 1.36 0 0 Z " fill="#B2E2B2" transform="translate(313,116)"/>
<path d="M0 0 C0.99 1.32 1.98 2.64 3 4 C0.1875 4.625 0.1875 4.625 -3 5 C-3.99 4.34 -4.98 3.68 -6 3 C-5.195625 2.690625 -4.39125 2.38125 -3.5625 2.0625 C-1.10919595 1.23664655 -1.10919595 1.23664655 0 0 Z " fill="#CFCFD1" transform="translate(146,70)"/>
<path d="M0 0 C3.465 1.485 3.465 1.485 7 3 C3.25 6 3.25 6 1 6 C1.33 4.68 1.66 3.36 2 2 C1.34 2 0.68 2 0 2 C0 1.34 0 0.68 0 0 Z " fill="#086A89" transform="translate(128,37)"/>
</svg>
