<svg xmlns="http://www.w3.org/2000/svg" width="522" height="307" viewBox="0 0 522 307"><path d="M0 0 C172.26 0 344.52 0 522 0 C522 101.31 522 202.62 522 307 C349.74 307 177.48 307 0 307 C0 205.69 0 104.38 0 0 Z " fill="#EFEDFE" transform="translate(0,0)"/><path d="M0 0 C172.26 0 344.52 0 522 0 C522 36.3 522 72.6 522 110 C518.37 110 514.74 110 511 110 C511 109.01 511 108.02 511 107 C510.34 106.34 509.68 105.68 509 105 C509.66 105 510.32 105 511 105 C510.67 104.34 510.34 103.68 510 103 C509.79 103.49 509.58 103.98 509.37 104.48 C508 106 508 106 505.39 106.34 C504.31 106.32 503.23 106.31 502.12 106.29 C501.54 106.29 500.97 106.28 500.38 106.28 C498.54 106.26 496.71 106.23 494.88 106.19 C493.63 106.17 492.39 106.16 491.14 106.15 C488.1 106.11 485.05 106.06 482 106 C481.67 106.66 481.34 107.32 481 108 C481 107.34 481 106.68 481 106 C478.69 106 476.38 106 474 106 C473.67 106.66 473.34 107.32 473 108 C473 107.34 473 106.68 473 106 C467.72 106 462.44 106 457 106 C457.33 104.02 457.66 102.04 458 100 C458.95 93.76 457.34 90.47 453.8 85.37 C450.9 81.55 447.66 78.12 444.31 74.69 C442.89 73.2 441.46 71.71 440.04 70.22 C439.35 69.5 438.66 68.78 437.95 68.04 C435.32 65.29 432.75 62.5 430.19 59.69 C429.76 59.22 429.33 58.75 428.89 58.27 C426.59 55.75 424.3 53.23 422.02 50.7 C421.53 50.16 421.03 49.61 420.52 49.05 C419.58 48.01 418.64 46.96 417.7 45.92 C415.31 43.29 412.93 41.02 410 39 C410.66 38.34 411.32 37.68 412 37 C412.43 34.63 412.37 32.37 412 30 C410.31 27.96 409.12 28.02 406.5 27.69 C404.01 27.83 404.01 27.83 402.19 29.06 C400.36 32.04 400.8 34.54 401 38 C399.81 38.49 399.81 38.49 398.59 38.99 C397.53 39.43 396.47 39.86 395.38 40.31 C394.82 40.54 394.27 40.77 393.7 41 C390.92 42.16 388.21 43.36 385.56 44.81 C382.7 46.14 381.11 46.57 378 46 C375.69 44.12 375.69 44.12 374 42 C374 41.34 374 40.68 374 40 C373.24 39.71 372.47 39.42 371.69 39.12 C369.54 38.23 367.85 37.36 366 36 C366.33 35.63 366.66 35.26 367 34.88 C368.44 32.17 368.26 30.01 368 27 C366.12 24.71 366.12 24.71 363.06 24.62 C359.96 24.71 359.96 24.71 358.06 26.69 C356.71 29.63 356.99 30.96 358 34 C358.64 35.01 359.31 36.02 360 37 C359.39 37.25 358.77 37.5 358.14 37.75 C348.41 41.75 338.83 46.06 329.23 50.35 C314.99 56.72 300.75 63.05 286.31 68.96 C280.61 71.31 275.01 73.8 269.44 76.46 C264.53 78.8 259.53 80.91 254.5 83 C246.87 86.18 239.33 89.51 231.88 93.1 C229.88 94.06 227.87 94.99 225.87 95.93 C217.71 99.81 210.79 103.97 204 110 C202.18 111.58 200.35 113.16 198.52 114.74 C197.28 115.81 196.05 116.88 194.82 117.96 C192.02 120.41 189.48 122.58 186 124 C186 124.66 186 125.32 186 126 C184.57 127.26 184.57 127.26 182.56 128.69 C179.44 130.94 176.43 133.26 173.44 135.69 C168.93 139.19 164.76 141.06 159.4 142.89 C153.4 144.98 148.22 147.35 143 151 C142.87 150.51 142.73 150.01 142.6 149.5 C142.42 148.86 142.24 148.22 142.06 147.56 C141.89 146.92 141.71 146.29 141.54 145.63 C141.13 143.98 141.13 143.98 140 143 C137.19 142.82 134.81 142.73 132.12 143.62 C130.73 145.09 130.73 145.09 130.56 147.94 C130.7 151.04 130.7 151.04 132.75 152.81 C134.86 153.93 136.65 154.58 139 155 C136.68 163.59 132.31 171.3 125.78 177.34 C123.93 179.07 122.28 180.89 120.62 182.81 C117.82 186.06 114.99 189.29 112.12 192.5 C111.36 193.36 110.6 194.21 109.82 195.09 C109.22 195.72 108.62 196.35 108 197 C107.67 197 107.34 197 107 197 C106.97 195.47 106.97 195.47 106.94 193.91 C106.86 190.13 106.78 186.36 106.68 182.58 C106.64 180.95 106.61 179.31 106.58 177.68 C106.53 175.33 106.47 172.98 106.41 170.63 C106.4 169.9 106.39 169.17 106.38 168.41 C106.38 164.25 106.38 164.25 104 161 C101.76 160.69 99.62 160.49 97.38 160.38 C96.76 160.34 96.15 160.3 95.52 160.26 C94.02 160.16 92.51 160.08 91 160 C90.94 159 90.88 158 90.82 156.97 C90.73 155.67 90.65 154.37 90.56 153.06 C90.52 152.4 90.48 151.74 90.44 151.06 C90.49 147.75 90.49 147.75 89 145 C86.88 144.9 84.78 144.86 82.66 144.87 C82 144.87 81.34 144.87 80.65 144.87 C78.46 144.86 76.26 144.86 74.06 144.87 C72.54 144.87 71.02 144.87 69.5 144.86 C66.31 144.86 63.12 144.86 59.93 144.87 C55.83 144.88 51.73 144.87 47.63 144.87 C44.49 144.86 41.35 144.86 38.2 144.87 C36.69 144.87 35.18 144.87 33.67 144.86 C31.56 144.86 29.45 144.87 27.34 144.87 C26.71 144.87 26.08 144.87 25.43 144.86 C22.45 144.65 22.45 144.65 20 146 C19.91 148.38 19.88 150.72 19.9 153.1 C19.9 154.16 19.9 154.16 19.91 155.25 C19.91 157.52 19.92 159.79 19.94 162.06 C19.94 163.6 19.95 165.14 19.95 166.67 C19.96 170.45 19.98 174.22 20 178 C28.98 178.02 37.96 178.04 46.94 178.05 C51.11 178.06 55.28 178.06 59.44 178.08 C63.46 178.09 67.48 178.09 71.5 178.09 C73.04 178.1 74.58 178.1 76.12 178.11 C78.26 178.11 80.41 178.11 82.55 178.11 C83.19 178.12 83.84 178.12 84.5 178.12 C87.52 178.36 87.52 178.36 90 177 C90.15 175.81 90.25 174.6 90.32 173.4 C90.36 172.68 90.4 171.97 90.44 171.22 C90.48 170.47 90.52 169.72 90.56 168.94 C90.63 167.8 90.63 167.8 90.69 166.64 C90.8 164.76 90.9 162.88 91 161 C92.94 160.89 94.87 160.81 96.81 160.75 C97.89 160.7 98.97 160.66 100.08 160.61 C103 161 103 161 104.65 162.55 C106.47 165.85 106.5 168.87 106.54 172.55 C106.55 173.28 106.56 174.01 106.58 174.76 C106.6 176.3 106.61 177.85 106.61 179.39 C106.62 181.73 106.69 184.07 106.76 186.41 C106.95 198.94 106.95 198.94 102.77 203.73 C101.54 204.85 100.28 205.94 99 207 C98.13 207.94 97.27 208.9 96.45 209.88 C96.06 210.32 95.68 210.76 95.29 211.21 C82.68 225.93 75.64 242.58 69.69 260.81 C69.34 261.87 68.99 262.94 68.63 264.03 C66.89 269.51 65.59 274.5 65.48 280.26 C65.24 281.12 65.24 281.12 65 282 C63.69 282.71 62.35 283.37 61 284 C59.83 286.86 59.83 286.86 60 290 C61.48 292.56 61.48 292.56 64 294 C67.39 293.84 68.58 293.42 71 291 C71.09 289.79 71.09 289.79 71.19 288.56 C71.46 287.72 71.72 286.87 72 286 C73.66 285.29 75.32 284.59 77 283.92 C80.55 282.29 83.49 279.88 86.56 277.5 C87.26 276.97 87.95 276.44 88.67 275.89 C93.7 272.05 98.67 268.14 103.64 264.22 C110.36 258.91 117.18 253.72 124 248.53 C127.96 245.5 131.91 242.46 135.86 239.41 C138.07 237.72 140.27 236.03 142.48 234.34 C143.06 233.89 143.64 233.45 144.23 232.99 C145.33 232.16 146.42 231.32 147.51 230.49 C150.67 228.06 153.72 225.56 156.71 222.93 C158 222 158 222 160 222 C160.33 223.98 160.66 225.96 161 228 C159.68 227.34 158.36 226.68 157 226 C157.21 226.62 157.41 227.24 157.62 227.88 C157.75 228.58 157.87 229.28 158 230 C157.34 230.66 156.68 231.32 156 232 C156.31 233.15 156.62 234.29 156.94 235.44 C157.11 236.08 157.29 236.71 157.46 237.37 C157.87 239.02 157.87 239.02 159 240 C161.92 240.42 161.92 240.42 165 240 C167.1 238.48 167.1 238.48 168 236 C167.77 232.81 167.77 232.81 167 230 C170.3 229.67 173.6 229.34 177 229 C177.02 230.56 177.02 230.56 177.04 232.15 C177.1 236.01 177.18 239.87 177.26 243.73 C177.3 245.4 177.32 247.07 177.35 248.74 C177.38 251.15 177.43 253.55 177.49 255.95 C177.5 257.07 177.5 257.07 177.51 258.21 C177.6 261.44 177.77 263.56 179.27 266.46 C181.38 268.34 182.43 268.53 185.23 268.61 C186.03 268.64 186.84 268.67 187.66 268.71 C188.5 268.72 189.33 268.74 190.19 268.75 C191.03 268.78 191.88 268.81 192.75 268.84 C194.83 268.91 196.92 268.96 199 269 C199.06 270.07 199.12 271.14 199.18 272.25 C199.27 273.64 199.35 275.04 199.44 276.44 C199.48 277.14 199.52 277.85 199.56 278.58 C199.48 282.09 199.48 282.09 201 285 C203.12 285.1 205.22 285.14 207.34 285.13 C208.33 285.13 208.33 285.13 209.35 285.13 C211.54 285.14 213.74 285.14 215.94 285.13 C217.46 285.13 218.98 285.13 220.5 285.14 C223.69 285.14 226.88 285.14 230.07 285.13 C234.17 285.12 238.27 285.13 242.37 285.13 C245.51 285.14 248.65 285.14 251.8 285.13 C253.31 285.13 254.82 285.13 256.33 285.14 C258.44 285.14 260.55 285.13 262.66 285.13 C263.29 285.13 263.92 285.13 264.57 285.14 C267.55 285.35 267.55 285.35 270 284 C270 273.44 270 262.88 270 252 C246.9 252 223.8 252 200 252 C199.67 256.95 199.34 261.9 199 267 C196.04 267.05 193.08 267.09 190.12 267.12 C189.28 267.14 188.44 267.16 187.57 267.18 C186.77 267.18 185.96 267.19 185.13 267.2 C184.39 267.21 183.65 267.22 182.88 267.23 C181 267 181 267 179 265 C178.76 263.35 178.76 263.35 178.77 261.38 C178.77 260.27 178.77 260.27 178.77 259.13 C178.79 257.93 178.79 257.93 178.8 256.71 C178.81 255.89 178.81 255.07 178.81 254.23 C178.82 251.61 178.85 248.99 178.88 246.38 C178.89 244.6 178.89 242.83 178.9 241.05 C178.92 236.7 178.96 232.35 179 228 C179.82 227.82 180.64 227.65 181.48 227.47 C200.59 223.35 218.34 218.99 235.17 208.69 C239.02 206.39 243 204.45 247.03 202.49 C251.04 200.48 254.93 198.25 258.82 196 C259.54 195.67 260.26 195.34 261 195 C261.66 195.33 262.32 195.66 263 196 C262.93 197.76 262.87 199.52 262.8 201.27 C262.85 203.26 262.85 203.26 265 205 C268 205.33 268 205.33 271 205 C273.21 203.21 273.21 203.21 273.2 200.84 C273.17 200.02 273.15 199.21 273.12 198.38 C273.11 197.56 273.09 196.74 273.07 195.9 C273.05 195.27 273.02 194.65 273 194 C277.71 194.59 282.16 195.48 286.71 196.86 C287.32 197.04 287.94 197.22 288.57 197.41 C289.85 197.8 291.14 198.2 292.42 198.59 C294.36 199.18 296.3 199.75 298.24 200.32 C305.43 202.49 312.35 204.8 318 210 C318 210.66 318 211.32 318 212 C317.32 212.6 316.64 213.2 315.94 213.81 C313.7 215.83 313.7 215.83 314.06 218.56 C315.65 222.7 318.04 224.22 322 226 C320.02 226.99 320.02 226.99 318 228 C318 228.66 318 229.32 318 230 C316.02 230.99 316.02 230.99 314 232 C314.66 232.66 315.32 233.32 316 234 C315.34 234.66 314.68 235.32 314 236 C314 236.66 314 237.32 314 238 C312.02 238.99 312.02 238.99 310 240 C310.66 240.66 311.32 241.32 312 242 C310.02 242.99 310.02 242.99 308 244 C308.66 244.66 309.32 245.32 310 246 C308.02 246.99 308.02 246.99 306 248 C306.06 248.93 306.06 248.93 306.12 249.88 C306 252 306 252 304 254 C304 254.66 304 255.32 304 256 C303.34 256.66 302.68 257.32 302 258 C302 258.66 302 259.32 302 260 C301.34 260.66 300.68 261.32 300 262 C300 262.66 300 263.32 300 264 C299.34 264.66 298.68 265.32 298 266 C298 266.66 298 267.32 298 268 C297.34 268.66 296.68 269.32 296 270 C296 270.66 296 271.32 296 272 C295.34 272.66 294.68 273.32 294 274 C294 274.66 294 275.32 294 276 C293.34 276.66 292.68 277.32 292 278 C292.66 278.66 293.32 279.32 294 280 C292.68 280.66 291.36 281.32 290 282 C290 283.98 290 285.96 290 288 C288.68 288.66 287.36 289.32 286 290 C286 291.98 286 293.96 286 296 C284.68 296.66 283.36 297.32 282 298 C282.66 298.66 283.32 299.32 284 300 C283.34 300.66 282.68 301.32 282 302 C282 302.66 282 303.32 282 304 C279.1 306.74 277.11 307.37 273.17 307.37 C272.19 307.38 271.21 307.38 270.21 307.39 C269.14 307.38 268.07 307.37 266.97 307.36 C265.83 307.36 264.69 307.37 263.52 307.37 C260.36 307.38 257.2 307.36 254.05 307.35 C250.59 307.34 247.13 307.34 243.67 307.34 C236.96 307.34 230.25 307.33 223.54 307.31 C215.77 307.29 208.01 307.29 200.25 307.28 C179.75 307.27 159.25 307.23 138.75 307.19 C92.96 307.13 47.17 307.06 0 307 C0 205.69 0 104.38 0 0 Z " fill="#FAFAFE" transform="translate(0,0)"/><path d="M0 0 C1.06 1.94 1.06 1.94 2 4 C3.97 5.15 3.97 5.15 6 6 C6.66 6.66 7.32 7.32 8 8 C7.34 8.66 6.68 9.32 6 10 C5.67 13.13 5.52 15.18 7.12 17.94 C9.09 19.27 9.09 19.27 12.06 18.81 C15.1 18.23 15.1 18.23 17 16 C17.02 14.01 17.02 14.01 16.62 11.88 C16.51 11.15 16.4 10.43 16.29 9.68 C16.15 8.85 16.15 8.85 16 8 C19.04 6.82 22.08 5.66 25.12 4.5 C25.98 4.17 26.84 3.83 27.72 3.49 C36.93 0.02 36.93 0.02 41 1 C43.8 3.22 46.09 5.81 48.44 8.5 C49.07 9.2 49.7 9.89 50.35 10.61 C52.85 13.39 55.31 16.2 57.76 19.03 C62.61 24.61 67.65 29.99 72.75 35.35 C73.38 36.02 74.02 36.7 74.67 37.39 C75.24 37.99 75.81 38.59 76.39 39.2 C80.93 44.28 80.93 44.28 81.25 47.69 C81 50 81 50 80 51 C77.84 51.5 77.84 51.5 75 51 C72.54 48.91 70.58 46.44 68.56 43.94 C68.02 43.28 67.47 42.62 66.9 41.95 C65.26 39.97 63.63 37.99 62 36 C60.93 34.71 59.86 33.41 58.78 32.13 C58.31 31.57 57.85 31.02 57.37 30.45 C55.21 28.17 53.82 27.13 50.67 26.63 C43.01 26.43 37.99 28.37 31.38 32.06 C29.43 33.08 27.49 34.1 25.54 35.12 C24.59 35.61 23.65 36.11 22.67 36.62 C9.19 43.56 -5.3 47.67 -19.76 52.02 C-24.74 53.53 -29.72 55.05 -34.69 56.62 C-35.53 56.88 -36.37 57.13 -37.24 57.39 C-44.33 59.68 -50.27 63.57 -53.94 70.25 C-58.57 80.42 -57.09 93.83 -53.38 104.1 C-49.22 112.83 -42.98 119.32 -34 123 C-29.9 124.25 -25.71 125.13 -21.52 126.02 C-17.18 126.93 -12.94 128.09 -8.69 129.31 C-3.09 130.92 2.53 132.39 8.19 133.77 C8.81 133.92 9.44 134.08 10.09 134.23 C13.23 135 16.37 135.76 19.52 136.5 C20.69 136.78 21.85 137.07 23.02 137.35 C24.05 137.6 25.08 137.84 26.15 138.1 C29.13 139.04 31.43 140.22 34 142 C35.61 145.22 35.38 148.46 35 152 C34.33 153.92 34.33 153.92 33.5 155.81 C31.19 161.45 30.73 167.52 32.84 173.3 C37.26 181.22 45.62 184.48 53.62 187.88 C59.51 190.43 65.33 193.06 71.06 195.94 C71.65 196.23 72.24 196.53 72.85 196.83 C76.86 198.86 76.86 198.86 78 200 C77.7 206.37 75.24 211.14 72.25 216.69 C71.82 217.53 71.39 218.37 70.95 219.24 C68.14 224.54 65.8 228.63 59.92 230.75 C40.07 233.04 23.13 221.77 8.25 210.19 C0.8 204.24 -5.32 198.01 -10.69 190.12 C-11.72 188.63 -12.76 187.14 -13.8 185.64 C-14.32 184.88 -14.85 184.12 -15.39 183.33 C-18.05 179.48 -20.74 175.64 -23.44 171.81 C-24.16 170.77 -24.16 170.77 -24.9 169.71 C-29.57 162.39 -29.57 162.39 -36 157 C-36 156.34 -36 155.68 -36 155 C-36.66 154.79 -37.32 154.59 -38 154.38 C-40.69 153.14 -42.41 151.95 -44.69 150.12 C-52.82 143.92 -62.74 141.83 -72.46 139.24 C-75.28 138.48 -78.07 137.68 -80.85 136.79 C-90.88 133.61 -100.27 132.05 -110.18 136.54 C-115.92 139.51 -121.53 142.7 -127.13 145.93 C-131.38 148.36 -135.68 150.7 -140 153 C-140.52 153.29 -141.04 153.57 -141.58 153.87 C-150.51 158.74 -159.1 161.8 -169 164 C-169.94 164.21 -170.89 164.43 -171.86 164.65 C-176.97 165.81 -182.08 166.94 -187.2 168.05 C-188.06 168.23 -188.91 168.41 -189.79 168.6 C-192 169 -192 169 -195 169 C-195.95 166.35 -196.76 163.81 -197 161 C-195.06 158.88 -195.06 158.88 -193 157 C-193.06 153.94 -193.21 151.96 -195.19 149.56 C-197.94 148.71 -200.23 149.39 -203 150 C-203.17 151.11 -203.33 152.23 -203.5 153.38 C-203.59 154 -203.69 154.63 -203.78 155.27 C-204.04 157.04 -204.04 157.04 -204 159 C-205 159.37 -206 159.75 -207.04 160.13 C-211.46 162.03 -214.8 164.83 -218.44 167.94 C-223.92 172.5 -229.46 176.94 -235.19 181.19 C-235.85 181.68 -236.52 182.18 -237.2 182.68 C-238.51 183.66 -239.82 184.63 -241.13 185.6 C-244 187.75 -246.85 189.93 -249.69 192.12 C-250.21 192.53 -250.74 192.94 -251.28 193.35 C-252.33 194.16 -253.38 194.97 -254.42 195.78 C-257.65 198.27 -260.88 200.75 -264.11 203.24 C-266.92 205.4 -269.73 207.57 -272.53 209.75 C-273.4 210.42 -273.4 210.42 -274.29 211.11 C-275.4 211.97 -276.5 212.83 -277.6 213.69 C-280.62 216.03 -283.68 218.1 -287 220 C-281.53 197.35 -271.89 179.03 -256 162 C-255.39 161.35 -254.79 160.69 -254.16 160.02 C-251.15 156.77 -248.13 153.53 -245.09 150.3 C-242.21 147.24 -239.41 144.11 -236.66 140.92 C-233.17 136.89 -229.57 132.95 -226 129 C-225.71 129.62 -225.41 130.25 -225.11 130.89 C-223.73 133.52 -222.63 134.61 -220 136 C-216.84 135.93 -216.84 135.93 -214 135 C-212.62 132.24 -212.81 130.05 -213 127 C-215.19 124.81 -215.7 124.7 -218.62 124.38 C-219.74 124.25 -220.85 124.13 -222 124 C-220.34 117.58 -218.33 112.19 -213 108 C-206.96 104.76 -200.85 102.47 -194 102 C-194.09 103.64 -194.09 103.64 -194.19 105.31 C-194.17 107.77 -194.1 108.82 -192.88 111 C-190.01 112.53 -188.05 111.84 -185 111 C-182.7 109.12 -182.7 109.12 -182.69 106.06 C-182.73 103.05 -182.73 103.05 -184.31 101.25 C-185.85 100.11 -187.41 99.05 -189 98 C-183.58 93.03 -178.11 88.21 -172.39 83.59 C-169.14 80.96 -165.96 78.25 -162.8 75.5 C-152.54 66.59 -142.56 59.33 -130 54 C-128.05 53.15 -126.1 52.3 -124.15 51.45 C-122.79 50.85 -121.42 50.26 -120.06 49.66 C-115.74 47.78 -111.45 45.83 -107.19 43.81 C-100.5 40.66 -93.75 37.63 -86.99 34.62 C-85.81 34.09 -84.62 33.56 -83.44 33.03 C-77.07 30.19 -70.69 27.42 -64.19 24.88 C-61.82 23.93 -59.51 22.88 -57.19 21.81 C-51.77 19.32 -46.3 16.97 -40.81 14.62 C-34.28 11.84 -27.76 9.04 -21.25 6.19 C-20.27 5.76 -20.27 5.76 -19.28 5.33 C-16.56 4.14 -13.86 2.93 -11.19 1.64 C-3.87 -1.88 -3.87 -1.88 0 0 Z " fill="#F9F9FD" transform="translate(366,49)"/><path d="M0 0 C1.88 1.12 1.88 1.12 3 3 C3.4 6.81 3.28 8.95 1 12 C1.46 12.23 1.92 12.46 2.39 12.7 C5.75 14.49 7.75 15.64 10 18.81 C10.66 19.53 11.32 20.26 12 21 C17.43 20.7 21.96 19.04 26.94 16.94 C27.62 16.66 28.31 16.37 29.01 16.08 C30.68 15.4 32.34 14.7 34 14 C33.97 12.9 33.94 11.79 33.9 10.66 C33.82 7.76 33.94 7.09 35.56 4.5 C38.16 2.9 38.74 2.8 41.62 3.12 C45 4 45 4 47 6 C47.27 7.66 47.27 7.66 47.25 9.5 C47.26 10.11 47.26 10.72 47.27 11.34 C47 13 47 13 45 15 C45.42 15.33 45.83 15.66 46.26 16 C56.34 24.42 64.93 34.6 73.64 44.4 C75.49 46.46 77.39 48.47 79.3 50.48 C80.17 51.4 80.17 51.4 81.06 52.34 C82.19 53.53 83.34 54.73 84.48 55.92 C88.89 60.57 93 65.33 93.5 71.94 C93.29 76.51 91.31 80.13 89 84 C89.64 84.14 90.28 84.29 90.94 84.44 C93 85 93 85 94 86 C94.46 92.21 94.46 92.21 92.88 94.94 C90.06 96.53 88.17 96.45 85 96 C82.62 94.25 82.62 94.25 81 92 C80.75 89.75 80.75 89.75 81 88 C79.45 88.09 79.45 88.09 77.88 88.19 C74.09 88.41 71.1 87.06 68 85 C65.94 83.16 64.13 81.15 62.31 79.06 C61.84 78.54 61.37 78.01 60.88 77.47 C58.45 74.74 56.14 71.97 54 69 C53.53 69.8 53.05 70.61 52.56 71.44 C51 74 51 74 50 75 C43.72 75.58 43.72 75.58 41 73.38 C39.69 70.26 40.36 68.26 41 65 C40.02 65.56 39.03 66.11 38.02 66.69 C23.05 74.98 7.35 80.85 -9 85.78 C-13.57 87.16 -18.1 88.67 -22.62 90.19 C-23.37 90.44 -24.12 90.69 -24.89 90.95 C-26.28 91.41 -27.68 91.88 -29.08 92.35 C-31.72 93.24 -34.36 94.12 -37 95 C-35.55 95.84 -35.55 95.84 -34.06 96.69 C-31.77 98.23 -31.07 98.85 -29.88 101.44 C-30 104 -30 104 -31.56 106.81 C-34 109 -34 109 -37 109.62 C-40.9 108.81 -41.7 107.12 -44 104 C-44.31 116.13 -44.31 116.13 -42 128 C-41.34 128 -40.68 128 -40 128 C-39.9 127.38 -39.79 126.76 -39.69 126.12 C-39 124 -39 124 -37.81 122.69 C-34.92 121.59 -32.92 122.15 -30 123 C-28.06 124.75 -28.06 124.75 -27 127 C-27.09 130.42 -27.68 131.67 -30.06 134.16 C-30.7 134.76 -31.34 135.37 -32 136 C-23.85 138.6 -15.68 140.92 -7.37 142.95 C-5.57 143.39 -3.77 143.83 -1.98 144.28 C2.81 145.47 7.59 146.66 12.38 147.82 C15.49 148.58 18.59 149.35 21.69 150.12 C22.6 150.34 23.51 150.56 24.45 150.78 C32.44 152.8 40.46 155.73 45 163 C47.66 167.66 47.66 172.78 47 178 C46.12 180.52 45.09 182.82 43.88 185.19 C42.86 186.96 42.86 186.96 43 189 C43.54 188.32 44.07 187.64 44.62 186.94 C47 185 47 185 50.06 185.06 C54.59 186.51 54.59 186.51 56 189 C56.14 191.49 55.96 193.69 55 196 C52.94 197.72 52.94 197.72 51 199 C52.42 199.65 53.83 200.29 55.25 200.94 C56.73 201.62 56.73 201.62 58.24 202.31 C61.15 203.63 64.08 204.9 67.01 206.16 C67.89 206.55 68.77 206.93 69.68 207.33 C71.45 208.1 73.23 208.86 75 209.61 C79.98 211.8 83.46 213.86 87 218 C87.56 217.69 88.11 217.38 88.69 217.06 C91.28 215.87 93.14 215.14 96 215 C98.88 216.5 98.88 216.5 101 219 C101.34 221.57 100.95 223.6 100 226 C98.25 228 98.25 228 96 229 C94.32 228.72 92.65 228.39 91 228 C90.76 228.66 90.51 229.31 90.26 229.99 C87.63 236.68 84.54 243.05 81.12 249.38 C80.73 250.14 80.33 250.9 79.92 251.68 C77.04 256.89 73.77 260.44 69 264 C69.32 264.6 69.65 265.2 69.98 265.81 C71.34 268.73 71.33 270.81 71 274 C69.88 276.37 69.88 276.37 68 278 C64.35 278.62 62.69 278.47 59.62 276.38 C57.59 273.4 57.68 271.54 58 268 C57.46 267.97 56.93 267.95 56.38 267.92 C37.06 266.52 20.3 259.24 5.35 247.09 C4.04 246.03 2.7 245 1.36 243.97 C-9.55 235.53 -17.03 226.45 -24.61 215.07 C-26.83 211.76 -29.13 208.5 -31.44 205.25 C-31.84 204.68 -32.24 204.11 -32.65 203.52 C-34.88 200.39 -37.19 197.64 -40 195 C-40.14 195.64 -40.29 196.28 -40.44 196.94 C-41 199 -41 199 -42 200 C-44.71 200.37 -47.3 200.38 -50 200 C-52.06 198.38 -52.06 198.38 -53 196 C-52.94 192.88 -52.94 192.88 -52 190 C-49.94 188.62 -49.94 188.62 -48 188 C-55.28 179.27 -68.11 177.34 -78.62 174.25 C-80.02 173.84 -81.42 173.42 -82.82 173 C-86.21 172 -89.61 171 -93 170 C-92.67 170.66 -92.34 171.32 -92 172 C-91.55 178.22 -91.55 178.22 -93.12 180.94 C-95.89 182.5 -97.88 182.39 -101 182 C-102.88 180.94 -102.88 180.94 -104 179 C-104.15 176.66 -104.05 174.35 -104 172 C-112.15 175.98 -120.2 180.04 -128.06 184.56 C-139.95 191.33 -151.67 196.82 -165 200 C-165.76 200.18 -166.52 200.36 -167.3 200.55 C-169.74 201.13 -172.18 201.69 -174.62 202.25 C-175.4 202.43 -176.17 202.6 -176.96 202.78 C-177.69 202.94 -178.41 203.1 -179.16 203.27 C-180.13 203.48 -180.13 203.48 -181.12 203.7 C-183.11 204.02 -184.98 204.02 -187 204 C-186.88 209.25 -186.76 214.5 -186.63 219.75 C-186.58 221.54 -186.54 223.33 -186.5 225.12 C-186.45 227.68 -186.38 230.24 -186.32 232.81 C-186.29 234.01 -186.29 234.01 -186.27 235.25 C-186.25 235.99 -186.23 236.73 -186.21 237.49 C-186.19 238.15 -186.17 238.8 -186.16 239.48 C-186.16 241.05 -186.16 241.05 -185 242 C-183.66 242.16 -182.31 242.25 -180.96 242.32 C-180.16 242.36 -179.35 242.4 -178.51 242.44 C-177.66 242.48 -176.81 242.52 -175.94 242.56 C-174.66 242.63 -174.66 242.63 -173.35 242.69 C-171.23 242.8 -169.12 242.9 -167 243 C-167.01 241.93 -167.02 240.86 -167.04 239.75 C-167.04 238.36 -167.05 236.96 -167.06 235.56 C-167.07 234.86 -167.08 234.15 -167.09 233.42 C-167.1 231.61 -167.05 229.81 -167 228 C-165.4 226.4 -163.59 226.87 -161.44 226.86 C-160.8 226.87 -160.15 226.87 -159.48 226.87 C-158.8 226.87 -158.11 226.87 -157.41 226.87 C-155.15 226.86 -152.89 226.86 -150.62 226.87 C-149.06 226.87 -147.49 226.87 -145.93 226.86 C-142.64 226.86 -139.36 226.86 -136.07 226.87 C-131.85 226.88 -127.63 226.87 -123.41 226.87 C-120.18 226.86 -116.94 226.86 -113.71 226.87 C-112.15 226.87 -110.6 226.87 -109.04 226.86 C-106.87 226.86 -104.7 226.87 -102.52 226.87 C-101.55 226.87 -101.55 226.87 -100.56 226.86 C-96.11 226.89 -96.11 226.89 -95 228 C-94.89 230.35 -94.84 232.67 -94.83 235.03 C-94.83 235.73 -94.83 236.44 -94.82 237.16 C-94.82 238.65 -94.81 240.15 -94.81 241.64 C-94.81 243.92 -94.79 246.21 -94.78 248.5 C-94.77 249.95 -94.77 251.39 -94.77 252.84 C-94.76 253.53 -94.76 254.21 -94.75 254.92 C-94.77 259.77 -94.77 259.77 -97 262 C-99.19 262.2 -101.25 262.27 -103.44 262.26 C-104.43 262.26 -104.43 262.26 -105.44 262.27 C-107.63 262.28 -109.81 262.27 -112 262.27 C-113.52 262.27 -115.03 262.27 -116.55 262.27 C-119.73 262.27 -122.91 262.27 -126.09 262.26 C-130.18 262.25 -134.26 262.26 -138.34 262.27 C-141.47 262.28 -144.61 262.27 -147.74 262.27 C-149.25 262.27 -150.75 262.27 -152.26 262.27 C-154.36 262.28 -156.46 262.27 -158.56 262.26 C-159.5 262.26 -159.5 262.26 -160.46 262.27 C-164.77 262.23 -164.77 262.23 -167 260 C-167.14 257.42 -167.19 254.95 -167.12 252.38 C-167.12 251.67 -167.11 250.96 -167.1 250.23 C-167.07 248.49 -167.04 246.74 -167 245 C-167.79 245.04 -167.79 245.04 -168.59 245.08 C-170.98 245.18 -173.36 245.25 -175.75 245.31 C-176.99 245.38 -176.99 245.38 -178.25 245.44 C-179.05 245.46 -179.85 245.47 -180.67 245.49 C-181.41 245.51 -182.14 245.54 -182.89 245.57 C-186.28 244.66 -187.25 242.97 -189 240 C-189.52 237.27 -189.47 234.63 -189.39 231.86 C-189.38 231.09 -189.38 230.32 -189.37 229.52 C-189.35 227.08 -189.3 224.63 -189.25 222.19 C-189.23 220.52 -189.21 218.86 -189.2 217.2 C-189.15 213.13 -189.08 209.07 -189 205 C-193.45 205.99 -193.45 205.99 -198 207 C-197.75 207.72 -197.5 208.44 -197.25 209.19 C-197 212 -197 212 -198.56 214.81 C-201 217 -201 217 -204.06 217.5 C-207 217 -207 217 -208.81 215.94 C-210.59 213.04 -210.68 210.37 -211 207 C-210.34 206.67 -209.68 206.34 -209 206 C-209 204.68 -209 203.36 -209 202 C-208.01 202 -207.02 202 -206 202 C-206 200.68 -206 199.36 -206 198 C-214.7 204.63 -223.38 211.28 -232 218 C-239.99 224.23 -248.03 230.39 -256.08 236.53 C-258.37 238.28 -260.66 240.04 -262.94 241.8 C-263.97 242.59 -265 243.38 -266.03 244.17 C-269.17 246.58 -272.28 249.01 -275.37 251.47 C-276.89 252.67 -278.42 253.87 -279.94 255.06 C-280.65 255.64 -281.36 256.21 -282.09 256.8 C-286.09 259.92 -288.88 261.74 -294 262 C-293.85 263.11 -293.85 263.11 -293.69 264.25 C-294 267 -294 267 -296.19 269.38 C-299 271 -299 271 -301.62 271 C-304.57 269.76 -305.6 268.88 -307 266 C-306.78 262.33 -306.63 260.63 -304 258 C-303.01 258 -302.02 258 -301 258 C-301.05 257.52 -301.1 257.04 -301.16 256.54 C-301.61 248.67 -299.04 241.76 -296.5 234.44 C-296.27 233.77 -296.05 233.1 -295.81 232.42 C-288.99 212.44 -279.92 195.78 -265.29 180.46 C-261.18 176.04 -260.7 173.38 -260.73 167.38 C-260.73 166.63 -260.73 165.89 -260.73 165.12 C-260.73 163.55 -260.73 161.98 -260.74 160.41 C-260.75 158.01 -260.74 155.61 -260.73 153.2 C-260.73 151.68 -260.73 150.15 -260.73 148.62 C-260.73 147.91 -260.73 147.19 -260.72 146.45 C-260.73 141.82 -260.73 141.82 -263 138 C-265.89 137.42 -265.89 137.42 -269.12 137.31 C-270.77 137.21 -270.77 137.21 -272.45 137.11 C-273.29 137.08 -274.13 137.04 -275 137 C-274.98 138.13 -274.95 139.26 -274.93 140.43 C-274.91 141.91 -274.89 143.39 -274.88 144.88 C-274.86 145.62 -274.84 146.37 -274.82 147.14 C-274.82 147.85 -274.81 148.57 -274.8 149.3 C-274.79 149.96 -274.78 150.62 -274.77 151.3 C-275 153 -275 153 -277 155 C-279.22 155.19 -281.32 155.26 -283.55 155.24 C-284.55 155.25 -284.55 155.25 -285.58 155.25 C-287.81 155.25 -290.03 155.24 -292.25 155.23 C-293.8 155.23 -295.34 155.23 -296.88 155.23 C-300.11 155.23 -303.34 155.22 -306.58 155.21 C-310.73 155.19 -314.88 155.18 -319.03 155.19 C-322.22 155.19 -325.4 155.18 -328.58 155.17 C-330.11 155.17 -331.65 155.17 -333.18 155.17 C-335.31 155.16 -337.45 155.16 -339.58 155.15 C-340.22 155.15 -340.86 155.15 -341.52 155.15 C-345.89 155.11 -345.89 155.11 -347 154 C-347.11 151.65 -347.16 149.33 -347.17 146.97 C-347.17 146.27 -347.17 145.56 -347.18 144.84 C-347.18 143.35 -347.19 141.85 -347.19 140.36 C-347.19 138.08 -347.21 135.79 -347.22 133.5 C-347.23 132.05 -347.23 130.61 -347.23 129.16 C-347.24 128.47 -347.24 127.79 -347.25 127.08 C-347.23 122.23 -347.23 122.23 -345 120 C-342.81 119.8 -340.75 119.73 -338.56 119.74 C-337.9 119.74 -337.24 119.73 -336.56 119.73 C-334.37 119.72 -332.19 119.73 -330 119.73 C-328.48 119.73 -326.97 119.73 -325.45 119.73 C-322.27 119.73 -319.09 119.73 -315.91 119.74 C-311.82 119.75 -307.74 119.74 -303.66 119.73 C-300.53 119.72 -297.39 119.73 -294.26 119.73 C-292.75 119.73 -291.25 119.73 -289.74 119.73 C-287.64 119.72 -285.54 119.73 -283.44 119.74 C-282.81 119.74 -282.19 119.73 -281.54 119.73 C-277.23 119.77 -277.23 119.77 -275 122 C-274.86 124.42 -274.81 126.71 -274.88 129.12 C-274.88 129.78 -274.89 130.44 -274.9 131.12 C-274.93 132.75 -274.96 134.37 -275 136 C-274.1 135.97 -273.19 135.93 -272.26 135.89 C-271.07 135.87 -269.88 135.84 -268.69 135.81 C-268.09 135.79 -267.5 135.76 -266.88 135.74 C-264.38 135.69 -262.49 135.69 -260.34 137.05 C-258.31 140.01 -258.52 143.04 -258.49 146.51 C-258.47 147.24 -258.45 147.97 -258.43 148.72 C-258.38 151.04 -258.35 153.36 -258.31 155.69 C-258.28 157.26 -258.24 158.84 -258.21 160.42 C-258.12 164.28 -258.06 168.14 -258 172 C-245.73 158.93 -234.84 147.27 -227 131 C-227.93 130.9 -228.86 130.79 -229.81 130.69 C-233 130 -233 130 -234.88 128.81 C-236.58 126.07 -236.46 124.15 -236 121 C-233.75 118.4 -232.35 118.04 -228.94 117.62 C-226 118 -226 118 -224.19 119.19 C-222.73 121.41 -222.46 123.41 -222 126 C-221.5 125.61 -221 125.23 -220.49 124.83 C-215.94 121.53 -211.87 119.49 -206.44 118 C-200.46 116.31 -196.64 114.04 -192 110 C-190.67 108.9 -189.33 107.81 -187.99 106.73 C-186.68 105.67 -185.39 104.61 -184.1 103.54 C-182 102 -182 102 -180 102 C-180 101.34 -180 100.68 -180 100 C-178.41 98.57 -176.81 97.25 -175.12 95.94 C-171.33 92.93 -167.71 89.84 -164.19 86.5 C-152.45 75.95 -139 70.12 -124.56 64.08 C-121.46 62.77 -118.42 61.37 -115.38 59.94 C-108.97 56.94 -102.46 54.17 -95.95 51.42 C-91.19 49.4 -86.47 47.31 -81.78 45.13 C-74.59 41.79 -67.33 38.61 -60.06 35.44 C-58.68 34.83 -57.29 34.23 -55.91 33.62 C-48.76 30.5 -41.61 27.4 -34.46 24.3 C-33.77 24.01 -33.09 23.71 -32.38 23.41 C-29.11 21.99 -25.84 20.58 -22.57 19.18 C-21.39 18.67 -20.21 18.15 -19.02 17.64 C-17.49 16.98 -17.49 16.98 -15.93 16.31 C-12.9 14.96 -9.95 13.5 -7 12 C-7.52 11.44 -8.03 10.89 -8.56 10.31 C-10 8 -10 8 -9.88 5.44 C-7.98 0.16 -5.52 -0.69 0 0 Z M-9.62 25.66 C-10.49 26.04 -11.36 26.42 -12.25 26.81 C-13.16 27.22 -14.06 27.64 -15 28.06 C-15.94 28.48 -16.88 28.89 -17.85 29.32 C-23.96 32.04 -30.03 34.83 -36.09 37.67 C-39.94 39.43 -43.84 41.04 -47.76 42.63 C-51.59 44.21 -55.34 45.97 -59.11 47.69 C-63.53 49.7 -67.98 51.63 -72.44 53.56 C-73.41 53.98 -74.37 54.41 -75.37 54.84 C-80.98 57.27 -86.6 59.68 -92.23 62.07 C-107.59 68.52 -107.59 68.52 -122.59 75.77 C-126.08 77.58 -129.61 79.11 -133.25 80.56 C-144.69 85.28 -153.08 92.32 -162.23 100.45 C-164.63 102.55 -167.08 104.56 -169.56 106.56 C-176.16 111.9 -182.58 117.45 -189 123 C-188.2 123.64 -187.39 124.28 -186.56 124.94 C-183.02 127.79 -183.02 127.79 -182.69 130.88 C-183 134 -183 134 -184.69 135.94 C-187.61 137.28 -188.99 137.03 -192 136 C-194 134 -194 134 -194.2 132.27 C-194.13 130.52 -194.07 128.76 -194 127 C-202.32 128.19 -211.01 130.36 -216.94 136.75 C-219.63 140.4 -220.82 144.68 -222 149 C-220.89 149.12 -219.77 149.25 -218.62 149.38 C-215.7 149.7 -215.19 149.81 -213 152 C-212.67 155.13 -212.52 157.18 -214.12 159.94 C-216.98 161.56 -218.92 160.85 -222 160 C-223.95 158.05 -224.85 156.47 -226 154 C-230.24 158.13 -234.26 162.37 -238.13 166.85 C-242.55 171.93 -247.06 176.94 -251.67 181.85 C-268.21 199.5 -281.49 218.98 -287 243 C-286.67 243.66 -286.34 244.32 -286 245 C-285.28 244.44 -285.28 244.44 -284.55 243.87 C-275.23 236.61 -265.9 229.37 -256.53 222.17 C-254.99 220.99 -253.45 219.81 -251.91 218.62 C-247.24 215.03 -242.58 211.44 -237.89 207.87 C-237.18 207.33 -236.47 206.78 -235.74 206.23 C-234.29 205.12 -232.84 204.01 -231.39 202.91 C-227.91 200.26 -224.46 197.58 -221.05 194.83 C-220.43 194.33 -219.81 193.83 -219.17 193.32 C-218.02 192.39 -216.87 191.46 -215.73 190.51 C-212.02 187.53 -208.44 185.71 -204 184 C-204.02 182.89 -204.04 181.77 -204.06 180.62 C-204.11 178.24 -204.08 177.17 -203 175 C-200.19 174.12 -200.19 174.12 -197 174 C-194.56 175.56 -194.56 175.56 -193 178 C-193.06 181.12 -193.06 181.12 -194 184 C-194.99 184.66 -195.98 185.32 -197 186 C-196.34 188.64 -195.68 191.28 -195 194 C-174.6 191.06 -156.14 186.83 -138.22 176.52 C-132.76 173.38 -127.19 170.53 -121.54 167.75 C-117.2 165.62 -112.96 163.37 -108.8 160.91 C-99.23 156.06 -87.39 159.51 -77.75 162.31 C-76.62 162.63 -75.49 162.94 -74.36 163.25 C-68.46 164.9 -62.69 166.71 -57 169 C-56.21 169.3 -55.42 169.61 -54.6 169.92 C-49.23 172.17 -44.73 175.13 -40.07 178.61 C-38.14 180.19 -38.14 180.19 -36 180 C-36 180.66 -36 181.32 -36 182 C-34.85 183.15 -33.7 184.29 -32.53 185.43 C-27.02 191.09 -22.65 197.87 -18.12 204.31 C-12.72 212.01 -12.72 212.01 -7.19 219.62 C-6.54 220.5 -5.9 221.38 -5.23 222.29 C7.66 238.56 28.1 252.2 48.77 255.63 C54.42 256.28 59.4 256.51 64.41 253.59 C68.39 250.18 70.47 245.15 72.81 240.56 C73.57 239.15 73.57 239.15 74.33 237.71 C77.57 231.69 77.57 231.69 78 225 C74.83 221.63 70 220.11 65.81 218.31 C64.2 217.61 62.59 216.9 60.98 216.19 C60.16 215.83 59.34 215.47 58.49 215.1 C54.52 213.35 50.57 211.56 46.62 209.75 C45.92 209.43 45.21 209.12 44.48 208.79 C39.17 206.32 35.08 203.41 32.54 197.89 C30.67 191.32 31.68 185.05 34.32 178.91 C35.5 175.6 35.65 172.45 35 169 C31.58 163.24 23.12 162.53 17.05 160.98 C12.48 159.82 7.89 158.69 3.31 157.56 C-5.59 155.36 -14.5 153.16 -23.37 150.8 C-24.28 150.56 -24.28 150.56 -25.21 150.31 C-35.73 147.49 -44.28 143.64 -50.68 134.36 C-56.66 123.66 -58.43 109.71 -55.12 97.84 C-52.34 91.75 -47.94 86.86 -41.82 83.97 C-39.39 83.08 -36.95 82.31 -34.47 81.56 C-33.57 81.27 -32.66 80.99 -31.73 80.69 C-28.84 79.78 -25.95 78.89 -23.06 78 C-19.28 76.82 -15.5 75.63 -11.72 74.44 C-10.8 74.15 -9.88 73.86 -8.93 73.56 C3.95 69.47 16.26 64.66 28.38 58.69 C29.49 58.14 30.6 57.6 31.72 57.06 C35.15 55.39 38.58 53.71 42 52 C46.56 51.32 51.03 50.94 55.19 53.18 C61.44 58.46 66.66 65.47 71.5 72.04 C73.95 75.29 73.95 75.29 77.75 76.44 C79.96 76.23 79.96 76.23 81 75 C81.5 72.7 81.5 72.7 81 70 C79.41 67.9 77.9 66.16 76.06 64.31 C75.04 63.24 74.02 62.17 72.99 61.1 C72.48 60.57 71.97 60.05 71.44 59.5 C69.47 57.45 67.58 55.32 65.69 53.19 C61.22 48.2 56.64 43.31 52.05 38.44 C51.48 37.84 50.92 37.23 50.33 36.61 C49.5 35.73 49.5 35.73 48.65 34.82 C46.47 32.41 44.45 29.87 42.45 27.3 C40.61 25.65 39.56 25.61 37.12 25.69 C29.86 27.11 22.85 30.25 16 33 C16.33 35.64 16.66 38.28 17 41 C15.38 42.56 15.38 42.56 13 44 C9.81 43.81 9.81 43.81 7 43 C5.61 40.23 5.81 38.07 6 35 C7 33.12 7 33.12 8 32 C5.33 29.66 5.33 29.66 2 29 C1.77 28.36 1.55 27.72 1.31 27.06 C0.17 24.79 0.17 24.79 -2.29 24.27 C-5.37 23.96 -6.83 24.41 -9.62 25.66 Z " fill="#211E27" transform="translate(366,24)"/><path d="M0 0 C1.17 0.24 2.33 0.51 3.48 0.79 C4.12 0.93 4.76 1.07 5.42 1.21 C41.39 9.38 41.39 9.38 47.86 13.54 C49.92 16.99 49.86 19.92 49.23 23.85 C48.77 25.13 48.27 26.41 47.73 27.66 C45.43 33.3 44.96 39.37 47.08 45.15 C51.5 53.07 59.86 56.33 67.86 59.72 C73.74 62.28 79.56 64.91 85.3 67.79 C86.18 68.23 86.18 68.23 87.08 68.68 C91.1 70.71 91.1 70.71 92.23 71.85 C91.93 78.22 89.47 82.98 86.48 88.54 C86.05 89.38 85.62 90.22 85.18 91.08 C82.37 96.39 80.03 100.48 74.16 102.6 C54.3 104.88 37.37 93.62 22.49 82.04 C15.03 76.09 8.91 69.86 3.55 61.97 C2.51 60.48 1.47 58.99 0.44 57.49 C-0.09 56.73 -0.61 55.97 -1.15 55.18 C-3.82 51.33 -6.51 47.49 -9.2 43.66 C-9.93 42.62 -9.93 42.62 -10.67 41.56 C-15.34 34.24 -15.34 34.24 -21.77 28.85 C-21.77 28.19 -21.77 27.53 -21.77 26.85 C-22.76 26.52 -23.75 26.19 -24.77 25.85 C-24.77 25.52 -24.77 25.19 -24.77 24.85 C-23.12 24.52 -21.47 24.19 -19.77 23.85 C-20.43 22.86 -21.09 21.87 -21.77 20.85 C-20.45 20.19 -19.13 19.53 -17.77 18.85 C-17.77 18.19 -17.77 17.53 -17.77 16.85 C-16.45 16.19 -15.13 15.53 -13.77 14.85 C-13.77 12.87 -13.77 10.89 -13.77 8.85 C-12.45 8.19 -11.13 7.53 -9.77 6.85 C-9.77 6.19 -9.77 5.53 -9.77 4.85 C-9.17 4.58 -8.57 4.31 -7.95 4.04 C-5.72 3.01 -5.72 3.01 -4.52 1.21 C-2.77 -0.15 -2.77 -0.15 0 0 Z " fill="#EEECFD" transform="translate(351.765625,177.15234375)"/><path d="M0 0 C-0.04 0.93 -0.08 1.86 -0.12 2.81 C-0.14 5.82 -0.14 5.82 0.56 7.88 C2.7 9.55 4.69 9.32 7.34 9.3 C9.27 9.11 9.27 9.11 11 7 C11.7 5.68 12.37 4.35 13 3 C14.44 4.56 15.88 6.12 17.31 7.69 C17.72 8.12 18.12 8.56 18.54 9.01 C21.1 11.82 23.14 14.65 25 18 C24.01 18.99 23.02 19.98 22 21 C23.65 21.33 25.3 21.66 27 22 C27 22.33 27 22.66 27 23 C23.04 23.5 23.04 23.5 19 24 C19 25.32 19 26.64 19 28 C19 28.33 19 28.66 19 29 C15.04 29.5 15.04 29.5 11 30 C11 30.99 11 31.98 11 33 C8.36 33.33 5.72 33.66 3 34 C3 34.99 3 35.98 3 37 C1.02 37.99 1.02 37.99 -1 39 C-1 39.66 -1 40.32 -1 41 C-3.64 41.33 -6.28 41.66 -9 42 C-9 42.99 -9 43.98 -9 45 C-10.98 45.99 -10.98 45.99 -13 47 C-13 47.66 -13 48.32 -13 49 C-14.98 49.33 -16.96 49.66 -19 50 C-18.34 50.99 -17.68 51.98 -17 53 C-18.98 53.99 -18.98 53.99 -21 55 C-21 55.66 -21 56.32 -21 57 C-23.64 57.33 -26.28 57.66 -29 58 C-28.34 58.99 -27.68 59.98 -27 61 C-28.32 61.66 -29.64 62.32 -31 63 C-30.01 63.99 -30.01 63.99 -29 65 C-31.64 65.33 -34.28 65.66 -37 66 C-37 66.99 -37 67.98 -37 69 C-37.66 69.66 -38.32 70.32 -39 71 C-38.01 71.99 -38.01 71.99 -37 73 C-39.64 73.33 -42.28 73.66 -45 74 C-44.01 75.49 -44.01 75.49 -43 77 C-54.33 77.76 -64.58 75.39 -75 71 C-74.2 70.44 -73.39 69.89 -72.56 69.31 C-69.89 67.23 -69.89 67.23 -68.94 64.5 C-68.78 61.87 -68.78 61.87 -70.56 59.62 C-72.95 57.71 -72.95 57.71 -76.12 58 C-79.11 58.71 -79.11 58.71 -80.38 61.06 C-80.58 61.7 -80.79 62.34 -81 63 C-81.66 63 -82.32 63 -83 63 C-86.99 54.66 -86.28 46 -86 37 C-85.36 37.8 -84.72 38.61 -84.06 39.44 C-81.78 42.7 -81.78 42.7 -78.12 43.31 C-74.97 43.3 -74.97 43.3 -73.06 41.31 C-71.84 39.04 -71.84 39.04 -71.88 36.44 C-73.18 33.6 -73.79 33.38 -76.56 32.19 C-77.7 31.77 -78.85 31.37 -80 31 C-77.46 27.9 -74.93 27.15 -71.12 26.06 C-69.94 25.72 -68.75 25.37 -67.57 25.02 C-66.97 24.85 -66.37 24.68 -65.75 24.5 C-61.5 23.28 -57.28 21.95 -53.05 20.63 C-51.53 20.16 -50.01 19.7 -48.49 19.24 C-37.27 15.82 -26.46 12.34 -16 7 C-14.08 6.03 -12.15 5.06 -10.22 4.09 C-8.98 3.46 -7.73 2.83 -6.49 2.18 C-2.22 0 -2.22 0 0 0 Z " fill="#F8F8FD" transform="translate(407,89)"/><path d="M0 0 C0.33 0 0.66 0 1 0 C1.04 1.67 1.04 1.67 1.08 3.38 C1.17 7.5 1.27 11.63 1.37 15.75 C1.42 17.54 1.46 19.33 1.5 21.12 C1.55 23.68 1.62 26.24 1.68 28.81 C1.71 30.01 1.71 30.01 1.73 31.25 C1.75 31.99 1.77 32.73 1.79 33.49 C1.82 34.47 1.82 34.47 1.84 35.48 C1.84 37.05 1.84 37.05 3 38 C4.34 38.16 5.69 38.25 7.04 38.32 C8.25 38.38 8.25 38.38 9.49 38.44 C10.76 38.5 10.76 38.5 12.06 38.56 C13.34 38.63 13.34 38.63 14.65 38.69 C16.77 38.8 18.88 38.9 21 39 C20.99 37.93 20.98 36.86 20.96 35.75 C20.96 34.36 20.95 32.96 20.94 31.56 C20.93 30.86 20.92 30.15 20.91 29.42 C20.9 27.61 20.95 25.81 21 24 C22.6 22.4 24.41 22.87 26.56 22.86 C27.2 22.87 27.85 22.87 28.52 22.87 C29.2 22.87 29.89 22.87 30.59 22.87 C32.85 22.86 35.11 22.86 37.38 22.87 C38.94 22.87 40.51 22.87 42.07 22.86 C45.36 22.86 48.64 22.86 51.93 22.87 C56.15 22.88 60.37 22.87 64.59 22.87 C67.82 22.86 71.06 22.86 74.29 22.87 C75.85 22.87 77.4 22.87 78.96 22.86 C81.13 22.86 83.3 22.87 85.48 22.87 C86.45 22.87 86.45 22.87 87.44 22.86 C91.89 22.89 91.89 22.89 93 24 C93.11 26.35 93.16 28.67 93.17 31.03 C93.17 32.08 93.17 32.08 93.18 33.16 C93.18 34.65 93.19 36.15 93.19 37.64 C93.19 39.92 93.21 42.21 93.22 44.5 C93.23 45.95 93.23 47.39 93.23 48.84 C93.24 49.53 93.24 50.21 93.25 50.92 C93.23 55.77 93.23 55.77 91 58 C88.81 58.2 86.75 58.27 84.56 58.26 C83.57 58.26 83.57 58.26 82.56 58.27 C80.37 58.28 78.19 58.27 76 58.27 C74.48 58.27 72.97 58.27 71.45 58.27 C68.27 58.27 65.09 58.27 61.91 58.26 C57.82 58.25 53.74 58.26 49.66 58.27 C46.53 58.28 43.39 58.27 40.26 58.27 C38.75 58.27 37.25 58.27 35.74 58.27 C33.64 58.28 31.54 58.27 29.44 58.26 C28.5 58.26 28.5 58.26 27.54 58.27 C23.23 58.23 23.23 58.23 21 56 C20.86 53.42 20.81 50.95 20.88 48.38 C20.88 47.67 20.89 46.96 20.9 46.23 C20.93 44.49 20.96 42.74 21 41 C20.21 41.04 20.21 41.04 19.41 41.08 C17.02 41.18 14.64 41.25 12.25 41.31 C11.43 41.35 10.6 41.4 9.75 41.44 C8.55 41.46 8.55 41.46 7.33 41.49 C6.59 41.51 5.86 41.54 5.11 41.57 C1.73 40.66 0.75 38.97 -1 36 C-1.53 33.28 -1.49 30.65 -1.43 27.89 C-1.42 27.12 -1.42 26.36 -1.42 25.57 C-1.41 23.95 -1.39 22.34 -1.36 20.72 C-1.31 18.24 -1.3 15.77 -1.28 13.29 C-1.27 11.72 -1.25 10.15 -1.24 8.58 C-1.23 7.83 -1.22 7.09 -1.22 6.32 C-1.12 1.12 -1.12 1.12 0 0 Z " fill="#22C311" transform="translate(178,228)"/><path d="M0 0 C0.94 0.01 0.94 0.01 1.9 0.01 C2.56 0.01 3.22 0.01 3.9 0 C6.08 -0.01 8.27 -0 10.46 0.01 C11.97 0 13.49 0 15.01 -0 C18.19 -0 21.37 0 24.55 0.01 C28.63 0.02 32.72 0.02 36.8 0 C39.93 -0 43.06 -0 46.2 0 C47.7 0 49.21 0 50.71 -0 C52.82 -0.01 54.92 0 57.02 0.01 C57.65 0.01 58.27 0 58.92 0 C63.23 0.04 63.23 0.04 65.46 2.27 C65.6 4.69 65.65 6.98 65.58 9.4 C65.57 10.05 65.56 10.71 65.56 11.39 C65.53 13.02 65.5 14.64 65.46 16.27 C66.36 16.24 67.27 16.2 68.2 16.17 C69.39 16.14 70.58 16.11 71.77 16.08 C72.37 16.06 72.96 16.03 73.57 16.01 C78.01 15.93 78.01 15.93 80.13 17.54 C81.73 19.63 81.84 20.65 81.86 23.25 C81.88 24.44 81.88 24.44 81.9 25.66 C81.9 26.94 81.9 26.94 81.9 28.24 C81.92 29.56 81.92 29.56 81.94 30.91 C81.98 33.72 82 36.52 82.02 39.33 C82.04 42.15 82.07 44.96 82.11 47.77 C82.14 49.52 82.15 51.27 82.16 53.02 C82.17 54.21 82.17 54.21 82.19 55.42 C82.19 56.47 82.19 56.47 82.2 57.53 C82.32 59.53 82.32 59.53 84.46 61.27 C84.58 63.4 84.58 63.4 84.46 65.27 C82.47 65.65 80.47 65.98 78.46 66.27 C77.46 65.27 77.46 65.27 77.4 62.71 C77.42 61.9 77.44 61.1 77.46 60.27 C78.45 59.94 79.44 59.61 80.46 59.27 C80.29 58.77 80.13 58.27 79.96 57.75 C79.27 54.33 79.37 51.03 79.43 47.55 C79.44 46.03 79.46 44.5 79.47 42.98 C79.49 40.59 79.52 38.2 79.55 35.8 C79.58 33.49 79.6 31.18 79.62 28.86 C79.63 28.15 79.65 27.43 79.66 26.69 C79.72 22.08 79.72 22.08 77.46 18.27 C74.57 17.69 74.57 17.69 71.33 17.58 C70.24 17.52 69.14 17.45 68.01 17.38 C67.17 17.35 66.33 17.31 65.46 17.27 C65.48 18.4 65.5 19.53 65.53 20.7 C65.55 22.18 65.57 23.66 65.58 25.15 C65.6 25.89 65.62 26.64 65.63 27.41 C65.64 28.12 65.65 28.84 65.65 29.58 C65.66 30.24 65.67 30.9 65.69 31.58 C65.46 33.27 65.46 33.27 63.46 35.27 C61.23 35.46 59.14 35.53 56.91 35.51 C55.91 35.52 55.91 35.52 54.88 35.52 C52.65 35.52 50.43 35.51 48.2 35.5 C46.66 35.5 45.12 35.5 43.58 35.5 C40.35 35.5 37.11 35.49 33.88 35.48 C29.73 35.46 25.58 35.46 21.43 35.46 C18.24 35.46 15.06 35.45 11.88 35.44 C10.34 35.44 8.81 35.44 7.28 35.44 C5.15 35.44 3.01 35.43 0.87 35.42 C0.24 35.42 -0.4 35.42 -1.06 35.42 C-5.43 35.39 -5.43 35.39 -6.54 34.27 C-6.66 31.92 -6.71 29.6 -6.71 27.24 C-6.71 26.54 -6.72 25.84 -6.72 25.11 C-6.73 23.62 -6.73 22.13 -6.73 20.63 C-6.73 18.35 -6.75 16.06 -6.77 13.77 C-6.77 12.33 -6.77 10.88 -6.77 9.43 C-6.78 8.74 -6.79 8.06 -6.79 7.35 C-6.77 1.69 -5.79 0.06 0 0 Z " fill="#1DC20C" transform="translate(25.5419921875,143.72894287109375)"/><path d="M0 0 C0.5 1.49 0.5 1.49 1 3 C0.34 3.33 -0.32 3.66 -1 4 C-0.85 5.53 -0.85 5.53 -0.69 7.1 C-0.7 11.78 -2.93 14.07 -5.94 17.44 C-16.31 29.91 -22.28 43.23 -27.22 58.6 C-27.97 60.91 -28.77 63.21 -29.58 65.5 C-30.05 66.85 -30.53 68.21 -31 69.56 C-31.22 70.18 -31.44 70.79 -31.67 71.42 C-32.74 74.58 -33.09 75.73 -32 79 C-26.92 75.73 -22.19 72.11 -17.44 68.38 C-15.82 67.11 -14.21 65.85 -12.59 64.59 C-11.81 63.97 -11.02 63.36 -10.21 62.73 C-5.16 58.79 -0.08 54.89 5 51 C6.03 50.21 6.03 50.21 7.08 49.41 C9.32 47.69 11.57 45.97 13.81 44.25 C14.51 43.72 15.2 43.19 15.91 42.64 C17.26 41.61 18.62 40.58 19.97 39.55 C21.37 38.48 22.76 37.4 24.15 36.31 C24.85 35.77 25.54 35.23 26.26 34.67 C26.88 34.18 27.51 33.69 28.15 33.19 C30.12 31.92 31.74 31.55 34 31 C35.65 29.99 35.65 29.99 37.17 28.71 C38.04 28.01 38.04 28.01 38.92 27.3 C39.53 26.81 40.13 26.32 40.75 25.81 C42 24.81 43.25 23.81 44.5 22.82 C46.54 21.18 48.56 19.54 50.59 17.9 C51.28 17.36 51.97 16.81 52.69 16.25 C53.27 15.78 53.85 15.31 54.45 14.83 C54.96 14.55 55.47 14.28 56 14 C56.99 14.33 57.98 14.66 59 15 C59.73 17.07 59.73 17.07 60.19 19.56 C60.35 20.39 60.5 21.22 60.67 22.07 C60.78 22.7 60.89 23.34 61 24 C61.94 23.97 61.94 23.97 62.9 23.93 C63.72 23.91 64.53 23.89 65.38 23.88 C66.59 23.84 66.59 23.84 67.84 23.8 C70 24 70 24 72 26 C72 26.99 72 27.98 72 29 C69.03 29.66 66.06 30.32 63 31 C63.25 31.72 63.5 32.44 63.75 33.19 C64 36 64 36 62.44 38.81 C60 41 60 41 56.94 41.5 C54 41 54 41 52.19 39.94 C50.41 37.04 50.32 34.37 50 31 C50.99 30.5 50.99 30.5 52 30 C52 28.68 52 27.36 52 26 C52.99 26 53.98 26 55 26 C55 24.68 55 23.36 55 22 C46.3 28.63 37.62 35.28 29 42 C21.01 48.23 12.97 54.39 4.92 60.53 C2.63 62.28 0.34 64.04 -1.94 65.8 C-2.97 66.59 -4 67.38 -5.03 68.17 C-8.17 70.58 -11.28 73.01 -14.37 75.47 C-15.89 76.67 -17.42 77.87 -18.94 79.06 C-19.65 79.64 -20.36 80.21 -21.09 80.8 C-25.09 83.92 -27.88 85.74 -33 86 C-32.9 86.74 -32.79 87.49 -32.69 88.25 C-33 91 -33 91 -35.19 93.38 C-38 95 -38 95 -40.62 95 C-43.57 93.76 -44.6 92.88 -46 90 C-45.78 86.33 -45.63 84.63 -43 82 C-42.01 82 -41.02 82 -40 82 C-40.05 81.52 -40.1 81.04 -40.16 80.54 C-40.61 72.67 -38.04 65.76 -35.5 58.44 C-35.27 57.77 -35.05 57.1 -34.81 56.42 C-27.24 34.22 -16.61 16.61 0 0 Z " fill="#1F1D25" transform="translate(105,200)"/><path d="M0 0 C1.11 0 1.11 0 2.24 0 C3.49 -0 3.49 -0 4.78 -0.01 C5.68 0 6.59 0.01 7.52 0.02 C8.45 0.02 9.37 0.02 10.33 0.02 C12.29 0.02 14.25 0.03 16.21 0.04 C19.23 0.06 22.24 0.06 25.25 0.06 C27.15 0.07 29.06 0.07 30.96 0.08 C31.86 0.08 32.77 0.08 33.71 0.08 C34.54 0.09 35.37 0.1 36.23 0.1 C36.97 0.11 37.71 0.11 38.47 0.11 C40.17 0.25 40.17 0.25 41.17 1.25 C41.24 3.27 41.26 5.29 41.23 7.31 C41.23 8.41 41.22 9.52 41.21 10.66 C41.2 11.51 41.18 12.37 41.17 13.25 C44.14 13.25 47.11 13.25 50.17 13.25 C50.17 13.58 50.17 13.91 50.17 14.25 C47.2 14.25 44.23 14.25 41.17 14.25 C41.17 18.21 41.17 22.17 41.17 26.25 C34.92 26.27 28.68 26.29 22.43 26.3 C20.3 26.31 18.17 26.31 16.05 26.32 C13 26.33 9.94 26.34 6.89 26.34 C5.46 26.35 5.46 26.35 3.99 26.36 C3.11 26.36 2.23 26.36 1.32 26.36 C0.54 26.36 -0.23 26.37 -1.04 26.37 C-2.83 26.25 -2.83 26.25 -3.83 25.25 C-4.08 21.44 -4.01 17.62 -4.02 13.81 C-4.03 12.73 -4.04 11.66 -4.05 10.55 C-4.05 9.52 -4.06 8.5 -4.06 7.44 C-4.06 6.49 -4.07 5.55 -4.07 4.57 C-3.77 1.66 -3.01 0.41 0 0 Z " fill="#FF02FF" transform="translate(132.82826232910156,83.75276184082031)"/><path d="M0 0 C6.6 0 13.2 0 20 0 C20 0.99 20 1.98 20 3 C20.24 5.12 20.24 5.12 21 7 C21.99 7.33 22.98 7.66 24 8 C24 10.31 24 12.62 24 15 C23.01 14.67 22.02 14.34 21 14 C21 12.68 21 11.36 21 10 C20.34 10 19.68 10 19 10 C18.85 13.63 18.85 13.63 20 17 C18.68 17 17.36 17 16 17 C16 17.66 16 18.32 16 19 C17.32 19.33 18.64 19.66 20 20 C20 20.99 20 21.98 20 23 C16.7 23 13.4 23 10 23 C9.34 21.68 8.68 20.36 8 19 C7.67 20.32 7.34 21.64 7 23 C1.72 23 -3.56 23 -9 23 C-8.67 21.68 -8.34 20.36 -8 19 C-7.34 18.67 -6.68 18.34 -6 18 C-6.99 17.34 -7.98 16.68 -9 16 C-7.35 15.67 -5.7 15.34 -4 15 C-4 13.02 -4 11.04 -4 9 C-4.99 9 -5.98 9 -7 9 C-7 10.98 -7 12.96 -7 15 C-8.98 15 -10.96 15 -13 15 C-13 12.36 -13 9.72 -13 7 C-8.71 7 -4.42 7 0 7 C0 4.69 0 2.38 0 0 Z " fill="#27C517" transform="translate(225,257)"/><path d="M0 0 C1.32 1.2 2.61 2.43 3.88 3.69 C6.59 6.19 6.59 6.19 9.98 7.45 C15.2 7.11 19.75 4.89 24.5 2.88 C33.82 -1.04 33.82 -1.04 39.02 0.07 C43.24 2.05 46.04 5.49 49 9 C49.52 9.59 50.03 10.18 50.56 10.78 C51.66 12.03 52.75 13.28 53.83 14.54 C56.78 17.88 59.83 21.12 62.88 24.38 C67.69 29.51 72.49 34.66 77.16 39.93 C78.29 41.2 79.44 42.45 80.62 43.66 C83.67 46.9 84.84 49.63 85.13 54.11 C84.92 57.11 83.94 58.73 82 61 C79.04 63.47 77.5 63.99 73.62 64.06 C64.51 62.17 58.53 51.8 53.41 44.84 C52.92 44.21 52.44 43.58 51.94 42.94 C51.53 42.39 51.13 41.84 50.71 41.28 C47.92 39.2 45.39 38.69 42 39 C38.13 40.34 34.57 42.18 30.94 44.06 C15.33 51.95 -0.15 57.85 -16.81 63.12 C-19.69 64.04 -22.58 64.95 -25.45 65.88 C-27.23 66.44 -29.01 67.01 -30.78 67.57 C-42.72 70.91 -42.72 70.91 -51.19 79.2 C-53.91 88.59 -53.29 101.2 -49 110 C-47.78 111.84 -46.49 113.36 -45 115 C-45 115.66 -45 116.32 -45 117 C-44.23 117.37 -44.23 117.37 -43.44 117.75 C-41 119 -41 119 -38.19 120.88 C-33.81 123.45 -28.97 124.46 -24.07 125.6 C-22.36 126.01 -20.68 126.5 -19 127 C-18.67 127.66 -18.34 128.32 -18 129 C-21.35 128.39 -24.67 127.72 -28 127 C-29.27 126.73 -29.27 126.73 -30.57 126.45 C-39.23 124.24 -45.48 119.77 -50.44 112.31 C-55.11 103.78 -56.93 91.46 -54.46 81.93 C-51.54 74.55 -47.07 71.11 -40 68 C-36.88 66.84 -33.73 65.84 -30.55 64.86 C-28.72 64.29 -26.9 63.71 -25.07 63.13 C-23.66 62.68 -23.66 62.68 -22.22 62.23 C-4.8 56.73 12.26 51.12 28.51 42.68 C29.24 42.3 29.96 41.92 30.71 41.54 C32.05 40.84 33.37 40.12 34.68 39.39 C39.13 37 42.97 36.25 48 37 C54.66 40.09 59.51 48.33 64 54 C67.02 58.05 67.02 58.05 71 61 C76 61.49 76 61.49 80.44 59.5 C82.62 56 82.68 53.03 82 49 C80.77 46.72 79.12 45.09 77.25 43.31 C76.24 42.28 75.22 41.25 74.21 40.21 C73.68 39.69 73.15 39.16 72.61 38.62 C69.95 35.94 67.42 33.16 64.88 30.38 C63.87 29.28 62.86 28.19 61.85 27.1 C57.01 21.85 52.25 16.54 47.52 11.2 C47.11 10.73 46.69 10.27 46.27 9.8 C45.13 8.51 43.99 7.22 42.85 5.93 C40.41 3.38 38.87 2.83 35.44 2.71 C29.63 2.79 24.84 5.26 19.62 7.6 C14.55 9.75 11.36 10.57 6 9 C3.86 7.41 3.86 7.41 2.19 5.5 C-0.11 2.86 -0.11 2.86 -3 1 C-5.05 1.06 -5.05 1.06 -7.31 1.38 C-8.11 1.47 -8.91 1.57 -9.73 1.68 C-12.18 2.03 -14.59 2.46 -17 3 C-11.76 -1.44 -6.36 -3.39 0 0 Z " fill="#01AADA" transform="translate(369,43)"/><path d="M0 0 C0.5 2.97 0.5 2.97 1 6 C-0.32 5.34 -1.64 4.68 -3 4 C-2.79 4.62 -2.59 5.24 -2.38 5.88 C-2.25 6.58 -2.13 7.28 -2 8 C-2.66 8.66 -3.32 9.32 -4 10 C-4.64 12.07 -4.64 12.07 -5 14 C-5 13.01 -5 12.02 -5 11 C-9.69 13.07 -12.48 15.29 -16 19 C-16.99 19.68 -17.99 20.35 -19 21 C-19.43 21.43 -19.87 21.87 -20.31 22.31 C-25.31 27.31 -30.4 30.42 -36.71 33.57 C-39.3 34.85 -39.3 34.85 -40 38 C-41.32 38.68 -42.66 39.35 -44 40 C-44.6 40.62 -45.2 41.24 -45.81 41.88 C-48.57 44.56 -51.61 46.21 -55 48 C-55 48.66 -55 49.32 -55 50 C-60.75 53 -60.75 53 -63 53 C-63.45 53.78 -63.91 54.57 -64.38 55.38 C-66.15 58.24 -67.06 58.62 -70 60 C-70.52 60.7 -71.03 61.4 -71.56 62.12 C-72.27 63.05 -72.27 63.05 -73 64 C-73.99 64 -74.98 64 -76 64 C-77.68 65.53 -77.68 65.53 -79.19 67.5 C-79.72 68.15 -80.25 68.8 -80.79 69.47 C-81.19 69.97 -81.59 70.48 -82 71 C-83.5 70.13 -83.5 70.13 -85 69 C-85 68.34 -85 67.68 -85 67 C-83.52 66.5 -83.52 66.5 -82 66 C-81.01 64.46 -81.01 64.46 -80.12 62.56 C-76.62 56.68 -71.19 53.22 -65.74 49.27 C-63.03 47.29 -60.39 45.24 -57.75 43.19 C-51.95 38.72 -46.13 34.27 -40.31 29.82 C-34.91 25.7 -29.52 21.56 -24.14 17.41 C-21.93 15.72 -19.73 14.03 -17.52 12.34 C-16.94 11.89 -16.36 11.45 -15.77 10.99 C-14.67 10.16 -13.58 9.32 -12.49 8.49 C-9.33 6.06 -6.28 3.56 -3.29 0.93 C-2 0 -2 0 0 0 Z " fill="#EFF1F3" transform="translate(160,222)"/><path d="M0 0 C6.75 0.51 12.72 1.64 17.81 6.38 C21.35 10.61 22.2 13.35 21.81 18.81 C21.41 22.2 20.7 25.05 19.38 28.19 C17.69 32.28 17.87 34.71 19 39 C21.07 43.27 22.98 44.9 27.27 46.87 C27.78 47.11 28.3 47.35 28.83 47.6 C29.92 48.11 31.01 48.61 32.11 49.11 C33.83 49.88 35.53 50.67 37.23 51.47 C39.47 52.52 41.71 53.56 43.95 54.59 C47.75 56.35 51.54 58.12 55.31 59.94 C56.85 60.66 56.85 60.66 58.43 61.4 C61.49 63.3 63.14 64.9 65 68 C66.34 75.01 62.73 80.44 59.5 86.5 C58.74 88.01 58.74 88.01 57.97 89.55 C54.17 96.8 49.57 103.48 41.62 106.5 C26.85 109.48 8.79 101.45 -3.27 93.51 C-19.17 82.63 -31.04 71.2 -41.58 55.15 C-53.1 37.16 -53.1 37.16 -69.53 24.01 C-70.02 23.68 -70.5 23.34 -71 23 C-71 22.34 -71 21.68 -71 21 C-56.33 26.36 -48 40.8 -39.63 53.13 C-37.4 56.43 -35.13 59.7 -32.81 62.94 C-31.99 64.1 -31.99 64.1 -31.14 65.28 C-25.28 72.72 -19.13 78.93 -11.5 84.56 C-10.19 85.53 -10.19 85.53 -8.85 86.52 C4.3 96.05 20.93 105.39 37.8 104.36 C43.37 103.46 46.55 101.91 50.03 97.33 C52.22 94 54.11 90.51 56 87 C56.35 86.38 56.69 85.76 57.05 85.12 C58.07 83.28 59.07 81.43 60.06 79.56 C60.37 79 60.69 78.43 61.01 77.85 C62.44 75.03 63 73.01 63 69.84 C61.42 65.34 58.11 63.58 53.99 61.42 C52.89 60.91 51.78 60.4 50.67 59.91 C50.07 59.63 49.48 59.36 48.86 59.08 C46.97 58.21 45.08 57.36 43.19 56.5 C28.78 49.93 28.78 49.93 24.27 47.75 C23.68 47.47 23.09 47.19 22.49 46.9 C18.98 44.78 17.28 41.85 16 38 C15.55 33.57 15.47 29.59 17.5 25.56 C19.63 21.16 19.82 16.79 19 12 C17.12 7.84 14.24 5.88 10.06 4.25 C8.71 3.82 7.36 3.4 6 3 C4.83 2.61 3.67 2.21 2.5 1.81 C1.68 1.54 0.85 1.28 0 1 C0 0.67 0 0.34 0 0 Z " fill="#70BD6A" transform="translate(386,180)"/><path d="M0 0 C6.93 0 13.86 0 21 0 C21 0.99 21 1.98 21 3 C21.15 4.23 21.31 5.46 21.5 6.69 C21.75 8.33 21.75 8.33 22 10 C21.34 10 20.68 10 20 10 C19.9 13.49 20.22 16.59 21 20 C20.01 20 19.02 20 18 20 C18 20.66 18 21.32 18 22 C18.99 22.33 19.98 22.66 21 23 C17.7 23 14.4 23 11 23 C10.67 22.34 10.34 21.68 10 21 C9.67 21.66 9.34 22.32 9 23 C8.34 23 7.68 23 7 23 C6.88 17.25 6.88 17.25 8 15 C6.02 15 4.04 15 2 15 C2 13.35 2 11.7 2 10 C1.01 10 0.02 10 -1 10 C-1 11.65 -1 13.3 -1 15 C-1.66 15 -2.32 15 -3 15 C-3 13.35 -3 11.7 -3 10 C-4.56 10.79 -4.56 10.79 -6 12 C-6 12.99 -6 13.98 -6 15 C-7.98 15 -9.96 15 -12 15 C-12 12.69 -12 10.38 -12 8 C-6.06 7.5 -6.06 7.5 0 7 C0 4.69 0 2.38 0 0 Z M4 10 C4 10.99 4 11.98 4 13 C5.32 13 6.64 13 8 13 C8.33 13.66 8.66 14.32 9 15 C9 13.35 9 11.7 9 10 C7.35 10 5.7 10 4 10 Z " fill="#35C825" transform="translate(44,150)"/><path d="M0 0 C-9.85 5.17 -20.01 9.57 -30.22 13.97 C-35.34 16.18 -40.45 18.39 -45.56 20.61 C-47.12 21.29 -47.12 21.29 -48.72 21.97 C-64 28.59 -79.24 35.3 -94.49 42.01 C-98.06 43.59 -101.64 45.16 -105.22 46.72 C-107.71 47.81 -110.19 48.91 -112.67 50 C-114.29 50.71 -115.91 51.42 -117.52 52.12 C-130.66 57.79 -130.66 57.79 -142 66.31 C-145.52 69.63 -149.08 72.81 -152.81 75.88 C-154.12 76.95 -154.12 76.95 -155.46 78.05 C-157.88 79.91 -160.35 81.49 -163 83 C-161.49 79.21 -159.3 77.37 -156.12 74.88 C-155.13 74.09 -154.13 73.3 -153.14 72.5 C-152.62 72.1 -152.1 71.69 -151.57 71.27 C-150.01 70.01 -148.48 68.71 -146.96 67.4 C-146.45 66.97 -145.95 66.54 -145.43 66.09 C-144.48 65.28 -143.53 64.45 -142.59 63.63 C-133.55 55.93 -122.7 51.44 -111.94 46.75 C-110.36 46.06 -108.78 45.36 -107.2 44.67 C-103.87 43.2 -100.52 41.73 -97.18 40.27 C-91.98 37.99 -86.77 35.7 -81.57 33.41 C-64.71 25.98 -47.83 18.59 -30.91 11.3 C-25.67 9.04 -20.45 6.77 -15.27 4.39 C-13.99 3.81 -13.99 3.81 -12.69 3.22 C-11.17 2.52 -9.65 1.81 -8.13 1.09 C-3.33 -1.11 -3.33 -1.11 0 0 Z " fill="#EB0101" transform="translate(352,47)"/><path d="M0 0 C0.66 0.33 1.32 0.66 2 1 C1.31 1.82 0.62 2.65 -0.09 3.5 C-11.51 17.41 -18.72 31.49 -24.22 48.6 C-24.97 50.91 -25.77 53.21 -26.58 55.5 C-27.05 56.85 -27.53 58.21 -28 59.56 C-28.22 60.18 -28.44 60.79 -28.67 61.42 C-29.74 64.58 -30.09 65.73 -29 69 C-23.92 65.73 -19.19 62.11 -14.44 58.38 C-12.82 57.11 -11.21 55.85 -9.59 54.59 C-8.81 53.97 -8.02 53.36 -7.21 52.73 C-2.16 48.79 2.92 44.89 8 41 C9.03 40.21 9.03 40.21 10.08 39.41 C12.32 37.69 14.57 35.97 16.81 34.25 C17.51 33.72 18.2 33.19 18.91 32.64 C23.59 29.07 28.29 25.52 33 22 C33 25 33 25 31.67 26.39 C31.04 26.86 30.41 27.34 29.77 27.83 C29.06 28.37 28.35 28.92 27.62 29.48 C26.84 30.06 26.05 30.65 25.25 31.25 C24.04 32.17 24.04 32.17 22.81 33.11 C20.22 35.09 17.61 37.04 15 39 C14.15 39.64 13.3 40.27 12.43 40.93 C9.05 43.46 5.67 45.99 2.28 48.51 C-3.6 52.91 -9.38 57.42 -15.07 62.06 C-17.92 64.37 -20.79 66.65 -23.73 68.85 C-24.57 69.47 -24.57 69.47 -25.42 70.11 C-27 71 -27 71 -29.94 70.81 C-30.62 70.54 -31.3 70.28 -32 70 C-31.62 62.21 -29.38 55.14 -26.88 47.81 C-26.67 47.21 -26.47 46.62 -26.26 46 C-20.4 28.74 -12.49 13.47 0 0 Z " fill="#EB0101" transform="translate(102,210)"/><path d="M0 0 C0.5 2.97 0.5 2.97 1 6 C-0.32 5.34 -1.64 4.68 -3 4 C-2.79 4.62 -2.59 5.24 -2.38 5.88 C-2.25 6.58 -2.13 7.28 -2 8 C-2.66 8.66 -3.32 9.32 -4 10 C-4.64 12.07 -4.64 12.07 -5 14 C-5 13.01 -5 12.02 -5 11 C-9.69 13.07 -12.48 15.29 -16 19 C-16.99 19.68 -17.99 20.35 -19 21 C-19.65 21.77 -19.65 21.77 -20.31 22.56 C-22 24 -22 24 -24.81 24.44 C-28.8 25.14 -30.72 26.69 -34 29 C-34.66 29 -35.32 29 -36 29 C-34.48 24.91 -31.59 22.87 -28.19 20.38 C-27.01 19.49 -25.84 18.61 -24.66 17.73 C-24.06 17.28 -23.46 16.83 -22.83 16.37 C-19.89 14.17 -16.98 11.93 -14.06 9.69 C-13.28 9.09 -13.28 9.09 -12.49 8.49 C-9.33 6.07 -6.28 3.56 -3.29 0.93 C-2 0 -2 0 0 0 Z " fill="#EFF0F3" transform="translate(160,222)"/><path d="M0 0 C6.75 0.51 12.72 1.64 17.81 6.38 C21.35 10.61 22.2 13.35 21.81 18.81 C21.41 22.2 20.7 25.05 19.38 28.19 C17.69 32.28 17.87 34.71 19 39 C21.07 43.27 22.98 44.9 27.27 46.87 C27.78 47.11 28.3 47.35 28.83 47.6 C29.92 48.11 31.01 48.61 32.11 49.11 C33.83 49.88 35.53 50.67 37.23 51.47 C39.47 52.52 41.71 53.56 43.95 54.59 C47.75 56.35 51.54 58.12 55.31 59.94 C56.34 60.42 57.37 60.9 58.43 61.4 C61.39 63.24 63.06 65.11 65 68 C66.41 75.03 62.57 80.13 59 86 C58.01 85.5 58.01 85.5 57 85 C57.44 84.2 57.89 83.41 58.35 82.59 C58.92 81.52 59.49 80.45 60.06 79.38 C60.36 78.85 60.65 78.33 60.96 77.79 C62.42 75 63 73.02 63 69.85 C61.42 65.34 58.12 63.59 53.99 61.42 C52.89 60.91 51.78 60.4 50.67 59.91 C50.07 59.63 49.48 59.36 48.86 59.08 C46.97 58.21 45.08 57.36 43.19 56.5 C28.78 49.93 28.78 49.93 24.27 47.75 C23.39 47.33 23.39 47.33 22.49 46.9 C18.98 44.78 17.28 41.85 16 38 C15.55 33.57 15.47 29.59 17.5 25.56 C19.63 21.16 19.82 16.79 19 12 C17.12 7.84 14.24 5.88 10.06 4.25 C8.71 3.82 7.36 3.4 6 3 C4.83 2.61 3.67 2.21 2.5 1.81 C1.68 1.54 0.85 1.28 0 1 C0 0.67 0 0.34 0 0 Z " fill="#01AADA" transform="translate(386,180)"/><path d="M0 0 C2 4 2 4 2 7 C5.96 7 9.92 7 14 7 C14.33 6.01 14.66 5.02 15 4 C19.95 4 24.9 4 30 4 C28.68 4.33 27.36 4.66 26 5 C26 5.66 26 6.32 26 7 C30.22 7.35 31.71 6.52 35 4 C35.99 4.33 36.98 4.66 38 5 C37.34 5 36.68 5 36 5 C36 5.66 36 6.32 36 7 C42.93 7.5 42.93 7.5 50 8 C45.5 11.37 45.5 11.37 41.09 11.29 C40.16 11.28 39.23 11.27 38.28 11.26 C37.32 11.24 36.36 11.21 35.38 11.19 C34.41 11.17 33.44 11.16 32.45 11.15 C29.96 11.11 27.48 11.06 25 11 C24.34 11 23.68 11 23 11 C14.67 11 6.33 11 -2 11 C-1.34 7.37 -0.68 3.74 0 0 Z M18 5 C18 5.66 18 6.32 18 7 C17.01 7.5 17.01 7.5 16 8 C17.98 7.67 19.96 7.34 22 7 C22 6.34 22 5.68 22 5 C20.68 5 19.36 5 18 5 Z M3 4 C3.99 4.33 4.98 4.66 6 5 C5.34 5 4.68 5 4 5 C4 5.66 4 6.32 4 7 C3.34 7 2.68 7 2 7 C2.33 6.01 2.66 5.02 3 4 Z " fill="#F3F1FF" transform="translate(459,94)"/><path d="M0 0 C1.56 -0.04 1.56 -0.04 3.16 -0.08 C6.34 0.3 6.88 0.95 8.94 3.25 C7.9 3.16 6.86 3.06 5.79 2.97 C-6.27 2.23 -13.94 5.2 -24.19 11.25 C-25.52 12 -26.86 12.76 -28.2 13.5 C-30.85 14.99 -33.5 16.49 -36.14 18.01 C-55.32 28.99 -55.32 28.99 -64.38 31.12 C-65.13 31.32 -65.88 31.51 -66.66 31.71 C-68.79 32.25 -70.92 32.76 -73.06 33.25 C-74.13 33.5 -75.19 33.74 -76.29 34 C-79.95 34.78 -83.31 35.34 -87.06 35.25 C-87.06 34.59 -87.06 33.93 -87.06 33.25 C-86.34 33.09 -85.61 32.94 -84.87 32.78 C-82.11 32.18 -79.36 31.57 -76.61 30.96 C-75.44 30.7 -74.26 30.44 -73.08 30.19 C-58.39 27.04 -45.88 20.76 -32.75 13.69 C-31.32 12.92 -29.89 12.16 -28.47 11.4 C-22.78 8.36 -17.11 5.31 -11.54 2.06 C-7.84 0.04 -4.15 0.06 0 0 Z " fill="#6FC168" transform="translate(270.0625,186.75)"/><path d="M0 0 C2.54 1.66 2.93 2.73 3.69 5.69 C3.79 6.45 3.89 7.21 4 8 C5.32 7.34 6.64 6.68 8 6 C7.07 7.13 6.13 8.25 5.19 9.38 C4.67 10 4.14 10.63 3.61 11.27 C2.15 12.84 0.83 13.91 -1 15 C-1 14.34 -1 13.68 -1 13 C-1.93 12.9 -2.86 12.79 -3.81 12.69 C-7 12 -7 12 -8.88 10.81 C-10.58 8.07 -10.46 6.15 -10 3 C-7.1 -0.35 -4.28 -0.55 0 0 Z " fill="#262730" transform="translate(140,142)"/><path d="M0 0 C1.98 0 3.96 0 6 0 C5.98 0.91 5.96 1.81 5.94 2.75 C5.99 5.48 6.33 7.41 7 10 C7.04 11.67 7.05 13.33 7 15 C5.02 15 3.04 15 1 15 C1 13.02 1 11.04 1 9 C0.01 9 -0.98 9 -2 9 C-2 10.98 -2 12.96 -2 15 C-2.66 15 -3.32 15 -4 15 C-4 13.02 -4 11.04 -4 9 C-4.99 9 -5.98 9 -7 9 C-7 10.98 -7 12.96 -7 15 C-8.98 15 -10.96 15 -13 15 C-13 12.36 -13 9.72 -13 7 C-8.71 7 -4.42 7 0 7 C0 4.69 0 2.38 0 0 Z " fill="#A6E5A1" transform="translate(225,257)"/><path d="M0 0 C3.96 2.29 3.96 2.29 5.38 4.38 C5.88 7.31 5.88 7.31 5.38 10.38 C3.19 12.81 3.19 12.81 0.38 14.38 C-2.46 14.31 -4.01 13.73 -6.44 12.31 C-8.37 9.16 -8.42 5.95 -7.62 2.38 C-4.91 -0.26 -3.71 -0.88 0 0 Z " fill="#36363F" transform="translate(178.625,147.625)"/><path d="M0 0 C6.39 1.45 6.39 1.45 9 3.81 C10.32 6.69 10.06 8.05 9 11 C7.81 12.81 7.81 12.81 6 14 C3.06 14.5 3.06 14.5 0 14 C-2.63 11.58 -3.81 9.95 -4.5 6.44 C-3.85 3.27 -2.43 2.05 0 0 Z " fill="#383941" transform="translate(326,119)"/><path d="M0 0 C0.7 -0.02 1.4 -0.03 2.12 -0.05 C4 0.31 4 0.31 5.23 1.64 C6.45 4.29 6.3 6.45 6 9.31 C4.94 11.19 4.94 11.19 3 12.31 C0.56 12.78 -1.57 12.82 -4 12.31 C-6 10.69 -6 10.69 -7 8.31 C-6.68 2.92 -5.71 0.03 0 0 Z " fill="#22222B" transform="translate(394,190.6875)"/><path d="M0 0 C1.21 0.01 2.41 0.02 3.62 0.04 C4.24 0.04 4.85 0.04 5.49 0.05 C7.01 0.06 8.53 0.08 10.06 0.1 C10.06 1.09 10.06 2.08 10.06 3.1 C10.39 4.75 10.72 6.4 11.06 8.1 C5.12 8.59 5.12 8.59 -0.94 9.1 C-1.27 10.42 -1.6 11.74 -1.94 13.1 C-3.59 13.1 -5.24 13.1 -6.94 13.1 C-5.62 12.77 -4.3 12.44 -2.94 12.1 C-2.94 11.44 -2.94 10.78 -2.94 10.1 C-4.26 9.77 -5.58 9.44 -6.94 9.1 C-5.62 9.1 -4.3 9.1 -2.94 9.1 C-2.94 8.44 -2.94 7.78 -2.94 7.1 C-3.93 6.77 -4.92 6.44 -5.94 6.1 C-5.28 6.1 -4.62 6.1 -3.94 6.1 C-3.96 5.29 -3.98 4.49 -4 3.66 C-3.91 -0.02 -3.71 0.12 0 0 Z " fill="#38C929" transform="translate(234.94140625,256.90234375)"/><path d="M0 0 C0 2.31 0 4.62 0 7 C-0.99 6.67 -1.98 6.34 -3 6 C-3 4.68 -3 3.36 -3 2 C-3.66 2 -4.32 2 -5 2 C-5.15 5.63 -5.15 5.63 -4 9 C-5.32 9 -6.64 9 -8 9 C-8 9.66 -8 10.32 -8 11 C-6.68 11.33 -5.36 11.66 -4 12 C-4 12.99 -4 13.98 -4 15 C-5.98 15 -7.96 15 -10 15 C-10.33 12.69 -10.66 10.38 -11 8 C-11.66 8 -12.32 8 -13 8 C-13.33 8.99 -13.66 9.98 -14 11 C-14.99 9.68 -15.98 8.36 -17 7 C-14.33 5.67 -12.83 6.33 -10 7 C-10 6.34 -10 5.68 -10 5 C-11.32 5 -12.64 5 -14 5 C-14 3.68 -14 2.36 -14 1 C-13.19 1.02 -13.19 1.02 -12.36 1.04 C-11.28 1.05 -11.28 1.05 -10.19 1.06 C-9.48 1.07 -8.77 1.09 -8.04 1.1 C-5.18 0.96 -2.92 0 0 0 Z " fill="#1CC20B" transform="translate(249,265)"/><path d="M0 0 C0.99 0.33 1.98 0.66 3 1 C2.4 1.52 1.8 2.03 1.19 2.56 C-1.15 5.16 -2.03 7.24 -3.09 10.51 C-4.37 12.6 -5.67 12.43 -8 13 C-9.76 14.61 -9.76 14.61 -11.25 16.56 C-11.77 17.2 -12.29 17.84 -12.83 18.5 C-13.21 19 -13.6 19.49 -14 20 C-15.5 19.12 -15.5 19.12 -17 18 C-17 17.34 -17 16.68 -17 16 C-16.01 15.67 -15.02 15.34 -14 15 C-12.87 13.37 -12.87 13.37 -11.88 11.38 C-8.97 6.48 -5 2.76 0 0 Z " fill="#ECECF0" transform="translate(92,273)"/><path d="M0 0 C3.95 -0.18 6.6 -0.09 10 2 C10 2.99 10 3.98 10 5 C10.66 4.67 11.32 4.34 12 4 C12 3.34 12 2.68 12 2 C12.99 2 13.98 2 15 2 C15.33 2.66 15.66 3.32 16 4 C16.66 3.01 17.32 2.02 18 1 C18.22 4.22 18.27 6.43 16.88 9.38 C15 11 15 11 12.06 11.5 C9 11 9 11 6.62 9.38 C4.59 6.4 4.68 4.54 5 1 C3.35 1 1.7 1 0 1 C0 0.67 0 0.34 0 0 Z " fill="#54555C" transform="translate(419,291)"/><path d="M0 0 C1.05 -0.02 1.05 -0.02 2.12 -0.04 C4 0.19 4 0.19 6 2.19 C5.67 5.48 5.38 6.81 3 9.19 C0.38 9.47 -1.47 9.67 -4 9.19 C-6 7.44 -6 7.44 -7 5.19 C-6.81 3 -6.81 3 -6 1.19 C-3.77 0.07 -2.47 0.02 0 0 Z " fill="#2A2B34" transform="translate(413,89.8125)"/><path d="M0 0 C6.6 0 13.2 0 20 0 C20 2.31 20 4.62 20 7 C18.02 7 16.04 7 14 7 C14 5.35 14 3.7 14 2 C13.01 2 12.02 2 11 2 C11 3.65 11 5.3 11 7 C10.34 7 9.68 7 9 7 C9 5.35 9 3.7 9 2 C7.44 2.79 7.44 2.79 6 4 C6 4.99 6 5.98 6 7 C4.02 7 2.04 7 0 7 C0 4.69 0 2.38 0 0 Z " fill="#CFF0CC" transform="translate(32,158)"/><path d="M0 0 C0.66 0.66 1.32 1.32 2 2 C2.66 1.34 3.32 0.68 4 0 C7.12 -0.12 7.12 -0.12 10 0 C12.09 4.43 12.09 4.43 11.62 7.31 C11.42 7.87 11.21 8.43 11 9 C8.31 9.75 8.31 9.75 5 10 C1.72 8.11 0.3 6.93 -0.88 3.31 C-0.92 2.55 -0.96 1.79 -1 1 C-0.67 0.67 -0.34 0.34 0 0 Z " fill="#33343C" transform="translate(141,176)"/><path d="M0 0 C3.38 0.88 3.38 0.88 5.38 2.88 C5.64 5.23 5.46 7.49 5.38 9.88 C4.71 9.22 4.06 8.55 3.38 7.88 C1.62 8.07 -0.14 8.26 -1.87 8.59 C-3.8 8.9 -5.67 8.88 -7.62 8.88 C-7.98 5.67 -7.86 4.23 -6.06 1.5 C-3.44 -0.25 -2.96 -0.35 0 0 Z " fill="#30313A" transform="translate(407.625,27.125)"/><path d="M0 0 C1.27 -0.03 2.54 -0.05 3.81 -0.06 C4.52 -0.07 5.23 -0.09 5.96 -0.1 C8 0 8 0 11 1 C11 1.99 11 2.98 11 4 C11.66 4 12.32 4 13 4 C13 3.01 13 2.02 13 1 C14.65 0.67 16.3 0.34 18 0 C18.66 1.98 19.32 3.96 20 6 C18.13 8.5 17.21 8.97 14.06 9.44 C11 9 11 9 8.62 7.25 C6.89 4.84 6.59 3.89 7 1 C4.69 1 2.38 1 0 1 C0 0.67 0 0.34 0 0 Z " fill="#34343C" transform="translate(440,111)"/><path d="M0 0 C0.66 0.33 1.32 0.66 2 1 C1.34 1.66 0.68 2.32 0 3 C2.31 3.33 4.62 3.66 7 4 C7.66 5.98 8.32 7.96 9 10 C6.7 12.13 5.63 13.02 2.44 12.94 C-0.59 11.77 -1.58 10.92 -3 8 C-2.78 4.33 -2.63 2.63 0 0 Z " fill="#272831" transform="translate(62,282)"/><path d="M0 0 C1.88 1.38 1.88 1.38 3 3 C3 3.66 3 4.32 3 5 C2.34 5 1.68 5 1 5 C1 6.32 1 7.64 1 9 C-6.43 9.14 -6.43 9.14 -10 8 C-9.65 5.37 -9.28 3.42 -7.81 1.19 C-5.11 -0.58 -3.15 -0.39 0 0 Z " fill="#1F2029" transform="translate(366,24)"/><path d="M0 0 C0.66 3.3 1.32 6.6 2 10 C4.31 10 6.62 10 9 10 C7 12 7 12 3.94 12.19 C1 12 1 12 0 11 C-0.39 9.49 -0.74 7.97 -1.06 6.44 C-1.24 5.61 -1.42 4.78 -1.6 3.93 C-1.8 2.98 -1.8 2.98 -2 2 C-7.26 3.58 -10.93 6.98 -15.06 10.44 C-16.47 11.6 -17.88 12.77 -19.29 13.93 C-19.9 14.45 -20.52 14.97 -21.16 15.5 C-26.68 20 -26.68 20 -29 20 C-27.91 16.72 -27.36 16.25 -24.68 14.29 C-24 13.79 -23.32 13.28 -22.62 12.76 C-21.9 12.24 -21.18 11.72 -20.44 11.19 C-19.75 10.68 -19.05 10.17 -18.34 9.65 C-16.94 8.62 -15.54 7.59 -14.13 6.58 C-12.67 5.5 -11.24 4.38 -9.83 3.24 C-8.79 2.4 -8.79 2.4 -7.72 1.55 C-7.1 1.04 -6.48 0.53 -5.84 -0 C-4 -1 -4 -1 0 0 Z " fill="#72C56B" transform="translate(165,213)"/><path d="M0 0 C0.56 0.25 1.11 0.5 1.69 0.75 C1.69 1.41 1.69 2.07 1.69 2.75 C2.35 2.75 3.01 2.75 3.69 2.75 C3.69 3.74 3.69 4.73 3.69 5.75 C2.37 5.75 1.05 5.75 -0.31 5.75 C-0.25 6.37 -0.19 6.99 -0.12 7.62 C-0.31 9.75 -0.31 9.75 -1.62 11 C-3.31 11.75 -3.31 11.75 -6.31 11.75 C-6.31 10.43 -6.31 9.11 -6.31 7.75 C-7.3 7.75 -8.29 7.75 -9.31 7.75 C-7.7 3.64 -4.8 -0.52 0 0 Z " fill="#7D7E86" transform="translate(149.3125,242.25)"/><path d="M0 0 C1.88 1.81 1.88 1.81 3 4 C2.69 6.25 2.69 6.25 2 8 C-1.33 8 -4.67 8 -8 8 C-8.33 7.01 -8.66 6.02 -9 5 C-9.33 4.34 -9.66 3.68 -10 3 C-7.57 -1.31 -4.49 -1.46 0 0 Z " fill="#2A2B33" transform="translate(171,198)"/><path d="M0 0 C2.64 0 5.28 0 8 0 C8.33 0.66 8.66 1.32 9 2 C9.66 1.67 10.32 1.34 11 1 C10.68 3.99 10.35 5.61 8.31 7.88 C5.21 9.38 3.28 8.82 0 8 C0 5.33 0 2.67 0 0 Z " fill="#31323A" transform="translate(373,60)"/><path d="M0 0 C2.73 0.89 3.89 1.44 5.5 3.81 C5.5 5.46 5.5 7.11 5.5 8.81 C2.2 8.81 -1.1 8.81 -4.5 8.81 C-4.83 6.5 -5.16 4.19 -5.5 1.81 C-3.51 0.04 -2.71 -0.2 0 0 Z " fill="#414149" transform="translate(461.5,239.1875)"/><path d="M0 0 C2.31 0 4.62 0 7 0 C7 1.65 7 3.3 7 5 C7.66 5 8.32 5 9 5 C9 3.35 9 1.7 9 0 C9.99 0 10.98 0 12 0 C12 1.65 12 3.3 12 5 C13.98 5 15.96 5 18 5 C18 5.66 18 6.32 18 7 C7.44 7.18 7.44 7.18 3 6 C3.33 5.01 3.66 4.02 4 3 C2.68 2.67 1.36 2.34 0 2 C0 1.34 0 0.68 0 0 Z M14 0 C15.65 0 17.3 0 19 0 C19 1.65 19 3.3 19 5 C18.67 4.34 18.34 3.68 18 3 C15.98 2.35 15.98 2.35 14 2 C14 1.34 14 0.68 14 0 Z " fill="#16C004" transform="translate(34,160)"/><path d="M0 0 C5.81 0.79 11.37 2.41 17 4 C17.33 5.65 17.66 7.3 18 9 C17.4 8.84 16.8 8.67 16.19 8.5 C13.89 7.89 13.89 7.89 11 8 C8.94 7.3 6.95 6.48 4.94 5.66 C2.87 4.84 2.87 4.84 0 5 C0 3.35 0 1.7 0 0 Z " fill="#61A85A" transform="translate(295,192)"/><path d="M0 0 C1.1 0.02 1.1 0.02 2.21 0.04 C2.95 0.04 3.68 0.05 4.44 0.06 C5 0.07 5.57 0.09 6.15 0.1 C6.81 1.42 7.47 2.74 8.15 4.1 C7.66 4.57 7.16 5.05 6.65 5.54 C5.04 6.86 5.04 6.86 5.15 8.1 C2.84 8.1 0.53 8.1 -1.85 8.1 C-2.53 5.61 -2.85 3.72 -2.85 1.1 C-1.85 0.1 -1.85 0.1 0 0 Z " fill="#55565D" transform="translate(391.84765625,190.90234375)"/><path d="M0 0 C2 2 2 2 2 5 C2.93 4.81 3.86 4.63 4.81 4.44 C8 4 8 4 11 5 C11 3.35 11 1.7 11 0 C11.66 0 12.32 0 13 0 C13.31 2.75 13.31 2.75 13 6 C10.81 8.44 10.81 8.44 8 10 C5.11 9.93 3.59 9.39 1.19 7.81 C-0.52 5.21 -0.2 3.04 0 0 Z " fill="#2A2A33" transform="translate(171,152)"/><path d="M0 0 C0.66 0.33 1.32 0.66 2 1 C1.67 2.32 1.34 3.64 1 5 C0.26 5.1 -0.49 5.21 -1.25 5.31 C-4.02 5.8 -4.02 5.8 -5.88 7.5 C-8.1 9.07 -9.06 9.27 -11.69 9.56 C-13.33 9.78 -13.33 9.78 -15 10 C-15.33 10.66 -15.66 11.32 -16 12 C-16.33 10.68 -16.66 9.36 -17 8 C-16.44 7.76 -15.89 7.52 -15.31 7.27 C-10.65 5.22 -6.1 3.07 -1.63 0.64 C-1.09 0.43 -0.55 0.22 0 0 Z " fill="#C1EBBE" transform="translate(317,47)"/><path d="M0 0 C2 2 2 2 2 5 C3.67 5.06 3.67 5.06 5.38 5.12 C6.31 5.16 6.31 5.16 7.27 5.2 C9.26 5.15 9.26 5.15 11 3 C10.25 7.75 10.25 7.75 8 10 C4.9 10.33 2.84 10.51 0.12 8.88 C-1.49 6.19 -1.27 4.06 -1 1 C-0.67 0.67 -0.34 0.34 0 0 Z " fill="#1B1B24" transform="translate(324,123)"/><path d="M0 0 C4.29 0 8.58 0 13 0 C13 2.62 12.69 4.51 12 7 C10.68 7 9.36 7 8 7 C8 5.68 8 4.36 8 3 C7.34 3.66 6.68 4.32 6 5 C5.01 5 4.02 5 3 5 C3 4.34 3 3.68 3 3 C3.66 3 4.32 3 5 3 C5 2.34 5 1.68 5 1 C4.01 1 3.02 1 2 1 C2 2.98 2 4.96 2 7 C1.34 7 0.68 7 0 7 C0 4.69 0 2.38 0 0 Z " fill="#D9F2D9" transform="translate(52,150)"/><path d="M0 0 C4.29 0 8.58 0 13 0 C13 2 13 4 13 6 C11.35 6 9.7 6 8 6 C8 5.01 8 4.02 8 3 C7.01 3 6.02 3 5 3 C5.33 3.99 5.66 4.98 6 6 C5.01 5.67 4.02 5.34 3 5 C2.31 2.94 2.31 2.94 2 1 C2 2.65 2 4.3 2 6 C1.34 6 0.68 6 0 6 C0 4.02 0 2.04 0 0 Z " fill="#DAF2D8" transform="translate(232,257)"/><path d="M0 0 C1.65 0.02 1.65 0.02 3.34 0.04 C5 0.05 5 0.05 6.69 0.06 C7.54 0.07 8.4 0.09 9.28 0.1 C9.28 0.76 9.28 1.42 9.28 2.1 C8.62 2.1 7.96 2.1 7.28 2.1 C7.28 3.75 7.28 5.4 7.28 7.1 C6.62 7.1 5.96 7.1 5.28 7.1 C5.28 5.45 5.28 3.8 5.28 2.1 C2.97 2.1 0.66 2.1 -1.72 2.1 C-1.72 3.09 -1.72 4.08 -1.72 5.1 C-0.4 5.1 0.92 5.1 2.28 5.1 C2.28 5.76 2.28 6.42 2.28 7.1 C0.61 7.14 -1.06 7.14 -2.72 7.1 C-3.72 6.1 -3.72 6.1 -3.85 3.6 C-3.67 0.1 -3.53 0.13 0 0 Z " fill="#C5EDC2" transform="translate(56.72265625,157.90234375)"/><path d="M0 0 C2.38 -0.12 2.38 -0.12 5 0 C5.66 0.66 6.32 1.32 7 2 C6.44 6.56 6.44 6.56 5 8 C3.33 8.04 1.67 8.04 0 8 C0 5.36 0 2.72 0 0 Z " fill="#C2ECBF" transform="translate(204,264)"/><path d="M0 0 C2.97 0.99 5.94 1.98 9 3 C9 4.32 9 5.64 9 7 C7.69 7.03 6.38 7.05 5.06 7.06 C4.33 7.07 3.6 7.09 2.85 7.1 C1 7 1 7 0 6 C-0.66 6.66 -1.32 7.32 -2 8 C-2.12 5.12 -2.12 5.12 -2 2 C-1.34 1.34 -0.68 0.68 0 0 Z " fill="#8A8B91" transform="translate(132,143)"/><path d="M0 0 C0.33 1.32 0.66 2.64 1 4 C0.11 4.27 -0.77 4.54 -1.69 4.81 C-3.93 5.55 -5.51 6.31 -7.56 7.56 C-10.09 9.05 -12.11 9.59 -15 10 C-15 9.01 -15 8.02 -15 7 C-14.22 6.62 -14.22 6.62 -13.43 6.23 C-10.25 4.66 -7.15 3.09 -4.12 1.25 C-2 0 -2 0 0 0 Z " fill="#B4E7AF" transform="translate(351,33)"/><path d="M0 0 C5.28 0 10.56 0 16 0 C16 0.66 16 1.32 16 2 C15.34 2 14.68 2 14 2 C14 2.66 14 3.32 14 4 C8.4 4.34 5.04 3.47 0 1 C0 0.67 0 0.34 0 0 Z " fill="#E6E5F5" transform="translate(432,230)"/><path d="M0 0 C2 -0.04 4 -0.04 6 0 C7 1 7 1 7.12 3.5 C7 6 7 6 6 7 C4 7.04 2 7.04 0 7 C0 4.69 0 2.38 0 0 Z " fill="#B1E8AB" transform="translate(24,158)"/><path d="M0 0 C1.68 0.29 3.34 0.62 5 1 C5.81 2.69 5.81 2.69 6 5 C4.52 6.95 2.86 8.37 1 10 C-0.85 6.88 -1.29 4.62 -1 1 C-0.67 0.67 -0.34 0.34 0 0 Z " fill="#13C001" transform="translate(176,219)"/><path d="M0 0 C2.31 0.33 4.62 0.66 7 1 C7.04 2.67 7.04 4.33 7 6 C6 7 6 7 2.94 7.06 C1.48 7.03 1.48 7.03 0 7 C0 4.69 0 2.38 0 0 Z " fill="#ECEBF6" transform="translate(162,90)"/><path d="M0 0 C3.94 4.43 3.94 4.43 4.25 7.31 C4.17 7.87 4.08 8.43 4 9 C2.01 9.38 0.01 9.71 -2 10 C-3 9 -3 9 -3.06 6.44 C-3.04 5.63 -3.02 4.83 -3 4 C-2.01 3.67 -1.02 3.34 0 3 C0 2.01 0 1.02 0 0 Z " fill="#13C001" transform="translate(106,200)"/><path d="M0 0 C2.5 0.12 2.5 0.12 3.5 1.12 C3.62 3.62 3.62 3.62 3.5 6.12 C2.5 7.12 2.5 7.12 0 7.25 C-2.5 7.12 -2.5 7.12 -3.5 6.12 C-3.62 3.62 -3.62 3.62 -3.5 1.12 C-2.5 0.12 -2.5 0.12 0 0 Z " fill="#C6EDC2" transform="translate(73.5,157.875)"/><path d="M0 0 C1.98 0 3.96 0 6 0 C6.62 2.38 6.62 2.38 7 5 C6.34 5.66 5.68 6.32 5 7 C2.38 6.62 2.38 6.62 0 6 C0 4.02 0 2.04 0 0 Z " fill="#D7F1D6" transform="translate(250,265)"/><path d="M0 0 C-0.3 1.34 -0.64 2.67 -1 4 C-1.23 4.89 -1.45 5.77 -1.69 6.69 C-2.34 7.83 -2.34 7.83 -3 9 C-6.12 9.81 -6.12 9.81 -9 10 C-8.85 7.33 -8.51 5.55 -6.67 3.55 C-2.49 0 -2.49 0 0 0 Z " fill="#EDEFF0" transform="translate(112,259)"/><path d="M0 0 C0.99 0.99 1.98 1.98 3 3 C2.01 3.5 2.01 3.5 1 4 C1.33 4.66 1.66 5.32 2 6 C1.36 6.27 0.72 6.54 0.06 6.81 C-2.33 7.89 -2.33 7.89 -3 11 C-4.32 10.34 -5.64 9.68 -7 9 C-6.67 8.01 -6.34 7.02 -6 6 C-5.34 6 -4.68 6 -4 6 C-3.71 5.38 -3.42 4.76 -3.12 4.12 C-2 2 -2 2 0 0 Z " fill="#C00507" transform="translate(124,184)"/><path d="M0 0 C3.06 0.31 3.06 0.31 4.94 1.44 C6.53 4.09 6.26 6.28 6.06 9.31 C4.56 7.94 4.56 7.94 3.06 6.31 C3.06 5.65 3.06 4.99 3.06 4.31 C-1.19 3.91 -1.19 3.91 -4.81 5.81 C-5.18 6.31 -5.56 6.8 -5.94 7.31 C-4.86 0.52 -4.86 0.52 0 0 Z " fill="#1B1B24" transform="translate(147.9375,172.6875)"/><path d="M0 0 C1.98 0 3.96 0 6 0 C6.62 2.38 6.62 2.38 7 5 C6.34 5.66 5.68 6.32 5 7 C2.38 6.62 2.38 6.62 0 6 C0 4.02 0 2.04 0 0 Z " fill="#D7F1D6" transform="translate(223,273)"/><path d="M0 0 C0.66 1.32 1.32 2.64 2 4 C-3 6 -8 8 -13 10 C-13.33 9.01 -13.66 8.02 -14 7 C-10.43 4.69 -7.03 3.31 -3 2 C-1.21 0.98 -1.21 0.98 0 0 Z " fill="#A9E5A3" transform="translate(333,40)"/><path d="M0 0 C0.66 0.33 1.32 0.66 2 1 C1.81 2.8 1.81 2.8 1 5 C-1.21 6.7 -1.21 6.7 -3.94 8.25 C-4.83 8.77 -5.73 9.29 -6.65 9.83 C-9 11 -9 11 -11 11 C-9.52 7.33 -7.52 5.59 -4.38 3.25 C-3.56 2.64 -2.74 2.02 -1.9 1.39 C-0.96 0.7 -0.96 0.7 0 0 Z " fill="#E6EBE9" transform="translate(135,240)"/><path d="M0 0 C0 2.31 0 4.62 0 7 C-0.99 6.67 -1.98 6.34 -3 6 C-3 4.68 -3 3.36 -3 2 C-3.66 2 -4.32 2 -5 2 C-5 3.65 -5 5.3 -5 7 C-5.99 7 -6.98 7 -8 7 C-8 5.35 -8 3.7 -8 2 C-9.98 2 -11.96 2 -14 2 C-14 1.67 -14 1.34 -14 1 C-13.19 1.02 -13.19 1.02 -12.36 1.04 C-11.28 1.05 -11.28 1.05 -10.19 1.06 C-9.48 1.07 -8.77 1.09 -8.04 1.1 C-5.18 0.96 -2.92 0 0 0 Z " fill="#7FDB75" transform="translate(249,265)"/><path d="M0 0 C1.67 -0.04 3.33 -0.04 5 0 C6 1 6 1 6.12 3.5 C6 6 6 6 5 7 C3.33 7.04 1.67 7.04 0 7 C0 4.69 0 2.38 0 0 Z " fill="#AAE6A5" transform="translate(45,150)"/><path d="M0 0 C0.33 0.99 0.66 1.98 1 3 C1.99 3 2.98 3 4 3 C4 3.66 4 4.32 4 5 C3.34 5 2.68 5 2 5 C2 5.66 2 6.32 2 7 C1.01 7 0.02 7 -1 7 C-1 7.66 -1 8.32 -1 9 C-2.32 8.67 -3.64 8.34 -5 8 C-5 6.35 -5 4.7 -5 3 C-4.67 4.32 -4.34 5.64 -4 7 C-2.7 5.93 -2.7 5.93 -2.94 3.44 C-2.96 2.63 -2.98 1.83 -3 1 C-2.01 0.67 -1.02 0.34 0 0 Z " fill="#76767C" transform="translate(119,265)"/><path d="M0 0 C6.19 -0.28 6.19 -0.28 9 2 C9.99 2.33 10.98 2.66 12 3 C10 5 10 5 7 6 C4.58 5.55 2.35 4.75 0 4 C0 2.68 0 1.36 0 0 Z " fill="#65B15F" transform="translate(282,189)"/><path d="M0 0 C2.64 0 5.28 0 8 0 C8 1.65 8 3.3 8 5 C5.69 5 3.38 5 1 5 C0.67 3.35 0.34 1.7 0 0 Z " fill="#C3C3CA" transform="translate(359,28)"/><path d="M0 0 C2.64 0 5.28 0 8 0 C7.67 1.65 7.34 3.3 7 5 C4.69 5 2.38 5 0 5 C0 3.35 0 1.7 0 0 Z " fill="#AEAEB3" transform="translate(409,90)"/><path d="M0 0 C1.98 0 3.96 0 6 0 C6.33 1.65 6.66 3.3 7 5 C4.36 5 1.72 5 -1 5 C-0.67 3.35 -0.34 1.7 0 0 Z " fill="#A7A8AD" transform="translate(145,176)"/><path d="M0 0 C0.33 1.32 0.66 2.64 1 4 C0.01 4.5 0.01 4.5 -1 5 C-2.13 7.02 -2.13 7.02 -3 9 C-4.65 8.67 -6.3 8.34 -8 8 C-6.48 4.46 -4.25 0 0 0 Z " fill="#D30304" transform="translate(133,176)"/><path d="M0 0 C1.65 0.02 1.65 0.02 3.34 0.04 C5 0.05 5 0.05 6.69 0.06 C7.54 0.07 8.4 0.09 9.28 0.1 C8.29 0.43 7.3 0.76 6.28 1.1 C6.28 2.75 6.28 4.4 6.28 6.1 C5.95 6.1 5.62 6.1 5.28 6.1 C5.28 4.45 5.28 2.8 5.28 1.1 C2.97 1.1 0.66 1.1 -1.72 1.1 C-1.72 2.42 -1.72 3.74 -1.72 5.1 C-0.4 5.1 0.92 5.1 2.28 5.1 C2.28 5.76 2.28 6.42 2.28 7.1 C0.61 7.14 -1.06 7.14 -2.72 7.1 C-3.72 6.1 -3.72 6.1 -3.85 3.6 C-3.67 0.1 -3.53 0.13 0 0 Z " fill="#D9F2D8" transform="translate(236.72265625,264.90234375)"/><path d="M0 0 C0.6 0.19 1.2 0.37 1.81 0.56 C4.16 1.22 4.16 1.22 7 0 C7 1.98 7 3.96 7 6 C5.68 5.67 4.36 5.34 3 5 C2.67 5.66 2.34 6.32 2 7 C1.34 7 0.68 7 0 7 C0 4.69 0 2.38 0 0 Z " fill="#D1F0D0" transform="translate(258,265)"/><path d="M0 0 C1.65 0 3.3 0 5 0 C5.69 2.49 6 4.38 6 7 C4 7 2 7 0 7 C0 4.69 0 2.38 0 0 Z " fill="#EFD9F9" transform="translate(145,98)"/><path d="M0 0 C0.66 1.32 1.32 2.64 2 4 C1.01 4 0.02 4 -1 4 C-1.33 4.66 -1.66 5.32 -2 6 C-3.63 6.63 -3.63 6.63 -5.56 7.12 C-6.2 7.29 -6.84 7.46 -7.5 7.63 C-8 7.75 -8.49 7.88 -9 8 C-9.33 7.01 -9.66 6.02 -10 5 C-6.7 3.35 -3.4 1.7 0 0 Z " fill="#B9E9B4" transform="translate(249,77)"/><path d="M0 0 C0.6 0.19 1.2 0.37 1.81 0.56 C4.16 1.22 4.16 1.22 7 0 C7 2.31 7 4.62 7 7 C5.06 6.69 5.06 6.69 3 6 C2.67 5.01 2.34 4.02 2 3 C1.34 4.32 0.68 5.64 0 7 C0 4.69 0 2.38 0 0 Z " fill="#C9EEC7" transform="translate(231,273)"/><path d="M0 0 C-1.52 4.55 -5.17 6.5 -9 9 C-9.66 8.67 -10.32 8.34 -11 8 C-9.84 4.51 -9.11 4.15 -6.06 2.31 C-5.35 1.88 -4.64 1.44 -3.91 0.99 C-2 0 -2 0 0 0 Z " fill="#B3E7AE" transform="translate(136,245)"/><path d="M0 0 C0.99 0 1.98 0 3 0 C3 0.66 3 1.32 3 2 C4.65 1.67 6.3 1.34 8 1 C8 2.32 8 3.64 8 5 C5.03 5 2.06 5 -1 5 C-0.67 3.35 -0.34 1.7 0 0 Z " fill="#A6A9AB" transform="translate(174,152)"/><path d="M0 0 C2.64 0 5.28 0 8 0 C8 1.65 8 3.3 8 5 C5.36 5 2.72 5 0 5 C0 3.35 0 1.7 0 0 Z " fill="#999A9F" transform="translate(325,124)"/><path d="M0 0 C2.64 0 5.28 0 8 0 C7.34 1.65 6.68 3.3 6 5 C4.35 5 2.7 5 1 5 C0.67 3.35 0.34 1.7 0 0 Z " fill="#94949A" transform="translate(403,31)"/><path d="M0 0 C0.66 0.33 1.32 0.66 2 1 C0.13 4.74 -3.38 7.91 -7 10 C-7.66 8.68 -8.32 7.36 -9 6 C-8.01 5.67 -7.02 5.34 -6 5 C-4.65 3.69 -3.31 2.35 -2 1 C-1.34 0.67 -0.68 0.34 0 0 Z " fill="#B4E8AF" transform="translate(84,283)"/><path d="M0 0 C1.98 0 3.96 0 6 0 C6 2.31 6 4.62 6 7 C4.02 7 2.04 7 0 7 C0 4.69 0 2.38 0 0 Z " fill="#CAEEC7" transform="translate(226,265)"/><path d="M0 0 C1.11 3.33 0.84 5.62 0 9 C-0.66 8.67 -1.32 8.34 -2 8 C-2.66 8 -3.32 8 -4 8 C-4.99 8 -5.98 8 -7 8 C-5.51 4.2 -3.24 2.39 0 0 Z " fill="#A9A9B1" transform="translate(147,242)"/><path d="M0 0 C2.64 0 5.28 0 8 0 C7.67 1.65 7.34 3.3 7 5 C4.69 5 2.38 5 0 5 C0 3.35 0 1.7 0 0 Z " fill="#A6A7AB" transform="translate(158,232)"/><path d="M0 0 C1.94 0.38 1.94 0.38 4 1 C4.33 1.66 4.66 2.32 5 3 C5.66 2.01 6.32 1.02 7 0 C7 2.31 7 4.62 7 7 C6.01 7 5.02 7 4 7 C3.67 6.34 3.34 5.68 3 5 C2.67 5.66 2.34 6.32 2 7 C1.34 7 0.68 7 0 7 C0 4.69 0 2.38 0 0 Z " fill="#DCF2DB" transform="translate(78,158)"/><path d="M0 0 C0 1.65 0 3.3 0 5 C-3.75 6.12 -3.75 6.12 -6 5 C-6 3.35 -6 1.7 -6 0 C-3.51 -1.25 -2.59 -0.78 0 0 Z " fill="#FF02FF" transform="translate(189,130)"/><path d="M0 0 C1.98 0 3.96 0 6 0 C6 2.31 6 4.62 6 7 C4.02 7 2.04 7 0 7 C0 4.69 0 2.38 0 0 Z " fill="#EBEBF3" transform="translate(155,90)"/><path d="M0 0 C1.65 0 3.3 0 5 0 C5.33 2.31 5.66 4.62 6 7 C4.02 7 2.04 7 0 7 C0 4.69 0 2.38 0 0 Z " fill="#D1F0CF" transform="translate(212,265)"/><path d="M0 0 C2.31 0.33 4.62 0.66 7 1 C7.33 2.65 7.66 4.3 8 6 C5.69 5.67 3.38 5.34 1 5 C0.67 3.35 0.34 1.7 0 0 Z " fill="#127797" transform="translate(366,173)"/><path d="M0 0 C0.99 0.33 1.98 0.66 3 1 C3.66 1 4.32 1 5 1 C7.34 1.3 9.67 1.65 12 2 C11.34 3.32 10.68 4.64 10 6 C9.34 6 8.68 6 8 6 C7.67 5.67 7.34 5.34 7 5 C6.01 5 5.02 5 4 5 C1.81 4 1.81 4 0 3 C0 2.01 0 1.02 0 0 Z " fill="#06A5D2" transform="translate(353,170)"/><path d="M0 0 C0.99 0.33 1.98 0.66 3 1 C3.33 1.99 3.66 2.98 4 4 C4.66 2.68 5.32 1.36 6 0 C6 2.31 6 4.62 6 7 C5.01 7 4.02 7 3 7 C2.67 6.34 2.34 5.68 2 5 C1.67 5.66 1.34 6.32 1 7 C0.34 7 -0.32 7 -1 7 C-1.04 5 -1.04 3 -1 1 C-0.67 0.67 -0.34 0.34 0 0 Z " fill="#E1F4E0" transform="translate(52,166)"/><path d="M0 0 C-0.33 1.32 -0.66 2.64 -1 4 C-3.64 4 -6.28 4 -9 4 C-8.67 2.68 -8.34 1.36 -8 0 C-8 0.99 -8 1.98 -8 3 C-7.34 3 -6.68 3 -6 3 C-6 2.01 -6 1.02 -6 0 C-3.51 -1.25 -2.59 -0.78 0 0 Z " fill="#A6A6AC" transform="translate(459,112)"/><path d="M0 0 C1.68 0.29 3.34 0.62 5 1 C5 2.32 5 3.64 5 5 C3.68 5 2.36 5 1 5 C1 5.66 1 6.32 1 7 C0.34 7 -0.32 7 -1 7 C-1.04 5 -1.04 3 -1 1 C-0.67 0.67 -0.34 0.34 0 0 Z " fill="#EFD5F9" transform="translate(161,98)"/><path d="M0 0 C2.64 0 5.28 0 8 0 C8.33 1.32 8.66 2.64 9 4 C6.03 4 3.06 4 0 4 C0 2.68 0 1.36 0 0 Z " fill="#DDDDE1" transform="translate(373,60)"/><path d="M0 0 C2.59 1.88 4.72 3.72 7 6 C3.37 6 -0.26 6 -4 6 C-3.34 5.01 -2.68 4.02 -2 3 C-2 2.34 -2 1.68 -2 1 C-1.34 0.67 -0.68 0.34 0 0 Z " fill="#53D046" transform="translate(239,259)"/><path d="M0 0 C0.66 0.33 1.32 0.66 2 1 C1.69 1.58 1.38 2.16 1.06 2.75 C0.07 4.84 -0.52 6.75 -1 9 C-1 8.01 -1 7.02 -1 6 C-2.65 6.66 -4.3 7.32 -6 8 C-6.31 6.19 -6.31 6.19 -6 4 C-3.56 2.31 -3.56 2.31 -1 1 C-0.67 0.67 -0.34 0.34 0 0 Z " fill="#C0D7C0" transform="translate(156,227)"/><path d="M0 0 C1.98 0 3.96 0 6 0 C4.68 0.33 3.36 0.66 2 1 C2 1.66 2 2.32 2 3 C3.32 3.33 4.64 3.66 6 4 C6 4.99 6 5.98 6 7 C4.02 7 2.04 7 0 7 C0 4.69 0 2.38 0 0 Z " fill="#CEEFCC" transform="translate(239,273)"/><path d="M0 0 C0.99 0.33 1.98 0.66 3 1 C5.14 0.61 5.14 0.61 7 0 C7 1.65 7 3.3 7 5 C4.36 5 1.72 5 -1 5 C-0.67 3.35 -0.34 1.7 0 0 Z " fill="#ACAEB2" transform="translate(317,215)"/><path d="M0 0 C1.65 0 3.3 0 5 0 C5.33 1.32 5.66 2.64 6 4 C5.2 4.12 4.39 4.25 3.56 4.38 C2.29 4.68 2.29 4.68 1 5 C0.67 5.66 0.34 6.32 0 7 C0 4.69 0 2.38 0 0 Z " fill="#F0D6F8" transform="translate(142,90)"/><path d="M0 0 C0.66 0.33 1.32 0.66 2 1 C2 4.16 1.62 5.36 0 8 C-1.62 9.25 -1.62 9.25 -3 10 C-3.26 6.54 -2.44 4.13 -1 1 C-0.67 0.67 -0.34 0.34 0 0 Z " fill="#CBE7C9" transform="translate(114,256)"/><path d="M0 0 C1.44 0.69 1.44 0.69 3 2 C3.69 4.62 3.69 4.62 4 7 C1.69 7 -0.62 7 -3 7 C-1.12 1.12 -1.12 1.12 0 0 Z " fill="#F1DFFA" transform="translate(155,98)"/><path d="M0 0 C2 4 2 4 2 7 C3.65 7.33 5.3 7.66 7 8 C7 8.33 7 8.66 7 9 C2.55 9.5 2.55 9.5 -2 10 C-1.34 6.7 -0.68 3.4 0 0 Z M3 4 C3.99 4.33 4.98 4.66 6 5 C5.34 5 4.68 5 4 5 C4 5.66 4 6.32 4 7 C3.34 7 2.68 7 2 7 C2.33 6.01 2.66 5.02 3 4 Z " fill="#EAE8F5" transform="translate(459,94)"/><path d="M0 0 C1.32 0 2.64 0 4 0 C4.38 1.99 4.71 3.99 5 6 C4 7 4 7 1.44 7.06 C0.23 7.03 0.23 7.03 -1 7 C-1.09 4.26 -0.89 2.67 0 0 Z " fill="#ECEBF5" transform="translate(136,90)"/><path d="M0 0 C1.65 0 3.3 0 5 0 C5 2.31 5 4.62 5 7 C3.35 7 1.7 7 0 7 C0 4.69 0 2.38 0 0 Z " fill="#EEEDF7" transform="translate(149,90)"/><path d="M0 0 C2.31 0 4.62 0 7 0 C7 1.32 7 2.64 7 4 C4.69 4 2.38 4 0 4 C0 2.68 0 1.36 0 0 Z " fill="#9C9DA3" transform="translate(62,286)"/><path d="M0 0 C1.98 0 3.96 0 6 0 C5.34 1.32 4.68 2.64 4 4 C4.66 4.33 5.32 4.66 6 5 C6 5.66 6 6.32 6 7 C4.02 7 2.04 7 0 7 C0.38 5.06 0.38 5.06 1 3 C1.66 2.67 2.32 2.34 3 2 C2.01 1.34 1.02 0.68 0 0 Z " fill="#CDEECA" transform="translate(216,273)"/><path d="M0 0 C1.65 0 3.3 0 5 0 C5 0.99 5 1.98 5 3 C4.67 3.33 4.34 3.66 4 4 C4.66 4.33 5.32 4.66 6 5 C6 5.66 6 6.32 6 7 C4.02 7 2.04 7 0 7 C0.38 5.06 0.38 5.06 1 3 C1.66 2.67 2.32 2.34 3 2 C2.01 1.34 1.02 0.68 0 0 Z " fill="#C7EDC4" transform="translate(248,273)"/><path d="M0 0 C1.65 0 3.3 0 5 0 C5 1.32 5 2.64 5 4 C4.01 4 3.02 4 2 4 C2 4.66 2 5.32 2 6 C2.99 6.33 3.98 6.66 5 7 C3.35 7 1.7 7 0 7 C0 4.69 0 2.38 0 0 Z " fill="#E8F6E9" transform="translate(60,166)"/><path d="M0 0 C1.98 0 3.96 0 6 0 C5.62 1.94 5.62 1.94 5 4 C4.01 4.5 4.01 4.5 3 5 C3.99 5.66 4.98 6.32 6 7 C4.35 7 2.7 7 1 7 C1 4 1 4 2 3 C1.34 2.67 0.68 2.34 0 2 C0 1.34 0 0.68 0 0 Z " fill="#DAF2D9" transform="translate(36,166)"/><path d="M0 0 C0.33 1.32 0.66 2.64 1 4 C-4.62 7 -4.62 7 -8 7 C-6.87 3.6 -6.45 3.4 -3.44 1.81 C-2.8 1.47 -2.16 1.12 -1.5 0.77 C-1 0.52 -0.51 0.26 0 0 Z " fill="#B0E6AB" transform="translate(104,268)"/><path d="M0 0 C4.18 3.51 8.2 7.08 12 11 C9 11 9 11 6.74 9.1 C5.94 8.28 5.14 7.47 4.31 6.62 C3.5 5.81 2.7 5 1.86 4.16 C0 2 0 2 0 0 Z " fill="#75CE6C" transform="translate(357,250)"/><path d="M0 0 C2.31 0 4.62 0 7 0 C7.33 1.65 7.66 3.3 8 5 C7.4 4.84 6.8 4.67 6.19 4.5 C3.89 3.89 3.89 3.89 1 4 C0.67 2.68 0.34 1.36 0 0 Z " fill="#3B5039" transform="translate(305,196)"/><path d="M0 0 C1.68 0.29 3.34 0.62 5 1 C5 1.99 5 2.98 5 4 C3.68 3.34 2.36 2.68 1 2 C1 3.32 1 4.64 1 6 C1.99 6.33 2.98 6.66 4 7 C2.35 6.67 0.7 6.34 -1 6 C-1.04 4.33 -1.04 2.67 -1 1 C-0.67 0.67 -0.34 0.34 0 0 Z " fill="#DEF3DE" transform="translate(44,166)"/><path d="M0 0 C2.46 1.19 4.76 2.43 7 4 C2.96 5.51 -0.86 4.65 -5 4 C-2.25 2 -2.25 2 0 2 C0 1.34 0 0.68 0 0 Z " fill="#EBE9F5" transform="translate(431,107)"/><path d="M0 0 C2.64 0.33 5.28 0.66 8 1 C8 1.66 8 2.32 8 3 C5.75 4.12 5.75 4.12 3 5 C0.69 4.12 0.69 4.12 -1 3 C-0.67 2.01 -0.34 1.02 0 0 Z " fill="#F1EFFD" transform="translate(456,105)"/><path d="M0 0 C0.56 0.23 1.11 0.45 1.69 0.69 C1.36 1.68 1.03 2.67 0.69 3.69 C-0.94 4.42 -0.94 4.42 -2.88 4.88 C-3.52 5.03 -4.16 5.19 -4.82 5.36 C-5.31 5.47 -5.8 5.57 -6.31 5.69 C-6.64 4.7 -6.97 3.71 -7.31 2.69 C-2.88 -0.39 -2.88 -0.39 0 0 Z " fill="#AFE7A9" transform="translate(226.3125,88.3125)"/><path d="M0 0 C0.66 1.32 1.32 2.64 2 4 C1.13 4.19 1.13 4.19 0.25 4.38 C-2.02 5.01 -3.93 5.89 -6 7 C-6.33 5.68 -6.66 4.36 -7 3 C-4.69 2.01 -2.38 1.02 0 0 Z " fill="#B0E6AB" transform="translate(263,71)"/><path d="M0 0 C0.66 0 1.32 0 2 0 C2 1.32 2 2.64 2 4 C2.66 2.68 3.32 1.36 4 0 C4.99 0.33 5.98 0.66 7 1 C7 2.32 7 3.64 7 5 C4.36 5 1.72 5 -1 5 C-0.34 4.67 0.32 4.34 1 4 C0.67 2.68 0.34 1.36 0 0 Z " fill="#AEAFB3" transform="translate(164,201)"/><path d="M0 0 C2.31 0 4.62 0 7 0 C7 0.66 7 1.32 7 2 C6.34 2 5.68 2 5 2 C5 3.65 5 5.3 5 7 C4.34 7 3.68 7 3 7 C3 5.35 3 3.7 3 2 C2.01 2 1.02 2 0 2 C0 1.34 0 0.68 0 0 Z " fill="#EAEAF0" transform="translate(137,98)"/><path d="M0 0 C0.99 0.33 1.98 0.66 3 1 C2.67 2.65 2.34 4.3 2 6 C1.01 6.33 0.02 6.66 -1 7 C-1.33 6.34 -1.66 5.68 -2 5 C-1.06 2.38 -1.06 2.38 0 0 Z " fill="#EBF1EE" transform="translate(122,250)"/><path d="M0 0 C0.66 0 1.32 0 2 0 C2.33 1.98 2.66 3.96 3 6 C2.42 5.79 1.84 5.59 1.25 5.38 C-1.52 4.91 -2.65 5.57 -5 7 C-4.36 6.02 -3.71 5.04 -3.06 4.06 C-2.52 3.24 -2.52 3.24 -1.97 2.41 C-1 1 -1 1 0 0 Z " fill="#E8E9EC" transform="translate(158,222)"/><path d="M0 0 C1.67 -0.04 3.33 -0.04 5 0 C6 1 6 1 6.06 3.56 C6.04 4.37 6.02 5.17 6 6 C5.34 6 4.68 6 4 6 C4 4.68 4 3.36 4 2 C3.01 2 2.02 2 1 2 C0.67 3.32 0.34 4.64 0 6 C0 4.02 0 2.04 0 0 Z " fill="#DCF3DB" transform="translate(25,158)"/><path d="M0 0 C0.66 0 1.32 0 2 0 C2.33 0.33 2.66 0.66 3 1 C3.99 0.67 4.98 0.34 6 0 C6.33 1.65 6.66 3.3 7 5 C4.69 5 2.38 5 0 5 C0 3.35 0 1.7 0 0 Z " fill="#A0A0A6" transform="translate(329,150)"/><path d="M0 0 C0.66 0.33 1.32 0.66 2 1 C1 4 1 4 -0.38 5.19 C-2 6 -2 6 -5 6 C-5 5.01 -5 4.02 -5 3 C-2.62 1.25 -2.62 1.25 0 0 Z " fill="#8BDD83" transform="translate(217,91)"/><path d="M0 0 C0.66 0.33 1.32 0.66 2 1 C0.92 1.99 -0.16 2.96 -1.25 3.94 C-2.15 4.76 -2.15 4.76 -3.08 5.59 C-5.08 7.06 -6.57 7.58 -9 8 C-9.33 7.34 -9.66 6.68 -10 6 C-9.45 5.73 -8.89 5.47 -8.32 5.2 C-7.6 4.84 -6.87 4.49 -6.12 4.12 C-5.41 3.78 -4.69 3.43 -3.95 3.07 C-1.85 2.03 -1.85 2.03 0 0 Z " fill="#6EC666" transform="translate(436,278)"/><path d="M0 0 C0.66 0.33 1.32 0.66 2 1 C-0.64 3.64 -3.28 6.28 -6 9 C-6.66 8.01 -7.32 7.02 -8 6 C-5.36 4.02 -2.72 2.04 0 0 Z " fill="#404149" transform="translate(146,148)"/><path d="M0 0 C2.5 0.31 2.5 0.31 3.81 1.81 C4.15 2.56 4.15 2.56 4.5 3.31 C-1.04 4.54 -1.04 4.54 -3.38 3.38 C-3.75 3.02 -4.12 2.67 -4.5 2.31 C-2.5 0.31 -2.5 0.31 0 0 Z " fill="#1B1B24" transform="translate(137.5,141.6875)"/><path d="M0 0 C0.66 0.33 1.32 0.66 2 1 C2 1.99 2 2.98 2 4 C1.01 4 0.02 4 -1 4 C-1 5.32 -1 6.64 -1 8 C-1.99 8 -2.98 8 -4 8 C-3.5 4.31 -2.9 2.4 0 0 Z " fill="#26272F" transform="translate(360,24)"/><path d="M0 0 C1.65 0 3.3 0 5 0 C5 2 5 4 5 6 C3.35 6 1.7 6 0 6 C0 4 0 2 0 0 Z " fill="#E2F4E3" transform="translate(240,257)"/><path d="M0 0 C0.33 0 0.66 0 1 0 C1.04 1.67 1.04 3.33 1 5 C0 6 0 6 -2.56 6.06 C-3.77 6.03 -3.77 6.03 -5 6 C-5.33 4.35 -5.66 2.7 -6 1 C-5.67 1.99 -5.34 2.98 -5 4 C-3.68 4 -2.36 4 -1 4 C-0.67 2.68 -0.34 1.36 0 0 Z " fill="#D3F0D1" transform="translate(76,159)"/><path d="M0 0 C1.65 0 3.3 0 5 0 C4.67 1.65 4.34 3.3 4 5 C2.68 5 1.36 5 0 5 C0 3.35 0 1.7 0 0 Z " fill="#F1EEFF" transform="translate(162,92)"/><path d="M0 0 C-1 2 -1 2 -3 4 C-5.12 3.62 -5.12 3.62 -7 3 C-6.67 2.01 -6.34 1.02 -6 0 C-3.43 -1 -2.51 -1.26 0 0 Z " fill="#B2E7AD" transform="translate(293,60)"/><path d="M0 0 C0.66 0.33 1.32 0.66 2 1 C0.62 3.75 -1.37 4.51 -4 6 C-4.33 4.68 -4.66 3.36 -5 2 C-2.62 0.94 -2.62 0.94 0 0 Z " fill="#B1E7AB" transform="translate(298,56)"/><path d="M0 0 C0.66 0.33 1.32 0.66 2 1 C1.67 1.66 1.34 2.32 1 3 C-0.33 3.33 -1.67 3.67 -3 4 C-3.33 4.66 -3.66 5.32 -4 6 C-4.33 4.68 -4.66 3.36 -5 2 C-2.62 0.94 -2.62 0.94 0 0 Z " fill="#A9E4A4" transform="translate(305,53)"/><path d="M0 0 C0.99 0.33 1.98 0.66 3 1 C1.35 2.98 -0.3 4.96 -2 7 C-2.66 6.34 -3.32 5.68 -4 5 C-2.68 3.35 -1.36 1.7 0 0 Z " fill="#F0F1F3" transform="translate(92,273)"/><path d="M0 0 C1.65 1.32 3.3 2.64 5 4 C2.68 5.76 2.09 6 -1 6 C-1.04 4.33 -1.04 2.67 -1 1 C-0.67 0.67 -0.34 0.34 0 0 Z " fill="#999BA1" transform="translate(144,248)"/><path d="M0 0 C0.66 1.32 1.32 2.64 2 4 C0.02 4.66 -1.96 5.32 -4 6 C-4 5.01 -4 4.02 -4 3 C-3.34 2.67 -2.68 2.34 -2 2 C-1.34 1.34 -0.68 0.68 0 0 Z " fill="#B3E7AD" transform="translate(233,84)"/><path d="M0 0 C0.33 0.66 0.66 1.32 1 2 C-0.32 3.32 -1.64 4.64 -3 6 C-3.66 5.67 -4.32 5.34 -5 5 C-5 4.01 -5 3.02 -5 2 C-3.35 1.34 -1.7 0.68 0 0 Z " fill="#BAEAB6" transform="translate(270,68)"/><path d="M0 0 C-0.81 2.44 -0.81 2.44 -2 5 C-2.99 5.33 -3.98 5.66 -5 6 C-5.19 4.12 -5.19 4.12 -5 2 C-3.22 0.38 -2.42 0 0 0 Z " fill="#B8E9B3" transform="translate(96,275)"/><path d="M0 0 C1.32 0.66 2.64 1.32 4 2 C3.67 3.32 3.34 4.64 3 6 C1.68 6.33 0.36 6.66 -1 7 C-1.33 6.34 -1.66 5.68 -2 5 C-1.34 4.67 -0.68 4.34 0 4 C0 2.68 0 1.36 0 0 Z " fill="#26312E" transform="translate(157,226)"/><path d="M0 0 C0.99 0.99 1.98 1.98 3 3 C2.01 3.5 2.01 3.5 1 4 C1.33 4.66 1.66 5.32 2 6 C0.68 6 -0.64 6 -2 6 C-1.12 1.12 -1.12 1.12 0 0 Z " fill="#7B0C10" transform="translate(124,184)"/><path d="M0 0 C0.99 0.33 1.98 0.66 3 1 C3.33 2.98 3.66 4.96 4 7 C2.35 7 0.7 7 -1 7 C-0.34 6.67 0.32 6.34 1 6 C0.67 4.02 0.34 2.04 0 0 Z " fill="#E4F5E4" transform="translate(69,166)"/><path d="M0 0 C1.32 0.33 2.64 0.66 4 1 C4 2.32 4 3.64 4 5 C2.68 4.67 1.36 4.34 0 4 C0 2.68 0 1.36 0 0 Z " fill="#B4E9AF" transform="translate(45,168)"/><path d="M0 0 C-0.33 1.32 -0.66 2.64 -1 4 C-2.65 4.33 -4.3 4.66 -6 5 C-6 4.01 -6 3.02 -6 2 C-2.25 0 -2.25 0 0 0 Z " fill="#B0E6AB" transform="translate(342,38)"/><path d="M0 0 C0.66 0.33 1.32 0.66 2 1 C0.25 5.88 0.25 5.88 -2 7 C-2.69 5.19 -2.69 5.19 -3 3 C-1.56 1.25 -1.56 1.25 0 0 Z " fill="#D1F0CE" transform="translate(88,279)"/><path d="M0 0 C5.43 5.29 5.43 5.29 7 8 C6.01 8 5.02 8 4 8 C2.83 6.76 2.83 6.76 1.81 5.12 C1.47 4.59 1.12 4.06 0.77 3.51 C0 2 0 2 0 0 Z " fill="#73C26C" transform="translate(331,214)"/><path d="M0 0 C2.31 0 4.62 0 7 0 C7 0.66 7 1.32 7 2 C6.34 2 5.68 2 5 2 C5 2.66 5 3.32 5 4 C4.34 4 3.68 4 3 4 C3 3.34 3 2.68 3 2 C2.01 1.67 1.02 1.34 0 1 C0 0.67 0 0.34 0 0 Z " fill="#E2E1ED" transform="translate(327,202)"/><path d="M0 0 C0.99 0 1.98 0 3 0 C3.33 0.66 3.66 1.32 4 2 C5.52 3.12 5.52 3.12 7 4 C4.69 4 2.38 4 0 4 C0 2.68 0 1.36 0 0 Z " fill="#7D7E86" transform="translate(360,29)"/><path d="M0 0 C0.66 0.33 1.32 0.66 2 1 C1.19 3.94 1.19 3.94 0 7 C-0.99 7.33 -1.98 7.66 -3 8 C-3.37 3.45 -3.37 3.45 -1.5 1.19 C-1 0.8 -0.51 0.4 0 0 Z " fill="#292B34" transform="translate(403,28)"/><path d="M0 0 C0.33 0.99 0.66 1.98 1 3 C-0.98 3.99 -0.98 3.99 -3 5 C-3.66 4.01 -4.32 3.02 -5 2 C-2.25 0 -2.25 0 0 0 Z " fill="#B8E9B3" transform="translate(140,241)"/><path d="M0 0 C3.38 1.19 5.65 2.28 8 5 C4.4 5 2.91 4.04 0 2 C0 1.34 0 0.68 0 0 Z " fill="#70B96A" transform="translate(315,201)"/><path d="M0 0 C-0.33 0.99 -0.66 1.98 -1 3 C-1.66 3 -2.32 3 -3 3 C-2.67 3.99 -2.34 4.98 -2 6 C-2.99 5.67 -3.98 5.34 -5 5 C-5 4.01 -5 3.02 -5 2 C-3.21 0.45 -2.39 0 0 0 Z " fill="#C9EEC6" transform="translate(240,257)"/><path d="M0 0 C2.48 0.5 2.48 0.5 5 1 C4.34 2.32 3.68 3.64 3 5 C2.01 5 1.02 5 0 5 C0 3.35 0 1.7 0 0 Z " fill="#588457" transform="translate(295,192)"/><path d="M0 0 C1.32 0 2.64 0 4 0 C4 1.65 4 3.3 4 5 C2.68 4.34 1.36 3.68 0 3 C0 2.01 0 1.02 0 0 Z " fill="#5B9458" transform="translate(282,189)"/><path d="M0 0 C0.33 0 0.66 0 1 0 C1.33 1.98 1.66 3.96 2 6 C-0.97 5.5 -0.97 5.5 -4 5 C-2.69 3.31 -1.36 1.65 0 0 Z " fill="#4BCD3E" transform="translate(42,167)"/><path d="M0 0 C0.99 0.33 1.98 0.66 3 1 C2.67 2.32 2.34 3.64 2 5 C0.68 5 -0.64 5 -2 5 C-2 4.34 -2 3.68 -2 3 C-1.01 3 -0.02 3 1 3 C0.67 2.01 0.34 1.02 0 0 Z " fill="#C5EDC2" transform="translate(62,152)"/><path d="M0 0 C0.99 0.33 1.98 0.66 3 1 C3 1.99 3 2.98 3 4 C1.68 4 0.36 4 -1 4 C-0.67 2.68 -0.34 1.36 0 0 Z " fill="#3ECA2F" transform="translate(225,274)"/><path d="M0 0 C0.66 0.33 1.32 0.66 2 1 C1.67 1.99 1.34 2.98 1 4 C0.01 4.33 -0.98 4.66 -2 5 C-2 3.68 -2 2.36 -2 1 C-1.34 0.67 -0.68 0.34 0 0 Z " fill="#AEE7A8" transform="translate(108,264)"/><path d="M0 0 C0.66 0.33 1.32 0.66 2 1 C1.67 1.99 1.34 2.98 1 4 C0.01 4.33 -0.98 4.66 -2 5 C-2 3.68 -2 2.36 -2 1 C-1.34 0.67 -0.68 0.34 0 0 Z " fill="#B6E9B1" transform="translate(152,230)"/><path d="M0 0 C0.66 1.32 1.32 2.64 2 4 C0.35 4.33 -1.3 4.66 -3 5 C-3.33 4.01 -3.66 3.02 -4 2 C-2.68 1.34 -1.36 0.68 0 0 Z " fill="#ACE6A7" transform="translate(249,77)"/><path d="M0 0 C2.12 0.37 2.12 0.37 4 1 C3.01 2.48 3.01 2.48 2 4 C0.68 3.34 -0.64 2.68 -2 2 C-1.34 1.34 -0.68 0.68 0 0 Z " fill="#1F1922" transform="translate(269,0)"/><path d="M0 0 C1.32 0.33 2.64 0.66 4 1 C3.34 1.66 2.68 2.32 2 3 C1.3 4.32 0.63 5.65 0 7 C0 4.69 0 2.38 0 0 Z " fill="#DDF2DD" transform="translate(231,273)"/><path d="M0 0 C3.27 0.56 4.83 1.5 7 4 C4 4 4 4 1.81 2 C1.21 1.34 0.62 0.68 0 0 Z " fill="#6BBA65" transform="translate(374,266)"/><path d="M0 0 C0.99 0 1.98 0 3 0 C2.67 0.99 2.34 1.98 2 3 C-0.06 3.69 -0.06 3.69 -2 4 C-1.34 2.68 -0.68 1.36 0 0 Z " fill="#F3F3F8" transform="translate(126,247)"/><path d="M0 0 C0.99 0 1.98 0 3 0 C3 1.32 3 2.64 3 4 C1.68 3.67 0.36 3.34 -1 3 C-0.67 2.01 -0.34 1.02 0 0 Z " fill="#C4C4C9" transform="translate(461,244)"/><path d="M0 0 C0.33 1.32 0.66 2.64 1 4 C-0.32 4.33 -1.64 4.66 -3 5 C-1.12 1.12 -1.12 1.12 0 0 Z " fill="#8F9298" transform="translate(147,242)"/><path d="M0 0 C0.99 0.33 1.98 0.66 3 1 C2.34 2.32 1.68 3.64 1 5 C0.34 4.67 -0.32 4.34 -1 4 C-0.67 2.68 -0.34 1.36 0 0 Z " fill="#178CB0" transform="translate(376,175)"/><path d="M0 0 C0.66 0.33 1.32 0.66 2 1 C0.9 3.19 0.04 3.76 -2 5 C-2 3.68 -2 2.36 -2 1 C-1.34 0.67 -0.68 0.34 0 0 Z " fill="#ACE5A7" transform="translate(254,75)"/><path d="M0 0 C0.99 0 1.98 0 3 0 C3 1.32 3 2.64 3 4 C2.01 4 1.02 4 0 4 C0 2.68 0 1.36 0 0 Z " fill="#32C722" transform="translate(252,266)"/><path d="M0 0 C0.99 0 1.98 0 3 0 C3 1.32 3 2.64 3 4 C2.01 4 1.02 4 0 4 C0 2.68 0 1.36 0 0 Z " fill="#37C928" transform="translate(206,266)"/><path d="M0 0 C0.99 0 1.98 0 3 0 C3 1.32 3 2.64 3 4 C2.01 4 1.02 4 0 4 C0 2.68 0 1.36 0 0 Z " fill="#35C826" transform="translate(226,258)"/><path d="M0 0 C0.66 0.99 1.32 1.98 2 3 C0.02 3.99 0.02 3.99 -2 5 C-2.33 4.34 -2.66 3.68 -3 3 C-2.01 2.01 -1.02 1.02 0 0 Z " fill="#A7E4A1" transform="translate(119,256)"/><path d="M0 0 C0.66 0.66 1.32 1.32 2 2 C1.62 4.12 1.62 4.12 1 6 C0.34 6 -0.32 6 -1 6 C-1.04 4.33 -1.04 2.67 -1 1 C-0.67 0.67 -0.34 0.34 0 0 Z " fill="#4A4C53" transform="translate(148,245)"/><path d="M0 0 C0.66 0 1.32 0 2 0 C1.34 1.65 0.68 3.3 0 5 C-0.66 4.67 -1.32 4.34 -2 4 C-1.34 2.68 -0.68 1.36 0 0 Z " fill="#B8E9B3" transform="translate(147,234)"/><path d="M0 0 C0.99 0 1.98 0 3 0 C2.34 1.32 1.68 2.64 1 4 C0.34 4 -0.32 4 -1 4 C-0.67 2.68 -0.34 1.36 0 0 Z " fill="#0E7EA1" transform="translate(381,177)"/><path d="M0 0 C0.99 0 1.98 0 3 0 C3 1.32 3 2.64 3 4 C2.01 4 1.02 4 0 4 C0 2.68 0 1.36 0 0 Z " fill="#ACAEB2" transform="translate(179,153)"/><path d="M0 0 C0.99 0 1.98 0 3 0 C3 1.32 3 2.64 3 4 C2.01 4 1.02 4 0 4 C0 2.68 0 1.36 0 0 Z " fill="#96979F" transform="translate(373,60)"/><path d="M0 0 C0.99 0.33 1.98 0.66 3 1 C1.35 2.32 -0.3 3.64 -2 5 C-1.34 3.35 -0.68 1.7 0 0 Z " fill="#D9F1D9" transform="translate(97,274)"/><path d="M0 0 C0 1.65 0 3.3 0 5 C-1.32 4.34 -2.64 3.68 -4 3 C-1.12 0 -1.12 0 0 0 Z " fill="#4ECE41" transform="translate(223,274)"/><path d="M0 0 C1.32 0.99 2.64 1.98 4 3 C2.02 3 0.04 3 -2 3 C-2 2.34 -2 1.68 -2 1 C-1.34 0.67 -0.68 0.34 0 0 Z " fill="#30C720" transform="translate(239,259)"/><path d="M0 0 C0.66 0.33 1.32 0.66 2 1 C1.67 1.99 1.34 2.98 1 4 C0.01 4.33 -0.98 4.66 -2 5 C-2.33 4.34 -2.66 3.68 -3 3 C-2.01 2.01 -1.02 1.02 0 0 Z " fill="#A7E5A1" transform="translate(143,237)"/><path d="M0 0 C0.66 0.33 1.32 0.66 2 1 C1.67 2.32 1.34 3.64 1 5 C0.34 5 -0.32 5 -1 5 C-0.67 3.35 -0.34 1.7 0 0 Z " fill="#171720" transform="translate(157,232)"/><path d="M0 0 C0 3 0 3 -1.5 4.69 C-2 5.12 -2.49 5.55 -3 6 C-3 3 -3 3 -1.5 1.31 C-0.76 0.66 -0.76 0.66 0 0 Z " fill="#EA0101" transform="translate(113,198)"/><path d="M0 0 C0.66 0 1.32 0 2 0 C2 1.32 2 2.64 2 4 C0.68 3.67 -0.64 3.34 -2 3 C-1.12 1.5 -1.12 1.5 0 0 Z " fill="#64B45D" transform="translate(311,197)"/><path d="M0 0 C1.98 0.5 1.98 0.5 4 1 C3.67 1.99 3.34 2.98 3 4 C1.68 3.34 0.36 2.68 -1 2 C-0.67 1.34 -0.34 0.68 0 0 Z " fill="#E40102" transform="translate(118,191)"/><path d="M0 0 C-0.33 1.32 -0.66 2.64 -1 4 C-1.99 3.67 -2.98 3.34 -4 3 C-4 2.34 -4 1.68 -4 1 C-2 0 -2 0 0 0 Z " fill="#B5B6BC" transform="translate(459,112)"/><path d="M0 0 C0.66 0 1.32 0 2 0 C2 1.32 2 2.64 2 4 C0.68 3.67 -0.64 3.34 -2 3 C-1.34 2.67 -0.68 2.34 0 2 C0 1.34 0 0.68 0 0 Z " fill="#EDEDF4" transform="translate(164,99)"/><path d="M0 0 C0.66 0.33 1.32 0.66 2 1 C0.68 2.32 -0.64 3.64 -2 5 C-2.33 3.68 -2.66 2.36 -3 1 C-2.01 0.67 -1.02 0.34 0 0 Z " fill="#C5C5CC" transform="translate(385,56)"/><path d="M0 0 C-0.33 0.99 -0.66 1.98 -1 3 C-1.99 3.33 -2.98 3.66 -4 4 C-4.33 3.34 -4.66 2.68 -5 2 C-2.25 0 -2.25 0 0 0 Z " fill="#ADE5A8" transform="translate(125,253)"/><path d="M0 0 C1.32 1.32 2.64 2.64 4 4 C3.01 4 2.02 4 1 4 C0.67 2.68 0.34 1.36 0 0 Z " fill="#6EB369" transform="translate(354,246)"/><path d="M0 0 C0.99 0.33 1.98 0.66 3 1 C2.67 1.99 2.34 2.98 2 4 C1.01 3.67 0.02 3.34 -1 3 C-0.67 2.01 -0.34 1.02 0 0 Z " fill="#DFDEE9" transform="translate(456,105)"/><path d="M0 0 C0.66 0 1.32 0 2 0 C2.33 1.32 2.66 2.64 3 4 C2.01 4 1.02 4 0 4 C0 2.68 0 1.36 0 0 Z " fill="#A0A0A5" transform="translate(379,60)"/><path d="M0 0 C0.66 0 1.32 0 2 0 C1.67 1.65 1.34 3.3 1 5 C0.34 3.68 -0.32 2.36 -1 1 C-0.67 0.67 -0.34 0.34 0 0 Z " fill="#B3E8AD" transform="translate(301,54)"/><path d="M0 0 C1.98 0.99 1.98 0.99 4 2 C3.34 2.66 2.68 3.32 2 4 C1.34 2.68 0.68 1.36 0 0 Z " fill="#4BCE3D" transform="translate(75,289)"/><path d="M0 0 C0.66 0.33 1.32 0.66 2 1 C1.34 2.32 0.68 3.64 0 5 C-0.33 4.01 -0.66 3.02 -1 2 C-0.67 1.34 -0.34 0.68 0 0 Z " fill="#AFE6AA" transform="translate(114,259)"/><path d="M0 0 C1.98 0.99 1.98 0.99 4 2 C3.34 2.66 2.68 3.32 2 4 C1.34 2.68 0.68 1.36 0 0 Z " fill="#6BA168" transform="translate(328,211)"/><path d="M0 0 C0.66 0.33 1.32 0.66 2 1 C1.67 1.99 1.34 2.98 1 4 C0.34 4 -0.32 4 -1 4 C-0.67 2.68 -0.34 1.36 0 0 Z " fill="#171821" transform="translate(162,202)"/><path d="M0 0 C0.99 0 1.98 0 3 0 C3 0.99 3 1.98 3 3 C2.01 3 1.02 3 0 3 C0 2.01 0 1.02 0 0 Z " fill="#19C108" transform="translate(45,168)"/><path d="M0 0 C0.99 0 1.98 0 3 0 C3 0.99 3 1.98 3 3 C2.01 3 1.02 3 0 3 C0 2.01 0 1.02 0 0 Z " fill="#19C108" transform="translate(72,160)"/><path d="M0 0 C0.99 0 1.98 0 3 0 C3 0.99 3 1.98 3 3 C2.01 3 1.02 3 0 3 C0 2.01 0 1.02 0 0 Z " fill="#26C416" transform="translate(26,160)"/><path d="M0 0 C0.99 0 1.98 0 3 0 C3 0.99 3 1.98 3 3 C2.01 3 1.02 3 0 3 C0 2.01 0 1.02 0 0 Z " fill="#FF02FF" transform="translate(164,92)"/><path d="M0 0 C0.66 0 1.32 0 2 0 C2.33 1.32 2.66 2.64 3 4 C2.01 3.67 1.02 3.34 0 3 C0 2.01 0 1.02 0 0 Z " fill="#49CD3B" transform="translate(349,33)"/><path d="M0 0 C0.99 0 1.98 0 3 0 C3 0.99 3 1.98 3 3 C2.01 3 1.02 3 0 3 C0 2.01 0 1.02 0 0 Z " fill="#33343C" transform="translate(356,29)"/><path d="M0 0 C0.66 0 1.32 0 2 0 C1.34 1.32 0.68 2.64 0 4 C0 2.68 0 1.36 0 0 Z " fill="#A9E5A4" transform="translate(94,275)"/><path d="M0 0 C0.66 0 1.32 0 2 0 C1.67 0.99 1.34 1.98 1 3 C0.01 2.67 -0.98 2.34 -2 2 C-1.34 1.34 -0.68 0.68 0 0 Z " fill="#D8D7E4" transform="translate(387,265)"/><path d="M0 0 C1.98 0.5 1.98 0.5 4 1 C3.67 1.66 3.34 2.32 3 3 C1.68 2.67 0.36 2.34 -1 2 C-0.67 1.34 -0.34 0.68 0 0 Z " fill="#E70102" transform="translate(115,194)"/><path d="M0 0 C0.99 0 1.98 0 3 0 C2.34 1.32 1.68 2.64 1 4 C0.67 2.68 0.34 1.36 0 0 Z " fill="#A7E4A0" transform="translate(256,74)"/><path d="M0 0 C0.66 0.33 1.32 0.66 2 1 C2 1.66 2 2.32 2 3 C0.35 2.67 -1.3 2.34 -3 2 C-2.01 1.34 -1.02 0.68 0 0 Z " fill="#303139" transform="translate(367,26)"/><path d="M0 0 C0.66 0.33 1.32 0.66 2 1 C1.67 1.99 1.34 2.98 1 4 C0.34 3.34 -0.32 2.68 -1 2 C-0.67 1.34 -0.34 0.68 0 0 Z " fill="#A7E4A1" transform="translate(88,279)"/><path d="M0 0 C0.99 0.99 1.98 1.98 3 3 C2.01 3 1.02 3 0 3 C0 2.01 0 1.02 0 0 Z " fill="#6FB56A" transform="translate(347,236)"/><path d="M0 0 C0.66 0.33 1.32 0.66 2 1 C1.67 1.99 1.34 2.98 1 4 C0.34 3.01 -0.32 2.02 -1 1 C-0.67 0.67 -0.34 0.34 0 0 Z " fill="#A5D0A2" transform="translate(156,227)"/><path d="M0 0 C0.66 0.33 1.32 0.66 2 1 C2 1.66 2 2.32 2 3 C1.01 2.67 0.02 2.34 -1 2 C-0.67 1.34 -0.34 0.68 0 0 Z " fill="#ADE6A7" transform="translate(78,288)"/><path d="M0 0 C0.66 0 1.32 0 2 0 C1.67 0.99 1.34 1.98 1 3 C0.34 2.34 -0.32 1.68 -1 1 C-0.67 0.67 -0.34 0.34 0 0 Z " fill="#ADE6A7" transform="translate(147,234)"/><path d="M0 0 C0.66 0 1.32 0 2 0 C1.67 0.99 1.34 1.98 1 3 C0.34 2.34 -0.32 1.68 -1 1 C-0.67 0.67 -0.34 0.34 0 0 Z " fill="#6CAE67" transform="translate(141,227)"/><path d="M0 0 C0.99 0.33 1.98 0.66 3 1 C2.34 1.66 1.68 2.32 1 3 C0.67 2.01 0.34 1.02 0 0 Z " fill="#39C92A" transform="translate(157,226)"/><path d="M0 0 C0.99 0.33 1.98 0.66 3 1 C2.34 1.66 1.68 2.32 1 3 C0.67 2.01 0.34 1.02 0 0 Z " fill="#68C160" transform="translate(326,209)"/><path d="M0 0 C0.66 0 1.32 0 2 0 C1.67 0.99 1.34 1.98 1 3 C0.34 2.34 -0.32 1.68 -1 1 C-0.67 0.67 -0.34 0.34 0 0 Z " fill="#31353E" transform="translate(356,170)"/><path d="M0 0 C0.66 0.66 1.32 1.32 2 2 C1.01 2 0.02 2 -1 2 C-0.67 1.34 -0.34 0.68 0 0 Z " fill="#31333C" transform="translate(144,248)"/><path d="M0 0 C0.66 0.66 1.32 1.32 2 2 C1.01 2 0.02 2 -1 2 C-0.67 1.34 -0.34 0.68 0 0 Z " fill="#2C151A" transform="translate(128,181)"/></svg>