<svg xmlns="http://www.w3.org/2000/svg" width="442" height="282" viewBox="0 0 442 282"><path d="M0 0 C145.86 0 291.72 0 442 0 C442 93.06 442 186.12 442 282 C296.14 282 150.28 282 0 282 C0 188.94 0 95.88 0 0 Z " fill="#F9FAFD" transform="translate(0,0)"/><path d="M0 0 C1.1 0.81 2.19 1.63 3.27 2.46 C4.52 3.38 5.77 4.31 7.02 5.23 C7.68 5.73 8.34 6.22 9.02 6.73 C12.59 9.39 16.21 11.98 19.83 14.58 C21.37 15.69 22.91 16.8 24.44 17.91 C28.24 20.66 32.04 23.41 35.84 26.15 C37.34 27.23 38.83 28.31 40.33 29.39 C44.1 32.12 47.87 34.84 51.65 37.55 C55.4 40.25 59.13 42.95 62.86 45.66 C64.36 46.75 65.87 47.84 67.38 48.93 C69.6 50.53 71.81 52.15 74.02 53.77 C74.69 54.25 75.36 54.73 76.05 55.22 C79.61 57.86 82.29 60.09 84.08 64.27 C84.45 66.98 84.45 66.98 84.39 70.08 C84.39 70.66 84.38 71.23 84.37 71.82 C84.11 81.99 83.02 92.15 82.08 102.27 C81.13 102.26 80.18 102.24 79.2 102.23 C76.25 102.11 76.25 102.11 74.21 102.89 C72.79 104.36 72.79 104.36 72.77 107.27 C72.78 110.38 72.78 110.38 75.08 112.27 C78.87 112.59 81.05 112.55 84.08 110.27 C84.46 110.91 84.84 111.56 85.23 112.22 C90.65 121.12 97.24 128.78 104.12 136.58 C104.94 137.51 104.94 137.51 105.77 138.46 C106.23 138.97 106.68 139.48 107.16 140 C108.08 141.27 108.08 141.27 108.08 143.27 C107.59 143.5 107.09 143.72 106.58 143.96 C104.93 145.12 104.93 145.12 104.85 146.88 C104.81 150.71 104.81 150.71 106.08 154.27 C105.2 154.57 104.32 154.88 103.41 155.19 C96.08 157.49 96.08 157.49 90.21 162.14 C88.08 164.27 88.08 164.27 86.31 164.32 C84.56 164.05 82.82 163.66 81.08 163.27 C80.42 163.6 79.76 163.93 79.08 164.27 C78.13 167.55 77.98 168.97 79.08 172.27 C83.67 173.36 83.67 173.36 88.02 172.33 C88.37 171.98 88.72 171.63 89.08 171.27 C89.68 171.99 90.28 172.71 90.89 173.46 C98.98 181.54 111.73 183.48 122.64 184.08 C123.46 184.15 124.27 184.21 125.1 184.28 C130.41 184.58 134.53 184.16 139.08 181.27 C141.47 179.22 141.47 179.22 143.46 176.77 C143.83 176.33 144.21 175.9 144.59 175.45 C145.77 174.07 146.93 172.67 148.08 171.27 C148.46 170.81 148.83 170.36 149.22 169.89 C150.72 168.06 152.22 166.22 153.7 164.38 C156.26 161.23 158.91 158.2 161.64 155.21 C165.3 151.19 168.69 147.03 172.05 142.77 C174.15 140.19 176.34 137.73 178.58 135.27 C181.45 132.12 184.2 128.93 186.83 125.58 C191.81 119.27 197.13 113.25 202.42 107.19 C206.51 102.48 210.56 97.73 214.61 92.99 C215.61 91.83 216.6 90.67 217.59 89.51 C229.49 76.59 229.49 76.59 233.3 60.06 C232.92 55.18 231.22 51.95 228.52 47.96 C222.37 43.7 213.88 44 206.65 43.71 C204.08 43.27 204.08 43.27 202.22 41.96 C200.84 39.91 200.83 39.11 201.27 36.71 C201.37 36.11 201.46 35.51 201.56 34.89 C202.08 33.27 202.08 33.27 204.08 31.27 C210.63 31.34 216.33 34.28 222.17 36.98 C223.87 37.76 225.59 38.51 227.3 39.26 C240.14 45.05 251.82 54.88 257.08 68.27 C258.74 73.5 259.65 78.56 260.3 84 C260.4 84.83 260.51 85.66 260.61 86.52 C260.83 88.27 261.05 90.03 261.26 91.79 C261.58 94.4 261.9 97.02 262.23 99.63 C263.41 109.21 264.48 118.79 265.4 128.39 C265.85 133.11 266.37 137.83 266.95 142.54 C269.58 164.4 269.58 164.4 266.71 169.77 C255.06 183.27 222.25 187.48 205.61 188.77 C203.72 188.89 201.83 189.01 199.95 189.12 C198.94 189.18 197.93 189.25 196.9 189.31 C193.73 189.51 190.56 189.7 187.39 189.89 C185.23 190.03 183.06 190.16 180.9 190.3 C175.63 190.63 170.35 190.95 165.08 191.27 C165.11 190.32 165.13 189.37 165.16 188.39 C165.35 185.34 165.35 185.34 163.89 183.39 C161.46 181.89 159.89 181.91 157.08 182.27 C154.78 184.14 154.78 184.14 154.83 187.14 C155.07 190.18 155.66 191.66 157.08 194.27 C145.75 202.3 145.75 202.3 141.09 201.77 C135.33 200.33 129.67 198.54 124.07 196.56 C116.68 194.09 108.49 194.44 101.22 197.14 C97.95 198.87 95.37 201.2 92.71 203.75 C90.27 206.03 88.53 206.46 85.27 206.58 C84.6 206.62 83.94 206.66 83.25 206.7 C79.31 205.92 77.04 203.6 74.77 200.44 C72.9 197.55 71.13 194.6 69.36 191.64 C63.57 182.27 56.47 178.1 46.64 173.39 C44.65 172.42 42.65 171.44 40.65 170.46 C39.59 169.95 38.53 169.44 37.47 168.92 C31.7 166.11 25.97 163.22 20.23 160.34 C17.3 158.88 14.37 157.42 11.43 155.96 C8.39 154.45 5.36 152.93 2.32 151.42 C0.78 150.65 -0.75 149.89 -2.28 149.12 C-10.9 144.84 -19.46 140.49 -27.93 135.94 C-32.16 133.67 -36.42 131.49 -40.73 129.39 C-53.12 123.25 -65.16 116.61 -76.73 109.02 C-77.48 108.54 -78.22 108.05 -78.99 107.56 C-84.11 104.13 -89.09 100.73 -90.58 94.49 C-90.57 93.59 -90.56 92.69 -90.54 91.77 C-90.56 90.87 -90.57 89.98 -90.58 89.05 C-89.48 84.44 -86.94 81.61 -83.01 79 C-80.82 77.76 -78.6 76.6 -76.36 75.46 C-68.61 71.34 -61.71 66.81 -54.92 61.27 C-54.23 60.73 -53.55 60.18 -52.84 59.62 C-49.3 56.72 -46.41 53.56 -43.49 50.04 C-41.28 47.55 -38.81 45.46 -36.28 43.3 C-33.3 40.74 -30.39 38.11 -27.48 35.46 C-26.95 34.98 -26.42 34.5 -25.87 34 C-23.01 31.44 -23.01 31.44 -20.92 28.27 C-20.59 22.64 -20.59 22.64 -21.92 17.27 C-23.24 16.59 -24.58 15.92 -25.92 15.27 C-27.05 13.21 -27.05 13.21 -27.92 11.27 C-20.93 4.31 -10.32 -6.12 0 0 Z " fill="#F9F9FD" transform="translate(110.91796875,21.73046875)"/><path d="M0 0 C0.99 0.5 0.99 0.5 2 1 C5.38 1.14 7.77 1.08 11 0 C11.2 0.5 11.39 0.99 11.59 1.5 C16.71 13.13 28.16 18.41 38.63 24.59 C40.88 25.93 43.12 27.29 45.35 28.65 C52.85 33.19 60.41 37.29 68.4 40.92 C73.31 43.16 78.08 45.59 82.84 48.15 C97.36 55.86 112.12 63.11 126.83 70.45 C130.8 72.43 134.78 74.42 138.76 76.4 C146.5 80.27 154.25 84.14 162 88 C161.35 88.6 160.7 89.19 160.02 89.8 C157.7 91.89 157.7 91.89 157.62 95.12 C157.72 98.13 157.72 98.13 160 100 C162.92 100.5 162.92 100.5 166 100 C168.38 98.12 168.38 98.12 170 96 C170.36 96.56 170.73 97.11 171.1 97.69 C172.72 100.14 174.35 102.57 176 105 C176.49 105.74 176.98 106.48 177.49 107.24 C180.8 111.98 183.77 114.49 189 117 C188.9 117.7 188.81 118.4 188.71 119.12 C188.6 120.03 188.49 120.94 188.38 121.88 C188.26 122.78 188.14 123.68 188.02 124.62 C188.02 125.4 188.01 126.19 188 127 C188.66 127.66 189.32 128.32 190 129 C191.77 129.02 191.77 129.02 193.62 128.62 C194.74 128.42 195.85 128.21 197 128 C197.19 126.91 197.37 125.81 197.56 124.69 C197.67 124.07 197.77 123.46 197.88 122.82 C198.13 120.76 198.13 120.76 197 118 C198.09 117.83 199.19 117.67 200.31 117.5 C205.02 116.36 208.48 113.76 212.23 110.83 C214.52 109.04 216.2 107.93 219 107 C218.98 107.55 218.95 108.11 218.93 108.68 C218.91 109.4 218.89 110.13 218.88 110.88 C218.85 111.59 218.83 112.31 218.8 113.05 C218.82 115.24 218.82 115.24 221 117 C223.5 117.33 223.5 117.33 226 117 C228.18 115.24 228.18 115.24 228.2 113.05 C228.17 112.34 228.15 111.62 228.12 110.88 C228.11 110.15 228.09 109.43 228.07 108.68 C228.05 108.13 228.02 107.57 228 107 C233.54 107.49 238.21 109.1 243.4 111.08 C246.3 112.11 248.95 112.67 252 113 C251.48 113.54 250.97 114.07 250.44 114.62 C248.7 116.98 248.7 116.98 249.19 120.12 C249.78 123.1 249.78 123.1 252 125 C253.74 125.46 253.74 125.46 255.62 125.62 C256.74 125.75 257.85 125.87 259 126 C259 127.65 259 129.3 259 131 C257.02 131.99 257.02 131.99 255 133 C255 134.98 255 136.96 255 139 C253.02 139.99 253.02 139.99 251 141 C251 142.98 251 144.96 251 147 C249.02 147.99 249.02 147.99 247 149 C247.66 149.66 248.32 150.32 249 151 C248.34 151.66 247.68 152.32 247 153 C247 153.66 247 154.32 247 155 C245.02 155.99 245.02 155.99 243 157 C243.66 157.66 244.32 158.32 245 159 C243 161 243 161 241.19 161.25 C240.46 161.25 239.72 161.25 238.96 161.25 C237.68 161.25 237.68 161.25 236.38 161.26 C235.44 161.25 234.5 161.25 233.53 161.24 C232.54 161.24 231.55 161.24 230.52 161.25 C227.17 161.25 223.82 161.24 220.47 161.23 C218.07 161.23 215.68 161.23 213.28 161.23 C208.12 161.23 202.95 161.22 197.79 161.21 C190.32 161.2 182.85 161.19 175.38 161.19 C163.26 161.18 151.15 161.17 139.03 161.15 C127.26 161.13 115.48 161.12 103.71 161.11 C102.61 161.11 102.61 161.11 101.49 161.11 C95.76 161.1 90.03 161.1 84.3 161.1 C56.2 161.08 28.1 161.04 0 161 C0 107.87 0 54.74 0 0 Z " fill="#FAFAFE" transform="translate(0,121)"/><path d="M0 0 C14.98 -0.02 29.95 -0.04 44.93 -0.05 C51.88 -0.06 58.84 -0.06 65.79 -0.08 C71.85 -0.09 77.91 -0.09 83.97 -0.09 C87.18 -0.1 90.39 -0.1 93.6 -0.11 C97.17 -0.11 100.75 -0.11 104.33 -0.11 C105.4 -0.12 106.47 -0.12 107.58 -0.12 C108.55 -0.12 109.52 -0.12 110.51 -0.12 C111.36 -0.12 112.21 -0.12 113.08 -0.12 C115 -0 115 -0 116 1 C115.32 8.37 115.32 8.37 113 11 C113.67 11.22 114.34 11.43 115.04 11.66 C118.94 13.43 122.06 15.88 125.44 18.5 C126.88 19.6 128.31 20.69 129.75 21.79 C130.47 22.33 131.19 22.88 131.93 23.44 C134.87 25.66 137.87 27.81 140.88 29.94 C142.01 30.75 143.15 31.55 144.29 32.36 C144.88 32.78 145.47 33.2 146.08 33.63 C149.79 36.28 153.49 38.95 157.19 41.62 C157.96 42.19 158.74 42.75 159.54 43.32 C164.37 46.82 169.2 50.32 174.02 53.84 C176.46 55.62 178.92 57.37 181.39 59.13 C182.18 59.69 182.97 60.26 183.78 60.84 C185.34 61.95 186.9 63.06 188.46 64.17 C193.52 67.79 198.68 71.5 203 76 C203 76.66 203 77.32 203 78 C203.54 77.5 204.07 77.01 204.62 76.5 C207.67 74.58 209.46 74.55 213 75 C214.88 76.12 214.88 76.12 216 78 C216.39 81.15 216.53 83.12 214.88 85.88 C212.25 87.45 210.01 87.07 207 87 C202.86 114.01 202.86 114.01 212.46 138.11 C214.32 140.36 216.24 142.55 218.18 144.73 C220.03 146.82 221.68 148.92 223.22 151.24 C226.6 156.44 226.6 156.44 231.75 159.56 C235.85 160.29 239.86 160.25 244 160 C244 160.33 244 160.66 244 161 C240.04 161.33 236.08 161.66 232 162 C232.64 162.78 233.28 163.57 233.94 164.38 C237.01 168.29 237.49 170.85 237.38 175.75 C236.97 178.2 236.6 179.08 234.81 180.75 C230.66 183.63 225.75 185.21 221.02 186.89 C218.57 187.79 216.3 188.77 214 190 C221.03 192.87 227.4 194.67 235 195 C234.75 194.28 234.5 193.56 234.25 192.81 C234 190 234 190 235.62 187.19 C238 185 238 185 240.5 184.44 C243.68 185.15 244.81 186.66 247 189 C252.41 183.16 257.68 177.26 262.67 171.06 C265.19 167.95 267.81 164.96 270.5 162 C273.92 158.25 277.16 154.4 280.35 150.45 C283.59 146.46 286.94 142.57 290.31 138.69 C290.86 138.05 291.41 137.42 291.98 136.77 C293.1 135.48 294.22 134.2 295.34 132.91 C301.55 125.77 307.73 118.61 313.69 111.25 C316.61 107.65 319.62 104.17 322.75 100.75 C326.17 97 329.17 93.2 332 89 C331.26 88.82 331.26 88.82 330.5 88.63 C329.86 88.47 329.22 88.3 328.56 88.12 C327.61 87.88 327.61 87.88 326.63 87.63 C325 87 325 87 324 85 C323.88 81.94 323.88 81.94 324 79 C324.33 78.67 324.66 78.34 325 78 C322.64 76.82 321.01 76.86 318.38 76.75 C312.2 76.17 308.08 73.93 303.62 69.69 C300.07 65.32 300.62 60.37 301 55 C299.89 55.06 298.77 55.12 297.62 55.19 C294.21 55.17 294.21 55.17 292.56 53.88 C291.75 51.15 291.76 48.82 292 46 C294 44 294 44 297.38 43.69 C300.74 43.76 302.53 44.63 305 47 C305.78 46.36 306.57 45.72 307.38 45.06 C312.35 41.15 316.82 41.35 323 42 C326.86 43.17 330.39 44.83 334 46.62 C334.96 47.09 335.93 47.55 336.92 48.02 C339.62 49.33 342.31 50.66 345 52 C346.17 52.56 347.34 53.12 348.52 53.68 C355.35 57.13 360.56 61.69 366 67 C368.47 65.85 370.05 64.95 372 63 C377.45 63.45 377.45 63.45 380 66 C380.24 68.87 380.31 71.15 379.31 73.88 C377.34 75.57 375.51 75.07 373 75 C373.39 75.59 373.77 76.18 374.17 76.78 C379.89 86.64 381.06 97.17 382.62 108.33 C382.92 110.43 383.24 112.51 383.62 114.6 C385.04 122.71 385.63 130.87 386.22 139.07 C386.59 144.08 387.12 148.97 387.99 153.92 C389.12 160.34 389.66 166.75 390.12 173.25 C390.21 174.39 390.3 175.53 390.39 176.7 C390.6 179.47 390.8 182.23 391 185 C392.11 184.97 393.23 184.93 394.38 184.89 C397.75 184.79 397.75 184.79 400 186.69 C401.28 189.64 401.08 190.99 400 194 C398.75 195.81 398.75 195.81 397 197 C394.5 197.38 394.5 197.38 392 197 C390.34 195.48 390.34 195.48 389 194 C388.67 194.51 388.34 195.02 388 195.54 C380.67 206.15 370.88 209.54 359 213 C358.4 213.18 357.81 213.36 357.2 213.54 C352.83 214.83 348.43 215.95 344 217 C343.28 217.17 342.55 217.35 341.81 217.53 C330.15 220.26 318.61 221.46 306.69 222.12 C305.99 222.16 305.29 222.2 304.58 222.24 C301.86 222.4 299.14 222.55 296.43 222.69 C291.49 222.97 286.55 223.25 281.62 223.75 C280.54 223.85 279.46 223.95 278.35 224.05 C273.17 225.52 268.76 227.01 265 231 C263.62 235.81 263.73 240.41 263.88 245.38 C263.88 246.7 263.87 248.02 263.87 249.34 C263.86 252.56 263.91 255.78 264 259 C263.67 259 263.34 259 263 259 C262.67 250.42 262.34 241.84 262 233 C260.02 233.99 260.02 233.99 258 235 C258.52 235.56 259.03 236.11 259.56 236.69 C261 239 261 239 260.81 241.62 C260 244 260 244 258 246 C255.38 246.29 253.53 246.47 251 246 C249 244.31 249 244.31 248 242 C248.24 238.63 248.59 237.41 251 235 C250.12 234.73 249.24 234.47 248.33 234.2 C247.16 233.84 245.99 233.48 244.81 233.12 C244.23 232.95 243.66 232.78 243.06 232.6 C240.4 231.78 237.8 230.92 235.22 229.88 C232.96 228.98 231.4 228.82 229 229 C229.06 230.09 229.12 231.19 229.19 232.31 C229.18 234.8 229.14 235.78 227.81 237.94 C225.34 239.39 223.82 239.42 221 239 C219.19 237.88 219.19 237.88 218 236 C217.75 232.9 217.6 230.8 219 228 C218.38 228.45 218.38 228.45 217.75 228.9 C215.87 230.25 214 231.59 212.12 232.94 C211.47 233.41 210.82 233.87 210.15 234.36 C209.53 234.81 208.9 235.25 208.26 235.71 C207.68 236.13 207.11 236.54 206.51 236.97 C203.26 239.19 200.89 239.08 197 239 C197.35 239.35 197.7 239.7 198.06 240.06 C199.53 243.09 198.94 245.84 198 249 C196.25 251.01 195.14 250.98 192.5 251.31 C190 251 190 251 188.19 249.88 C186.46 247.14 186.68 245.17 187 242 C188 239.63 188 239.63 189 238 C188.3 237.77 187.6 237.55 186.88 237.31 C178.19 233.35 174.57 225.93 170 218 C169.4 218.65 168.81 219.3 168.19 219.97 C166 222 166 222 162.94 222.44 C160 222 160 222 158.12 220.88 C156.46 218.11 156.61 216.17 157 213 C158.52 210.81 158.52 210.81 160 209 C159.04 208.52 158.08 208.04 157.09 207.55 C147.96 202.99 138.82 198.43 129.69 193.87 C125 191.53 120.31 189.19 115.61 186.84 C111.07 184.58 106.52 182.31 101.98 180.04 C100.26 179.18 98.54 178.32 96.82 177.47 C82.06 170.1 67.36 162.59 52.92 154.61 C50.57 153.31 48.2 152.04 45.83 150.77 C16.05 134.7 16.05 134.7 10 122 C9.01 122.5 9.01 122.5 8 123 C5 123.19 5 123.19 2 123 C-0 121 -0 121 -0.25 118.86 C-0.24 117.97 -0.24 117.08 -0.24 116.17 C-0.24 115.15 -0.25 114.12 -0.25 113.07 C-0.24 111.95 -0.23 110.82 -0.23 109.67 C-0.23 108.47 -0.23 107.28 -0.23 106.09 C-0.23 102.85 -0.22 99.61 -0.2 96.36 C-0.19 92.98 -0.19 89.59 -0.19 86.21 C-0.18 79.79 -0.16 73.38 -0.14 66.96 C-0.12 59.66 -0.11 52.36 -0.1 45.06 C-0.08 30.04 -0.04 15.02 0 0 Z M83 33 C84.32 36.15 84.32 36.15 87.06 38 C89 39 89 39 89.75 40.69 C89.83 41.45 89.92 42.21 90 43 C90.17 44.07 90.33 45.14 90.5 46.25 C90.42 50.65 87.97 52.98 85.05 56.04 C82.51 58.47 79.92 60.8 77.25 63.08 C74.56 65.38 71.93 67.74 69.31 70.12 C68.86 70.53 68.41 70.94 67.94 71.36 C64.87 74.15 61.93 77.05 59 80 C51.51 87.33 43.17 92.83 33.9 97.62 C26.07 101.35 26.07 101.35 21 108 C20.14 112.43 19.57 116.67 22.02 120.67 C26.2 125.98 31.55 129.31 37.25 132.81 C38.71 133.72 38.71 133.72 40.2 134.65 C53.14 142.67 66.33 149.8 80.12 156.25 C86.77 159.38 93.27 162.72 99.76 166.18 C108.59 170.87 117.54 175.31 126.49 179.76 C128.7 180.85 130.9 181.95 133.11 183.05 C133.73 183.37 134.36 183.68 135.01 184 C136.25 184.62 137.49 185.25 138.73 185.87 C142.81 187.92 146.92 189.93 151.04 191.91 C152.66 192.7 154.28 193.49 155.89 194.28 C157.45 195.04 159.01 195.78 160.58 196.53 C170.67 201.47 177.02 207.11 182.75 216.75 C186.85 224.22 186.85 224.22 193.82 228.54 C200.57 228.85 204.1 225.22 209 221 C215.51 216.56 222.31 216.42 230 217 C235.41 218.08 240.56 219.84 245.75 221.69 C251.3 223.54 251.3 223.54 257 223 C260.85 220.9 264.43 218.53 268 216 C267.68 215.4 267.35 214.81 267.02 214.2 C265.68 211.32 265.73 209.13 266 206 C266.66 205.34 267.32 204.68 268 204 C270.41 204.03 272.62 204.56 275 205 C276 210.75 276 210.75 276 213 C282.17 212.67 288.33 212.31 294.5 211.94 C296.59 211.81 298.67 211.7 300.76 211.58 C320.28 210.52 338.94 207.94 357.44 201.5 C358.59 201.12 359.75 200.74 360.9 200.36 C370.49 197.21 370.49 197.21 377.85 190.58 C382.08 181.07 378.1 167.09 376.79 157.15 C376.08 151.8 375.54 146.44 375.06 141.06 C374.27 132.41 373.37 123.77 372.37 115.14 C372.21 113.69 372.05 112.25 371.9 110.81 C370.55 98.32 368.69 86.67 360 77 C359.4 76.27 358.8 75.54 358.18 74.79 C352.16 68.07 345.22 64.66 337.11 60.97 C334.99 60 332.9 58.98 330.81 57.95 C329.48 57.3 328.14 56.65 326.81 56 C326.2 55.7 325.59 55.39 324.96 55.08 C321.52 53.45 318.82 52.49 315 53 C312.71 55.13 312.08 56.47 311.62 59.56 C312.08 62.5 312.71 63.18 315 65 C317.01 65.54 317.01 65.54 319.24 65.62 C320.06 65.69 320.88 65.76 321.72 65.83 C322.58 65.88 323.43 65.94 324.31 66 C330.23 66.4 334.92 66.78 340 70 C344.46 76 344.83 82.73 344 90 C341.73 96.91 336.5 102 331.61 107.18 C329.09 109.87 326.75 112.68 324.44 115.56 C321.56 119.14 318.59 122.61 315.5 126 C312.06 129.78 308.79 133.65 305.58 137.62 C302.51 141.4 299.36 145.12 296.19 148.81 C295.68 149.4 295.18 149.99 294.66 150.59 C292.59 153 290.51 155.4 288.44 157.81 C286.9 159.6 285.35 161.39 283.81 163.19 C283.06 164.06 283.06 164.06 282.3 164.95 C279.25 168.51 276.26 172.11 273.31 175.75 C269.77 180.12 266.06 184.29 262.27 188.44 C259.05 192.07 256.05 195.85 253.04 199.65 C250 203.15 247.56 205.1 243 206 C228.59 206.62 214.08 204.34 202 196 C200.97 195.03 199.96 194.03 199 193 C198.34 193.66 197.68 194.32 197 195 C194.59 194.97 192.38 194.44 190 194 C189.2 190.71 188.9 189.29 190 186 C196.63 184.88 196.63 184.88 200 186 C200.78 184.85 200.78 184.85 201.58 183.68 C204.12 180.5 206.98 179.45 210.75 178.19 C211.35 177.97 211.95 177.76 212.57 177.53 C214.04 177.01 215.52 176.5 217 176 C216.67 175.34 216.34 174.68 216 174 C215.71 171.64 215.66 169.36 216 167 C217.5 165.56 217.5 165.56 219 165 C217.7 162.18 216.29 160.01 214.21 157.71 C213.66 157.11 213.12 156.5 212.56 155.87 C211.98 155.23 211.41 154.6 210.81 153.94 C206.08 148.6 201.98 143.34 198.37 137.17 C197.08 135.13 195.77 133.62 194 132 C193.34 132.66 192.68 133.32 192 134 C189 134.25 189 134.25 186 134 C184 132 184 132 183.69 129 C184 126 184 126 185.12 124.62 C187.76 123.75 190.24 123.96 193 124 C194.57 107.93 194.57 107.93 195.31 91.81 C195.34 90.28 195.34 90.28 195.36 88.71 C194.7 83.76 192.35 81.14 188.59 78.09 C187.19 77.03 185.79 75.98 184.38 74.94 C183.62 74.37 182.87 73.8 182.09 73.22 C175.59 68.36 168.96 63.68 162.31 59.03 C157.86 55.92 153.46 52.75 149.06 49.56 C148.32 49.02 147.58 48.49 146.81 47.93 C145.3 46.84 143.79 45.75 142.28 44.65 C139.98 42.98 137.67 41.31 135.36 39.64 C134.59 39.09 133.83 38.54 133.04 37.97 C131.53 36.87 130.01 35.78 128.5 34.69 C124.95 32.14 121.43 29.58 117.93 26.96 C117.3 26.49 116.66 26.02 116.01 25.54 C114.83 24.67 113.66 23.79 112.5 22.89 C101.68 14.94 90.7 25.34 83 33 Z " fill="#1E1F27" transform="translate(0,0)"/><path d="M0 0 C8.91 0 17.82 0 27 0 C27 60.06 27 120.12 27 182 C-22.74 182.08 -22.74 182.08 -43.54 182.1 C-48.3 182.1 -53.05 182.11 -57.8 182.11 C-58.4 182.11 -58.99 182.11 -59.61 182.11 C-69.23 182.12 -78.85 182.14 -88.47 182.15 C-98.34 182.17 -108.21 182.18 -118.09 182.19 C-123.63 182.19 -129.18 182.2 -134.72 182.21 C-139.94 182.23 -145.16 182.23 -150.37 182.23 C-152.29 182.23 -154.21 182.23 -156.13 182.24 C-158.74 182.25 -161.35 182.25 -163.96 182.24 C-164.73 182.25 -165.49 182.25 -166.28 182.26 C-170.02 182.24 -172.76 182.13 -176 180 C-175.01 179.01 -175.01 179.01 -174 178 C-174 177.34 -174 176.68 -174 176 C-173.01 175.01 -173.01 175.01 -172 174 C-172 173.34 -172 172.68 -172 172 C-171.01 171.01 -171.01 171.01 -170 170 C-170.66 169.34 -171.32 168.68 -172 168 C-170.02 167.01 -170.02 167.01 -168 166 C-168 165.34 -168 164.68 -168 164 C-167.01 163.01 -167.01 163.01 -166 162 C-166.66 161.34 -167.32 160.68 -168 160 C-166.02 159.01 -166.02 159.01 -164 158 C-164 157.34 -164 156.68 -164 156 C-163.01 155.01 -163.01 155.01 -162 154 C-162.66 153.34 -163.32 152.68 -164 152 C-162.02 151.01 -162.02 151.01 -160 150 C-160 149.34 -160 148.68 -160 148 C-160.99 147.34 -161.98 146.68 -163 146 C-159.53 145.01 -159.53 145.01 -156 144 C-154.94 140.62 -154.79 139.42 -156.44 136.19 C-156.95 135.47 -157.47 134.74 -158 134 C-157.03 133.63 -156.06 133.26 -155.06 132.88 C-151.17 131.24 -147.96 128.95 -144.6 126.4 C-137.21 122.42 -128.38 122.51 -120.19 122 C-118.37 121.87 -116.55 121.74 -114.74 121.61 C-110.91 121.34 -107.08 121.07 -103.25 120.81 C-92.45 120.06 -81.96 118.35 -71.38 116.12 C-70.48 115.94 -70.48 115.94 -69.57 115.75 C-62.82 114.34 -56.47 112.61 -50.12 109.9 C-47.54 108.8 -44.91 107.94 -42.25 107.06 C-34.45 104.23 -30.62 100.4 -27 93 C-26.44 93.5 -25.89 93.99 -25.31 94.5 C-22.55 96.29 -21.23 96.58 -18 96 C-15.99 94.4 -15.99 94.4 -15 92 C-15.23 88.68 -15.23 88.68 -17 86 C-18.35 85.93 -19.71 85.92 -21.06 85.94 C-21.8 85.95 -22.53 85.96 -23.29 85.96 C-23.85 85.98 -24.42 85.99 -25 86 C-25.08 85.04 -25.16 84.09 -25.24 83.1 C-25.55 79.48 -25.86 75.86 -26.17 72.24 C-26.31 70.69 -26.44 69.14 -26.57 67.58 C-27.32 58.65 -28.25 49.8 -29.58 40.93 C-30.06 37.59 -30.33 34.31 -30.5 30.94 C-30.86 25.15 -31.61 19.55 -32.6 13.84 C-32.97 11.18 -33.07 8.68 -33 6 C-31.35 6.33 -29.7 6.66 -28 7 C-29.98 5.52 -29.98 5.52 -32 4 C-22.1 4 -12.2 4 -2 4 C-2 3.34 -2 2.68 -2 2 C-1.34 2 -0.68 2 0 2 C0 1.34 0 0.68 0 0 Z " fill="#F0EDFD" transform="translate(415,100)"/><path d="M0 0 C2.79 1.17 5.5 2.43 8.21 3.78 C9.18 4.24 10.14 4.7 11.13 5.18 C13.84 6.48 16.53 7.81 19.21 9.16 C20.39 9.72 21.56 10.28 22.73 10.84 C29.56 14.28 34.77 18.84 40.21 24.16 C42.68 23 44.26 22.11 46.21 20.16 C51.67 20.61 51.67 20.61 54.21 23.16 C54.46 26.02 54.53 28.31 53.53 31.03 C51.55 32.72 49.73 32.23 47.21 32.16 C47.6 32.74 47.99 33.33 48.39 33.94 C54.11 43.79 55.27 54.33 56.83 65.48 C57.13 67.58 57.46 69.67 57.83 71.75 C59.25 79.86 59.84 88.02 60.43 96.23 C60.81 101.23 61.33 106.13 62.21 111.07 C63.34 117.49 63.87 123.91 64.34 130.41 C64.43 131.54 64.51 132.68 64.6 133.85 C64.81 136.62 65.02 139.39 65.21 142.16 C66.33 142.12 67.44 142.09 68.59 142.05 C71.96 141.94 71.96 141.94 74.21 143.84 C75.49 146.8 75.3 148.15 74.21 151.16 C72.96 152.97 72.96 152.97 71.21 154.16 C68.71 154.53 68.71 154.53 66.21 154.16 C64.56 152.63 64.56 152.63 63.21 151.16 C62.89 151.66 62.56 152.17 62.22 152.69 C54.88 163.31 45.1 166.7 33.21 170.16 C32.32 170.42 32.32 170.42 31.41 170.69 C27.04 171.99 22.65 173.11 18.21 174.16 C17.49 174.33 16.77 174.5 16.02 174.68 C4.37 177.42 -7.17 178.61 -19.1 179.28 C-19.79 179.32 -20.49 179.36 -21.21 179.4 C-23.93 179.55 -26.64 179.7 -29.36 179.85 C-41.51 180.52 -51.45 181.19 -61.79 188.16 C-61.29 184.2 -61.29 184.2 -60.79 180.16 C-62.44 180.16 -64.09 180.16 -65.79 180.16 C-65.6 178.34 -65.6 178.34 -64.79 176.16 C-60.61 173.16 -60.61 173.16 -57.79 173.16 C-58.28 172.62 -58.78 172.08 -59.29 171.53 C-61.21 168.49 -61.24 166.69 -60.79 163.16 C-59.72 161.22 -59.72 161.22 -57.79 160.16 C-54.63 160.05 -51.8 160.35 -49.29 162.34 C-48.53 165.1 -49.18 167.41 -49.79 170.16 C-48.8 169.83 -47.81 169.5 -46.79 169.16 C-45.47 169.01 -44.15 168.9 -42.83 168.83 C-41.64 168.76 -41.64 168.76 -40.43 168.69 C-39.57 168.64 -38.71 168.59 -37.82 168.54 C-35.97 168.43 -34.12 168.31 -32.26 168.2 C-29.37 168.02 -26.47 167.85 -23.58 167.68 C-4.58 166.6 13.64 163.93 31.65 157.66 C32.81 157.27 33.96 156.89 35.12 156.51 C44.46 153.59 44.46 153.59 51.57 147.23 C54.69 137.18 51.34 124.47 50 114.31 C49.3 108.95 48.75 103.6 48.28 98.22 C47.48 89.56 46.58 80.92 45.59 72.29 C45.43 70.85 45.27 69.41 45.11 67.96 C43.77 55.46 41.89 43.85 33.21 34.16 C32.69 33.5 32.16 32.85 31.61 32.17 C25.99 25.78 18.94 22.63 11.34 19.14 C9.22 18.16 7.12 17.13 5.02 16.1 C3.69 15.45 2.36 14.8 1.03 14.16 C0.42 13.85 -0.19 13.55 -0.82 13.24 C-4.27 11.6 -6.96 10.69 -10.79 11.16 C-12.73 12.91 -12.78 14.11 -13.04 16.72 C-13.03 19.34 -13.03 19.34 -10.79 21.16 C-8.87 21.55 -8.87 21.55 -6.68 21.65 C-5.86 21.71 -5.04 21.78 -4.2 21.85 C-2.48 21.97 -0.77 22.08 0.94 22.19 C6.47 22.65 10.79 23.67 15.21 27.16 C19.69 33.13 20.05 39.91 19.21 47.16 C16.95 54.07 11.71 59.15 6.83 64.33 C4.3 67.02 1.96 69.84 -0.35 72.72 C-3.23 76.29 -6.19 79.76 -9.29 83.16 C-12.72 86.93 -15.99 90.81 -19.21 94.78 C-22.28 98.56 -25.42 102.27 -28.6 105.97 C-29.1 106.55 -29.61 107.14 -30.13 107.75 C-32.2 110.15 -34.27 112.56 -36.35 114.97 C-37.89 116.76 -39.43 118.55 -40.97 120.34 C-41.47 120.92 -41.97 121.51 -42.49 122.11 C-45.54 125.66 -48.53 129.26 -51.47 132.91 C-55.02 137.27 -58.73 141.45 -62.52 145.6 C-65.7 149.19 -68.68 152.94 -71.64 156.71 C-74.93 160.46 -77.82 163.23 -82.79 164.16 C-97.2 164.77 -111.71 162.49 -123.79 154.16 C-124.81 153.18 -125.82 152.19 -126.79 151.16 C-127.78 152.15 -127.78 152.15 -128.79 153.16 C-131.19 153.12 -133.41 152.6 -135.79 152.16 C-137.93 146.92 -137.93 146.92 -137.35 143.84 C-135.25 141.58 -133.53 141.48 -130.54 141.14 C-128.79 141.16 -128.79 141.16 -125.79 142.16 C-124.99 141 -124.99 141 -124.18 139.83 C-121.77 136.83 -119.13 135.71 -115.54 134.34 C-114.98 134.13 -114.43 133.91 -113.86 133.69 C-112.5 133.16 -111.15 132.66 -109.79 132.16 C-110.12 131.83 -110.45 131.5 -110.79 131.16 C-110.93 128.82 -110.83 126.5 -110.79 124.16 C-109.83 123.88 -109.83 123.88 -108.85 123.59 C-106.66 122.39 -106.66 122.39 -106.3 120.46 C-106.06 118.7 -105.92 116.93 -105.79 115.16 C-103.91 114.53 -103.91 114.53 -101.79 114.16 C-100.8 115.15 -100.8 115.15 -99.79 116.16 C-97.85 116.52 -97.85 116.52 -95.65 116.57 C-94.85 116.61 -94.04 116.65 -93.21 116.69 C-92.37 116.72 -91.53 116.75 -90.66 116.78 C-89.81 116.82 -88.96 116.86 -88.09 116.9 C-85.99 116.99 -83.89 117.08 -81.79 117.16 C-81.79 117.49 -81.79 117.82 -81.79 118.16 C-87.73 118.65 -87.73 118.65 -93.79 119.16 C-93.15 119.94 -92.51 120.72 -91.85 121.53 C-88.77 125.45 -88.29 128 -88.4 132.91 C-88.82 135.35 -89.19 136.23 -90.97 137.91 C-95.12 140.78 -100.03 142.36 -104.76 144.04 C-107.22 144.95 -109.48 145.92 -111.79 147.16 C-104.76 150.03 -98.39 151.83 -90.79 152.16 C-91.03 151.43 -91.28 150.71 -91.54 149.97 C-91.79 147.16 -91.79 147.16 -90.16 144.34 C-87.79 142.16 -87.79 142.16 -85.29 141.59 C-82.11 142.31 -80.98 143.82 -78.79 146.16 C-73.37 140.31 -68.1 134.42 -63.11 128.21 C-60.6 125.1 -57.98 122.11 -55.29 119.16 C-51.87 115.4 -48.62 111.55 -45.43 107.61 C-42.19 103.61 -38.85 99.72 -35.47 95.84 C-34.92 95.21 -34.37 94.58 -33.8 93.92 C-32.68 92.64 -31.56 91.35 -30.44 90.06 C-24.24 82.92 -18.05 75.76 -12.1 68.41 C-9.18 64.8 -6.17 61.32 -3.04 57.91 C0.38 54.16 3.38 50.36 6.21 46.16 C5.47 45.97 5.47 45.97 4.72 45.79 C4.08 45.62 3.44 45.45 2.78 45.28 C1.82 45.04 1.82 45.04 0.84 44.79 C-0.79 44.16 -0.79 44.16 -1.79 42.16 C-1.91 39.09 -1.91 39.09 -1.79 36.16 C-1.46 35.83 -1.13 35.5 -0.79 35.16 C-3.15 33.97 -4.78 34.02 -7.41 33.91 C-13.59 33.32 -17.7 31.08 -22.17 26.84 C-25.72 22.48 -25.17 17.52 -24.79 12.16 C-25.9 12.22 -27.01 12.28 -28.16 12.34 C-31.57 12.32 -31.57 12.32 -33.22 11.03 C-34.04 8.31 -34.03 5.98 -33.79 3.16 C-31.79 1.16 -31.79 1.16 -28.41 0.84 C-25.04 0.92 -23.26 1.78 -20.79 4.16 C-20 3.52 -19.22 2.88 -18.41 2.22 C-12.94 -2.08 -6.58 -2 0 0 Z " fill="#1C202A" transform="translate(325.78515625,42.8447265625)"/><path d="M0 0 C34.65 0 69.3 0 105 0 C105 2.31 105 4.62 105 7 C105.5 7.99 105.5 7.99 106 9 C105.32 9.16 104.64 9.32 103.95 9.48 C90.2 12.93 81.8 19.11 72 29 C71.44 28.48 70.89 27.97 70.31 27.44 C68.07 25.72 68.07 25.72 65.31 26.25 C63.06 26.79 63.06 26.79 62 28 C61.75 32.14 61.75 32.14 63 36 C64.11 36.02 65.23 36.04 66.38 36.06 C67 36.07 67.63 36.09 68.27 36.1 C70.11 36.11 70.11 36.11 72 35 C72.5 37.97 72.5 37.97 73 41 C71.68 41.33 70.36 41.66 69 42 C68.94 43.07 68.88 44.15 68.81 45.25 C68.78 45.85 68.74 46.46 68.71 47.08 C69.1 49.66 70.34 51.04 72 53 C64.68 60.32 64.68 60.32 63.33 61.67 C62.47 62.53 61.61 63.4 60.75 64.26 C50.84 74.21 41.06 82.4 28.5 88.8 C21.14 92.56 15.63 95.99 11.69 103.5 C10.82 106.66 10.38 109.74 10 113 C8.27 112.67 6.55 112.35 4.82 112.02 C2.65 111.82 2.65 111.82 0 114 C0 76.38 0 38.76 0 0 Z " fill="#FAFAFE" transform="translate(0,0)"/><path d="M0 0 C0.33 0 0.66 0 1 0 C2.55 12.61 4.08 25.22 5.3 37.87 C5.75 42.64 6.28 47.38 6.85 52.13 C9.47 74.18 9.47 74.18 6.62 79.5 C-5.03 93 -37.83 97.21 -54.47 98.5 C-56.36 98.63 -58.25 98.74 -60.14 98.85 C-61.14 98.92 -62.15 98.98 -63.18 99.04 C-66.35 99.24 -69.52 99.43 -72.69 99.62 C-74.85 99.76 -77.02 99.9 -79.19 100.03 C-84.46 100.36 -89.73 100.68 -95 101 C-94.25 96.25 -94.25 96.25 -92 94 C-92 93.34 -92 92.68 -92 92 C-90.02 91.01 -90.02 91.01 -88 90 C-88.66 89.34 -89.32 88.68 -90 88 C-89.01 87.01 -89.01 87.01 -88 86 C-88 85.34 -88 84.68 -88 84 C-86.02 83.01 -86.02 83.01 -84 82 C-84 81.34 -84 80.68 -84 80 C-82.02 79.01 -82.02 79.01 -80 78 C-80.66 77.34 -81.32 76.68 -82 76 C-80.02 75.01 -80.02 75.01 -78 74 C-78 73.34 -78 72.68 -78 72 C-77.01 71.01 -77.01 71.01 -76 70 C-76 69.34 -76 68.68 -76 68 C-74.02 67.01 -74.02 67.01 -72 66 C-72 65.34 -72 64.68 -72 64 C-70.68 63.34 -69.36 62.68 -68 62 C-68.66 61.34 -69.32 60.68 -70 60 C-68.68 59.34 -67.36 58.68 -66 58 C-66 57.34 -66 56.68 -66 56 C-65.34 55.34 -64.68 54.68 -64 54 C-64 53.34 -64 52.68 -64 52 C-62.68 51.34 -61.36 50.68 -60 50 C-60 49.34 -60 48.68 -60 48 C-58.68 47.34 -57.36 46.68 -56 46 C-56 45.34 -56 44.68 -56 44 C-54.68 43.34 -53.36 42.68 -52 42 C-52 41.34 -52 40.68 -52 40 C-50.68 39.34 -49.36 38.68 -48 38 C-48 37.34 -48 36.68 -48 36 C-46.68 35.34 -45.36 34.68 -44 34 C-44 33.34 -44 32.68 -44 32 C-42.68 31.34 -41.36 30.68 -40 30 C-40 29.34 -40 28.68 -40 28 C-38.68 27.34 -37.36 26.68 -36 26 C-36 25.34 -36 24.68 -36 24 C-34.68 23.34 -33.36 22.68 -32 22 C-32 21.34 -32 20.68 -32 20 C-28.04 19.5 -28.04 19.5 -24 19 C-25.32 18.01 -26.64 17.02 -28 16 C-25.36 15.67 -22.72 15.34 -20 15 C-20 14.01 -20 13.02 -20 12 C-18.68 11.34 -17.36 10.68 -16 10 C-16 9.34 -16 8.68 -16 8 C-12.04 8 -8.08 8 -4 8 C-4 7.34 -4 6.68 -4 6 C-3.34 6 -2.68 6 -2 6 C-2 5.34 -2 4.68 -2 4 C-1.34 4 -0.68 4 0 4 C0 2.68 0 1.36 0 0 Z " fill="#F0EDFD" transform="translate(371,112)"/><path d="M0 0 C10.23 0 20.46 0 31 0 C31 20.46 31 40.92 31 62 C2.32 62.08 2.32 62.08 -9.68 62.1 C-17.98 62.11 -26.27 62.12 -34.56 62.15 C-40.6 62.17 -46.64 62.18 -52.68 62.19 C-55.88 62.19 -59.08 62.2 -62.28 62.21 C-65.85 62.23 -69.42 62.23 -72.99 62.23 C-74.58 62.24 -74.58 62.24 -76.2 62.25 C-77.18 62.25 -78.15 62.24 -79.15 62.24 C-80 62.24 -80.84 62.24 -81.71 62.25 C-84.23 61.98 -85.79 61.18 -88 60 C-91.1 59.63 -91.1 59.63 -94.52 59.59 C-95.13 59.57 -95.75 59.55 -96.38 59.53 C-98.34 59.47 -100.29 59.42 -102.25 59.38 C-103.58 59.34 -104.91 59.3 -106.24 59.26 C-109.49 59.16 -112.75 59.08 -116 59 C-116 58.67 -116 58.34 -116 58 C-115.44 57.99 -114.88 57.98 -114.3 57.97 C-108.48 57.86 -102.65 57.75 -96.83 57.63 C-94.65 57.58 -92.48 57.54 -90.3 57.5 C-87.18 57.45 -84.06 57.38 -80.94 57.32 C-79.96 57.3 -78.98 57.28 -77.97 57.27 C-77.07 57.25 -76.17 57.23 -75.24 57.21 C-74.05 57.18 -74.05 57.18 -72.83 57.16 C-70.98 57.2 -70.98 57.2 -70 56 C-69.84 53.84 -69.74 51.72 -69.68 49.56 C-69.66 48.92 -69.64 48.27 -69.62 47.61 C-69.56 45.55 -69.5 43.5 -69.44 41.44 C-69.39 40.04 -69.35 38.65 -69.31 37.26 C-69.2 33.84 -69.1 30.42 -69 27 C-68.67 27 -68.34 27 -68 27 C-67.5 30.96 -67.5 30.96 -67 35 C-65.35 35 -63.7 35 -62 35 C-62.66 34.01 -63.32 33.02 -64 32 C-60.04 31.5 -60.04 31.5 -56 31 C-56.66 30.01 -57.32 29.02 -58 28 C-56.02 27.67 -54.04 27.34 -52 27 C-52.66 26.01 -53.32 25.02 -54 24 C-52.02 23.67 -50.04 23.34 -48 23 C-48 22.01 -48 21.02 -48 20 C-46.68 19.34 -45.36 18.68 -44 18 C-44 17.34 -44 16.68 -44 16 C-41.36 15.67 -38.72 15.34 -36 15 C-36 14.01 -36 13.02 -36 12 C-34.68 11.34 -33.36 10.68 -32 10 C-32 9.34 -32 8.68 -32 8 C-29.36 7.67 -26.72 7.34 -24 7 C-24 6.01 -24 5.02 -24 4 C-16.74 4 -9.48 4 -2 4 C-2 3.34 -2 2.68 -2 2 C-1.34 2 -0.68 2 0 2 C0 1.34 0 0.68 0 0 Z " fill="#EEEDFE" transform="translate(411,220)"/><path d="M0 0 C0.62 -0 1.25 -0 1.89 -0.01 C3.95 -0.01 6.02 -0.01 8.09 -0 C9.52 -0 10.95 -0.01 12.38 -0.01 C15.39 -0.01 18.39 -0.01 21.39 -0 C25.25 0 29.11 0 32.96 -0 C35.92 -0.01 38.88 -0.01 41.83 -0 C43.25 -0 44.68 -0 46.1 -0.01 C48.08 -0.01 50.07 -0.01 52.05 0 C53.75 0 53.75 0 55.48 0 C58.03 0.13 58.03 0.13 59.03 1.13 C59.13 3.42 59.17 5.68 59.16 7.97 C59.16 8.66 59.16 9.34 59.16 10.05 C59.16 11.5 59.16 12.95 59.16 14.39 C59.15 16.62 59.16 18.85 59.16 21.07 C59.16 22.48 59.16 23.88 59.16 25.29 C59.16 25.96 59.16 26.63 59.17 27.32 C59.14 32.01 59.14 32.01 58.03 33.13 C55.65 33.22 53.31 33.24 50.93 33.23 C50.3 33.23 49.67 33.23 49.03 33.22 C46.67 33.22 44.32 33.2 41.96 33.19 C36.71 33.17 31.45 33.15 26.03 33.13 C26.03 43.69 26.03 54.25 26.03 65.13 C25.7 65.13 25.37 65.13 25.03 65.13 C25.03 54.57 25.03 44.01 25.03 33.13 C15.24 33.17 15.24 33.17 5.46 33.22 C4.24 33.22 3.01 33.22 1.79 33.23 C0.83 33.23 0.83 33.23 -0.15 33.24 C-4.74 33.24 -4.74 33.24 -6.97 32.13 C-7 27.73 -7.02 23.34 -7.03 18.94 C-7.03 17.44 -7.04 15.95 -7.05 14.45 C-7.06 12.3 -7.07 10.16 -7.07 8.01 C-7.08 7.34 -7.08 6.66 -7.09 5.97 C-7.09 4.36 -7.03 2.74 -6.97 1.13 C-5.17 -0.67 -2.43 0 0 0 Z " fill="#1FC20E" transform="translate(221.97265625,91.87060546875)"/><path d="M0 0 C0.92 -0.01 0.92 -0.01 1.85 -0.01 C3.88 -0.02 5.9 -0.01 7.93 -0.01 C9.33 -0.01 10.74 -0.01 12.14 -0.01 C15.09 -0.02 18.03 -0.01 20.98 -0 C24.76 0.01 28.54 0 32.32 -0.01 C35.22 -0.02 38.12 -0.01 41.02 -0.01 C42.42 -0.01 43.81 -0.01 45.2 -0.01 C47.15 -0.02 49.1 -0.01 51.04 0 C52.15 0 53.26 0 54.4 0 C57.02 0.26 57.02 0.26 59.02 2.26 C59.22 4.46 59.3 6.53 59.29 8.73 C59.29 9.36 59.29 10 59.29 10.66 C59.29 12 59.29 13.35 59.28 14.69 C59.27 16.75 59.28 18.81 59.29 20.87 C59.29 22.18 59.29 23.48 59.29 24.79 C59.29 25.41 59.3 26.03 59.3 26.66 C59.25 31.03 59.25 31.03 57.02 33.26 C54.4 33.51 54.4 33.51 51.04 33.52 C50.13 33.52 50.13 33.52 49.19 33.53 C47.16 33.54 45.14 33.53 43.12 33.52 C41.71 33.53 40.31 33.53 38.9 33.53 C35.96 33.53 33.01 33.53 30.06 33.52 C26.28 33.51 22.5 33.51 18.72 33.53 C15.82 33.53 12.92 33.53 10.02 33.53 C8.63 33.53 7.23 33.53 5.84 33.53 C3.89 33.54 1.95 33.53 0 33.52 C-1.11 33.52 -2.22 33.51 -3.36 33.51 C-5.98 33.26 -5.98 33.26 -7.98 31.26 C-8.18 29.06 -8.26 26.99 -8.24 24.79 C-8.25 24.15 -8.25 23.52 -8.25 22.86 C-8.25 21.52 -8.25 20.17 -8.24 18.83 C-8.23 16.77 -8.24 14.71 -8.25 12.65 C-8.25 11.34 -8.25 10.03 -8.24 8.73 C-8.25 8.11 -8.25 7.49 -8.26 6.86 C-8.19 0.45 -5.96 0.01 0 0 Z " fill="#1CC10B" transform="translate(282.978515625,244.7412109375)"/><path d="M0 0 C0.64 0.02 1.28 0.04 1.94 0.06 C2 0.68 2.06 1.3 2.12 1.94 C2.39 2.64 2.66 3.34 2.94 4.06 C4.59 4.76 6.26 5.43 7.94 6.06 C9.39 6.91 10.83 7.78 12.25 8.69 C17.22 11.72 22.34 14.32 27.56 16.89 C32.55 19.35 37.47 21.93 42.38 24.56 C48.7 27.95 55.12 31.09 61.63 34.11 C72.34 39.09 82.84 44.44 93.22 50.06 C97.9 52.57 102.67 54.84 107.5 57.06 C123.01 64.28 133.81 70.51 142.56 85.83 C144.92 89.66 147.97 92.86 151.94 95.06 C157.29 95.96 161.64 95.3 166.17 92.35 C168.89 90.37 171.59 88.39 174.24 86.33 C179.2 82.62 186.02 83.24 191.94 84.06 C195.87 85.09 199.67 86.44 203.46 87.93 C208.8 89.96 213.25 90.35 218.94 90.06 C220.27 90.06 221.6 90.05 222.94 90.06 C223.27 91.71 223.6 93.36 223.94 95.06 C222.29 96.05 220.64 97.04 218.94 98.06 C219.45 98.62 219.97 99.18 220.5 99.75 C221.94 102.06 221.94 102.06 221.75 104.69 C220.94 107.06 220.94 107.06 218.94 109.06 C216.31 109.35 214.47 109.54 211.94 109.06 C209.94 107.38 209.94 107.38 208.94 105.06 C209.18 101.69 209.53 100.47 211.94 98.06 C211.06 97.8 210.18 97.53 209.27 97.26 C208.1 96.9 206.92 96.54 205.75 96.19 C205.17 96.01 204.59 95.84 204 95.66 C201.33 94.85 198.74 93.98 196.16 92.94 C193.9 92.05 192.34 91.88 189.94 92.06 C190 93.16 190.06 94.25 190.12 95.38 C190.11 97.86 190.07 98.84 188.75 101 C186.28 102.45 184.76 102.49 181.94 102.06 C180.12 100.94 180.12 100.94 178.94 99.06 C178.68 95.97 178.54 93.86 179.94 91.06 C179.52 91.36 179.11 91.66 178.68 91.96 C176.81 93.31 174.94 94.66 173.06 96 C172.41 96.47 171.76 96.94 171.09 97.42 C170.46 97.87 169.84 98.32 169.2 98.78 C168.33 99.4 168.33 99.4 167.45 100.03 C164.2 102.25 161.83 102.15 157.94 102.06 C158.29 102.41 158.64 102.76 159 103.12 C160.46 106.15 159.88 108.9 158.94 112.06 C157.19 114.07 156.08 114.04 153.44 114.38 C150.94 114.06 150.94 114.06 149.12 112.94 C147.4 110.21 147.61 108.23 147.94 105.06 C148.94 102.69 148.94 102.69 149.94 101.06 C149.24 100.84 148.53 100.61 147.81 100.38 C139.13 96.41 135.51 88.99 130.94 81.06 C130.34 81.71 129.74 82.36 129.13 83.04 C126.94 85.06 126.94 85.06 123.88 85.5 C120.94 85.06 120.94 85.06 119.06 83.94 C117.4 81.17 117.55 79.23 117.94 76.06 C119.46 73.87 119.46 73.87 120.94 72.06 C119.98 71.58 119.02 71.1 118.03 70.61 C108.89 66.05 99.76 61.5 90.63 56.93 C85.94 54.59 81.24 52.25 76.55 49.91 C72 47.64 67.46 45.37 62.91 43.1 C61.2 42.24 59.48 41.38 57.76 40.53 C42.9 33.12 28.06 25.61 13.58 17.48 C11.54 16.39 9.52 15.39 7.42 14.43 C-1.5 10.19 -1.5 10.19 -3.14 6.88 C-3.43 4.78 -3.5 3.13 -3.06 1.06 C-2.06 0.06 -2.06 0.06 0 0 Z " fill="#1E2029" transform="translate(39.0625,136.9375)"/><path d="M0 0 C4.98 1.77 9.42 4.41 14 7 C21.93 11.43 29.98 15.46 38.21 19.3 C44.83 22.41 51.31 25.73 57.76 29.18 C66.59 33.87 75.54 38.31 84.49 42.76 C86.7 43.85 88.9 44.95 91.11 46.05 C91.73 46.37 92.36 46.68 93.01 47 C94.25 47.62 95.49 48.25 96.73 48.87 C100.8 50.92 104.89 52.91 109 54.88 C110.62 55.66 112.23 56.44 113.84 57.23 C115.38 57.97 116.94 58.71 118.49 59.44 C128.93 64.54 135.96 70.9 141.88 80.88 C142.78 82.38 143.7 83.87 144.62 85.37 C145.01 86.02 145.39 86.67 145.79 87.34 C147.44 89.61 149.01 90.75 151.73 91.44 C158.55 91.88 162.05 88.27 167 84 C173.51 79.56 180.31 79.42 188 80 C193.41 81.08 198.56 82.84 203.75 84.69 C207.71 86.05 210.83 86.25 215 86 C218.15 85.91 220.92 86.32 224 87 C223.84 87.68 223.68 88.35 223.52 89.05 C222.92 92.46 222.77 95.81 222.68 99.27 C222.65 100.29 222.65 100.29 222.62 101.33 C222.56 103.49 222.5 105.65 222.44 107.81 C222.39 109.28 222.35 110.75 222.31 112.22 C222.2 115.82 222.1 119.41 222 123 C221.67 123 221.34 123 221 123 C220.67 112.77 220.34 102.54 220 92 C217.98 92 215.96 92 213.95 92.11 C208.09 92.33 203.72 91.12 198.31 89 C189.84 85.97 180.98 83.29 172.31 87.22 C170.04 88.68 168.03 90.23 166 92 C161.99 95.24 159.05 97.13 153.75 97.38 C152.66 97.45 152.66 97.45 151.55 97.52 C146.87 96.56 143.43 93.84 140.52 90.09 C139.12 87.95 137.8 85.77 136.5 83.56 C131.47 75.02 125.96 69.62 117.12 65.12 C116.48 64.79 115.84 64.46 115.19 64.11 C109.64 61.25 104 58.62 98.34 56 C92.99 53.51 87.78 50.81 82.59 48 C72.79 42.7 62.79 37.81 52.69 33.12 C44.09 29.12 35.72 24.73 27.36 20.26 C25.01 19.01 22.66 17.77 20.3 16.54 C19.55 16.14 18.79 15.75 18.01 15.34 C16.6 14.6 15.19 13.87 13.78 13.13 C10.32 11.31 6.91 9.41 3.54 7.41 C2.54 6.82 2.54 6.82 1.52 6.22 C0 5 0 5 -0.5 2.19 C-0.34 1.47 -0.17 0.74 0 0 Z " fill="#1C1E27" transform="translate(42,136)"/><path d="M0 0 C0.33 0 0.66 0 1 0 C1 5.94 1 11.88 1 18 C2.36 17.99 3.72 17.98 5.12 17.96 C6.89 17.96 8.67 17.95 10.44 17.94 C11.34 17.93 12.23 17.92 13.16 17.91 C14.01 17.91 14.87 17.91 15.75 17.9 C16.54 17.9 17.33 17.89 18.14 17.89 C20 18 20 18 21 19 C21.09 20.71 21.11 22.42 21.1 24.13 C21.09 25.16 21.09 26.2 21.09 27.26 C21.08 28.9 21.08 28.9 21.06 30.56 C21.06 31.65 21.05 32.75 21.05 33.87 C21.04 36.58 21.02 39.29 21 42 C15.18 42.03 9.36 42.04 3.54 42.05 C1.56 42.06 -0.43 42.07 -2.41 42.08 C-5.25 42.09 -8.09 42.09 -10.93 42.1 C-12.27 42.11 -12.27 42.11 -13.64 42.11 C-14.46 42.11 -15.28 42.11 -16.12 42.11 C-16.85 42.12 -17.58 42.12 -18.32 42.12 C-20 42 -20 42 -21 41 C-21.25 37.53 -21.19 34.04 -21.19 30.56 C-21.2 29.58 -21.21 28.6 -21.22 27.59 C-21.23 26.19 -21.23 26.19 -21.23 24.75 C-21.23 23.89 -21.24 23.03 -21.24 22.14 C-21 20 -21 20 -19 18 C-17.03 17.77 -17.03 17.77 -14.65 17.8 C-13.8 17.81 -12.95 17.82 -12.07 17.82 C-10.74 17.85 -10.74 17.85 -9.38 17.88 C-8.03 17.89 -8.03 17.89 -6.66 17.9 C-4.44 17.93 -2.22 17.96 0 18 C0 12.06 0 6.12 0 0 Z " fill="#FD12FE" transform="translate(39,147)"/><path d="M0 0 C0.69 2.49 1 4.38 1 7 C8.03 7.75 14.93 8.14 22 8 C22.5 8.99 22.5 8.99 23 10 C23.33 9.34 23.66 8.68 24 8 C24.66 8 25.32 8 26 8 C26 9.98 26 11.96 26 14 C22.59 14.78 19.49 15.1 16 15 C15.81 15.96 15.81 15.96 15.62 16.94 C15.42 17.62 15.21 18.3 15 19 C14.01 19.5 14.01 19.5 13 20 C13.66 20.66 14.32 21.32 15 22 C13.35 22 11.7 22 10 22 C10 21.34 10 20.68 10 20 C9.61 20.33 9.22 20.65 8.82 20.99 C6.39 22.34 4.58 22.2 1.81 22.12 C0.91 22.11 0.01 22.09 -0.92 22.07 C-1.61 22.05 -2.29 22.02 -3 22 C-3.33 21.34 -3.66 20.68 -4 20 C-4.33 20.66 -4.66 21.32 -5 22 C-6.29 22.08 -7.58 22.14 -8.88 22.19 C-9.95 22.24 -9.95 22.24 -11.05 22.29 C-13 22 -13 22 -14.26 20.49 C-14.5 20 -14.75 19.51 -15 19 C-15.66 19.33 -16.32 19.66 -17 20 C-16.34 20.66 -15.68 21.32 -15 22 C-16.65 22 -18.3 22 -20 22 C-20 21.01 -20 20.02 -20 19 C-19.34 18.67 -18.68 18.34 -18 18 C-18.66 17.67 -19.32 17.34 -20 17 C-20 16.34 -20 15.68 -20 15 C-21.66 14.62 -23.32 14.29 -25 14 C-25.33 14.33 -25.66 14.66 -26 15 C-27.67 15.04 -29.33 15.04 -31 15 C-31 12.69 -31 10.38 -31 8 C-24.67 8 -18.33 8 -12 8 C-12 5.69 -12 3.38 -12 1 C-7.94 0.36 -4.12 -0.12 0 0 Z " fill="#22C212" transform="translate(311,250)"/><path d="M0 0 C3.08 1.31 6.1 2.72 9.11 4.19 C10.65 4.9 10.65 4.9 12.21 5.62 C29.68 13.87 43.02 23.32 50.24 41.9 C52.31 48.87 52.91 56.17 53.74 63.37 C53.95 65.11 54.16 66.85 54.37 68.59 C54.9 72.93 55.4 77.28 55.9 81.62 C56.16 83.91 56.43 86.2 56.69 88.48 C57.07 91.77 57.44 95.05 57.8 98.33 C57.98 100.05 58.17 101.78 58.37 103.5 C59.18 111.38 59.3 119.15 59.18 127.06 C56.81 123.28 56.64 119.56 56.28 115.22 C56.13 113.6 55.98 111.98 55.83 110.36 C55.76 109.51 55.68 108.65 55.6 107.78 C54.32 93.53 52.85 79.31 50.99 65.13 C50.78 63.56 50.58 61.99 50.39 60.42 C48.3 43.79 43.88 28.95 30.18 18.06 C23.57 14 16.53 10.68 9.55 7.31 C8.55 6.82 7.56 6.32 6.53 5.81 C-1.61 1.57 -1.61 1.57 -10.5 1.54 C-12.89 2.58 -14.59 3.76 -16.2 5.81 C-17.08 8.97 -17.54 11.85 -16.82 15.06 C-14.75 18.18 -12.4 19.87 -8.82 21.06 C-7.63 21.16 -6.44 21.22 -5.24 21.24 C-4.56 21.26 -3.87 21.28 -3.16 21.31 C-1.74 21.35 -0.32 21.38 1.11 21.4 C6.31 21.61 9.21 22.62 13.18 26.06 C15.11 29.51 15.5 32.58 15.55 36.5 C15.58 37.4 15.61 38.31 15.64 39.24 C14.64 45.35 9.64 50.03 5.68 54.56 C4.61 55.8 3.54 57.03 2.47 58.27 C1.93 58.9 1.38 59.52 0.82 60.17 C-1.8 63.19 -4.41 66.22 -7.01 69.25 C-7.51 69.83 -8.01 70.41 -8.52 71.01 C-11.57 74.57 -14.56 78.17 -17.51 81.81 C-21.77 87.06 -26.25 92.08 -30.82 97.06 C-31.48 96.73 -32.14 96.4 -32.82 96.06 C-32.49 95.67 -32.15 95.29 -31.8 94.89 C-25.47 87.6 -19.15 80.3 -12.93 72.91 C-10.03 69.48 -7.12 66.08 -4.19 62.68 C7.37 50.91 7.37 50.91 12.49 36.25 C12.53 35.21 12.56 34.17 12.6 33.1 C12.06 29.21 11.12 27.66 8.18 25.06 C5.57 24.6 3.52 24.41 0.93 24.44 C-6.33 24.21 -12.52 23.81 -17.82 18.31 C-19.86 15.52 -20.52 13.24 -20.25 9.8 C-19.27 5.83 -16.81 3.16 -14.14 0.19 C-9.54 -2.05 -4.78 -1.59 0 0 Z " fill="#0390B9" transform="translate(324.822509765625,47.93896484375)"/><path d="M0 0 C3.51 0.97 6.33 2.12 9.38 4.12 C13.91 7.07 18.68 9.39 23.52 11.78 C28.55 14.26 33.5 16.85 38.44 19.5 C44.77 22.89 51.18 26.03 57.69 29.05 C68.4 34.03 78.9 39.37 89.28 45 C93.97 47.51 98.74 49.78 103.56 52 C119.07 59.22 129.87 65.45 138.62 80.77 C140.98 84.6 144.03 87.8 148 90 C153.36 90.89 157.7 90.24 162.23 87.29 C164.95 85.31 167.65 83.33 170.3 81.27 C175.26 77.56 182.09 78.17 188 79 C191.92 80.04 195.7 81.45 199.5 82.85 C205.55 85.03 210.54 85.77 217 85 C214.52 87.88 214.52 87.88 212.27 88.4 C206.13 88.32 200.72 86.77 195.18 84.13 C190.6 82.05 186.34 81.66 181.38 81.56 C180.74 81.54 180.11 81.52 179.45 81.5 C174.53 81.52 171.81 83.01 168 86 C166.44 87.06 164.88 88.13 163.31 89.19 C162.57 89.7 161.82 90.21 161.05 90.73 C157.21 93.11 153.42 93.64 149 93 C142.08 90.51 137.75 85.04 134.13 78.87 C133.8 78.3 133.46 77.74 133.12 77.16 C132.48 76.05 131.85 74.93 131.24 73.8 C126.7 65.86 118.39 61.9 110.44 58.01 C109.52 57.55 108.6 57.09 107.65 56.62 C104.62 55.11 101.59 53.61 98.55 52.12 C96.42 51.06 94.29 50 92.16 48.93 C87.11 46.42 82.07 43.92 77.02 41.42 C68.05 36.98 59.08 32.53 50.11 28.07 C46.49 26.27 42.86 24.47 39.23 22.68 C25.97 16.1 12.94 9.19 0 2 C0 1.34 0 0.68 0 0 Z " fill="#3AA992" transform="translate(43,142)"/><path d="M0 0 C3.46 2.08 6.69 4.5 9.94 6.89 C11.55 8.07 13.16 9.24 14.77 10.42 C15.59 11.01 16.4 11.61 17.25 12.23 C21.05 15.01 24.87 17.76 28.69 20.52 C30.19 21.6 31.69 22.68 33.19 23.77 C33.93 24.3 34.67 24.84 35.44 25.39 C37.69 27.02 39.94 28.64 42.19 30.27 C42.93 30.8 43.68 31.34 44.44 31.89 C45.94 32.97 47.43 34.05 48.92 35.13 C53.55 38.47 58.17 41.81 62.8 45.15 C64.33 46.26 65.87 47.37 67.4 48.48 C70.63 50.82 73.86 53.15 77.16 55.4 C77.67 55.75 78.18 56.11 78.7 56.47 C80 57.37 81.31 58.25 82.62 59.14 C86.01 62.21 87.48 64.95 87.94 69.43 C88.02 72.26 88 75.06 87.94 77.89 C87.93 79.32 87.93 79.32 87.92 80.79 C87.87 85.62 87.58 90.31 86.91 95.09 C86.51 98.56 86.59 102.03 86.63 105.52 C86.63 106.24 86.64 106.97 86.64 107.72 C86.65 109.49 86.67 111.25 86.69 113.02 C86.03 112.69 85.37 112.36 84.69 112.02 C82.48 104.96 83.72 97.38 84.69 90.2 C86.84 75.51 86.84 75.51 81.69 62.02 C79.65 59.96 77.41 58.37 75 56.77 C74.35 56.31 73.69 55.85 73.01 55.37 C71.62 54.4 70.22 53.43 68.82 52.47 C65.33 50.09 61.89 47.64 58.44 45.2 C57.74 44.71 57.03 44.22 56.31 43.71 C50.9 39.9 45.57 36.01 40.25 32.08 C31.11 25.32 21.94 18.62 12.69 12.02 C11.94 11.48 11.2 10.95 10.43 10.4 C8.25 8.85 6.07 7.3 3.88 5.77 C3.23 5.3 2.57 4.83 1.9 4.35 C-2.34 1.41 -5.5 -0.29 -10.82 0.29 C-20.41 2.71 -28.57 7.78 -34.31 16.02 C-34.63 19.08 -34.63 19.08 -33.31 22.02 C-31.81 23.37 -30.24 24.53 -28.61 25.72 C-27.31 27.02 -27.31 27.02 -26.94 30.33 C-27.06 31.22 -27.18 32.1 -27.31 33.02 C-28.63 33.68 -29.95 34.34 -31.31 35.02 C-30.96 34.6 -30.61 34.19 -30.25 33.77 C-29.11 32.06 -29.11 32.06 -29.56 30.08 C-30.44 27.67 -31.39 26.86 -33.37 25.27 C-35.73 22.99 -36.86 21.44 -37.19 18.14 C-36.8 13.4 -34 10.9 -30.6 7.84 C-27.32 5.23 -24.01 2.99 -20.31 1.02 C-19.45 0.54 -19.45 0.54 -18.57 0.05 C-12.43 -3 -6.1 -3.26 0 0 Z " fill="#46464D" transform="translate(113.310302734375,15.98291015625)"/><path d="M0 0 C0.69 2.49 1 4.38 1 7 C3.97 7.33 6.94 7.66 10 8 C10 10.31 10 12.62 10 15 C9.34 14.67 8.68 14.34 8 14 C8 12.68 8 11.36 8 10 C7.34 10 6.68 10 6 10 C5.67 11.65 5.34 13.3 5 15 C4.67 15 4.34 15 4 15 C4 13.35 4 11.7 4 10 C1.69 10 -0.62 10 -3 10 C-3 10.99 -3 11.98 -3 13 C-1.68 13 -0.36 13 1 13 C1 13.66 1 14.32 1 15 C0.2 14.81 -0.61 14.63 -1.44 14.44 C-2.28 14.29 -3.13 14.15 -4 14 C-4.33 14.33 -4.66 14.66 -5 15 C-7 15.04 -9 15.04 -11 15 C-11 13.35 -11 11.7 -11 10 C-11.99 10 -12.98 10 -14 10 C-14 11.65 -14 13.3 -14 15 C-14.66 14.67 -15.32 14.34 -16 14 C-16 12.68 -16 11.36 -16 10 C-16.99 10.33 -17.98 10.66 -19 11 C-18.67 11.99 -18.34 12.98 -18 14 C-19 15 -19 15 -21.44 15.06 C-22.71 15.03 -22.71 15.03 -24 15 C-24.66 15 -25.32 15 -26 15 C-27.67 15 -29.33 15 -31 15 C-31 12.69 -31 10.38 -31 8 C-24.67 8 -18.33 8 -12 8 C-12 5.69 -12 3.38 -12 1 C-7.94 0.36 -4.12 -0.12 0 0 Z " fill="#2DC51E" transform="translate(311,250)"/><path d="M0 0 C0.66 0.66 1.32 1.32 2 2 C-1.67 7.45 -5.23 12.47 -10 17 C-11.49 18.68 -12.94 20.39 -14.39 22.11 C-16.1 24.12 -17.86 26.09 -19.62 28.06 C-21.64 30.35 -23.49 32.61 -25.12 35.19 C-26.76 37.64 -28.44 39.54 -30.56 41.57 C-33.55 44.55 -36.25 47.8 -39 51 C-39.99 50.34 -40.98 49.68 -42 49 C-41.56 48.58 -41.13 48.17 -40.68 47.74 C-38.97 45.97 -37.57 44.13 -36.12 42.12 C-34.35 39.72 -32.59 37.46 -30.44 35.38 C-27.73 32.74 -25.38 29.93 -23 27 C-22.17 26 -21.33 25 -20.5 24 C-19.21 22.46 -17.93 20.91 -16.64 19.36 C-16.2 18.83 -15.77 18.3 -15.31 17.75 C-14.92 17.27 -14.52 16.79 -14.11 16.3 C-13.13 15.15 -12.07 14.07 -11 13 C-10.05 11.74 -9.11 10.47 -8.19 9.19 C-5.68 5.81 -3.06 2.88 0 0 Z " fill="#B0E4AC" transform="translate(307,143)"/><path d="M0 0 C6.93 0 13.86 0 21 0 C21 1.98 21 3.96 21 6 C20.34 6 19.68 6 19 6 C19 4.68 19 3.36 19 2 C18.01 2 17.02 2 16 2 C15.67 3.32 15.34 4.64 15 6 C15 4.68 15 3.36 15 2 C12.69 2 10.38 2 8 2 C8 2.99 8 3.98 8 5 C9.32 5 10.64 5 12 5 C12 5.66 12 6.32 12 7 C10.68 7.33 9.36 7.66 8 8 C8.33 8.66 8.66 9.32 9 10 C9.66 9.34 10.32 8.68 11 8 C11 9.98 11 11.96 11 14 C10.01 14 9.02 14 8 14 C7.67 13.34 7.34 12.68 7 12 C6.67 12.66 6.34 13.32 6 14 C3.36 14 0.72 14 -2 14 C-2.38 12.34 -2.71 10.68 -3 9 C-2.67 8.67 -2.34 8.34 -2 8 C0.36 8.18 2.66 8.62 5 9 C5 8.34 5 7.68 5 7 C3.35 7 1.7 7 0 7 C0 4.69 0 2.38 0 0 Z " fill="#5DD053" transform="translate(240,105)"/><path d="M0 0 C-1.53 4.02 -4.29 6.17 -7.62 8.69 C-8.47 9.33 -8.47 9.33 -9.34 9.99 C-15.03 14.23 -21.13 17.64 -27.37 20.99 C-35.68 25.27 -35.68 25.27 -40.55 32.83 C-41.68 38.29 -42.01 43.94 -39.38 49 C-35.14 55.07 -28.08 58.98 -22 63 C-22.99 63.5 -22.99 63.5 -24 64 C-32.23 59.97 -39.22 54.33 -43.5 46.12 C-44.57 39.43 -43.87 32.68 -40 27 C-35.58 21.91 -29.74 19.2 -23.85 16.18 C-16.53 12.36 -9.57 7.67 -3.79 1.73 C-2 0 -2 0 0 0 Z " fill="#6DC067" transform="translate(58,74)"/><path d="M0 0 C0.99 0.33 1.98 0.66 3 1 C2.44 4.44 1.51 5.73 -1.25 7.81 C-4.44 10.39 -6.62 13.03 -8.89 16.41 C-10.36 18.52 -12.19 20.19 -14 22 C-14.83 23.13 -15.64 24.28 -16.44 25.44 C-18.29 28.1 -20.25 30.37 -22.61 32.61 C-25.03 35.02 -27.22 37.64 -29.45 40.23 C-30.59 41.53 -31.78 42.78 -33 44 C-33.66 43.34 -34.32 42.68 -35 42 C-32.71 38.35 -30.48 35.33 -27.34 32.34 C-25.29 30.3 -23.46 28.09 -21.6 25.88 C-19.94 23.93 -18.25 21.99 -16.56 20.06 C-15.98 19.39 -15.39 18.72 -14.79 18.04 C-13.6 16.68 -12.41 15.34 -11.21 14 C-7.22 9.5 -3.53 4.86 0 0 Z " fill="#AEE2AC" transform="translate(343,100)"/><path d="M0 0 C3.75 2.26 7.27 4.85 10.81 7.43 C11.6 7.99 12.39 8.56 13.2 9.14 C17.41 12.18 21.21 15.25 24.75 19.05 C21.29 17.79 18.51 16.35 15.57 14.15 C14.8 13.59 14.04 13.03 13.25 12.45 C12.47 11.87 11.68 11.28 10.87 10.68 C2.24 3.42 2.24 3.42 -8.03 -0.08 C-17.89 2.07 -26.48 6.36 -33.25 14.05 C-34.81 17.06 -34.81 17.06 -34.25 20.05 C-32.83 22.05 -31.15 23.51 -29.25 25.05 C-27.25 27.05 -27.25 27.05 -27.13 30.18 C-27.17 31.13 -27.21 32.07 -27.25 33.05 C-28.57 33.71 -29.89 34.37 -31.25 35.05 C-30.9 34.64 -30.55 34.23 -30.19 33.8 C-29.06 32.09 -29.06 32.09 -29.5 30.11 C-30.38 27.7 -31.33 26.89 -33.32 25.3 C-35.67 23.02 -36.8 21.47 -37.13 18.18 C-36.75 13.43 -33.94 10.94 -30.54 7.87 C-27.26 5.26 -23.95 3.03 -20.25 1.05 C-19.39 0.57 -19.39 0.57 -18.51 0.08 C-12.42 -2.95 -6.07 -3.24 0 0 Z " fill="#6FBC6A" transform="translate(113.253173828125,15.94775390625)"/><path d="M0 0 C0.33 0 0.66 0 1 0 C5.91 37.24 5.91 37.24 7.62 53.28 C7.81 55 8 56.72 8.19 58.43 C9 66.32 9.13 74.09 9 82 C6.59 78.18 6.44 74.34 6.07 69.95 C6 69.15 5.92 68.35 5.84 67.53 C5.68 65.81 5.52 64.09 5.37 62.37 C4.96 57.84 4.53 53.32 4.09 48.8 C4 47.89 3.91 46.98 3.82 46.04 C3.25 40.24 2.59 34.47 1.82 28.7 C1.72 27.99 1.63 27.28 1.53 26.55 C1.08 23.23 0.61 19.92 0.13 16.61 C-0.68 10.86 -1.3 5.72 0 0 Z " fill="#048CB3" transform="translate(375,93)"/><path d="M0 0 C0.99 0.33 1.98 0.66 3 1 C2.31 1.74 1.62 2.48 0.91 3.24 C-4.46 9.02 -9.61 14.89 -14.57 21.03 C-17.94 25.18 -21.46 29.19 -24.97 33.22 C-27.78 36.44 -30.57 39.66 -33.32 42.93 C-33.86 43.56 -34.39 44.19 -34.94 44.84 C-35.95 46.04 -36.95 47.23 -37.95 48.43 C-40.73 51.71 -43.44 54.56 -47 57 C-47.99 57 -48.98 57 -50 57 C-50 56.34 -50 55.68 -50 55 C-48.65 54.41 -48.65 54.41 -47.27 53.82 C-43.89 52.12 -41.99 49.96 -39.69 46.94 C-38.91 45.94 -38.13 44.95 -37.36 43.96 C-36.97 43.47 -36.58 42.97 -36.17 42.46 C-34.37 40.22 -32.44 38.12 -30.5 36 C-27.09 32.25 -23.85 28.41 -20.67 24.47 C-16.73 19.62 -12.63 14.92 -8.52 10.21 C-5.6 6.87 -2.74 3.49 0 0 Z " fill="#47484F" transform="translate(291,145)"/><path d="M0 0 C8.33 0 16.67 0 25 0 C24.01 0.33 23.02 0.66 22 1 C22 1.66 22 2.32 22 3 C22.99 3.33 23.98 3.66 25 4 C25.33 4.99 25.66 5.98 26 7 C24.02 7 22.04 7 20 7 C20 5.35 20 3.7 20 2 C19.01 2 18.02 2 17 2 C17 3.65 17 5.3 17 7 C16.34 6.67 15.68 6.34 15 6 C15 4.68 15 3.36 15 2 C14.01 2.33 13.02 2.66 12 3 C12.33 3.99 12.66 4.98 13 6 C12 7 12 7 9.56 7.06 C8.29 7.03 8.29 7.03 7 7 C6.34 7 5.68 7 5 7 C3.33 7 1.67 7 0 7 C0 4.69 0 2.38 0 0 Z " fill="#C5EBC3" transform="translate(280,258)"/><path d="M0 0 C5.61 0 11.22 0 17 0 C17.33 0.66 17.66 1.32 18 2 C18.33 1.34 18.66 0.68 19 0 C21.64 0 24.28 0 27 0 C27 1.98 27 3.96 27 6 C23.7 6 20.4 6 17 6 C16.67 5.34 16.34 4.68 16 4 C15.67 4.66 15.34 5.32 15 6 C13.71 6.08 12.42 6.14 11.12 6.19 C10.41 6.22 9.69 6.26 8.95 6.29 C7 6 7 6 5.74 4.49 C5.5 4 5.25 3.51 5 3 C4.01 3.5 4.01 3.5 3 4 C3.66 4.66 4.32 5.32 5 6 C3.35 6 1.7 6 0 6 C0 5.01 0 4.02 0 3 C0.66 2.67 1.32 2.34 2 2 C1.34 1.34 0.68 0.68 0 0 Z " fill="#BCE9BA" transform="translate(291,266)"/><path d="M0 0 C5.82 2.34 10.93 5.1 16.05 8.73 C18.07 10.17 18.07 10.17 21 11 C21.66 11.66 22.32 12.32 23 13 C24.25 13.68 25.53 14.32 26.81 14.94 C29.98 16.48 33.01 18.13 36 20 C35.5 21.49 35.5 21.49 35 23 C32.13 22.43 31.14 22.14 29 20 C26.44 18.36 23.85 16.92 21.12 15.56 C18.21 14.1 15.42 12.53 12.61 10.87 C10.83 9.85 10.83 9.85 8 9 C8 8.34 8 7.68 8 7 C7.01 7 6.02 7 5 7 C4.34 6.34 3.68 5.68 3 5 C1.68 4.3 0.35 3.63 -1 3 C-0.67 2.01 -0.34 1.02 0 0 Z " fill="#BCE8B9" transform="translate(39,125)"/><path d="M0 0 C3.96 0 7.92 0 12 0 C12 0.66 12 1.32 12 2 C11.34 2 10.68 2 10 2 C9.83 3.44 9.67 4.87 9.5 6.31 C9.41 7.11 9.31 7.91 9.22 8.74 C8.95 11.12 8.95 11.12 9 14 C7.35 14 5.7 14 4 14 C4.66 12.68 5.32 11.36 6 10 C5.34 9.67 4.68 9.34 4 9 C4 8.34 4 7.68 4 7 C2.68 7 1.36 7 0 7 C0 4.69 0 2.38 0 0 Z " fill="#3AC72C" transform="translate(227,105)"/><path d="M0 0 C0.33 1.32 0.66 2.64 1 4 C-0.44 4.17 -1.87 4.33 -3.31 4.5 C-4.11 4.59 -4.91 4.69 -5.74 4.78 C-8.89 5.09 -10.96 5.01 -14 4 C-14 4.66 -14 5.32 -14 6 C-13.34 6.33 -12.68 6.66 -12 7 C-17.44 7.99 -17.44 7.99 -23 9 C-23.33 7.68 -23.66 6.36 -24 5 C-20.22 2.74 -16.28 2.13 -12 1.38 C-11.29 1.24 -10.58 1.11 -9.84 0.97 C-6.5 0.36 -3.41 -0.07 0 0 Z " fill="#0582A7" transform="translate(348,208)"/><path d="M0 0 C0.69 0.19 1.38 0.39 2.09 0.59 C7.38 2.05 12.66 3.43 18.03 4.57 C20.03 5.01 22.01 5.49 24 6 C24 7.32 24 8.64 24 10 C23.22 9.81 22.43 9.63 21.62 9.44 C19.03 8.74 19.03 8.74 17 10 C16.01 9.01 15.02 8.02 14 7 C13.34 7.66 12.68 8.32 12 9 C12 7.68 12 6.36 12 5 C11.01 5.33 10.02 5.66 9 6 C9.33 6.66 9.66 7.32 10 8 C8.35 7.55 6.71 7.09 5.06 6.62 C4.15 6.37 3.23 6.11 2.29 5.85 C0 5 0 5 -1 3 C-0.67 2.01 -0.34 1.02 0 0 Z " fill="#3D3D44" transform="translate(211,193)"/><path d="M0 0 C3.38 1.4 5.28 2.73 7 6 C7.24 8.69 7.18 11.31 7 14 C-1.14 17.84 -9.56 20.89 -18 24 C-18.15 27.63 -18.15 27.63 -17 31 C-18.32 30.34 -19.64 29.68 -21 29 C-21.31 26.75 -21.31 26.75 -21 24 C-16.14 18.95 -9.48 17.64 -2.95 15.64 C-2.08 15.36 -1.2 15.07 -0.3 14.78 C0.5 14.53 1.3 14.29 2.13 14.03 C4.17 13.15 4.17 13.15 4.85 11.04 C5.07 8.01 3.67 6.47 2 4 C1.32 2.67 0.65 1.34 0 0 Z " fill="#494951" transform="translate(225,163)"/><path d="M0 0 C3.3 0 6.6 0 10 0 C10.33 0.66 10.66 1.32 11 2 C11.33 1.34 11.66 0.68 12 0 C12.66 0 13.32 0 14 0 C14 1.98 14 3.96 14 6 C9.76 7.06 5.35 7.57 1 7 C0.34 6.34 -0.32 5.68 -1 5 C-0.62 2.38 -0.62 2.38 0 0 Z " fill="#B1E6AD" transform="translate(323,258)"/><path d="M0 0 C2.19 2.19 2.28 3.11 3 6 C3.66 6.66 4.32 7.32 5 8 C5 8.99 5 9.98 5 11 C4.01 11.5 4.01 11.5 3 12 C3.66 12.66 4.32 13.32 5 14 C3.35 14 1.7 14 0 14 C0 13.34 0 12.68 0 12 C-2.31 12.33 -4.62 12.66 -7 13 C-5.68 12.67 -4.36 12.34 -3 12 C-3 11.34 -3 10.68 -3 10 C-3.99 9.67 -4.98 9.34 -6 9 C-6.66 8.34 -7.32 7.68 -8 7 C-7.62 4.38 -7.62 4.38 -7 2 C-6.34 3.32 -5.68 4.64 -5 6 C-4.67 4.68 -4.34 3.36 -4 2 C-3.34 2 -2.68 2 -2 2 C-1.67 3.32 -1.34 4.64 -1 6 C-0.67 4.02 -0.34 2.04 0 0 Z " fill="#5DD152" transform="translate(321,258)"/><path d="M0 0 C0.33 0 0.66 0 1 0 C1 1.65 1 3.3 1 5 C1.66 5 2.32 5 3 5 C3 3.35 3 1.7 3 0 C5.97 0 8.94 0 12 0 C11.39 6.55 11.39 6.55 9.75 8.44 C7.33 9.22 5.53 9.32 3 9 C1.19 7.88 1.19 7.88 0 6 C-0.19 2.81 -0.19 2.81 0 0 Z " fill="#2D2D36" transform="translate(187,242)"/><path d="M0 0 C0.33 0 0.66 0 1 0 C2.03 15.75 2.03 15.75 -1.5 20.69 C-7.81 27.37 -16.09 31.04 -25 33 C-27.36 32.6 -27.36 32.6 -29 32 C-25.64 30.52 -22.32 29.11 -18.85 27.9 C-11.3 25.25 -5.42 22.84 -1.69 15.38 C-0.65 10.29 -0.32 5.17 0 0 Z " fill="#0392BB" transform="translate(384,175)"/><path d="M0 0 C2.31 0 4.62 0 7 0 C8.69 3.93 10 7.68 10 12 C6.36 12.33 4.62 12.49 1.69 10.19 C0 8 0 8 -1 5 C0.65 5 2.3 5 4 5 C4 4.34 4 3.68 4 3 C2.68 3 1.36 3 0 3 C0 2.01 0 1.02 0 0 Z " fill="#41C934" transform="translate(248,107)"/><path d="M0 0 C0.8 0.41 1.61 0.82 2.44 1.25 C5.11 2.59 7.82 3.81 10.56 5 C13.88 6.45 16.91 8.11 20 10 C21.65 10.7 23.32 11.37 25 12 C24.01 13.49 24.01 13.49 23 15 C22.53 14.8 22.06 14.59 21.57 14.38 C20.95 14.11 20.33 13.84 19.69 13.56 C19.07 13.3 18.46 13.03 17.82 12.75 C16.24 12.1 14.62 11.54 13 11 C12.34 10.34 11.68 9.68 11 9 C9.54 8.29 8.06 7.63 6.56 7 C3.85 5.86 1.39 4.72 -1 3 C-0.67 2.01 -0.34 1.02 0 0 Z " fill="#C1E8BE" transform="translate(105,160)"/><path d="M0 0 C1 3 1 3 0.38 5.38 C-0.95 7.9 -2.36 9.54 -4.43 11.47 C-7.2 14.17 -9.68 17.11 -12.23 20.01 C-13.45 21.38 -14.71 22.71 -16 24 C-16.66 23.34 -17.32 22.68 -18 22 C-15.71 18.36 -13.49 15.34 -10.36 12.35 C-6.56 8.57 -3.13 4.35 0 0 Z " fill="#BAE4BB" transform="translate(326,120)"/><path d="M0 0 C0 8.58 0 17.16 0 26 C-0.33 26 -0.66 26 -1 26 C-1.33 22.7 -1.66 19.4 -2 16 C-4.97 15.67 -7.94 15.34 -11 15 C-11 14.67 -11 14.34 -11 14 C-8.69 13.34 -6.38 12.68 -4 12 C-2.94 8.62 -2.79 7.42 -4.44 4.19 C-4.95 3.47 -5.47 2.74 -6 2 C-1.12 0 -1.12 0 0 0 Z M-8 16 C-4 17 -4 17 -4 17 Z " fill="#E0E0E7" transform="translate(263,232)"/><path d="M0 0 C1.88 1.75 1.88 1.75 3 4 C2.67 5.32 2.34 6.64 2 8 C-1.63 8 -5.26 8 -9 8 C-7.81 2.04 -6.59 -1.15 0 0 Z " fill="#2B2D36" transform="translate(243,185)"/><path d="M0 0 C6.94 0.32 6.94 0.32 8.75 2.12 C9.41 1.47 10.07 0.81 10.75 0.12 C11.08 1.78 11.41 3.42 11.75 5.12 C10.43 5.45 9.11 5.78 7.75 6.12 C7.42 5.47 7.09 4.81 6.75 4.12 C6.42 4.78 6.09 5.44 5.75 6.12 C4.19 6.57 4.19 6.57 2.31 6.81 C1.39 6.94 1.39 6.94 0.44 7.07 C-1.25 7.12 -1.25 7.12 -3.25 6.12 C-3.29 4.46 -3.29 2.79 -3.25 1.12 C-2.25 0.12 -2.25 0.12 0 0 Z " fill="#C6ECC5" transform="translate(265.25,104.875)"/><path d="M0 0 C0.91 0 1.81 0.01 2.75 0.01 C4.11 0 4.11 0 5.5 0 C7.75 0.13 7.75 0.13 8.75 1.13 C8.75 2.78 8.75 4.43 8.75 6.13 C2.81 6.63 2.81 6.63 -3.25 7.13 C-3.25 0.19 -3.25 0.19 0 0 Z " fill="#2B2C35" transform="translate(107.25,-0.1328125)"/><path d="M0 0 C1.37 0.02 1.37 0.02 2.78 0.04 C3.7 0.04 4.62 0.05 5.56 0.06 C6.27 0.07 6.98 0.09 7.71 0.1 C8.04 0.76 8.37 1.42 8.71 2.1 C9.37 1.44 10.03 0.78 10.71 0.1 C10.71 2.08 10.71 4.06 10.71 6.1 C9.72 6.1 8.73 6.1 7.71 6.1 C7.38 5.44 7.05 4.78 6.71 4.1 C6.38 4.76 6.05 5.42 5.71 6.1 C3.07 6.1 0.43 6.1 -2.29 6.1 C-2.67 4.44 -3 2.77 -3.29 1.1 C-2.29 0.1 -2.29 0.1 0 0 Z " fill="#D8F0D7" transform="translate(240.28515625,112.90234375)"/><path d="M0 0 C3.06 0.06 3.54 0.31 6.06 2.38 C6.84 3.37 6.84 3.37 7.62 4.38 C5.5 6.44 5.5 6.44 2.62 8.38 C-0.56 8.06 -0.56 8.06 -3.38 7.38 C-4.37 7.87 -4.37 7.87 -5.38 8.38 C-5.5 5.5 -5.5 5.5 -5.38 2.38 C-3.38 0.38 -3.38 0.38 0 0 Z " fill="#2C2D35" transform="translate(297.375,43.625)"/><path d="M0 0 C6.55 0.61 6.55 0.61 8.5 2.31 C9.15 4.51 8.74 5.86 8 8 C5 8 2 8 -1 8 C-1.12 2.25 -1.12 2.25 0 0 Z " fill="#5F5F67" transform="translate(268,203)"/><path d="M0 0 C1.65 0.33 3.3 0.66 5 1 C4.84 1.68 4.68 2.35 4.52 3.05 C3.92 6.46 3.77 9.81 3.68 13.27 C3.66 13.95 3.64 14.63 3.62 15.33 C3.56 17.49 3.5 19.65 3.44 21.81 C3.39 23.28 3.35 24.75 3.31 26.22 C3.2 29.82 3.1 33.41 3 37 C2.67 37 2.34 37 2 37 C1.98 36.07 1.96 35.14 1.94 34.19 C1.86 30.75 1.78 27.31 1.68 23.87 C1.64 22.38 1.61 20.89 1.58 19.4 C1.53 17.26 1.47 15.12 1.41 12.98 C1.4 12.31 1.39 11.64 1.38 10.95 C1.34 7.04 1.34 7.04 -1 4 C-0.62 1.88 -0.62 1.88 0 0 Z " fill="#1BC20A" transform="translate(261,222)"/><path d="M0 0 C2.51 1.26 2.68 2.18 3.88 4.69 C6.78 10.17 10.75 14.56 14.9 19.13 C15.67 19.99 15.67 19.99 16.45 20.86 C16.92 21.37 17.38 21.88 17.86 22.4 C19.17 24.24 19.59 25.8 20 28 C0.23 8.41 0.23 8.41 -0.12 1.78 C-0.08 1.19 -0.04 0.6 0 0 Z " fill="#47474F" transform="translate(200,129)"/><path d="M0 0 C5.57 0.61 5.57 0.61 7.44 2.31 C8.17 4.52 7.75 5.83 7 8 C4.36 8 1.72 8 -1 8 C-1 4.89 -0.83 2.89 0 0 Z " fill="#35373F" transform="translate(372,63)"/><path d="M0 0 C1.21 0.01 2.41 0.02 3.62 0.04 C4.24 0.04 4.85 0.04 5.49 0.05 C7.01 0.06 8.53 0.08 10.06 0.1 C10.06 2.41 10.06 4.72 10.06 7.1 C9.4 6.77 8.74 6.44 8.06 6.1 C8.06 4.78 8.06 3.46 8.06 2.1 C7.4 2.1 6.74 2.1 6.06 2.1 C5.73 3.75 5.4 5.4 5.06 7.1 C4.73 7.1 4.4 7.1 4.06 7.1 C4.06 5.45 4.06 3.8 4.06 2.1 C1.75 2.1 -0.56 2.1 -2.94 2.1 C-2.94 3.09 -2.94 4.08 -2.94 5.1 C-1.62 5.1 -0.3 5.1 1.06 5.1 C1.06 5.76 1.06 6.42 1.06 7.1 C-0.59 6.77 -2.24 6.44 -3.94 6.1 C-3.98 4.43 -3.98 2.76 -3.94 1.1 C-2.94 0.1 -2.94 0.1 0 0 Z " fill="#C0EABE" transform="translate(310.94140625,257.90234375)"/><path d="M0 0 C3.96 0 7.92 0 12 0 C12 1.98 12 3.96 12 6 C9.62 6.19 9.62 6.19 7 6 C5.69 4.5 5.69 4.5 5 3 C4.01 3.5 4.01 3.5 3 4 C3.66 4.66 4.32 5.32 5 6 C3.35 6 1.7 6 0 6 C0 5.01 0 4.02 0 3 C0.66 2.67 1.32 2.34 2 2 C1.34 1.34 0.68 0.68 0 0 Z " fill="#E3F4E4" transform="translate(291,266)"/><path d="M0 0 C0.66 0 1.32 0 2 0 C2 0.99 2 1.98 2 3 C2.99 2.67 3.98 2.34 5 2 C5.29 2.5 5.58 2.99 5.88 3.5 C6.25 4 6.62 4.49 7 5 C7.66 5 8.32 5 9 5 C9 5.66 9 6.32 9 7 C8.01 7 7.02 7 6 7 C6.33 8.32 6.66 9.64 7 11 C6.34 11 5.68 11 5 11 C5 10.01 5 9.02 5 8 C3.35 8 1.7 8 0 8 C0 7.34 0 6.68 0 6 C-0.99 5.67 -1.98 5.34 -3 5 C-3 4.34 -3 3.68 -3 3 C-2.01 2.67 -1.02 2.34 0 2 C0 1.34 0 0.68 0 0 Z " fill="#7A7B81" transform="translate(145,18)"/><path d="M0 0 C0.78 0.04 1.57 0.08 2.38 0.12 C2.97 2.89 3.38 5.29 3.38 8.12 C1.06 8.12 -1.25 8.12 -3.62 8.12 C-4.62 5.12 -4.62 5.12 -4.62 2.12 C-2.62 0.12 -2.62 0.12 0 0 Z " fill="#24262E" transform="translate(5.625,110.875)"/><path d="M0 0 C0.33 0 0.66 0 1 0 C1.54 3.64 2.05 7.29 2.56 10.94 C2.71 11.96 2.87 12.98 3.02 14.03 C3.87 20.24 4.08 25.81 3 32 C2.67 32 2.34 32 2 32 C1.54 28.25 1.1 24.49 0.66 20.74 C0.51 19.46 0.36 18.19 0.21 16.91 C-0.02 15.07 -0.23 13.23 -0.44 11.39 C-0.57 10.29 -0.7 9.18 -0.84 8.05 C-0.99 5.13 -0.72 2.82 0 0 Z " fill="#0680A5" transform="translate(375,93)"/><path d="M0 0 C4.62 0 9.24 0 14 0 C14 1.98 14 3.96 14 6 C13.34 6 12.68 6 12 6 C12 4.68 12 3.36 12 2 C11.01 2 10.02 2 9 2 C8.67 3.32 8.34 4.64 8 6 C8 4.68 8 3.36 8 2 C5.69 2 3.38 2 1 2 C1 2.99 1 3.98 1 5 C1.99 5.33 2.98 5.66 4 6 C2.35 5.67 0.7 5.34 -1 5 C-0.67 3.35 -0.34 1.7 0 0 Z " fill="#C8ECC6" transform="translate(247,105)"/><path d="M0 0 C0.33 0 0.66 0 1 0 C1.28 1.54 1.52 3.08 1.75 4.62 C1.96 5.91 1.96 5.91 2.17 7.23 C1.94 10.97 0.25 13.16 -2 16 C-2.42 16.53 -2.84 17.06 -3.27 17.6 C-4.58 19.21 -5.91 20.79 -7.25 22.38 C-7.71 22.92 -8.17 23.47 -8.64 24.03 C-9.76 25.35 -10.88 26.68 -12 28 C-12.66 27.34 -13.32 26.68 -14 26 C-13.23 25.18 -12.46 24.36 -11.66 23.52 C-10.65 22.43 -9.64 21.34 -8.62 20.25 C-8.12 19.71 -7.61 19.17 -7.09 18.62 C-2.93 14.14 -0.87 10.98 -0.38 4.75 C-0.3 3.86 -0.23 2.97 -0.15 2.05 C-0.1 1.37 -0.05 0.7 0 0 Z " fill="#0587AE" transform="translate(338,80)"/><path d="M0 0 C0.33 0.66 0.66 1.32 1 2 C1.99 2.33 2.98 2.66 4 3 C1.76 4.57 -0.54 5.81 -3 7 C-2.34 7.33 -1.68 7.66 -1 8 C-5.75 12 -5.75 12 -8 12 C-8.33 10.68 -8.66 9.36 -9 8 C-6.03 5.36 -3.06 2.72 0 0 Z " fill="#4F6A52" transform="translate(70,59)"/><path d="M0 0 C0.66 0.33 1.32 0.66 2 1 C1.56 1.44 1.11 1.87 0.65 2.32 C-3.04 6.12 -3.04 6.12 -4.25 11.12 C-2.78 14.5 -1.19 15.58 1.7 17.7 C3 19 3 19 3.38 22.31 C3.25 23.2 3.13 24.09 3 25 C1.02 25.99 1.02 25.99 -1 27 C-0.65 26.59 -0.3 26.17 0.06 25.75 C1.2 24.04 1.2 24.04 0.75 22.06 C-0.13 19.65 -1.08 18.84 -3.06 17.25 C-5.5 14.92 -6.51 13.4 -6.75 10 C-6.51 6.56 -5.4 4.92 -3 2.5 C-2.02 1.65 -1.02 0.8 0 0 Z " fill="#72C56C" transform="translate(83,24)"/><path d="M0 0 C1.42 0.62 2.83 1.25 4.25 1.88 C5.04 2.22 5.83 2.57 6.64 2.93 C8.79 3.9 10.89 4.95 13 6 C14.25 6.55 15.5 7.09 16.75 7.62 C17.67 8.02 17.67 8.02 18.61 8.41 C19.07 8.61 19.53 8.8 20 9 C19.67 9.99 19.34 10.98 19 12 C17.41 11.4 15.83 10.8 14.25 10.19 C13.37 9.85 12.49 9.51 11.58 9.17 C9.06 8.03 7.18 6.67 5 5 C3.02 4.28 1.02 3.6 -1 3 C-0.67 2.01 -0.34 1.02 0 0 Z " fill="#B1E5AE" transform="translate(76,146)"/><path d="M0 0 C0.66 0 1.32 0 2 0 C2.33 1.32 2.66 2.64 3 4 C5.97 4.5 5.97 4.5 9 5 C9.33 4.01 9.66 3.02 10 2 C10.69 3.81 10.69 3.81 11 6 C9.88 7.75 9.88 7.75 8 9 C5.15 9.43 3.66 9.41 1.19 7.88 C-0.49 5.22 -0.2 3.07 0 0 Z " fill="#1F1F28" transform="translate(218,230)"/><path d="M0 0 C3.63 0 7.26 0 11 0 C10.01 0.33 9.02 0.66 8 1 C8 1.66 8 2.32 8 3 C8.99 3.33 9.98 3.66 11 4 C11.33 4.99 11.66 5.98 12 7 C10.02 7 8.04 7 6 7 C6 5.35 6 3.7 6 2 C5.01 2 4.02 2 3 2 C3 3.65 3 5.3 3 7 C2.34 6.67 1.68 6.34 1 6 C0.38 2.94 0.38 2.94 0 0 Z " fill="#C5EBC3" transform="translate(294,258)"/><path d="M0 0 C3.96 0 7.92 0 12 0 C12 3 12 3 11 6 C9.35 6 7.7 6 6 6 C6 5.01 6 4.02 6 3 C5.67 3.99 5.34 4.98 5 6 C4.34 6 3.68 6 3 6 C2.34 4.35 1.68 2.7 1 1 C1 2.65 1 4.3 1 6 C0.67 6 0.34 6 0 6 C0 4.02 0 2.04 0 0 Z " fill="#CDEDCD" transform="translate(246,98)"/><path d="M0 0 C3.88 0.88 3.88 0.88 5 2 C6.34 2.16 7.69 2.25 9.04 2.32 C9.84 2.36 10.65 2.4 11.49 2.44 C12.34 2.48 13.19 2.52 14.06 2.56 C14.92 2.61 15.77 2.65 16.65 2.69 C18.77 2.8 20.88 2.9 23 3 C23 3.33 23 3.66 23 4 C16.73 4 10.46 4 4 4 C4 4.66 4 5.32 4 6 C2.35 5.67 0.7 5.34 -1 5 C-0.67 3.35 -0.34 1.7 0 0 Z " fill="#19C107" transform="translate(221,157)"/><path d="M0 0 C4.59 1.44 6.89 3.46 10 7 C10.92 9.77 11.12 11.38 11.1 14.23 C11.09 15.03 11.09 15.84 11.09 16.66 C11.08 17.5 11.07 18.33 11.06 19.19 C11.06 20.03 11.05 20.88 11.05 21.75 C11.04 23.83 11.02 25.92 11 28 C10.67 28 10.34 28 10 28 C9.97 27.01 9.95 26.02 9.92 25 C9.58 15.87 8.88 8.82 2.25 2 C1.51 1.34 0.76 0.68 0 0 Z " fill="#4F4F56" transform="translate(190,73)"/><path d="M0 0 C0.66 0.33 1.32 0.66 2 1 C2 1.99 2 2.98 2 4 C3.32 4 4.64 4 6 4 C6 5.32 6 6.64 6 8 C1.54 8.5 1.54 8.5 -3 9 C-3.37 3.46 -3.37 3.46 -1.5 1.12 C-1 0.75 -0.51 0.38 0 0 Z " fill="#303139" transform="translate(160,210)"/><path d="M0 0 C2.51 1.26 2.87 2.5 4 5 C4.33 4.34 4.66 3.68 5 3 C5.99 3 6.98 3 8 3 C8 4.32 8 5.64 8 7 C2.63 7.1 2.63 7.1 1 7 C0.67 6.67 0.34 6.34 0 6 C-0.66 6.66 -1.32 7.32 -2 8 C-2.12 5.12 -2.12 5.12 -2 2 C-1.34 1.34 -0.68 0.68 0 0 Z " fill="#8C8D93" transform="translate(185,124)"/><path d="M0 0 C0.14 0.64 0.29 1.28 0.44 1.94 C0.81 3.98 0.81 3.98 2 5 C2 4.01 2 3.02 2 2 C3.32 2.33 4.64 2.66 6 3 C6 4.65 6 6.3 6 8 C4.35 8.33 2.7 8.66 1 9 C1 8.34 1 7.68 1 7 C0.34 7 -0.32 7 -1 7 C-1 6.34 -1 5.68 -1 5 C-1.66 5 -2.32 5 -3 5 C-3 4.34 -3 3.68 -3 3 C-2.01 3 -1.02 3 0 3 C0 2.01 0 1.02 0 0 Z " fill="#8D8D92" transform="translate(173,39)"/><path d="M0 0 C0.89 0.4 0.89 0.4 1.79 0.8 C5.83 2.61 9.87 4.4 14 6 C13.67 6.99 13.34 7.98 13 9 C9.49 8.35 7.03 6.85 4 5 C2.35 4.3 0.68 3.63 -1 3 C-0.67 2.01 -0.34 1.02 0 0 Z " fill="#ABE3A7" transform="translate(146,181)"/><path d="M0 0 C1.98 0 3.96 0 6 0 C6.38 1.66 6.71 3.32 7 5 C6 6 6 6 3.5 6.12 C1 6 1 6 0 5 C-0.04 3.33 -0.04 1.67 0 0 Z " fill="#C6EBC4" transform="translate(238,98)"/><path d="M0 0 C0.99 0 1.98 0 3 0 C3 1.65 3 3.3 3 5 C4.65 5 6.3 5 8 5 C8 5.66 8 6.32 8 7 C5.69 7 3.38 7 1 7 C1 8.65 1 10.3 1 12 C-0.65 11.67 -2.3 11.34 -4 11 C-3.34 10.34 -2.68 9.68 -2 9 C-1.32 6.8 -1.32 6.8 -0.88 4.38 C-0.71 3.56 -0.54 2.74 -0.37 1.9 C-0.25 1.27 -0.12 0.65 0 0 Z " fill="#29C419" transform="translate(237,107)"/><path d="M0 0 C0.66 0.66 1.32 1.32 2 2 C0.91 3.67 -0.2 5.34 -1.31 7 C-1.93 7.93 -2.54 8.86 -3.18 9.81 C-3.78 10.53 -4.38 11.26 -5 12 C-5.99 12 -6.98 12 -8 12 C-7.41 8.34 -5.92 6.45 -3.44 3.75 C-2.8 3.04 -2.16 2.34 -1.5 1.61 C-0.76 0.81 -0.76 0.81 0 0 Z " fill="#B1E3AE" transform="translate(264,193)"/><path d="M0 0 C-1.56 4.46 -4.97 6.56 -8.62 9.25 C-9.54 9.94 -9.54 9.94 -10.48 10.64 C-11.98 11.77 -13.49 12.88 -15 14 C-15.66 13.34 -16.32 12.68 -17 12 C-16.25 11.47 -15.5 10.94 -14.73 10.39 C-13.74 9.68 -12.74 8.96 -11.75 8.25 C-11.26 7.9 -10.77 7.55 -10.26 7.2 C-7.89 5.48 -5.83 3.83 -3.77 1.73 C-2 0 -2 0 0 0 Z " fill="#6BBD66" transform="translate(58,74)"/><path d="M0 0 C1.65 0 3.3 0 5 0 C5.69 2.49 6 4.38 6 7 C4 7 2 7 0 7 C0 4.69 0 2.38 0 0 Z " fill="#D2EFD2" transform="translate(306,250)"/><path d="M0 0 C0 0.33 0 0.66 0 1 C-0.8 1.03 -1.59 1.05 -2.41 1.08 C-8.88 1.42 -13.02 1.79 -18 6 C-18.99 6.68 -19.99 7.35 -21 8 C-21 5 -21 5 -19.45 3.36 C-12.83 -1.48 -7.93 -1.48 0 0 Z " fill="#067C9F" transform="translate(229,222)"/><path d="M0 0 C1.79 0.03 3.58 0.07 5.37 0.1 C5.37 1.75 5.37 3.4 5.37 5.1 C3.06 5.1 0.75 5.1 -1.63 5.1 C-2.19 3.16 -2.19 3.16 -2.63 1.1 C-1.63 0.1 -1.63 0.1 0 0 Z " fill="#9E9EA3" transform="translate(392.62890625,187.90234375)"/><path d="M0 0 C1.32 0.66 2.64 1.32 4 2 C3.28 2.68 2.56 3.36 1.81 4.06 C-1.22 7.08 -3.61 10.47 -6 14 C-6.66 13.67 -7.32 13.34 -8 13 C-6.62 8.99 -4.72 6.23 -2 3 C-1.32 2.01 -0.64 1.02 0 0 Z " fill="#C3E7C2" transform="translate(286,167)"/><path d="M0 0 C0.66 0.66 1.32 1.32 2 2 C0.91 3.67 -0.2 5.34 -1.31 7 C-1.93 7.93 -2.54 8.86 -3.18 9.81 C-3.78 10.53 -4.38 11.26 -5 12 C-5.99 12 -6.98 12 -8 12 C-7.41 8.34 -5.92 6.45 -3.44 3.75 C-2.8 3.04 -2.16 2.34 -1.5 1.61 C-0.76 0.81 -0.76 0.81 0 0 Z " fill="#BAE7B8" transform="translate(307,143)"/><path d="M0 0 C2.31 0 4.62 0 7 0 C7 1.65 7 3.3 7 5 C4.69 5 2.38 5 0 5 C0 3.35 0 1.7 0 0 Z " fill="#797A80" transform="translate(190,242)"/><path d="M0 0 C1.65 0 3.3 0 5 0 C5.38 1.66 5.71 3.32 6 5 C5 6 5 6 2.44 6.06 C1.23 6.03 1.23 6.03 0 6 C0 4.02 0 2.04 0 0 Z " fill="#B3E7AF" transform="translate(299,251)"/><path d="M0 0 C1.65 0 3.3 0 5 0 C5.38 1.66 5.71 3.32 6 5 C5 6 5 6 2.44 6.06 C1.23 6.03 1.23 6.03 0 6 C0 4.02 0 2.04 0 0 Z " fill="#F6F5FD" transform="translate(49,171)"/><path d="M0 0 C1.45 0.03 1.45 0.03 2.94 0.06 C3.5 2 3.5 2 3.94 4.06 C2.94 5.06 2.94 5.06 -0.12 5.12 C-1.09 5.1 -2.06 5.08 -3.06 5.06 C-3.62 3.12 -3.62 3.12 -4.06 1.06 C-3.06 0.06 -3.06 0.06 0 0 Z " fill="#8A8B91" transform="translate(221.0625,167.9375)"/><path d="M0 0 C5.13 -0.6 5.13 -0.6 7.48 1.01 C10.39 3.85 11.92 6.14 12.1 10.26 C12.09 11.06 12.07 11.86 12.06 12.69 C12.05 13.5 12.04 14.3 12.04 15.14 C12.02 15.75 12.01 16.37 12 17 C11.67 17 11.34 17 11 17 C10.9 16.34 10.8 15.67 10.7 14.99 C9.48 7.65 9.48 7.65 5 2 C2.37 1.12 2.37 1.12 0 1 C0 0.67 0 0.34 0 0 Z " fill="#0299C4" transform="translate(328,71)"/><path d="M0 0 C0.99 0 1.98 0 3 0 C3.33 0.66 3.66 1.32 4 2 C4.33 1.34 4.66 0.68 5 0 C5.66 0 6.32 0 7 0 C7 1.98 7 3.96 7 6 C5.68 6 4.36 6 3 6 C2.67 5.01 2.34 4.02 2 3 C1.34 3.99 0.68 4.98 0 6 C0 4.02 0 2.04 0 0 Z " fill="#D4EFD4" transform="translate(330,258)"/><path d="M0 0 C0.64 0.02 1.28 0.04 1.94 0.06 C2.27 1.71 2.6 3.36 2.94 5.06 C1.29 5.39 -0.36 5.72 -2.06 6.06 C-2.44 4.41 -2.78 2.74 -3.06 1.06 C-2.06 0.06 -2.06 0.06 0 0 Z " fill="#FF01FF" transform="translate(39.0625,136.9375)"/><path d="M0 0 C0.33 1.65 0.66 3.3 1 5 C0.22 4.81 -0.57 4.63 -1.38 4.44 C-3.97 3.74 -3.97 3.74 -6 5 C-6.66 4.34 -7.32 3.68 -8 3 C-5.53 -0.12 -3.89 -0.32 0 0 Z " fill="#37373F" transform="translate(234,198)"/><path d="M0 0 C2.31 0 4.62 0 7 0 C7.33 1.32 7.66 2.64 8 4 C5.36 4 2.72 4 0 4 C0 2.68 0 1.36 0 0 Z " fill="#A2A3A7" transform="translate(237,189)"/><path d="M0 0 C1.44 0.69 1.44 0.69 3 2 C3.69 4.62 3.69 4.62 4 7 C1.69 7 -0.62 7 -3 7 C-1.12 1.12 -1.12 1.12 0 0 Z " fill="#EFE2F6" transform="translate(42,178)"/><path d="M0 0 C1.11 0.71 1.11 0.71 2.25 1.44 C4.64 2.8 6.38 3.37 9 4 C9.66 4.66 10.32 5.32 11 6 C10.34 6.66 9.68 7.32 9 8 C7.68 7.43 6.37 6.85 5.06 6.25 C3.97 5.76 3.97 5.76 2.85 5.27 C1 4 1 4 0.25 1.86 C0.16 1.25 0.08 0.63 0 0 Z " fill="#B2E5AF" transform="translate(130,173)"/><path d="M0 0 C2.64 0 5.28 0 8 0 C8 1.32 8 2.64 8 4 C5.36 4 2.72 4 0 4 C0 2.68 0 1.36 0 0 Z " fill="#B0B1B8" transform="translate(326,80)"/><path d="M0 0 C0.33 0 0.66 0 1 0 C1.08 2.58 1.14 5.17 1.19 7.75 C1.23 8.84 1.23 8.84 1.26 9.96 C1.31 13.47 1.33 15.44 -0.51 18.52 C-1 19.01 -1.49 19.5 -2 20 C-2.66 19.67 -3.32 19.34 -4 19 C-3.53 18.09 -3.05 17.19 -2.56 16.25 C-0.3 11.08 -0.27 5.57 0 0 Z " fill="#0398C2" transform="translate(384,175)"/><path d="M0 0 C2.31 0 4.62 0 7 0 C6.62 1.94 6.62 1.94 6 4 C3.33 5.33 1.83 4.67 -1 4 C-0.67 2.68 -0.34 1.36 0 0 Z " fill="#B0B1B5" transform="translate(295,47)"/><path d="M0 0 C1.98 0 3.96 0 6 0 C6 2 6 4 6 6 C4.02 6 2.04 6 0 6 C0 4.02 0 2.04 0 0 Z " fill="#E7E6ED" transform="translate(42,171)"/><path d="M0 0 C1.65 0 3.3 0 5 0 C5 1.98 5 3.96 5 6 C3.35 6 1.7 6 0 6 C0 4.02 0 2.04 0 0 Z " fill="#E8F5E9" transform="translate(227,105)"/><path d="M0 0 C0.66 0.33 1.32 0.66 2 1 C2 4 2 4 0.69 5.39 C0.13 5.82 -0.43 6.25 -1 6.69 C-1.84 7.34 -1.84 7.34 -2.69 8.01 C-3.12 8.34 -3.55 8.66 -4 9 C-4.66 8.34 -5.32 7.68 -6 7 C-5.57 6.59 -5.13 6.18 -4.69 5.75 C-2.94 3.94 -1.47 2.04 0 0 Z " fill="#C4E5C4" transform="translate(271,185)"/><path d="M0 0 C1.65 0 3.3 0 5 0 C5 1.32 5 2.64 5 4 C4.01 4 3.02 4 2 4 C2 4.66 2 5.32 2 6 C1.34 6 0.68 6 0 6 C0 4.02 0 2.04 0 0 Z " fill="#EEEEF6" transform="translate(47,179)"/><path d="M0 0 C1.98 0 3.96 0 6 0 C6.33 1.32 6.66 2.64 7 4 C4.69 4 2.38 4 0 4 C0 2.68 0 1.36 0 0 Z " fill="#B8B9BE" transform="translate(207,79)"/><path d="M0 0 C1.98 0 3.96 0 6 0 C6 1.65 6 3.3 6 5 C4.02 5 2.04 5 0 5 C0 3.35 0 1.7 0 0 Z " fill="#919197" transform="translate(71,44)"/><path d="M0 0 C1.21 0.03 1.21 0.03 2.44 0.06 C2.77 1.38 3.1 2.7 3.44 4.06 C1.46 4.39 -0.52 4.72 -2.56 5.06 C-3.12 3.12 -3.12 3.12 -3.56 1.06 C-2.56 0.06 -2.56 0.06 0 0 Z " fill="#077A9D" transform="translate(327.5625,211.9375)"/><path d="M0 0 C2.31 0 4.62 0 7 0 C7 1.32 7 2.64 7 4 C4.69 4 2.38 4 0 4 C0 2.68 0 1.36 0 0 Z " fill="#A0A2A6" transform="translate(2,115)"/><path d="M0 0 C1.65 0 3.3 0 5 0 C5 2 5 4 5 6 C3.35 6 1.7 6 0 6 C0 4.02 0 2.04 0 0 Z " fill="#CBEDC9" transform="translate(313,251)"/><path d="M0 0 C0.66 0 1.32 0 2 0 C2 0.99 2 1.98 2 3 C2.66 3 3.32 3 4 3 C3.67 2.01 3.34 1.02 3 0 C3.66 0 4.32 0 5 0 C5.33 1.65 5.66 3.3 6 5 C3.69 5 1.38 5 -1 5 C-0.67 3.35 -0.34 1.7 0 0 Z " fill="#999A9F" transform="translate(252,238)"/><path d="M0 0 C0.6 0.16 1.2 0.33 1.81 0.5 C4.11 1.11 4.11 1.11 7 1 C7 2.33 7 3.67 7 5 C4.69 5 2.38 5 0 5 C0 3.35 0 1.7 0 0 Z " fill="#B0B0B5" transform="translate(220,230)"/><path d="M0 0 C1.65 0 3.3 0 5 0 C5 1.98 5 3.96 5 6 C3.35 6 1.7 6 0 6 C0 4.02 0 2.04 0 0 Z " fill="#F2F1FB" transform="translate(36,171)"/><path d="M0 0 C1.65 0 3.3 0 5 0 C5 1.98 5 3.96 5 6 C3.35 6 1.7 6 0 6 C0 4.02 0 2.04 0 0 Z " fill="#DBF1DB" transform="translate(240,105)"/><path d="M0 0 C2.39 0.58 4.67 1.22 7 2 C7 2.66 7 3.32 7 4 C4.69 4.33 2.38 4.66 0 5 C0 3.35 0 1.7 0 0 Z " fill="#EBE9F6" transform="translate(382,106)"/><path d="M0 0 C0.99 0.33 1.98 0.66 3 1 C2.67 2.32 2.34 3.64 2 5 C1.38 5.14 0.76 5.29 0.12 5.44 C-2.03 5.93 -2.03 5.93 -4 7 C-2.93 4.08 -2.22 2.22 0 0 Z " fill="#D0E8D2" transform="translate(343,100)"/><path d="M0 0 C1.65 0 3.3 0 5 0 C5 1.98 5 3.96 5 6 C3.35 6 1.7 6 0 6 C0 4.02 0 2.04 0 0 Z " fill="#D9F1DA" transform="translate(313,266)"/><path d="M0 0 C0.66 0.66 1.32 1.32 2 2 C1.34 2 0.68 2 0 2 C0 2.66 0 3.32 0 4 C0.66 4.33 1.32 4.66 2 5 C0.35 5.33 -1.3 5.66 -3 6 C-3.33 5.01 -3.66 4.02 -4 3 C-4.66 2.34 -5.32 1.68 -6 1 C-3.12 0.38 -3.12 0.38 0 0 Z " fill="#0A6481" transform="translate(334,210)"/><path d="M0 0 C1.65 0 3.3 0 5 0 C5 1.32 5 2.64 5 4 C3.35 4.66 1.7 5.32 0 6 C0 4.02 0 2.04 0 0 Z " fill="#F6CAFB" transform="translate(30,171)"/><path d="M0 0 C1.65 0 3.3 0 5 0 C5 1.98 5 3.96 5 6 C3.35 6 1.7 6 0 6 C0 4.02 0 2.04 0 0 Z " fill="#D5EFD5" transform="translate(253,113)"/><path d="M0 0 C1.67 -0.04 3.33 -0.04 5 0 C6 1 6 1 6.06 3.56 C6.04 4.37 6.02 5.17 6 6 C5.34 6 4.68 6 4 6 C4 4.68 4 3.36 4 2 C3.01 2 2.02 2 1 2 C0.67 3.32 0.34 4.64 0 6 C0 4.02 0 2.04 0 0 Z " fill="#D2EED2" transform="translate(220,105)"/><path d="M0 0 C5.75 1.75 5.75 1.75 8 4 C7.34 4.66 6.68 5.32 6 6 C3.69 5.01 1.38 4.02 -1 3 C-0.67 2.01 -0.34 1.02 0 0 Z " fill="#B3E5AF" transform="translate(122,169)"/><path d="M0 0 C1.65 0 3.3 0 5 0 C5 1.65 5 3.3 5 5 C3.68 5 2.36 5 1 5 C0.67 3.35 0.34 1.7 0 0 Z " fill="#C6EBC4" transform="translate(280,258)"/><path d="M0 0 C2 0 4 0 6 0 C6 1.32 6 2.64 6 4 C3.69 4 1.38 4 -1 4 C-0.67 2.68 -0.34 1.36 0 0 Z " fill="#B7B8BD" transform="translate(160,214)"/><path d="M0 0 C1.32 0 2.64 0 4 0 C4.33 1.32 4.66 2.64 5 4 C2.36 4 -0.28 4 -3 4 C-3 3.34 -3 2.68 -3 2 C-2.34 2 -1.68 2 -1 2 C-0.67 1.34 -0.34 0.68 0 0 Z " fill="#096F8E" transform="translate(344,208)"/><path d="M0 0 C2.47 0.99 2.47 0.99 5 2 C5 2.66 5 3.32 5 4 C3.35 4.33 1.7 4.66 0 5 C-0.56 3.06 -0.56 3.06 -1 1 C-0.67 0.67 -0.34 0.34 0 0 Z " fill="#A9A9AF" transform="translate(191,187)"/><path d="M0 0 C1.98 0 3.96 0 6 0 C6 1.32 6 2.64 6 4 C4.02 4 2.04 4 0 4 C0 2.68 0 1.36 0 0 Z " fill="#BCBEC0" transform="translate(107,2)"/><path d="M0 0 C1.65 0 3.3 0 5 0 C4.81 0.62 4.63 1.24 4.44 1.88 C3.76 4.04 3.76 4.04 5 6 C3.35 6 1.7 6 0 6 C0.66 4.68 1.32 3.36 2 2 C1.34 1.34 0.68 0.68 0 0 Z " fill="#DCF1DD" transform="translate(231,113)"/><path d="M0 0 C1.98 0 3.96 0 6 0 C6 0.66 6 1.32 6 2 C5.34 2 4.68 2 4 2 C4 3.32 4 4.64 4 6 C3.34 6 2.68 6 2 6 C2 4.68 2 3.36 2 2 C1.34 2 0.68 2 0 2 C0 1.34 0 0.68 0 0 Z " fill="#CAECC9" transform="translate(233,105)"/><path d="M0 0 C0.66 0 1.32 0 2 0 C2 0.99 2 1.98 2 3 C2.99 2.67 3.98 2.34 5 2 C5.33 2.66 5.66 3.32 6 4 C3.36 4.66 0.72 5.32 -2 6 C-2.33 5.01 -2.66 4.02 -3 3 C-2.01 2.67 -1.02 2.34 0 2 C0 1.34 0 0.68 0 0 Z " fill="#3D3F47" transform="translate(145,18)"/><path d="M0 0 C0.66 0.66 1.32 1.32 2 2 C0.35 3.65 -1.3 5.3 -3 7 C-3.66 6.34 -4.32 5.68 -5 5 C-3.33 3.33 -1.67 1.67 0 0 Z " fill="#AAE1A8" transform="translate(298,154)"/><path d="M0 0 C0.99 0 1.98 0 3 0 C3.33 0.99 3.66 1.98 4 3 C3.34 3 2.68 3 2 3 C1.67 3.66 1.34 4.32 1 5 C-0.32 4.34 -1.64 3.68 -3 3 C-2.34 3 -1.68 3 -1 3 C-0.67 2.01 -0.34 1.02 0 0 Z " fill="#63AE5F" transform="translate(74,55)"/><path d="M0 0 C3.47 1.49 3.47 1.49 7 3 C6.67 3.99 6.34 4.98 6 6 C1.25 4.12 1.25 4.12 -1 3 C-0.67 2.01 -0.34 1.02 0 0 Z " fill="#AAE3A5" transform="translate(97,156)"/><path d="M0 0 C0.66 0.66 1.32 1.32 2 2 C0.35 3.65 -1.3 5.3 -3 7 C-3.66 6.34 -4.32 5.68 -5 5 C-3.35 3.35 -1.7 1.7 0 0 Z " fill="#AFE2AD" transform="translate(307,143)"/><path d="M0 0 C0.33 0 0.66 0 1 0 C1 2.31 1 4.62 1 7 C-0.65 7.33 -2.3 7.66 -4 8 C-4 7.34 -4 6.68 -4 6 C-3.34 6 -2.68 6 -2 6 C-2 5.34 -2 4.68 -2 4 C-1.34 4 -0.68 4 0 4 C0 2.68 0 1.36 0 0 Z " fill="#D9D8E3" transform="translate(371,112)"/><path d="M0 0 C1.32 0.66 2.64 1.32 4 2 C3.67 3.32 3.34 4.64 3 6 C2.01 5.67 1.02 5.34 0 5 C-0.33 4.01 -0.66 3.02 -1 2 C-0.67 1.34 -0.34 0.68 0 0 Z " fill="#F1EFFF" transform="translate(169,32)"/><path d="M0 0 C2 2 2 2 2 5 C0.35 5 -1.3 5 -3 5 C-3 3.68 -3 2.36 -3 1 C-2.01 0.67 -1.02 0.34 0 0 Z " fill="#5ED153" transform="translate(305,258)"/><path d="M0 0 C1 3 1 3 0 6 C-2.06 6.69 -2.06 6.69 -4 7 C-2.93 4.08 -2.22 2.22 0 0 Z " fill="#C1E7C0" transform="translate(326,120)"/><path d="M0 0 C0.33 0.66 0.66 1.32 1 2 C1.99 2.33 2.98 2.66 4 3 C2.36 4.12 0.78 5.11 -1 6 C-1 5.34 -1 4.68 -1 4 C-1.66 3.67 -2.32 3.34 -3 3 C-2.01 2.01 -1.02 1.02 0 0 Z " fill="#629661" transform="translate(70,59)"/><path d="M0 0 C0 1.65 0 3.3 0 5 C-0.99 5 -1.98 5 -3 5 C-3 3.68 -3 2.36 -3 1 C-3.99 0.67 -4.98 0.34 -6 0 C-3 -1 -3 -1 0 0 Z " fill="#44454D" transform="translate(116,1)"/><path d="M0 0 C0.99 0.33 1.98 0.66 3 1 C2.34 2.32 1.68 3.64 1 5 C0.01 5 -0.98 5 -2 5 C-1.12 1.12 -1.12 1.12 0 0 Z " fill="#87D980" transform="translate(258,200)"/><path d="M0 0 C2.47 0.99 2.47 0.99 5 2 C5 2.99 5 3.98 5 5 C3.68 5 2.36 5 1 5 C0.67 3.35 0.34 1.7 0 0 Z " fill="#C5EAC3" transform="translate(117,166)"/><path d="M0 0 C0.99 0 1.98 0 3 0 C3 1.65 3 3.3 3 5 C1.68 4.67 0.36 4.34 -1 4 C-0.67 2.68 -0.34 1.36 0 0 Z " fill="#6BD561" transform="translate(221,107)"/><path d="M0 0 C2.18 2.18 2.37 3.1 3 6 C3.33 6.66 3.66 7.32 4 8 C2.68 8 1.36 8 0 8 C0 5.36 0 2.72 0 0 Z " fill="#49CB3D" transform="translate(321,258)"/><path d="M0 0 C1.65 0 3.3 0 5 0 C5 0.99 5 1.98 5 3 C3.68 3.33 2.36 3.66 1 4 C0.67 2.68 0.34 1.36 0 0 Z " fill="#A1E29C" transform="translate(306,250)"/><path d="M0 0 C0.99 0.33 1.98 0.66 3 1 C3 2.32 3 3.64 3 5 C1.68 4.67 0.36 4.34 -1 4 C-0.67 2.68 -0.34 1.36 0 0 Z " fill="#89898E" transform="translate(391,188)"/><path d="M0 0 C0.66 0.33 1.32 0.66 2 1 C1.67 2.65 1.34 4.3 1 6 C1.66 6.33 2.32 6.66 3 7 C1.02 7.99 1.02 7.99 -1 9 C-0.67 6.03 -0.34 3.06 0 0 Z " fill="#35C627" transform="translate(261,105)"/><path d="M0 0 C3.38 1.19 5.65 2.28 8 5 C5 5 5 5 3.61 3.91 C2.41 2.6 1.2 1.3 0 0 Z " fill="#70B86C" transform="translate(121,23)"/><path d="M0 0 C0.66 0 1.32 0 2 0 C2.33 1.32 2.66 2.64 3 4 C1.68 4.33 0.36 4.66 -1 5 C-0.67 3.35 -0.34 1.7 0 0 Z " fill="#077799" transform="translate(351,206)"/><path d="M0 0 C0.66 0.33 1.32 0.66 2 1 C1.67 1.33 1.34 1.66 1 2 C1.66 2.66 2.32 3.32 3 4 C1.19 4.62 1.19 4.62 -1 5 C-2.75 4.06 -2.75 4.06 -4 3 C-2.68 2.01 -1.36 1.02 0 0 Z " fill="#363840" transform="translate(207,75)"/><path d="M0 0 C0.99 0 1.98 0 3 0 C3 1.32 3 2.64 3 4 C1.68 3.67 0.36 3.34 -1 3 C-0.67 2.01 -0.34 1.02 0 0 Z " fill="#ABACB2" transform="translate(371,67)"/><path d="M0 0 C0.99 0.33 1.98 0.66 3 1 C1.35 2.32 -0.3 3.64 -2 5 C-2 2 -2 2 0 0 Z " fill="#0582A7" transform="translate(379,195)"/><path d="M0 0 C1.32 0.66 2.64 1.32 4 2 C3.01 3.49 3.01 3.49 2 5 C1.01 4.34 0.02 3.68 -1 3 C-0.67 2.01 -0.34 1.02 0 0 Z " fill="#B0E5AC" transform="translate(105,160)"/><path d="M0 0 C2.97 0.5 2.97 0.5 6 1 C5.67 1.99 5.34 2.98 5 4 C2.53 3.01 2.53 3.01 0 2 C0 1.34 0 0.68 0 0 Z " fill="#A8E2A3" transform="translate(90,154)"/><path d="M0 0 C1.32 0.33 2.64 0.66 4 1 C3.67 2.32 3.34 3.64 3 5 C1.5 4.19 1.5 4.19 0 3 C0 2.01 0 1.02 0 0 Z " fill="#C2EAC0" transform="translate(64,140)"/><path d="M0 0 C1.32 0.33 2.64 0.66 4 1 C3.67 2.32 3.34 3.64 3 5 C2.67 4.34 2.34 3.68 2 3 C1.34 3 0.68 3 0 3 C0 2.01 0 1.02 0 0 Z " fill="#598C59" transform="translate(58,70)"/><path d="M0 0 C0.33 0.66 0.66 1.32 1 2 C1.66 2 2.32 2 3 2 C2.67 2.99 2.34 3.98 2 5 C1.34 5 0.68 5 0 5 C0 4.34 0 3.68 0 3 C-0.66 2.67 -1.32 2.34 -2 2 C-1.34 1.34 -0.68 0.68 0 0 Z " fill="#5BA957" transform="translate(79,51)"/><path d="M0 0 C0.33 0.99 0.66 1.98 1 3 C-0.49 3.99 -0.49 3.99 -2 5 C-2.33 3.68 -2.66 2.36 -3 1 C-2.01 0.67 -1.02 0.34 0 0 Z " fill="#808087" transform="translate(301,47)"/><path d="M0 0 C0.99 0 1.98 0 3 0 C3 1.32 3 2.64 3 4 C2.01 4 1.02 4 0 4 C0 2.68 0 1.36 0 0 Z " fill="#3DC730" transform="translate(299,267)"/><path d="M0 0 C0.66 0.33 1.32 0.66 2 1 C0.68 2.65 -0.64 4.3 -2 6 C-2.33 5.34 -2.66 4.68 -3 4 C-2.01 2.68 -1.02 1.36 0 0 Z " fill="#A7E1A4" transform="translate(279,176)"/><path d="M0 0 C0.66 0.33 1.32 0.66 2 1 C1.34 2.98 0.68 4.96 0 7 C-0.66 6.01 -1.32 5.02 -2 4 C-1.34 2.68 -0.68 1.36 0 0 Z " fill="#393C45" transform="translate(217,165)"/><path d="M0 0 C0.99 0.33 1.98 0.66 3 1 C2.34 2.32 1.68 3.64 1 5 C0.01 4.34 -0.98 3.68 -2 3 C-1.34 2.01 -0.68 1.02 0 0 Z " fill="#A9E3A5" transform="translate(310,139)"/><path d="M0 0 C0.99 0 1.98 0 3 0 C2.67 1.32 2.34 2.64 2 4 C1.34 4 0.68 4 0 4 C-0.33 3.01 -0.66 2.02 -1 1 C-0.67 0.67 -0.34 0.34 0 0 Z " fill="#B9E5B8" transform="translate(312,136)"/><path d="M0 0 C2.97 1.98 2.97 1.98 6 4 C5.34 4.66 4.68 5.32 4 6 C2.62 4.71 1.29 3.37 0 2 C0 1.34 0 0.68 0 0 Z " fill="#72B86E" transform="translate(19,125)"/><path d="M0 0 C0.66 0 1.32 0 2 0 C2.33 0.99 2.66 1.98 3 3 C1.68 3.33 0.36 3.66 -1 4 C-0.67 2.68 -0.34 1.36 0 0 Z " fill="#70D467" transform="translate(30,118)"/><path d="M0 0 C0.99 0 1.98 0 3 0 C3 1.32 3 2.64 3 4 C2.01 4 1.02 4 0 4 C0 2.68 0 1.36 0 0 Z " fill="#D0D2D6" transform="translate(375,67)"/><path d="M0 0 C2 2 2 2 2 4 C1.01 4.33 0.02 4.66 -1 5 C-1.33 4.34 -1.66 3.68 -2 3 C-1.34 2.01 -0.68 1.02 0 0 Z " fill="#A9E2A5" transform="translate(316,132)"/><path d="M0 0 C1.32 0.66 2.64 1.32 4 2 C3.01 3.49 3.01 3.49 2 5 C1.34 4.34 0.68 3.68 0 3 C0 2.01 0 1.02 0 0 Z " fill="#A3E19F" transform="translate(39,125)"/><path d="M0 0 C0.99 0.33 1.98 0.66 3 1 C3 1.99 3 2.98 3 4 C2.01 4 1.02 4 0 4 C0 2.68 0 1.36 0 0 Z " fill="#2BC51C" transform="translate(239,114)"/><path d="M0 0 C1.65 0 3.3 0 5 0 C5 0.99 5 1.98 5 3 C4.01 3 3.02 3 2 3 C2 2.34 2 1.68 2 1 C1.34 0.67 0.68 0.34 0 0 Z " fill="#A8E2A4" transform="translate(227,105)"/><path d="M0 0 C-0.66 1.32 -1.32 2.64 -2 4 C-2.99 3.67 -3.98 3.34 -5 3 C-2.25 0 -2.25 0 0 0 Z " fill="#619161" transform="translate(58,74)"/><path d="M0 0 C2.48 0.99 2.48 0.99 5 2 C3.02 2.99 3.02 2.99 1 4 C0.67 2.68 0.34 1.36 0 0 Z " fill="#62A25F" transform="translate(61,67)"/><path d="M0 0 C0.66 0.33 1.32 0.66 2 1 C1.67 2.32 1.34 3.64 1 5 C0.34 5 -0.32 5 -1 5 C-0.67 3.35 -0.34 1.7 0 0 Z " fill="#171721" transform="translate(62,29)"/><path d="M0 0 C0.66 0.66 1.32 1.32 2 2 C1.01 2.99 0.02 3.98 -1 5 C-1.66 4.34 -2.32 3.68 -3 3 C-2.01 2.01 -1.02 1.02 0 0 Z " fill="#A8E1A6" transform="translate(268,189)"/><path d="M0 0 C0.66 0.33 1.32 0.66 2 1 C2 1.99 2 2.98 2 4 C1.01 4 0.02 4 -1 4 C-0.67 2.68 -0.34 1.36 0 0 Z " fill="#46464D" transform="translate(235,189)"/><path d="M0 0 C-0.33 0.99 -0.66 1.98 -1 3 C-1.99 3.33 -2.98 3.66 -4 4 C-4 3.01 -4 2.02 -4 1 C-2 0 -2 0 0 0 Z " fill="#A8E2A5" transform="translate(285,172)"/><path d="M0 0 C0.66 0 1.32 0 2 0 C2 1.32 2 2.64 2 4 C1.01 3.67 0.02 3.34 -1 3 C-0.67 2.01 -0.34 1.02 0 0 Z " fill="#FF01FF" transform="translate(51,172)"/><path d="M0 0 C0.99 0.33 1.98 0.66 3 1 C3 1.99 3 2.98 3 4 C1.68 3.34 0.36 2.68 -1 2 C-0.67 1.34 -0.34 0.68 0 0 Z " fill="#BAE7B7" transform="translate(76,146)"/><path d="M0 0 C0.99 0 1.98 0 3 0 C3 0.99 3 1.98 3 3 C2.01 3 1.02 3 0 3 C0 2.01 0 1.02 0 0 Z " fill="#17C105" transform="translate(324,260)"/><path d="M0 0 C0.99 0 1.98 0 3 0 C3 0.99 3 1.98 3 3 C2.01 3 1.02 3 0 3 C0 2.01 0 1.02 0 0 Z " fill="#30C622" transform="translate(282,260)"/><path d="M0 0 C0.33 0.66 0.66 1.32 1 2 C1.66 2.33 2.32 2.66 3 3 C2.34 3 1.68 3 1 3 C0.67 3.66 0.34 4.32 0 5 C-0.33 4.01 -0.66 3.02 -1 2 C-0.67 1.34 -0.34 0.68 0 0 Z " fill="#33C624" transform="translate(312,252)"/><path d="M0 0 C0.99 0.33 1.98 0.66 3 1 C2.67 1.66 2.34 2.32 2 3 C0.68 2.34 -0.64 1.68 -2 1 C-1.34 0.67 -0.68 0.34 0 0 Z " fill="#D7D8DD" transform="translate(214,188)"/><path d="M0 0 C1.98 0.5 1.98 0.5 4 1 C3.67 1.66 3.34 2.32 3 3 C1.68 2.67 0.36 2.34 -1 2 C-0.67 1.34 -0.34 0.68 0 0 Z " fill="#C3E9C1" transform="translate(153,185)"/><path d="M0 0 C1.32 0 2.64 0 4 0 C3.67 0.99 3.34 1.98 3 3 C2.01 2.67 1.02 2.34 0 2 C0 1.34 0 0.68 0 0 Z " fill="#F39DFB" transform="translate(47,179)"/><path d="M0 0 C0.99 0.33 1.98 0.66 3 1 C1.68 1.99 0.36 2.98 -1 4 C-0.67 2.68 -0.34 1.36 0 0 Z " fill="#0582A7" transform="translate(308,125)"/><path d="M0 0 C1.98 0.99 1.98 0.99 4 2 C3.01 3.48 3.01 3.48 2 5 C1.34 3.35 0.68 1.7 0 0 Z " fill="#AAE3A6" transform="translate(33,121)"/><path d="M0 0 C0.99 0 1.98 0 3 0 C3 0.99 3 1.98 3 3 C2.01 3 1.02 3 0 3 C0 2.01 0 1.02 0 0 Z " fill="#30C622" transform="translate(264,107)"/><path d="M0 0 C0.99 0.66 1.98 1.32 3 2 C1.02 2.99 1.02 2.99 -1 4 C-1.33 3.01 -1.66 2.02 -2 1 C-1.34 0.67 -0.68 0.34 0 0 Z " fill="#2BC31B" transform="translate(252,100)"/><path d="M0 0 C0.99 0 1.98 0 3 0 C3 0.99 3 1.98 3 3 C2.01 3 1.02 3 0 3 C0 2.01 0 1.02 0 0 Z " fill="#2DC41E" transform="translate(240,99)"/><path d="M0 0 C0.99 0 1.98 0 3 0 C3.33 0.99 3.66 1.98 4 3 C2.68 2.67 1.36 2.34 0 2 C0 1.34 0 0.68 0 0 Z " fill="#519F4D" transform="translate(74,55)"/><path d="M0 0 C0.66 0.66 1.32 1.32 2 2 C1.34 2.66 0.68 3.32 0 4 C-0.66 3.01 -1.32 2.02 -2 1 C-1.34 0.67 -0.68 0.34 0 0 Z " fill="#A1E09C" transform="translate(298,154)"/><path d="M0 0 C0.66 0.33 1.32 0.66 2 1 C1.67 1.99 1.34 2.98 1 4 C0.34 3.67 -0.32 3.34 -1 3 C-0.67 2.01 -0.34 1.02 0 0 Z " fill="#A8E1A5" transform="translate(50,131)"/><path d="M0 0 C0.99 0 1.98 0 3 0 C2.67 0.99 2.34 1.98 2 3 C1.34 3 0.68 3 0 3 C0 2.01 0 1.02 0 0 Z " fill="#D4EFD3" transform="translate(36,124)"/><path d="M0 0 C1.32 0.33 2.64 0.66 4 1 C4 1.66 4 2.32 4 3 C2.68 2.34 1.36 1.68 0 1 C0 0.67 0 0.34 0 0 Z " fill="#4B4B53" transform="translate(179,65)"/><path d="M0 0 C1.98 0.99 1.98 0.99 4 2 C3.34 2.66 2.68 3.32 2 4 C1.34 2.68 0.68 1.36 0 0 Z " fill="#43434B" transform="translate(151,44)"/><path d="M0 0 C1.32 0 2.64 0 4 0 C4 0.66 4 1.32 4 2 C3.01 2.33 2.02 2.66 1 3 C0.67 2.01 0.34 1.02 0 0 Z " fill="#57575E" transform="translate(142,21)"/><path d="M0 0 C0.99 0.33 1.98 0.66 3 1 C3 1.66 3 2.32 3 3 C2.01 2.67 1.02 2.34 0 2 C0 1.34 0 0.68 0 0 Z " fill="#8A8A90" transform="translate(220,230)"/><path d="M0 0 C0.66 0.66 1.32 1.32 2 2 C1.01 2.5 1.01 2.5 0 3 C-0.99 2.34 -1.98 1.68 -3 1 C-2.01 0.67 -1.02 0.34 0 0 Z " fill="#3C3F48" transform="translate(244,187)"/><path d="M0 0 C0.99 0.99 1.98 1.98 3 3 C1.68 2.67 0.36 2.34 -1 2 C-0.67 1.34 -0.34 0.68 0 0 Z " fill="#E5E5ED" transform="translate(42,178)"/><path d="M0 0 C0.99 0.33 1.98 0.66 3 1 C2.01 2.49 2.01 2.49 1 4 C0.67 2.68 0.34 1.36 0 0 Z " fill="#AAE4A6" transform="translate(114,165)"/><path d="M0 0 C1.32 0.33 2.64 0.66 4 1 C3.34 1.66 2.68 2.32 2 3 C1.34 2.01 0.68 1.02 0 0 Z " fill="#6DB36A" transform="translate(28,133)"/><path d="M0 0 C0.66 0.66 1.32 1.32 2 2 C0.68 2 -0.64 2 -2 2 C-1.34 1.34 -0.68 0.68 0 0 Z " fill="#A8E1A5" transform="translate(323,126)"/><path d="M0 0 C0.99 0.33 1.98 0.66 3 1 C1.51 1.99 1.51 1.99 0 3 C0 2.01 0 1.02 0 0 Z " fill="#067A9D" transform="translate(319,112)"/><path d="M0 0 C0.99 0.33 1.98 0.66 3 1 C1.51 1.99 1.51 1.99 0 3 C0 2.01 0 1.02 0 0 Z " fill="#0581A6" transform="translate(325,105)"/><path d="M0 0 C0.99 0.33 1.98 0.66 3 1 C3 1.66 3 2.32 3 3 C2.01 2.67 1.02 2.34 0 2 C0 1.34 0 0.68 0 0 Z " fill="#39C72B" transform="translate(343,100)"/><path d="M0 0 C0.99 0.33 1.98 0.66 3 1 C1.51 1.99 1.51 1.99 0 3 C0 2.01 0 1.02 0 0 Z " fill="#067EA1" transform="translate(330,99)"/><path d="M0 0 C0.66 0.33 1.32 0.66 2 1 C2 1.66 2 2.32 2 3 C1.01 3 0.02 3 -1 3 C-0.67 2.01 -0.34 1.02 0 0 Z " fill="#AFB0B4" transform="translate(332,81)"/><path d="M0 0 C0.99 0 1.98 0 3 0 C2.67 0.99 2.34 1.98 2 3 C1.34 2.67 0.68 2.34 0 2 C0 1.34 0 0.68 0 0 Z " fill="#77797F" transform="translate(206,80)"/><path d="M0 0 C1.32 0.33 2.64 0.66 4 1 C3.34 1.66 2.68 2.32 2 3 C1.34 2.01 0.68 1.02 0 0 Z " fill="#68A166" transform="translate(125,26)"/><path d="M0 0 C0.66 0.66 1.32 1.32 2 2 C1.01 2.33 0.02 2.66 -1 3 C-0.67 2.01 -0.34 1.02 0 0 Z " fill="#A6E2A2" transform="translate(307,143)"/><path d="M0 0 C0.66 0.33 1.32 0.66 2 1 C2 1.66 2 2.32 2 3 C1.01 2.67 0.02 2.34 -1 2 C-0.67 1.34 -0.34 0.68 0 0 Z " fill="#3C3D46" transform="translate(60,68)"/><path d="M0 0 C1.49 0.99 1.49 0.99 3 2 C2.01 2.33 1.02 2.66 0 3 C0 2.01 0 1.02 0 0 Z " fill="#212630" transform="translate(370,65)"/><path d="M0 0 C0.66 0.33 1.32 0.66 2 1 C2 1.66 2 2.32 2 3 C1.01 2.67 0.02 2.34 -1 2 C-0.67 1.34 -0.34 0.68 0 0 Z " fill="#4B4B53" transform="translate(138,34)"/><path d="M0 0 C0.66 0.99 1.32 1.98 2 3 C1.01 3 0.02 3 -1 3 C-0.67 2.01 -0.34 1.02 0 0 Z " fill="#D7DADB" transform="translate(144,18)"/><path d="M0 0 C0.66 0.66 1.32 1.32 2 2 C1.01 2 0.02 2 -1 2 C-0.67 1.34 -0.34 0.68 0 0 Z " fill="#0C516A" transform="translate(331,213)"/></svg>