<svg xmlns="http://www.w3.org/2000/svg" width="547" height="300" viewBox="0 0 547 300"><path d="M0 0 C180.51 0 361.02 0 547 0 C547 99 547 198 547 300 C366.49 300 185.98 300 0 300 C0 201 0 102 0 0 Z " fill="#FBFAFE" transform="translate(0,0)"/><path d="M0 0 C2.96 0.67 4.07 1.86 5.68 4.38 C6.2 6.97 6.03 8.66 5.68 11.38 C4.16 13.09 4.16 13.09 2.68 14.38 C3.83 14.4 4.97 14.43 6.15 14.45 C10.42 14.55 14.69 14.65 18.96 14.75 C20.81 14.79 22.65 14.84 24.49 14.88 C27.15 14.93 29.81 15 32.47 15.06 C33.29 15.08 34.1 15.1 34.94 15.11 C38.44 15.2 41.86 15.35 45.32 15.88 C48.79 16.4 52.21 16.6 55.71 16.7 C56.34 16.72 56.98 16.74 57.63 16.76 C59.63 16.82 61.62 16.88 63.62 16.94 C64.99 16.98 66.35 17.03 67.72 17.07 C71.04 17.18 74.36 17.28 77.68 17.38 C76.69 16.39 76.69 16.39 75.68 15.38 C75.23 11.33 75.04 9.39 77.25 5.94 C80.04 4.15 81.73 3.72 85 3.93 C86.68 4.38 86.68 4.38 89.18 6.44 C91.22 10.42 90.81 12.1 89.68 16.38 C89.02 17.04 88.36 17.7 87.68 18.38 C134.81 29.36 134.81 29.36 182.15 39.39 C189.39 40.86 196.54 42.53 203.68 44.38 C203.21 45.28 203.21 45.28 202.72 46.21 C201.58 48.59 201.12 50.79 200.68 53.38 C202.33 53.71 203.98 54.04 205.68 54.38 C206.49 51.46 206.9 49.92 205.75 47.07 C205.4 46.51 205.04 45.95 204.68 45.38 C211.16 46.07 217.4 47.33 223.75 48.75 C225.78 49.2 227.81 49.65 229.85 50.1 C230.84 50.32 231.83 50.54 232.84 50.76 C238.77 52.05 244.73 53.22 250.68 54.38 C250.95 53.27 251.22 52.15 251.5 51 C252.02 48.81 252.34 47.69 254.04 46.18 C256.85 44.81 259.68 44.83 262.68 45.38 C265.12 47 265.12 47 266.68 49.38 C267.25 52.32 267.25 52.32 266.68 55.38 C265.19 57.48 263.73 58.72 261.68 60.38 C261.02 60.38 260.36 60.38 259.68 60.38 C259.68 62.03 259.68 63.68 259.68 65.38 C260.18 65.47 260.67 65.56 261.18 65.65 C272.31 67.69 283.39 69.91 294.43 72.38 C295.01 72.51 295.59 72.64 296.18 72.77 C302.47 74.17 308.75 75.63 315.01 77.17 C324.03 79.39 333.46 81.69 342.68 79.38 C343.01 77.73 343.34 76.08 343.68 74.38 C345.33 74.38 346.98 74.38 348.68 74.38 C348.68 73.72 348.68 73.06 348.68 72.38 C351.32 72.05 353.96 71.72 356.68 71.38 C355.36 70.39 354.04 69.4 352.68 68.38 C355.32 68.05 357.96 67.72 360.68 67.38 C360.68 66.39 360.68 65.4 360.68 64.38 C363.32 64.05 365.96 63.72 368.68 63.38 C368.68 62.39 368.68 61.4 368.68 60.38 C371.32 60.05 373.96 59.72 376.68 59.38 C376.68 58.39 376.68 57.4 376.68 56.38 C379.32 56.05 381.96 55.72 384.68 55.38 C384.68 54.39 384.68 53.4 384.68 52.38 C392.6 51.88 392.6 51.88 400.68 51.38 C400.68 50.39 400.68 49.4 400.68 48.38 C407.28 48.38 413.88 48.38 420.68 48.38 C420.35 49.7 420.02 51.02 419.68 52.38 C421.33 52.38 422.98 52.38 424.68 52.38 C424.68 51.72 424.68 51.06 424.68 50.38 C425.34 50.38 426 50.38 426.68 50.38 C426.68 49.72 426.68 49.06 426.68 48.38 C433.28 48.38 439.88 48.38 446.68 48.38 C446.68 49.04 446.68 49.7 446.68 50.38 C446.02 51.04 445.36 51.7 444.68 52.38 C446 52.38 447.32 52.38 448.68 52.38 C448.68 51.72 448.68 51.06 448.68 50.38 C450.02 51.05 451.35 51.71 452.68 52.38 C456.31 52.38 459.94 52.38 463.68 52.38 C463.68 123.33 463.68 194.28 463.68 267.38 C382.83 267.38 301.98 267.38 218.68 267.38 C219.96 264.83 221.08 262.67 222.68 260.38 C222.02 259.72 221.36 259.06 220.68 258.38 C222 257.72 223.32 257.06 224.68 256.38 C224.68 254.4 224.68 252.42 224.68 250.38 C226 249.72 227.32 249.06 228.68 248.38 C228.02 247.72 227.36 247.06 226.68 246.38 C227.34 245.72 228 245.06 228.68 244.38 C228.68 243.72 228.68 243.06 228.68 242.38 C229.34 241.72 230 241.06 230.68 240.38 C230.02 239.72 229.36 239.06 228.68 238.38 C230 237.72 231.32 237.06 232.68 236.38 C232.62 235.45 232.62 235.45 232.56 234.5 C232.68 232.38 232.68 232.38 234.68 230.38 C234.02 229.72 233.36 229.06 232.68 228.38 C234 227.72 235.32 227.06 236.68 226.38 C236.68 225.72 236.68 225.06 236.68 224.38 C237.34 223.72 238 223.06 238.68 222.38 C238.02 221.72 237.36 221.06 236.68 220.38 C238 219.72 239.32 219.06 240.68 218.38 C240.68 216.4 240.68 214.42 240.68 212.38 C242 211.72 243.32 211.06 244.68 210.38 C244.68 208.4 244.68 206.42 244.68 204.38 C246 203.72 247.32 203.06 248.68 202.38 C248.68 200.4 248.68 198.42 248.68 196.38 C250 195.72 251.32 195.06 252.68 194.38 C252.68 192.4 252.68 190.42 252.68 188.38 C254 187.72 255.32 187.06 256.68 186.38 C256.68 185.72 256.68 185.06 256.68 184.38 C257.34 183.72 258 183.06 258.68 182.38 C258.02 181.72 257.36 181.06 256.68 180.38 C258 179.72 259.32 179.06 260.68 178.38 C260.68 175.74 260.68 173.1 260.68 170.38 C256.39 168.4 252.1 166.42 247.68 164.38 C247.62 166.39 247.62 166.39 247.56 168.44 C246.99 173.8 244.64 176.85 240.68 180.38 C240.02 180.71 239.36 181.04 238.68 181.38 C239.89 182.15 239.89 182.15 241.12 182.94 C243.3 184.7 244.2 186.07 244.81 188.82 C244.97 190.95 244.86 192.06 243.83 193.94 C241.56 196.53 240.06 197.31 236.62 197.94 C233.68 197.38 233.68 197.38 231.31 195.82 C229.03 192.4 229.31 190.44 229.68 186.38 C230.01 185.72 230.34 185.06 230.68 184.38 C229.59 184.47 229.59 184.47 228.47 184.55 C211.79 185.28 195.97 178.38 180.68 172.38 C179.75 172.02 178.82 171.65 177.86 171.28 C157.52 163.31 137.93 153.93 120.68 140.38 C119.97 139.82 119.97 139.82 119.25 139.25 C114.88 135.8 110.64 132.19 106.39 128.58 C105.26 127.62 104.13 126.65 103 125.69 C102.45 125.23 101.9 124.76 101.34 124.28 C97.24 120.81 93.05 117.51 88.68 114.38 C88.25 115.59 88.25 115.59 87.81 116.82 C86.68 119.38 86.68 119.38 84.68 120.38 C81.49 120.66 79.28 120.63 76.31 119.38 C74.12 116.69 74.11 114.73 74.31 111.32 C74.68 109.38 74.68 109.38 76.18 106.82 C79.82 104.73 82.71 105.49 86.68 106.38 C88.1 99.81 88.1 99.81 86.8 93.41 C85.46 91.7 85.46 91.7 83.77 90.25 C81.68 88.38 81.68 88.38 79.51 86.11 C72.76 79.66 67.6 78.25 58.36 78.31 C56.81 78.35 55.26 78.39 53.71 78.43 C52.09 78.44 50.48 78.45 48.86 78.45 C45.5 78.47 42.14 78.52 38.77 78.59 C34.46 78.68 30.15 78.72 25.83 78.75 C21.71 78.77 17.58 78.82 13.46 78.87 C12.67 78.88 11.89 78.88 11.08 78.89 C8.86 78.92 6.65 78.96 4.44 79.01 C3.78 79.02 3.12 79.02 2.44 79.03 C-1.37 79.06 -1.37 79.06 -4.32 81.38 C-4.71 83.37 -5.05 85.37 -5.32 87.38 C-3.61 87.36 -3.61 87.36 -1.86 87.35 C2.36 87.31 6.59 87.29 10.81 87.27 C12.64 87.26 14.47 87.25 16.3 87.23 C18.92 87.2 21.55 87.19 24.18 87.18 C25 87.17 25.82 87.16 26.66 87.15 C27.42 87.15 28.18 87.15 28.97 87.15 C29.64 87.15 30.31 87.14 31 87.14 C32.68 87.38 32.68 87.38 34.68 89.38 C34.93 91.02 34.93 91.02 34.93 92.99 C34.93 94.09 34.93 94.09 34.94 95.22 C34.93 96.41 34.93 96.41 34.91 97.63 C34.91 98.45 34.91 99.26 34.91 100.11 C34.91 101.83 34.9 103.56 34.89 105.28 C34.87 107.93 34.87 110.59 34.87 113.24 C34.86 114.91 34.86 116.58 34.85 118.26 C34.85 119.06 34.85 119.85 34.85 120.68 C34.8 126.26 34.8 126.26 33.68 127.38 C31.19 127.48 28.73 127.52 26.24 127.51 C25.46 127.51 24.68 127.51 23.88 127.51 C21.3 127.52 18.71 127.52 16.12 127.51 C14.33 127.51 12.54 127.51 10.75 127.51 C7 127.52 3.24 127.51 -0.52 127.51 C-5.34 127.5 -10.17 127.51 -14.99 127.51 C-18.69 127.52 -22.39 127.52 -26.09 127.51 C-27.87 127.51 -29.65 127.51 -31.43 127.52 C-33.91 127.52 -36.39 127.51 -38.88 127.51 C-39.99 127.51 -39.99 127.51 -41.13 127.51 C-46.2 127.49 -46.2 127.49 -47.32 126.38 C-47.44 124.82 -47.44 124.82 -47.45 122.79 C-47.45 122.04 -47.45 121.28 -47.46 120.5 C-47.45 119.67 -47.45 118.85 -47.45 118 C-47.45 117.16 -47.45 116.32 -47.45 115.46 C-47.45 113.68 -47.45 111.9 -47.45 110.12 C-47.44 107.39 -47.45 104.66 -47.45 101.93 C-47.45 100.2 -47.45 98.48 -47.45 96.75 C-47.45 95.52 -47.45 95.52 -47.46 94.26 C-47.45 93.12 -47.45 93.12 -47.45 91.96 C-47.44 90.96 -47.44 90.96 -47.44 89.94 C-47.32 88.38 -47.32 88.38 -46.32 87.38 C-44.72 87.26 -44.72 87.26 -42.62 87.27 C-41.45 87.27 -41.45 87.27 -40.26 87.27 C-38.99 87.27 -38.99 87.27 -37.69 87.28 C-36.39 87.28 -36.39 87.28 -35.07 87.29 C-32.3 87.29 -29.53 87.3 -26.75 87.32 C-24.88 87.32 -23.01 87.33 -21.13 87.33 C-16.53 87.34 -11.92 87.36 -7.32 87.38 C-7.47 86.05 -7.47 86.05 -7.63 84.69 C-7.29 81.07 -6.46 79.87 -3.84 77.42 C-1.24 75.64 1.46 75.68 4.49 75.72 C5.16 75.71 5.82 75.7 6.51 75.69 C8.69 75.66 10.87 75.67 13.05 75.67 C14.56 75.66 16.08 75.64 17.6 75.63 C21.58 75.59 25.57 75.58 29.55 75.57 C33.62 75.56 37.69 75.53 41.76 75.49 C49.73 75.43 57.71 75.39 65.68 75.38 C62.72 73.17 59.75 70.97 56.78 68.77 C55.95 68.16 55.12 67.54 54.27 66.91 C34.12 52.01 13.27 39.92 -11.53 35.18 C-13.2 34.85 -13.2 34.85 -14.91 34.52 C-17.14 34.1 -19.37 33.69 -21.61 33.3 C-27.43 32.23 -31.77 31.25 -36.32 27.38 C-38.19 24.63 -38.19 24.63 -39.32 22.38 C-39.98 23.04 -40.64 23.7 -41.32 24.38 C-45.37 24.83 -47.31 25.02 -50.75 22.82 C-52.54 20.03 -52.97 18.34 -52.76 15.07 C-52.32 13.38 -52.32 13.38 -50.25 10.88 C-46.95 9.19 -45.43 9.08 -41.9 9.82 C-39.81 10.56 -38.63 11.61 -37.32 13.38 C-36.42 12.42 -36.42 12.42 -35.5 11.44 C-32.23 8.35 -29.2 8.05 -24.78 8.08 C-20.61 8.59 -16.79 10.07 -12.86 11.5 C-10.45 12.49 -10.45 12.49 -8.32 12.38 C-8.81 11.39 -8.81 11.39 -9.32 10.38 C-9.7 6.84 -9.74 5.02 -7.75 2 C-4.94 0.13 -3.32 -0.22 0 0 Z " fill="#EEECFD" transform="translate(83.31640625,32.62109375)"/><path d="M0 0 C4.96 0.12 9.92 0.24 14.89 0.37 C16.57 0.42 18.26 0.46 19.94 0.5 C22.38 0.56 24.81 0.62 27.25 0.68 C27.99 0.7 28.73 0.72 29.49 0.73 C34.04 0.86 38.5 1.24 43.02 1.78 C45.23 2.03 47.41 2.12 49.63 2.14 C65.42 2.46 80.26 5.51 95.52 9.4 C104.61 11.71 113.75 13.71 122.93 15.63 C138.09 18.82 153.22 22.16 168.31 25.69 C182.22 28.94 196.15 31.98 210.15 34.81 C211.15 35.01 212.15 35.22 213.18 35.43 C215.01 35.8 216.86 36.14 218.71 36.46 C224.63 37.53 224.63 37.53 226.54 39.95 C226.71 40.66 226.88 41.38 227.06 42.12 C227.26 42.85 227.46 43.57 227.66 44.32 C227.83 45.15 227.83 45.15 228 46 C227.43 46.12 226.87 46.24 226.29 46.37 C225.55 46.53 224.82 46.7 224.06 46.88 C222.97 47.12 222.97 47.12 221.85 47.37 C219.79 47.83 219.79 47.83 219 50 C218.57 54.67 218.57 54.67 220.06 58.94 C223.18 60.65 225.47 60.39 229 60 C230.71 58.25 230.98 57.18 231.2 54.74 C231.17 53.94 231.15 53.14 231.12 52.31 C231.11 51.5 231.09 50.7 231.07 49.86 C231.05 49.25 231.02 48.63 231 48 C247.43 51.65 247.43 51.65 255.51 53.46 C269.77 56.66 284.03 59.84 298.34 62.76 C303.57 63.83 308.78 64.91 314 66 C314.58 66.12 315.15 66.24 315.74 66.36 C337.28 70.84 362.78 76.78 379 93 C378.34 93.52 377.68 94.03 377 94.56 C375 97 374.63 97.59 374.44 100.56 C374.66 104.08 374.66 104.08 377.12 106 C380.6 107.21 382.5 107.09 386 106 C387.54 104.95 387.54 104.95 388 103 C388.15 100.64 388.09 98.37 388 96 C388.53 95.76 389.06 95.52 389.61 95.27 C393.79 93.28 396.81 91.43 400 88 C400.66 88 401.32 88 402 88 C400.47 92.9 397.63 96.15 394.31 99.94 C393.81 100.53 393.3 101.13 392.78 101.74 C386.39 109.14 379.71 114.06 371 118.5 C369.62 119.21 369.62 119.21 368.22 119.93 C362.7 122.73 357.15 125.42 351.44 127.81 C350.84 128.07 350.24 128.33 349.62 128.6 C346.97 129.65 345.48 130.16 342.73 129.23 C341.45 128.32 340.19 127.39 338.94 126.44 C336.96 124.81 336.96 124.81 334 124 C334.35 123.3 334.7 122.6 335.06 121.88 C336.19 118.42 335.98 116.48 335 113 C334.02 110.94 334.02 110.94 332 110 C329.57 109.97 327.32 110.26 325 111 C322.63 112.93 322.63 112.93 322.81 116.38 C322.84 119.06 323.33 121.4 324 124 C323.18 124.21 322.37 124.41 321.53 124.62 C318.44 125.41 315.35 126.22 312.27 127.03 C310.95 127.38 309.62 127.72 308.3 128.05 C299.9 130.17 292.95 132.73 285.73 137.56 C279.91 140.63 273.55 139.85 267.33 138.36 C259.25 135.66 251.57 131.58 243.89 127.9 C238.36 125.26 232.86 122.8 227 121 C227.33 120.44 227.66 119.89 228 119.31 C229.2 116.54 229.52 114.99 229 112 C226.97 109.48 226.97 109.48 224 108 C220.27 108.15 218.66 108.34 216 111 C215.62 115.54 215.62 115.54 216.81 119.81 C218.1 121.1 219.47 122.01 221 123 C220.59 123.41 220.18 123.82 219.76 124.25 C216.76 127.46 214.76 129.87 213.94 134.25 C213.35 137.13 213.17 137.83 211 140 C203.43 142.52 195.89 140.83 188.5 138.44 C187.64 138.17 186.78 137.9 185.89 137.62 C177.88 135.06 170.04 132.11 162.26 128.92 C159.96 127.98 157.66 127.07 155.36 126.16 C132.99 117.2 113.72 105.04 95.56 89.34 C93.03 87.17 90.45 85.05 87.88 82.94 C87.01 82.22 86.14 81.51 85.24 80.78 C82.93 78.89 82.93 78.89 80 77 C80.66 73.7 81.32 70.4 82 67 C84.25 67.33 86.49 67.65 88.74 67.98 C91.29 68 92.19 67.77 94 66 C94.95 63.69 95.18 61.49 95 59 C93.58 56.42 93.58 56.42 91 55 C87.96 54.42 87.96 54.42 85 55 C83.21 56.29 83.21 56.29 82 58 C81.01 58.99 81.01 58.99 80 60 C79.36 59.26 78.71 58.52 78.05 57.76 C56.94 33.89 28.51 14.88 0 1 C0 0.67 0 0.34 0 0 Z " fill="#FAF9FD" transform="translate(104,62)"/><path d="M0 0 C2.96 0.67 4.07 1.86 5.68 4.38 C6.2 6.97 6.03 8.66 5.68 11.38 C4.16 13.09 4.16 13.09 2.68 14.38 C3.83 14.4 4.97 14.43 6.15 14.45 C10.42 14.55 14.69 14.65 18.96 14.75 C20.81 14.79 22.65 14.84 24.49 14.88 C27.15 14.93 29.81 15 32.47 15.06 C33.29 15.08 34.1 15.1 34.94 15.11 C38.44 15.2 41.86 15.35 45.32 15.88 C48.79 16.4 52.21 16.6 55.71 16.7 C56.34 16.72 56.98 16.74 57.63 16.76 C59.63 16.82 61.62 16.88 63.62 16.94 C64.99 16.98 66.35 17.03 67.72 17.07 C71.04 17.18 74.36 17.28 77.68 17.38 C76.69 16.39 76.69 16.39 75.68 15.38 C75.23 11.33 75.04 9.39 77.25 5.94 C80.04 4.15 81.73 3.72 85 3.93 C86.68 4.38 86.68 4.38 89.18 6.44 C91.22 10.42 90.81 12.1 89.68 16.38 C89.02 17.04 88.36 17.7 87.68 18.38 C134.81 29.36 134.81 29.36 182.15 39.39 C189.39 40.86 196.54 42.53 203.68 44.38 C203.21 45.28 203.21 45.28 202.72 46.21 C201.58 48.59 201.12 50.79 200.68 53.38 C202.33 53.71 203.98 54.04 205.68 54.38 C206.49 51.46 206.9 49.92 205.75 47.07 C205.4 46.51 205.04 45.95 204.68 45.38 C211.16 46.07 217.4 47.33 223.75 48.75 C225.78 49.2 227.81 49.65 229.85 50.1 C230.84 50.32 231.83 50.54 232.84 50.76 C238.77 52.05 244.73 53.22 250.68 54.38 C250.95 53.27 251.22 52.15 251.5 51 C252.02 48.81 252.34 47.69 254.04 46.18 C256.85 44.81 259.68 44.83 262.68 45.38 C265.12 47 265.12 47 266.68 49.38 C267.25 52.32 267.25 52.32 266.68 55.38 C265.19 57.48 263.73 58.72 261.68 60.38 C261.02 60.38 260.36 60.38 259.68 60.38 C259.68 62.03 259.68 63.68 259.68 65.38 C260.18 65.47 260.67 65.56 261.18 65.65 C280.58 69.2 299.8 73.47 318.97 78.05 C323.24 79.06 327.51 79.97 331.81 80.82 C333.69 81.19 335.58 81.56 337.46 81.94 C339.09 82.26 340.71 82.58 342.33 82.9 C354.66 85.33 366.28 88.04 377.68 93.38 C378.68 93.83 379.67 94.28 380.7 94.74 C385.27 96.91 389.56 99.27 393.81 102.02 C394.88 102.71 394.88 102.71 395.97 103.41 C397.38 104.33 398.78 105.27 400.17 106.22 C403.99 108.78 403.99 108.78 408.46 109.32 C410.66 108.39 412.12 107.49 413.87 105.88 C417.47 102.61 419.83 102.11 424.64 102.14 C427.5 102.47 429.41 103.67 431.68 105.38 C432.14 104.57 432.59 103.77 433.06 102.94 C434.68 100.38 434.68 100.38 436.68 99.38 C442.83 98.81 442.83 98.81 446.12 101 C448.18 104.14 448.36 105.69 447.68 109.38 C446.34 111.56 444.89 113.06 442.68 114.38 C439.37 114.69 439.37 114.69 436.68 114.38 C436.83 115.47 436.97 116.57 437.12 117.69 C437.09 127.73 427.15 136.62 420.68 143.38 C420 144.15 419.31 144.93 418.6 145.72 C405.55 159.86 384.6 167.47 366.68 173.38 C367.17 173.98 367.65 174.58 368.15 175.2 C370.24 178.18 370.27 179.81 369.68 183.38 C368.38 185.65 366.99 187.12 364.68 188.38 C362.11 188.71 360.09 188.35 357.68 187.38 C355.1 185.12 354.74 183.77 354.25 180.38 C354.77 176.75 355.89 175.65 358.68 173.38 C357.76 172.33 356.79 171.31 355.81 170.32 C355.27 169.75 354.74 169.18 354.19 168.59 C347.5 165.35 338.08 169.06 331.31 171 C330.39 171.26 329.48 171.53 328.53 171.79 C322.08 173.73 316.77 176.24 311.15 179.9 C307.72 181.96 304.6 182.7 300.68 183.38 C301.34 184.04 302 184.7 302.68 185.38 C303.25 188.11 303.21 190.64 302.68 193.38 C300.27 196.14 298.72 197.18 295.12 197.88 C291.72 197.18 290.63 196.26 288.68 193.38 C288.25 190.66 288.18 188.09 288.68 185.38 C289.34 184.72 290 184.06 290.68 183.38 C289.99 183.17 289.3 182.96 288.59 182.75 C282.4 180.8 276.6 178.52 270.75 175.73 C270.07 175.4 269.38 175.08 268.68 174.75 C267.01 173.96 265.35 173.17 263.68 172.38 C263.79 180.41 263.9 188.44 264.02 196.47 C264.08 200.2 264.13 203.93 264.18 207.66 C264.23 211.26 264.28 214.86 264.34 218.46 C264.36 219.83 264.38 221.21 264.39 222.58 C264.42 224.5 264.45 226.42 264.48 228.35 C264.49 229.44 264.51 230.54 264.53 231.66 C264.57 234.48 264.57 234.48 265.68 237.38 C268.39 238.73 270.8 238.72 273.81 238.94 C274.9 239.03 276 239.11 277.13 239.2 C277.97 239.26 278.81 239.32 279.68 239.38 C279.68 238.52 279.68 238.52 279.67 237.65 C279.65 235.08 279.63 232.51 279.62 229.94 C279.61 229.04 279.6 228.15 279.6 227.22 C279.59 225.94 279.59 225.94 279.59 224.63 C279.58 223.45 279.58 223.45 279.57 222.24 C279.68 220.38 279.68 220.38 280.68 219.38 C283.17 219.28 285.63 219.24 288.12 219.25 C289.29 219.25 289.29 219.25 290.49 219.24 C293.07 219.24 295.66 219.24 298.25 219.25 C300.04 219.25 301.83 219.24 303.62 219.24 C307.37 219.24 311.13 219.24 314.88 219.25 C319.71 219.25 324.54 219.25 329.36 219.24 C333.06 219.24 336.76 219.24 340.45 219.25 C342.23 219.25 344.01 219.24 345.79 219.24 C348.28 219.24 350.76 219.24 353.24 219.25 C353.99 219.25 354.73 219.25 355.49 219.24 C360.57 219.26 360.57 219.26 361.68 220.38 C361.8 221.94 361.8 221.94 361.8 223.98 C361.8 224.74 361.8 225.5 361.8 226.29 C361.79 227.11 361.79 227.94 361.78 228.79 C361.78 230.05 361.78 230.05 361.78 231.34 C361.77 234.04 361.76 236.74 361.75 239.44 C361.74 241.27 361.74 243.09 361.73 244.92 C361.72 249.41 361.7 253.89 361.68 258.38 C358.66 259.89 355.54 259.52 352.22 259.51 C351.07 259.51 351.07 259.51 349.89 259.51 C347.34 259.52 344.79 259.52 342.24 259.51 C340.48 259.51 338.71 259.51 336.94 259.51 C333.24 259.52 329.54 259.51 325.84 259.51 C321.08 259.5 316.32 259.51 311.56 259.51 C307.92 259.52 304.27 259.52 300.62 259.51 C298.87 259.51 297.11 259.51 295.36 259.52 C292.91 259.52 290.46 259.51 288.02 259.51 C286.92 259.51 286.92 259.51 285.8 259.51 C280.8 259.49 280.8 259.49 279.68 258.38 C279.6 257.04 279.58 255.69 279.59 254.34 C279.59 253.53 279.59 252.73 279.6 251.89 C279.6 251.04 279.61 250.19 279.62 249.32 C279.63 248.46 279.63 247.61 279.63 246.73 C279.65 244.61 279.66 242.5 279.68 240.38 C278.22 240.47 278.22 240.47 276.73 240.55 C275.44 240.6 274.16 240.65 272.87 240.69 C272.23 240.73 271.59 240.78 270.92 240.82 C269.04 240.87 269.04 240.87 265.68 240.38 C262.67 236.59 262.32 233.61 262.34 228.84 C262.34 228.21 262.34 227.58 262.34 226.92 C262.34 224.84 262.37 222.76 262.39 220.67 C262.4 219.22 262.4 217.77 262.4 216.32 C262.41 212.52 262.44 208.71 262.48 204.9 C262.51 201.02 262.52 197.13 262.54 193.24 C262.57 185.62 262.62 178 262.68 170.38 C262.08 170.18 261.47 169.98 260.84 169.78 C260.04 169.52 259.23 169.26 258.41 168.98 C257.61 168.73 256.82 168.47 256 168.2 C253.07 167.16 250.42 165.85 247.68 164.38 C247.68 165.23 247.68 165.23 247.68 166.1 C247.39 171.85 246.1 174.88 242.16 179.07 C240.68 180.38 240.68 180.38 238.68 181.38 C239.89 182.15 239.89 182.15 241.12 182.94 C243.3 184.7 244.2 186.07 244.81 188.82 C244.97 190.95 244.86 192.06 243.83 193.94 C241.56 196.53 240.06 197.31 236.62 197.94 C233.68 197.38 233.68 197.38 231.31 195.82 C229.03 192.4 229.31 190.44 229.68 186.38 C230.01 185.72 230.34 185.06 230.68 184.38 C229.59 184.47 229.59 184.47 228.47 184.55 C211.79 185.28 195.97 178.38 180.68 172.38 C179.75 172.02 178.82 171.65 177.86 171.28 C157.52 163.31 137.93 153.93 120.68 140.38 C119.97 139.82 119.97 139.82 119.25 139.25 C114.88 135.8 110.64 132.19 106.39 128.58 C105.26 127.62 104.13 126.65 103 125.69 C102.45 125.23 101.9 124.76 101.34 124.28 C97.24 120.81 93.05 117.51 88.68 114.38 C88.25 115.59 88.25 115.59 87.81 116.82 C86.68 119.38 86.68 119.38 84.68 120.38 C81.49 120.66 79.28 120.63 76.31 119.38 C74.12 116.69 74.11 114.73 74.31 111.32 C74.68 109.38 74.68 109.38 76.18 106.82 C79.82 104.73 82.71 105.49 86.68 106.38 C88.1 99.81 88.1 99.81 86.8 93.41 C85.46 91.7 85.46 91.7 83.77 90.25 C81.68 88.38 81.68 88.38 79.51 86.11 C72.76 79.66 67.6 78.25 58.36 78.31 C56.81 78.35 55.26 78.39 53.71 78.43 C52.09 78.44 50.48 78.45 48.86 78.45 C45.5 78.47 42.14 78.52 38.77 78.59 C34.46 78.68 30.15 78.72 25.83 78.75 C21.71 78.77 17.58 78.82 13.46 78.87 C12.67 78.88 11.89 78.88 11.08 78.89 C8.86 78.92 6.65 78.96 4.44 79.01 C3.78 79.02 3.12 79.02 2.44 79.03 C-1.37 79.06 -1.37 79.06 -4.32 81.38 C-4.71 83.37 -5.05 85.37 -5.32 87.38 C-3.61 87.36 -3.61 87.36 -1.86 87.35 C2.36 87.31 6.59 87.29 10.81 87.27 C12.64 87.26 14.47 87.25 16.3 87.23 C18.92 87.2 21.55 87.19 24.18 87.18 C25 87.17 25.82 87.16 26.66 87.15 C27.42 87.15 28.18 87.15 28.97 87.15 C29.64 87.15 30.31 87.14 31 87.14 C32.68 87.38 32.68 87.38 34.68 89.38 C34.93 91.02 34.93 91.02 34.93 92.99 C34.93 94.09 34.93 94.09 34.94 95.22 C34.93 96.41 34.93 96.41 34.91 97.63 C34.91 98.45 34.91 99.26 34.91 100.11 C34.91 101.83 34.9 103.56 34.89 105.28 C34.87 107.93 34.87 110.59 34.87 113.24 C34.86 114.91 34.86 116.58 34.85 118.26 C34.85 119.06 34.85 119.85 34.85 120.68 C34.8 126.26 34.8 126.26 33.68 127.38 C31.19 127.48 28.73 127.52 26.24 127.51 C25.46 127.51 24.68 127.51 23.88 127.51 C21.3 127.52 18.71 127.52 16.12 127.51 C14.33 127.51 12.54 127.51 10.75 127.51 C7 127.52 3.24 127.51 -0.52 127.51 C-5.34 127.5 -10.17 127.51 -14.99 127.51 C-18.69 127.52 -22.39 127.52 -26.09 127.51 C-27.87 127.51 -29.65 127.51 -31.43 127.52 C-33.91 127.52 -36.39 127.51 -38.88 127.51 C-39.99 127.51 -39.99 127.51 -41.13 127.51 C-46.2 127.49 -46.2 127.49 -47.32 126.38 C-47.44 124.82 -47.44 124.82 -47.45 122.79 C-47.45 122.04 -47.45 121.28 -47.46 120.5 C-47.45 119.67 -47.45 118.85 -47.45 118 C-47.45 117.16 -47.45 116.32 -47.45 115.46 C-47.45 113.68 -47.45 111.9 -47.45 110.12 C-47.44 107.39 -47.45 104.66 -47.45 101.93 C-47.45 100.2 -47.45 98.48 -47.45 96.75 C-47.45 95.52 -47.45 95.52 -47.46 94.26 C-47.45 93.12 -47.45 93.12 -47.45 91.96 C-47.44 90.96 -47.44 90.96 -47.44 89.94 C-47.32 88.38 -47.32 88.38 -46.32 87.38 C-44.72 87.26 -44.72 87.26 -42.62 87.27 C-41.45 87.27 -41.45 87.27 -40.26 87.27 C-38.99 87.27 -38.99 87.27 -37.69 87.28 C-36.39 87.28 -36.39 87.28 -35.07 87.29 C-32.3 87.29 -29.53 87.3 -26.75 87.32 C-24.88 87.32 -23.01 87.33 -21.13 87.33 C-16.53 87.34 -11.92 87.36 -7.32 87.38 C-7.47 86.05 -7.47 86.05 -7.63 84.69 C-7.29 81.07 -6.46 79.87 -3.84 77.42 C-1.24 75.64 1.46 75.68 4.49 75.72 C5.16 75.71 5.82 75.7 6.51 75.69 C8.69 75.66 10.87 75.67 13.05 75.67 C14.56 75.66 16.08 75.64 17.6 75.63 C21.58 75.59 25.57 75.58 29.55 75.57 C33.62 75.56 37.69 75.53 41.76 75.49 C49.73 75.43 57.71 75.39 65.68 75.38 C62.72 73.17 59.75 70.97 56.78 68.77 C55.95 68.16 55.12 67.54 54.27 66.91 C34.12 52.01 13.27 39.92 -11.53 35.18 C-13.2 34.85 -13.2 34.85 -14.91 34.52 C-17.14 34.1 -19.37 33.69 -21.61 33.3 C-27.43 32.23 -31.77 31.25 -36.32 27.38 C-38.19 24.63 -38.19 24.63 -39.32 22.38 C-39.98 23.04 -40.64 23.7 -41.32 24.38 C-45.37 24.83 -47.31 25.02 -50.75 22.82 C-52.54 20.03 -52.97 18.34 -52.76 15.07 C-52.32 13.38 -52.32 13.38 -50.25 10.88 C-46.95 9.19 -45.43 9.08 -41.9 9.82 C-39.81 10.56 -38.63 11.61 -37.32 13.38 C-36.42 12.42 -36.42 12.42 -35.5 11.44 C-32.23 8.35 -29.2 8.05 -24.78 8.08 C-20.61 8.59 -16.79 10.07 -12.86 11.5 C-10.45 12.49 -10.45 12.49 -8.32 12.38 C-8.81 11.39 -8.81 11.39 -9.32 10.38 C-9.7 6.84 -9.74 5.02 -7.75 2 C-4.94 0.13 -3.32 -0.22 0 0 Z M20.68 29.38 C23.03 31.2 25.32 32.82 27.97 34.18 C28.58 34.49 29.18 34.81 29.81 35.13 C30.45 35.46 31.09 35.79 31.75 36.13 C48.64 45.01 63.88 56.4 78.68 68.38 C79.54 69.07 79.54 69.07 80.42 69.77 C87.86 75.8 94.52 82.04 100.68 89.38 C101.38 88.55 102.09 87.73 102.81 86.88 C104.96 84.74 105.6 84.4 108.75 83.82 C111.68 84.38 111.68 84.38 114.12 85.94 C116.04 88.94 115.96 90.43 115.22 93.83 C114.68 95.38 114.68 95.38 113.5 96.82 C109.71 97.99 106.39 97.61 102.68 96.38 C102.02 99.68 101.36 102.98 100.68 106.38 C101.28 106.87 101.88 107.35 102.49 107.86 C103.36 108.56 104.23 109.27 105.12 110 C105.61 110.4 106.09 110.79 106.59 111.2 C109.61 113.66 112.6 116.15 115.57 118.67 C132.96 133.38 151.48 145.79 172.86 153.86 C175.9 155.02 178.82 156.37 181.77 157.76 C188.23 160.72 194.87 162.93 201.62 165.13 C202.84 165.53 204.05 165.93 205.27 166.34 C218.23 170.79 218.23 170.79 231.62 169.44 C234.28 166.79 234.85 164.31 235.86 160.74 C237.12 157.12 239.28 154.33 241.68 151.38 C241.04 151.09 240.4 150.8 239.75 150.5 C237.68 149.38 237.68 149.38 236.68 147.38 C236.18 142.81 236.18 142.81 236.68 140.38 C238.87 138.38 238.87 138.38 241.68 137.38 C244.51 137.51 246.14 138.05 248.56 139.5 C250.12 142.1 249.63 143.86 249.11 146.76 C248.68 148.38 248.68 148.38 247.68 150.38 C248.51 150.65 249.33 150.92 250.18 151.19 C259.19 154.22 267.49 158.14 275.93 162.49 C282.85 166 288.87 168.5 296.68 168.88 C297.71 168.95 298.75 169.02 299.81 169.1 C304.07 168.76 307.15 166.39 310.7 164.16 C317.02 160.35 323.84 158.73 330.93 156.94 C332.28 156.59 333.62 156.24 334.96 155.88 C338.2 155.03 341.44 154.2 344.68 153.38 C344.44 152.45 344.44 152.45 344.2 151.49 C343.41 148.24 343.38 145.73 343.68 142.38 C345.75 140 347.12 139.49 350.18 138.88 C352.68 139.38 352.68 139.38 355.06 141.5 C356.68 144.38 356.68 144.38 356.5 147.5 C355.94 149.48 355.33 151.43 354.68 153.38 C355.61 153.81 356.54 154.25 357.5 154.69 C360.07 155.89 361.71 157.35 363.68 159.38 C371.25 157.38 378.14 154.53 385.18 151.13 C386.15 150.68 387.12 150.22 388.12 149.76 C397.67 145.18 406.03 139.8 413.06 131.82 C413.55 131.28 414.05 130.74 414.55 130.19 C420.15 124.46 420.15 124.46 422.68 117.38 C420.2 118.48 418.36 119.65 416.25 121.38 C413.76 123.32 411.64 124.36 408.68 125.38 C408.75 127.02 408.75 127.02 408.81 128.69 C408.79 130.77 408.72 132.27 408.06 134.25 C405.71 136.17 403.66 136.26 400.68 136.38 C397.81 135.38 397.81 135.38 395.68 133.38 C394.94 128.9 394.94 128.9 395.68 126.38 C396.96 124.67 398.29 122.99 399.68 121.38 C398.81 120.88 397.94 120.39 397.04 119.88 C396.47 119.55 395.9 119.22 395.32 118.89 C394.04 118.16 392.77 117.44 391.5 116.72 C388.52 115.03 385.57 113.33 382.68 111.5 C377.23 108.11 371.92 105.53 365.88 103.41 C365.14 103.15 364.4 102.89 363.64 102.62 C356.42 100.17 349.11 98.48 341.65 96.97 C339.28 96.49 336.92 95.99 334.55 95.49 C332.07 94.97 329.59 94.45 327.1 93.93 C318.47 92.14 309.86 90.24 301.25 88.32 C300.14 88.07 300.14 88.07 299.01 87.82 C286.88 85.13 274.78 82.33 262.69 79.46 C262.1 79.32 261.5 79.18 260.89 79.03 C259.29 78.66 257.69 78.28 256.09 77.89 C253.77 77.31 253.77 77.31 251.68 77.38 C251.71 77.99 251.73 78.61 251.75 79.24 C251.77 80.05 251.79 80.86 251.81 81.69 C251.83 82.49 251.86 83.29 251.88 84.12 C251.67 86.56 251.4 87.63 249.68 89.38 C243.85 90.02 243.85 90.02 240.75 88.32 C239.13 85.37 239.12 82.66 239.68 79.38 C240.81 77.5 240.81 77.5 242.68 76.38 C245.87 75.69 245.87 75.69 248.68 75.38 C248.09 72.43 247.3 69.93 245.68 67.38 C242.78 65.72 239.75 65.27 236.48 64.73 C235.08 64.45 235.08 64.45 233.66 64.16 C230.59 63.56 227.51 63 224.43 62.44 C222.28 62.02 220.13 61.6 217.99 61.18 C214.71 60.53 211.43 59.88 208.15 59.24 C199.21 57.51 190.35 55.54 181.5 53.43 C163.85 49.23 146.13 45.44 128.38 41.74 C119.39 39.86 110.51 37.92 101.68 35.38 C90.65 32.49 79.77 31.81 68.4 31.54 C66.05 31.4 63.75 31.16 61.42 30.89 C56.92 30.37 52.46 30.16 47.93 30.06 C47.14 30.04 46.36 30.02 45.55 30 C43.07 29.93 40.6 29.88 38.12 29.82 C36.43 29.77 34.73 29.73 33.04 29.69 C28.92 29.58 24.8 29.48 20.68 29.38 Z " fill="#1D1C26" transform="translate(83.31640625,32.62109375)"/><path d="M0 0 C0.99 0.99 0.99 0.99 2 2 C1.34 2.52 0.68 3.03 0 3.56 C-2 6 -2.37 6.59 -2.56 9.56 C-2.34 13.08 -2.34 13.08 0.12 15 C3.6 16.21 5.5 16.09 9 15 C10.54 13.95 10.54 13.95 11 12 C11.15 9.64 11.09 7.37 11 5 C11.53 4.76 12.06 4.52 12.61 4.27 C16.79 2.28 19.81 0.43 23 -3 C23.66 -3 24.32 -3 25 -3 C23.47 1.9 20.63 5.15 17.31 8.94 C16.81 9.53 16.3 10.13 15.78 10.74 C9.39 18.14 2.71 23.06 -6 27.5 C-6.92 27.97 -7.84 28.45 -8.78 28.93 C-14.3 31.73 -19.85 34.42 -25.56 36.81 C-26.16 37.07 -26.76 37.33 -27.38 37.6 C-30.03 38.65 -31.52 39.16 -34.27 38.23 C-35.55 37.32 -36.81 36.39 -38.06 35.44 C-40.04 33.81 -40.04 33.81 -43 33 C-42.65 32.3 -42.3 31.6 -41.94 30.88 C-40.81 27.42 -41.02 25.48 -42 22 C-42.98 19.94 -42.98 19.94 -45 19 C-47.43 18.97 -49.68 19.26 -52 20 C-54.37 21.93 -54.37 21.93 -54.19 25.38 C-54.16 28.06 -53.67 30.4 -53 33 C-53.82 33.21 -54.63 33.41 -55.47 33.62 C-58.56 34.41 -61.65 35.22 -64.73 36.03 C-66.05 36.38 -67.38 36.72 -68.7 37.05 C-77.1 39.17 -84.05 41.73 -91.27 46.56 C-97.19 49.69 -103.69 48.86 -109.98 47.22 C-115.54 45.31 -120.83 42.79 -126 40 C-125.63 38.08 -125.63 38.08 -125 36 C-122.94 34.75 -122.94 34.75 -121 34 C-121.66 33.34 -122.32 32.68 -123 32 C-122.34 31.34 -121.68 30.68 -121 30 C-121 29.34 -121 28.68 -121 28 C-119.68 27.34 -118.36 26.68 -117 26 C-117 25.34 -117 24.68 -117 24 C-115.68 23.34 -114.36 22.68 -113 22 C-113.66 21.34 -114.32 20.68 -115 20 C-113.68 19.34 -112.36 18.68 -111 18 C-111.66 17.34 -112.32 16.68 -113 16 C-111.68 15.34 -110.36 14.68 -109 14 C-109 13.34 -109 12.68 -109 12 C-107.68 11.34 -106.36 10.68 -105 10 C-105 9.34 -105 8.68 -105 8 C-104.34 7.34 -103.68 6.68 -103 6 C-103 5.34 -103 4.68 -103 4 C-101.68 3.34 -100.36 2.68 -99 2 C-99 1.34 -99 0.68 -99 0 C-98.34 -0.66 -97.68 -1.32 -97 -2 C-97 -2.66 -97 -3.32 -97 -4 C-95.68 -4.66 -94.36 -5.32 -93 -6 C-93 -6.66 -93 -7.32 -93 -8 C-91.68 -8.66 -90.36 -9.32 -89 -10 C-89 -10.66 -89 -11.32 -89 -12 C-87.68 -12.66 -86.36 -13.32 -85 -14 C-85 -14.66 -85 -15.32 -85 -16 C-83.68 -16.66 -82.36 -17.32 -81 -18 C-81 -18.66 -81 -19.32 -81 -20 C-79.68 -20.66 -78.36 -21.32 -77 -22 C-77 -22.66 -77 -23.32 -77 -24 C-50.32 -28.37 -21.48 -14.58 0 0 Z " fill="#EEEBFB" transform="translate(481,153)"/><path d="M0 0 C2.62 0.94 2.62 0.94 5 2 C5 3.65 5 5.3 5 7 C2.69 8.12 2.69 8.12 0 9 C-1.81 8.25 -1.81 8.25 -3 7 C-3 6.34 -3 5.68 -3 5 C-13.14 5.08 -23.27 5.18 -33.41 5.29 C-38.11 5.34 -42.82 5.38 -47.52 5.42 C-52.06 5.46 -56.6 5.51 -61.14 5.56 C-62.87 5.58 -64.61 5.59 -66.34 5.6 C-68.77 5.62 -71.19 5.65 -73.61 5.68 C-74.33 5.68 -75.06 5.69 -75.8 5.69 C-79.85 5.64 -79.85 5.64 -83 8 C-83.4 9.99 -83.74 11.99 -84 14 C-82.29 13.98 -82.29 13.98 -80.54 13.97 C-76.32 13.93 -72.1 13.91 -67.87 13.89 C-66.05 13.88 -64.22 13.87 -62.39 13.85 C-59.76 13.82 -57.13 13.81 -54.51 13.8 C-53.69 13.79 -52.87 13.78 -52.02 13.77 C-51.26 13.77 -50.5 13.77 -49.72 13.77 C-49.04 13.77 -48.37 13.76 -47.68 13.76 C-46 14 -46 14 -44 16 C-43.75 17.64 -43.75 17.64 -43.76 19.61 C-43.75 20.71 -43.75 20.71 -43.75 21.84 C-43.76 23.04 -43.76 23.04 -43.77 24.25 C-43.77 25.07 -43.77 25.89 -43.77 26.73 C-43.77 28.45 -43.78 30.18 -43.79 31.9 C-43.81 34.56 -43.81 37.21 -43.81 39.86 C-43.82 41.53 -43.83 43.21 -43.83 44.88 C-43.83 45.68 -43.83 46.47 -43.84 47.3 C-43.88 52.88 -43.88 52.88 -45 54 C-47.49 54.1 -49.95 54.14 -52.44 54.13 C-53.61 54.13 -53.61 54.13 -54.8 54.13 C-57.39 54.14 -59.98 54.14 -62.56 54.13 C-64.35 54.13 -66.14 54.13 -67.93 54.14 C-71.69 54.14 -75.44 54.14 -79.2 54.13 C-84.03 54.12 -88.85 54.13 -93.68 54.13 C-97.37 54.14 -101.07 54.14 -104.77 54.13 C-106.55 54.13 -108.33 54.13 -110.11 54.14 C-112.59 54.14 -115.08 54.13 -117.56 54.13 C-118.67 54.13 -118.67 54.13 -119.81 54.14 C-124.89 54.11 -124.89 54.11 -126 53 C-126.13 51.44 -126.13 51.44 -126.13 49.41 C-126.13 48.66 -126.14 47.9 -126.14 47.12 C-126.14 46.3 -126.13 45.47 -126.13 44.62 C-126.13 43.79 -126.13 42.95 -126.14 42.08 C-126.14 40.3 -126.13 38.52 -126.13 36.74 C-126.13 34.01 -126.13 31.28 -126.14 28.55 C-126.14 26.82 -126.13 25.1 -126.13 23.38 C-126.13 22.55 -126.14 21.73 -126.14 20.88 C-126.14 20.12 -126.13 19.37 -126.13 18.59 C-126.13 17.92 -126.13 17.25 -126.13 16.56 C-126 15 -126 15 -125 14 C-123.4 13.88 -123.4 13.88 -121.31 13.89 C-120.14 13.89 -120.14 13.89 -118.94 13.89 C-117.67 13.89 -117.67 13.89 -116.37 13.9 C-115.07 13.9 -115.07 13.9 -113.75 13.91 C-110.98 13.91 -108.21 13.92 -105.44 13.94 C-103.56 13.94 -101.69 13.95 -99.81 13.95 C-95.21 13.96 -90.6 13.98 -86 14 C-86.15 12.67 -86.15 12.67 -86.31 11.31 C-85.97 7.69 -85.14 6.48 -82.52 4.04 C-79.9 2.26 -77.18 2.34 -74.13 2.42 C-73.46 2.41 -72.79 2.41 -72.1 2.41 C-69.89 2.41 -67.69 2.44 -65.48 2.48 C-63.94 2.48 -62.39 2.49 -60.85 2.49 C-56.79 2.5 -52.73 2.55 -48.67 2.6 C-45.38 2.63 -42.08 2.65 -38.78 2.66 C-34.82 2.67 -30.87 2.7 -26.92 2.73 C-25.8 2.73 -25.8 2.73 -24.66 2.74 C-10.14 2.85 -10.14 2.85 -3 4 C-2.67 3.01 -2.34 2.02 -2 1 C-1.34 0.67 -0.68 0.34 0 0 Z " fill="#20C30F" transform="translate(162,106)"/><path d="M0 0 C2.96 0.67 4.07 1.86 5.68 4.38 C6.2 6.97 6.03 8.66 5.68 11.38 C4.16 13.09 4.16 13.09 2.68 14.38 C3.83 14.4 4.97 14.43 6.15 14.45 C10.42 14.55 14.69 14.65 18.96 14.75 C20.81 14.79 22.65 14.84 24.49 14.88 C27.15 14.93 29.81 15 32.47 15.06 C33.29 15.08 34.1 15.1 34.94 15.11 C38.44 15.2 41.86 15.35 45.32 15.88 C48.79 16.4 52.21 16.6 55.71 16.7 C56.34 16.72 56.98 16.74 57.63 16.76 C59.63 16.82 61.62 16.88 63.62 16.94 C64.99 16.98 66.35 17.03 67.72 17.07 C71.04 17.18 74.36 17.28 77.68 17.38 C76.69 16.39 76.69 16.39 75.68 15.38 C75.23 11.33 75.04 9.39 77.25 5.94 C80.04 4.15 81.73 3.72 85 3.93 C86.68 4.38 86.68 4.38 89.18 6.44 C91.22 10.42 90.81 12.1 89.68 16.38 C89.02 17.04 88.36 17.7 87.68 18.38 C134.81 29.36 134.81 29.36 182.15 39.39 C189.39 40.86 196.54 42.53 203.68 44.38 C202.31 47.33 200.69 49.82 198.68 52.38 C197.93 52.2 197.17 52.03 196.39 51.85 C176.8 47.34 157.2 42.9 137.59 38.49 C135.05 37.92 132.52 37.35 129.99 36.78 C121.89 34.96 113.79 33.15 105.68 31.38 C104.73 31.17 103.78 30.96 102.8 30.74 C92.13 28.4 81.69 26.71 70.78 26.17 C68.69 26.06 66.61 25.94 64.52 25.81 C63.17 25.73 61.82 25.65 60.47 25.58 C59.86 25.54 59.25 25.51 58.62 25.47 C55.14 25.3 52.06 25.54 48.68 26.38 C49.18 24.89 49.18 24.89 49.68 23.38 C48.36 23.38 47.04 23.38 45.68 23.38 C45.35 24.04 45.02 24.7 44.68 25.38 C40.68 25.38 36.68 25.38 32.68 25.38 C32.68 24.06 32.68 22.74 32.68 21.38 C31.03 21.38 29.38 21.38 27.68 21.38 C27.68 22.04 27.68 22.7 27.68 23.38 C28.34 23.38 29 23.38 29.68 23.38 C29.35 24.04 29.02 24.7 28.68 25.38 C24.39 25.05 20.1 24.72 15.68 24.38 C16.01 23.72 16.34 23.06 16.68 22.38 C16.02 22.05 15.36 21.72 14.68 21.38 C14.68 22.04 14.68 22.7 14.68 23.38 C3.16 23.85 -6.4 23.25 -17.32 19.38 C-21.57 17.87 -24.78 17.16 -29.32 17.38 C-29.65 18.7 -29.98 20.02 -30.32 21.38 C-23.84 23.47 -17.36 25.06 -10.7 26.42 C1.32 28.88 12.66 31.84 23.68 37.38 C24.4 37.74 25.12 38.1 25.86 38.47 C44.28 47.89 60.61 60.47 76.68 73.38 C76.35 74.7 76.02 76.02 75.68 77.38 C71.51 77.82 68.05 78.08 64.58 75.46 C63.54 74.58 62.51 73.67 61.5 72.75 C40.65 55.26 17.41 41.46 -9.33 35.89 C-9.95 35.76 -10.57 35.63 -11.22 35.5 C-14.36 34.84 -17.5 34.21 -20.65 33.61 C-33.83 31.03 -33.83 31.03 -38.19 24.63 C-38.56 23.89 -38.93 23.14 -39.32 22.38 C-39.98 23.04 -40.64 23.7 -41.32 24.38 C-45.37 24.83 -47.31 25.02 -50.75 22.82 C-52.54 20.03 -52.97 18.34 -52.76 15.07 C-52.32 13.38 -52.32 13.38 -50.25 10.88 C-46.95 9.19 -45.43 9.08 -41.9 9.82 C-39.81 10.56 -38.63 11.61 -37.32 13.38 C-36.42 12.42 -36.42 12.42 -35.5 11.44 C-32.23 8.35 -29.2 8.05 -24.78 8.08 C-20.61 8.59 -16.79 10.07 -12.86 11.5 C-10.45 12.49 -10.45 12.49 -8.32 12.38 C-8.81 11.39 -8.81 11.39 -9.32 10.38 C-9.7 6.84 -9.74 5.02 -7.75 2 C-4.94 0.13 -3.32 -0.22 0 0 Z " fill="#332F24" transform="translate(83.31640625,32.62109375)"/><path d="M0 0 C2.56 0.19 2.56 0.19 4.56 2.19 C4.19 4.81 4.19 4.81 3.56 7.19 C2.57 7.52 1.58 7.85 0.56 8.19 C0.56 9.18 0.56 10.17 0.56 11.19 C1.22 11.52 1.88 11.85 2.56 12.19 C1.9 12.19 1.24 12.19 0.56 12.19 C0.67 20.22 0.78 28.25 0.9 36.28 C0.96 40.01 1.01 43.74 1.06 47.47 C1.11 51.07 1.16 54.67 1.22 58.27 C1.24 59.64 1.25 61.01 1.27 62.39 C1.3 64.31 1.33 66.23 1.36 68.16 C1.37 69.25 1.39 70.35 1.4 71.47 C1.45 74.28 1.45 74.28 2.56 77.19 C5.26 78.54 7.68 78.53 10.69 78.75 C12.33 78.88 12.33 78.88 14.01 79 C14.85 79.06 15.69 79.13 16.56 79.19 C16.55 78.33 16.55 78.33 16.55 77.46 C16.53 74.89 16.51 72.32 16.5 69.75 C16.49 68.85 16.48 67.95 16.47 67.03 C16.47 65.75 16.47 65.75 16.46 64.44 C16.46 63.26 16.46 63.26 16.45 62.05 C16.56 60.19 16.56 60.19 17.56 59.19 C20.05 59.09 22.51 59.05 25 59.06 C26.17 59.06 26.17 59.06 27.36 59.05 C29.95 59.05 32.54 59.05 35.12 59.05 C36.91 59.05 38.7 59.05 40.49 59.05 C44.25 59.05 48.01 59.05 51.76 59.06 C56.59 59.06 61.41 59.06 66.24 59.05 C69.94 59.05 73.63 59.05 77.33 59.05 C79.11 59.05 80.89 59.05 82.67 59.05 C85.15 59.05 87.64 59.05 90.12 59.06 C90.86 59.06 91.61 59.05 92.37 59.05 C97.45 59.07 97.45 59.07 98.56 60.19 C98.68 61.75 98.68 61.75 98.68 63.79 C98.68 64.93 98.68 64.93 98.68 66.09 C98.67 66.92 98.67 67.75 98.66 68.6 C98.66 69.44 98.66 70.28 98.66 71.15 C98.65 73.85 98.64 76.55 98.62 79.25 C98.62 81.08 98.62 82.9 98.61 84.73 C98.6 89.21 98.58 93.7 98.56 98.19 C95.54 99.7 92.41 99.33 89.1 99.32 C87.95 99.32 87.95 99.32 86.77 99.32 C84.22 99.33 81.67 99.32 79.12 99.32 C77.36 99.32 75.59 99.32 73.82 99.32 C70.12 99.32 66.42 99.32 62.71 99.32 C57.96 99.31 53.2 99.32 48.44 99.32 C44.8 99.33 41.15 99.32 37.5 99.32 C35.75 99.32 33.99 99.32 32.24 99.32 C29.79 99.33 27.34 99.32 24.9 99.32 C23.8 99.32 23.8 99.32 22.68 99.32 C17.68 99.3 17.68 99.3 16.56 98.19 C16.48 96.84 16.46 95.5 16.46 94.15 C16.47 93.34 16.47 92.53 16.47 91.7 C16.48 90.85 16.49 90 16.5 89.12 C16.5 88.27 16.51 87.42 16.51 86.54 C16.53 84.42 16.54 82.3 16.56 80.19 C15.59 80.25 14.61 80.3 13.61 80.36 C12.32 80.41 11.04 80.46 9.75 80.5 C9.11 80.54 8.46 80.58 7.8 80.63 C5.92 80.68 5.92 80.68 2.56 80.19 C-0.42 76.45 -0.88 73.1 -0.87 68.47 C-0.88 67.82 -0.89 67.16 -0.9 66.49 C-0.93 64.34 -0.94 62.19 -0.95 60.04 C-0.97 58.55 -0.98 57.05 -1 55.56 C-1.05 51.63 -1.08 47.71 -1.11 43.79 C-1.14 39.78 -1.18 35.77 -1.23 31.76 C-1.31 23.9 -1.38 16.05 -1.44 8.19 C-2.1 7.86 -2.76 7.53 -3.44 7.19 C-3.48 5.19 -3.48 3.19 -3.44 1.19 C-2.44 0.19 -2.44 0.19 0 0 Z " fill="#1BC10A" transform="translate(346.4375,192.8125)"/><path d="M0 0 C2.31 -0.19 2.31 -0.19 5 0 C5.45 0.52 5.91 1.03 6.38 1.56 C6.91 2.04 7.45 2.51 8 3 C9.05 2.73 10.1 2.46 11.19 2.19 C13.03 1.82 13.03 1.82 15 2 C19.97 5.48 24.04 10.24 26 16 C26.67 20.81 25.61 24.43 24 29 C30.33 34.87 36.73 40.52 43.53 45.83 C45.24 47.19 46.92 48.57 48.61 49.95 C54.96 55.14 61.1 60.03 68.34 63.91 C68.89 64.27 69.44 64.63 70 65 C70 65.66 70 66.32 70 67 C71.65 66.67 73.3 66.34 75 66 C75.33 66.99 75.66 67.98 76 69 C77.32 69 78.64 69 80 69 C80 69.33 80 69.66 80 70 C80.91 70.21 81.81 70.41 82.75 70.62 C88.5 72.24 93.73 75.25 99 78 C99 79.32 99 80.64 99 82 C99.66 81.67 100.32 81.34 101 81 C101.99 80.67 102.98 80.34 104 80 C104.33 80.99 104.66 81.98 105 83 C106.84 83.64 106.84 83.64 109 84 C110.47 84.54 111.93 85.09 113.39 85.67 C137.52 96.39 137.52 96.39 163.06 95.94 C166.24 94.3 167.24 92.21 168.39 88.91 C168.59 88.28 168.79 87.65 169 87 C169.48 85.72 169.98 84.45 170.5 83.19 C170.72 82.62 170.93 82.06 171.16 81.48 C172.19 79.66 173.16 78.96 175 78 C180.57 77.22 184.3 79.33 189 82 C189 84.31 189 86.62 189 89 C189.99 89.33 190.98 89.66 192 90 C192 90.66 192 91.32 192 92 C186.76 90.36 181.84 88.61 177 86 C177 86.57 176.99 87.14 176.99 87.72 C176.7 93.47 175.41 96.5 171.47 100.69 C170 102 170 102 168 103 C169.21 103.77 169.21 103.77 170.44 104.56 C172.62 106.32 173.52 107.69 174.12 110.44 C174.29 112.57 174.18 113.68 173.14 115.56 C170.87 118.15 169.37 118.93 165.94 119.56 C163 119 163 119 160.62 117.44 C158.34 114.02 158.62 112.07 159 108 C159.33 107.34 159.66 106.68 160 106 C159.27 106.06 158.54 106.12 157.79 106.18 C141.11 106.9 125.28 100 110 94 C109.07 93.64 108.14 93.28 107.18 92.9 C86.84 84.93 67.25 75.56 50 62 C49.53 61.63 49.05 61.26 48.56 60.87 C44.2 57.42 39.95 53.81 35.71 50.2 C34.58 49.24 33.45 48.28 32.31 47.31 C31.76 46.85 31.22 46.38 30.65 45.9 C26.56 42.43 22.37 39.13 18 36 C17.57 37.21 17.57 37.21 17.12 38.44 C16 41 16 41 14 42 C10.81 42.28 8.59 42.25 5.62 41 C3.44 38.31 3.42 36.35 3.62 32.95 C4 31 4 31 5.5 28.44 C9.14 26.35 12.03 27.11 16 28 C17.41 21.43 17.41 21.43 16.12 15.03 C14.54 13.12 12.9 11.59 11 10 C10.55 9.62 10.1 9.24 9.63 8.85 C7.18 6.8 4.71 4.79 2.2 2.82 C1.47 2.22 0.75 1.62 0 1 C0 0.67 0 0.34 0 0 Z " fill="#1D1E28" transform="translate(154,111)"/><path d="M0 0 C1.47 -0 1.47 -0 2.96 -0.01 C4.03 -0.01 5.09 -0.01 6.19 -0 C7.81 -0 7.81 -0 9.47 -0.01 C12.36 -0.01 15.24 -0 18.13 0 C19.9 0 21.68 0 23.45 -0 C26.84 -0.01 30.23 -0.01 33.62 -0 C34.69 -0.01 35.75 -0.01 36.85 -0.01 C37.82 -0.01 38.8 -0 39.81 0 C40.67 0 41.54 0 42.43 0 C44.4 0.13 44.4 0.13 45.4 1.13 C45.5 3.2 45.54 5.24 45.54 7.32 C45.54 7.93 45.54 8.55 45.54 9.19 C45.54 10.5 45.54 11.8 45.53 13.11 C45.53 15.12 45.53 17.13 45.54 19.14 C45.54 20.41 45.54 21.67 45.54 22.94 C45.54 23.55 45.54 24.15 45.54 24.77 C45.52 29.01 45.52 29.01 44.4 30.13 C42.62 30.22 40.84 30.24 39.06 30.23 C37.98 30.22 36.9 30.22 35.79 30.22 C34.65 30.21 33.51 30.2 32.34 30.19 C31.2 30.19 30.06 30.18 28.89 30.18 C26.06 30.17 23.23 30.15 20.4 30.13 C20.5 35.22 20.6 40.31 20.72 45.4 C20.76 47.13 20.79 48.87 20.83 50.6 C20.87 53.09 20.93 55.57 20.99 58.06 C21 58.84 21.01 59.61 21.03 60.41 C21.05 61.13 21.06 61.86 21.09 62.6 C21.1 63.23 21.11 63.87 21.13 64.52 C21.29 66.4 21.29 66.4 23.4 68.13 C23.03 70.75 23.03 70.75 22.4 73.13 C20.03 73.75 20.03 73.75 17.4 74.13 C16.74 73.47 16.08 72.81 15.4 72.13 C15.73 68.83 16.03 67.51 18.4 65.13 C18.65 62.48 18.78 59.93 18.82 57.28 C18.84 56.5 18.86 55.73 18.88 54.93 C18.94 52.46 18.98 49.98 19.03 47.5 C19.07 45.83 19.11 44.15 19.15 42.47 C19.24 38.36 19.32 34.24 19.4 30.13 C11.15 30.13 2.9 30.13 -5.6 30.13 C-5.62 26.02 -5.64 21.91 -5.65 17.79 C-5.66 16.39 -5.66 14.99 -5.67 13.59 C-5.68 11.59 -5.69 9.58 -5.69 7.57 C-5.7 6.94 -5.7 6.31 -5.71 5.66 C-5.71 4.15 -5.66 2.64 -5.6 1.13 C-3.98 -0.48 -2.23 0 0 0 Z " fill="#FE01FE" transform="translate(267.595703125,13.87060546875)"/><path d="M0 0 C0.97 0.29 1.94 0.58 2.94 0.88 C9.87 2.85 16.95 4.21 24.03 5.54 C26 6 26 6 27 7 C28.24 6.94 28.24 6.94 29.5 6.88 C33.21 6.8 36.24 8.03 39.7 9.27 C42.51 10.16 45.19 10.47 48.11 10.76 C50.53 11.07 52.76 11.75 55.09 12.46 C57.37 13.1 59.67 13.55 62 14 C64.95 14.57 67.82 15.19 70.69 16.06 C73.13 16.75 75.2 17.2 77.69 17.5 C81 18 81 18 82.91 19 C85.31 20.15 87.16 20.33 89.81 20.5 C94.15 20.86 97.85 21.72 102 23 C104 23.35 106 23.68 108 24 C109.49 24.5 109.49 24.5 111 25 C111.33 17.08 111.66 9.16 112 1 C112.33 1 112.66 1 113 1 C113 11.89 113 22.78 113 34 C105.64 32.77 98.37 31.53 91.09 29.97 C90.19 29.78 89.28 29.58 88.34 29.39 C85.4 28.76 82.45 28.13 79.5 27.5 C78.48 27.28 77.47 27.07 76.42 26.84 C59.1 23.15 41.83 19.29 24.58 15.31 C14.75 13.05 4.91 10.91 -5 9 C-4.36 8.22 -3.71 7.45 -3.05 6.64 C-1.18 4.23 -0.44 2.94 0 0 Z " fill="#DEEEDF" transform="translate(174,43)"/><path d="M0 0 C5.95 0.55 11.68 1.46 17.5 2.81 C18.64 3.07 18.64 3.07 19.81 3.34 C21.4 3.7 22.99 4.07 24.58 4.44 C27.02 5 29.47 5.56 31.91 6.12 C33.46 6.47 35.01 6.83 36.56 7.19 C37.29 7.35 38.03 7.52 38.78 7.69 C43.88 8.88 43.88 8.88 45 10 C45.45 12.32 45.7 14.65 46 17 C57.3 19.9 68.65 22.54 80.04 25.06 C82.95 25.7 85.86 26.35 88.77 27 C98.75 29.21 108.74 31.38 118.75 33.48 C119.69 33.67 120.64 33.87 121.61 34.08 C126.08 35.02 130.55 35.95 135.03 36.87 C147.99 39.56 160.8 42.68 172.44 49.19 C173.13 49.56 173.82 49.94 174.54 50.32 C180.45 53.56 186.15 57.14 191.74 60.9 C194.43 62.67 196.49 63.9 199.68 64.53 C203.69 63.62 205.84 60.62 208.62 57.75 C211.65 55.52 213.32 55.52 217 56 C219.38 57.15 220.68 58.73 222 61 C223 63.92 222.87 66.05 222 69 C219.67 72.97 216.93 76.45 214 80 C213.41 80.75 212.81 81.49 212.2 82.26 C209.37 85.72 209.37 85.72 208 87 C207.34 87 206.68 87 206 87 C207.67 83.04 210.29 80.1 213.06 76.88 C217.78 71.65 217.78 71.65 219.19 65 C219.2 64.3 219.22 63.6 219.23 62.88 C219.17 60.75 219.17 60.75 217 59 C214.26 58.16 214.26 58.16 211 59 C208.85 60.96 206.99 63.02 205.12 65.25 C202.24 67.63 200.68 67.34 197 67 C194.28 65.73 194.28 65.73 191.51 63.96 C190.47 63.32 189.44 62.67 188.4 62.02 C187.87 61.68 187.33 61.34 186.78 60.99 C183.98 59.21 181.14 57.49 178.3 55.78 C177.75 55.44 177.19 55.1 176.62 54.76 C152.27 40.08 121.9 36.86 94.49 31.07 C73.46 26.63 73.46 26.63 63.86 24.5 C62.55 24.21 61.25 23.93 59.94 23.65 C58.16 23.26 56.39 22.87 54.62 22.47 C53.64 22.26 52.67 22.04 51.67 21.82 C48.42 20.82 45.43 19.43 43 17 C42.96 15 42.96 13 43 11 C42.34 10.87 41.67 10.74 40.99 10.6 C27.29 7.9 13.62 5.11 0 2 C0 1.34 0 0.68 0 0 Z " fill="#F0C601" transform="translate(292,85)"/><path d="M0 0 C4.62 0 9.24 0 14 0 C13.01 0.66 12.02 1.32 11 2 C12.32 2.66 13.64 3.32 15 4 C14.67 5.32 14.34 6.64 14 8 C15.98 8.66 17.96 9.32 20 10 C20.33 9.67 20.66 9.34 21 9 C24 8.88 24 8.88 27 9 C28 10 28 10 28.19 12.44 C28 15 28 15 26 17 C24.68 17 23.36 17 22 17 C22 19.64 22 22.28 22 25 C22.66 25.33 23.32 25.66 24 26 C22.02 26 20.04 26 18 26 C18 25.34 18 24.68 18 24 C18.66 24 19.32 24 20 24 C20 22.68 20 21.36 20 20 C19.34 20 18.68 20 18 20 C18 19.01 18 18.02 18 17 C17.34 17 16.68 17 16 17 C16 15.02 16 13.04 16 11 C15.01 11 14.02 11 13 11 C13 12.98 13 14.96 13 17 C12.01 17 11.02 17 10 17 C10 15.02 10 13.04 10 11 C7.69 11 5.38 11 3 11 C3 12.32 3 13.64 3 15 C4.32 15 5.64 15 7 15 C7 15.66 7 16.32 7 17 C5.33 17.04 3.67 17.04 2 17 C1 16 1 16 0.81 13.19 C1 10.07 1.53 8.66 3 6 C3 5.01 3 4.02 3 3 C3.66 3 4.32 3 5 3 C5 2.34 5 1.68 5 1 C4.01 1 3.02 1 2 1 C2 2.98 2 4.96 2 7 C1.34 7 0.68 7 0 7 C0 4.69 0 2.38 0 0 Z " fill="#9CE196" transform="translate(401,259)"/><path d="M0 0 C2.31 0.33 4.62 0.66 7 1 C8.23 5.55 8.23 5.55 7.06 7.81 C6.54 8.4 6.54 8.4 6 9 C6.66 9.33 7.32 9.66 8 10 C8 11.32 8 12.64 8 14 C6.68 14 5.36 14 4 14 C4 14.66 4 15.32 4 16 C5.32 16 6.64 16 8 16 C8 16.66 8 17.32 8 18 C7.01 18 6.02 18 5 18 C5.08 18.57 5.17 19.13 5.25 19.71 C5.36 20.45 5.46 21.18 5.56 21.94 C5.67 22.67 5.77 23.4 5.88 24.15 C5.92 24.76 5.96 25.37 6 26 C5 27 5 27 1.84 27.1 C0.54 27.09 -0.76 27.08 -2.06 27.06 C-2.73 27.06 -3.39 27.05 -4.07 27.05 C-5.71 27.04 -7.36 27.02 -9 27 C-8.12 23.12 -8.12 23.12 -7 22 C-7.99 21.67 -8.98 21.34 -10 21 C-10 20.34 -10 19.68 -10 19 C-8.02 19 -6.04 19 -4 19 C-4 16.69 -4 14.38 -4 12 C-4.99 12 -5.98 12 -7 12 C-7 11.01 -7 10.02 -7 9 C-4.69 9 -2.38 9 0 9 C0 6.03 0 3.06 0 0 Z " fill="#1AC109" transform="translate(392,258)"/><path d="M0 0 C17.88 3.53 34.83 11.24 49.51 22.12 C51.86 23.82 53.73 24.95 56.6 25.5 C60.68 24.65 62.8 21.65 65.62 18.75 C68.65 16.52 70.32 16.52 74 17 C76.38 18.15 77.68 19.73 79 22 C80 24.92 79.87 27.05 79 30 C76.67 33.97 73.93 37.45 71 41 C70.41 41.75 69.81 42.49 69.2 43.26 C66.37 46.72 66.37 46.72 65 48 C64.34 48 63.68 48 63 48 C64.67 44.04 67.29 41.1 70.06 37.88 C74.78 32.65 74.78 32.65 76.19 26 C76.2 25.3 76.22 24.6 76.23 23.88 C76.17 21.75 76.17 21.75 74 20 C71.26 19.16 71.26 19.16 68 20 C65.85 21.96 63.99 24.02 62.12 26.25 C59.24 28.63 57.68 28.34 54 28 C51.28 26.73 51.28 26.73 48.51 24.96 C48 24.65 47.5 24.34 46.98 24.01 C45.91 23.34 44.84 22.67 43.78 21.99 C40.99 20.22 38.18 18.5 35.36 16.79 C34.81 16.45 34.26 16.12 33.69 15.77 C22.79 9.21 11.29 5.09 -1 2 C-0.67 1.34 -0.34 0.68 0 0 Z " fill="#FB0000" transform="translate(435,124)"/><path d="M0 0 C0.74 0.84 0.74 0.84 1.49 1.69 C4.13 4.25 4.13 4.25 7.68 5.31 C11.35 4.58 14.34 3.19 17.65 1.46 C20.16 0.56 21.33 0.8 23.8 1.69 C21.79 2.7 19.77 3.7 17.74 4.69 C16.9 5.12 16.9 5.12 16.04 5.55 C11.75 7.61 8.56 8.23 3.8 7.69 C1.78 6.32 0.48 4.82 -1.13 3 C-5.19 0.42 -9.61 1.38 -14.11 2.26 C-16.85 2.91 -19.58 3.6 -22.31 4.35 C-23.99 4.81 -25.69 5.24 -27.38 5.67 C-34.1 7.48 -39.81 9.88 -45.84 13.36 C-52.86 17.32 -61.08 18.22 -68.94 16.25 C-75.63 14.13 -82.03 11.02 -88.2 7.69 C-88.2 7.03 -88.2 6.37 -88.2 5.69 C-83.17 7.18 -78.53 9.33 -73.79 11.57 C-66.82 14.58 -58.29 15.57 -51.06 12.9 C-47.95 11.47 -44.92 9.9 -41.89 8.33 C-35.45 5.08 -29.05 2.93 -22.07 1.12 C-21.13 0.87 -20.18 0.62 -19.2 0.36 C-5.18 -3.09 -5.18 -3.09 0 0 Z " fill="#FB0000" transform="translate(440.19921875,192.3125)"/><path d="M0 0 C2.14 0.84 3.99 1.85 6 3 C6 3.66 6 4.32 6 5 C4.95 4.67 3.9 4.34 2.81 4 C-0.21 3.14 -2.84 2.64 -6 3 C-8.31 5.31 -8.33 6.17 -8.81 9.31 C-10.06 15.32 -12.59 17.3 -17.56 20.81 C-29.93 26.35 -46.39 18.7 -57.94 14.44 C-59.04 14.03 -60.15 13.63 -61.26 13.23 C-65.87 11.55 -70.45 9.84 -75 8 C-75 7.34 -75 6.68 -75 6 C-71.31 6.65 -67.94 7.66 -64.43 8.96 C-63.37 9.35 -62.31 9.74 -61.21 10.14 C-59.01 10.95 -56.81 11.77 -54.61 12.59 C-36.67 19.46 -36.67 19.46 -17.94 17.94 C-14.76 16.3 -13.76 14.21 -12.61 10.91 C-12.41 10.28 -12.21 9.65 -12 9 C-11.52 7.72 -11.02 6.45 -10.5 5.19 C-10.28 4.62 -10.07 4.06 -9.84 3.48 C-7.58 -0.49 -4.22 -0.41 0 0 Z " fill="#72727A" transform="translate(335,189)"/><path d="M0 0 C1.68 0.59 3.36 1.19 5.03 1.81 C14.62 5.39 23.82 5.92 34 6 C34 6.66 34 7.32 34 8 C21.41 8.55 11.71 7.08 -0.18 2.88 C-3.26 1.92 -5.8 1.85 -9 2 C-9.33 3.32 -9.66 4.64 -10 6 C-1.68 8.69 6.78 10.55 15.33 12.3 C22.61 13.79 29.35 15.59 36 19 C35.67 19.66 35.34 20.32 35 21 C34.16 20.71 33.32 20.42 32.45 20.12 C25.73 17.88 19.04 15.95 12.1 14.51 C11.5 14.38 10.9 14.26 10.29 14.13 C7.27 13.5 4.26 12.89 1.23 12.32 C-9.19 10.19 -9.19 10.19 -13 5 C-10.4 -2.25 -6.92 -1.42 0 0 Z " fill="#EEC401" transform="translate(63,48)"/><path d="M0 0 C3.33 1.42 5.28 3.13 7.62 5.88 C8.22 6.55 8.81 7.23 9.41 7.93 C12.27 11.66 13.22 14.28 13.27 19.02 C12.89 21.82 11.94 24.35 11 27 C17.33 32.87 23.73 38.52 30.53 43.83 C32.24 45.19 33.92 46.57 35.61 47.95 C41.96 53.14 48.1 58.03 55.34 61.91 C55.89 62.27 56.44 62.63 57 63 C57 63.66 57 64.32 57 65 C52.52 63.72 49.43 62.13 45.69 59.25 C45.19 58.86 44.68 58.48 44.17 58.08 C37.35 52.79 30.71 47.27 24.09 41.74 C22.08 40.07 20.07 38.41 18.06 36.76 C16.87 35.78 15.69 34.8 14.5 33.81 C13.95 33.37 13.41 32.92 12.85 32.46 C10.3 30.33 9.07 29.22 8 26 C8.31 25.26 8.62 24.51 8.94 23.75 C10.23 20.41 10.62 17.5 10 14 C7.7 9.67 4.76 6.6 1.17 3.3 C0 2 0 2 0 0 Z " fill="#72727A" transform="translate(167,113)"/><path d="M0 0 C2.29 3.58 2.59 6.87 2 11 C0.94 13.44 0.94 13.44 -1 15 C-5.13 15.6 -6.93 15.69 -10.44 13.44 C-12.24 10.63 -12.6 8.96 -12.38 5.68 C-12 4 -12 4 -10.5 1.56 C-7 -0.63 -4.03 -0.35 0 0 Z " fill="#25252F" transform="translate(334,108)"/><path d="M0 0 C5.28 0 10.56 0 16 0 C16 2.64 16 5.28 16 8 C14.68 7.34 13.36 6.68 12 6 C9.04 9.48 8 12.44 8 17 C6.02 17 4.04 17 2 17 C2 14.36 2 11.72 2 9 C1.34 8.67 0.68 8.34 0 8 C0 5.36 0 2.72 0 0 Z " fill="#A1E39C" transform="translate(65,127)"/><path d="M0 0 C0.5 0.24 1 0.48 1.52 0.73 C11.01 5.28 20.51 9.75 30.21 13.81 C32.53 14.8 34.77 15.84 37 17 C36.5 18.49 36.5 18.49 36 20 C23.17 18.65 9.83 10.72 -1 4 C-0.67 2.68 -0.34 1.36 0 0 Z " fill="#B0E5AC" transform="translate(222,191)"/><path d="M0 0 C18.68 6.42 34.69 18.6 50.25 30.44 C50.76 30.83 51.28 31.21 51.8 31.61 C55.13 34.19 58.08 36.97 61 40 C57.47 39.39 55.4 38 52.61 35.79 C51.77 35.13 50.92 34.46 50.05 33.78 C49.14 33.07 48.24 32.36 47.31 31.62 C33.81 21.14 20.06 12.02 4.54 4.79 C2.91 3.95 1.44 3.14 0 2 C0 1.34 0 0.68 0 0 Z " fill="#717178" transform="translate(99,67)"/><path d="M0 0 C0.66 0.66 1.32 1.32 2 2 C2.66 1.34 3.32 0.68 4 0 C6.6 -0.2 6.6 -0.2 9.62 -0.12 C11.13 -0.1 11.13 -0.1 12.66 -0.07 C13.43 -0.05 14.21 -0.02 15 0 C15.32 2.79 15.54 5.04 14.13 7.55 C12.34 9.63 10.99 10.87 8.21 11.23 C5.12 10.95 3.42 10.37 1.06 8.31 C-0.27 5.41 -0.22 3.16 0 0 Z " fill="#2F3039" transform="translate(438,210)"/><path d="M0 0 C2 1 2 1 2 1 Z M-8 1 C-5.36 1 -2.72 1 0 1 C0 1.66 0 2.32 0 3 C-0.66 3 -1.32 3 -2 3 C-2 3.66 -2 4.32 -2 5 C-4.97 4.5 -4.97 4.5 -8 4 C-8 3.01 -8 2.02 -8 1 Z M-12 5 C-9.36 5 -6.72 5 -4 5 C-4 5.66 -4 6.32 -4 7 C-4.66 7 -5.32 7 -6 7 C-6 7.66 -6 8.32 -6 9 C-8.97 8.5 -8.97 8.5 -12 8 C-12 7.01 -12 6.02 -12 5 Z M-16 9 C-13.36 9 -10.72 9 -8 9 C-8 9.66 -8 10.32 -8 11 C-8.66 11 -9.32 11 -10 11 C-10 11.66 -10 12.32 -10 13 C-12.97 12.5 -12.97 12.5 -16 12 C-16 11.01 -16 10.02 -16 9 Z M-20 13 C-17.36 13 -14.72 13 -12 13 C-12 13.66 -12 14.32 -12 15 C-12.66 15 -13.32 15 -14 15 C-14 15.66 -14 16.32 -14 17 C-16.97 16.5 -16.97 16.5 -20 16 C-20 15.01 -20 14.02 -20 13 Z M-24 17 C-21.36 17 -18.72 17 -16 17 C-16 17.66 -16 18.32 -16 19 C-16.66 19 -17.32 19 -18 19 C-18 19.66 -18 20.32 -18 21 C-20.97 20.5 -20.97 20.5 -24 20 C-24 19.01 -24 18.02 -24 17 Z M-28 21 C-25.36 21 -22.72 21 -20 21 C-20 21.66 -20 22.32 -20 23 C-22.71 24.35 -25.01 24.07 -28 24 C-28 23.01 -28 22.02 -28 21 Z " fill="#F2EFFF" transform="translate(412,128)"/><path d="M0 0 C2.68 -0.39 2.68 -0.39 5 -1 C6.32 1.17 7.03 2.5 6.88 5.06 C5.7 7.67 4.5 8.61 2 10 C-0.5 10.44 -0.5 10.44 -3 10 C-5.81 7.95 -6.86 6.83 -7.44 3.38 C-7 1 -7 1 -5.75 -0.38 C-3.47 -1.19 -2.32 -0.61 0 0 Z " fill="#282831" transform="translate(379,220)"/><path d="M0 0 C2.23 0.28 4.46 0.58 6.69 0.88 C7.31 0.95 7.94 1.03 8.58 1.11 C12.34 1.62 15.5 2.47 19 4 C20.66 4.37 22.33 4.71 24 5 C25.21 5.25 25.21 5.25 26.44 5.5 C29.28 6.06 32.14 6.53 35 7 C34.67 8.32 34.34 9.64 34 11 C28.37 10.58 23.32 10.01 18 8 C13.7 6.64 9.47 5.67 5 5 C3.89 4.81 2.77 4.63 1.62 4.44 C0.33 4.22 0.33 4.22 -1 4 C-0.67 2.68 -0.34 1.36 0 0 Z " fill="#A4E0A0" transform="translate(391,100)"/><path d="M0 0 C0 1.32 0 2.64 0 4 C0.66 4 1.32 4 2 4 C2 5.65 2 7.3 2 9 C-0.61 10.7 -1.9 11.01 -5.06 10.81 C-9.42 9.61 -9.42 9.61 -11 7 C-10.87 4.36 -10.62 2.72 -8.88 0.69 C-5.91 -0.4 -3.14 -0.12 0 0 Z " fill="#24242E" transform="translate(489,159)"/><path d="M0 0 C2.31 1.75 2.31 1.75 4 4 C4.11 6.64 4.11 6.64 4 9 C2.06 9.08 0.13 9.14 -1.81 9.19 C-2.89 9.22 -3.97 9.26 -5.08 9.29 C-8 9 -8 9 -9.89 7.61 C-11 6 -11 6 -11 4 C-8.67 -0.66 -4.68 -1.8 0 0 Z " fill="#2C2C36" transform="translate(330,170)"/><path d="M0 0 C2.07 1.74 3.71 3.61 5 6 C5.14 8.2 5.14 8.2 5 10 C3.06 10.11 1.13 10.19 -0.81 10.25 C-2.43 10.32 -2.43 10.32 -4.08 10.39 C-7 10 -7 10 -8.89 7.98 C-9.44 7 -9.44 7 -10 6 C-7.89 1.13 -5.52 -1.05 0 0 Z " fill="#1F212B" transform="translate(436,171)"/><path d="M0 0 C5 0 10 0 15 0 C15 2.64 15 5.28 15 8 C10 8 5 8 0 8 C0 5.36 0 2.72 0 0 Z " fill="#C2EBC0" transform="translate(369,268)"/><path d="M0 0 C5 0 10 0 15 0 C15 2.64 15 5.28 15 8 C10 8 5 8 0 8 C0 5.36 0 2.72 0 0 Z " fill="#C9ECC8" transform="translate(42,136)"/><path d="M0 0 C2.38 1.5 2.38 1.5 4 3 C3.34 5.31 2.68 7.62 2 10 C1.26 9.81 0.51 9.63 -0.25 9.44 C-2.95 9.01 -4.45 9.15 -7 10 C-8.62 8.31 -8.62 8.31 -10 6 C-9.31 3.31 -9.31 3.31 -8 1 C-5.19 -0.4 -3.11 -0.25 0 0 Z " fill="#2D2D37" transform="translate(195,116)"/><path d="M0 0 C2.44 1.62 2.44 1.62 4 4 C4.25 7.25 4.25 7.25 4 10 C3.6 9.26 3.6 9.26 3.19 8.5 C2.8 8 2.4 7.51 2 7 C1.01 7 0.02 7 -1 7 C-1 7.66 -1 8.32 -1 9 C-2.94 8.62 -2.94 8.62 -5 8 C-5.33 7.34 -5.66 6.68 -6 6 C-6 6.99 -6 7.98 -6 9 C-6.99 8.67 -7.98 8.34 -9 8 C-9 7.34 -9 6.68 -9 6 C-9.66 6 -10.32 6 -11 6 C-8.87 0.07 -6.29 -0.99 0 0 Z " fill="#22222B" transform="translate(527,132)"/><path d="M0 0 C4.62 0 9.24 0 14 0 C14 2.64 14 5.28 14 8 C11.12 8.19 11.12 8.19 8 8 C6.88 6.5 6.88 6.5 6 5 C3.92 4.75 3.92 4.75 2 5 C2 5.99 2 6.98 2 8 C1.34 8 0.68 8 0 8 C0 5.36 0 2.72 0 0 Z " fill="#EFEFFB" transform="translate(276,21)"/><path d="M0 0 C1.96 0.48 3.92 0.96 5.88 1.44 C6.97 1.7 8.06 1.97 9.18 2.25 C12 3 12 3 14 4 C13.67 5.32 13.34 6.64 13 8 C12.45 7.86 11.89 7.71 11.32 7.56 C10.6 7.38 9.87 7.19 9.12 7 C8.41 6.81 7.69 6.63 6.95 6.44 C5.01 5.93 5.01 5.93 3 6 C3 7.32 3 8.64 3 10 C-1.35 9.39 -5.67 8.74 -10 8 C-7.26 5.72 -4.46 5.46 -1 5 C-0.67 3.35 -0.34 1.7 0 0 Z " fill="#DCDAE6" transform="translate(427,107)"/><path d="M0 0 C0.66 0 1.32 0 2 0 C0.46 5.01 -2.55 8.33 -5.94 12.19 C-6.74 13.13 -6.74 13.13 -7.57 14.09 C-9.9 16.78 -11.95 19.13 -15 21 C-15.66 20.34 -16.32 19.68 -17 19 C-16.36 18.81 -15.72 18.63 -15.06 18.44 C-12.89 17.24 -12.89 17.24 -12.51 15.38 C-12.17 12.9 -12 10.5 -12 8 C-11.2 7.64 -11.2 7.64 -10.39 7.27 C-6.21 5.28 -3.19 3.43 0 0 Z " fill="#DDDCE9" transform="translate(504,150)"/><path d="M0 0 C2.75 1.12 5.5 2.25 8.25 3.38 C9.03 3.69 9.8 4.01 10.61 4.34 C11.36 4.65 12.11 4.95 12.89 5.27 C13.93 5.7 13.93 5.7 14.99 6.13 C17.03 7.01 19.02 7.98 21 9 C20.67 9.99 20.34 10.98 20 12 C14.36 11.41 9.03 9.62 4 7 C2.83 5.43 2.83 5.43 2 4 C1.34 3.67 0.68 3.34 0 3 C0 2.01 0 1.02 0 0 Z " fill="#BEE9BC" transform="translate(238,199)"/><path d="M0 0 C1.21 0.01 2.41 0.02 3.62 0.04 C4.24 0.04 4.85 0.04 5.49 0.05 C7.01 0.06 8.53 0.08 10.06 0.1 C10.06 0.76 10.06 1.42 10.06 2.1 C9.4 2.1 8.74 2.1 8.06 2.1 C8.06 4.08 8.06 6.06 8.06 8.1 C7.07 8.1 6.08 8.1 5.06 8.1 C5.06 6.12 5.06 4.14 5.06 2.1 C2.75 2.1 0.44 2.1 -1.94 2.1 C-1.94 3.42 -1.94 4.74 -1.94 6.1 C-0.62 6.1 0.7 6.1 2.06 6.1 C2.06 6.76 2.06 7.42 2.06 8.1 C-0.32 8.22 -0.32 8.22 -2.94 8.1 C-3.6 7.44 -4.26 6.78 -4.94 6.1 C-4.21 0.14 -4.21 0.14 0 0 Z " fill="#C9ECC7" transform="translate(78.94140625,135.90234375)"/><path d="M0 0 C2.64 0 5.28 0 8 0 C8 1.98 8 3.96 8 6 C8.66 6 9.32 6 10 6 C10 4.02 10 2.04 10 0 C10.99 0 11.98 0 13 0 C13 1.98 13 3.96 13 6 C13.99 6.33 14.98 6.66 16 7 C9.72 9.22 9.72 9.22 6.06 8.12 C5.38 7.75 4.7 7.38 4 7 C4 6.01 4 5.02 4 4 C2.68 3.67 1.36 3.34 0 3 C1.32 3 2.64 3 4 3 C4 2.34 4 1.68 4 1 C2.68 0.67 1.36 0.34 0 0 Z " fill="#18C106" transform="translate(53,138)"/><path d="M0 0 C0.99 0.33 1.98 0.66 3 1 C3 1.66 3 2.32 3 3 C3.99 3.33 4.98 3.66 6 4 C6 4.66 6 5.32 6 6 C6.6 6.27 7.2 6.54 7.81 6.81 C10.03 8.02 11.3 9.16 13 11 C13.72 11.68 14.44 12.36 15.19 13.06 C17 15 17 15 17 17 C12.17 15.88 10.13 14.4 7.17 10.46 C5.69 8.61 3.89 7.4 2 6 C2 5.34 2 4.68 2 4 C1.01 3.67 0.02 3.34 -1 3 C-0.67 2.01 -0.34 1.02 0 0 Z " fill="#A5E3A0" transform="translate(178,159)"/><path d="M0 0 C2.62 0.94 2.62 0.94 5 2 C5 3.65 5 5.3 5 7 C2.69 8.12 2.69 8.12 0 9 C-1.81 8.25 -1.81 8.25 -3 7 C-3 6.34 -3 5.68 -3 5 C-4.98 5 -6.96 5 -9 5 C-9 4.67 -9 4.34 -9 4 C-7.02 4 -5.04 4 -3 4 C-2.67 3.01 -2.34 2.02 -2 1 C-1.34 0.67 -0.68 0.34 0 0 Z " fill="#13C001" transform="translate(162,106)"/><path d="M0 0 C0.33 0.66 0.66 1.32 1 2 C2.39 2.44 3.77 2.88 5.17 3.29 C8.72 4.67 11.84 6.9 15 9 C14.67 10.32 14.34 11.64 14 13 C12 12 10 11 8 10 C8 9.34 8 8.68 8 8 C6.61 7.57 6.61 7.57 5.19 7.12 C2.72 6.26 1.02 5.57 -1 4 C-0.67 2.68 -0.34 1.36 0 0 Z " fill="#A4E1A1" transform="translate(475,124)"/><path d="M0 0 C5.37 -0.1 5.37 -0.1 7 0 C8 1 8 1 8.19 3.44 C8 6 8 6 6 8 C2.88 8.12 2.88 8.12 0 8 C0 5.36 0 2.72 0 0 Z " fill="#F0EFF9" transform="translate(299,21)"/><path d="M0 0 C2.31 0.33 4.62 0.66 7 1 C8.12 5.75 8.12 5.75 7 8 C4.69 8 2.38 8 0 8 C0 5.36 0 2.72 0 0 Z " fill="#DEF3DE" transform="translate(392,258)"/><path d="M0 0 C2.56 0.19 2.56 0.19 4.56 2.19 C4.19 4.81 4.19 4.81 3.56 7.19 C2.57 7.52 1.58 7.85 0.56 8.19 C0.23 9.18 -0.1 10.17 -0.44 11.19 C-0.77 10.2 -1.1 9.21 -1.44 8.19 C-2.1 7.86 -2.76 7.53 -3.44 7.19 C-3.48 5.19 -3.48 3.19 -3.44 1.19 C-2.44 0.19 -2.44 0.19 0 0 Z " fill="#13C001" transform="translate(346.4375,192.8125)"/><path d="M0 0 C1 1 1 1 1.12 3.5 C1 6 1 6 0 7 C-3 7.12 -3 7.12 -6 7 C-7 6 -7 6 -7.06 2.94 C-7.04 1.97 -7.02 1 -7 0 C-4.32 -1.34 -2.85 -0.73 0 0 Z " fill="#D4EFD3" transform="translate(70,146)"/><path d="M0 0 C2.36 0.18 4.66 0.62 7 1 C7.12 3.38 7.12 3.38 7 6 C5 8 5 8 2.44 8.19 C0 8 0 8 -1 7 C-1.12 4 -1.12 4 -1 1 C-0.67 0.67 -0.34 0.34 0 0 Z " fill="#E1F3E1" transform="translate(95,136)"/><path d="M0 0 C4.56 0.56 4.56 0.56 6 2 C6.12 4.5 6.12 4.5 6 7 C5 8 5 8 2 8.12 C-1 8 -1 8 -2 7 C-2.19 4.56 -2.19 4.56 -2 2 C-1.34 1.34 -0.68 0.68 0 0 Z " fill="#D9F1D9" transform="translate(392,277)"/><path d="M0 0 C4.33 0 8.67 0 13 0 C13 0.66 13 1.32 13 2 C12.34 2 11.68 2 11 2 C11 2.66 11 3.32 11 4 C11.66 4 12.32 4 13 4 C12.67 4.66 12.34 5.32 12 6 C7.71 5.67 3.42 5.34 -1 5 C-1 2 -1 2 0 0 Z " fill="#E8BF02" transform="translate(100,52)"/><path d="M0 0 C0.33 0 0.66 0 1 0 C1 2.31 1 4.62 1 7 C1.66 7 2.32 7 3 7 C3 5.02 3 3.04 3 1 C3.99 1 4.98 1 6 1 C6 1.66 6 2.32 6 3 C5.34 3 4.68 3 4 3 C4.21 3.78 4.41 4.57 4.62 5.38 C4.75 6.24 4.87 7.11 5 8 C4.34 8.66 3.68 9.32 3 10 C2.35 12.57 2.35 12.57 2 15 C-0.97 14.5 -0.97 14.5 -4 14 C-4 13.01 -4 12.02 -4 11 C-2.68 11 -1.36 11 0 11 C0 10.34 0 9.68 0 9 C-0.99 8.67 -1.98 8.34 -3 8 C-2.54 7.41 -2.54 7.41 -2.06 6.81 C-0.76 4.59 -0.41 2.53 0 0 Z " fill="#2FC620" transform="translate(400,259)"/><path d="M0 0 C2.31 0 4.62 0 7 0 C7.33 0.66 7.66 1.32 8 2 C7.34 2 6.68 2 6 2 C6 2.66 6 3.32 6 4 C3.03 3.5 3.03 3.5 0 3 C0 2.01 0 1.02 0 0 Z M-4 4 C-1.36 4 1.28 4 4 4 C4 4.66 4 5.32 4 6 C3.34 6 2.68 6 2 6 C2 6.66 2 7.32 2 8 C-0.97 7.5 -0.97 7.5 -4 7 C-4 6.01 -4 5.02 -4 4 Z M-8 8 C-5.36 8 -2.72 8 0 8 C0 8.66 0 9.32 0 10 C-2.64 9.67 -5.28 9.34 -8 9 C-8 8.67 -8 8.34 -8 8 Z M-6 10 C-2 11 -2 11 -2 11 Z " fill="#F2EFFF" transform="translate(376,161)"/><path d="M0 0 C0.33 0 0.66 0 1 0 C1 10.89 1 21.78 1 33 C0.01 32.67 -0.98 32.34 -2 32 C-1.34 32 -0.68 32 0 32 C-0.72 29.98 -0.72 29.98 -2 28 C-4.05 27.19 -4.05 27.19 -6 27 C-6 26.01 -6 25.02 -6 24 C-4.35 24 -2.7 24 -1 24 C-0.67 16.08 -0.34 8.16 0 0 Z " fill="#BEBEC3" transform="translate(286,44)"/><path d="M0 0 C1.32 0.99 2.64 1.98 4 3 C3.67 4.65 3.34 6.3 3 8 C0.62 8.62 0.62 8.62 -2 9 C-2.66 8.34 -3.32 7.68 -4 7 C-3.68 3.71 -2.45 2.13 0 0 Z " fill="#FE01FE" transform="translate(287,79)"/><path d="M0 0 C2 0.31 2 0.31 4 1 C4.33 1.66 4.66 2.32 5 3 C5.33 2.01 5.66 1.02 6 0 C6.66 0 7.32 0 8 0 C8 2.64 8 5.28 8 8 C6.68 8 5.36 8 4 8 C3.34 6.68 2.68 5.36 2 4 C1.67 5.32 1.34 6.64 1 8 C0.34 8 -0.32 8 -1 8 C-1.1 2.63 -1.1 2.63 -1 1 C-0.67 0.67 -0.34 0.34 0 0 Z " fill="#DBF2DB" transform="translate(400,277)"/><path d="M0 0 C4.76 0.78 9.2 2.3 13.75 3.88 C14.92 4.26 14.92 4.26 16.11 4.65 C17.23 5.04 17.23 5.04 18.36 5.43 C19.03 5.66 19.71 5.89 20.41 6.12 C22 7 22 7 23 10 C15.13 7.81 7.58 5.01 0 2 C0 1.34 0 0.68 0 0 Z " fill="#6E6E75" transform="translate(260,195)"/><path d="M0 0 C3.15 0.7 6.03 1.76 9 3 C9 3.99 9 4.98 9 6 C8.34 6 7.68 6 7 6 C6.67 6.66 6.34 7.32 6 8 C3.69 7.01 1.38 6.02 -1 5 C-0.67 3.35 -0.34 1.7 0 0 Z " fill="#62636A" transform="translate(244,186)"/><path d="M0 0 C2.31 0 4.62 0 7 0 C7.33 0.66 7.66 1.32 8 2 C7.34 2 6.68 2 6 2 C6 2.66 6 3.32 6 4 C3.03 3.5 3.03 3.5 0 3 C0 2.01 0 1.02 0 0 Z M-4 4 C-1.36 4 1.28 4 4 4 C4 4.66 4 5.32 4 6 C3.34 6 2.68 6 2 6 C2 6.66 2 7.32 2 8 C-0.97 7.5 -0.97 7.5 -4 7 C-4 6.01 -4 5.02 -4 4 Z M-6 8 C-4.02 8 -2.04 8 0 8 C0 8.66 0 9.32 0 10 C-2.97 9.5 -2.97 9.5 -6 9 C-6 8.67 -6 8.34 -6 8 Z M-4 10 C-2 11 -2 11 -2 11 Z " fill="#F2EFFF" transform="translate(364,177)"/><path d="M0 0 C2 0.25 2 0.25 4 1 C4.33 1.99 4.66 2.98 5 4 C5.33 2.68 5.66 1.36 6 0 C6.66 0 7.32 0 8 0 C8 2.31 8 4.62 8 7 C6.68 7.33 5.36 7.66 4 8 C3.34 6.68 2.68 5.36 2 4 C1.67 5.32 1.34 6.64 1 8 C0.34 8 -0.32 8 -1 8 C-1.1 2.63 -1.1 2.63 -1 1 C-0.67 0.67 -0.34 0.34 0 0 Z " fill="#E4F4E5" transform="translate(431,268)"/><path d="M0 0 C1.79 0.03 3.58 0.07 5.37 0.1 C5.7 2.08 6.03 4.06 6.37 6.1 C3.73 6.1 1.09 6.1 -1.63 6.1 C-2.01 4.44 -2.34 2.77 -2.63 1.1 C-1.63 0.1 -1.63 0.1 0 0 Z " fill="#A7A8AE" transform="translate(483.62890625,158.90234375)"/><path d="M0 0 C3.3 0 6.6 0 10 0 C10 1.65 10 3.3 10 5 C7.03 5 4.06 5 1 5 C0.67 3.35 0.34 1.7 0 0 Z " fill="#CCCCD2" transform="translate(160,143)"/><path d="M0 0 C2 0.25 2 0.25 4 1 C4.33 1.99 4.66 2.98 5 4 C5.33 2.68 5.66 1.36 6 0 C6.66 0 7.32 0 8 0 C8 2.31 8 4.62 8 7 C6.68 7.33 5.36 7.66 4 8 C3.34 6.68 2.68 5.36 2 4 C1.67 5.32 1.34 6.64 1 8 C0.34 8 -0.32 8 -1 8 C-1.1 2.63 -1.1 2.63 -1 1 C-0.67 0.67 -0.34 0.34 0 0 Z " fill="#E4F4E4" transform="translate(104,136)"/><path d="M0 0 C1.94 0.81 1.94 0.81 4 2 C4.33 2.99 4.66 3.98 5 5 C5.33 3.35 5.66 1.7 6 0 C6.66 0 7.32 0 8 0 C8 2.31 8 4.62 8 7 C6.68 7.33 5.36 7.66 4 8 C3.34 6.68 2.68 5.36 2 4 C1.67 5.32 1.34 6.64 1 8 C0.34 8 -0.32 8 -1 8 C-1.1 2.63 -1.1 2.63 -1 1 C-0.67 0.67 -0.34 0.34 0 0 Z " fill="#E6F4E6" transform="translate(73,145)"/><path d="M0 0 C2.31 0 4.62 0 7 0 C7 2.67 7 5.33 7 8 C4.69 8 2.38 8 0 8 C0 5.36 0 2.72 0 0 Z " fill="#F0EFFD" transform="translate(291,21)"/><path d="M0 0 C0.99 0.33 1.98 0.66 3 1 C3 1.33 3 1.66 3 2 C4.09 2.27 5.19 2.54 6.31 2.81 C9.28 3.65 11.06 4.49 13 7 C12.01 7 11.02 7 10 7 C9.67 7.99 9.34 8.98 9 10 C8.9 9.36 8.79 8.72 8.69 8.06 C8.46 7.38 8.23 6.7 8 6 C7.01 5.67 6.02 5.34 5 5 C4.34 5.66 3.68 6.32 3 7 C0.53 6.01 0.53 6.01 -2 5 C-1.34 3.35 -0.68 1.7 0 0 Z " fill="#696970" transform="translate(231,179)"/><path d="M0 0 C0.74 0.19 1.48 0.37 2.25 0.56 C4.95 0.99 6.45 0.85 9 0 C9.33 0.99 9.66 1.98 10 3 C8 5 8 5 6.05 5.2 C5.34 5.17 4.62 5.15 3.88 5.12 C3.15 5.11 2.43 5.09 1.68 5.07 C0.85 5.04 0.85 5.04 0 5 C-0.33 4.01 -0.66 3.02 -1 2 C-0.67 1.34 -0.34 0.68 0 0 Z " fill="#D5B108" transform="translate(120,53)"/><path d="M0 0 C0.56 0.19 1.11 0.37 1.69 0.56 C4.4 1.08 6.34 0.66 9 0 C9 1.98 9 3.96 9 6 C6.03 5.5 6.03 5.5 3 5 C3 4.01 3 3.02 3 2 C2.34 2 1.68 2 1 2 C1 2.99 1 3.98 1 5 C0.34 5 -0.32 5 -1 5 C-0.67 3.35 -0.34 1.7 0 0 Z " fill="#B3B4BA" transform="translate(375,219)"/><path d="M0 0 C2.87 0.91 5.59 1.78 8.25 3.19 C8.83 3.46 9.4 3.72 10 4 C10.66 3.67 11.32 3.34 12 3 C12.66 3.66 13.32 4.32 14 5 C13.01 6.49 13.01 6.49 12 8 C11.4 7.8 10.79 7.59 10.17 7.38 C9.37 7.11 8.57 6.84 7.75 6.56 C6.96 6.3 6.17 6.03 5.36 5.75 C3.25 5.08 1.15 4.51 -1 4 C-0.67 2.68 -0.34 1.36 0 0 Z " fill="#96DE90" transform="translate(272,213)"/><path d="M0 0 C3.3 0 6.6 0 10 0 C10 1.65 10 3.3 10 5 C9.26 4.81 8.51 4.63 7.75 4.44 C5.05 4.01 3.55 4.15 1 5 C0.67 3.35 0.34 1.7 0 0 Z " fill="#CCCFD3" transform="translate(187,121)"/><path d="M0 0 C2.64 0 5.28 0 8 0 C8 1.65 8 3.3 8 5 C5.03 5 2.06 5 -1 5 C-0.67 3.35 -0.34 1.7 0 0 Z " fill="#BDBFC5" transform="translate(442,210)"/><path d="M0 0 C1.14 0.25 1.14 0.25 2.31 0.5 C5.01 1 6.44 0.85 9 0 C9.33 1.32 9.66 2.64 10 4 C6.41 5.2 3.77 5.07 0 5 C-0.56 3.06 -0.56 3.06 -1 1 C-0.67 0.67 -0.34 0.34 0 0 Z " fill="#B4B6BB" transform="translate(429,176)"/><path d="M0 0 C0.99 0.33 1.98 0.66 3 1 C4.02 3.27 4.42 5.56 5 8 C2.03 8 -0.94 8 -4 8 C-1.12 1.12 -1.12 1.12 0 0 Z " fill="#EEEEF7" transform="translate(291,30)"/><path d="M0 0 C5.75 -0.12 5.75 -0.12 8 1 C7.67 3.31 7.34 5.62 7 8 C5.68 7.34 4.36 6.68 3 6 C3 5.34 3 4.68 3 4 C3.66 3.67 4.32 3.34 5 3 C4.01 2.67 3.02 2.34 2 2 C2 3.98 2 5.96 2 8 C1.34 8 0.68 8 0 8 C0 5.36 0 2.72 0 0 Z " fill="#F2F1FD" transform="translate(279,30)"/><path d="M0 0 C2.31 0 4.62 0 7 0 C7 1.65 7 3.3 7 5 C5.35 5 3.7 5 2 5 C2 5.66 2 6.32 2 7 C3.32 7.33 4.64 7.66 6 8 C4.02 8 2.04 8 0 8 C0 5.36 0 2.72 0 0 Z " fill="#CDEDCC" transform="translate(409,277)"/><path d="M0 0 C1.98 0 3.96 0 6 0 C6 2.64 6 5.28 6 8 C4.02 8 2.04 8 0 8 C0 5.36 0 2.72 0 0 Z " fill="#DAF1D9" transform="translate(378,268)"/><path d="M0 0 C1.98 0 3.96 0 6 0 C6 2.64 6 5.28 6 8 C4.02 8 2.04 8 0 8 C0 5.36 0 2.72 0 0 Z " fill="#DFF2DF" transform="translate(67,136)"/><path d="M0 0 C2.31 0.33 4.62 0.66 7 1 C7 2.32 7 3.64 7 5 C6.36 5.12 5.72 5.25 5.06 5.38 C4.04 5.68 4.04 5.68 3 6 C2.67 6.66 2.34 7.32 2 8 C1.34 8 0.68 8 0 8 C0 5.36 0 2.72 0 0 Z " fill="#F3F2F9" transform="translate(297,30)"/><path d="M0 0 C2.38 -0.12 2.38 -0.12 5 0 C5.66 0.66 6.32 1.32 7 2 C8.32 2.7 9.65 3.37 11 4 C10.67 5.98 10.34 7.96 10 10 C8.88 8.36 7.89 6.78 7 5 C6.01 5 5.02 5 4 5 C3.67 6.65 3.34 8.3 3 10 C1.54 7.35 1 6.11 1 3 C1.99 3 2.98 3 4 3 C4 2.34 4 1.68 4 1 C2.68 0.67 1.36 0.34 0 0 Z " fill="#26C416" transform="translate(396,273)"/><path d="M0 0 C2.31 0 4.62 0 7 0 C7.33 2.31 7.66 4.62 8 7 C6.35 7 4.7 7 3 7 C3.33 6.01 3.66 5.02 4 4 C2.68 4 1.36 4 0 4 C0 2.68 0 1.36 0 0 Z " fill="#14C002" transform="translate(77,138)"/><path d="M0 0 C2.97 0 5.94 0 9 0 C8.67 1.65 8.34 3.3 8 5 C5.36 5 2.72 5 0 5 C0 3.35 0 1.7 0 0 Z " fill="#CFD3D5" transform="translate(34,47)"/><path d="M0 0 C1.98 0 3.96 0 6 0 C6 2.33 6 4.67 6 7 C5 8 5 8 2.44 8.06 C1.63 8.04 0.83 8.02 0 8 C0 7.34 0 6.68 0 6 C0.66 5.67 1.32 5.34 2 5 C1.34 4.67 0.68 4.34 0 4 C0 2.68 0 1.36 0 0 Z " fill="#F2F1FD" transform="translate(268,21)"/><path d="M0 0 C1.98 0 3.96 0 6 0 C6 1.32 6 2.64 6 4 C4.68 4 3.36 4 2 4 C2 4.66 2 5.32 2 6 C3.32 6 4.64 6 6 6 C6 6.66 6 7.32 6 8 C4.02 8 2.04 8 0 8 C0 5.36 0 2.72 0 0 Z " fill="#EAF6EB" transform="translate(394,268)"/><path d="M0 0 C6.02 -0.27 6.02 -0.27 9 2 C9.99 2 10.98 2 12 2 C12 3.32 12 4.64 12 6 C6.06 4.52 6.06 4.52 0 3 C0 2.01 0 1.02 0 0 Z " fill="#A9E3A5" transform="translate(250,61)"/><path d="M0 0 C1.98 0 3.96 0 6 0 C6 1.65 6 3.3 6 5 C4.68 5 3.36 5 2 5 C2 5.99 2 6.98 2 8 C1.34 8 0.68 8 0 8 C0 5.36 0 2.72 0 0 Z " fill="#F4F3FE" transform="translate(276,21)"/><path d="M0 0 C2.31 0 4.62 0 7 0 C6.67 2.31 6.34 4.62 6 7 C5.01 6.67 4.02 6.34 3 6 C3 5.01 3 4.02 3 3 C3.66 3 4.32 3 5 3 C5 2.34 5 1.68 5 1 C4.01 1 3.02 1 2 1 C2 2.98 2 4.96 2 7 C1.34 7 0.68 7 0 7 C0 4.69 0 2.38 0 0 Z " fill="#F0F8F1" transform="translate(401,259)"/><path d="M0 0 C0.99 0.33 1.98 0.66 3 1 C3 1.99 3 2.98 3 4 C3.66 4 4.32 4 5 4 C4.67 2.68 4.34 1.36 4 0 C4.99 0.33 5.98 0.66 7 1 C7.33 2.65 7.66 4.3 8 6 C5.36 6 2.72 6 0 6 C0 4.02 0 2.04 0 0 Z " fill="#8F8F95" transform="translate(78,37)"/><path d="M0 0 C2.31 0 4.62 0 7 0 C7 1.32 7 2.64 7 4 C5.68 4.33 4.36 4.66 3 5 C3 5.66 3 6.32 3 7 C4.32 7.33 5.64 7.66 7 8 C5.02 8 3.04 8 1 8 C1.88 4.12 1.88 4.12 3 3 C2.01 2.67 1.02 2.34 0 2 C0 1.34 0 0.68 0 0 Z " fill="#D3EFD2" transform="translate(382,277)"/><path d="M0 0 C1.81 1.25 1.81 1.25 2.81 3.25 C-3.47 5.68 -3.47 5.68 -7.19 4.25 C-6.19 1.25 -6.19 1.25 -4.38 -0.06 C-2.19 -0.75 -2.19 -0.75 0 0 Z " fill="#CB0507" transform="translate(472.1875,187.75)"/><path d="M0 0 C1.98 0 3.96 0 6 0 C6.19 1.88 6.19 1.88 6 4 C4.5 5.25 4.5 5.25 3 6 C4.32 6.66 5.64 7.32 7 8 C4.69 8 2.38 8 0 8 C0 7.01 0 6.02 0 5 C1.5 3.81 1.5 3.81 3 3 C2.01 2.67 1.02 2.34 0 2 C0 1.34 0 0.68 0 0 Z " fill="#D9F1D9" transform="translate(55,145)"/><path d="M0 0 C2.31 0 4.62 0 7 0 C7 2.64 7 5.28 7 8 C5.68 7.34 4.36 6.68 3 6 C3 5.01 3 4.02 3 3 C3.66 3 4.32 3 5 3 C5 2.34 5 1.68 5 1 C4.01 1.33 3.02 1.66 2 2 C1.67 3.65 1.34 5.3 1 7 C0.67 7 0.34 7 0 7 C0 4.69 0 2.38 0 0 Z " fill="#E8F5E9" transform="translate(74,127)"/><path d="M0 0 C1.98 0 3.96 0 6 0 C6 0.66 6 1.32 6 2 C4.68 2 3.36 2 2 2 C2 2.66 2 3.32 2 4 C3.32 4.33 4.64 4.66 6 5 C4.68 5 3.36 5 2 5 C2 5.66 2 6.32 2 7 C3.32 7.33 4.64 7.66 6 8 C4.02 8 2.04 8 0 8 C0 5.36 0 2.72 0 0 Z " fill="#F9FAFB" transform="translate(82,145)"/><path d="M0 0 C0.87 0.28 0.87 0.28 1.75 0.56 C4.21 1.04 5.64 0.76 8 0 C8.33 1.32 8.66 2.64 9 4 C5.62 4.84 3.33 5.11 0 4 C0 2.68 0 1.36 0 0 Z " fill="#B8BABF" transform="translate(325,113)"/><path d="M0 0 C0.99 0.33 1.98 0.66 3 1 C3 1.66 3 2.32 3 3 C5.47 3.99 5.47 3.99 8 5 C7.67 5.99 7.34 6.98 7 8 C2.54 6.02 2.54 6.02 -2 4 C-1.34 2.68 -0.68 1.36 0 0 Z " fill="#B3E6AF" transform="translate(209,183)"/><path d="M0 0 C0 0.99 0 1.98 0 3 C0.66 3.33 1.32 3.66 2 4 C1.01 4 0.02 4 -1 4 C-1.33 4.66 -1.66 5.32 -2 6 C-2.33 6.33 -2.66 6.66 -3 7 C-3.99 7 -4.98 7 -6 7 C-6.33 5.68 -6.66 4.36 -7 3 C-3.38 0 -3.38 0 0 0 Z " fill="#FB0000" transform="translate(492,176)"/><path d="M0 0 C1.65 0 3.3 0 5 0 C5.33 1.32 5.66 2.64 6 4 C5.01 4.66 4.02 5.32 3 6 C3.99 6.66 4.98 7.32 6 8 C4.02 8 2.04 8 0 8 C0.38 6.06 0.38 6.06 1 4 C1.66 3.67 2.32 3.34 3 3 C2.01 2.67 1.02 2.34 0 2 C0 1.34 0 0.68 0 0 Z " fill="#E8F5E9" transform="translate(92,145)"/><path d="M0 0 C1.21 0.03 1.21 0.03 2.44 0.06 C1.96 0.31 1.49 0.56 1 0.81 C-0.98 2.4 -1.15 3.61 -1.56 6.06 C-0.24 6.06 1.08 6.06 2.44 6.06 C2.44 6.72 2.44 7.38 2.44 8.06 C0.06 8.19 0.06 8.19 -2.56 8.06 C-3.22 7.4 -3.88 6.74 -4.56 6.06 C-3.83 0.09 -3.83 0.09 0 0 Z " fill="#D7F0D6" transform="translate(78.5625,135.9375)"/><path d="M0 0 C2.64 0 5.28 0 8 0 C8 0.99 8 1.98 8 3 C7.34 3 6.68 3 6 3 C6 3.66 6 4.32 6 5 C4.06 4.62 4.06 4.62 2 4 C1.67 3.34 1.34 2.68 1 2 C1 2.99 1 3.98 1 5 C0.34 5 -0.32 5 -1 5 C-0.67 3.35 -0.34 1.7 0 0 Z " fill="#B9BABE" transform="translate(520,136)"/><path d="M0 0 C1.98 0 3.96 0 6 0 C6.33 0.66 6.66 1.32 7 2 C6.06 4.12 6.06 4.12 5 6 C3.68 6 2.36 6 1 6 C0.67 4.02 0.34 2.04 0 0 Z " fill="#D8F0D8" transform="translate(42,136)"/><path d="M0 0 C1.32 0.33 2.64 0.66 4 1 C4 1.66 4 2.32 4 3 C3.01 3.49 3.01 3.49 2 4 C2.66 4.66 3.32 5.32 4 6 C1.03 6 -1.94 6 -5 6 C-4.67 4.35 -4.34 2.7 -4 1 C-3.34 1 -2.68 1 -2 1 C-1.67 1.99 -1.34 2.98 -1 4 C-0.67 2.68 -0.34 1.36 0 0 Z " fill="#B8B8BE" transform="translate(167,41)"/><path d="M0 0 C1.29 0.14 2.58 0.29 3.88 0.44 C4.95 0.56 4.95 0.56 6.05 0.68 C8 1 8 1 10 2 C9.67 3.32 9.34 4.64 9 6 C4.55 5.01 4.55 5.01 0 4 C0 2.68 0 1.36 0 0 Z " fill="#A4E1A0" transform="translate(431,109)"/><path d="M0 0 C0.66 0 1.32 0 2 0 C2 1.32 2 2.64 2 4 C2.66 4 3.32 4 4 4 C3.67 2.68 3.34 1.36 3 0 C4.32 0 5.64 0 7 0 C7.33 1.65 7.66 3.3 8 5 C5.36 5 2.72 5 0 5 C0 3.35 0 1.7 0 0 Z " fill="#ABADB1" transform="translate(339,82)"/><path d="M0 0 C0.99 0.33 1.98 0.66 3 1 C3.33 2.98 3.66 4.96 4 7 C1.68 8.76 1.09 9 -2 9 C-2 8.01 -2 7.02 -2 6 C-1.01 6 -0.02 6 1 6 C0.67 4.02 0.34 2.04 0 0 Z " fill="#616169" transform="translate(425,136)"/><path d="M0 0 C2.94 0.75 2.94 0.75 6 2 C6.88 4.12 6.88 4.12 7 6 C3.8 6 1.91 5.26 -1 4 C-0.67 2.68 -0.34 1.36 0 0 Z " fill="#A8E1A7" transform="translate(457,115)"/><path d="M0 0 C2.64 0 5.28 0 8 0 C8 0.66 8 1.32 8 2 C7.01 2 6.02 2 5 2 C5 3.98 5 5.96 5 8 C4.34 8 3.68 8 3 8 C3 6.02 3 4.04 3 2 C2.01 2 1.02 2 0 2 C0 1.34 0 0.68 0 0 Z " fill="#E2F3E3" transform="translate(385,268)"/><path d="M0 0 C2.64 0.33 5.28 0.66 8 1 C7.34 2.65 6.68 4.3 6 6 C5.34 4.68 4.68 3.36 4 2 C4 2.99 4 3.98 4 5 C3.34 5 2.68 5 2 5 C2 4.01 2 3.02 2 2 C1.34 2 0.68 2 0 2 C-0.33 2.99 -0.66 3.98 -1 5 C-0.67 3.35 -0.34 1.7 0 0 Z " fill="#BDBEC3" transform="translate(317,219)"/><path d="M0 0 C2.64 0 5.28 0 8 0 C8 0.66 8 1.32 8 2 C7.01 2 6.02 2 5 2 C5 3.98 5 5.96 5 8 C4.34 8 3.68 8 3 8 C3 6.02 3 4.04 3 2 C2.01 2 1.02 2 0 2 C0 1.34 0 0.68 0 0 Z " fill="#EAF5EB" transform="translate(58,136)"/><path d="M0 0 C2.76 0.57 4.74 1.3 7 3 C6.67 4.32 6.34 5.64 6 7 C4 6 2 5 0 4 C0 2.68 0 1.36 0 0 Z " fill="#C0E5C4" transform="translate(483,130)"/><path d="M0 0 C2.64 0 5.28 0 8 0 C8 0.66 8 1.32 8 2 C7.01 2 6.02 2 5 2 C5 3.98 5 5.96 5 8 C4.34 8 3.68 8 3 8 C3 6.02 3 4.04 3 2 C2.01 2 1.02 2 0 2 C0 1.34 0 0.68 0 0 Z " fill="#F2F1FF" transform="translate(270,30)"/><path d="M0 0 C1.21 0.03 1.21 0.03 2.44 0.06 C1.96 0.31 1.49 0.56 1 0.81 C-0.98 2.4 -1.15 3.61 -1.56 6.06 C-0.24 6.06 1.08 6.06 2.44 6.06 C2.44 6.72 2.44 7.38 2.44 8.06 C0.77 8.11 -0.9 8.1 -2.56 8.06 C-3.56 7.06 -3.56 7.06 -3.69 4.06 C-3.52 0.09 -3.52 0.09 0 0 Z " fill="#DBF1DA" transform="translate(405.5625,267.9375)"/><path d="M0 0 C1.65 0 3.3 0 5 0 C4.01 0.66 3.02 1.32 2 2 C3.32 2.66 4.64 3.32 6 4 C5.67 4.99 5.34 5.98 5 7 C3.02 7 1.04 7 -1 7 C-0.01 6.34 0.98 5.68 2 5 C1.01 4.34 0.02 3.68 -1 3 C-0.67 2.01 -0.34 1.02 0 0 Z " fill="#E8F5E9" transform="translate(83,127)"/><path d="M0 0 C1.32 0 2.64 0 4 0 C4.33 0.66 4.66 1.32 5 2 C6.32 2.66 7.64 3.32 9 4 C5.7 4.33 2.4 4.66 -1 5 C-1 2 -1 2 0 0 Z " fill="#BB9D13" transform="translate(100,52)"/><path d="M0 0 C-0.33 0.66 -0.66 1.32 -1 2 C-1.99 2 -2.98 2 -4 2 C-4 4.64 -4 7.28 -4 10 C-4.33 10 -4.66 10 -5 10 C-5 7.36 -5 4.72 -5 2 C-7.64 2 -10.28 2 -13 2 C-13 1.67 -13 1.34 -13 1 C-8.6 0.3 -4.47 -0.11 0 0 Z " fill="#35C726" transform="translate(398,266)"/><path d="M0 0 C1.98 0 3.96 0 6 0 C5.01 0.66 4.02 1.32 3 2 C4.32 2.66 5.64 3.32 7 4 C6.67 4.99 6.34 5.98 6 7 C4.35 7 2.7 7 1 7 C2.32 6.67 3.64 6.34 5 6 C5 5.34 5 4.68 5 4 C3.35 3.67 1.7 3.34 0 3 C0 2.01 0 1.02 0 0 Z " fill="#F2F8F5" transform="translate(409,259)"/><path d="M0 0 C5.75 1.88 5.75 1.88 8 3 C7.67 3.99 7.34 4.98 7 6 C4.03 5.5 4.03 5.5 1 5 C0.67 3.35 0.34 1.7 0 0 Z " fill="#B5E6B2" transform="translate(251,205)"/><path d="M0 0 C2.31 0.33 4.62 0.66 7 1 C6.34 2.32 5.68 3.64 5 5 C3.35 4.67 1.7 4.34 0 4 C0 2.68 0 1.36 0 0 Z " fill="#6FD565" transform="translate(353,91)"/><path d="M0 0 C0.66 0 1.32 0 2 0 C2 0.99 2 1.98 2 3 C2.66 3 3.32 3 4 3 C4 3.99 4 4.98 4 6 C3.01 6 2.02 6 1 6 C1 6.66 1 7.32 1 8 C0.01 8 -0.98 8 -2 8 C-2 7.01 -2 6.02 -2 5 C-1.01 5 -0.02 5 1 5 C0.67 3.35 0.34 1.7 0 0 Z " fill="#3D3E47" transform="translate(431,138)"/><path d="M0 0 C2.31 0.66 4.62 1.32 7 2 C6.34 3.32 5.68 4.64 5 6 C3.02 5.34 1.04 4.68 -1 4 C-0.67 2.68 -0.34 1.36 0 0 Z " fill="#B0E5AC" transform="translate(309,73)"/><path d="M0 0 C2.06 0.44 2.06 0.44 4 1 C3.17 3.5 2.21 5.67 1 8 C0.34 8 -0.32 8 -1 8 C-1.1 2.63 -1.1 2.63 -1 1 C-0.67 0.67 -0.34 0.34 0 0 Z " fill="#D1EED0" transform="translate(400,277)"/><path d="M0 0 C2.97 0.5 2.97 0.5 6 1 C6 2.32 6 3.64 6 5 C1.25 5.12 1.25 5.12 -1 4 C-0.67 2.68 -0.34 1.36 0 0 Z " fill="#70D567" transform="translate(289,218)"/><path d="M0 0 C1.32 0 2.64 0 4 0 C4 1.65 4 3.3 4 5 C2.35 4.67 0.7 4.34 -1 4 C-0.67 2.68 -0.34 1.36 0 0 Z " fill="#9FA0A6" transform="translate(322,174)"/><path d="M0 0 C1.01 0.59 2.01 1.2 3 1.81 C3.56 2.15 4.11 2.49 4.69 2.83 C5.12 3.22 5.55 3.6 6 4 C6 4.99 6 5.98 6 7 C4.02 7 2.04 7 0 7 C-0.93 3.99 -1.04 3.13 0 0 Z " fill="#3BC92D" transform="translate(81,128)"/><path d="M0 0 C4.21 1.56 6.36 4.55 9 8 C4.66 7.52 2.77 5.15 0 2 C0 1.34 0 0.68 0 0 Z " fill="#6D6D75" transform="translate(167,113)"/><path d="M0 0 C2.31 0.33 4.62 0.66 7 1 C7 2.32 7 3.64 7 5 C2.25 4.12 2.25 4.12 0 3 C0 2.01 0 1.02 0 0 Z " fill="#76D86D" transform="translate(323,77)"/><path d="M0 0 C1.69 2.38 1.69 2.38 3 5 C2.67 5.66 2.34 6.32 2 7 C-0.24 5.88 -2.07 4.61 -4 3 C-4 2.34 -4 1.68 -4 1 C-2 0 -2 0 0 0 Z " fill="#A2E29D" transform="translate(175,153)"/><path d="M0 0 C5.75 0.75 5.75 0.75 8 3 C7.01 4.48 7.01 4.48 6 6 C4.02 5.01 2.04 4.02 0 3 C0 2.01 0 1.02 0 0 Z " fill="#9DDF98" transform="translate(442,111)"/><path d="M0 0 C2.64 0.66 5.28 1.32 8 2 C7.34 3.32 6.68 4.64 6 6 C4.12 5.81 4.12 5.81 2 5 C0.75 2.44 0.75 2.44 0 0 Z " fill="#B3E2B1" transform="translate(399,101)"/><path d="M0 0 C0.99 0 1.98 0 3 0 C3 1.98 3 3.96 3 6 C3.66 6.33 4.32 6.66 5 7 C3.02 7 1.04 7 -1 7 C-1 6.34 -1 5.68 -1 5 C-0.34 5 0.32 5 1 5 C0.67 3.35 0.34 1.7 0 0 Z " fill="#D9F1D9" transform="translate(420,278)"/><path d="M0 0 C1.49 0.99 1.49 0.99 3 2 C3.66 1.67 4.32 1.34 5 1 C5.66 1.66 6.32 2.32 7 3 C6.01 4.49 6.01 4.49 5 6 C3.35 5.67 1.7 5.34 0 5 C0 3.35 0 1.7 0 0 Z " fill="#B6E6B3" transform="translate(279,215)"/><path d="M0 0 C1.32 0 2.64 0 4 0 C4.33 1.98 4.66 3.96 5 6 C3.68 6 2.36 6 1 6 C0.67 4.02 0.34 2.04 0 0 Z " fill="#686870" transform="translate(485,159)"/><path d="M0 0 C1.98 0 3.96 0 6 0 C5.67 2.64 5.34 5.28 5 8 C2.52 5.52 1.51 3.16 0 0 Z " fill="#38C92A" transform="translate(74,144)"/><path d="M0 0 C3.47 1.49 3.47 1.49 7 3 C7 3.99 7 4.98 7 6 C6.01 6.33 5.02 6.66 4 7 C3.71 6.53 3.42 6.05 3.12 5.56 C2.07 3.84 2.07 3.84 0 3 C0 2.01 0 1.02 0 0 Z " fill="#D0EDCF" transform="translate(238,199)"/><path d="M0 0 C0.99 0.33 1.98 0.66 3 1 C2.34 3.31 1.68 5.62 1 8 C0.34 8 -0.32 8 -1 8 C-1.1 2.63 -1.1 2.63 -1 1 C-0.67 0.67 -0.34 0.34 0 0 Z " fill="#DBF2D9" transform="translate(73,145)"/><path d="M0 0 C2 2.75 2 2.75 2 5 C3.32 5 4.64 5 6 5 C6 5.66 6 6.32 6 7 C4.02 7 2.04 7 0 7 C0 4.69 0 2.38 0 0 Z " fill="#E6F4E7" transform="translate(51,137)"/><path d="M0 0 C0.66 0.33 1.32 0.66 2 1 C2 1.66 2 2.32 2 3 C2.99 3.33 3.98 3.66 5 4 C5.33 3.34 5.66 2.68 6 2 C6.33 2.99 6.66 3.98 7 5 C4.36 5 1.72 5 -1 5 C-0.67 3.35 -0.34 1.7 0 0 Z " fill="#63636B" transform="translate(521,137)"/><path d="M0 0 C2.97 0.49 2.97 0.49 6 1 C5.34 2.32 4.68 3.64 4 5 C2.68 4.67 1.36 4.34 0 4 C0 2.68 0 1.36 0 0 Z " fill="#ABE5A6" transform="translate(263,63)"/><path d="M0 0 C0.66 0.33 1.32 0.66 2 1 C1.67 2.98 1.34 4.96 1 7 C-0.65 6.67 -2.3 6.34 -4 6 C-4 5.34 -4 4.68 -4 4 C-2.68 3.67 -1.36 3.34 0 3 C0 2.01 0 1.02 0 0 Z " fill="#4BCD3E" transform="translate(389,278)"/><path d="M0 0 C1.32 0 2.64 0 4 0 C3.67 1.65 3.34 3.3 3 5 C2.01 4.67 1.02 4.34 0 4 C0 2.68 0 1.36 0 0 Z " fill="#2FC61F" transform="translate(392,279)"/><path d="M0 0 C0.99 0.33 1.98 0.66 3 1 C3.04 2.67 3.04 4.33 3 6 C2 7 2 7 -0.56 7.06 C-1.77 7.03 -1.77 7.03 -3 7 C-2.26 6.66 -2.26 6.66 -1.5 6.31 C0.31 5.04 0.31 5.04 0.19 2.38 C0.13 1.59 0.06 0.81 0 0 Z " fill="#EFF7F0" transform="translate(395,278)"/><path d="M0 0 C0.99 0 1.98 0 3 0 C3 0.66 3 1.32 3 2 C2.34 2 1.68 2 1 2 C1.33 3.65 1.66 5.3 2 7 C0.51 7.99 0.51 7.99 -1 9 C-1.33 8.01 -1.66 7.02 -2 6 C-1.34 6 -0.68 6 0 6 C0 4.02 0 2.04 0 0 Z " fill="#30C721" transform="translate(403,260)"/><path d="M0 0 C1.65 0.33 3.3 0.66 5 1 C4.67 2.32 4.34 3.64 4 5 C2.68 4.67 1.36 4.34 0 4 C0 2.68 0 1.36 0 0 Z " fill="#A5E3A0" transform="translate(260,209)"/><path d="M0 0 C1.98 0.5 1.98 0.5 4 1 C4 1.66 4 2.32 4 3 C3.34 3 2.68 3 2 3 C2.33 3.99 2.66 4.98 3 6 C1.68 5.67 0.36 5.34 -1 5 C-0.67 3.35 -0.34 1.7 0 0 Z " fill="#606068" transform="translate(255,191)"/><path d="M0 0 C0.99 0.33 1.98 0.66 3 1 C2.01 1.5 2.01 1.5 1 2 C1 2.66 1 3.32 1 4 C1.66 4.33 2.32 4.66 3 5 C2.01 5.33 1.02 5.66 0 6 C-0.66 5.67 -1.32 5.34 -2 5 C-1.34 3.35 -0.68 1.7 0 0 Z " fill="#5F5F67" transform="translate(231,179)"/><path d="M0 0 C1.32 0.33 2.64 0.66 4 1 C4 2.32 4 3.64 4 5 C2.68 5 1.36 5 0 5 C0 3.35 0 1.7 0 0 Z " fill="#B9B9BF" transform="translate(327,174)"/><path d="M0 0 C1.65 0.33 3.3 0.66 5 1 C5.33 2.32 5.66 3.64 6 5 C4.02 4.34 2.04 3.68 0 3 C0 2.01 0 1.02 0 0 Z " fill="#B0E6AC" transform="translate(189,171)"/><path d="M0 0 C1.65 0 3.3 0 5 0 C5 1.32 5 2.64 5 4 C3.35 3.67 1.7 3.34 0 3 C0 2.01 0 1.02 0 0 Z " fill="#9D9EA6" transform="translate(433,138)"/><path d="M0 0 C2.48 0.99 2.48 0.99 5 2 C4.34 3.32 3.68 4.64 3 6 C1.68 5.34 0.36 4.68 -1 4 C-0.67 2.68 -0.34 1.36 0 0 Z " fill="#A0DF9C" transform="translate(465,119)"/><path d="M0 0 C1.65 0 3.3 0 5 0 C5 1.32 5 2.64 5 4 C3.35 4 1.7 4 0 4 C0 2.68 0 1.36 0 0 Z " fill="#F6A1FE" transform="translate(297,30)"/><path d="M0 0 C0.33 0 0.66 0 1 0 C1 1.65 1 3.3 1 5 C1.66 5 2.32 5 3 5 C3 5.99 3 6.98 3 8 C1.68 8.33 0.36 8.66 -1 9 C-0.67 6.03 -0.34 3.06 0 0 Z " fill="#43CB36" transform="translate(420,270)"/><path d="M0 0 C0.66 0.66 1.32 1.32 2 2 C1.62 4.12 1.62 4.12 1 6 C-0.65 5.67 -2.3 5.34 -4 5 C-4 4.01 -4 3.02 -4 2 C-2.68 2 -1.36 2 0 2 C0 1.34 0 0.68 0 0 Z " fill="#67D45D" transform="translate(400,268)"/><path d="M0 0 C0 1.65 0 3.3 0 5 C-1.98 5 -3.96 5 -6 5 C-1.12 0 -1.12 0 0 0 Z " fill="#51CF45" transform="translate(63,147)"/><path d="M0 0 C1.32 0.66 2.64 1.32 4 2 C3.67 2.99 3.34 3.98 3 5 C1.68 5 0.36 5 -1 5 C-0.67 3.35 -0.34 1.7 0 0 Z " fill="#AAE0A9" transform="translate(427,107)"/><path d="M0 0 C1.98 0 3.96 0 6 0 C5.34 1.32 4.68 2.64 4 4 C2.68 3.67 1.36 3.34 0 3 C0 2.01 0 1.02 0 0 Z " fill="#AFE5AA" transform="translate(280,68)"/><path d="M0 0 C1.32 0 2.64 0 4 0 C4 1.32 4 2.64 4 4 C2.68 4 1.36 4 0 4 C0 2.68 0 1.36 0 0 Z " fill="#29C519" transform="translate(423,270)"/><path d="M0 0 C2.31 0.66 4.62 1.32 7 2 C7 2.66 7 3.32 7 4 C2.55 3.01 2.55 3.01 -2 2 C-1.34 1.34 -0.68 0.68 0 0 Z " fill="#6B6B73" transform="translate(292,206)"/><path d="M0 0 C1.32 0 2.64 0 4 0 C4 1.32 4 2.64 4 4 C2.68 4 1.36 4 0 4 C0 2.68 0 1.36 0 0 Z " fill="#2AC51A" transform="translate(96,138)"/><path d="M0 0 C1.32 0.33 2.64 0.66 4 1 C4 2.32 4 3.64 4 5 C2.68 4.67 1.36 4.34 0 4 C0 2.68 0 1.36 0 0 Z " fill="#88898F" transform="translate(187,121)"/><path d="M0 0 C0.33 1.32 0.66 2.64 1 4 C-0.32 4.33 -1.64 4.66 -3 5 C-3 3.68 -3 2.36 -3 1 C-2.01 0.67 -1.02 0.34 0 0 Z " fill="#8E9095" transform="translate(42,47)"/><path d="M0 0 C0.66 0 1.32 0 2 0 C1.67 1.98 1.34 3.96 1 6 C0.01 5.67 -0.98 5.34 -2 5 C-2 4.01 -2 3.02 -2 2 C-1.34 2 -0.68 2 0 2 C0 1.34 0 0.68 0 0 Z " fill="#E4F3E5" transform="translate(406,260)"/><path d="M0 0 C0.99 0 1.98 0 3 0 C3 1.65 3 3.3 3 5 C2.01 5 1.02 5 0 5 C0 3.35 0 1.7 0 0 Z " fill="#30C721" transform="translate(394,260)"/><path d="M0 0 C2.47 0.99 2.47 0.99 5 2 C4.67 2.99 4.34 3.98 4 5 C1.53 4.01 1.53 4.01 -1 3 C-0.67 2.01 -0.34 1.02 0 0 Z " fill="#A0E29B" transform="translate(212,186)"/><path d="M0 0 C1.98 0.5 1.98 0.5 4 1 C3.67 2.32 3.34 3.64 3 5 C1.68 5 0.36 5 -1 5 C-0.67 3.35 -0.34 1.7 0 0 Z " fill="#6A6A71" transform="translate(226,177)"/><path d="M0 0 C0.99 0 1.98 0 3 0 C3 1.65 3 3.3 3 5 C2.01 5 1.02 5 0 5 C0 3.35 0 1.7 0 0 Z " fill="#20C30F" transform="translate(65,147)"/><path d="M0 0 C0.99 0 1.98 0 3 0 C3 0.66 3 1.32 3 2 C2.34 2 1.68 2 1 2 C0.67 3.65 0.34 5.3 0 7 C-0.66 6.67 -1.32 6.34 -2 6 C-1.34 4.02 -0.68 2.04 0 0 Z " fill="#77D76F" transform="translate(76,128)"/><path d="M0 0 C0.99 0 1.98 0 3 0 C3 1.65 3 3.3 3 5 C2.01 5 1.02 5 0 5 C0 3.35 0 1.7 0 0 Z " fill="#21C311" transform="translate(67,128)"/><path d="M0 0 C0.99 0 1.98 0 3 0 C3 1.65 3 3.3 3 5 C2.01 5 1.02 5 0 5 C0 3.35 0 1.7 0 0 Z " fill="#63D358" transform="translate(127,40)"/><path d="M0 0 C1.32 0 2.64 0 4 0 C3.67 1.32 3.34 2.64 3 4 C2.01 4 1.02 4 0 4 C0 2.68 0 1.36 0 0 Z " fill="#FE01FE" transform="translate(301,23)"/><path d="M0 0 C1.98 0 3.96 0 6 0 C6 0.66 6 1.32 6 2 C4.02 2.33 2.04 2.66 0 3 C0 2.01 0 1.02 0 0 Z " fill="#E0F3E0" transform="translate(394,268)"/><path d="M0 0 C1.65 0 3.3 0 5 0 C5.33 1.32 5.66 2.64 6 4 C4.02 3.34 2.04 2.68 0 2 C0 1.34 0 0.68 0 0 Z " fill="#CEEECC" transform="translate(92,145)"/><path d="M0 0 C1.98 0 3.96 0 6 0 C6 0.66 6 1.32 6 2 C4.02 2.33 2.04 2.66 0 3 C0 2.01 0 1.02 0 0 Z " fill="#D3EFD2" transform="translate(82,145)"/><path d="M0 0 C2.97 0.5 2.97 0.5 6 1 C4.68 1.33 3.36 1.66 2 2 C2 3.98 2 5.96 2 8 C1.67 8 1.34 8 1 8 C0.67 5.36 0.34 2.72 0 0 Z " fill="#A4A5AB" transform="translate(335,110)"/><path d="M0 0 C0.99 0.33 1.98 0.66 3 1 C3 2.32 3 3.64 3 5 C1.68 4.34 0.36 3.68 -1 3 C-0.67 2.01 -0.34 1.02 0 0 Z " fill="#A7E3A3" transform="translate(304,72)"/><path d="M0 0 C1.32 0 2.64 0 4 0 C3.67 1.32 3.34 2.64 3 4 C2.01 4 1.02 4 0 4 C0 2.68 0 1.36 0 0 Z " fill="#BFEABC" transform="translate(155,42)"/><path d="M0 0 C0.33 1.32 0.66 2.64 1 4 C-0.65 4.66 -2.3 5.32 -4 6 C-2.25 1.12 -2.25 1.12 0 0 Z " fill="#F5BDFA" transform="translate(291,32)"/><path d="M0 0 C0.99 0.33 1.98 0.66 3 1 C2.67 2.32 2.34 3.64 2 5 C1.01 4.67 0.02 4.34 -1 4 C-0.67 2.68 -0.34 1.36 0 0 Z " fill="#B4E6B0" transform="translate(245,203)"/><path d="M0 0 C0.99 0.33 1.98 0.66 3 1 C2.67 2.65 2.34 4.3 2 6 C1.01 5.67 0.02 5.34 -1 5 C-0.67 3.35 -0.34 1.7 0 0 Z " fill="#CDCED5" transform="translate(455,146)"/><path d="M0 0 C0.99 0 1.98 0 3 0 C3 1.32 3 2.64 3 4 C2.01 4 1.02 4 0 4 C0 2.68 0 1.36 0 0 Z " fill="#13C001" transform="translate(371,270)"/><path d="M0 0 C1.98 0 3.96 0 6 0 C4.35 1.32 2.7 2.64 1 4 C0.67 2.68 0.34 1.36 0 0 Z " fill="#DEF3DE" transform="translate(409,259)"/><path d="M0 0 C0.99 0.33 1.98 0.66 3 1 C3 2.32 3 3.64 3 5 C2.34 5 1.68 5 1 5 C0.67 3.35 0.34 1.7 0 0 Z " fill="#34343D" transform="translate(438,176)"/><path d="M0 0 C0.99 0 1.98 0 3 0 C3 1.32 3 2.64 3 4 C2.01 4 1.02 4 0 4 C0 2.68 0 1.36 0 0 Z " fill="#8A8A91" transform="translate(161,144)"/><path d="M0 0 C0.66 0.33 1.32 0.66 2 1 C2 2.65 2 4.3 2 6 C1.01 6 0.02 6 -1 6 C-0.67 4.02 -0.34 2.04 0 0 Z " fill="#A4A3AC" transform="translate(430,137)"/><path d="M0 0 C0.99 0 1.98 0 3 0 C3 1.32 3 2.64 3 4 C2.01 4 1.02 4 0 4 C0 2.68 0 1.36 0 0 Z " fill="#13C001" transform="translate(44,138)"/><path d="M0 0 C0.99 0.33 1.98 0.66 3 1 C2.34 2.32 1.68 3.64 1 5 C0.34 4.67 -0.32 4.34 -1 4 C-0.67 2.68 -0.34 1.36 0 0 Z " fill="#A5E0A2" transform="translate(451,113)"/><path d="M0 0 C0.99 0.33 1.98 0.66 3 1 C3 1.66 3 2.32 3 3 C2.34 3 1.68 3 1 3 C0.67 3.66 0.34 4.32 0 5 C-0.56 3.06 -0.56 3.06 -1 1 C-0.67 0.67 -0.34 0.34 0 0 Z " fill="#171822" transform="translate(323,113)"/><path d="M0 0 C0.99 0 1.98 0 3 0 C3 1.32 3 2.64 3 4 C1.68 4 0.36 4 -1 4 C-0.67 2.68 -0.34 1.36 0 0 Z " fill="#98E092" transform="translate(246,60)"/><path d="M0 0 C0.33 0.66 0.66 1.32 1 2 C1.66 2.33 2.32 2.66 3 3 C2.67 3.66 2.34 4.32 2 5 C1.01 4.67 0.02 4.34 -1 4 C-0.67 2.68 -0.34 1.36 0 0 Z " fill="#A0DF9C" transform="translate(475,124)"/><path d="M0 0 C0.99 0.33 1.98 0.66 3 1 C2.67 1.99 2.34 2.98 2 4 C1.34 4 0.68 4 0 4 C0 2.68 0 1.36 0 0 Z " fill="#9DDE99" transform="translate(431,109)"/><path d="M0 0 C0.66 0.99 1.32 1.98 2 3 C0.51 3.99 0.51 3.99 -1 5 C-1.04 3.67 -1.04 2.33 -1 1 C-0.67 0.67 -0.34 0.34 0 0 Z " fill="#C5E5C5" transform="translate(408,103)"/><path d="M0 0 C1.65 0 3.3 0 5 0 C4.67 0.99 4.34 1.98 4 3 C2.68 2.67 1.36 2.34 0 2 C0 1.34 0 0.68 0 0 Z " fill="#15151F" transform="translate(111,54)"/><path d="M0 0 C1.32 0 2.64 0 4 0 C3.34 1.32 2.68 2.64 2 4 C1.34 3.67 0.68 3.34 0 3 C0 2.01 0 1.02 0 0 Z " fill="#99E093" transform="translate(177,45)"/><path d="M0 0 C0.99 0.33 1.98 0.66 3 1 C3 2.32 3 3.64 3 5 C2.34 5 1.68 5 1 5 C0.67 3.35 0.34 1.7 0 0 Z " fill="#B7B8BC" transform="translate(82,37)"/><path d="M0 0 C0.99 0.33 1.98 0.66 3 1 C3 2.32 3 3.64 3 5 C2.34 5 1.68 5 1 5 C0.67 3.35 0.34 1.7 0 0 Z " fill="#B4B5B9" transform="translate(78,37)"/><path d="M0 0 C0.66 0 1.32 0 2 0 C1.67 1.32 1.34 2.64 1 4 C0.34 4 -0.32 4 -1 4 C-0.67 2.68 -0.34 1.36 0 0 Z " fill="#BDE9BA" transform="translate(398,260)"/><path d="M0 0 C0.99 0.33 1.98 0.66 3 1 C2.67 1.99 2.34 2.98 2 4 C1.01 3.67 0.02 3.34 -1 3 C-0.67 2.01 -0.34 1.02 0 0 Z " fill="#9BE096" transform="translate(205,181)"/><path d="M0 0 C0.99 0 1.98 0 3 0 C3 0.99 3 1.98 3 3 C1.68 2.67 0.36 2.34 -1 2 C-0.67 1.34 -0.34 0.68 0 0 Z " fill="#AEAEB5" transform="translate(435,176)"/><path d="M0 0 C-0.66 1.32 -1.32 2.64 -2 4 C-2.66 3.67 -3.32 3.34 -4 3 C-4 2.34 -4 1.68 -4 1 C-2 0 -2 0 0 0 Z " fill="#33C724" transform="translate(175,153)"/><path d="M0 0 C0.66 0.33 1.32 0.66 2 1 C1.67 2.32 1.34 3.64 1 5 C0.34 5 -0.32 5 -1 5 C-0.67 3.35 -0.34 1.7 0 0 Z " fill="#37C829" transform="translate(488,132)"/><path d="M0 0 C1.32 0.33 2.64 0.66 4 1 C4 1.66 4 2.32 4 3 C2.68 2.67 1.36 2.34 0 2 C0 1.34 0 0.68 0 0 Z " fill="#999C9F" transform="translate(167,41)"/><path d="M0 0 C0.66 1.32 1.32 2.64 2 4 C1.01 4 0.02 4 -1 4 C-0.67 2.68 -0.34 1.36 0 0 Z " fill="#E4F3E5" transform="translate(391,280)"/><path d="M0 0 C0.66 1.32 1.32 2.64 2 4 C1.01 4.5 1.01 4.5 0 5 C-0.56 3.06 -0.56 3.06 -1 1 C-0.67 0.67 -0.34 0.34 0 0 Z " fill="#97DF91" transform="translate(202,178)"/><path d="M0 0 C2 2.75 2 2.75 2 5 C1.01 5 0.02 5 -1 5 C-0.67 3.35 -0.34 1.7 0 0 Z " fill="#CECDD6" transform="translate(488,160)"/><path d="M0 0 C0.66 0 1.32 0 2 0 C1.34 1.32 0.68 2.64 0 4 C-0.66 3.34 -1.32 2.68 -2 2 C-1.34 1.34 -0.68 0.68 0 0 Z " fill="#C8C8D3" transform="translate(504,150)"/><path d="M0 0 C0.99 0 1.98 0 3 0 C3 0.99 3 1.98 3 3 C2.01 3 1.02 3 0 3 C0 2.01 0 1.02 0 0 Z " fill="#404048" transform="translate(423,142)"/><path d="M0 0 C0.99 0 1.98 0 3 0 C3 0.99 3 1.98 3 3 C2.01 3 1.02 3 0 3 C0 2.01 0 1.02 0 0 Z " fill="#B9E4BA" transform="translate(477,127)"/><path d="M0 0 C0.99 0 1.98 0 3 0 C3.33 1.32 3.66 2.64 4 4 C3.01 4 2.02 4 1 4 C1.33 3.01 1.66 2.02 2 1 C1.34 0.67 0.68 0.34 0 0 Z " fill="#E0E3E8" transform="translate(330,113)"/><path d="M0 0 C0.99 0.33 1.98 0.66 3 1 C2.67 1.99 2.34 2.98 2 4 C1.34 3.67 0.68 3.34 0 3 C0 2.01 0 1.02 0 0 Z " fill="#9EE199" transform="translate(250,61)"/><path d="M0 0 C0.66 0.99 1.32 1.98 2 3 C0.51 3.99 0.51 3.99 -1 5 C-0.67 3.35 -0.34 1.7 0 0 Z " fill="#33343D" transform="translate(166,41)"/><path d="M0 0 C0.99 0.33 1.98 0.66 3 1 C3 1.66 3 2.32 3 3 C2.01 3 1.02 3 0 3 C0 2.01 0 1.02 0 0 Z " fill="#56565E" transform="translate(442,211)"/><path d="M0 0 C0.66 0 1.32 0 2 0 C1.67 0.99 1.34 1.98 1 3 C0.34 2.34 -0.32 1.68 -1 1 C-0.67 0.67 -0.34 0.34 0 0 Z " fill="#A90C10" transform="translate(489,176)"/><path d="M0 0 C0.66 0.99 1.32 1.98 2 3 C1.34 3.66 0.68 4.32 0 5 C-0.33 4.01 -0.66 3.02 -1 2 C-0.67 1.34 -0.34 0.68 0 0 Z " fill="#92DE8C" transform="translate(486,131)"/><path d="M0 0 C0.66 0.99 1.32 1.98 2 3 C1.34 3.66 0.68 4.32 0 5 C0 4.34 0 3.68 0 3 C-0.66 2.67 -1.32 2.34 -2 2 C-1.34 2 -0.68 2 0 2 C0 1.34 0 0.68 0 0 Z " fill="#C1EABE" transform="translate(79,128)"/><path d="M0 0 C0.99 0 1.98 0 3 0 C2.67 0.99 2.34 1.98 2 3 C1.34 2.67 0.68 2.34 0 2 C0 1.34 0 0.68 0 0 Z " fill="#1B1E28" transform="translate(244,188)"/><path d="M0 0 C0.66 0 1.32 0 2 0 C1.67 0.99 1.34 1.98 1 3 C0.34 3 -0.32 3 -1 3 C-0.67 2.01 -0.34 1.02 0 0 Z " fill="#B7E7B4" transform="translate(178,159)"/><path d="M0 0 C0.66 0.33 1.32 0.66 2 1 C2 1.66 2 2.32 2 3 C1.01 3 0.02 3 -1 3 C-0.67 2.01 -0.34 1.02 0 0 Z " fill="#505058" transform="translate(521,137)"/><path d="M0 0 C0.99 0.33 1.98 0.66 3 1 C2.67 1.66 2.34 2.32 2 3 C1.34 3 0.68 3 0 3 C0 2.01 0 1.02 0 0 Z " fill="#1F1F28" transform="translate(121,54)"/><path d="M0 0 C0.99 0.33 1.98 0.66 3 1 C2.67 1.66 2.34 2.32 2 3 C1.34 3 0.68 3 0 3 C0 2.01 0 1.02 0 0 Z " fill="#FE01FE" transform="translate(278,22)"/></svg>