<svg xmlns="http://www.w3.org/2000/svg" width="481" height="295" viewBox="0 0 481 295"><path d="M0 0 C158.73 0 317.46 0 481 0 C481 97.35 481 194.7 481 295 C322.27 295 163.54 295 0 295 C0 197.65 0 100.3 0 0 Z " fill="#F0EDFE" transform="translate(0,0)"/><path d="M0 0 C158.73 0 317.46 0 481 0 C481 43.56 481 87.12 481 132 C477.04 132 473.08 132 469 132 C469.33 131.34 469.66 130.68 470 130 C470.66 130 471.32 130 472 130 C472 129.34 472 128.68 472 128 C465.73 128 459.46 128 453 128 C453 127.01 453 126.02 453 125 C454.32 124.34 455.64 123.68 457 123 C456.67 122.34 456.34 121.68 456 121 C455.74 121.49 455.49 121.98 455.22 122.48 C454 124 454 124 452.39 124.36 C451.44 124.35 451.44 124.35 450.47 124.34 C449.39 124.34 449.39 124.34 448.28 124.34 C447.51 124.32 446.73 124.31 445.93 124.29 C445.13 124.29 444.34 124.28 443.52 124.28 C440.97 124.26 438.42 124.23 435.88 124.19 C434.15 124.17 432.42 124.16 430.7 124.15 C426.47 124.11 422.23 124.06 418 124 C418 124.66 418 125.32 418 126 C417.34 126 416.68 126 416 126 C416 126.66 416 127.32 416 128 C413 127 413 127 412 126 C412 126.66 412 127.32 412 128 C406.72 128.33 401.44 128.66 396 129 C396 129.99 396 130.98 396 132 C393.36 132.33 390.72 132.66 388 133 C388 133.99 388 134.98 388 136 C384.04 136.33 380.08 136.66 376 137 C376 137.99 376 138.98 376 140 C373.36 140.33 370.72 140.66 368 141 C369.32 141.99 370.64 142.98 372 144 C369.36 144.33 366.72 144.66 364 145 C364 145.99 364 146.98 364 148 C361.36 148.33 358.72 148.66 356 149 C356 149.99 356 150.98 356 152 C354.02 152.33 352.04 152.66 350 153 C350.66 153.99 351.32 154.98 352 156 C350.02 156.33 348.04 156.66 346 157 C346.66 157.99 347.32 158.98 348 160 C345.36 160.33 342.72 160.66 340 161 C340 161.99 340 162.98 340 164 C338.02 164.99 338.02 164.99 336 166 C336 166.66 336 167.32 336 168 C332.37 168.33 328.74 168.66 325 169 C325 169.66 325 170.32 325 171 C322.71 170.83 322.71 170.83 320 170 C318.16 167.67 318.16 167.67 316.62 164.75 C316.1 163.8 315.58 162.84 315.04 161.86 C313.84 158.55 314.04 157.33 315 154 C316.29 151.83 316.29 151.83 317.91 149.67 C318.51 148.87 319.11 148.07 319.72 147.25 C320.35 146.42 320.98 145.6 321.62 144.75 C322.23 143.94 322.83 143.13 323.46 142.3 C324.68 140.67 325.91 139.05 327.14 137.44 C328.4 135.78 329.64 134.11 330.86 132.42 C331.45 131.61 332.05 130.79 332.66 129.95 C333.19 129.22 333.72 128.48 334.26 127.72 C337.37 124.64 340.87 125 345 125 C346.49 124.5 346.49 124.5 348 124 C348.46 125.45 348.46 125.45 348.94 126.94 C349.7 129.84 349.7 129.84 351 131 C354.98 131.48 354.98 131.48 358.44 129.88 C359.27 127.09 358.62 124.8 358 122 C357.05 121.86 356.1 121.71 355.12 121.56 C352 121 352 121 350 120 C350.11 119.41 350.21 118.83 350.32 118.22 C352.26 107.4 354.14 96.57 355.75 85.69 C355.88 84.86 356 84.03 356.14 83.18 C357.8 71.64 358.63 57.07 352.25 46.81 C349.57 43.26 347.17 41.49 343 40 C343.68 39.32 344.36 38.64 345.06 37.94 C346.48 36.21 346.99 35.37 347.04 33.11 C346.78 31.39 346.4 29.69 346 28 C341.1 27.45 341.1 27.45 337 29.62 C335.68 32.76 336.19 34.76 337 38 C336.43 38.1 335.86 38.2 335.28 38.3 C334.51 38.45 333.73 38.6 332.94 38.75 C332.18 38.89 331.43 39.03 330.65 39.17 C322.63 41.68 318.79 46.27 314.06 53.06 C313.46 53.91 312.85 54.75 312.23 55.63 C311.03 57.31 309.83 58.99 308.64 60.68 C306.5 63.71 304.32 66.7 302.12 69.69 C301.08 71.12 300.04 72.56 299 74 C298.01 73.67 297.02 73.34 296 73 C296 72.34 296 71.68 296 71 C294.71 70.92 293.42 70.86 292.12 70.81 C291.41 70.78 290.69 70.74 289.95 70.71 C287.96 70.83 287.96 70.83 286.68 72.14 C285.66 74.92 286.37 77.16 287 80 C285.37 80 285.37 80 283.71 80.01 C268.1 80.3 253.25 83.39 238.03 86.58 C234.65 87.28 231.26 87.97 227.88 88.66 C216.02 91.09 204.18 93.58 192.38 96.29 C191.42 96.51 190.47 96.73 189.49 96.95 C187.51 97.41 185.53 97.86 183.56 98.32 C182.61 98.54 181.67 98.75 180.69 98.98 C179.84 99.17 178.98 99.37 178.1 99.57 C176 100 176 100 174 100 C173.41 98.76 173.41 98.76 172.81 97.5 C171.33 94.86 171.33 94.86 169.25 94.67 C167.5 94.69 165.75 94.84 164 95 C163.27 98.48 163.27 98.48 163 102 C164.5 104.15 165.67 104.84 168 106 C166.44 112.38 163.77 118.06 161 124 C160.22 125.73 159.45 127.46 158.69 129.19 C158.36 129.92 158.04 130.66 157.7 131.42 C157.47 131.94 157.24 132.46 157 133 C156.67 133 156.34 133 156 133 C155.69 132.03 155.38 131.06 155.06 130.06 C154.3 127.16 154.3 127.16 153 126 C150.13 125.58 150.13 125.58 147 126 C144.81 127.95 144.81 127.95 143 130 C143 129.21 143 128.42 143 127.6 C142.98 120.07 142.94 112.54 142.87 105.01 C142.83 101.14 142.81 97.27 142.8 93.41 C142.8 89.66 142.77 85.91 142.73 82.16 C142.71 80.75 142.71 79.33 142.71 77.91 C142.75 64.87 140.44 51.38 132.62 40.56 C132.24 40 131.85 39.43 131.45 38.85 C130.32 37.22 129.17 35.61 128 34 C127.36 33.09 126.73 32.17 126.07 31.23 C122.78 26.71 120.25 23.99 115 22 C113.67 21.33 112.33 20.67 111 20 C111.04 19.05 111.08 18.1 111.12 17.12 C111.35 13.9 111.35 13.9 109 12 C106 11.67 106 11.67 103 12 C102.34 12.66 101.68 13.32 101 14 C101.09 19.1 101.09 19.1 104.06 22.94 C104.7 23.29 105.34 23.64 106 24 C105.36 24.62 104.72 25.24 104.06 25.88 C100.42 29.63 100.83 32.96 100.79 37.94 C100.78 38.76 100.77 39.58 100.76 40.42 C100.73 43.14 100.71 45.85 100.68 48.57 C100.66 50.45 100.64 52.33 100.62 54.21 C100.57 59.17 100.52 64.12 100.47 69.08 C100.42 74.13 100.36 79.18 100.31 84.24 C100.2 94.16 100.1 104.08 100 114 C100.61 113.67 101.23 113.35 101.86 113.01 C104.13 111.94 105.53 111.82 108 112 C108.33 113.32 108.66 114.64 109 116 C107.13 117.06 107.13 117.06 105 118 C104.34 117.67 103.68 117.34 103 117 C103 116.34 103 115.68 103 115 C102.01 115 101.02 115 100 115 C100.06 131.16 100.14 147.32 100.24 163.48 C100.28 170.98 100.32 178.49 100.35 185.99 C100.37 192.53 100.4 199.08 100.45 205.62 C100.47 209.08 100.49 212.54 100.5 216 C100.5 219.27 100.52 222.53 100.55 225.79 C100.57 227.55 100.57 229.31 100.56 231.07 C100.65 238.02 101.09 244.42 105.61 249.99 C106.17 250.43 106.73 250.86 107.31 251.31 C107.92 251.79 108.52 252.26 109.15 252.75 C111.68 254.46 114.2 255.77 117 257 C116.67 257.66 116.34 258.32 116 259 C115.71 261.36 115.69 263.64 116 266 C117.07 267.66 117.07 267.66 119 268 C122.32 267.68 123.61 267.39 126 265 C126.36 261.52 126.04 259.78 124 257 C124.68 256.76 125.35 256.52 126.05 256.27 C133.31 253.54 137.32 251.01 141 244 C141.81 241.28 142.13 238.83 142.17 236 C142.19 234.84 142.19 234.84 142.21 233.65 C142.22 232.83 142.24 232 142.25 231.15 C142.28 229.39 142.31 227.64 142.35 225.88 C142.39 223.12 142.44 220.36 142.48 217.59 C142.52 214.92 142.57 212.26 142.62 209.59 C142.63 208.76 142.64 207.93 142.65 207.07 C142.67 205.92 142.67 205.92 142.7 204.74 C142.71 204.07 142.72 203.39 142.73 202.69 C143 201 143 201 145 199 C148.06 198.81 148.06 198.81 151 199 C153.61 201.61 152.24 208.37 152.25 212 C152.25 212.59 152.25 213.18 152.26 213.79 C152.27 221.84 151.71 229.5 150.08 237.4 C148 247.21 148 247.21 149.8 256.81 C151.6 259.26 153.11 260.04 156 261 C157.73 261.2 159.47 261.37 161.21 261.5 C162.78 261.62 162.78 261.62 164.39 261.75 C165.52 261.83 166.65 261.91 167.81 262 C168.39 262.04 168.97 262.09 169.57 262.13 C178.4 262.8 187.24 263.26 196.09 263.61 C202.91 263.89 209.66 264.52 216.44 265.27 C223.72 266.04 231 266.4 238.32 266.66 C244.24 266.88 250.11 267.34 256 268 C257.26 270.91 258 272.8 258 276 C257.34 276.66 256.68 277.32 256 278 C256 278.66 256 279.32 256 280 C254.68 280.66 253.36 281.32 252 282 C252.66 282.66 253.32 283.32 254 284 C253.34 284.66 252.68 285.32 252 286 C252 286.66 252 287.32 252 288 C251.34 288.66 250.68 289.32 250 290 C250 290.66 250 291.32 250 292 C247.43 294.57 245.51 294.91 241.94 295.12 C240.83 295.12 240.83 295.12 239.7 295.12 C238.41 295.13 238.41 295.13 237.1 295.13 C236.16 295.13 235.22 295.12 234.26 295.12 C232.76 295.12 232.76 295.12 231.23 295.12 C228.46 295.12 225.69 295.12 222.92 295.12 C219.88 295.11 216.85 295.11 213.82 295.11 C207.93 295.11 202.04 295.11 196.15 295.1 C189.34 295.1 182.52 295.1 175.71 295.09 C157.72 295.09 139.74 295.08 121.75 295.06 C81.57 295.04 41.39 295.02 0 295 C0 197.65 0 100.3 0 0 Z " fill="#F9F9FD" transform="translate(0,0)"/><path d="M0 0 C5.29 1.14 6.9 4.27 9.94 8.56 C10.45 9.23 10.96 9.91 11.49 10.6 C23.5 27.43 21.66 47.28 21.56 66.94 C21.54 72.08 21.54 77.23 21.56 82.38 C21.57 84.41 21.55 86.45 21.52 88.48 C21.5 96.87 22.29 104.09 28.31 110.44 C33.52 113.47 38.09 114.56 44.09 113.53 C49.9 111.93 52.63 108.43 55.68 103.44 C58.69 97.89 60.87 91.92 63.16 86.05 C63.57 85.06 63.98 84.06 64.4 83.04 C64.94 81.7 64.94 81.7 65.48 80.32 C68.43 75.81 72.82 74.95 77.83 73.84 C79.73 73.46 81.63 73.09 83.54 72.73 C85.08 72.43 85.08 72.43 86.65 72.12 C89.97 71.47 93.3 70.83 96.62 70.19 C101.17 69.3 105.71 68.41 110.25 67.52 C111.92 67.19 111.92 67.19 113.62 66.86 C123.4 64.94 133.15 62.88 142.88 60.71 C153.46 58.38 163.63 57.75 174.45 57.67 C184.06 57.76 184.06 57.76 192 53 C193.87 50.85 195.51 48.59 197.12 46.25 C198.08 44.91 199.03 43.58 199.98 42.24 C200.47 41.55 200.97 40.86 201.47 40.14 C204.06 36.52 206.71 32.94 209.38 29.38 C209.86 28.71 210.35 28.05 210.85 27.37 C213.67 23.59 216.59 20.24 220 17 C220.33 16.67 220.66 16.34 221 16 C225.26 15.59 227.13 15.46 230.81 17.75 C236.03 23.11 235.42 28.68 235.44 35.81 C235.44 36.39 235.44 36.97 235.45 37.57 C235.47 52.61 232.8 67.26 230 82 C228.35 82 226.7 82 225 82 C225.04 81.05 225.08 80.1 225.12 79.12 C225.35 75.9 225.35 75.9 223 74 C220.63 73.57 218.37 73.63 216 74 C214.34 75.07 214.34 75.07 214 77 C214.35 80.42 215.43 82.98 217 86 C216.63 86.5 216.26 87 215.87 87.52 C205.84 101.09 205.84 101.09 196.02 114.81 C194.45 117.04 192.93 119.07 191 121 C190.61 120.5 190.22 120.01 189.81 119.5 C188.06 117.78 188.06 117.78 185.44 117.62 C183.03 117.78 183.03 117.78 181.69 119.12 C180.68 121.88 180.69 124.1 181 127 C182.09 128.59 182.09 128.59 184 129 C187.27 128.67 189.35 127.88 192 126 C192.39 126.98 192.77 127.96 193.17 128.96 C195.42 134.23 198.57 138.97 201.68 143.77 C203.67 147 204.93 149.35 205.36 153.15 C203.17 157.75 199.33 159.54 195 162 C194.08 162.53 193.15 163.06 192.2 163.61 C188.24 165.85 184.26 168.05 180.26 170.23 C174.07 173.66 174.07 173.66 168.48 177.96 C167.66 178.64 166.84 179.31 166 180 C163 179 163 179 162.07 177.45 C161.1 175.78 161.1 175.78 159.05 175.71 C158.34 175.74 157.62 175.78 156.88 175.81 C156.15 175.84 155.43 175.87 154.68 175.89 C154.13 175.93 153.57 175.96 153 176 C152.92 177.29 152.86 178.58 152.81 179.88 C152.78 180.59 152.74 181.31 152.71 182.05 C152.81 184.06 152.81 184.06 154.26 185.26 C156.29 186.13 157.81 186.05 160 186 C157.84 193.33 155.59 200.62 153.19 207.88 C152.87 208.89 152.55 209.91 152.22 210.96 C149.1 220.29 149.1 220.29 144.85 222.47 C140.68 223.66 136.49 223.48 132.19 223.38 C130.56 223.35 130.56 223.35 128.91 223.33 C114.25 223.05 99.62 222.04 85 221 C83.98 220.93 83.98 220.93 82.94 220.85 C74.63 220.26 66.31 219.65 58 219 C58.03 217.24 58.07 215.48 58.1 213.73 C58.11 211.89 58.11 211.89 57 210 C54.36 210 51.72 210 49 210 C48.81 205.82 49.11 202.2 49.99 198.1 C51.12 192.05 51.34 186.1 51.32 179.96 C51.31 178.17 51.34 176.38 51.36 174.59 C51.47 166.27 51.47 166.27 48 159 C46.26 157.49 46.26 157.49 44.31 156.62 C43.22 156.09 42.13 155.55 41 155 C41 152.03 41 149.06 41 146 C39.91 145.79 38.81 145.59 37.69 145.38 C37.07 145.26 36.46 145.14 35.82 145.02 C33.65 144.82 33.65 144.82 31 147 C31.33 149.64 31.66 152.28 32 155 C30.57 155.85 29.14 156.69 27.7 157.54 C24.63 160.18 22.35 163.02 21.64 167.04 C21.51 169.41 21.5 171.75 21.53 174.12 C21.52 174.99 21.52 175.86 21.51 176.75 C21.49 179.5 21.49 182.25 21.5 185 C21.51 188.63 21.5 192.25 21.47 195.88 C21.48 196.7 21.49 197.53 21.5 198.38 C21.46 203.87 20.57 206.77 17 211 C13.98 213.26 11.73 213.47 8 213.39 C4.5 212.7 3.17 210.76 1 208 C-0.58 204.83 -0.13 201.42 -0.12 197.94 C-0.12 197.1 -0.12 196.25 -0.12 195.38 C-0.12 192.54 -0.12 189.7 -0.11 186.86 C-0.11 184.83 -0.11 182.8 -0.11 180.77 C-0.11 175.25 -0.11 169.72 -0.1 164.2 C-0.1 158.43 -0.09 152.66 -0.09 146.9 C-0.09 137.21 -0.08 127.52 -0.08 117.84 C-0.07 107.86 -0.06 97.88 -0.05 87.9 C-0.05 87.29 -0.05 86.67 -0.05 86.04 C-0.05 82.96 -0.05 79.87 -0.05 76.79 C-0.04 51.19 -0.02 25.6 0 0 Z " fill="#F9F8FD" transform="translate(111,33)"/><path d="M0 0 C1.88 1.13 1.88 1.13 3 3 C3.19 6.19 3.19 6.19 3 9 C3.55 9.16 4.09 9.32 4.65 9.49 C12.35 12.26 16.45 17.52 21 24 C21.36 24.5 21.72 25 22.09 25.52 C35.03 43.85 34.78 62.66 34.81 84.23 C34.82 88.05 34.85 91.86 34.89 95.68 C34.95 103.12 34.99 110.56 35 118 C35.43 117.35 35.87 116.7 36.31 116.03 C38 114 38 114 41 113.56 C44 114 44 114 45.81 115.31 C47 117 47 117 48 120 C48.19 119.53 48.38 119.05 48.58 118.57 C49.47 116.38 50.36 114.19 51.25 112 C51.55 111.26 51.85 110.51 52.16 109.75 C54.22 104.71 56.49 99.83 59 95 C57.35 94.34 55.7 93.68 54 93 C52.81 86.72 52.81 86.72 53.5 84.06 C55.66 82.54 57.74 82.59 60.31 82.71 C62 83 62 83 63.94 84.31 C65 86 65 86 65 89 C65.52 88.81 66.05 88.61 66.59 88.41 C72.6 86.29 78.54 85.04 84.81 84 C91.53 82.88 98.08 81.51 104.68 79.82 C110.6 78.36 116.58 77.16 122.55 75.95 C124.73 75.5 126.91 75.05 129.09 74.61 C132.68 73.87 136.27 73.14 139.87 72.43 C141.29 72.14 142.72 71.85 144.14 71.57 C152.27 69.93 160.19 68.56 168.5 68.31 C169.33 68.28 170.17 68.24 171.03 68.21 C173.02 68.13 175.01 68.06 177 68 C176.81 67.22 176.63 66.45 176.43 65.64 C176 63 176 63 177.06 60.69 C179 59 179 59 181.88 58.5 C185.81 59.13 187.14 60.31 190 63 C190.27 62.43 190.54 61.85 190.81 61.26 C192.04 58.92 193.44 56.9 195.01 54.77 C195.61 53.97 196.2 53.16 196.81 52.33 C197.43 51.5 198.05 50.67 198.69 49.81 C199.29 49 199.89 48.19 200.51 47.35 C202.33 44.89 204.16 42.44 206 40 C206.62 39.16 207.24 38.33 207.88 37.47 C208.48 36.67 209.08 35.87 209.7 35.04 C210.24 34.33 210.78 33.61 211.33 32.87 C215.44 28.27 221.03 26.6 227 26 C226.75 25.28 226.5 24.56 226.25 23.81 C226 21 226 21 227.5 18.12 C230 16 230 16 231.76 15.8 C234.43 16.08 236.38 16.51 238.5 18.19 C239.29 21.05 238.78 23.18 238 26 C236.45 27.18 236.45 27.18 235 28 C235.8 28.53 235.8 28.53 236.61 29.07 C242.78 33.38 246.1 36.75 247.68 44.21 C249.38 54.39 249.38 64.15 247.72 74.33 C247.53 75.59 247.53 75.59 247.33 76.88 C246.91 79.52 246.49 82.17 246.06 84.81 C245.78 86.6 245.5 88.39 245.22 90.19 C243.04 104.04 243.04 104.04 242 109 C243.11 109.1 244.23 109.21 245.38 109.31 C248.77 109.82 248.77 109.82 250.5 111.19 C251.28 114.01 250.71 116.2 250 119 C248 121 248 121 245.06 121.31 C242 121 242 121 240.19 119.75 C238.89 117.83 238.39 116.27 238 114 C237.01 114.5 237.01 114.5 236 115 C234.58 115.04 233.17 115.08 231.75 115.11 C227.95 115.5 226.25 116.22 223.81 119.18 C222.85 120.54 221.91 121.92 221 123.31 C219.99 124.78 218.97 126.24 217.96 127.7 C217.46 128.43 216.97 129.15 216.46 129.9 C215.11 131.84 213.69 133.69 212.2 135.52 C211.77 136.05 211.35 136.58 210.91 137.12 C210.12 138.1 209.32 139.06 208.5 140.02 C206.64 142.38 206 143.78 205.96 146.81 C207.36 151.1 209.54 154.63 211.94 158.44 C215.16 163.57 217.63 168.07 219 174 C219.33 173.67 219.66 173.34 220 173 C225.24 172.54 225.24 172.54 227.88 174.12 C229.53 176.88 229.39 178.85 229 182 C227.88 183.88 227.88 183.88 226 185 C223 185.44 223 185.44 220 185 C218.12 183 218.12 183 217 181 C216.55 181.86 216.1 182.72 215.64 183.61 C212.49 188.32 207.59 190.55 202.75 193.25 C200.77 194.4 198.78 195.55 196.8 196.7 C193.28 198.71 189.75 200.69 186.2 202.64 C174.02 209.53 170.45 216.72 166.76 229.94 C166.27 231.77 165.8 233.6 165.35 235.44 C163.77 241.64 161.42 246.32 157 251 C156.34 251.33 155.68 251.66 155 252 C155.66 252.54 156.32 253.07 157 253.62 C159 256 159 256 159.38 259.06 C158.8 263.59 158.8 263.59 157 265 C154.3 265.34 152.58 265.54 150 265 C148.06 263.25 148.06 263.25 147 261 C146.96 259.67 146.95 258.33 147 257 C146.14 256.98 145.27 256.96 144.38 256.94 C115.33 256.25 115.33 256.25 102.02 254.73 C96.14 254.07 90.29 253.73 84.38 253.5 C76.47 253.18 68.57 252.79 60.68 252.24 C58.97 252.13 57.27 252.03 55.57 251.92 C54.52 251.85 53.48 251.77 52.4 251.7 C51.02 251.6 51.02 251.6 49.61 251.51 C45.69 250.74 42.96 249 40.21 246.14 C36.65 239.85 39.11 231.11 40.5 224.38 C42.89 212.74 42.27 200.81 42 189 C40 188.96 38 188.96 36 189 C34.54 190.46 34.86 191.55 34.84 193.58 C34.83 194.72 34.83 194.72 34.81 195.88 C34.8 196.71 34.8 197.53 34.79 198.38 C34.76 200.13 34.73 201.87 34.7 203.61 C34.66 206.36 34.63 209.11 34.6 211.86 C34.57 214.52 34.52 217.17 34.48 219.82 C34.47 220.63 34.47 221.45 34.47 222.29 C34.35 227.58 33.38 231.26 31 236 C29.69 238.63 29.79 240.73 29.68 243.66 C29.62 245.35 29.62 245.35 29.56 247.06 C29.52 248.25 29.48 249.44 29.44 250.62 C29.39 251.82 29.35 253.02 29.31 254.21 C29.2 257.14 29.1 260.07 29 263 C28.67 263 28.34 263 28 263 C27.67 255.74 27.34 248.48 27 241 C24.36 242.65 21.72 244.3 19 246 C18.01 246.33 17.02 246.66 16 247 C16.66 247.66 17.32 248.32 18 249 C18.52 252.29 18.27 253.6 16.38 256.38 C14 258 14 258 10.88 257.88 C8 257 8 257 6 255 C5.8 253.34 5.8 253.34 5.88 251.5 C5.89 250.89 5.91 250.28 5.93 249.66 C5.96 248.84 5.96 248.84 6 248 C6 247.34 6 246.68 6 246 C4.37 244.85 4.37 244.85 2.31 243.75 C-3.01 240.54 -6.63 237.04 -8.57 231.02 C-9.55 226.38 -9.26 221.56 -9.23 216.84 C-9.23 215.61 -9.23 214.38 -9.23 213.15 C-9.23 209.81 -9.22 206.48 -9.2 203.15 C-9.19 199.66 -9.19 196.18 -9.19 192.69 C-9.18 186.09 -9.16 179.49 -9.14 172.9 C-9.12 165.38 -9.11 157.87 -9.1 150.35 C-9.08 134.9 -9.04 119.45 -9 104 C-8.01 104 -7.02 104 -6 104 C-6 104.66 -6 105.32 -6 106 C-3.53 105.5 -3.53 105.5 -1 105 C-1 103.68 -1 102.36 -1 101 C-1.76 101.33 -2.53 101.66 -3.31 102 C-6 103 -6 103 -9 103 C-9.09 92.15 -9.16 81.3 -9.21 70.45 C-9.23 65.42 -9.26 60.38 -9.3 55.34 C-9.35 50.48 -9.37 45.62 -9.38 40.75 C-9.39 38.9 -9.4 37.04 -9.42 35.19 C-9.45 32.59 -9.46 29.99 -9.45 27.39 C-9.47 26.63 -9.48 25.86 -9.5 25.08 C-9.46 19.82 -8.28 17.12 -5 13 C-5.66 12.28 -6.32 11.56 -7 10.81 C-9 8 -9 8 -9.44 5.38 C-9 3 -9 3 -7.88 1.19 C-5.13 -0.55 -3.18 -0.4 0 0 Z M2 22 C1.93 48.16 1.88 74.32 1.85 100.47 C1.84 103.56 1.84 106.65 1.84 109.74 C1.83 110.35 1.83 110.97 1.83 111.6 C1.82 121.56 1.8 131.51 1.77 141.47 C1.74 151.68 1.72 161.89 1.72 172.11 C1.71 177.85 1.7 183.58 1.68 189.32 C1.66 194.72 1.66 200.12 1.66 205.52 C1.66 207.5 1.65 209.48 1.64 211.46 C1.63 214.17 1.63 216.87 1.64 219.58 C1.63 220.37 1.62 221.15 1.61 221.96 C1.65 226.48 2.16 229.28 5 233 C7.78 235.48 10.4 235.41 14 235.32 C17.19 234.81 18.82 233.3 21 231 C23.77 227.07 23.28 222.68 23.27 218.07 C23.29 216.29 23.31 214.51 23.34 212.72 C23.36 209.92 23.38 207.12 23.38 204.32 C23.39 201.61 23.42 198.9 23.46 196.2 C23.46 195.36 23.45 194.53 23.45 193.68 C23.54 188.17 24.48 185.27 28 181 C29.92 179.36 31.81 178.29 34 177 C33.67 174.36 33.34 171.72 33 169 C37.02 166.32 38.4 167.13 43 168 C43 170.97 43 173.94 43 177 C44.09 177.54 45.19 178.07 46.31 178.62 C49.3 180.09 51.05 181.86 52.44 184.93 C53.62 189.31 53.4 193.87 53.34 198.38 C53.31 200.17 53.32 201.95 53.32 203.73 C53.31 210.2 52.79 216.34 51.44 222.67 C50.84 225.84 50.86 228.78 51 232 C53.64 232 56.28 232 59 232 C60 238.75 60 238.75 60 241 C67.39 241.53 74.78 242.05 82.17 242.56 C85.61 242.8 89.04 243.04 92.48 243.29 C106.34 244.29 120.2 245.19 134.1 245.38 C135.63 245.41 135.63 245.41 137.19 245.45 C143.08 245.47 146.66 245.16 151 241 C152.19 238.7 152.99 236.84 153.74 234.41 C153.95 233.78 154.16 233.15 154.38 232.5 C155.04 230.51 155.68 228.5 156.31 226.5 C156.76 225.15 157.2 223.81 157.65 222.46 C160.04 215.3 160.04 215.3 162 208 C161.03 207.86 160.06 207.71 159.06 207.56 C156 207 156 207 155 206 C154.93 204.65 154.92 203.29 154.94 201.94 C154.95 201.2 154.96 200.47 154.96 199.71 C154.98 198.87 154.98 198.87 155 198 C157.7 197.77 160.3 197.64 163 198 C165 200 165 200 166 202 C169.27 200.44 172.3 198.61 175.38 196.69 C179.77 193.95 184.2 191.29 188.68 188.69 C189.67 188.11 190.66 187.53 191.68 186.94 C193.67 185.78 195.66 184.63 197.66 183.48 C199.04 182.68 199.04 182.68 200.45 181.86 C201.28 181.38 202.11 180.9 202.96 180.41 C204.94 179.04 205.98 178.16 207 176 C206.73 171.34 205.28 168.39 202.69 164.56 C199.13 159.19 195.79 153.82 193 148 C192.44 148.52 191.89 149.03 191.31 149.56 C189 151 189 151 186.31 150.75 C184 150 184 150 183 149 C182.82 146.17 182.7 143.81 183.69 141.12 C185 140 185 140 187.38 139.62 C190.41 140.06 191.65 141.11 194 143 C194.34 142.41 194.69 141.83 195.04 141.23 C199.53 133.86 204.67 127.13 210.02 120.37 C213.21 116.35 216.23 112.32 219 108 C218.69 107.44 218.38 106.89 218.06 106.31 C216.65 103.24 215.57 100.54 216.5 97.19 C218.69 95.46 220.62 95.68 223.34 95.7 C225 96 225 96 227 98 C227.12 101.12 227.12 101.12 227 104 C228.65 104 230.3 104 232 104 C234.9 88.7 237.51 73.55 237.56 57.94 C237.58 56.82 237.59 55.71 237.61 54.56 C237.53 48.43 237.17 44.61 233 40 C230.39 37.95 228.23 37.68 224.91 37.44 C219.91 38.9 216.16 45.13 213.06 49.12 C212.37 50.01 212.37 50.01 211.66 50.91 C208.82 54.56 206.06 58.28 203.35 62.04 C202.73 62.89 202.11 63.74 201.47 64.62 C200.26 66.31 199.06 67.99 197.86 69.69 C197.3 70.47 196.74 71.24 196.16 72.04 C195.67 72.73 195.18 73.43 194.68 74.14 C191.91 77.21 189.34 78.81 185.22 79.38 C184.23 79.39 183.23 79.4 182.2 79.41 C181.08 79.43 179.95 79.45 178.79 79.47 C177.61 79.48 176.43 79.49 175.25 79.5 C164.5 79.59 154.53 80.91 144 83 C142.09 83.37 140.18 83.75 138.27 84.12 C132.98 85.16 127.69 86.22 122.4 87.28 C119.14 87.93 115.88 88.59 112.61 89.24 C107.39 90.29 102.16 91.34 96.94 92.41 C94.1 92.98 91.25 93.54 88.41 94.1 C86.71 94.44 85.01 94.79 83.3 95.13 C82.17 95.35 82.17 95.35 81 95.57 C76.56 96.48 72.8 97.47 69 100 C67.65 102.23 66.71 104.07 65.78 106.46 C65.52 107.09 65.25 107.72 64.98 108.36 C64.13 110.36 63.31 112.37 62.5 114.38 C61.69 116.38 60.87 118.38 60.02 120.37 C59.5 121.6 59 122.84 58.51 124.09 C56.18 129.61 52.53 132.76 47.19 135.38 C41.73 136.44 36.43 136.21 31.62 133.19 C27.24 129.53 25.57 126.48 24 121 C23.76 117.92 23.76 117.92 23.76 114.61 C23.76 114 23.76 113.39 23.75 112.76 C23.75 111.45 23.75 110.13 23.76 108.82 C23.76 106.72 23.75 104.62 23.74 102.53 C23.7 96.57 23.68 90.61 23.69 84.65 C24.07 55.99 24.07 55.99 11.94 30.56 C11.42 29.83 10.9 29.1 10.37 28.35 C7.1 23.84 7.1 23.84 2 22 Z " fill="#201E27" transform="translate(109,11)"/><path d="M0 0 C0.61 -0 1.22 -0.01 1.85 -0.01 C3.88 -0.02 5.9 -0.02 7.93 -0.02 C9.33 -0.03 10.74 -0.03 12.14 -0.03 C15.09 -0.04 18.03 -0.04 20.98 -0.04 C24.76 -0.04 28.54 -0.05 32.32 -0.07 C35.22 -0.08 38.12 -0.08 41.02 -0.08 C42.42 -0.08 43.81 -0.09 45.2 -0.1 C47.15 -0.11 49.1 -0.1 51.04 -0.1 C52.71 -0.1 52.71 -0.1 54.4 -0.1 C57.02 0.15 57.02 0.15 59.02 2.15 C59.21 4.36 59.28 6.44 59.25 8.65 C59.25 9.29 59.25 9.93 59.25 10.58 C59.25 11.93 59.24 13.28 59.23 14.63 C59.21 16.7 59.21 18.77 59.21 20.85 C59.2 22.16 59.2 23.46 59.19 24.77 C59.19 25.4 59.19 26.02 59.19 26.66 C59.14 31.03 59.14 31.03 58.02 32.15 C56 32.24 53.97 32.26 51.94 32.26 C50.99 32.26 50.99 32.26 50.02 32.26 C47.91 32.26 45.81 32.25 43.71 32.24 C42.25 32.24 40.79 32.24 39.34 32.24 C35.5 32.23 31.66 32.22 27.82 32.21 C23.91 32.2 19.99 32.2 16.08 32.19 C8.39 32.18 0.71 32.17 -6.98 32.15 C-8.38 29.35 -8.1 26.66 -8.08 23.61 C-8.07 22.97 -8.07 22.32 -8.07 21.66 C-8.07 19.62 -8.05 17.57 -8.04 15.52 C-8.04 14.13 -8.03 12.74 -8.03 11.36 C-8.02 7.95 -8 4.55 -7.98 1.15 C-5.24 -0.22 -3.06 0.01 0 0 Z " fill="#13BF01" transform="translate(41.978515625,257.854736328125)"/><path d="M0 0 C0.99 0 1.98 0 3 0 C3 0.66 3 1.32 3 2 C4.32 2.33 5.64 2.66 7 3 C7.02 9.49 7.04 15.97 7.05 22.46 C7.06 25.47 7.06 28.49 7.08 31.5 C7.16 54.38 7.16 54.38 6.38 65.41 C5.7 75.58 5.74 85.78 5.7 95.97 C5.7 98.42 5.67 100.88 5.64 103.33 C5.6 106.92 5.58 110.51 5.57 114.1 C5.56 115.19 5.54 116.29 5.52 117.41 C5.54 123.52 5.97 128.19 10 133 C14.65 136.77 19.12 136.55 24.89 136.42 C29.22 135.83 31.36 134.38 34 131 C34.62 130.24 35.24 129.47 35.88 128.69 C36.25 128.13 36.62 127.57 37 127 C37.29 130.05 37.41 132.95 37 136 C33.76 139.73 29.51 141.23 25 143 C25.66 143.66 26.32 144.32 27 145 C27.52 148.29 27.27 149.6 25.38 152.38 C23 154 23 154 19.88 153.88 C17 153 17 153 15 151 C14.8 149.34 14.8 149.34 14.88 147.5 C14.89 146.89 14.91 146.28 14.93 145.66 C14.96 144.84 14.96 144.84 15 144 C15 143.34 15 142.68 15 142 C13.37 140.85 13.37 140.85 11.31 139.75 C5.99 136.54 2.37 133.04 0.43 127.02 C-0.55 122.38 -0.26 117.56 -0.23 112.84 C-0.23 111.61 -0.23 110.38 -0.23 109.15 C-0.23 105.81 -0.22 102.48 -0.2 99.15 C-0.19 95.66 -0.19 92.18 -0.19 88.69 C-0.18 82.09 -0.16 75.49 -0.14 68.9 C-0.12 61.38 -0.11 53.87 -0.1 46.35 C-0.08 30.9 -0.04 15.45 0 0 Z " fill="#351B23" transform="translate(100,115)"/><path d="M0 0 C0.8 -0 1.6 -0.01 2.42 -0.01 C3.72 -0.01 3.72 -0.01 5.04 -0 C5.93 -0 6.81 -0.01 7.72 -0.01 C9.59 -0.01 11.47 -0.01 13.34 -0 C16.22 0 19.1 -0 21.97 -0.01 C23.79 -0.01 25.6 -0.01 27.42 -0 C28.28 -0.01 29.15 -0.01 30.04 -0.01 C31.24 -0 31.24 -0 32.46 0 C33.17 0 33.87 0 34.6 0 C36.23 0.13 36.23 0.13 37.23 1.13 C37.3 3.15 37.31 5.17 37.29 7.19 C37.28 8.3 37.27 9.4 37.27 10.54 C37.25 11.39 37.24 12.25 37.23 13.13 C41.13 13.01 45.02 12.89 48.92 12.76 C50.24 12.71 51.57 12.67 52.89 12.63 C54.8 12.57 56.71 12.51 58.62 12.45 C60.34 12.39 60.34 12.39 62.09 12.33 C64.9 12.15 67.49 11.76 70.23 11.13 C70.73 13.11 70.73 13.11 71.23 15.13 C69.36 16.19 69.36 16.19 67.23 17.13 C66.57 16.8 65.91 16.47 65.23 16.13 C65.23 15.47 65.23 14.81 65.23 14.13 C55.99 14.13 46.75 14.13 37.23 14.13 C37.23 17.1 37.23 20.07 37.23 23.13 C36.23 24.13 36.23 24.13 34.55 24.25 C33.46 24.25 33.46 24.25 32.35 24.24 C31.53 24.24 30.71 24.24 29.87 24.24 C28.97 24.24 28.08 24.23 27.16 24.23 C26.26 24.23 25.35 24.22 24.41 24.22 C21.5 24.22 18.58 24.2 15.67 24.19 C13.7 24.19 11.73 24.18 9.76 24.18 C4.91 24.17 0.07 24.15 -4.77 24.13 C-4.8 20.32 -4.82 16.5 -4.83 12.69 C-4.84 11.6 -4.85 10.51 -4.86 9.39 C-4.86 8.36 -4.86 7.32 -4.87 6.26 C-4.87 5.3 -4.88 4.34 -4.88 3.35 C-4.69 -0.36 -3.32 0 0 0 Z " fill="#FE07FE" transform="translate(37.76953125,100.87060546875)"/><path d="M0 0 C8.21 1.98 13.45 13.03 17.61 19.79 C24.4 31.3 25.91 43.77 25.93 56.88 C25.93 58.94 25.95 61 25.97 63.05 C26.03 68.89 26.06 74.73 26.08 80.57 C26.1 84.16 26.13 87.75 26.17 91.34 C26.18 92.7 26.18 94.06 26.18 95.42 C26.18 97.32 26.2 99.22 26.22 101.12 C26.23 102.2 26.23 103.28 26.24 104.39 C26.76 108.33 28.15 111.17 31.31 113.62 C34.83 114.67 38 114.99 41.62 114.31 C47.99 109.87 50.56 102.01 53.36 95.02 C53.66 94.27 53.96 93.51 54.27 92.74 C54.87 91.23 55.46 89.72 56.04 88.2 C58.94 80.84 58.94 80.84 62.62 78.31 C65.94 77.14 69.31 76.37 72.75 75.62 C73.65 75.41 74.55 75.2 75.48 74.98 C81.5 73.61 87.46 72.78 93.62 72.31 C91.05 74.89 89.18 75.03 85.63 75.79 C84.74 75.98 84.74 75.98 83.84 76.17 C81.96 76.58 80.07 76.98 78.19 77.38 C76.31 77.78 74.42 78.18 72.54 78.59 C70.83 78.96 69.12 79.32 67.41 79.68 C64.56 80.28 64.56 80.28 61.62 81.31 C60.72 83.57 60.72 83.57 60.23 85.36 C58.92 89.6 57.09 93.66 55.38 97.75 C55.01 98.67 54.64 99.58 54.25 100.53 C51.29 107.57 47.97 114.21 40.62 117.31 C35.96 117.64 31.88 116.94 28.19 114 C25.15 111.25 23.74 108.57 23.37 104.46 C23.37 103.36 23.37 102.26 23.37 101.13 C23.37 100.52 23.36 99.91 23.36 99.28 C23.35 97.96 23.35 96.63 23.35 95.31 C23.35 93.2 23.34 91.09 23.32 88.98 C23.28 82.99 23.25 76.99 23.24 71 C23.24 67.32 23.21 63.65 23.18 59.97 C23.17 58.59 23.17 57.2 23.17 55.81 C23.22 41.5 20.61 28.47 12.62 16.31 C12.26 15.74 11.89 15.17 11.51 14.58 C10.29 12.74 9.03 10.93 7.75 9.12 C7.36 8.55 6.98 7.97 6.58 7.37 C5.26 5.5 5.26 5.5 2.62 3.31 C-0.02 3.31 -2.66 3.31 -5.38 3.31 C-5.7 30.37 -6.03 57.43 -6.38 85.31 C-7.03 85.31 -7.69 85.31 -8.38 85.31 C-8.49 74.97 -8.58 64.62 -8.63 54.28 C-8.66 49.48 -8.7 44.67 -8.75 39.87 C-8.81 35.23 -8.84 30.6 -8.85 25.96 C-8.86 24.19 -8.88 22.42 -8.9 20.66 C-8.94 18.18 -8.94 15.7 -8.94 13.22 C-8.96 12.49 -8.98 11.76 -9 11.01 C-8.96 7.31 -8.63 5.1 -6.05 2.34 C-3.38 0.31 -3.38 0.31 0 0 Z " fill="#C60406" transform="translate(113.375,25.6875)"/><path d="M0 0 C0.66 0 1.32 0 2 0 C1.86 0.53 1.72 1.05 1.57 1.6 C0.08 9.13 2.89 13.35 6.94 19.56 C13.98 30.47 13.98 30.47 13.45 36.2 C12.31 40.72 9.89 43.61 6.03 46.13 C4.86 46.81 3.68 47.47 2.5 48.12 C1.17 48.9 -0.16 49.67 -1.5 50.44 C-3 51.29 -4.5 52.15 -6 53 C-9.53 55.02 -13.05 57.07 -16.56 59.12 C-17.83 59.84 -17.83 59.84 -19.12 60.57 C-30.53 67.26 -33.43 74.91 -37.06 87.06 C-37.67 89.1 -38.29 91.13 -38.93 93.16 C-39.32 94.41 -39.7 95.66 -40.06 96.93 C-41.69 102.15 -44.55 106.03 -48.82 109.46 C-59.15 114.87 -73.84 111.69 -85.14 110.98 C-86.87 110.87 -88.6 110.76 -90.33 110.65 C-93.94 110.43 -97.55 110.2 -101.16 109.97 C-105.77 109.68 -110.38 109.4 -114.98 109.12 C-118.55 108.9 -122.12 108.68 -125.69 108.45 C-127.39 108.34 -129.09 108.24 -130.78 108.14 C-147.76 107.11 -147.76 107.11 -155 105 C-155 104.34 -155 103.68 -155 103 C-154.01 103.33 -153.02 103.66 -152 104 C-149.52 104.23 -147.07 104.42 -144.59 104.57 C-143.46 104.65 -143.46 104.65 -142.3 104.72 C-139.8 104.88 -137.3 105.04 -134.8 105.19 C-133.06 105.3 -131.31 105.41 -129.56 105.52 C-125.88 105.76 -122.2 105.98 -118.53 106.21 C-113.86 106.5 -109.2 106.8 -104.53 107.1 C-100.91 107.33 -97.29 107.55 -93.67 107.78 C-91.95 107.89 -90.24 107.99 -88.52 108.1 C-79.91 108.66 -71.31 109.12 -62.68 109.25 C-62 109.27 -61.31 109.3 -60.6 109.32 C-55.89 109.35 -53.1 108.3 -49 106 C-48.34 106 -47.68 106 -47 106 C-45.05 102.44 -43.85 98.7 -42.61 94.86 C-42.14 93.44 -41.68 92.03 -41.21 90.62 C-40.48 88.41 -39.75 86.2 -39.04 83.98 C-34.44 69.66 -29.65 63.36 -16.31 56 C-14.24 54.84 -12.18 53.67 -10.11 52.5 C-9.61 52.21 -9.1 51.93 -8.58 51.63 C-4.98 49.59 -1.44 47.49 2.08 45.31 C2.96 44.77 3.83 44.23 4.73 43.68 C7.56 41.59 9.56 39.65 10.48 36.2 C10.63 29.83 7.92 25.62 4.56 20.38 C-1.81 10.26 -1.81 10.26 -2 5 C-1.06 2.12 -1.06 2.12 0 0 Z " fill="#2A97AB" transform="translate(309,151)"/><path d="M0 0 C4.43 2.67 7.25 6.52 8.86 11.39 C12.03 24.66 9.94 38.55 7.88 51.82 C7.48 54.46 7.11 57.1 6.74 59.73 C6.49 61.43 6.23 63.12 5.97 64.81 C5.86 65.59 5.76 66.37 5.65 67.18 C4.79 72.44 3.46 75.04 -0.83 78.3 C-2.67 78.54 -4.28 78.5 -6.12 78.35 C-8.65 78.28 -10.59 79.22 -12.83 80.3 C-11.66 78.35 -11.66 78.35 -9.83 76.3 C-7.35 75.7 -7.35 75.7 -4.64 75.55 C-3.74 75.5 -2.84 75.44 -1.91 75.38 C-1.23 75.36 -0.54 75.33 0.17 75.3 C1.73 70.97 2.74 66.72 3.46 62.17 C3.57 61.49 3.67 60.82 3.79 60.13 C4.13 57.96 4.46 55.79 4.79 53.62 C4.91 52.88 5.02 52.14 5.13 51.38 C8.61 28.68 8.61 28.68 4.04 6.49 C1.27 3.26 -1.64 1.98 -5.83 1.3 C-10.03 1.71 -13.85 2.98 -17.83 4.3 C-18.89 6.15 -18.89 6.15 -19.83 8.3 C-20.78 9.7 -21.77 11.07 -22.77 12.43 C-23.35 13.21 -23.93 14 -24.53 14.8 C-25.15 15.63 -25.76 16.45 -26.39 17.3 C-27.34 18.57 -27.34 18.57 -28.3 19.87 C-29.56 21.56 -30.82 23.26 -32.08 24.95 C-33.61 27 -35.13 29.06 -36.65 31.12 C-37.44 32.18 -38.23 33.24 -39.02 34.3 C-40.03 35.67 -40.03 35.67 -41.06 37.05 C-41.65 37.8 -42.23 38.54 -42.83 39.3 C-43.45 40.1 -43.45 40.1 -44.07 40.92 C-46.6 42.91 -48.53 42.72 -51.71 42.78 C-52.29 42.8 -52.86 42.81 -53.45 42.83 C-55.29 42.88 -57.12 42.9 -58.96 42.93 C-61.36 42.98 -63.75 43.04 -66.15 43.09 C-67.29 43.12 -68.43 43.15 -69.61 43.18 C-73.71 43.34 -77.76 43.74 -81.83 44.3 C-81.83 43.64 -81.83 42.98 -81.83 42.3 C-72.97 40.21 -64.55 40.17 -55.49 40.64 C-49.95 40.84 -49.95 40.84 -45.12 38.39 C-44.33 37.39 -43.57 36.35 -42.83 35.3 C-42.29 34.61 -41.75 33.92 -41.2 33.21 C-39.29 30.75 -37.43 28.25 -35.58 25.74 C-34.92 24.85 -34.25 23.96 -33.57 23.05 C-30.71 19.21 -27.86 15.37 -25.1 11.46 C-18.78 2.59 -11.75 -4.46 0 0 Z " fill="#0395BE" transform="translate(342.83203125,43.6953125)"/><path d="M0 0 C5.94 0 11.88 0 18 0 C19 4 19 4 18 6 C17.01 6.33 16.02 6.66 15 7 C15.33 8.32 15.66 9.64 16 11 C15.36 11.12 14.72 11.25 14.06 11.38 C13.38 11.58 12.7 11.79 12 12 C11.67 12.66 11.34 13.32 11 14 C10.01 14 9.02 14 8 14 C8 13.34 8 12.68 8 12 C6.58 12.5 6.58 12.5 5.12 13 C2 14 2 14 0 14 C-0.33 13.34 -0.66 12.68 -1 12 C-1.33 12.66 -1.66 13.32 -2 14 C-2.66 14 -3.32 14 -4 14 C-4.33 12.35 -4.66 10.7 -5 9 C-5.66 9 -6.32 9 -7 9 C-7 10.65 -7 12.3 -7 14 C-7.66 13.67 -8.32 13.34 -9 13 C-9 11.68 -9 10.36 -9 9 C-9.66 9 -10.32 9 -11 9 C-11 8.34 -11 7.68 -11 7 C-5.55 6.5 -5.55 6.5 0 6 C0 4.02 0 2.04 0 0 Z " fill="#FE15FF" transform="translate(51,107)"/><path d="M0 0 C0.33 0 0.66 0 1 0 C1.01 1.03 1.03 2.06 1.04 3.12 C1.1 6.95 1.18 10.79 1.26 14.62 C1.3 16.28 1.32 17.94 1.35 19.59 C1.38 21.98 1.43 24.37 1.49 26.76 C1.49 27.49 1.5 28.23 1.51 28.98 C1.64 33.77 2.47 36.9 5 41 C8.45 43.95 11.65 44.61 16.08 44.4 C19.47 43.69 21.17 41.75 23 39 C25.71 34.44 27.77 29.63 29.73 24.71 C30.03 23.96 30.34 23.2 30.65 22.42 C31.25 20.92 31.84 19.41 32.41 17.89 C35.31 10.53 35.31 10.53 39 8 C42.32 6.83 45.69 6.06 49.12 5.31 C50.02 5.1 50.92 4.89 51.85 4.67 C57.88 3.3 63.84 2.47 70 2 C67.42 4.58 65.56 4.72 62 5.47 C61.41 5.6 60.83 5.73 60.22 5.86 C58.33 6.27 56.45 6.67 54.56 7.06 C52.68 7.46 50.8 7.87 48.92 8.28 C47.21 8.64 45.5 9.01 43.79 9.37 C40.94 9.97 40.94 9.97 38 11 C37.1 13.26 37.1 13.26 36.6 15.05 C35.29 19.29 33.46 23.35 31.75 27.44 C31.38 28.35 31.01 29.27 30.63 30.21 C27.67 37.25 24.35 43.89 17 47 C12.34 47.33 8.26 46.63 4.56 43.69 C1.92 41.3 0.18 38.85 -0.17 35.21 C-0.23 32.98 -0.22 30.75 -0.2 28.52 C-0.19 27.7 -0.19 26.88 -0.19 26.04 C-0.18 23.45 -0.15 20.85 -0.12 18.25 C-0.11 16.49 -0.11 14.72 -0.1 12.96 C-0.08 8.64 -0.04 4.32 0 0 Z " fill="#D60304" transform="translate(137,96)"/><path d="M0 0 C1.27 0 1.27 0 2.56 0.01 C3.45 0.02 4.33 0.03 5.25 0.04 C6.58 0.04 6.58 0.04 7.94 0.05 C10.19 0.06 12.44 0.08 14.68 0.1 C15.69 0.1 16.7 0.09 17.71 0.08 C20.53 0.06 23.36 0.05 26.18 0.04 C27.17 0.03 28.16 0.02 29.18 0.01 C30.59 0 30.59 0 32.03 0 C32.9 -0.01 33.76 -0.01 34.66 -0.02 C36.68 0.1 36.68 0.1 37.68 1.1 C37.72 2.76 37.73 4.43 37.68 6.1 C34.71 6.1 31.74 6.1 28.68 6.1 C28.68 4.45 28.68 2.8 28.68 1.1 C27.69 1.1 26.7 1.1 25.68 1.1 C25.68 2.75 25.68 4.4 25.68 6.1 C25.02 6.1 24.36 6.1 23.68 6.1 C23.19 4.12 23.19 4.12 22.68 2.1 C20.21 1.6 20.21 1.6 17.68 1.1 C17.68 2.42 17.68 3.74 17.68 5.1 C18.67 5.43 19.66 5.76 20.68 6.1 C19.02 6.14 17.35 6.14 15.68 6.1 C15.35 5.77 15.02 5.44 14.68 5.1 C14.68 5.43 14.68 5.76 14.68 6.1 C12.7 6.1 10.72 6.1 8.68 6.1 C8.68 4.45 8.68 2.8 8.68 1.1 C8.02 1.1 7.36 1.1 6.68 1.1 C6.68 2.75 6.68 4.4 6.68 6.1 C6.02 6.1 5.36 6.1 4.68 6.1 C4.35 4.78 4.02 3.46 3.68 2.1 C3.02 2.1 2.36 2.1 1.68 2.1 C1.68 3.42 1.68 4.74 1.68 6.1 C-2.28 6.1 -6.24 6.1 -10.32 6.1 C-10.32 4.45 -10.32 2.8 -10.32 1.1 C-9.99 2.42 -9.66 3.74 -9.32 5.1 C-8.66 4.77 -8 4.44 -7.32 4.1 C-6.99 3.11 -6.66 2.12 -6.32 1.1 C-3.98 -0.07 -2.6 -0.02 0 0 Z " fill="#D4EDD3" transform="translate(50.31640625,270.90234375)"/><path d="M0 0 C0.33 0 0.66 0 1 0 C1 14.85 1 29.7 1 45 C3.47 44.5 3.47 44.5 6 44 C6 47.96 6 51.92 6 56 C6.66 56.33 7.32 56.66 8 57 C7.24 57.27 6.47 57.54 5.69 57.81 C2.7 58.94 2.7 58.94 0 62 C0 41.54 0 21.08 0 0 Z " fill="#979A9B" transform="translate(143,68)"/><path d="M0 0 C2.12 0.38 2.12 0.38 4 1 C4.62 2.88 4.62 2.88 5 5 C4.34 5.66 3.68 6.32 3 7 C2.79 9.28 2.79 9.28 2.94 12.06 C3.06 19.16 2.8 26.22 2.5 33.31 C2.43 35.02 2.43 35.02 2.36 36.77 C2.24 39.51 2.12 42.26 2 45 C1.67 45 1.34 45 1 45 C0.67 35.1 0.34 25.2 0 15 C-1.65 16.98 -3.3 18.96 -5 21 C-8.46 23.31 -10.72 23.24 -14.69 23.12 C-15.29 23.12 -15.9 23.11 -16.53 23.1 C-18.02 23.07 -19.51 23.04 -21 23 C-21.33 22.34 -21.66 21.68 -22 21 C-20.81 21.07 -20.81 21.07 -19.59 21.14 C-12.77 21.58 -12.77 21.58 -6.5 19.38 C-3.61 16.63 -1.81 14.56 0 11 C-0.08 8.37 -0.08 8.37 -1 6 C-1.69 3.81 -1.69 3.81 -2 2 C-1.34 1.34 -0.68 0.68 0 0 Z " fill="#3FC132" transform="translate(136,229)"/><path d="M0 0 C1.98 0 3.96 0 6 0 C6.33 1.65 6.66 3.3 7 5 C7.66 5 8.32 5 9 5 C9 3.35 9 1.7 9 0 C9.66 0 10.32 0 11 0 C11 1.65 11 3.3 11 5 C11.41 4.67 11.83 4.34 12.25 4 C14.33 2.81 15.65 2.84 18 3 C18 3.66 18 4.32 18 5 C18.66 4.67 19.32 4.34 20 4 C20 2.68 20 1.36 20 0 C21.65 0 23.3 0 25 0 C25.66 1.98 26.32 3.96 27 6 C26.01 6 25.02 6 24 6 C24 7.65 24 9.3 24 11 C23.34 9.68 22.68 8.36 22 7 C21.01 8.49 21.01 8.49 20 10 C20 9.01 20 8.02 20 7 C19.01 7 18.02 7 17 7 C15.79 8.44 15.79 8.44 15 10 C15 9.01 15 8.02 15 7 C14.24 7 13.47 7 12.69 7 C9.08 7 6.6 6.99 3.31 5.5 C2.69 5.22 2.07 4.94 1.43 4.66 C0.72 4.33 0.72 4.33 0 4 C1.32 3.67 2.64 3.34 4 3 C4 2.34 4 1.68 4 1 C2.68 0.67 1.36 0.34 0 0 Z " fill="#13C001" transform="translate(48,272)"/><path d="M0 0 C1.98 0 3.96 0 6 0 C7.12 3.75 7.12 3.75 6 6 C-0.62 6.12 -0.62 6.12 -4 5 C-4 4.34 -4 3.68 -4 3 C-3.01 3 -2.02 3 -1 3 C-0.67 2.01 -0.34 1.02 0 0 Z M-5 6 C-2.36 6.33 0.28 6.66 3 7 C3.33 8.32 3.66 9.64 4 11 C3.36 11.12 2.72 11.25 2.06 11.38 C1.04 11.68 1.04 11.68 0 12 C-0.33 12.66 -0.66 13.32 -1 14 C-2.65 13.01 -4.3 12.02 -6 11 C-5.67 9.35 -5.34 7.7 -5 6 Z " fill="#FE0EFF" transform="translate(63,107)"/><path d="M0 0 C0.76 0.08 1.53 0.16 2.31 0.25 C1.67 0.56 1.03 0.87 0.38 1.19 C-1.62 2.08 -1.62 2.08 -2.69 3.25 C-0.38 3.58 1.93 3.91 4.31 4.25 C4.64 6.23 4.97 8.21 5.31 10.25 C3.62 11.81 3.62 11.81 1.31 13.25 C-2.06 13.01 -3.28 12.66 -5.69 10.25 C-6.05 6.93 -6 4.88 -4.5 1.88 C-2.69 0.25 -2.69 0.25 0 0 Z " fill="#393A42" transform="translate(296.6875,149.75)"/><path d="M0 0 C2.46 1.08 3.91 2.22 6 4 C7.2 7.59 7.07 10.23 7 14 C6.34 14 5.68 14 5 14 C4.97 13.46 4.95 12.91 4.92 12.36 C4.6 7.83 4.6 7.83 2.38 4 C-0.84 2.64 -3.56 2.4 -7 3 C-10.19 4.76 -10.83 5.5 -12 9 C-12.15 11.06 -12.25 13.13 -12.32 15.2 C-12.34 15.79 -12.36 16.39 -12.38 17 C-12.44 18.9 -12.5 20.79 -12.56 22.69 C-12.61 23.97 -12.65 25.26 -12.69 26.55 C-12.8 29.7 -12.9 32.85 -13 36 C-13.33 36 -13.66 36 -14 36 C-14.07 32.1 -14.13 28.21 -14.16 24.31 C-14.18 22.99 -14.2 21.66 -14.23 20.34 C-14.26 18.43 -14.28 16.52 -14.29 14.61 C-14.31 13.47 -14.32 12.32 -14.34 11.14 C-13.96 7.65 -13.01 5.84 -11 3 C-10.61 2.4 -10.22 1.8 -9.81 1.19 C-6.73 -0.83 -3.55 -0.62 0 0 Z " fill="#9DD398" transform="translate(151,192)"/><path d="M0 0 C0.33 0 0.66 0 1 0 C1.01 0.62 1.01 1.25 1.02 1.89 C1.08 7.79 1.15 13.69 1.24 19.59 C1.28 22.62 1.32 25.65 1.35 28.68 C1.38 32.18 1.43 35.67 1.49 39.16 C1.49 40.24 1.5 41.32 1.51 42.43 C1.67 50.94 3.34 56.56 9 63 C5.64 62.16 3.71 61.06 1.85 58.19 C-0.99 52.92 -0.5 47.35 -0.39 41.5 C-0.38 40.3 -0.38 39.1 -0.37 37.9 C-0.36 34.76 -0.32 31.63 -0.27 28.49 C-0.23 25.28 -0.22 22.06 -0.2 18.85 C-0.15 12.57 -0.08 6.28 0 0 Z " fill="#A4E29D" transform="translate(105,187)"/><path d="M0 0 C3.19 0.47 4.1 0.91 6 3.44 C5.34 5.09 4.68 6.74 4 8.44 C-0.45 8.93 -0.45 8.93 -5 9.44 C-5.91 6.46 -6.26 5 -4.94 2.12 C-3 0.44 -3 0.44 0 0 Z " fill="#21222A" transform="translate(291,69.5625)"/><path d="M0 0 C0.93 0.17 1.86 0.33 2.81 0.5 C5.81 0.97 7.18 0.8 10 0 C10.66 0.33 11.32 0.66 12 1 C12.04 2.67 12.04 4.33 12 6 C11 7 11 7 8.5 7.1 C6.98 7.08 6.98 7.08 5.44 7.06 C4.43 7.05 3.41 7.04 2.37 7.04 C1.59 7.02 0.81 7.01 0 7 C0.21 6.38 0.41 5.76 0.62 5.12 C0.75 4.42 0.87 3.72 1 3 C0.34 2.34 -0.32 1.68 -1 1 C-0.67 0.67 -0.34 0.34 0 0 Z " fill="#CDEACC" transform="translate(51,278)"/><path d="M0 0 C3.48 -0.03 6.96 -0.05 10.44 -0.06 C11.93 -0.08 11.93 -0.08 13.45 -0.09 C14.39 -0.09 15.34 -0.09 16.31 -0.1 C17.62 -0.11 17.62 -0.11 18.96 -0.11 C21 0 21 0 22 1 C22.04 2.67 22.04 4.33 22 6 C19.03 6 16.06 6 13 6 C13 4.35 13 2.7 13 1 C12.01 1 11.02 1 10 1 C10 2.65 10 4.3 10 6 C9.34 6 8.68 6 8 6 C7.67 4.68 7.34 3.36 7 2 C4.69 1.67 2.38 1.34 0 1 C0 0.67 0 0.34 0 0 Z " fill="#CBEDC8" transform="translate(66,271)"/><path d="M0 0 C9 7.91 14.63 19.34 17 31 C17.07 32.58 17.09 34.17 17.06 35.75 C17.05 36.55 17.04 37.35 17.04 38.17 C17.02 38.78 17.01 39.38 17 40 C16.67 40 16.34 40 16 40 C15.79 38.94 15.58 37.87 15.37 36.77 C13.81 29.26 12.03 22.19 8.56 15.31 C8.29 14.76 8.01 14.21 7.73 13.64 C5.87 10.15 3.66 7.29 0.97 4.38 C0 3 0 3 0 0 Z " fill="#D20305" transform="translate(121,33)"/><path d="M0 0 C2.48 0.04 3.39 0.1 5.5 1.5 C6.73 3.41 7.13 5.05 7.62 7.25 C6.85 7.24 6.08 7.23 5.29 7.21 C4.29 7.21 3.28 7.2 2.25 7.19 C0.75 7.17 0.75 7.17 -0.77 7.15 C-3.36 7.07 -3.36 7.07 -5.38 8.25 C-4.37 0.32 -4.37 0.32 0 0 Z " fill="#23242D" transform="translate(167.375,93.75)"/><path d="M0 0 C3 0.38 3 0.38 4.88 1.5 C6.47 4.16 6.2 6.34 6 9.38 C4.35 9.05 2.7 8.71 1 8.38 C1.33 7.38 1.66 6.39 2 5.38 C1.34 5.38 0.68 5.38 0 5.38 C0 6.37 0 7.36 0 8.38 C-1.88 8.12 -1.88 8.12 -4 7.38 C-5.25 5.31 -5.25 5.31 -6 3.38 C-4.09 0.83 -3.22 0.4 0 0 Z " fill="#55575E" transform="translate(106,10.625)"/><path d="M0 0 C-0.33 1.32 -0.66 2.64 -1 4 C-1.78 3.79 -2.57 3.59 -3.38 3.38 C-4.24 3.25 -5.11 3.13 -6 3 C-6.66 3.66 -7.32 4.32 -8 5 C-8 4.34 -8 3.68 -8 3 C-8.66 3 -9.32 3 -10 3 C-10.33 3.99 -10.66 4.98 -11 6 C-11 5.01 -11 4.02 -11 3 C-12.32 3.33 -13.64 3.66 -15 4 C-15 4.66 -15 5.32 -15 6 C-14.34 6.33 -13.68 6.66 -13 7 C-14.43 7.25 -15.87 7.47 -17.31 7.69 C-18.11 7.82 -18.91 7.94 -19.74 8.07 C-22 8 -22 8 -23.79 6.52 C-24.19 6.02 -24.59 5.52 -25 5 C-24.67 4.67 -24.34 4.34 -24 4 C-22.26 4.03 -20.52 4.07 -18.79 4.16 C-16.63 3.97 -15.78 3.2 -14 2 C-11.66 1.37 -11.66 1.37 -9.06 0.88 C-8.21 0.71 -7.35 0.54 -6.47 0.37 C-4.26 0.04 -2.23 -0.07 0 0 Z " fill="#C90406" transform="translate(233,91)"/><path d="M0 0 C1.76 0.26 3.5 0.62 5.24 0.98 C5.24 3.29 5.24 5.6 5.24 7.98 C2.6 7.98 -0.04 7.98 -2.76 7.98 C-3.42 6.33 -4.08 4.68 -4.76 2.98 C-3.39 0.96 -2.51 -0.03 0 0 Z " fill="#2F2F38" transform="translate(340.7578125,27.0234375)"/><path d="M0 0 C5.57 0.61 5.57 0.61 7.44 2.31 C8 4 8 4 7 8 C4.03 8 1.06 8 -2 8 C-1.12 2.25 -1.12 2.25 0 0 Z " fill="#23242D" transform="translate(352,120)"/><path d="M0 0 C2.81 -0.25 2.81 -0.25 6 0 C7.88 2 7.88 2 9 4 C8.34 5.32 7.68 6.64 7 8 C4.69 8 2.38 8 0 8 C-0.98 4.95 -0.98 3.05 0 0 Z " fill="#2F3039" transform="translate(329,184)"/><path d="M0 0 C1.32 0 2.64 0 4 0 C4.31 6.9 3.41 13.25 2 20 C1.01 20.33 0.02 20.66 -1 21 C-1.66 20.34 -2.32 19.68 -3 19 C-1.25 15.12 -1.25 15.12 1 14 C0.34 13.34 -0.32 12.68 -1 12 C-0.01 12 0.98 12 2 12 C2 11.34 2 10.68 2 10 C1.01 9.67 0.02 9.34 -1 9 C-0.01 8.67 0.98 8.34 2 8 C2 7.34 2 6.68 2 6 C1.34 5.67 0.68 5.34 0 5 C0 3.35 0 1.7 0 0 Z " fill="#738176" transform="translate(156,213)"/><path d="M0 0 C4 0 8 0 12 0 C12 2.31 12 4.62 12 7 C10.35 7 8.7 7 7 7 C7.33 6.01 7.66 5.02 8 4 C7.01 4.5 7.01 4.5 6 5 C6 5.66 6 6.32 6 7 C5.01 6.67 4.02 6.34 3 6 C2.31 3.94 2.31 3.94 2 2 C2 3.65 2 5.3 2 7 C1.34 7 0.68 7 0 7 C0 4.69 0 2.38 0 0 Z " fill="#C7EBC3" transform="translate(65,263)"/><path d="M0 0 C1.79 1.87 2.75 3.7 4 6 C-1.44 6.99 -1.44 6.99 -7 8 C-7.33 5.69 -7.66 3.38 -8 1 C-5.09 -0.46 -3.22 -0.45 0 0 Z " fill="#22232C" transform="translate(272,208)"/><path d="M0 0 C3.27 0.07 3.27 0.07 4.94 1.81 C5.12 2.31 5.31 2.8 5.5 3.31 C4.18 4.96 2.86 6.61 1.5 8.31 C-0.88 8.12 -0.88 8.12 -3.5 7.31 C-4.81 4.75 -4.81 4.75 -5.5 2.31 C-3.28 0.1 -2.96 0.02 0 0 Z " fill="#24252D" transform="translate(330.5,105.6875)"/><path d="M0 0 C0.99 0 1.98 0 3 0 C3 0.66 3 1.32 3 2 C3.66 2 4.32 2 5 2 C5 1.34 5 0.68 5 0 C5.66 0 6.32 0 7 0 C7 2.31 7 4.62 7 7 C6.34 7 5.68 7 5 7 C5 7.66 5 8.32 5 9 C4.34 9 3.68 9 3 9 C3 9.66 3 10.32 3 11 C2.01 11 1.02 11 0 11 C0 10.34 0 9.68 0 9 C0.66 9 1.32 9 2 9 C2 8.34 2 7.68 2 7 C1.34 7 0.68 7 0 7 C0 6.01 0 5.02 0 4 C0.66 4 1.32 4 2 4 C2 3.34 2 2.68 2 2 C1.34 2 0.68 2 0 2 C0 1.34 0 0.68 0 0 Z " fill="#7F7E85" transform="translate(83,180)"/><path d="M0 0 C3.96 0 7.92 0 12 0 C12.33 2.31 12.66 4.62 13 7 C12.34 7 11.68 7 11 7 C10.67 6.34 10.34 5.68 10 5 C9.67 5.66 9.34 6.32 9 7 C8.34 7 7.68 7 7 7 C6.67 5.35 6.34 3.7 6 2 C5.34 2 4.68 2 4 2 C4 3.65 4 5.3 4 7 C3.34 6.67 2.68 6.34 2 6 C2 4.68 2 3.36 2 2 C1.34 2 0.68 2 0 2 C0 1.34 0 0.68 0 0 Z " fill="#EBEAF2" transform="translate(40,114)"/><path d="M0 0 C0.66 0.33 1.32 0.66 2 1 C2.62 3.56 2.62 3.56 3 6 C3.66 5.67 4.32 5.34 5 5 C4.67 4.01 4.34 3.02 4 2 C5.32 2 6.64 2 8 2 C8 3.65 8 5.3 8 7 C5.36 7 2.72 7 0 7 C-0.33 7.66 -0.66 8.32 -1 9 C-1.98 3.73 -1.98 3.73 -2 2 C-1.34 1.34 -0.68 0.68 0 0 Z " fill="#45454D" transform="translate(143,178)"/><path d="M0 0 C1.07 1.62 2.05 3.31 3 5 C3.89 6.44 4.79 7.88 5.69 9.31 C6.12 10.01 6.56 10.71 7.01 11.43 C7.5 12.21 7.5 12.21 8 13 C7.01 13.5 7.01 13.5 6 14 C0.2 8.35 0.2 8.35 -2 5 C-2 4.34 -2 3.68 -2 3 C-2.66 3 -3.32 3 -4 3 C-4 2.34 -4 1.68 -4 1 C-2 0 -2 0 0 0 Z " fill="#B9E7B5" transform="translate(130,25)"/><path d="M0 0 C0.81 1.69 0.81 1.69 1 4 C-2.52 8.54 -6.81 10.7 -12 13 C-12 12.01 -12 11.02 -12 10 C-10.68 9.34 -9.36 8.68 -8 8 C-8 7.34 -8 6.68 -8 6 C-6.35 5.67 -4.7 5.34 -3 5 C-3 4.34 -3 3.68 -3 3 C-2.01 3 -1.02 3 0 3 C0 2.01 0 1.02 0 0 Z " fill="#D9D7E1" transform="translate(315,183)"/><path d="M0 0 C4.26 -0.39 7.74 -0.56 11.44 1.81 C14 4 14 4 15 7 C15.13 9.34 15.04 11.65 15 14 C14.34 14 13.68 14 13 14 C12.96 13.19 12.96 13.19 12.92 12.36 C12.63 7.89 12.63 7.89 10.44 4.12 C7.07 2.57 3.63 1.75 0 1 C0 0.67 0 0.34 0 0 Z " fill="#7A9075" transform="translate(143,192)"/><path d="M0 0 C0.33 0.66 0.66 1.32 1 2 C0.67 2.66 0.34 3.32 0 4 C0.99 3.67 1.98 3.34 3 3 C3 3.66 3 4.32 3 5 C2.34 5.66 1.68 6.32 1 7 C0.67 7.66 0.34 8.32 0 9 C-0.66 9 -1.32 9 -2 9 C-2.33 9.99 -2.66 10.98 -3 12 C-4.32 11.34 -5.64 10.68 -7 10 C-4.75 6.59 -2.49 3.24 0 0 Z " fill="#0782A6" transform="translate(317,138)"/><path d="M0 0 C1.67 -0.04 3.33 -0.04 5 0 C6 1 6 1 6.12 3.5 C6 6 6 6 5 7 C3.33 7.04 1.67 7.04 0 7 C0 4.69 0 2.38 0 0 Z " fill="#D9F1D7" transform="translate(58,263)"/><path d="M0 0 C1.68 0.29 3.34 0.62 5 1 C5 3.64 5 6.28 5 9 C4.34 9 3.68 9 3 9 C3 8.34 3 7.68 3 7 C1.02 7.99 1.02 7.99 -1 9 C-1.03 7.69 -1.05 6.38 -1.06 5.06 C-1.07 4.33 -1.09 3.6 -1.1 2.85 C-1 1 -1 1 0 0 Z " fill="#86868C" transform="translate(85,148)"/><path d="M0 0 C3.04 -0.08 5.07 0.02 8 1 C8 2.32 8 3.64 8 5 C8.99 5.33 9.98 5.66 11 6 C9.33 6.04 7.67 6.04 6 6 C5.67 5.67 5.34 5.34 5 5 C5 5.33 5 5.66 5 6 C3.35 6 1.7 6 0 6 C0 4.02 0 2.04 0 0 Z " fill="#D7F0D6" transform="translate(60,271)"/><path d="M0 0 C1.98 0 3.96 0 6 0 C7.12 3.75 7.12 3.75 6 6 C4.02 6 2.04 6 0 6 C0 4.02 0 2.04 0 0 Z " fill="#F0EFF3" transform="translate(63,107)"/><path d="M0 0 C1.65 0 3.3 0 5 0 C5 2.64 5 5.28 5 8 C3.35 8 1.7 8 0 8 C0 5.36 0 2.72 0 0 Z " fill="#DAEEDB" transform="translate(144,103)"/><path d="M0 0 C0.64 0.17 1.28 0.33 1.94 0.5 C4.05 1.25 4.05 1.25 6 0 C6 2.31 6 4.62 6 7 C5.4 6.81 4.8 6.63 4.19 6.44 C1.84 5.78 1.84 5.78 -1 7 C-1.04 5 -1.04 3 -1 1 C-0.67 0.67 -0.34 0.34 0 0 Z " fill="#C3EAC0" transform="translate(65,278)"/><path d="M0 0 C0.6 0.19 1.2 0.37 1.81 0.56 C4.16 1.22 4.16 1.22 7 0 C7 1.98 7 3.96 7 6 C4.67 6 2.33 6 0 6 C0 4.02 0 2.04 0 0 Z " fill="#D8F0D7" transform="translate(89,271)"/><path d="M0 0 C1.67 -0.04 3.33 -0.04 5 0 C6 1 6 1 6.06 3.56 C6.04 4.37 6.02 5.17 6 6 C4.02 6 2.04 6 0 6 C0 4.02 0 2.04 0 0 Z " fill="#DBF1DB" transform="translate(82,271)"/><path d="M0 0 C0.99 0.99 1.98 1.98 3 3 C2.01 3.5 2.01 3.5 1 4 C0.28 5.64 -0.39 7.31 -1 9 C-2.32 8.67 -3.64 8.34 -5 8 C-3.63 5.05 -2.01 2.56 0 0 Z " fill="#0587AD" transform="translate(325,128)"/><path d="M0 0 C1.45 0.03 1.45 0.03 2.94 0.06 C3.27 1.71 3.6 3.36 3.94 5.06 C1.63 5.06 -0.68 5.06 -3.06 5.06 C-3.62 3.12 -3.62 3.12 -4.06 1.06 C-3.06 0.06 -3.06 0.06 0 0 Z " fill="#C5C5C9" transform="translate(150.0625,127.9375)"/><path d="M0 0 C1.65 0 3.3 0 5 0 C5 2.31 5 4.62 5 7 C3.35 7 1.7 7 0 7 C0 4.69 0 2.38 0 0 Z " fill="#C7E9C3" transform="translate(72,278)"/><path d="M0 0 C5.45 -0.36 5.45 -0.36 7.88 1.25 C9.22 3.34 9.25 4.56 9 7 C7.68 6.67 6.36 6.34 5 6 C5.66 6 6.32 6 7 6 C6.67 5.34 6.34 4.68 6 4 C2.97 3.34 2.97 3.34 0 3 C0 2.01 0 1.02 0 0 Z " fill="#262730" transform="translate(147,125)"/><path d="M0 0 C0.99 0 1.98 0 3 0 C3 0.66 3 1.32 3 2 C3.66 2 4.32 2 5 2 C5 1.34 5 0.68 5 0 C5.66 0 6.32 0 7 0 C7.33 1.32 7.66 2.64 8 4 C4.62 4.84 2.33 5.11 -1 4 C-0.67 2.68 -0.34 1.36 0 0 Z " fill="#BFBFC3" transform="translate(288,73)"/><path d="M0 0 C2.64 0 5.28 0 8 0 C8 1.32 8 2.64 8 4 C5.69 4 3.38 4 1 4 C0.67 2.68 0.34 1.36 0 0 Z " fill="#A2A2A7" transform="translate(328,188)"/><path d="M0 0 C2.64 0 5.28 0 8 0 C8 1.32 8 2.64 8 4 C5.36 4 2.72 4 0 4 C0 2.68 0 1.36 0 0 Z " fill="#ADADB2" transform="translate(350,124)"/><path d="M0 0 C2.31 0.33 4.62 0.66 7 1 C7.33 1.99 7.66 2.98 8 4 C5.03 3.5 5.03 3.5 2 3 C2.66 4.32 3.32 5.64 4 7 C3.01 7 2.02 7 1 7 C1 5.68 1 4.36 1 3 C0.34 2.67 -0.32 2.34 -1 2 C-0.67 1.34 -0.34 0.68 0 0 Z " fill="#272831" transform="translate(145,177)"/><path d="M0 0 C2.31 0 4.62 0 7 0 C7.33 1.32 7.66 2.64 8 4 C5.36 4 2.72 4 0 4 C0 2.68 0 1.36 0 0 Z " fill="#9D9DA1" transform="translate(338,31)"/><path d="M0 0 C3 1 3 1 4.69 3.94 C6 7 6 7 6 9 C4.19 8.94 4.19 8.94 2 8 C0.72 5.77 -0.16 3.43 -1 1 C-0.67 0.67 -0.34 0.34 0 0 Z " fill="#C5EBC1" transform="translate(137,39)"/><path d="M0 0 C2.31 0 4.62 0 7 0 C7.33 1.32 7.66 2.64 8 4 C5.36 4.33 2.72 4.66 0 5 C0 3.35 0 1.7 0 0 Z " fill="#97979C" transform="translate(265,211)"/><path d="M0 0 C0 1.98 0 3.96 0 6 C-1.65 6 -3.3 6 -5 6 C-5 4.35 -5 2.7 -5 1 C-3 0 -3 0 0 0 Z " fill="#E4F4E5" transform="translate(149,112)"/><path d="M0 0 C2.31 0 4.62 0 7 0 C7 1.32 7 2.64 7 4 C4.36 4 1.72 4 -1 4 C-0.67 2.68 -0.34 1.36 0 0 Z " fill="#A0A0A5" transform="translate(165,97)"/><path d="M0 0 C1.98 0 3.96 0 6 0 C5.67 1.32 5.34 2.64 5 4 C4.01 4 3.02 4 2 4 C2 4.66 2 5.32 2 6 C1.34 6 0.68 6 0 6 C0 4.02 0 2.04 0 0 Z " fill="#F3F1FD" transform="translate(44,107)"/><path d="M0 0 C1.98 0 3.96 0 6 0 C5.67 1.65 5.34 3.3 5 5 C2 5 2 5 -1 4 C-0.67 2.68 -0.34 1.36 0 0 Z " fill="#A1A1A6" transform="translate(328,109)"/><path d="M0 0 C1.68 0.29 3.34 0.62 5 1 C4.34 2.32 3.68 3.64 3 5 C3.66 5.66 4.32 6.32 5 7 C3.35 7 1.7 7 0 7 C0.21 6.38 0.41 5.76 0.62 5.12 C0.75 4.42 0.87 3.72 1 3 C0.34 2.34 -0.32 1.68 -1 1 C-0.67 0.67 -0.34 0.34 0 0 Z " fill="#C6E7C3" transform="translate(51,278)"/><path d="M0 0 C0.66 0 1.32 0 2 0 C2 0.99 2 1.98 2 3 C2.66 2.67 3.32 2.34 4 2 C3.67 1.34 3.34 0.68 3 0 C4.32 0 5.64 0 7 0 C7 1.65 7 3.3 7 5 C4.69 5 2.38 5 0 5 C0 3.35 0 1.7 0 0 Z " fill="#A1A1A6" transform="translate(161,245)"/><path d="M0 0 C2.97 0 5.94 0 9 0 C9 1.98 9 3.96 9 6 C8.67 6 8.34 6 8 6 C8 4.35 8 2.7 8 1 C7.34 1 6.68 1 6 1 C6 2.65 6 4.3 6 6 C5.34 6 4.68 6 4 6 C3.9 5.38 3.79 4.76 3.69 4.12 C3.12 1.63 3.12 1.63 0 0 Z " fill="#C3EBBF" transform="translate(51,271)"/><path d="M0 0 C0.66 0.33 1.32 0.66 2 1 C2 1.99 2 2.98 2 4 C2.66 4.33 3.32 4.66 4 5 C3.67 4.01 3.34 3.02 3 2 C3.99 1.67 4.98 1.34 6 1 C6.66 1.66 7.32 2.32 8 3 C7.01 3 6.02 3 5 3 C5 3.66 5 4.32 5 5 C5.99 5.33 6.98 5.66 8 6 C5.03 6 2.06 6 -1 6 C-0.67 4.02 -0.34 2.04 0 0 Z " fill="#1EC20D" transform="translate(67,265)"/><path d="M0 0 C2.64 0 5.28 0 8 0 C7.67 1.32 7.34 2.64 7 4 C5.35 4 3.7 4 2 4 C2.33 3.01 2.66 2.02 3 1 C2.34 1 1.68 1 1 1 C0.67 1.99 0.34 2.98 0 4 C0 2.68 0 1.36 0 0 Z " fill="#A7A7AB" transform="translate(293,154)"/><path d="M0 0 C2.47 0.5 2.47 0.5 5 1 C4.67 2.32 4.34 3.64 4 5 C3.01 5 2.02 5 1 5 C0.67 5.66 0.34 6.32 0 7 C0 4.69 0 2.38 0 0 Z " fill="#F3D3FA" transform="translate(62,114)"/><path d="M0 0 C0.99 0 1.98 0 3 0 C3.33 2.64 3.66 5.28 4 8 C2.68 8 1.36 8 0 8 C0 5.36 0 2.72 0 0 Z " fill="#B9E7B4" transform="translate(146,89)"/><path d="M0 0 C0.6 0.19 1.2 0.37 1.81 0.56 C4.16 1.22 4.16 1.22 7 0 C7 1.32 7 2.64 7 4 C4.69 4.33 2.38 4.66 0 5 C0 3.35 0 1.7 0 0 Z " fill="#AFAFB5" transform="translate(117,260)"/><path d="M0 0 C0.27 0.57 0.53 1.14 0.8 1.73 C2.06 4.11 3.49 6.12 5.12 8.25 C5.66 8.96 6.2 9.66 6.76 10.39 C7.17 10.92 7.58 11.45 8 12 C4.26 11.06 2.57 9.79 0.62 6.56 C-0.4 4.75 -0.4 4.75 -1 3 C-0.67 2.01 -0.34 1.02 0 0 Z " fill="#7F9380" transform="translate(106,238)"/><path d="M0 0 C1.65 0.33 3.3 0.66 5 1 C5 1.66 5 2.32 5 3 C2.69 3.33 0.38 3.66 -2 4 C-2 4.66 -2 5.32 -2 6 C-2.66 5.67 -3.32 5.34 -4 5 C-2.68 3.35 -1.36 1.7 0 0 Z " fill="#E1DFEB" transform="translate(285,219)"/><path d="M0 0 C0.99 0 1.98 0 3 0 C3 2.64 3 5.28 3 8 C2.01 8 1.02 8 0 8 C0 5.36 0 2.72 0 0 Z " fill="#D1EFCF" transform="translate(94,141)"/><path d="M0 0 C1.32 0 2.64 0 4 0 C4 2.31 4 4.62 4 7 C2.68 6.34 1.36 5.68 0 5 C0 3.35 0 1.7 0 0 Z " fill="#79927A" transform="translate(156,213)"/><path d="M0 0 C1.32 0 2.64 0 4 0 C4 1.65 4 3.3 4 5 C1.69 5 -0.62 5 -3 5 C-2.34 3.68 -1.68 2.36 -1 1 C-1 1.99 -1 2.98 -1 4 C-0.34 3.67 0.32 3.34 1 3 C0.67 2.01 0.34 1.02 0 0 Z " fill="#B6B7BB" transform="translate(147,180)"/><path d="M0 0 C0.99 0.33 1.98 0.66 3 1 C2 3 2 3 1 4 C2.32 4.33 3.64 4.66 5 5 C5 5.66 5 6.32 5 7 C4.34 7 3.68 7 3 7 C3 6.34 3 5.68 3 5 C1.35 5.66 -0.3 6.32 -2 7 C-1.12 2.25 -1.12 2.25 0 0 Z " fill="#F0EFF7" transform="translate(56,114)"/><path d="M0 0 C1.98 0 3.96 0 6 0 C5.25 2.44 5.25 2.44 4 5 C1.88 5.81 1.88 5.81 0 6 C0 4.02 0 2.04 0 0 Z " fill="#B4E0B0" transform="translate(39,271)"/><path d="M0 0 C1.32 0.33 2.64 0.66 4 1 C4 1.66 4 2.32 4 3 C3.29 3.46 3.29 3.46 2.56 3.94 C0.66 5 0.66 5 0 8 C-0.66 8 -1.32 8 -2 8 C-1.34 5.36 -0.68 2.72 0 0 Z " fill="#E6E4F1" transform="translate(278,231)"/><path d="M0 0 C1.65 0 3.3 0 5 0 C5 0.99 5 1.98 5 3 C4.01 3 3.02 3 2 3 C2 3.66 2 4.32 2 5 C2.99 5.33 3.98 5.66 5 6 C3.35 6 1.7 6 0 6 C0 4.02 0 2.04 0 0 Z " fill="#F7F6FF" transform="translate(57,107)"/><path d="M0 0 C1.65 0 3.3 0 5 0 C5 0.99 5 1.98 5 3 C4.01 3 3.02 3 2 3 C2 3.66 2 4.32 2 5 C2.99 5.33 3.98 5.66 5 6 C3.35 6 1.7 6 0 6 C0 4.02 0 2.04 0 0 Z " fill="#F6F5FD" transform="translate(51,107)"/><path d="M0 0 C0.99 0.33 1.98 0.66 3 1 C3.33 2.98 3.66 4.96 4 7 C2.35 7 0.7 7 -1 7 C-0.34 5.35 0.32 3.7 1 2 C0.34 1.67 -0.32 1.34 -1 1 C-0.67 0.67 -0.34 0.34 0 0 Z " fill="#C0E4BD" transform="translate(81,278)"/><path d="M0 0 C0.99 0 1.98 0 3 0 C3 0.66 3 1.32 3 2 C3.66 2 4.32 2 5 2 C5 2.99 5 3.98 5 5 C4.01 4.67 3.02 4.34 2 4 C2 3.34 2 2.68 2 2 C1.34 2 0.68 2 0 2 C0 1.34 0 0.68 0 0 Z M0 4 C0.66 4 1.32 4 2 4 C2 4.99 2 5.98 2 7 C1.34 7 0.68 7 0 7 C0 6.01 0 5.02 0 4 Z " fill="#5A5B62" transform="translate(83,180)"/><path d="M0 0 C1.32 0 2.64 0 4 0 C4 1.65 4 3.3 4 5 C3.34 5 2.68 5 2 5 C2 4.34 2 3.68 2 3 C0.02 3.99 0.02 3.99 -2 5 C-1.34 3.35 -0.68 1.7 0 0 Z " fill="#949499" transform="translate(86,152)"/><path d="M0 0 C1.65 0 3.3 0 5 0 C5.33 0.66 5.66 1.32 6 2 C5.67 2.99 5.34 3.98 5 5 C4.01 5 3.02 5 2 5 C2 3.68 2 2.36 2 1 C1.34 0.67 0.68 0.34 0 0 Z " fill="#7DD873" transform="translate(58,263)"/><path d="M0 0 C0.33 0.66 0.66 1.32 1 2 C1.66 2 2.32 2 3 2 C2.34 3.32 1.68 4.64 1 6 C0.01 6 -0.98 6 -2 6 C-1.34 4.02 -0.68 2.04 0 0 Z " fill="#134A5F" transform="translate(319,136)"/><path d="M0 0 C0.99 0 1.98 0 3 0 C3 1.98 3 3.96 3 6 C2.01 6 1.02 6 0 6 C0 4.02 0 2.04 0 0 Z " fill="#CCEDC8" transform="translate(94,95)"/><path d="M0 0 C0.99 0 1.98 0 3 0 C3 1.98 3 3.96 3 6 C2.01 6 1.02 6 0 6 C0 4.02 0 2.04 0 0 Z " fill="#CAEBC6" transform="translate(94,86)"/><path d="M0 0 C0.66 0.33 1.32 0.66 2 1 C1.69 1.39 1.38 1.78 1.06 2.19 C-0.24 4.41 -0.59 6.47 -1 9 C-1.66 8.67 -2.32 8.34 -3 8 C-2.25 2.25 -2.25 2.25 0 0 Z " fill="#2E3038" transform="translate(288,70)"/><path d="M0 0 C1.32 0.66 2.64 1.32 4 2 C3.34 3.32 2.68 4.64 2 6 C1.34 6 0.68 6 0 6 C-0.66 4.68 -1.32 3.36 -2 2 C-1.34 1.34 -0.68 0.68 0 0 Z " fill="#464850" transform="translate(102,12)"/><path d="M0 0 C0.99 0.33 1.98 0.66 3 1 C3 2.65 3 4.3 3 6 C2.01 6 1.02 6 0 6 C0 4.02 0 2.04 0 0 Z " fill="#A4E29D" transform="translate(94,166)"/><path d="M0 0 C0.99 0.33 1.98 0.66 3 1 C3 2.65 3 4.3 3 6 C2.01 6 1.02 6 0 6 C0 4.02 0 2.04 0 0 Z " fill="#BBE0B8" transform="translate(94,70)"/><path d="M0 0 C0.99 0 1.98 0 3 0 C3 1.65 3 3.3 3 5 C2.01 5 1.02 5 0 5 C0 3.35 0 1.7 0 0 Z " fill="#83D27B" transform="translate(94,228)"/><path d="M0 0 C1.32 0 2.64 0 4 0 C4 1.32 4 2.64 4 4 C1.53 3.01 1.53 3.01 -1 2 C-0.67 1.34 -0.34 0.68 0 0 Z " fill="#97090D" transform="translate(209,95)"/><path d="M0 0 C0.99 0.33 1.98 0.66 3 1 C3 2.32 3 3.64 3 5 C1.68 4.67 0.36 4.34 -1 4 C-0.67 2.68 -0.34 1.36 0 0 Z " fill="#85858A" transform="translate(288,73)"/><path d="M0 0 C0.99 0.99 1.98 1.98 3 3 C2.67 3.99 2.34 4.98 2 6 C1.01 5.67 0.02 5.34 -1 5 C-1.69 2.94 -1.69 2.94 -2 1 C-1.34 0.67 -0.68 0.34 0 0 Z " fill="#B9E1B5" transform="translate(143,48)"/><path d="M0 0 C0.78 0.04 1.57 0.08 2.38 0.12 C0.73 1.44 -0.93 2.76 -2.62 4.12 C-3.29 3.47 -3.94 2.81 -4.62 2.12 C-2.62 0.12 -2.62 0.12 0 0 Z " fill="#E5E3ED" transform="translate(306.625,191.875)"/><path d="M0 0 C0.33 0.99 0.66 1.98 1 3 C1.66 3.33 2.32 3.66 3 4 C1.68 4.99 0.36 5.98 -1 7 C-0.67 4.69 -0.34 2.38 0 0 Z " fill="#F2F2F6" transform="translate(145,121)"/><path d="M0 0 C1.32 0 2.64 0 4 0 C3.67 1.32 3.34 2.64 3 4 C2.01 4 1.02 4 0 4 C0 2.68 0 1.36 0 0 Z " fill="#B40609" transform="translate(229,91)"/><path d="M0 0 C1.32 0.33 2.64 0.66 4 1 C3.67 1.99 3.34 2.98 3 4 C2.01 3.67 1.02 3.34 0 3 C0 2.01 0 1.02 0 0 Z " fill="#372E35" transform="translate(155,218)"/><path d="M0 0 C0.33 0.99 0.66 1.98 1 3 C0.01 3.33 -0.98 3.66 -2 4 C-2.66 3.67 -3.32 3.34 -4 3 C-4 2.34 -4 1.68 -4 1 C-2 0 -2 0 0 0 Z " fill="#84DA7B" transform="translate(130,25)"/><path d="M0 0 C0.99 0.99 1.98 1.98 3 3 C2.67 3.99 2.34 4.98 2 6 C1.34 6 0.68 6 0 6 C0 4.02 0 2.04 0 0 Z " fill="#CDEDCA" transform="translate(89,271)"/><path d="M0 0 C1.32 0.33 2.64 0.66 4 1 C3.67 1.99 3.34 2.98 3 4 C2.01 4 1.02 4 0 4 C0 2.68 0 1.36 0 0 Z " fill="#727777" transform="translate(153,235)"/><path d="M0 0 C0.99 0 1.98 0 3 0 C3 1.32 3 2.64 3 4 C2.01 4 1.02 4 0 4 C0 2.68 0 1.36 0 0 Z " fill="#C0E7BC" transform="translate(94,221)"/><path d="M0 0 C0.99 0 1.98 0 3 0 C3 1.32 3 2.64 3 4 C2.01 4 1.02 4 0 4 C0 2.68 0 1.36 0 0 Z " fill="#C1E6BD" transform="translate(94,214)"/><path d="M0 0 C0.99 0 1.98 0 3 0 C3 1.32 3 2.64 3 4 C2.01 4 1.02 4 0 4 C0 2.68 0 1.36 0 0 Z " fill="#C4E7C1" transform="translate(94,207)"/><path d="M0 0 C0.99 0 1.98 0 3 0 C3 1.32 3 2.64 3 4 C2.01 4 1.02 4 0 4 C0 2.68 0 1.36 0 0 Z " fill="#D0ECCD" transform="translate(94,198)"/><path d="M0 0 C0.99 0 1.98 0 3 0 C3 1.32 3 2.64 3 4 C2.01 4 1.02 4 0 4 C0 2.68 0 1.36 0 0 Z " fill="#C0DFBD" transform="translate(94,180)"/><path d="M0 0 C0.99 0 1.98 0 3 0 C3 1.32 3 2.64 3 4 C2.01 4 1.02 4 0 4 C0 2.68 0 1.36 0 0 Z " fill="#B9E2B5" transform="translate(94,159)"/><path d="M0 0 C1.65 0 3.3 0 5 0 C4.67 0.99 4.34 1.98 4 3 C2.35 3 0.7 3 -1 3 C-0.67 2.01 -0.34 1.02 0 0 Z " fill="#C8C9CC" transform="translate(296,155)"/><path d="M0 0 C0.99 0 1.98 0 3 0 C3 1.32 3 2.64 3 4 C2.01 4 1.02 4 0 4 C0 2.68 0 1.36 0 0 Z " fill="#C0E7BC" transform="translate(94,152)"/><path d="M0 0 C0.99 0 1.98 0 3 0 C3 1.32 3 2.64 3 4 C2.01 4 1.02 4 0 4 C0 2.68 0 1.36 0 0 Z " fill="#C4E7C1" transform="translate(94,134)"/><path d="M0 0 C0.99 0.33 1.98 0.66 3 1 C2.67 1.99 2.34 2.98 2 4 C1.01 4 0.02 4 -1 4 C-0.67 2.68 -0.34 1.36 0 0 Z " fill="#848489" transform="translate(147,128)"/><path d="M0 0 C0.99 0 1.98 0 3 0 C3 1.32 3 2.64 3 4 C2.01 4 1.02 4 0 4 C0 2.68 0 1.36 0 0 Z " fill="#BAE8B5" transform="translate(94,125)"/><path d="M0 0 C0.99 0 1.98 0 3 0 C3 0.99 3 1.98 3 3 C3.66 3.33 4.32 3.66 5 4 C3.35 3.67 1.7 3.34 0 3 C0 2.01 0 1.02 0 0 Z " fill="#75D16C" transform="translate(146,121)"/><path d="M0 0 C0.99 0 1.98 0 3 0 C3 1.32 3 2.64 3 4 C2.01 4 1.02 4 0 4 C0 2.68 0 1.36 0 0 Z " fill="#BEE9BA" transform="translate(146,112)"/><path d="M0 0 C0.99 0 1.98 0 3 0 C3 1.32 3 2.64 3 4 C2.01 4 1.02 4 0 4 C0 2.68 0 1.36 0 0 Z " fill="#B1E4AB" transform="translate(146,105)"/><path d="M0 0 C0.99 0 1.98 0 3 0 C3 1.32 3 2.64 3 4 C2.01 4 1.02 4 0 4 C0 2.68 0 1.36 0 0 Z " fill="#C1E9BC" transform="translate(146,82)"/><path d="M0 0 C0.99 0 1.98 0 3 0 C3 1.32 3 2.64 3 4 C2.01 4 1.02 4 0 4 C0 2.68 0 1.36 0 0 Z " fill="#C3E9BE" transform="translate(146,73)"/><path d="M0 0 C0.99 0 1.98 0 3 0 C3 1.32 3 2.64 3 4 C2.01 4 1.02 4 0 4 C0 2.68 0 1.36 0 0 Z " fill="#C1E8BD" transform="translate(146,66)"/><path d="M0 0 C0.99 0 1.98 0 3 0 C3 1.32 3 2.64 3 4 C2.01 4 1.02 4 0 4 C0 2.68 0 1.36 0 0 Z " fill="#B1DCAD" transform="translate(94,63)"/><path d="M0 0 C0.99 0 1.98 0 3 0 C2.67 1.32 2.34 2.64 2 4 C1.34 4 0.68 4 0 4 C0 2.68 0 1.36 0 0 Z " fill="#FF01FF" transform="translate(65,108)"/><path d="M0 0 C0.99 0.33 1.98 0.66 3 1 C3 1.99 3 2.98 3 4 C2.01 4 1.02 4 0 4 C0 2.68 0 1.36 0 0 Z " fill="#AFE4A9" transform="translate(146,98)"/><path d="M0 0 C2.47 0.5 2.47 0.5 5 1 C5 1.66 5 2.32 5 3 C3.06 2.62 3.06 2.62 1 2 C0.67 1.34 0.34 0.68 0 0 Z " fill="#C3E9BF" transform="translate(128,29)"/><path d="M0 0 C0.33 1.32 0.66 2.64 1 4 C-0.32 3.67 -1.64 3.34 -3 3 C-2.01 2.01 -1.02 1.02 0 0 Z " fill="#78D76E" transform="translate(56,280)"/><path d="M0 0 C0.66 0.33 1.32 0.66 2 1 C2 1.66 2 2.32 2 3 C1.34 3 0.68 3 0 3 C-0.33 3.99 -0.66 4.98 -1 6 C-1.04 4.33 -1.04 2.67 -1 1 C-0.67 0.67 -0.34 0.34 0 0 Z " fill="#DEF3DD" transform="translate(65,278)"/><path d="M0 0 C0.66 0 1.32 0 2 0 C2 1.32 2 2.64 2 4 C1.01 3.67 0.02 3.34 -1 3 C-0.67 2.01 -0.34 1.02 0 0 Z " fill="#13C001" transform="translate(84,272)"/><path d="M0 0 C1.06 1.31 1.06 1.31 2 3 C1.67 3.99 1.34 4.98 1 6 C0.34 6 -0.32 6 -1 6 C-0.67 4.02 -0.34 2.04 0 0 Z " fill="#C8C6D0" transform="translate(277,233)"/><path d="M0 0 C0.99 0 1.98 0 3 0 C2.67 1.32 2.34 2.64 2 4 C1.34 3.67 0.68 3.34 0 3 C0 2.01 0 1.02 0 0 Z " fill="#C9EBC5" transform="translate(94,141)"/><path d="M0 0 C0.99 0.33 1.98 0.66 3 1 C3 1.66 3 2.32 3 3 C1.68 3 0.36 3 -1 3 C-0.67 2.01 -0.34 1.02 0 0 Z " fill="#939598" transform="translate(151,128)"/><path d="M0 0 C1.32 0.33 2.64 0.66 4 1 C3.67 1.66 3.34 2.32 3 3 C2.01 3 1.02 3 0 3 C0 2.01 0 1.02 0 0 Z " fill="#F68FFF" transform="translate(46,108)"/><path d="M0 0 C0.99 0 1.98 0 3 0 C3.33 0.99 3.66 1.98 4 3 C2.68 3 1.36 3 0 3 C0 2.01 0 1.02 0 0 Z " fill="#A0E399" transform="translate(146,94)"/><path d="M0 0 C-0.66 1.32 -1.32 2.64 -2 4 C-2.66 3.67 -3.32 3.34 -4 3 C-4 2.34 -4 1.68 -4 1 C-2 0 -2 0 0 0 Z " fill="#2C151B" transform="translate(222,94)"/><path d="M0 0 C0.66 0 1.32 0 2 0 C2 1.32 2 2.64 2 4 C1.01 3.67 0.02 3.34 -1 3 C-0.67 2.01 -0.34 1.02 0 0 Z " fill="#68D35D" transform="translate(95,40)"/><path d="M0 0 C1.32 0.66 2.64 1.32 4 2 C3.01 2 2.02 2 1 2 C0.67 2.99 0.34 3.98 0 5 C-0.56 3.06 -0.56 3.06 -1 1 C-0.67 0.67 -0.34 0.34 0 0 Z " fill="#272831" transform="translate(337,29)"/><path d="M0 0 C0.66 0 1.32 0 2 0 C2.33 0.99 2.66 1.98 3 3 C2.01 3.33 1.02 3.66 0 4 C0 2.68 0 1.36 0 0 Z " fill="#13C001" transform="translate(41,272)"/><path d="M0 0 C0.99 0 1.98 0 3 0 C3 0.99 3 1.98 3 3 C2.01 3 1.02 3 0 3 C0 2.01 0 1.02 0 0 Z " fill="#BCE9B7" transform="translate(94,111)"/><path d="M0 0 C0.99 0 1.98 0 3 0 C3 0.99 3 1.98 3 3 C2.01 3 1.02 3 0 3 C0 2.01 0 1.02 0 0 Z " fill="#BFE9BA" transform="translate(146,78)"/><path d="M0 0 C0.66 0 1.32 0 2 0 C2 0.99 2 1.98 2 3 C1.01 3 0.02 3 -1 3 C-0.67 2.01 -0.34 1.02 0 0 Z " fill="#13C001" transform="translate(59,280)"/><path d="M0 0 C0.99 0.33 1.98 0.66 3 1 C2.67 1.99 2.34 2.98 2 4 C1.34 2.68 0.68 1.36 0 0 Z " fill="#88A787" transform="translate(154,195)"/><path d="M0 0 C0.99 0 1.98 0 3 0 C3 0.99 3 1.98 3 3 C2.01 2.67 1.02 2.34 0 2 C0 1.34 0 0.68 0 0 Z " fill="#D5D5D9" transform="translate(333,188)"/><path d="M0 0 C1.32 0.33 2.64 0.66 4 1 C2.51 1.99 2.51 1.99 1 3 C0.67 2.01 0.34 1.02 0 0 Z " fill="#0E5E79" transform="translate(320,134)"/><path d="M0 0 C0.99 0.33 1.98 0.66 3 1 C2.34 1.66 1.68 2.32 1 3 C0.34 2.34 -0.32 1.68 -1 1 C-0.67 0.67 -0.34 0.34 0 0 Z " fill="#B8E7B3" transform="translate(137,39)"/><path d="M0 0 C0.99 0.99 1.98 1.98 3 3 C2.01 3 1.02 3 0 3 C0 2.01 0 1.02 0 0 Z " fill="#C30407" transform="translate(121,33)"/><path d="M0 0 C0.66 0 1.32 0 2 0 C1.67 0.99 1.34 1.98 1 3 C0.34 2.34 -0.32 1.68 -1 1 C-0.67 0.67 -0.34 0.34 0 0 Z " fill="#048BB2" transform="translate(320,52)"/></svg>