<svg xmlns="http://www.w3.org/2000/svg" width="530" height="308" viewBox="0 0 530 308"><path d="M0 0 C174.9 0 349.8 0 530 0 C530 101.64 530 203.28 530 308 C355.1 308 180.2 308 0 308 C0 206.36 0 104.72 0 0 Z " fill="#FAFAFE" transform="translate(0,0)"/><path d="M0 0 C4.3 1.4 4.3 1.4 5.88 3.94 C6.31 6.87 6.31 6.87 5.88 9.94 C3.88 12.31 3.88 12.31 1.88 13.94 C2.97 16.86 4.21 19.63 5.65 22.39 C7.83 26.7 9.63 31.14 11.43 35.62 C18.24 52.55 24.66 65.82 41.88 73.94 C43.87 74.72 45.81 75.35 47.88 75.94 C47.81 74.84 47.75 73.75 47.69 72.62 C47.71 70.23 47.77 69.13 48.94 67 C51.88 65.39 54.66 65.29 57.88 65.94 C60.31 67.56 60.31 67.56 61.88 69.94 C62.38 72.94 62.38 72.94 61.88 75.94 C59.88 78.31 59.88 78.31 57.88 79.94 C65.23 82.29 72.25 82.19 79.88 81.94 C81.14 81.93 81.14 81.93 82.43 81.92 C89.33 81.59 95.31 78.43 100.23 73.61 C105.68 67.61 109.7 60.5 113.92 53.61 C121.31 41.56 121.31 41.56 126.88 37.94 C129.75 37.62 129.75 37.62 131.88 37.94 C131.81 36.84 131.75 35.75 131.69 34.62 C131.71 32.23 131.77 31.13 132.94 29 C135.88 27.39 138.66 27.29 141.88 27.94 C144.31 29.56 144.31 29.56 145.88 31.94 C146.35 35.24 146.5 37.05 144.56 39.81 C142.88 40.94 142.88 40.94 139.88 40.94 C140.21 41.62 140.53 42.3 140.88 43 C143.05 49.39 141.88 53.72 139.03 59.6 C138.46 60.72 138.46 60.72 137.88 61.88 C137.49 62.65 137.11 63.43 136.72 64.24 C135.78 66.14 134.83 68.04 133.88 69.94 C134.21 70.27 134.53 70.6 134.88 70.94 C135.21 70.61 135.53 70.28 135.88 69.94 C139.44 69.54 141.25 69.51 144.25 71.56 C146.33 74.6 146.34 76.32 145.88 79.94 C145.31 81.75 145.31 81.75 143.88 82.94 C141.54 83.63 139.31 84.05 136.88 83.94 C135.86 83.3 134.85 82.64 133.88 81.94 C134.55 89.72 135.98 97.34 137.44 105 C137.67 106.26 137.91 107.52 138.15 108.78 C138.72 111.83 139.3 114.89 139.88 117.94 C140.87 117.94 141.85 117.94 142.88 117.94 C142.84 117.39 142.81 116.85 142.77 116.29 C142.55 110.51 142.55 110.51 144 107.94 C146.79 106.45 148.77 106.56 151.88 106.94 C154.25 108 154.25 108 155.88 109.94 C156.21 112.37 156.06 114.46 155.88 116.94 C156.72 116.5 157.56 116.07 158.43 115.62 C159.54 115.06 160.64 114.5 161.75 113.94 C162.31 113.65 162.86 113.37 163.43 113.07 C167.65 110.94 167.65 110.94 169.88 110.94 C169.18 114.08 168.11 116.96 166.88 119.94 C168.52 119.94 170.18 119.94 171.88 119.94 C172.56 118.05 172.56 118.05 172.88 115.94 C172.22 115.28 171.56 114.62 170.88 113.94 C170.55 111.48 170.55 111.48 170.88 108.94 C172.2 107.52 172.2 107.52 174.12 106.31 C178.63 103.23 182.51 99.71 186.49 95.98 C189.85 92.84 193.31 89.86 196.88 86.94 C193.57 86.61 190.27 86.28 186.88 85.94 C186.88 85.61 186.88 85.28 186.88 84.94 C188.14 84.95 188.14 84.95 189.44 84.96 C196.67 84.78 201.14 84.01 206.39 78.63 C206.88 78.07 207.37 77.51 207.88 76.94 C208.54 76.28 209.19 75.62 209.88 74.94 C209.24 74.65 208.6 74.36 207.94 74.06 C205.88 72.94 205.88 72.94 204.88 70.94 C204.59 67.71 204.61 65.54 205.94 62.56 C208.3 60.58 210.1 60.36 213.16 60.55 C216.05 61.2 217.25 62.53 218.88 64.94 C219.12 67.69 219.12 67.69 218.88 69.94 C221.19 70.6 223.5 71.26 225.88 71.94 C225.79 71.17 225.71 70.41 225.62 69.62 C225.88 66.94 225.88 66.94 227.5 65.12 C230.58 63.58 232.47 63.44 235.88 63.94 C237.21 65.27 238.54 66.6 239.88 67.94 C241.55 67.66 243.22 67.32 244.88 66.94 C246.81 66.87 248.75 66.85 250.69 66.88 C252.15 66.89 252.15 66.89 253.64 66.9 C254.38 66.91 255.12 66.93 255.88 66.94 C255.55 66.28 255.21 65.62 254.88 64.94 C254.49 61.36 254.44 59.57 256.5 56.56 C259.59 54.45 261.2 54.33 264.88 54.94 C267.25 56.56 267.25 56.56 268.88 58.94 C269.37 62.9 268.97 65.53 266.88 68.94 C267.66 69.14 268.44 69.35 269.25 69.56 C278.64 72.76 285.85 79.21 292.88 85.94 C294.86 85.28 296.83 84.62 298.88 83.94 C298.88 84.6 298.88 85.26 298.88 85.94 C299.54 86.27 300.19 86.6 300.88 86.94 C301.34 87.93 301.34 87.93 301.81 88.94 C302.76 91.28 302.76 91.28 305.88 91.94 C306.89 93.93 307.89 95.93 308.88 97.94 C310.46 99.16 310.46 99.16 311.88 99.94 C311.88 100.6 311.88 101.26 311.88 101.94 C314.19 101.94 316.5 101.94 318.88 101.94 C318.21 100.95 317.56 99.96 316.88 98.94 C318.86 98.61 320.83 98.28 322.88 97.94 C322.88 96.95 322.88 95.96 322.88 94.94 C324.19 94.28 325.51 93.62 326.88 92.94 C326.88 92.28 326.88 91.62 326.88 90.94 C329.51 90.61 332.15 90.28 334.88 89.94 C334.88 88.95 334.88 87.96 334.88 86.94 C336.19 86.28 337.51 85.62 338.88 84.94 C338.88 84.28 338.88 83.62 338.88 82.94 C341.51 82.61 344.15 82.28 346.88 81.94 C346.88 80.95 346.88 79.96 346.88 78.94 C349.51 78.61 352.15 78.28 354.88 77.94 C354.88 76.95 354.88 75.96 354.88 74.94 C360.81 74.44 360.81 74.44 366.88 73.94 C366.88 72.95 366.88 71.96 366.88 70.94 C372.81 70.44 372.81 70.44 378.88 69.94 C377.56 68.95 376.24 67.96 374.88 66.94 C385.44 66.61 396 66.28 406.88 65.94 C406.88 64.95 406.88 63.96 406.88 62.94 C411.82 62.94 416.77 62.94 421.88 62.94 C420.56 63.27 419.24 63.6 417.88 63.94 C417.88 64.6 417.88 65.26 417.88 65.94 C422.1 66.29 423.59 65.46 426.88 62.94 C427.87 63.27 428.86 63.6 429.88 63.94 C429.21 63.94 428.56 63.94 427.88 63.94 C427.88 64.6 427.88 65.26 427.88 65.94 C428.62 66.4 428.62 66.4 429.38 66.88 C429.87 67.23 430.37 67.58 430.88 67.94 C430.88 68.93 430.88 69.92 430.88 70.94 C434.17 70.94 437.48 70.94 440.88 70.94 C440.88 137.93 440.88 204.92 440.88 273.94 C382.23 274.06 382.23 274.06 357.79 274.08 C352.2 274.09 346.6 274.1 341.01 274.1 C340.31 274.1 339.61 274.1 338.88 274.1 C327.55 274.12 316.22 274.14 304.89 274.17 C293.26 274.2 281.64 274.21 270.02 274.22 C262.84 274.22 255.66 274.24 248.49 274.26 C243.57 274.28 238.65 274.28 233.74 274.28 C230.9 274.28 228.06 274.28 225.22 274.3 C222.15 274.31 219.07 274.31 216 274.3 C215.09 274.31 214.19 274.32 213.26 274.32 C212.44 274.32 211.62 274.31 210.78 274.31 C209.71 274.31 209.71 274.31 208.62 274.31 C206.88 273.94 206.88 273.94 205.63 272.41 C205.38 271.93 205.13 271.44 204.88 270.94 C205.54 270.28 206.19 269.62 206.88 268.94 C206.88 268.28 206.88 267.62 206.88 266.94 C207.54 266.28 208.19 265.62 208.88 264.94 C208.88 264.28 208.88 263.62 208.88 262.94 C209.54 262.28 210.19 261.62 210.88 260.94 C210.88 260.28 210.88 259.62 210.88 258.94 C211.54 258.28 212.19 257.62 212.88 256.94 C212.21 256.28 211.56 255.62 210.88 254.94 C212.19 254.28 213.51 253.62 214.88 252.94 C214.21 252.28 213.56 251.62 212.88 250.94 C213.54 250.28 214.19 249.62 214.88 248.94 C214.88 248.28 214.88 247.62 214.88 246.94 C215.54 246.28 216.19 245.62 216.88 244.94 C216.88 244.28 216.88 243.62 216.88 242.94 C217.54 242.28 218.19 241.62 218.88 240.94 C218.88 240.28 218.88 239.62 218.88 238.94 C219.54 238.28 220.19 237.62 220.88 236.94 C220.21 236.28 219.56 235.62 218.88 234.94 C220.19 234.28 221.51 233.62 222.88 232.94 C222.88 230.96 222.88 228.98 222.88 226.94 C224.19 226.28 225.51 225.62 226.88 224.94 C226.88 224.28 226.88 223.62 226.88 222.94 C227.54 222.28 228.19 221.62 228.88 220.94 C228.21 220.28 227.56 219.62 226.88 218.94 C228.19 218.28 229.51 217.62 230.88 216.94 C230.88 214.96 230.88 212.98 230.88 210.94 C232.19 210.28 233.51 209.62 234.88 208.94 C234.88 208.28 234.88 207.62 234.88 206.94 C235.54 206.28 236.19 205.62 236.88 204.94 C236.21 204.28 235.56 203.62 234.88 202.94 C236.19 202.28 237.51 201.62 238.88 200.94 C238.88 200.28 238.88 199.62 238.88 198.94 C239.54 198.28 240.19 197.62 240.88 196.94 C240.21 196.28 239.56 195.62 238.88 194.94 C240.19 194.28 241.51 193.62 242.88 192.94 C242.88 192.28 242.88 191.62 242.88 190.94 C243.54 190.28 244.19 189.62 244.88 188.94 C244.88 188.28 244.88 187.62 244.88 186.94 C245.54 186.28 246.19 185.62 246.88 184.94 C246.88 184.28 246.88 183.62 246.88 182.94 C248.19 182.28 249.51 181.62 250.88 180.94 C250.88 180.28 250.88 179.62 250.88 178.94 C251.54 178.28 252.19 177.62 252.88 176.94 C252.88 176.28 252.88 175.62 252.88 174.94 C253.54 174.28 254.19 173.62 254.88 172.94 C254.88 172.28 254.88 171.62 254.88 170.94 C257.19 169.95 259.5 168.96 261.88 167.94 C262.38 163.68 261.32 161.65 258.85 158.37 C255.56 153.54 256.13 146.5 256.88 140.94 C257.86 137.11 259.3 133.49 260.78 129.84 C262.05 126.99 262.05 126.99 261.88 123.94 C261.21 124.6 260.56 125.26 259.88 125.94 C257.17 126.29 255.46 126.5 252.88 125.94 C250.38 123.75 250.38 123.75 248.88 120.94 C248.88 116.54 251.04 114.14 253.88 110.94 C244.42 104.87 233.8 104.19 222.88 105.94 C211.41 109.19 203.24 116.89 196.13 126.07 C193.09 129.99 189.82 133.73 186.56 137.47 C184.24 140.17 182.27 142.62 180.88 145.94 C181.7 146.47 182.52 147.01 183.38 147.56 C185.88 149.94 185.88 149.94 186.38 152.94 C185.81 156.33 185.56 157.76 182.88 159.94 C180.1 160.5 177.65 160.5 174.88 159.94 C172.81 158.38 172.81 158.38 171.88 155.94 C171.95 153.48 172.36 151.36 172.88 148.94 C172.29 149.01 171.71 149.08 171.11 149.15 C164.3 149.92 157.6 150.06 150.75 150 C149.17 149.99 149.17 149.99 147.56 149.99 C145 149.97 142.44 149.96 139.88 149.94 C140.21 150.6 140.53 151.26 140.88 151.94 C141.32 157.11 141.32 157.11 139.88 159.81 C136.65 161.63 133.46 161.74 129.88 160.94 C127.81 158.75 127.81 158.75 126.88 155.94 C127.1 152.86 127.65 150.17 129.88 147.94 C132 147.75 132 147.75 133.88 147.94 C133.42 147.15 132.97 146.37 132.5 145.56 C129.8 140.19 128.7 133.92 128.88 127.94 C128.39 127.85 127.9 127.76 127.4 127.68 C122.71 126.75 118.29 125.44 113.8 123.8 C112.56 123.35 111.31 122.9 110.06 122.45 C109.39 122.21 108.72 121.96 108.03 121.71 C104.1 120.3 100.17 118.91 96.23 117.52 C77.62 110.92 59.04 104.27 40.66 97.02 C38.69 96.25 36.71 95.5 34.72 94.76 C27.17 91.96 19.97 88.73 12.81 85 C12.28 84.72 11.75 84.45 11.2 84.16 C0.09 78.35 -10.11 71.49 -20.12 63.94 C-20.82 63.42 -21.51 62.9 -22.22 62.36 C-26.27 59.32 -30.24 56.19 -34.12 52.94 C-34.86 52.33 -35.6 51.72 -36.36 51.09 C-41.35 46.58 -43.69 41.14 -46.12 34.94 C-46.74 34.98 -47.35 35.03 -47.99 35.08 C-54.57 35.37 -54.57 35.37 -57.19 33.31 C-58.38 30.28 -58.54 28.17 -58.12 24.94 C-57.12 23.06 -57.12 23.06 -55.12 21.94 C-52.44 21.69 -49.81 21.78 -47.12 21.94 C-46.47 21.94 -45.8 21.94 -45.12 21.94 C-44.05 20.5 -44.05 20.5 -43 18.69 C-38.87 12.67 -32.12 10.33 -25.12 8.94 C-22.14 8.72 -19.18 8.75 -16.19 8.81 C-15.41 8.82 -14.63 8.83 -13.83 8.84 C-11.93 8.86 -10.03 8.9 -8.12 8.94 C-8.17 8.16 -8.21 7.39 -8.26 6.59 C-8.12 3.94 -8.12 3.94 -6 1.56 C-3.12 -0.06 -3.12 -0.06 0 0 Z " fill="#EFEBFD" transform="translate(89.125,34.0625)"/><path d="M0 0 C4.3 1.4 4.3 1.4 5.88 3.94 C6.31 6.87 6.31 6.87 5.88 9.94 C3.88 12.31 3.88 12.31 1.88 13.94 C2.97 16.86 4.21 19.63 5.65 22.39 C7.83 26.7 9.63 31.14 11.43 35.62 C18.24 52.55 24.66 65.82 41.88 73.94 C43.87 74.72 45.81 75.35 47.88 75.94 C47.81 74.84 47.75 73.75 47.69 72.62 C47.71 70.23 47.77 69.13 48.94 67 C51.88 65.39 54.66 65.29 57.88 65.94 C60.31 67.56 60.31 67.56 61.88 69.94 C62.38 72.94 62.38 72.94 61.88 75.94 C59.88 78.31 59.88 78.31 57.88 79.94 C65.23 82.29 72.25 82.19 79.88 81.94 C81.14 81.93 81.14 81.93 82.43 81.92 C89.33 81.59 95.31 78.43 100.23 73.61 C105.68 67.61 109.7 60.5 113.92 53.61 C121.31 41.56 121.31 41.56 126.88 37.94 C129.75 37.62 129.75 37.62 131.88 37.94 C131.81 36.84 131.75 35.75 131.69 34.62 C131.71 32.23 131.77 31.13 132.94 29 C135.88 27.39 138.66 27.29 141.88 27.94 C144.31 29.56 144.31 29.56 145.88 31.94 C146.35 35.24 146.5 37.05 144.56 39.81 C142.88 40.94 142.88 40.94 139.88 40.94 C140.21 41.62 140.53 42.3 140.88 43 C143.05 49.39 141.88 53.72 139.03 59.6 C138.46 60.72 138.46 60.72 137.88 61.88 C137.49 62.65 137.11 63.43 136.72 64.24 C135.78 66.14 134.83 68.04 133.88 69.94 C134.21 70.27 134.53 70.6 134.88 70.94 C135.21 70.61 135.53 70.28 135.88 69.94 C139.44 69.54 141.25 69.51 144.25 71.56 C146.33 74.6 146.34 76.32 145.88 79.94 C145.31 81.75 145.31 81.75 143.88 82.94 C141.54 83.63 139.31 84.05 136.88 83.94 C135.86 83.3 134.85 82.64 133.88 81.94 C134.55 89.72 135.98 97.34 137.44 105 C137.67 106.26 137.91 107.52 138.15 108.78 C138.72 111.83 139.3 114.89 139.88 117.94 C140.87 117.94 141.85 117.94 142.88 117.94 C142.84 117.39 142.81 116.85 142.77 116.29 C142.55 110.51 142.55 110.51 144 107.94 C146.79 106.45 148.77 106.56 151.88 106.94 C154.25 108 154.25 108 155.88 109.94 C156.21 112.37 156.06 114.46 155.88 116.94 C156.72 116.5 157.56 116.07 158.43 115.62 C159.54 115.06 160.64 114.5 161.75 113.94 C162.31 113.65 162.86 113.37 163.43 113.07 C167.65 110.94 167.65 110.94 169.88 110.94 C169.18 114.08 168.11 116.96 166.88 119.94 C168.52 119.94 170.18 119.94 171.88 119.94 C172.56 118.05 172.56 118.05 172.88 115.94 C172.22 115.28 171.56 114.62 170.88 113.94 C170.55 111.48 170.55 111.48 170.88 108.94 C172.2 107.52 172.2 107.52 174.12 106.31 C178.63 103.23 182.51 99.71 186.49 95.98 C189.85 92.84 193.31 89.86 196.88 86.94 C193.57 86.61 190.27 86.28 186.88 85.94 C186.88 85.61 186.88 85.28 186.88 84.94 C188.14 84.95 188.14 84.95 189.44 84.96 C196.67 84.78 201.14 84.01 206.39 78.63 C206.88 78.07 207.37 77.51 207.88 76.94 C208.54 76.28 209.19 75.62 209.88 74.94 C209.24 74.65 208.6 74.36 207.94 74.06 C205.88 72.94 205.88 72.94 204.88 70.94 C204.59 67.71 204.61 65.54 205.94 62.56 C208.3 60.58 210.1 60.36 213.16 60.55 C216.05 61.2 217.25 62.53 218.88 64.94 C219.12 67.69 219.12 67.69 218.88 69.94 C221.19 70.6 223.5 71.26 225.88 71.94 C225.79 71.17 225.71 70.41 225.62 69.62 C225.88 66.94 225.88 66.94 227.5 65.12 C230.58 63.58 232.47 63.44 235.88 63.94 C237.21 65.27 238.54 66.6 239.88 67.94 C241.55 67.66 243.22 67.32 244.88 66.94 C246.81 66.87 248.75 66.85 250.69 66.88 C252.15 66.89 252.15 66.89 253.64 66.9 C254.38 66.91 255.12 66.93 255.88 66.94 C255.55 66.28 255.21 65.62 254.88 64.94 C254.49 61.36 254.44 59.57 256.5 56.56 C259.59 54.45 261.2 54.33 264.88 54.94 C267.25 56.56 267.25 56.56 268.88 58.94 C269.37 62.9 268.97 65.53 266.88 68.94 C267.66 69.14 268.44 69.35 269.25 69.56 C283.07 74.27 292.54 85.11 301.09 96.33 C303.74 99.8 306.53 103.13 309.38 106.44 C313.14 110.83 316.77 115.3 320.31 119.88 C324.59 125.38 329.05 130.7 333.61 135.97 C337.07 139.98 340.42 144.05 343.7 148.2 C346.46 151.68 349.26 155.12 352.06 158.56 C352.89 159.58 352.89 159.58 353.74 160.62 C354.88 162.02 356.01 163.42 357.15 164.82 C358.86 166.92 360.57 169.03 362.29 171.14 C367.06 177.01 371.83 182.89 376.62 188.75 C377.33 189.61 378.03 190.46 378.75 191.35 C380.25 193.17 381.75 194.99 383.25 196.81 C394.88 210.88 394.88 210.88 394.88 213.94 C395.29 213.61 395.7 213.29 396.12 212.96 C399.19 211.17 402.44 211.49 405.88 211.94 C407.88 213.06 407.88 213.06 408.88 214.94 C409.41 218.53 409.32 220.26 407.31 223.31 C403.93 225.56 401.88 225.25 397.88 224.94 C397.71 225.74 397.71 225.74 397.54 226.55 C397.02 229.02 396.45 231.48 395.88 233.94 C395.6 235.2 395.6 235.2 395.32 236.48 C393.66 243.09 390.72 247.19 385.88 251.94 C386.37 252.66 386.87 253.38 387.38 254.12 C389 257.17 389.48 258.56 388.88 261.94 C387.25 264.34 386.07 265.69 383.16 266.29 C380.44 266.42 378.33 266.19 375.94 264.88 C374.27 261.84 374.62 259.38 374.88 255.94 C375.2 255.61 375.54 255.28 375.88 254.94 C374.91 254.83 374.91 254.83 373.93 254.71 C367.33 253.71 363.16 252.15 358.88 246.94 C356.42 243.3 354.19 239.57 351.97 235.78 C350.02 232.51 347.95 229.32 345.88 226.12 C345.48 225.51 345.08 224.89 344.67 224.26 C343.74 222.82 342.81 221.38 341.88 219.94 C341.28 220.74 340.68 221.54 340.06 222.37 C337.88 224.94 337.88 224.94 334.94 226.06 C331.83 225.94 331.19 225.83 328.94 223.94 C327.44 222.24 326.9 221.35 326.75 219.08 C327.36 214.46 327.36 214.46 328.88 212.94 C328.25 212.85 327.62 212.76 326.97 212.68 C319.4 211.43 313.89 209.11 308.56 203.5 C303.96 196.51 302.91 190.11 301.88 181.94 C301.21 181.94 300.56 181.94 299.88 181.94 C299.75 182.58 299.63 183.22 299.5 183.88 C299.29 184.56 299.09 185.24 298.88 185.94 C295.95 187.4 293.06 187.33 289.88 186.94 C287.94 185.88 287.94 185.88 286.88 183.94 C286.3 180.51 286.2 177.88 288.25 175 C289.88 173.94 289.88 173.94 291.88 173.94 C291.88 173.28 291.88 172.62 291.88 171.94 C290.91 171.98 289.94 172.03 288.95 172.08 C278.89 172.42 270.69 171.78 262.94 164.62 C257.33 158.34 256.28 152.92 256.44 144.5 C256.89 139.32 258.83 134.62 260.78 129.84 C262.05 126.99 262.05 126.99 261.88 123.94 C261.21 124.6 260.56 125.26 259.88 125.94 C257.17 126.29 255.46 126.5 252.88 125.94 C250.38 123.75 250.38 123.75 248.88 120.94 C248.88 116.54 251.04 114.14 253.88 110.94 C244.42 104.87 233.8 104.19 222.88 105.94 C211.41 109.19 203.24 116.89 196.13 126.07 C193.09 129.99 189.82 133.73 186.56 137.47 C184.24 140.17 182.27 142.62 180.88 145.94 C181.7 146.47 182.52 147.01 183.38 147.56 C185.88 149.94 185.88 149.94 186.38 152.94 C185.81 156.33 185.56 157.76 182.88 159.94 C180.1 160.5 177.65 160.5 174.88 159.94 C172.81 158.38 172.81 158.38 171.88 155.94 C171.95 153.48 172.36 151.36 172.88 148.94 C172.29 149.01 171.71 149.08 171.11 149.15 C164.3 149.92 157.6 150.06 150.75 150 C149.17 149.99 149.17 149.99 147.56 149.99 C145 149.97 142.44 149.96 139.88 149.94 C140.21 150.6 140.53 151.26 140.88 151.94 C141.32 157.11 141.32 157.11 139.88 159.81 C136.65 161.63 133.46 161.74 129.88 160.94 C127.81 158.75 127.81 158.75 126.88 155.94 C127.1 152.86 127.65 150.17 129.88 147.94 C132 147.75 132 147.75 133.88 147.94 C133.42 147.15 132.97 146.37 132.5 145.56 C129.8 140.19 128.7 133.92 128.88 127.94 C128.39 127.85 127.9 127.76 127.4 127.68 C122.71 126.75 118.29 125.44 113.8 123.8 C112.56 123.35 111.31 122.9 110.06 122.45 C109.39 122.21 108.72 121.96 108.03 121.71 C104.1 120.3 100.17 118.91 96.23 117.52 C77.62 110.92 59.04 104.27 40.66 97.02 C38.69 96.25 36.71 95.5 34.72 94.76 C27.17 91.96 19.97 88.73 12.81 85 C12.28 84.72 11.75 84.45 11.2 84.16 C0.09 78.35 -10.11 71.49 -20.12 63.94 C-20.82 63.42 -21.51 62.9 -22.22 62.36 C-26.27 59.32 -30.24 56.19 -34.12 52.94 C-34.86 52.33 -35.6 51.72 -36.36 51.09 C-41.35 46.58 -43.69 41.14 -46.12 34.94 C-46.74 34.98 -47.35 35.03 -47.99 35.08 C-54.57 35.37 -54.57 35.37 -57.19 33.31 C-58.38 30.28 -58.54 28.17 -58.12 24.94 C-57.12 23.06 -57.12 23.06 -55.12 21.94 C-52.44 21.69 -49.81 21.78 -47.12 21.94 C-46.47 21.94 -45.8 21.94 -45.12 21.94 C-44.05 20.5 -44.05 20.5 -43 18.69 C-38.87 12.67 -32.12 10.33 -25.12 8.94 C-22.14 8.72 -19.18 8.75 -16.19 8.81 C-15.41 8.82 -14.63 8.83 -13.83 8.84 C-11.93 8.86 -10.03 8.9 -8.12 8.94 C-8.17 8.16 -8.21 7.39 -8.26 6.59 C-8.12 3.94 -8.12 3.94 -6 1.56 C-3.12 -0.06 -3.12 -0.06 0 0 Z " fill="#1E1D26" transform="translate(89.125,34.0625)"/><path d="M0 0 C5.91 2.42 11.59 6.22 16.45 10.34 C16.45 11 16.45 11.66 16.45 12.34 C17.44 12.67 18.43 13 19.45 13.34 C20.64 14.54 20.64 14.54 21.79 16.07 C22.23 16.64 22.66 17.21 23.11 17.79 C23.57 18.4 24.03 19.02 24.51 19.65 C25.49 20.93 26.48 22.22 27.47 23.5 C27.97 24.15 28.47 24.79 28.98 25.46 C31.12 28.2 33.33 30.87 35.57 33.52 C36.39 34.5 37.22 35.48 38.04 36.46 C38.44 36.94 38.84 37.42 39.25 37.91 C44.06 43.65 48.77 49.48 53.45 55.34 C60.02 63.58 66.74 71.7 73.45 79.84 C80.82 88.79 88.18 97.74 95.42 106.81 C97.56 109.48 99.72 112.13 101.88 114.77 C102.26 115.23 102.63 115.68 103.01 116.15 C104.95 118.52 106.89 120.88 108.84 123.23 C110.38 125.09 111.91 126.97 113.43 128.85 C114.62 130.33 115.85 131.78 117.12 133.2 C120.7 137.43 121.07 141.06 120.81 146.54 C120.14 151.62 119.14 156.64 115.45 160.34 C112.69 160.97 110.21 160.95 107.45 160.34 C105.3 158.64 104.15 156.51 102.82 154.15 C101.98 152.78 101.14 151.42 100.3 150.06 C99.86 149.31 99.41 148.56 98.94 147.79 C96.11 143.14 93.08 138.62 90.07 134.09 C89.48 133.17 88.88 132.25 88.27 131.31 C87.7 130.45 87.13 129.58 86.55 128.7 C86.04 127.93 85.54 127.16 85.03 126.37 C80.89 121.06 75.54 119.53 69.07 118.71 C67.86 118.58 66.65 118.45 65.45 118.34 C65.8 117.82 66.15 117.3 66.51 116.77 C67.88 113.2 67.34 111.06 66.45 107.34 C65.37 105.68 65.37 105.68 63.45 105.34 C58.56 105.54 56.7 106.83 53.45 110.34 C53.3 109.8 53.16 109.27 53.01 108.72 C49.59 94.3 49.59 94.3 40.45 83.34 C32.31 78.82 23.52 78.58 14.45 78.34 C14.45 77.68 14.45 77.02 14.45 76.34 C15.68 75.75 15.68 75.75 16.95 75.15 C19.55 73.66 19.55 73.66 19.88 71.66 C19.97 69.07 19.96 66.99 18.32 64.9 C15.44 64.04 13.44 63.92 10.45 64.34 C8.44 65.83 7.08 67.41 5.45 69.34 C5.92 65.04 6.64 61.48 8.31 57.45 C11.44 49.91 13.86 40.68 10.82 32.69 C7.43 25.65 2.02 22.08 -4.55 18.34 C-5.2 17.96 -5.84 17.59 -6.5 17.2 C-17.21 11.36 -31.86 10.18 -43.74 12.82 C-52.1 15.3 -59.13 19.45 -65.55 25.34 C-66.21 25.01 -66.87 24.68 -67.55 24.34 C-61.65 18.82 -55.71 13.33 -49.55 8.09 C-48.69 7.34 -47.82 6.59 -46.93 5.82 C-44.55 4.34 -44.55 4.34 -42.36 4.5 C-40.55 5.34 -40.55 5.34 -38.74 6.9 C-35.71 8.89 -33.02 9.02 -29.55 8.34 C-26.73 6.75 -24.45 5.19 -22.12 2.96 C-16.01 -2.4 -7.53 -1.96 0 0 Z " fill="#EEEAFB" transform="translate(352.5546875,114.6640625)"/><path d="M0 0 C1.02 0.01 1.02 0.01 2.07 0.02 C2.79 0.02 3.51 0.01 4.25 0.01 C6.64 0.01 9.03 0.02 11.41 0.03 C13.07 0.03 14.72 0.03 16.38 0.03 C19.84 0.03 23.31 0.04 26.78 0.05 C31.23 0.07 35.69 0.07 40.14 0.07 C43.56 0.07 46.97 0.08 50.39 0.09 C52.03 0.09 53.67 0.09 55.32 0.09 C57.61 0.1 59.9 0.1 62.19 0.11 C62.88 0.11 63.56 0.11 64.27 0.11 C68.95 0.15 68.95 0.15 70.07 1.26 C70.17 3.84 70.21 6.4 70.2 8.98 C70.2 9.75 70.2 10.52 70.2 11.32 C70.2 12.96 70.2 14.6 70.2 16.23 C70.19 18.75 70.2 21.26 70.2 23.78 C70.2 25.37 70.2 26.95 70.2 28.54 C70.2 29.3 70.2 30.06 70.21 30.84 C70.18 36.14 70.18 36.14 69.07 37.26 C66.81 37.35 64.59 37.39 62.34 37.37 C61.64 37.37 60.94 37.37 60.21 37.37 C57.88 37.37 55.55 37.37 53.22 37.36 C51.61 37.36 49.99 37.35 48.38 37.35 C44.13 37.35 39.87 37.34 35.62 37.33 C30.52 37.32 25.42 37.31 20.33 37.31 C12.57 37.3 4.82 37.28 -2.93 37.26 C-2.93 49.8 -2.93 62.34 -2.93 75.26 C-3.26 75.26 -3.59 75.26 -3.93 75.26 C-3.95 74.12 -3.97 72.99 -3.99 71.82 C-4.07 67.61 -4.16 63.4 -4.25 59.19 C-4.29 57.37 -4.32 55.54 -4.36 53.72 C-4.4 51.1 -4.46 48.48 -4.52 45.87 C-4.54 44.64 -4.54 44.64 -4.55 43.39 C-4.58 42.25 -4.58 42.25 -4.62 41.09 C-4.63 40.42 -4.64 39.75 -4.66 39.06 C-4.98 36.99 -5.77 35.98 -6.93 34.26 C-7.13 31.81 -7.21 29.48 -7.2 27.04 C-7.2 26.34 -7.2 25.63 -7.21 24.91 C-7.21 23.43 -7.2 21.95 -7.19 20.47 C-7.18 18.2 -7.19 15.93 -7.21 13.66 C-7.21 12.23 -7.2 10.79 -7.2 9.35 C-7.2 8.67 -7.21 7.99 -7.21 7.29 C-7.15 1.37 -5.94 0.04 0 0 Z " fill="#13BF02" transform="translate(275.9338684082031,39.74005126953125)"/><path d="M0 0 C5.91 2.42 11.59 6.22 16.45 10.34 C16.45 11 16.45 11.66 16.45 12.34 C17.44 12.67 18.43 13 19.45 13.34 C20.68 14.59 20.68 14.59 21.9 16.18 C22.58 17.05 22.58 17.05 23.27 17.95 C23.97 18.88 23.97 18.88 24.7 19.84 C25.68 21.11 26.66 22.39 27.64 23.67 C28.11 24.3 28.59 24.92 29.08 25.57 C30.27 27.11 31.48 28.62 32.72 30.12 C33.35 30.9 33.98 31.67 34.63 32.46 C35.18 33.12 35.73 33.79 36.3 34.47 C37.64 36.65 37.51 37.84 37.45 40.34 C38.11 41 38.77 41.66 39.45 42.34 C36.81 42.67 34.17 43 31.45 43.34 C32.11 44.33 32.77 45.32 33.45 46.34 C31.47 47.33 31.47 47.33 29.45 48.34 C30.11 49 30.77 49.66 31.45 50.34 C29.47 50.67 27.49 51 25.45 51.34 C25.45 52.33 25.45 53.32 25.45 54.34 C24.46 55.33 24.46 55.33 23.45 56.34 C23.45 57 23.45 57.66 23.45 58.34 C21.47 59.33 21.47 59.33 19.45 60.34 C19.45 61 19.45 61.66 19.45 62.34 C15.82 62.67 12.19 63 8.45 63.34 C8.19 59.28 8.24 56.48 9.95 52.77 C11.52 48.95 11.78 45.3 11.82 41.21 C11.84 40.33 11.84 40.33 11.86 39.44 C11.8 33.73 9.93 30.08 6.26 25.77 C3.01 22.74 -0.71 20.53 -4.55 18.34 C-5.2 17.96 -5.84 17.59 -6.5 17.2 C-17.21 11.36 -31.86 10.18 -43.74 12.82 C-52.1 15.3 -59.13 19.45 -65.55 25.34 C-66.21 25.01 -66.87 24.68 -67.55 24.34 C-61.65 18.82 -55.71 13.33 -49.55 8.09 C-48.69 7.34 -47.82 6.59 -46.93 5.82 C-44.55 4.34 -44.55 4.34 -42.36 4.5 C-40.55 5.34 -40.55 5.34 -38.74 6.9 C-35.71 8.89 -33.02 9.02 -29.55 8.34 C-26.73 6.75 -24.45 5.19 -22.12 2.96 C-16.01 -2.4 -7.53 -1.96 0 0 Z " fill="#F6F6FB" transform="translate(352.5546875,114.6640625)"/><path d="M0 0 C15.84 0 31.68 0 48 0 C48 4.29 48 8.58 48 13 C50.47 13.5 50.47 13.5 53 14 C52.01 14.33 51.02 14.66 50 15 C49.34 14.67 48.68 14.34 48 14 C48 18.29 48 22.58 48 27 C45.68 28.16 44.35 28.13 41.77 28.13 C40.89 28.13 40.02 28.14 39.12 28.14 C38.17 28.14 37.22 28.13 36.25 28.13 C34.8 28.13 34.8 28.13 33.31 28.14 C31.26 28.14 29.21 28.13 27.16 28.13 C24.01 28.13 20.87 28.13 17.72 28.14 C15.73 28.14 13.74 28.13 11.75 28.13 C10.8 28.13 9.86 28.14 8.88 28.14 C8.01 28.14 7.14 28.13 6.23 28.13 C5.08 28.13 5.08 28.13 3.9 28.13 C2 28 2 28 0 27 C0 18.09 0 9.18 0 0 Z " fill="#FE05FE" transform="translate(204,22)"/><path d="M0 0 C0.88 -0.03 1.77 -0.07 2.68 -0.1 C9.93 -0.16 9.93 -0.16 12.89 2.66 C14.75 5.18 16.27 7.49 17.62 10.31 C18.12 11.35 18.62 12.38 19.14 13.45 C20.59 16.62 21.96 19.81 23.33 23.02 C23.76 24.02 24.19 25.02 24.63 26.06 C25.48 28.06 26.33 30.07 27.16 32.08 C29.82 38.37 32.95 43.89 36.94 49.44 C37.32 50 37.7 50.55 38.1 51.13 C44.98 60.92 58.09 65.72 68.94 69.44 C69.9 69.78 70.86 70.12 71.86 70.47 C78.26 72.41 84.48 72.71 91.12 72.75 C91.96 72.76 92.79 72.76 93.65 72.77 C101.79 72.67 108.76 71.29 115.94 67.44 C116.6 67.44 117.26 67.44 117.94 67.44 C117.94 66.78 117.94 66.12 117.94 65.44 C119.14 64.48 120.34 63.53 121.56 62.61 C123.83 60.68 125.49 58.3 127.19 55.88 C127.54 55.39 127.89 54.91 128.25 54.42 C129.92 52.09 131.02 50.18 131.94 47.44 C132.6 47.44 133.26 47.44 133.94 47.44 C133.94 46.45 133.94 45.46 133.94 44.44 C134.6 44.44 135.26 44.44 135.94 44.44 C136.04 43.88 136.15 43.33 136.25 42.76 C137.08 39.95 138.36 37.75 139.88 35.25 C140.4 34.37 140.92 33.49 141.46 32.58 C142.94 30.44 142.94 30.44 144.94 29.44 C147.94 29.25 147.94 29.25 150.94 29.44 C152.94 31.44 152.94 31.44 153.28 34.61 C153.15 38.87 151.53 42.01 149.5 45.69 C148.85 46.9 148.21 48.11 147.57 49.33 C147.13 50.12 147.13 50.12 146.69 50.92 C141.45 61.43 146.27 76.15 148.38 87 C148.7 88.75 149.03 90.5 149.36 92.25 C149.96 95.44 150.56 98.62 151.18 101.8 C151.3 102.43 151.43 103.06 151.55 103.71 C151.96 105.67 151.96 105.67 152.94 108.44 C158.44 110.93 163.89 111.33 169.54 109.31 C170.74 108.84 171.94 108.36 173.12 107.88 C180.31 104.93 180.31 104.93 183.94 106.44 C173.32 111.49 164.51 115.29 152.94 111.44 C154.92 119.36 154.92 119.36 156.94 127.44 C164.97 127.63 172.92 127.39 180.94 126.81 C181.85 126.77 182.75 126.72 183.69 126.68 C188.52 126.36 188.52 126.36 192.6 124.01 C193.95 122.4 193.95 122.4 195 120.7 C195.31 120.28 195.62 119.87 195.94 119.44 C196.6 119.44 197.26 119.44 197.94 119.44 C198.31 118.26 198.31 118.26 198.69 117.06 C200.09 114.11 200.94 113.54 203.94 112.44 C201.66 118.91 197.86 124.79 191.94 128.44 C185.84 130.5 179.31 130.34 172.94 130.44 C171.3 130.51 169.67 130.59 168.04 130.67 C166.5 130.72 164.97 130.77 163.44 130.81 C162.37 130.85 162.37 130.85 161.28 130.89 C158.18 130.9 156.41 130.86 154.04 128.75 C151.24 122.89 150.59 115.88 150.94 109.44 C150.09 109.32 149.24 109.21 148.36 109.09 C144.74 108.4 141.54 107.34 138.12 106 C137.54 105.78 136.96 105.57 136.35 105.34 C132.06 103.69 132.06 103.69 130.94 101.44 C137.54 102.97 143.81 104.51 149.94 107.44 C149.75 106.73 149.57 106.02 149.38 105.29 C147.39 97.55 145.73 89.79 144.25 81.94 C144.02 80.79 143.8 79.65 143.57 78.5 C141.36 66.76 140.63 57.4 145.94 46.5 C149.38 39.79 149.38 39.79 149.94 32.44 C147.6 32.32 147.6 32.32 144.94 33.44 C143.44 35.45 142.24 37.51 141.05 39.72 C140.68 40.29 140.32 40.85 139.94 41.44 C139.28 41.44 138.62 41.44 137.94 41.44 C137.86 41.96 137.78 42.48 137.7 43.02 C134.1 54.51 123.88 66.56 113.5 72.25 C100.1 78.45 81.47 76.96 67.8 72.13 C47.49 64.6 34.22 54.53 24.82 34.68 C22.63 29.87 20.81 24.94 19.02 19.98 C15.85 10.28 15.85 10.28 8.94 3.44 C0.04 1.59 -8.3 2.18 -16.43 6.21 C-19.02 8.16 -19.86 10.33 -20.43 13.48 C-20.63 19.85 -19.05 24.44 -15.06 29.44 C-12.75 31.47 -10.39 33.28 -7.86 35.03 C-7.26 35.49 -6.67 35.96 -6.06 36.44 C-6.06 37.1 -6.06 37.76 -6.06 38.44 C-12.76 36.27 -17 32.38 -20.18 26.19 C-20.47 25.61 -20.76 25.03 -21.06 24.44 C-21.66 23.47 -22.26 22.5 -22.88 21.5 C-24.7 16.8 -23.88 12.88 -22.31 8.19 C-16.74 0.39 -8.75 0.06 0 0 Z " fill="#0396C1" transform="translate(72.0625,48.5625)"/><path d="M0 0 C0.62 -0.02 1.25 -0.04 1.89 -0.06 C6.45 -0.1 6.45 -0.1 8.44 1.33 C10.6 4.1 11.75 7.13 13.05 10.38 C13.64 11.82 14.24 13.26 14.84 14.71 C15.76 16.97 16.68 19.22 17.59 21.49 C21.32 30.67 25.2 39.13 30.94 47.25 C29.95 47.75 29.95 47.75 28.94 48.25 C26.93 47.24 26.93 47.24 24.38 45.56 C23.9 45.25 23.43 44.94 22.95 44.63 C-12.44 21.21 -12.44 21.21 -16.06 11.25 C-16.5 8.25 -16.5 8.25 -16.06 5.25 C-11.24 0.29 -6.63 0.06 0 0 Z " fill="#F5F5F9" transform="translate(72.0625,55.75)"/><path d="M0 0 C0.33 0 0.66 0 1 0 C1.11 0.67 1.22 1.35 1.34 2.04 C1.85 5.15 2.36 8.26 2.88 11.38 C3.05 12.44 3.22 13.5 3.4 14.59 C4.36 20.37 5.39 26.12 6.62 31.85 C7.17 34.95 7.14 37.86 7 41 C2.25 40.13 -2.2 39.02 -6.65 37.14 C-11.92 34.99 -17.27 33.19 -22.69 31.44 C-28.59 29.53 -34.34 27.55 -40 25 C-37 22.81 -34.03 22.33 -30.44 21.69 C-18.48 19.29 -9.93 14.03 -2.59 4.09 C-1.7 2.74 -0.84 1.37 0 0 Z " fill="#F4F4F8" transform="translate(207,106)"/><path d="M0 0 C4.62 0 9.24 0 14 0 C13.97 2.02 13.93 4.04 13.9 6.05 C13.87 8.08 13.87 8.08 15 10 C14.01 10 13.02 10 12 10 C12 11.98 12 13.96 12 16 C11.34 16 10.68 16 10 16 C10 14.02 10 12.04 10 10 C7.69 10 5.38 10 3 10 C3 11.32 3 12.64 3 14 C4.32 14 5.64 14 7 14 C7 17.3 7 20.6 7 24 C5.68 24.33 4.36 24.66 3 25 C2.67 24.34 2.34 23.68 2 23 C1.67 23.66 1.34 24.32 1 25 C0.36 24.81 -0.28 24.63 -0.94 24.44 C-1.96 24.22 -1.96 24.22 -3 24 C-3.33 24.33 -3.66 24.66 -4 25 C-5.67 25.04 -7.33 25.04 -9 25 C-9.66 23.68 -10.32 22.36 -11 21 C-11.66 21.33 -12.32 21.66 -13 22 C-12.34 22.33 -11.68 22.66 -11 23 C-11 23.66 -11 24.32 -11 25 C-12.98 25 -14.96 25 -17 25 C-16.12 21.12 -16.12 21.12 -15 20 C-15.66 19.67 -16.32 19.34 -17 19 C-17 18.34 -17 17.68 -17 17 C-18.65 16.67 -20.3 16.34 -22 16 C-22 13.69 -22 11.38 -22 9 C-20.61 8.93 -20.61 8.93 -19.18 8.85 C-9.94 8.31 -9.94 8.31 -1 6 C-0.67 4.02 -0.34 2.04 0 0 Z " fill="#CAD2CD" transform="translate(305,46)"/><path d="M0 0 C3.87 3.36 6.64 7.51 7.17 12.69 C7.37 19.15 5.39 24.32 3.13 30.29 C1.08 35.99 -0.09 41.22 1.63 47.17 C4.89 52.68 9.02 55.01 15 57 C16.73 57.09 18.46 57.18 20.19 57.24 C27.4 57.5 33.82 57.9 39.23 63.2 C42.78 67.1 44.27 70.9 45.62 75.94 C48.37 86.58 48.37 86.58 55 95 C57.42 95.81 59.11 96.18 61.58 96.39 C62.27 96.46 62.95 96.53 63.66 96.6 C65.08 96.74 66.51 96.87 67.93 96.99 C73.96 97.62 77.78 99.49 81.88 104.12 C83 106 83 106 83 108 C82.34 108 81.68 108 81 108 C79.92 106.76 79.92 106.76 78.75 105.12 C76.21 102.02 73.98 100.6 70 100 C68 99.84 66 99.7 64 99.56 C57.53 99.08 54.21 98.23 49.54 93.52 C46.24 89.48 45.18 84.9 43.88 79.94 C41.78 70.94 41.78 70.94 36.45 63.67 C31.45 61.05 26.76 60.62 21.22 60.35 C12.79 59.91 7.11 58.11 1.38 51.75 C-2.24 47.14 -2.53 42.67 -2 37 C-1.02 33.36 0.44 29.92 1.87 26.44 C4.3 20.14 5.05 14.34 3 7.81 C-2.65 -0.13 -12.17 -4.28 -21.43 -6.61 C-35.26 -8.69 -47.21 -6.22 -58.81 1.62 C-63.69 5.4 -67.34 9.69 -71.03 14.58 C-72.87 16.84 -74.6 18.38 -77 20 C-75.48 14.72 -72.05 11.39 -68.38 7.5 C-67.49 6.52 -67.49 6.52 -66.58 5.53 C-48.37 -13.94 -21.52 -14.09 0 0 Z " fill="#DE0203" transform="translate(353,141)"/><path d="M0 0 C1.98 0 3.96 0 6 0 C6.1 2.86 5.79 5.25 5 8 C5.66 8 6.32 8 7 8 C7 5.36 7 2.72 7 0 C10.97 -0.02 14.94 -0.04 18.91 -0.05 C20.26 -0.06 21.61 -0.07 22.96 -0.08 C24.9 -0.09 26.84 -0.09 28.78 -0.1 C29.38 -0.1 29.99 -0.11 30.62 -0.11 C32.08 -0.11 33.54 -0.06 35 0 C35.5 0.5 35.5 0.5 36 1 C35.95 2.59 35.95 2.59 35.69 4.5 C35.61 5.13 35.53 5.76 35.45 6.41 C35.3 6.93 35.15 7.46 35 8 C34.34 8.33 33.68 8.66 33 9 C32.34 11.53 32.34 11.53 32 14 C31.01 14 30.02 14 29 14 C29 14.66 29 15.32 29 16 C28.34 16 27.68 16 27 16 C27 13.36 27 10.72 27 8 C25.68 8 24.36 8 23 8 C23.5 8.95 23.99 9.9 24.5 10.88 C26 14 26 14 26 16 C23.36 16 20.72 16 18 16 C19.88 10.25 19.88 10.25 21 8 C19.68 8.33 18.36 8.66 17 9 C17.33 9.66 17.66 10.32 18 11 C17.72 12.68 17.39 14.35 17 16 C14.67 16 12.33 16 10 16 C10 14.35 10 12.7 10 11 C9.34 11 8.68 11 8 11 C8 12.65 8 14.3 8 16 C7.01 16 6.02 16 5 16 C5 14.02 5 12.04 5 10 C4.01 10 3.02 10 2 10 C2 9.34 2 8.68 2 8 C1.01 8 0.02 8 -1 8 C-1 7.34 -1 6.68 -1 6 C0.32 5.67 1.64 5.34 3 5 C2.01 4.67 1.02 4.34 0 4 C0 2.68 0 1.36 0 0 Z " fill="#FB1BFB" transform="translate(210,28)"/><path d="M0 0 C3.75 1.25 4.24 2.57 6 6 C6 6.66 6 7.32 6 8 C6.66 8.33 7.32 8.66 8 9 C11.83 12.44 13.68 15.37 16 20 C17.21 21.37 17.21 21.37 18.56 22.62 C20.78 24.79 21.65 26.31 23 29 C23.99 29.33 24.98 29.66 26 30 C26.7 31.32 27.37 32.65 28 34 C28.98 35.02 29.98 36.02 31 37 C31.91 38.01 32.8 39.03 33.69 40.06 C34.12 40.57 34.56 41.08 35.01 41.6 C36 43 36 43 36 45 C37.32 45.66 38.64 46.32 40 47 C40 47.66 40 48.32 40 49 C40.99 49.5 40.99 49.5 42 50 C42.43 50.74 42.87 51.49 43.31 52.25 C44.67 54.47 45.67 55.77 47.5 57.5 C49.86 59.74 51.44 62.13 53 65 C52.01 65.5 52.01 65.5 51 66 C50.01 65.5 50.01 65.5 49 65 C49 64.34 49 63.68 49 63 C48.01 62.67 47.02 62.34 46 62 C46 61.34 46 60.68 46 60 C45.16 60.15 45.16 60.15 44.31 60.31 C39.55 59.67 35.88 53.76 33 50.19 C32.44 49.5 32.44 49.5 31.87 48.79 C31.04 47.76 30.21 46.74 29.38 45.71 C27.32 43.16 25.25 40.61 23.18 38.07 C22.06 36.69 20.94 35.31 19.82 33.93 C17.31 30.83 14.79 27.74 12.24 24.67 C11.82 24.17 11.41 23.67 10.98 23.16 C9.89 21.85 8.8 20.54 7.71 19.23 C5.27 16.04 4 14.06 4 10 C2.69 8.18 2.69 8.18 1 6.44 C-2 3.21 -2 3.21 -2 1 C-1.34 0.67 -0.68 0.34 0 0 Z " fill="#D9DDE3" transform="translate(417,155)"/><path d="M0 0 C4.16 1.58 6.33 4.4 9.06 7.75 C9.54 8.32 10.02 8.9 10.51 9.49 C14.39 14.18 18.14 18.96 21.87 23.76 C25.49 28.4 29.26 32.9 33.08 37.38 C36.48 41.37 39.78 45.43 43.04 49.54 C45.15 52.19 47.29 54.82 49.44 57.44 C49.82 57.9 50.19 58.36 50.58 58.84 C51.35 59.77 52.11 60.7 52.88 61.63 C59 69.1 65.1 76.59 71.19 84.09 C74.37 88 77.56 91.91 80.75 95.81 C81.46 96.67 82.16 97.54 82.89 98.43 C84.34 100.2 85.8 101.97 87.27 103.73 C104.57 124.59 104.57 124.59 104.31 134.4 C103.33 142.57 100.5 150.65 94 156 C91.39 156.87 89.69 157.19 87 157.25 C85.98 157.29 85.98 157.29 84.94 157.33 C82.46 156.91 81.59 155.89 80 154 C80.74 154.03 81.47 154.07 82.23 154.11 C83.69 154.15 83.69 154.15 85.19 154.19 C86.15 154.22 87.11 154.26 88.11 154.29 C91.57 153.94 93.29 153.18 96 151 C97.41 148.42 97.41 148.42 98.25 145.5 C98.56 144.54 98.88 143.58 99.2 142.59 C99.47 141.74 99.73 140.88 100 140 C100.33 139.01 100.66 138.02 101 137 C101.89 129.61 100.44 124.39 95.86 118.55 C93.1 115.16 90.23 111.87 87.35 108.57 C85.47 106.38 83.67 104.14 81.88 101.88 C79.13 98.42 76.36 94.98 73.56 91.56 C73.18 91.1 72.81 90.64 72.42 90.16 C71.65 89.23 70.89 88.3 70.12 87.37 C63.99 79.9 57.89 72.41 51.8 64.9 C48.71 61.1 45.61 57.29 42.5 53.5 C38.25 48.31 34.02 43.11 29.8 37.9 C26.71 34.1 23.61 30.29 20.5 26.5 C19.81 25.65 19.11 24.8 18.4 23.93 C17.07 22.3 15.74 20.68 14.4 19.06 C12.64 16.92 10.88 14.77 9.12 12.62 C8.56 11.95 8 11.27 7.43 10.57 C4.65 7.17 2.12 3.85 0 0 Z " fill="#DF0203" transform="translate(377,126)"/><path d="M0 0 C0.88 -0.03 1.77 -0.07 2.68 -0.1 C9.93 -0.16 9.93 -0.16 12.89 2.66 C14.75 5.18 16.27 7.49 17.62 10.31 C18.12 11.35 18.62 12.38 19.14 13.45 C20.59 16.62 21.96 19.81 23.33 23.02 C23.76 24.02 24.19 25.02 24.63 26.06 C25.48 28.06 26.33 30.07 27.16 32.08 C29.82 38.37 32.95 43.89 36.94 49.44 C37.32 50 37.7 50.55 38.1 51.13 C46.47 63.03 64.4 68.79 77.86 71.91 C83.52 72.88 89.21 73.19 94.94 73.44 C94.94 73.77 94.94 74.1 94.94 74.44 C76.73 77.02 59.03 70.95 43.94 60.62 C30.77 50.29 24.55 35.33 19.02 19.98 C15.85 10.28 15.85 10.28 8.94 3.44 C0.04 1.59 -8.3 2.18 -16.43 6.21 C-19.02 8.16 -19.86 10.33 -20.43 13.48 C-20.63 19.85 -19.05 24.44 -15.06 29.44 C-12.75 31.47 -10.39 33.28 -7.86 35.03 C-7.26 35.49 -6.67 35.96 -6.06 36.44 C-6.06 37.1 -6.06 37.76 -6.06 38.44 C-12.76 36.27 -17 32.38 -20.18 26.19 C-20.47 25.61 -20.76 25.03 -21.06 24.44 C-21.66 23.47 -22.26 22.5 -22.88 21.5 C-24.7 16.8 -23.88 12.88 -22.31 8.19 C-16.74 0.39 -8.75 0.06 0 0 Z " fill="#0492BB" transform="translate(72.0625,48.5625)"/><path d="M0 0 C1.65 0 3.3 0 5 0 C5.62 2.37 5.62 2.37 6 5 C5.34 5.66 4.68 6.32 4 7 C1.38 6.62 1.38 6.62 -1 6 C-1.33 6.99 -1.66 7.98 -2 9 C-3.39 10.4 -3.39 10.4 -5.25 11.94 C-8.52 14.7 -11.68 17.55 -14.81 20.48 C-27.47 32.34 -27.47 32.34 -31 34 C-34.49 33.51 -34.49 33.51 -36 32 C-36.27 29.6 -36.27 29.6 -36 27 C-34.67 25.59 -34.67 25.59 -32.75 24.38 C-28.25 21.29 -24.36 17.77 -20.39 14.05 C-17.02 10.9 -13.56 7.92 -10 5 C-13.3 4.67 -16.6 4.34 -20 4 C-20 3.67 -20 3.34 -20 3 C-13.73 3 -7.46 3 -1 3 C-0.67 2.01 -0.34 1.02 0 0 Z " fill="#1E1D25" transform="translate(296,116)"/><path d="M0 0 C0 4.1 -2.16 5.6 -4.88 8.38 C-8.56 12.2 -11.8 16.04 -14.79 20.44 C-19.62 27.41 -19.62 27.41 -23.44 29.04 C-26.37 29.35 -29.06 29.21 -32 29 C-34.4 28.99 -36.79 29.02 -39.19 29.04 C-42.79 29.07 -46.4 29.04 -50 29 C-50 27.68 -50 26.36 -50 25 C-49.06 24.84 -48.11 24.68 -47.14 24.52 C-28.67 21.24 -13.43 13.04 0 0 Z " fill="#F0F1F5" transform="translate(282,142)"/><path d="M0 0 C7.77 1.68 14.98 3.96 22.3 7.02 C29.57 9.93 35.01 9.39 42.19 6.44 C49.37 3.5 49.37 3.5 53 5 C42.39 10.05 33.57 13.86 22 10 C23.32 15.28 24.64 20.56 26 26 C34.03 26.19 41.98 25.95 50 25.38 C50.91 25.33 51.82 25.29 52.75 25.24 C57.59 24.92 57.59 24.92 61.66 22.58 C63.01 20.96 63.01 20.96 64.06 19.26 C64.53 18.64 64.53 18.64 65 18 C65.66 18 66.32 18 67 18 C67.37 16.82 67.37 16.82 67.75 15.62 C69.15 12.68 70.01 12.1 73 11 C70.73 17.47 66.92 23.35 61 27 C54.9 29.06 48.37 28.91 42 29 C40.37 29.07 38.73 29.15 37.1 29.23 C35.57 29.28 34.03 29.33 32.5 29.38 C31.43 29.42 31.43 29.42 30.34 29.46 C27.24 29.46 25.47 29.42 23.11 27.31 C20.3 21.45 19.65 14.44 20 8 C19.15 7.89 18.3 7.77 17.43 7.65 C13.8 6.96 10.61 5.9 7.19 4.56 C6.31 4.24 6.31 4.24 5.42 3.9 C1.12 2.25 1.12 2.25 0 0 Z " fill="#0394BD" transform="translate(203,150)"/><path d="M0 0 C2.31 0 4.62 0 7 0 C7 1.98 7 3.96 7 6 C7.66 6 8.32 6 9 6 C9 4.02 9 2.04 9 0 C9.99 0 10.98 0 12 0 C12 1.98 12 3.96 12 6 C12.99 5.67 13.98 5.34 15 5 C15 4.34 15 3.68 15 3 C19.21 3.62 22.29 5.02 26 7 C26 9.31 26 11.62 26 14 C24.68 14.33 23.36 14.66 22 15 C21.67 14.34 21.34 13.68 21 13 C20.67 13.66 20.34 14.32 20 15 C19.36 14.81 18.72 14.63 18.06 14.44 C17.04 14.22 17.04 14.22 16 14 C15.67 14.33 15.34 14.66 15 15 C13.33 15.04 11.67 15.04 10 15 C9.34 13.68 8.68 12.36 8 11 C7.01 11.5 7.01 11.5 6 12 C6.66 12.33 7.32 12.66 8 13 C8 13.66 8 14.32 8 15 C6.02 15 4.04 15 2 15 C2.88 11.12 2.88 11.12 4 10 C3.34 9.67 2.68 9.34 2 9 C2.33 7.35 2.66 5.7 3 4 C2.01 3.67 1.02 3.34 0 3 C0.99 3 1.98 3 3 3 C3 2.34 3 1.68 3 1 C2.01 0.67 1.02 0.34 0 0 Z " fill="#19BB09" transform="translate(286,56)"/><path d="M0 0 C3.75 1.25 4.24 2.57 6 6 C6 6.66 6 7.32 6 8 C6.66 8.33 7.32 8.66 8 9 C11.83 12.44 13.68 15.37 16 20 C16.86 20.93 17.76 21.82 18.69 22.69 C21 25 21 25 21 28 C21.97 29.84 23.09 31.54 24.22 33.28 C25 35 25 35 24 38 C20.09 34.25 16.74 30.29 13.44 26 C12.5 24.79 11.56 23.58 10.62 22.38 C10.18 21.8 9.74 21.23 9.28 20.63 C8.46 19.59 7.63 18.56 6.77 17.55 C4 14.3 4 14.3 4 11 C2.98 8.35 1.9 6.9 -0.12 4.88 C-0.74 4.26 -1.36 3.64 -2 3 C-2 2.34 -2 1.68 -2 1 C-1.34 0.67 -0.68 0.34 0 0 Z " fill="#E7E5F2" transform="translate(417,155)"/><path d="M0 0 C4.27 3.14 7.85 6.89 11.44 10.79 C9.95 11.29 9.95 11.29 8.44 11.79 C7.98 11.29 7.51 10.78 7.04 10.25 C2.02 4.96 -3.08 1.14 -9.56 -2.21 C-10.21 -2.55 -10.85 -2.89 -11.52 -3.24 C-18.02 -6.19 -26.07 -6.54 -32.89 -4.52 C-36.58 -2.78 -39.58 -0.42 -42.75 2.11 C-46.21 4.77 -46.21 4.77 -49.25 4.98 C-52.37 3.38 -54.22 1.4 -56.56 -1.21 C-59.65 -0.01 -62.63 1.27 -65.56 2.79 C-65.56 1.8 -65.56 0.81 -65.56 -0.21 C-63.31 -1.77 -61.1 -3.16 -58.56 -4.21 C-55.15 -3.57 -53.87 -2.53 -51.5 -0.02 C-50.54 0.88 -50.54 0.88 -49.56 1.79 C-45.91 1.45 -43.56 -0.49 -40.69 -2.64 C-27.12 -12.28 -13.33 -8.31 0 0 Z " fill="#85858B" transform="translate(367.5625,114.20703125)"/><path d="M0 0 C0 0.66 0 1.32 0 2 C0.66 2.33 1.32 2.66 2 3 C2.31 3.66 2.62 4.32 2.94 5 C3.89 7.35 3.89 7.35 7 8 C8.02 9.99 9.02 11.99 10 14 C11.59 15.23 11.59 15.23 13 16 C13 16.66 13 17.32 13 18 C13.99 18.33 14.98 18.66 16 19 C16.72 20.45 17.44 21.89 18.11 23.37 C19.6 26.09 21.73 27.91 24 30 C21 31 21 31 19.31 30.19 C18.88 29.8 18.45 29.4 18 29 C18 28.34 18 27.68 18 27 C17.01 26.67 16.02 26.34 15 26 C14.67 24.67 14.33 23.33 14 22 C13.01 21.67 12.02 21.34 11 21 C9.81 18.94 9.81 18.94 9 17 C8.01 17 7.02 17 6 17 C4.19 15.38 2.62 13.79 1 12 C0.16 11.13 0.16 11.13 -0.69 10.25 C-1.25 9.65 -1.8 9.05 -2.38 8.44 C-3.16 7.6 -3.16 7.6 -3.96 6.75 C-5 5 -5 5 -4.79 2.85 C-3.7 0.3 -2.72 0 0 0 Z " fill="#E6E7ED" transform="translate(388,118)"/><path d="M0 0 C2.38 1.62 2.38 1.62 4 4 C4.36 6.91 4.3 9.02 3.44 11.81 C0.95 13.86 -1.89 14.09 -5 14 C-7.94 13.06 -7.94 13.06 -10 11 C-10.66 8.21 -10.62 5.8 -10 3 C-7.21 -0.43 -4.25 -0.62 0 0 Z " fill="#272831" transform="translate(231,104)"/><path d="M0 0 C1.8 0.83 1.8 0.83 3.61 2.39 C7.28 4.81 11.07 4.19 15.24 3.33 C15.75 3.17 16.27 3 16.8 2.83 C16.47 4.15 16.14 5.47 15.8 6.83 C14.44 6.84 14.44 6.84 13.05 6.84 C-0.94 7.16 -12.79 11.3 -23.2 20.83 C-23.86 20.5 -24.52 20.17 -25.2 19.83 C-19.29 14.32 -13.35 8.83 -7.2 3.58 C-6.33 2.83 -5.47 2.09 -4.57 1.32 C-2.2 -0.17 -2.2 -0.17 0 0 Z " fill="#E7E7EC" transform="translate(310.19921875,119.16796875)"/><path d="M0 0 C1.48 0.73 1.48 0.73 3 2 C3.38 3.94 3.38 3.94 3.39 6.37 C3.39 7.28 3.4 8.2 3.41 9.14 C3.41 10.15 3.41 11.16 3.4 12.2 C3.41 13.26 3.41 14.32 3.42 15.41 C3.43 17.72 3.44 20.03 3.44 22.34 C3.44 25.98 3.46 29.63 3.48 33.28 C3.52 40.36 3.54 47.44 3.56 54.52 C3.58 63.54 3.61 72.55 3.66 81.57 C3.68 85.2 3.69 88.82 3.7 92.45 C3.7 95.23 3.72 98.02 3.73 100.8 C3.73 101.81 3.72 102.82 3.72 103.86 C3.73 105.23 3.73 105.23 3.74 106.63 C3.74 107.43 3.74 108.23 3.75 109.06 C3.83 111.24 3.83 111.24 6 113 C5.62 115.12 5.62 115.12 5 117 C1.25 118.12 1.25 118.12 -1 117 C-0.12 112.12 -0.12 112.12 1 111 C1.1 109.6 1.13 108.2 1.13 106.8 C1.13 105.89 1.13 104.99 1.14 104.06 C1.13 103.05 1.13 102.05 1.13 101.02 C1.13 99.97 1.13 98.92 1.13 97.84 C1.14 94.96 1.14 92.07 1.13 89.19 C1.13 86.17 1.13 83.16 1.14 80.14 C1.14 75.08 1.14 70.01 1.13 64.95 C1.12 59.09 1.13 53.23 1.13 47.37 C1.14 42.35 1.14 37.32 1.13 32.3 C1.13 29.29 1.13 26.29 1.14 23.29 C1.14 19.94 1.13 16.59 1.13 13.24 C1.13 12.24 1.13 11.24 1.14 10.22 C1.13 8.85 1.13 8.85 1.13 7.45 C1.13 6.27 1.13 6.27 1.13 5.05 C1.08 2.8 1.08 2.8 0 0 Z " fill="#FA1FFB" transform="translate(257,37)"/><path d="M0 0 C2.44 0.75 2.44 0.75 5 2 C5.62 3.94 5.62 3.94 6 6 C7.33 7.5 7.33 7.5 9 9 C9.9 10.27 9.9 10.27 10.81 11.56 C13.4 14.44 15.37 14.84 19 16 C20.88 17.81 20.88 17.81 22 20 C21.96 20.8 21.92 21.61 21.88 22.44 C21.74 25.27 21.74 25.27 24.38 27.56 C24.83 27.97 25.29 28.38 25.75 28.8 C27.34 30.33 28.17 31.97 29 34 C27.19 34.2 27.19 34.2 25 34 C23.44 32.66 23.44 32.66 21.93 30.77 C21.37 30.08 20.81 29.38 20.23 28.66 C19.64 27.91 19.05 27.15 18.44 26.38 C17.83 25.61 17.22 24.85 16.59 24.06 C15.33 22.48 14.08 20.9 12.83 19.32 C11.12 17.15 9.38 15 7.64 12.86 C6.63 11.62 5.63 10.37 4.62 9.12 C3.92 8.26 3.92 8.26 3.2 7.38 C0 3.34 0 3.34 0 0 Z " fill="#E4E2EF" transform="translate(394,133)"/><path d="M0 0 C1.86 0.74 3.71 1.5 5.56 2.25 C7.11 2.88 7.11 2.88 8.69 3.52 C11.05 4.52 13.23 5.68 15.43 6.99 C19.01 9.08 22.67 10.54 26.56 11.94 C27.25 12.19 27.94 12.45 28.66 12.71 C33.8 14.59 38.96 16.42 44.12 18.24 C48.37 19.75 52.56 21.38 56.73 23.09 C60.13 24.46 63.56 25.73 67 27 C67 27.66 67 28.32 67 29 C58.64 26.64 50.52 23.75 42.38 20.75 C41.71 20.51 41.05 20.26 40.37 20.01 C26.43 14.88 12.88 9.45 0 2 C0 1.34 0 0.68 0 0 Z " fill="#0397C1" transform="translate(99,109)"/><path d="M0 0 C4.62 0 9.24 0 14 0 C14 2.97 14 5.94 14 9 C9.71 9 5.42 9 1 9 C0.67 9.99 0.34 10.98 0 12 C-1.32 11.34 -2.64 10.68 -4 10 C-3.01 9.67 -2.02 9.34 -1 9 C-1 8.01 -1 7.02 -1 6 C-0.67 4.02 -0.34 2.04 0 0 Z " fill="#16BD05" transform="translate(305,46)"/><path d="M0 0 C1.67 0.3 3.34 0.64 5 1 C5.66 1 6.32 1 7 1 C9.67 1 12.33 1 15 1 C15 2.98 15 4.96 15 7 C8.61 8.76 1.6 8 -5 8 C-5 5.69 -5 3.38 -5 1 C-4.36 1.02 -3.72 1.04 -3.06 1.06 C-1.01 1.24 -1.01 1.24 0 0 Z " fill="#D5E5D7" transform="translate(326,54)"/><path d="M0 0 C3.34 0.6 5.46 1.74 8 4 C8 4.66 8 5.32 8 6 C8.55 6.09 9.11 6.19 9.68 6.28 C12.62 7.19 14.64 8.69 17.12 10.5 C20.44 12.94 20.44 12.94 24 15 C24 15.99 24 16.98 24 18 C23.34 18 22.68 18 22 18 C21.67 18.66 21.34 19.32 21 20 C19.85 19.24 18.7 18.47 17.56 17.69 C16.92 17.26 16.29 16.83 15.63 16.39 C14 15 14 15 13 12 C12.01 12.5 12.01 12.5 11 13 C10.88 12.2 10.75 11.39 10.62 10.56 C10.42 9.72 10.21 8.87 10 8 C9.34 7.67 8.68 7.34 8 7 C8.66 8.32 9.32 9.64 10 11 C7.33 9.67 4.67 8.33 2 7 C2 6.34 2 5.68 2 5 C1.01 5 0.02 5 -1 5 C-0.67 3.35 -0.34 1.7 0 0 Z " fill="#077C9F" transform="translate(68,87)"/><path d="M0 0 C2 2 2 2 2.38 4.38 C2 7 2 7 0.44 9.31 C-3.03 11.72 -4.83 11.53 -9 11 C-10.94 9.5 -10.94 9.5 -12 8 C-11.33 6 -10.67 4 -10 2 C-8.33 1.67 -6.67 1.33 -5 1 C-4.11 0.77 -3.23 0.55 -2.31 0.31 C-1.55 0.21 -0.79 0.11 0 0 Z " fill="#22232C" transform="translate(476,289)"/><path d="M0 0 C0.33 0 0.66 0 1 0 C1.21 3.15 1.23 5.45 0 8.38 C-2.71 10.57 -4.71 10.57 -8.12 10.39 C-10 10 -10 10 -12 8.31 C-13.13 5.69 -13.08 3.83 -13 1 C-11.72 1.02 -11.72 1.02 -10.41 1.04 C-8.75 1.05 -8.75 1.05 -7.06 1.06 C-5.41 1.08 -5.41 1.08 -3.72 1.1 C-1.09 1.31 -1.09 1.31 0 0 Z " fill="#35353D" transform="translate(274,184)"/><path d="M0 0 C2.38 1.62 2.38 1.62 4 4 C4.25 7.25 4.25 7.25 4 10 C3.34 9.67 2.68 9.34 2 9 C-0.04 9.09 -2.09 9.24 -4.12 9.44 C-5.22 9.54 -6.32 9.64 -7.45 9.75 C-8.29 9.83 -9.13 9.91 -10 10 C-10.2 4.3 -10.2 4.3 -8.38 1.62 C-5.29 -0.49 -3.67 -0.61 0 0 Z " fill="#24252E" transform="translate(354,89)"/><path d="M0 0 C3.63 0 7.26 0 11 0 C11.66 1.98 12.32 3.96 13 6 C11.65 8.03 10.53 8.89 8.12 9.38 C5.95 9.5 4.13 9.48 2 9 C-0.06 6.75 -0.06 6.75 -1 4 C-0.67 2.68 -0.34 1.36 0 0 Z " fill="#1F2029" transform="translate(217,186)"/><path d="M0 0 C1.88 1.75 1.88 1.75 3 4 C3.04 5.67 3.05 7.33 3 9 C1.23 9.11 -0.54 9.19 -2.31 9.25 C-3.3 9.3 -4.28 9.34 -5.3 9.39 C-8 9 -8 9 -9.86 6.98 C-10.23 6.33 -10.61 5.67 -11 5 C-10.12 2.96 -9.29 1.3 -7.75 -0.31 C-4.9 -1.43 -2.89 -0.84 0 0 Z " fill="#2E2F37" transform="translate(418,220)"/><path d="M0 0 C7.77 1.68 14.98 3.96 22.3 7.02 C29.57 9.93 35.01 9.39 42.19 6.44 C49.37 3.5 49.37 3.5 53 5 C34.41 13.84 34.41 13.84 24.81 11.08 C23.68 10.67 22.56 10.25 21.44 9.81 C20.84 9.59 20.24 9.37 19.63 9.14 C18.38 8.67 17.13 8.2 15.89 7.72 C14.01 7 12.12 6.31 10.23 5.62 C9.05 5.19 7.87 4.75 6.69 4.31 C5.62 3.92 4.55 3.52 3.45 3.11 C1 2 1 2 0 0 Z " fill="#898B91" transform="translate(203,150)"/><path d="M0 0 C0.33 0.99 0.66 1.98 1 3 C1.66 3 2.32 3 3 3 C3 2.01 3 1.02 3 0 C5.97 0 8.94 0 12 0 C12.33 2.31 12.66 4.62 13 7 C10.32 8.92 8.72 10.02 5.38 9.94 C2.43 8.77 1.47 7.79 0 5 C-0.19 2.25 -0.19 2.25 0 0 Z " fill="#23232C" transform="translate(416,250)"/><path d="M0 0 C2.38 1.06 2.38 1.06 4 3 C4.34 5.43 4.19 7.52 4 10 C-0.03 9.45 -4.02 8.85 -8 8 C-8.69 5.69 -8.69 5.69 -9 3 C-6.83 -0.7 -3.98 -0.49 0 0 Z " fill="#262831" transform="translate(369,178)"/><path d="M0 0 C1.98 0 3.96 0 6 0 C6.1 2.86 5.79 5.25 5 8 C6.32 7.67 7.64 7.34 9 7 C9 6.34 9 5.68 9 5 C10.65 5 12.3 5 14 5 C14 5.99 14 6.98 14 8 C13.01 8 12.02 8 11 8 C11 10.64 11 13.28 11 16 C10.67 16 10.34 16 10 16 C10 14.35 10 12.7 10 11 C9.34 11 8.68 11 8 11 C8 12.65 8 14.3 8 16 C7.01 16 6.02 16 5 16 C5 14.02 5 12.04 5 10 C4.01 10 3.02 10 2 10 C2 9.34 2 8.68 2 8 C1.01 8 0.02 8 -1 8 C-1 7.34 -1 6.68 -1 6 C0.32 5.67 1.64 5.34 3 5 C2.01 4.67 1.02 4.34 0 4 C0 2.68 0 1.36 0 0 Z " fill="#FA56FC" transform="translate(210,28)"/><path d="M0 0 C0.33 0 0.66 0 1 0 C2.03 5.35 3.04 10.71 4.05 16.07 C4.39 17.89 4.74 19.72 5.08 21.54 C5.59 24.16 6.08 26.77 6.57 29.39 C6.72 30.21 6.88 31.03 7.05 31.87 C7.19 32.63 7.33 33.39 7.47 34.17 C7.66 35.17 7.66 35.17 7.85 36.2 C8 38 8 38 7 41 C4.59 38.14 4.15 34.74 3.46 31.17 C3.32 30.5 3.19 29.84 3.05 29.15 C2.78 27.74 2.5 26.33 2.23 24.91 C1.82 22.77 1.38 20.63 0.95 18.49 C0.68 17.11 0.41 15.74 0.14 14.36 C0.01 13.73 -0.12 13.09 -0.25 12.44 C-1.07 8.01 -0.83 4.43 0 0 Z " fill="#0491BA" transform="translate(216,116)"/><path d="M0 0 C-1.08 3.25 -1.7 3.83 -4.25 5.94 C-7.52 8.7 -10.68 11.55 -13.81 14.48 C-26.24 26.12 -26.24 26.12 -30 28 C-30.99 27.67 -31.98 27.34 -33 27 C-32.45 26.58 -31.9 26.17 -31.34 25.74 C-25.02 20.83 -19.16 15.53 -13.36 10.01 C-2.79 0 -2.79 0 0 0 Z " fill="#828288" transform="translate(295,122)"/><path d="M0 0 C2.9 -0.15 5.79 -0.23 8.69 -0.31 C9.5 -0.35 10.32 -0.4 11.16 -0.44 C17.99 -0.58 17.99 -0.58 20.89 2.15 C23.08 4.83 24.64 7.75 26.12 10.88 C26.38 11.4 26.63 11.93 26.89 12.47 C27.6 13.97 28.3 15.49 29 17 C29.54 18.09 29.54 18.09 30.08 19.2 C31.32 21.8 32.06 23.53 31.69 26.44 C31.46 26.95 31.23 27.47 31 28 C28.85 24.62 27.33 21.42 26.06 17.62 C23.23 9.07 23.23 9.07 17 3 C15.08 2.55 15.08 2.55 12.99 2.37 C11.85 2.24 11.85 2.24 10.69 2.11 C9.91 2.03 9.12 1.96 8.31 1.88 C7.52 1.79 6.72 1.7 5.9 1.61 C3.93 1.4 1.97 1.2 0 1 C0 0.67 0 0.34 0 0 Z " fill="#0398C2" transform="translate(64,49)"/><path d="M0 0 C4.74 4.58 4.74 4.58 6 7 C6 7.99 6 8.98 6 10 C6.66 10 7.32 10 8 10 C8.33 11.65 8.66 13.3 9 15 C9.66 15 10.32 15 11 15 C10.43 17.87 10.14 18.86 8 21 C5 16.38 5 16.38 5 13 C4.34 12.67 3.68 12.34 3 12 C1.31 10.12 1.31 10.12 0 8 C0.33 7.01 0.66 6.02 1 5 C0.01 5 -0.98 5 -2 5 C-1.67 4.55 -1.34 4.09 -1 3.62 C0.17 2.03 0.17 2.03 0 0 Z M6 14 C7 16 7 16 7 16 Z " fill="#CC0405" transform="translate(445,260)"/><path d="M0 0 C4.32 0.62 8.25 1.64 12.38 3.06 C13.43 3.42 14.49 3.79 15.59 4.16 C16.38 4.44 17.18 4.71 18 5 C16.93 7.13 15.71 8.37 14 10 C13.9 9.36 13.79 8.72 13.69 8.06 C13.46 7.38 13.23 6.7 13 6 C12.01 5.67 11.02 5.34 10 5 C10 5.66 10 6.32 10 7 C10.66 7 11.32 7 12 7 C11.67 7.66 11.34 8.32 11 9 C8.69 8.01 6.38 7.02 4 6 C4.33 4.68 4.66 3.36 5 2 C4.34 2 3.68 2 3 2 C3 2.99 3 3.98 3 5 C1.68 4.67 0.36 4.34 -1 4 C-0.67 2.68 -0.34 1.36 0 0 Z " fill="#6E6E74" transform="translate(168,136)"/><path d="M0 0 C0.66 0 1.32 0 2 0 C2.1 0.64 2.21 1.28 2.31 1.94 C2.54 2.62 2.77 3.3 3 4 C3.99 4.33 4.98 4.66 6 5 C5.34 5.66 4.68 6.32 4 7 C3.01 6.67 2.02 6.34 1 6 C1 6.66 1 7.32 1 8 C3.64 8 6.28 8 9 8 C8.31 10.44 8.31 10.44 7 13 C4.38 13.81 4.38 13.81 2 14 C2 13.01 2 12.02 2 11 C1.01 11 0.02 11 -1 11 C-1.03 9.35 -1.05 7.71 -1.06 6.06 C-1.07 5.15 -1.09 4.23 -1.1 3.29 C-1 1 -1 1 0 0 Z " fill="#73747C" transform="translate(394,109)"/><path d="M0 0 C4.62 0 9.24 0 14 0 C13.01 0.33 12.02 0.66 11 1 C11 2.98 11 4.96 11 7 C10.34 7 9.68 7 9 7 C9 5.02 9 3.04 9 1 C6.69 1 4.38 1 2 1 C2 2.32 2 3.64 2 5 C3.32 5 4.64 5 6 5 C6 5.66 6 6.32 6 7 C3.62 7.12 3.62 7.12 1 7 C0.34 6.34 -0.32 5.68 -1 5 C-3.07 4.36 -3.07 4.36 -5 4 C-5 4.66 -5 5.32 -5 6 C-4.01 6.33 -3.02 6.66 -2 7 C-3.65 7 -5.3 7 -7 7 C-7 5.02 -7 3.04 -7 1 C-6.67 1.66 -6.34 2.32 -6 3 C-3.53 2.66 -3.53 2.66 -1 2 C-0.67 1.34 -0.34 0.68 0 0 Z " fill="#DEECE0" transform="translate(306,55)"/><path d="M0 0 C3.52 1.41 4.39 2.66 6 6 C6.99 6.33 7.98 6.66 9 7 C9.94 8.25 9.94 8.25 11 10 C11.7 10.82 12.4 11.65 13.12 12.5 C15 15 15 15 15 18 C14.01 18 13.02 18 12 18 C11.6 16.79 11.6 16.79 11.19 15.56 C10.8 14.72 10.4 13.87 10 13 C9.01 12.67 8.02 12.34 7 12 C7 10.68 7 9.36 7 8 C6.42 7.75 5.85 7.5 5.25 7.25 C2.7 5.83 0.98 4.12 -1 2 C-0.67 1.34 -0.34 0.68 0 0 Z " fill="#B0BEB5" transform="translate(469,221)"/><path d="M0 0 C2.48 0.99 2.48 0.99 5 2 C5 2.66 5 3.32 5 4 C5.99 4.33 6.98 4.66 8 5 C8.72 6.45 9.44 7.89 10.11 9.37 C11.6 12.09 13.73 13.91 16 16 C13 17 13 17 11.31 16.19 C10.66 15.6 10.66 15.6 10 15 C10 14.34 10 13.68 10 13 C9.01 12.67 8.02 12.34 7 12 C6.67 10.67 6.33 9.33 6 8 C5.01 7.67 4.02 7.34 3 7 C1.94 5.06 1.94 5.06 1 3 C0.34 2.34 -0.32 1.68 -1 1 C-0.67 0.67 -0.34 0.34 0 0 Z " fill="#C3D0C6" transform="translate(396,132)"/><path d="M0 0 C1.65 0 3.3 0 5 0 C5.62 2.38 5.62 2.38 6 5 C5.34 5.66 4.68 6.32 4 7 C0.46 6.46 0.46 6.46 -1 5 C-2.41 4.84 -3.83 4.75 -5.25 4.68 C-6.11 4.64 -6.96 4.6 -7.84 4.56 C-8.74 4.52 -9.64 4.48 -10.56 4.44 C-11.46 4.39 -12.37 4.35 -13.29 4.31 C-15.53 4.2 -17.76 4.1 -20 4 C-20 3.67 -20 3.34 -20 3 C-13.73 3 -7.46 3 -1 3 C-0.67 2.01 -0.34 1.02 0 0 Z " fill="#13C001" transform="translate(296,116)"/><path d="M0 0 C3.54 1.42 4.34 2.68 6 6 C8.03 7.27 8.03 7.27 10 8 C10 8.66 10 9.32 10 10 C10.66 10.33 11.32 10.66 12 11 C12 11.99 12 12.98 12 14 C9.56 13.25 9.56 13.25 7 12 C6.38 9.94 6.38 9.94 6 8 C5.01 7.67 4.02 7.34 3 7 C1.61 5.38 0.27 3.71 -1 2 C-0.67 1.34 -0.34 0.68 0 0 Z " fill="#BCCAC0" transform="translate(447,194)"/><path d="M0 0 C0.41 0.35 0.82 0.7 1.25 1.06 C3 2.23 3 2.23 5.19 1.62 C5.79 1.42 6.38 1.21 7 1 C7 2.98 7 4.96 7 7 C3.91 7.85 1.21 8 -2 8 C-2.69 5.69 -2.69 5.69 -3 3 C-1.56 1.19 -1.56 1.19 0 0 Z " fill="#B4BEB8" transform="translate(334,54)"/><path d="M0 0 C0.66 0.33 1.32 0.66 2 1 C1.01 2.48 1.01 2.48 0 4 C3.05 4.98 4.95 4.98 8 4 C7.67 5.65 7.34 7.3 7 9 C3.7 9.33 0.4 9.66 -3 10 C-3.37 3.48 -3.37 3.48 -1.5 1.06 C-1 0.71 -0.51 0.36 0 0 Z " fill="#24252E" transform="translate(140,100)"/><path d="M0 0 C0 0.33 0 0.66 0 1 C-0.56 1.03 -1.11 1.05 -1.69 1.08 C-7.32 1.5 -12.4 2.53 -17 6 C-18.58 8.55 -19.28 10.79 -19.62 13.75 C-19.75 14.82 -19.87 15.89 -20 17 C-20.33 17 -20.66 17 -21 17 C-22.27 9.96 -22.27 9.96 -21.38 6.75 C-15.46 -0.77 -8.82 -1.45 0 0 Z " fill="#048AB1" transform="translate(71,50)"/><path d="M0 0 C3.75 1.25 4.24 2.57 6 6 C6 6.66 6 7.32 6 8 C6.66 8.33 7.32 8.66 8 9 C9.12 11.06 9.12 11.06 10 13 C9.01 13.33 8.02 13.66 7 14 C6.44 13.3 5.89 12.6 5.31 11.88 C4.11 10.36 2.89 8.87 1.62 7.4 C1.17 6.88 0.72 6.35 0.25 5.81 C-0.18 5.32 -0.61 4.84 -1.05 4.33 C-2 3 -2 3 -2 1 C-1.34 0.67 -0.68 0.34 0 0 Z " fill="#C4D9C9" transform="translate(417,155)"/><path d="M0 0 C3.05 0.61 4.65 1.52 6.48 4.03 C7.82 6.34 9.06 8.5 10 11 C9.67 11.99 9.34 12.98 9 14 C6.29 11.37 3.64 8.69 1.12 5.88 C0.69 5.4 0.26 4.92 -0.18 4.43 C-0.45 3.96 -0.72 3.49 -1 3 C-0.67 2.01 -0.34 1.02 0 0 Z " fill="#E4E3EE" transform="translate(432,179)"/><path d="M0 0 C8.72 2.83 17.36 5.93 26 9 C26 9.66 26 10.32 26 11 C16.85 8.44 7.94 5.21 -1 2 C-0.67 1.34 -0.34 0.68 0 0 Z " fill="#87898F" transform="translate(140,127)"/><path d="M0 0 C1.94 0.38 1.94 0.38 4 1 C4.33 1.66 4.66 2.32 5 3 C5.33 2.01 5.66 1.02 6 0 C6.66 0 7.32 0 8 0 C8 2.31 8 4.62 8 7 C6.68 7.33 5.36 7.66 4 8 C3.67 7.34 3.34 6.68 3 6 C2.67 6.66 2.34 7.32 2 8 C1.34 8 0.68 8 0 8 C0 5.36 0 2.72 0 0 Z " fill="#D0E2D2" transform="translate(304,63)"/><path d="M0 0 C2 -0.04 4 -0.04 6 0 C7 1 7 1 7.12 3.5 C7 6 7 6 6 7 C4 7.04 2 7.04 0 7 C0 4.69 0 2.38 0 0 Z " fill="#E5F5E6" transform="translate(275,55)"/><path d="M0 0 C2 -0.04 4 -0.04 6 0 C7 1 7 1 7.12 3.5 C7 6 7 6 6 7 C4 7.04 2 7.04 0 7 C0 4.69 0 2.38 0 0 Z " fill="#E7F5E9" transform="translate(297,46)"/><path d="M0 0 C2 -0.04 4 -0.04 6 0 C7 1 7 1 7.12 3.5 C7 6 7 6 6 7 C4 7.04 2 7.04 0 7 C0 4.69 0 2.38 0 0 Z " fill="#F5F2FE" transform="translate(239,28)"/><path d="M0 0 C0 1.98 0 3.96 0 6 C-6.75 6.12 -6.75 6.12 -9 5 C-9 3.68 -9 2.36 -9 1 C-6 -0.5 -3.34 -0.06 0 0 Z " fill="#828389" transform="translate(475,290)"/><path d="M0 0 C5.09 2.28 7.27 5.19 10 10 C9.01 10.5 9.01 10.5 8 11 C7.34 10.67 6.68 10.34 6 10 C6 9.34 6 8.68 6 8 C5.01 7.67 4.02 7.34 3 7 C3 6.34 3 5.68 3 5 C1.68 4.34 0.36 3.68 -1 3 C-0.67 2.01 -0.34 1.02 0 0 Z M-3 3 C-2.34 3 -1.68 3 -1 3 C-1.33 3.66 -1.66 4.32 -2 5 C-2.33 4.34 -2.66 3.68 -3 3 Z " fill="#BECBC3" transform="translate(460,210)"/><path d="M0 0 C2.97 0 5.94 0 9 0 C8.67 1.65 8.34 3.3 8 5 C5.69 5 3.38 5 1 5 C0.67 3.35 0.34 1.7 0 0 Z " fill="#94949B" transform="translate(419,250)"/><path d="M0 0 C1.1 0.02 1.1 0.02 2.21 0.04 C2.95 0.04 3.68 0.05 4.44 0.06 C5 0.07 5.57 0.09 6.15 0.1 C6.15 1.75 6.15 3.4 6.15 5.1 C3.51 5.1 0.87 5.1 -1.85 5.1 C-2.41 3.16 -2.41 3.16 -2.85 1.1 C-1.85 0.1 -1.85 0.1 0 0 Z " fill="#A7A8AE" transform="translate(380.84765625,211.90234375)"/><path d="M0 0 C0.43 0.93 0.43 0.93 0.88 1.88 C1.94 4.13 1.94 4.13 4 6 C3.62 8.12 3.62 8.12 3 10 C-0.75 11.12 -0.75 11.12 -3 10 C-2.39 6.44 -1.42 3.32 0 0 Z " fill="#FE01FE" transform="translate(259,144)"/><path d="M0 0 C2.97 0 5.94 0 9 0 C8.67 1.65 8.34 3.3 8 5 C5.69 5 3.38 5 1 5 C0.67 3.35 0.34 1.7 0 0 Z " fill="#B2B2B8" transform="translate(219,186)"/><path d="M0 0 C1.89 0.21 1.89 0.21 4.25 0.81 C10.79 2.3 17.32 2.63 24 3 C24 3.33 24 3.66 24 4 C14.56 5.16 7.16 4.97 -2 2 C-1.34 1.34 -0.68 0.68 0 0 Z " fill="#0589B0" transform="translate(143,119)"/><path d="M0 0 C2.64 0 5.28 0 8 0 C8.33 1.65 8.66 3.3 9 5 C6.36 5 3.72 5 1 5 C0.67 3.35 0.34 1.7 0 0 Z " fill="#9C9DA3" transform="translate(487,250)"/><path d="M0 0 C3.99 0.54 6.3 2.72 9.12 5.38 C9.57 5.77 10.01 6.17 10.46 6.59 C12.62 8.56 14.54 10.45 16 13 C12.53 12.42 10.95 11.29 8.56 8.75 C7.96 8.12 7.37 7.5 6.75 6.86 C6.17 6.24 5.6 5.63 5 5 C4.02 4.02 3.05 3.04 2.06 2.06 C1.38 1.38 0.7 0.7 0 0 Z " fill="#7E7E84" transform="translate(363,113)"/><path d="M0 0 C1.98 0 3.96 0 6 0 C6 2.64 6 5.28 6 8 C4.02 8 2.04 8 0 8 C0 5.36 0 2.72 0 0 Z " fill="#D0E4D1" transform="translate(313,63)"/><path d="M0 0 C0.33 0.99 0.66 1.98 1 3 C1.66 3 2.32 3 3 3 C3.33 2.01 3.66 1.02 4 0 C5.98 0.66 7.96 1.32 10 2 C9.34 3.65 8.68 5.3 8 7 C7.67 6.34 7.34 5.68 7 5 C6.01 5.33 5.02 5.66 4 6 C1.31 4.56 1.31 4.56 -1 3 C-0.67 2.01 -0.34 1.02 0 0 Z " fill="#74747A" transform="translate(186,143)"/><path d="M0 0 C2.44 0.75 2.44 0.75 5 2 C5.62 3.94 5.62 3.94 6 6 C6.98 7.02 7.98 8.02 9 9 C9.33 9.99 9.66 10.98 10 12 C7.35 11.62 6.19 11.2 4.3 9.26 C3.79 8.55 3.28 7.85 2.75 7.12 C1.97 6.08 1.97 6.08 1.17 5.01 C0 3 0 3 0 0 Z " fill="#EBEAF3" transform="translate(394,133)"/><path d="M0 0 C0.66 0 1.32 0 2 0 C2 0.66 2 1.32 2 2 C2.66 2.33 3.32 2.66 4 3 C4.31 3.66 4.62 4.32 4.94 5 C5.89 7.35 5.89 7.35 9 8 C8.34 8.66 7.68 9.32 7 10 C6.01 10 5.02 10 4 10 C3.88 9.07 3.88 9.07 3.75 8.12 C3.19 5.82 3.19 5.82 0.94 4.75 C0.3 4.5 -0.34 4.25 -1 4 C-0.67 2.68 -0.34 1.36 0 0 Z " fill="#B6CDB9" transform="translate(386,118)"/><path d="M0 0 C1.98 0 3.96 0 6 0 C7.33 2.67 6.67 4.17 6 7 C4 7 2 7 0 7 C0 4.69 0 2.38 0 0 Z " fill="#F4D6F9" transform="translate(221,37)"/><path d="M0 0 C0.78 0.16 1.57 0.33 2.38 0.5 C5.1 1.24 5.1 1.24 8 0 C8.33 1.32 8.66 2.64 9 4 C6 5.5 3.34 5.06 0 5 C-0.56 3.06 -0.56 3.06 -1 1 C-0.67 0.67 -0.34 0.34 0 0 Z " fill="#A7A7AE" transform="translate(410,224)"/><path d="M0 0 C0.99 0.33 1.98 0.66 3 1 C3 1.66 3 2.32 3 3 C3.99 3.33 4.98 3.66 6 4 C7.06 5.94 7.06 5.94 8 8 C8.66 8.66 9.32 9.32 10 10 C9.01 10.33 8.02 10.66 7 11 C4.06 8.16 1.5 5.22 -1 2 C-0.67 1.34 -0.34 0.68 0 0 Z " fill="#B9C6BF" transform="translate(437,181)"/><path d="M0 0 C2.94 0.94 2.94 0.94 4.31 3 C4.52 3.64 4.72 4.28 4.94 4.94 C2.63 4.61 0.32 4.28 -2.06 3.94 C-2.39 5.26 -2.72 6.58 -3.06 7.94 C-3.06 6.62 -3.06 5.3 -3.06 3.94 C-4.05 3.61 -5.04 3.28 -6.06 2.94 C-4.11 0.23 -3.43 -0.07 0 0 Z " fill="#1C1D27" transform="translate(230.0625,104.0625)"/><path d="M0 0 C2.64 0 5.28 0 8 0 C8.56 1.94 8.56 1.94 9 4 C8 5 8 5 6.15 5.1 C5.06 5.08 5.06 5.08 3.94 5.06 C3.2 5.05 2.47 5.04 1.71 5.04 C1.15 5.02 0.58 5.01 0 5 C0 3.35 0 1.7 0 0 Z " fill="#BEBEC4" transform="translate(224,108)"/><path d="M0 0 C1.65 0 3.3 0 5 0 C5.33 1.32 5.66 2.64 6 4 C5.01 4.5 5.01 4.5 4 5 C4.66 5.33 5.32 5.66 6 6 C6 6.66 6 7.32 6 8 C4.02 8 2.04 8 0 8 C0.88 4.12 0.88 4.12 2 3 C1.34 2.67 0.68 2.34 0 2 C0 1.34 0 0.68 0 0 Z " fill="#CDDAD0" transform="translate(288,63)"/><path d="M0 0 C2.31 0 4.62 0 7 0 C6.81 0.78 6.63 1.57 6.44 2.38 C5.74 4.97 5.74 4.97 7 7 C5.68 6.67 4.36 6.34 3 6 C3.33 4.68 3.66 3.36 4 2 C3.34 1.67 2.68 1.34 2 1 C2 2.98 2 4.96 2 7 C1.34 7 0.68 7 0 7 C0 4.69 0 2.38 0 0 Z " fill="#EAF4EC" transform="translate(305,46)"/><path d="M0 0 C1.98 0 3.96 0 6 0 C6.33 0.99 6.66 1.98 7 3 C6.67 3.66 6.34 4.32 6 5 C4.68 5 3.36 5 2 5 C2 5.66 2 6.32 2 7 C1.34 7 0.68 7 0 7 C0 4.69 0 2.38 0 0 Z " fill="#F1EEFA" transform="translate(217,28)"/><path d="M0 0 C1.98 0 3.96 0 6 0 C6 2.31 6 4.62 6 7 C4.02 7 2.04 7 0 7 C0 4.67 0 2.33 0 0 Z " fill="#D2D9D4" transform="translate(313,46)"/><path d="M0 0 C0.99 0.33 1.98 0.66 3 1 C4.19 4.06 4.19 4.06 5 7 C2.36 7 -0.28 7 -3 7 C-1.12 1.12 -1.12 1.12 0 0 Z " fill="#F4DEFC" transform="translate(231,37)"/><path d="M0 0 C2.97 0 5.94 0 9 0 C8.67 1.65 8.34 3.3 8 5 C6.35 4.67 4.7 4.34 3 4 C3 3.01 3 2.02 3 1 C2.34 1 1.68 1 1 1 C0.67 1.99 0.34 2.98 0 4 C0 2.68 0 1.36 0 0 Z " fill="#BDBDC3" transform="translate(264,185)"/><path d="M0 0 C0.66 0 1.32 0 2 0 C2 0.99 2 1.98 2 3 C2.66 3 3.32 3 4 3 C3.67 4.65 3.34 6.3 3 8 C1.35 8 -0.3 8 -2 8 C-2 7.34 -2 6.68 -2 6 C-2.66 5.34 -3.32 4.68 -4 4 C-2.68 4 -1.36 4 0 4 C0 2.68 0 1.36 0 0 Z " fill="#7D7E84" transform="translate(420,139)"/><path d="M0 0 C1.98 0 3.96 0 6 0 C5.67 1.65 5.34 3.3 5 5 C4.01 5 3.02 5 2 5 C2 5.66 2 6.32 2 7 C1.34 7 0.68 7 0 7 C0 4.69 0 2.38 0 0 Z " fill="#F7F5FE" transform="translate(237,37)"/><path d="M0 0 C0.23 0.49 0.47 0.98 0.71 1.49 C1.91 3.23 1.91 3.23 4.16 3.29 C4.98 3.26 5.79 3.22 6.62 3.19 C7.44 3.16 8.26 3.13 9.1 3.11 C9.73 3.07 10.35 3.04 11 3 C11 3.66 11 4.32 11 5 C10.48 4.94 9.96 4.88 9.43 4.82 C5.17 4.49 5.17 4.49 1.36 6.11 C-0.17 7.63 -0.17 7.63 -2 10 C-1.12 3.38 -1.12 3.38 0 0 Z " fill="#C6C4CD" transform="translate(360,174)"/><path d="M0 0 C2.97 0 5.94 0 9 0 C8.34 1.65 7.68 3.3 7 5 C6.67 4.34 6.34 3.68 6 3 C6.33 2.34 6.66 1.68 7 1 C6.34 1 5.68 1 5 1 C4.67 2.32 4.34 3.64 4 5 C2.68 4.67 1.36 4.34 0 4 C0 2.68 0 1.36 0 0 Z " fill="#A9A9AF" transform="translate(341,151)"/><path d="M0 0 C2.64 0 5.28 0 8 0 C7.67 1.65 7.34 3.3 7 5 C4.69 5 2.38 5 0 5 C0 3.35 0 1.7 0 0 Z " fill="#A8A8AF" transform="translate(235,145)"/><path d="M0 0 C2.67 0 5.33 0 8 0 C8 1.65 8 3.3 8 5 C5.36 5 2.72 5 0 5 C0 3.35 0 1.7 0 0 Z " fill="#C8C8CE" transform="translate(347,93)"/><path d="M0 0 C5.75 0.75 5.75 0.75 8 3 C7.62 5.12 7.62 5.12 7 7 C6.01 6.67 5.02 6.34 4 6 C4.33 4.68 4.66 3.36 5 2 C4.34 2 3.68 2 3 2 C3 2.99 3 3.98 3 5 C1.68 4.67 0.36 4.34 -1 4 C-0.67 2.68 -0.34 1.36 0 0 Z " fill="#6E6E75" transform="translate(168,136)"/><path d="M0 0 C-10.18 4.77 -10.18 4.77 -14 5 C-14.66 4.34 -15.32 3.68 -16 3 C-15.3 2.8 -14.6 2.59 -13.88 2.38 C-12.97 2.11 -12.06 1.84 -11.12 1.56 C-10.22 1.3 -9.32 1.03 -8.38 0.75 C-3.08 -0.92 -3.08 -0.92 0 0 Z " fill="#7F7F85" transform="translate(256,155)"/><path d="M0 0 C3.91 1.65 6.84 4.24 10 7 C9.67 7.66 9.34 8.32 9 9 C6.52 8.01 6.52 8.01 4 7 C4 6.34 4 5.68 4 5 C3.01 4.67 2.02 4.34 1 4 C0.31 1.94 0.31 1.94 0 0 Z " fill="#B2CFB5" transform="translate(402,140)"/><path d="M0 0 C0.66 0.33 1.32 0.66 2 1 C0.8 4.6 -0.19 5.06 -3.31 7.06 C-4.09 7.57 -4.87 8.08 -5.68 8.6 C-7.74 9.85 -9.82 10.96 -12 12 C-8.59 7.31 -4.43 3.73 0 0 Z " fill="#B8B8BE" transform="translate(297,128)"/><path d="M0 0 C2.31 0 4.62 0 7 0 C6.67 1.65 6.34 3.3 6 5 C4.02 5 2.04 5 0 5 C0 3.35 0 1.7 0 0 Z " fill="#95959C" transform="translate(318,102)"/><path d="M0 0 C1.89 2.56 2.98 5.24 4.12 8.19 C4.48 9.09 4.83 9.99 5.2 10.92 C5.46 11.61 5.73 12.29 6 13 C5.34 13.66 4.68 14.32 4 15 C3.13 13.26 2.28 11.51 1.44 9.75 C0.72 8.29 0.72 8.29 -0 6.8 C-1.04 3.9 -1.11 2.8 0 0 Z " fill="#0490B8" transform="translate(96,75)"/><path d="M0 0 C-0.66 0.66 -1.32 1.32 -2 2 C-2.99 1.67 -3.98 1.34 -5 1 C-5 2.32 -5 3.64 -5 5 C-3.68 5.33 -2.36 5.66 -1 6 C-1 6.33 -1 6.66 -1 7 C-2.67 7.04 -4.33 7.04 -6 7 C-7 6 -7 6 -7.06 2.94 C-7.04 1.97 -7.02 1 -7 0 C-4.33 -1.33 -2.83 -0.67 0 0 Z " fill="#D8F1D7" transform="translate(302,64)"/><path d="M0 0 C2.31 0 4.62 0 7 0 C7 1.65 7 3.3 7 5 C4.69 4.67 2.38 4.34 0 4 C0 2.68 0 1.36 0 0 Z " fill="#B5BDB9" transform="translate(297,65)"/><path d="M0 0 C0.66 0 1.32 0 2 0 C2 0.99 2 1.98 2 3 C2.66 3 3.32 3 4 3 C3.67 2.01 3.34 1.02 3 0 C4.32 0.33 5.64 0.66 7 1 C6.67 2.32 6.34 3.64 6 5 C3.69 5 1.38 5 -1 5 C-0.67 3.35 -0.34 1.7 0 0 Z " fill="#95969B" transform="translate(85,39)"/><path d="M0 0 C1.98 0 3.96 0 6 0 C6 1.32 6 2.64 6 4 C4.68 4 3.36 4 2 4 C2 4.66 2 5.32 2 6 C3.32 6.33 4.64 6.66 6 7 C4.02 7 2.04 7 0 7 C0 4.69 0 2.38 0 0 Z " fill="#F3EFFD" transform="translate(232,28)"/><path d="M0 0 C0.99 0 1.98 0 3 0 C2.67 1.32 2.34 2.64 2 4 C2.99 3.67 3.98 3.34 5 3 C5.33 3.99 5.66 4.98 6 6 C4.68 6.99 3.36 7.98 2 9 C1.67 7.68 1.34 6.36 1 5 C0.34 5 -0.32 5 -1 5 C-0.67 3.35 -0.34 1.7 0 0 Z " fill="#B70608" transform="translate(437,250)"/><path d="M0 0 C0.58 0.68 1.16 1.36 1.75 2.06 C2.86 3.02 2.86 3.02 4 4 C6.22 3.86 6.22 3.86 8 3 C8 3.99 8 4.98 8 6 C7.34 6 6.68 6 6 6 C5.67 6.66 5.34 7.32 5 8 C3.02 6.68 1.04 5.36 -1 4 C-0.67 2.68 -0.34 1.36 0 0 Z " fill="#077596" transform="translate(84,99)"/><path d="M0 0 C1.98 0 3.96 0 6 0 C6 0.99 6 1.98 6 3 C4.68 3.33 3.36 3.66 2 4 C2 4.66 2 5.32 2 6 C3.32 6.33 4.64 6.66 6 7 C4.02 7 2.04 7 0 7 C0 4.69 0 2.38 0 0 Z " fill="#F4F2FC" transform="translate(225,28)"/><path d="M0 0 C1.98 0 3.96 0 6 0 C6.09 2.74 5.89 4.33 5 7 C3.35 7 1.7 7 0 7 C0.99 6.34 1.98 5.68 3 5 C2.01 4.67 1.02 4.34 0 4 C0 2.68 0 1.36 0 0 Z " fill="#EFEBF9" transform="translate(210,28)"/><path d="M0 0 C0.66 0 1.32 0 2 0 C2.1 0.64 2.21 1.28 2.31 1.94 C2.54 2.62 2.77 3.3 3 4 C3.99 4.33 4.98 4.66 6 5 C5.34 5.66 4.68 6.32 4 7 C3.01 6.67 2.02 6.34 1 6 C1 7.32 1 8.64 1 10 C0.34 10 -0.32 10 -1 10 C-1.03 8.52 -1.05 7.04 -1.06 5.56 C-1.07 4.74 -1.09 3.92 -1.1 3.07 C-1 1 -1 1 0 0 Z " fill="#46464E" transform="translate(394,109)"/><path d="M0 0 C3.34 0.56 6.03 1.35 9 3 C9 4.98 9 6.96 9 9 C8.57 8.36 8.13 7.72 7.69 7.06 C6.09 4.73 6.09 4.73 3 4 C3 3.34 3 2.68 3 2 C2.01 2 1.02 2 0 2 C0 1.34 0 0.68 0 0 Z " fill="#2FC020" transform="translate(301,59)"/><path d="M0 0 C3.74 2.66 5.65 4.58 7 9 C4.29 8.63 3.18 8.19 1.25 6.19 C-0.09 3.85 -0.28 2.64 0 0 Z " fill="#E7E6F4" transform="translate(448,198)"/><path d="M0 0 C0.87 0.28 0.87 0.28 1.75 0.56 C4.21 1.04 5.64 0.76 8 0 C7.67 1.65 7.34 3.3 7 5 C4.69 5 2.38 5 0 5 C0 3.35 0 1.7 0 0 Z " fill="#B8B9BE" transform="translate(140,104)"/><path d="M0 0 C0.99 0.33 1.98 0.66 3 1 C3 2.65 3 4.3 3 6 C3.66 6 4.32 6 5 6 C5 6.66 5 7.32 5 8 C3.02 8 1.04 8 -1 8 C-1 7.34 -1 6.68 -1 6 C-0.34 6 0.32 6 1 6 C1 4.68 1 3.36 1 2 C0.34 1.67 -0.32 1.34 -1 1 C-0.67 0.67 -0.34 0.34 0 0 Z " fill="#D2E4D3" transform="translate(323,63)"/><path d="M0 0 C3.74 1.25 4.19 2.63 6 6 C3.69 6 1.38 6 -1 6 C-0.67 4.02 -0.34 2.04 0 0 Z M-3 6 C-1 7 -1 7 -1 7 Z " fill="#E2E0F0" transform="translate(440,214)"/><path d="M0 0 C0.66 0 1.32 0 2 0 C2.33 0.66 2.66 1.32 3 2 C4.32 1.34 5.64 0.68 7 0 C7.33 1.32 7.66 2.64 8 4 C5.24 4.6 2.84 5 0 5 C0 3.35 0 1.7 0 0 Z " fill="#C1C1C7" transform="translate(34,60)"/><path d="M0 0 C2.48 0.49 2.48 0.49 5 1 C5 2.65 5 4.3 5 6 C3.35 6.33 1.7 6.66 0 7 C0 4.69 0 2.38 0 0 Z " fill="#DDEEDE" transform="translate(321,55)"/><path d="M0 0 C2.12 0.94 2.12 0.94 4 2 C3.01 2 2.02 2 1 2 C1.33 2.66 1.66 3.32 2 4 C4.53 4.66 4.53 4.66 7 5 C7 5.33 7 5.66 7 6 C3.37 6 -0.26 6 -4 6 C-3.01 5.01 -2.02 4.02 -1 3 C-1.33 2.34 -1.66 1.68 -2 1 C-1.34 0.67 -0.68 0.34 0 0 Z " fill="#3DA535" transform="translate(312,49)"/><path d="M0 0 C0.33 0.99 0.66 1.98 1 3 C2.65 3 4.3 3 6 3 C6 4.32 6 5.64 6 7 C4.02 7 2.04 7 0 7 C0 4.69 0 2.38 0 0 Z " fill="#D4EBD4" transform="translate(283,55)"/><path d="M0 0 C0 0.99 0 1.98 0 3 C-0.62 3.08 -1.24 3.16 -1.88 3.25 C-4.18 3.81 -4.18 3.81 -5.25 6.06 C-5.5 6.7 -5.75 7.34 -6 8 C-6.33 5.69 -6.66 3.38 -7 1 C-4.54 -0.23 -2.72 -0.07 0 0 Z " fill="#A8ADAD" transform="translate(304,54)"/><path d="M0 0 C4 4.62 4 4.62 4 8 C1 8 1 8 -0.25 6.81 C-1.3 4.29 -0.7 2.58 0 0 Z " fill="#B8BEBF" transform="translate(480,231)"/><path d="M0 0 C0.99 0.33 1.98 0.66 3 1 C2.43 3.87 2.14 4.86 0 7 C-0.66 5.35 -1.32 3.7 -2 2 C-1.34 1.34 -0.68 0.68 0 0 Z " fill="#7F0B0F" transform="translate(453,274)"/><path d="M0 0 C1.32 0.33 2.64 0.66 4 1 C3.34 2.65 2.68 4.3 2 6 C0.68 5.67 -0.64 5.34 -2 5 C-1.34 3.35 -0.68 1.7 0 0 Z " fill="#087496" transform="translate(93,104)"/><path d="M0 0 C1.32 0 2.64 0 4 0 C4 1.65 4 3.3 4 5 C2.68 5 1.36 5 0 5 C0 3.35 0 1.7 0 0 Z " fill="#A09FA8" transform="translate(362,182)"/><path d="M0 0 C1.89 2.39 3.02 4.07 4 7 C2.68 7 1.36 7 0 7 C-0.66 5.35 -1.32 3.7 -2 2 C-1.34 1.34 -0.68 0.68 0 0 Z " fill="#B0C6B3" transform="translate(428,167)"/><path d="M0 0 C0.66 0.66 1.32 1.32 2 2 C1.56 5.17 0.23 8.06 -1 11 C-1.66 10.34 -2.32 9.68 -3 9 C-2.01 6.03 -1.02 3.06 0 0 Z " fill="#0490B9" transform="translate(223,82)"/><path d="M0 0 C0.99 0 1.98 0 3 0 C3 1.65 3 3.3 3 5 C1.68 5 0.36 5 -1 5 C-0.67 3.35 -0.34 1.7 0 0 Z " fill="#A9ABB1" transform="translate(368,182)"/><path d="M0 0 C0.33 0 0.66 0 1 0 C1.22 1.44 1.43 2.87 1.62 4.31 C1.74 5.11 1.86 5.91 1.98 6.74 C2 9.24 1.59 10.12 0 12 C-0.2 10.56 -0.38 9.13 -0.56 7.69 C-0.67 6.89 -0.77 6.09 -0.88 5.26 C-1 3 -1 3 0 0 Z " fill="#0586AD" transform="translate(220,137)"/><path d="M0 0 C0.99 0 1.98 0 3 0 C3 1.65 3 3.3 3 5 C1.35 4.67 -0.3 4.34 -2 4 C-1 1 -1 1 0 0 Z " fill="#BEBEC4" transform="translate(472,291)"/><path d="M0 0 C2.48 0.5 2.48 0.5 5 1 C5.33 1.99 5.66 2.98 6 4 C3 5 3 5 1.31 4.25 C0.88 3.84 0.45 3.43 0 3 C0 2.01 0 1.02 0 0 Z " fill="#C3D4C8" transform="translate(454,203)"/><path d="M0 0 C0.33 0.66 0.66 1.32 1 2 C3.02 3.13 3.02 3.13 5 4 C4.67 4.66 4.34 5.32 4 6 C3.01 6 2.02 6 1 6 C1 5.34 1 4.68 1 4 C0.34 4 -0.32 4 -1 4 C-0.67 2.68 -0.34 1.36 0 0 Z " fill="#B2BDB6" transform="translate(452,198)"/><path d="M0 0 C1.32 0 2.64 0 4 0 C2.25 4.88 2.25 4.88 0 6 C-1 3 -1 3 0 0 Z " fill="#CECDD6" transform="translate(399,117)"/><path d="M0 0 C0.33 0 0.66 0 1 0 C1.66 2.97 2.32 5.94 3 9 C2.01 9 1.02 9 0 9 C-0.84 5.62 -1.11 3.33 0 0 Z " fill="#0586AC" transform="translate(226,168)"/><path d="M0 0 C2.51 1.26 2.87 2.5 4 5 C3.01 5.33 2.02 5.66 1 6 C0.01 4.68 -0.98 3.36 -2 2 C-1.34 1.34 -0.68 0.68 0 0 Z " fill="#B3C2B6" transform="translate(423,163)"/><path d="M0 0 C0.66 0 1.32 0 2 0 C2 1.98 2 3.96 2 6 C0.68 6.33 -0.64 6.66 -2 7 C-2 6.34 -2 5.68 -2 5 C-1.34 5 -0.68 5 0 5 C0 3.35 0 1.7 0 0 Z " fill="#D9ECDA" transform="translate(339,55)"/><path d="M0 0 C2.64 1.98 5.28 3.96 8 6 C7.01 6.33 6.02 6.66 5 7 C1.09 3.29 1.09 3.29 0 2 C0 1.34 0 0.68 0 0 Z " fill="#EB0101" transform="translate(355,191)"/><path d="M0 0 C0 3 0 3 -1.31 4.39 C-1.87 4.82 -2.43 5.25 -3 5.69 C-3.84 6.34 -3.84 6.34 -4.69 7.01 C-5.12 7.34 -5.55 7.66 -6 8 C-6 5 -6 5 -4.69 3.61 C-4.13 3.18 -3.57 2.75 -3 2.31 C-2.44 1.88 -1.89 1.44 -1.31 0.99 C-0.88 0.66 -0.45 0.34 0 0 Z " fill="#BBBCC1" transform="translate(282,142)"/><path d="M0 0 C1.65 1.65 3.3 3.3 5 5 C4.01 5.66 3.02 6.32 2 7 C0.44 5.75 0.44 5.75 -1 4 C-0.69 1.81 -0.69 1.81 0 0 Z " fill="#E3E4E9" transform="translate(384,119)"/><path d="M0 0 C2.47 0.5 2.47 0.5 5 1 C5 1.99 5 2.98 5 4 C3.68 4 2.36 4 1 4 C0.67 2.68 0.34 1.36 0 0 Z " fill="#8A8A90" transform="translate(228,108)"/><path d="M0 0 C2 2 2 2 2.12 4.62 C2.08 5.41 2.04 6.19 2 7 C1.01 7 0.02 7 -1 7 C-2 4 -2 4 -1.06 1.81 C-0.54 0.92 -0.54 0.92 0 0 Z " fill="#45464E" transform="translate(476,289)"/><path d="M0 0 C-1.13 3.4 -1.97 4.22 -5 6 C-5.99 5.67 -6.98 5.34 -8 5 C-7.05 4.16 -6.09 3.33 -5.12 2.5 C-4.32 1.8 -4.32 1.8 -3.51 1.09 C-2 0 -2 0 0 0 Z " fill="#919197" transform="translate(295,122)"/><path d="M0 0 C2.31 0.66 4.62 1.32 7 2 C6.67 2.66 6.34 3.32 6 4 C3.36 3.34 0.72 2.68 -2 2 C-1.34 1.34 -0.68 0.68 0 0 Z " fill="#048EB7" transform="translate(125,121)"/><path d="M0 0 C0.66 0 1.32 0 2 0 C2 0.66 2 1.32 2 2 C2.66 2.33 3.32 2.66 4 3 C2.02 3.99 2.02 3.99 0 5 C-0.56 3.06 -0.56 3.06 -1 1 C-0.67 0.67 -0.34 0.34 0 0 Z " fill="#73C56D" transform="translate(386,118)"/><path d="M0 0 C1.98 0.5 1.98 0.5 4 1 C3.01 1.5 3.01 1.5 2 2 C2 2.99 2 3.98 2 5 C1.01 5 0.02 5 -1 5 C-0.67 3.35 -0.34 1.7 0 0 Z " fill="#0585AB" transform="translate(68,87)"/><path d="M0 0 C-0.66 0.66 -1.32 1.32 -2 2 C-2.99 1.67 -3.98 1.34 -5 1 C-5.33 1.66 -5.66 2.32 -6 3 C-6.33 2.01 -6.66 1.02 -7 0 C-4.33 -1.33 -2.83 -0.67 0 0 Z " fill="#D2E0D4" transform="translate(302,64)"/><path d="M0 0 C0.33 0 0.66 0 1 0 C1 2.31 1 4.62 1 7 C0.34 7 -0.32 7 -1 7 C-1.62 4.62 -1.62 4.62 -2 2 C-1.34 1.34 -0.68 0.68 0 0 Z " fill="#D2E4D4" transform="translate(333,55)"/><path d="M0 0 C0.66 0.33 1.32 0.66 2 1 C2 1.99 2 2.98 2 4 C0.35 4.66 -1.3 5.32 -3 6 C-2.43 3.13 -2.14 2.14 0 0 Z " fill="#2E3039" transform="translate(34,56)"/><path d="M0 0 C1.98 0 3.96 0 6 0 C5.34 1.32 4.68 2.64 4 4 C2.68 3.34 1.36 2.68 0 2 C0 1.34 0 0.68 0 0 Z " fill="#F0ECFB" transform="translate(217,28)"/><path d="M0 0 C0.66 0.99 1.32 1.98 2 3 C0.68 3.99 -0.64 4.98 -2 6 C-2.33 4.68 -2.66 3.36 -3 2 C-2.01 1.34 -1.02 0.68 0 0 Z " fill="#C90406" transform="translate(441,253)"/><path d="M0 0 C1.32 0.33 2.64 0.66 4 1 C3.67 2.32 3.34 3.64 3 5 C2.01 4.67 1.02 4.34 0 4 C0 2.68 0 1.36 0 0 Z " fill="#C0C1C6" transform="translate(424,250)"/><path d="M0 0 C0 1.32 0 2.64 0 4 C-1.32 4 -2.64 4 -4 4 C-4 3.01 -4 2.02 -4 1 C-2 0 -2 0 0 0 Z " fill="#898990" transform="translate(387,213)"/><path d="M0 0 C0.66 0.33 1.32 0.66 2 1 C2 2.32 2 3.64 2 5 C1.01 4.67 0.02 4.34 -1 4 C-0.67 2.68 -0.34 1.36 0 0 Z M-4 5 C0 6 0 6 0 6 Z " fill="#EBE7F5" transform="translate(352,198)"/><path d="M0 0 C1.32 0.66 2.64 1.32 4 2 C3.67 2.99 3.34 3.98 3 5 C2.01 4.67 1.02 4.34 0 4 C-0.33 3.01 -0.66 2.02 -1 1 C-0.67 0.67 -0.34 0.34 0 0 Z " fill="#A8C5A9" transform="translate(412,151)"/><path d="M0 0 C0.99 0.33 1.98 0.66 3 1 C1.19 2.56 1.19 2.56 -1 4 C-1.99 3.67 -2.98 3.34 -4 3 C-2.19 1.44 -2.19 1.44 0 0 Z " fill="#75757B" transform="translate(266,146)"/><path d="M0 0 C0 0.66 0 1.32 0 2 C-2.31 2 -4.62 2 -7 2 C-7 1.34 -7 0.68 -7 0 C-2.25 -1.12 -2.25 -1.12 0 0 Z " fill="#D8D5E2" transform="translate(402,115)"/><path d="M0 0 C1.32 0 2.64 0 4 0 C3.67 1.32 3.34 2.64 3 4 C2.01 3.67 1.02 3.34 0 3 C0 2.01 0 1.02 0 0 Z " fill="#A0A0A6" transform="translate(351,93)"/><path d="M0 0 C0.66 0.99 1.32 1.98 2 3 C0.68 4.65 -0.64 6.3 -2 8 C-2.23 4.75 -1.61 2.82 0 0 Z " fill="#048EB6" transform="translate(213,82)"/><path d="M0 0 C0.66 0.33 1.32 0.66 2 1 C2 1.99 2 2.98 2 4 C0.35 4.33 -1.3 4.66 -3 5 C-1.12 1.12 -1.12 1.12 0 0 Z " fill="#3A3B44" transform="translate(410,220)"/><path d="M0 0 C2.48 0.99 2.48 0.99 5 2 C4.01 2.99 3.02 3.98 2 5 C1.34 4.34 0.68 3.68 0 3 C0 2.01 0 1.02 0 0 Z " fill="#F3F2FC" transform="translate(394,133)"/><path d="M0 0 C0.33 0.99 0.66 1.98 1 3 C-0.32 4.32 -1.64 5.64 -3 7 C-2.43 4.24 -1.7 2.26 0 0 Z " fill="#029CC7" transform="translate(201,102)"/><path d="M0 0 C0.99 0.99 1.98 1.98 3 3 C2.67 3.66 2.34 4.32 2 5 C1.01 4.67 0.02 4.34 -1 4 C-0.67 2.68 -0.34 1.36 0 0 Z " fill="#0D556E" transform="translate(84,99)"/><path d="M0 0 C1.98 0 3.96 0 6 0 C6.33 1.65 6.66 3.3 7 5 C6.59 4.55 6.18 4.09 5.75 3.62 C3.94 1.94 2.25 1.01 0 0 Z " fill="#029FCB" transform="translate(218,79)"/><path d="M0 0 C0.99 0.33 1.98 0.66 3 1 C2.67 2.32 2.34 3.64 2 5 C1.34 5 0.68 5 0 5 C0 3.35 0 1.7 0 0 Z " fill="#33AB29" transform="translate(299,47)"/><path d="M0 0 C1.32 0.33 2.64 0.66 4 1 C4 1.99 4 2.98 4 4 C2.68 3.67 1.36 3.34 0 3 C0 2.01 0 1.02 0 0 Z " fill="#BABBBF" transform="translate(88,39)"/><path d="M0 0 C1.32 0.33 2.64 0.66 4 1 C3.67 1.99 3.34 2.98 3 4 C1.35 4 -0.3 4 -2 4 C-1.01 3.34 -0.02 2.68 1 2 C0.67 1.34 0.34 0.68 0 0 Z " fill="#F7F5FE" transform="translate(212,31)"/><path d="M0 0 C1.32 0.66 2.64 1.32 4 2 C3.67 2.66 3.34 3.32 3 4 C2.01 3.67 1.02 3.34 0 3 C0 2.01 0 1.02 0 0 Z " fill="#BACFBF" transform="translate(469,221)"/><path d="M0 0 C0.99 0.33 1.98 0.66 3 1 C2.67 2.32 2.34 3.64 2 5 C1.01 4.67 0.02 4.34 -1 4 C-0.67 2.68 -0.34 1.36 0 0 Z " fill="#818187" transform="translate(173,138)"/><path d="M0 0 C0.99 0 1.98 0 3 0 C3 1.32 3 2.64 3 4 C2.01 4 1.02 4 0 4 C0 2.68 0 1.36 0 0 Z " fill="#13C001" transform="translate(297,65)"/><path d="M0 0 C0.99 0 1.98 0 3 0 C3 1.32 3 2.64 3 4 C2.01 4 1.02 4 0 4 C0 2.68 0 1.36 0 0 Z " fill="#1BBA0B" transform="translate(326,56)"/><path d="M0 0 C0.99 0 1.98 0 3 0 C3 1.32 3 2.64 3 4 C2.01 4 1.02 4 0 4 C0 2.68 0 1.36 0 0 Z " fill="#1BBA0B" transform="translate(277,56)"/><path d="M0 0 C0.99 0 1.98 0 3 0 C3 1.32 3 2.64 3 4 C2.01 4 1.02 4 0 4 C0 2.68 0 1.36 0 0 Z " fill="#FD0FFD" transform="translate(241,30)"/><path d="M0 0 C0.99 0.99 1.98 1.98 3 3 C2.67 3.66 2.34 4.32 2 5 C1.01 4.67 0.02 4.34 -1 4 C-0.67 2.68 -0.34 1.36 0 0 Z " fill="#B2C8B5" transform="translate(477,229)"/><path d="M0 0 C1.98 0.99 1.98 0.99 4 2 C3.67 2.66 3.34 3.32 3 4 C2.01 3.67 1.02 3.34 0 3 C0 2.01 0 1.02 0 0 Z " fill="#EBEAF9" transform="translate(456,209)"/><path d="M0 0 C0.66 0.66 1.32 1.32 2 2 C1.67 2.99 1.34 3.98 1 5 C0.01 4.67 -0.98 4.34 -2 4 C-2 3.01 -2 2.02 -2 1 C-1.34 0.67 -0.68 0.34 0 0 Z " fill="#4A4A51" transform="translate(176,138)"/><path d="M0 0 C1.65 0 3.3 0 5 0 C4.67 0.99 4.34 1.98 4 3 C2.68 2.34 1.36 1.68 0 1 C0 0.67 0 0.34 0 0 Z " fill="#FE06FE" transform="translate(226,36)"/><path d="M0 0 C1.98 0.49 1.98 0.49 4 1 C3.67 1.66 3.34 2.32 3 3 C1.68 2.67 0.36 2.34 -1 2 C-0.67 1.34 -0.34 0.68 0 0 Z " fill="#1B2A36" transform="translate(353,0)"/><path d="M0 0 C2.47 0.49 2.47 0.49 5 1 C3.02 1.99 3.02 1.99 1 3 C0.67 2.01 0.34 1.02 0 0 Z " fill="#303441" transform="translate(169,0)"/><path d="M0 0 C0.66 0 1.32 0 2 0 C2.33 1.32 2.66 2.64 3 4 C2.01 4.5 2.01 4.5 1 5 C0.67 3.35 0.34 1.7 0 0 Z " fill="#EAE7F8" transform="translate(439,188)"/><path d="M0 0 C0.66 0.33 1.32 0.66 2 1 C2 1.99 2 2.98 2 4 C1.01 4 0.02 4 -1 4 C-0.67 2.68 -0.34 1.36 0 0 Z " fill="#32323B" transform="translate(217,186)"/><path d="M0 0 C0.66 0.99 1.32 1.98 2 3 C0.68 3 -0.64 3 -2 3 C-2 2.34 -2 1.68 -2 1 C-1.34 0.67 -0.68 0.34 0 0 Z " fill="#A4C2A6" transform="translate(417,155)"/><path d="M0 0 C2.48 0.5 2.48 0.5 5 1 C4.67 1.66 4.34 2.32 4 3 C2.68 2.67 1.36 2.34 0 2 C0 1.34 0 0.68 0 0 Z " fill="#BACABF" transform="translate(407,146)"/><path d="M0 0 C0.99 0.33 1.98 0.66 3 1 C2.67 1.99 2.34 2.98 2 4 C1.01 3.67 0.02 3.34 -1 3 C-0.67 2.01 -0.34 1.02 0 0 Z " fill="#58585F" transform="translate(193,144)"/><path d="M0 0 C1.98 0.5 1.98 0.5 4 1 C4 1.66 4 2.32 4 3 C2.35 2.67 0.7 2.34 -1 2 C-0.67 1.34 -0.34 0.68 0 0 Z " fill="#C1D9C4" transform="translate(396,132)"/><path d="M0 0 C0.66 0.33 1.32 0.66 2 1 C2 1.99 2 2.98 2 4 C1.01 3.67 0.02 3.34 -1 3 C-0.67 2.01 -0.34 1.02 0 0 Z " fill="#B5CEB8" transform="translate(394,128)"/><path d="M0 0 C1.32 0.33 2.64 0.66 4 1 C4 1.99 4 2.98 4 4 C2.68 2.68 1.36 1.36 0 0 Z " fill="#85858C" transform="translate(363,113)"/><path d="M0 0 C1.32 0.99 2.64 1.98 4 3 C2.52 3.99 2.52 3.99 1 5 C0.67 3.35 0.34 1.7 0 0 Z " fill="#0396C0" transform="translate(86,99)"/><path d="M0 0 C1.65 0 3.3 0 5 0 C5 0.99 5 1.98 5 3 C2.52 2.01 2.52 2.01 0 1 C0 0.67 0 0.34 0 0 Z " fill="#13C001" transform="translate(299,62)"/><path d="M0 0 C0.99 0.33 1.98 0.66 3 1 C3 1.99 3 2.98 3 4 C2.01 4 1.02 4 0 4 C0 2.68 0 1.36 0 0 Z " fill="#F481FA" transform="translate(239,38)"/><path d="M0 0 C0.66 0 1.32 0 2 0 C2.33 1.32 2.66 2.64 3 4 C2.01 4.5 2.01 4.5 1 5 C0.34 4.34 -0.32 3.68 -1 3 C-0.34 3 0.32 3 1 3 C0.67 2.01 0.34 1.02 0 0 Z " fill="#E6E5EE" transform="translate(416,224)"/><path d="M0 0 C1.32 0.66 2.64 1.32 4 2 C3.01 2.33 2.02 2.66 1 3 C0.34 2.34 -0.32 1.68 -1 1 C-0.67 0.67 -0.34 0.34 0 0 Z " fill="#B0C3B4" transform="translate(460,210)"/><path d="M0 0 C1.32 0.66 2.64 1.32 4 2 C3.01 2.33 2.02 2.66 1 3 C0.34 2.34 -0.32 1.68 -1 1 C-0.67 0.67 -0.34 0.34 0 0 Z " fill="#B0C3B4" transform="translate(434,178)"/><path d="M0 0 C1.32 0.66 2.64 1.32 4 2 C3.01 2.33 2.02 2.66 1 3 C0.34 2.34 -0.32 1.68 -1 1 C-0.67 0.67 -0.34 0.34 0 0 Z " fill="#B4C6B8" transform="translate(431,175)"/><path d="M0 0 C0.66 1.32 1.32 2.64 2 4 C1.34 4.66 0.68 5.32 0 6 C-1.12 2.25 -1.12 2.25 0 0 Z " fill="#067FA4" transform="translate(96,75)"/><path d="M0 0 C2.12 0.94 2.12 0.94 4 2 C2.12 2.62 2.12 2.62 0 3 C-0.66 2.34 -1.32 1.68 -2 1 C-1.34 0.67 -0.68 0.34 0 0 Z " fill="#067FA4" transform="translate(56,51)"/><path d="M0 0 C0.99 0.99 1.98 1.98 3 3 C2.01 3.33 1.02 3.66 0 4 C-0.33 3.34 -0.66 2.68 -1 2 C-0.67 1.34 -0.34 0.68 0 0 Z " fill="#E5E3EC" transform="translate(396,110)"/><path d="M0 0 C0.66 0 1.32 0 2 0 C1.67 1.32 1.34 2.64 1 4 C0.34 3.01 -0.32 2.02 -1 1 C-0.67 0.67 -0.34 0.34 0 0 Z " fill="#44464E" transform="translate(394,109)"/><path d="M0 0 C0.66 0 1.32 0 2 0 C1.67 1.32 1.34 2.64 1 4 C0.34 3.01 -0.32 2.02 -1 1 C-0.67 0.67 -0.34 0.34 0 0 Z " fill="#C3CFC4" transform="translate(310,46)"/><path d="M0 0 C0.99 0.33 1.98 0.66 3 1 C2.67 1.66 2.34 2.32 2 3 C1.34 3 0.68 3 0 3 C0 2.01 0 1.02 0 0 Z " fill="#30141A" transform="translate(447,267)"/><path d="M0 0 C0.66 0.66 1.32 1.32 2 2 C0.68 2.33 -0.64 2.66 -2 3 C-1.34 2.01 -0.68 1.02 0 0 Z " fill="#13C001" transform="translate(483,236)"/><path d="M0 0 C0.99 0.99 1.98 1.98 3 3 C2.01 3 1.02 3 0 3 C0 2.01 0 1.02 0 0 Z " fill="#E4E3F2" transform="translate(459,213)"/><path d="M0 0 C0.99 0.33 1.98 0.66 3 1 C2.34 1.66 1.68 2.32 1 3 C0.34 2.34 -0.32 1.68 -1 1 C-0.67 0.67 -0.34 0.34 0 0 Z " fill="#A6B2AA" transform="translate(437,181)"/><path d="M0 0 C0.66 0 1.32 0 2 0 C1.34 1.32 0.68 2.64 0 4 C-0.33 3.01 -0.66 2.02 -1 1 C-0.67 0.67 -0.34 0.34 0 0 Z " fill="#E2DFED" transform="translate(400,140)"/><path d="M0 0 C0.99 0.33 1.98 0.66 3 1 C2.34 1.66 1.68 2.32 1 3 C0.67 2.01 0.34 1.02 0 0 Z " fill="#B7BFBC" transform="translate(463,213)"/><path d="M0 0 C0.66 0.66 1.32 1.32 2 2 C1.01 2.5 1.01 2.5 0 3 C-0.66 2.34 -1.32 1.68 -2 1 C-1.34 0.67 -0.68 0.34 0 0 Z " fill="#B8C0BC" transform="translate(439,183)"/><path d="M0 0 C0.66 0 1.32 0 2 0 C1.67 0.99 1.34 1.98 1 3 C0.34 2.34 -0.32 1.68 -1 1 C-0.67 0.67 -0.34 0.34 0 0 Z " fill="#7C7C82" transform="translate(293,122)"/><path d="M0 0 C0.66 0 1.32 0 2 0 C1.67 0.99 1.34 1.98 1 3 C0.34 2.34 -0.32 1.68 -1 1 C-0.67 0.67 -0.34 0.34 0 0 Z " fill="#32343D" transform="translate(401,117)"/><path d="M0 0 C0.99 0.33 1.98 0.66 3 1 C2.34 1.66 1.68 2.32 1 3 C0.67 2.01 0.34 1.02 0 0 Z " fill="#30313A" transform="translate(397,113)"/><path d="M0 0 C0.66 0 1.32 0 2 0 C1.67 0.99 1.34 1.98 1 3 C0.34 2.34 -0.32 1.68 -1 1 C-0.67 0.67 -0.34 0.34 0 0 Z " fill="#7C7C82" transform="translate(330,109)"/><path d="M0 0 C0.66 0.66 1.32 1.32 2 2 C1.01 2 0.02 2 -1 2 C-0.67 1.34 -0.34 0.68 0 0 Z " fill="#A8CCA8" transform="translate(477,229)"/><path d="M0 0 C0.66 0.66 1.32 1.32 2 2 C1.01 2 0.02 2 -1 2 C-0.67 1.34 -0.34 0.68 0 0 Z " fill="#FB18FB" transform="translate(220,29)"/></svg>