<svg xmlns="http://www.w3.org/2000/svg" width="522" height="260" viewBox="0 0 522 260"><path d="M0 0 C172.26 0 344.52 0 522 0 C522 85.8 522 171.6 522 260 C349.74 260 177.48 260 0 260 C0 174.2 0 88.4 0 0 Z " fill="#FAFAFE" transform="translate(0,0)"/><path d="M0 0 C0.66 0 1.32 0 2 0 C2 1.32 2 2.64 2 4 C2.74 3.98 3.49 3.95 4.25 3.93 C15.9 3.74 27.41 4.87 39 6 C38.67 7.98 38.34 9.96 38 12 C38.99 11.67 39.98 11.34 41 11 C40.5 8.52 40.5 8.52 40 6 C52.73 5.89 65.42 6.12 78.14 6.68 C83.47 6.92 88.8 7.14 94.12 7.36 C94.71 7.38 95.3 7.41 95.91 7.43 C107.65 7.92 119.39 8.35 131.12 8.77 C132.05 8.8 132.97 8.83 133.91 8.87 C143.22 9.2 152.52 9.53 161.82 9.85 C165.36 9.98 168.89 10.1 172.42 10.23 C174.07 10.29 175.71 10.34 177.35 10.4 C186.29 10.71 195.21 11.09 204.13 11.65 C212.37 12.17 220.61 12.35 228.85 12.55 C235.71 12.73 242.53 12.92 249.36 13.5 C257.73 14.2 266.11 14.32 274.5 14.5 C283.93 14.7 293.3 14.96 302.7 15.76 C309.42 16.24 316.15 16.34 322.88 16.5 C331.07 16.7 339.24 16.9 347.41 17.5 C352.96 17.91 358.5 18.13 364.07 18.25 C364.84 18.26 365.62 18.28 366.42 18.3 C369.6 18.36 372.78 18.42 375.96 18.48 C386.14 18.65 395.96 19.26 406 21 C406.66 19.68 407.32 18.36 408 17 C409.98 17.33 411.96 17.66 414 18 C414.98 23.27 414.98 23.27 415 25 C413 27 413 27 410.88 27.12 C410.26 27.08 409.64 27.04 409 27 C409.09 28.39 409.09 28.39 409.19 29.81 C409.21 34.23 407.9 38.13 406.67 42.33 C405.82 45.71 405.77 48.54 406 52 C407.95 52.59 407.95 52.59 410 53 C410.33 52.67 410.66 52.34 411 52 C413.44 51.81 413.44 51.81 416 52 C418 54 418 54 418.25 57 C418 60 418 60 416 62 C413.64 62.27 411.38 62.09 409 62 C408.89 62.57 408.79 63.13 408.68 63.72 C407.89 66.36 406.73 68.22 405.19 70.5 C404.65 71.29 404.12 72.08 403.57 72.9 C402 75 402 75 399.56 77.12 C397.8 78.81 397.8 78.81 398.09 80.68 C398.26 81.61 398.26 81.61 398.44 82.56 C399 86 399 86 397.88 87.94 C395.4 89.34 393.8 89.36 391 89 C388.86 86.86 388.57 85.87 388 83 C384.56 83.05 381.13 83.15 377.69 83.25 C376.71 83.26 375.73 83.28 374.73 83.29 C373.79 83.33 372.85 83.36 371.89 83.39 C370.59 83.42 370.59 83.42 369.27 83.45 C366.86 83.82 366.86 83.82 365.23 85.82 C363.5 88.89 363.23 91.62 364 95 C367.41 99.71 372.45 102.29 377.38 105.25 C380 107 380 107 382.11 109.18 C384.14 111.13 384.88 111.49 387.62 111.62 C391 112 391 112 393 114 C393.19 117.06 393.19 117.06 393 120 C391.28 121.72 388.65 121.24 386.3 121.33 C383.53 122.14 381.99 123.67 379.86 125.55 C375.97 128.58 371.45 130.64 367.06 132.88 C366.03 133.41 364.99 133.94 363.95 134.48 C356.64 138.22 349.28 141.78 341.8 145.17 C339.9 146.04 338.03 146.96 336.15 147.88 C319.13 156.21 301.2 162.32 283.31 168.49 C280.54 169.45 277.79 170.45 275.05 171.49 C266.8 174.61 258.38 177.28 250 180 C248.67 180.43 248.67 180.43 247.32 180.88 C244.76 181.7 242.19 182.51 239.62 183.31 C238.88 183.55 238.13 183.8 237.36 184.05 C224.44 188 211.12 188.37 197.71 188.37 C195.13 188.37 192.56 188.41 189.98 188.45 C175.96 188.54 162.81 186.38 149.75 181.12 C148.78 180.75 148.78 180.75 147.8 180.37 C142.31 178.21 136.98 175.76 131.67 173.2 C129.42 172.19 127.41 171.49 125 171 C124.86 171.8 124.71 172.61 124.56 173.44 C124 176 124 176 123 177 C120.06 177.19 120.06 177.19 117 177 C115 175 115 175 114.88 171.88 C114.92 170.93 114.96 169.98 115 169 C115.66 169 116.32 169 117 169 C117 168.34 117 167.68 117 167 C93.43 166.85 93.43 166.85 69.88 167.5 C10.54 169.99 10.54 169.99 -18.06 160.83 C-28.3 157.93 -38.56 159.11 -49 160 C-48.96 160.78 -48.92 161.57 -48.88 162.38 C-49 165 -49 165 -51 167 C-53.41 166.97 -55.62 166.44 -58 166 C-59 159.25 -59 159.25 -59 157 C-60.45 155.2 -62.02 153.54 -63.59 151.85 C-65.09 149.88 -65.58 148.42 -66 146 C-66.97 146.19 -67.94 146.37 -68.94 146.56 C-70.45 146.78 -70.45 146.78 -72 147 C-73 146 -73 146 -73.1 143.93 C-73.09 143.11 -73.07 142.29 -73.06 141.44 C-73.05 140.61 -73.04 139.78 -73.04 138.93 C-73.02 138.3 -73.01 137.66 -73 137 C-70.69 137 -68.38 137 -66 137 C-65.92 135.97 -65.83 134.94 -65.75 133.88 C-64.69 126.72 -59.32 121.52 -54 117 C-44.19 109.94 -35.01 107.38 -23 108 C-23.06 106.89 -23.12 105.77 -23.19 104.62 C-23.18 101.22 -23.18 101.22 -21.75 99.5 C-18.78 98.65 -16.67 99.66 -14 101 C-13.9 106.37 -13.9 106.37 -14 108 C-14.33 108.33 -14.66 108.66 -15 109 C-13.95 109.41 -12.9 109.82 -11.81 110.25 C-6.63 112.8 -2.76 116.68 1.34 120.67 C5.58 124.76 9.37 128.41 15.56 128.56 C24.2 128.3 31.48 123.28 38.13 118.17 C42.07 115.71 46.61 114.42 51 113 C50.92 112.07 50.83 111.14 50.75 110.19 C51 107 51 107 52.75 105.06 C55 104 55 104 57.12 104.19 C59 105 59 105 61 107 C60.97 109.41 60.44 111.62 60 114 C60.78 114 60.78 114 61.57 114 C68.93 114.38 74.14 117.4 80.38 121.12 C81.34 121.68 82.3 122.24 83.3 122.81 C89.12 126.2 94.83 129.76 100.48 133.42 C103.93 135.58 107.49 137.5 111.07 139.41 C113.72 140.85 116.34 142.34 118.94 143.86 C139.76 155.95 158.71 165.24 183.16 158.84 C191.53 156.44 200.55 153.09 206 146 C208.41 141.38 208.43 136.79 208.62 131.69 C208.66 130.85 208.7 130.02 208.74 129.15 C208.84 127.1 208.92 125.05 209 123 C208.05 123.04 207.1 123.08 206.12 123.12 C203 123 203 123 201 121 C200.64 118.17 200.64 116.59 202.12 114.12 C204.92 112.45 206.94 113.25 210 114 C210 114.66 210 115.32 210 116 C210.66 116 211.32 116 212 116 C212.22 115.43 212.44 114.85 212.66 114.26 C214.39 111.35 216.7 109.75 219.44 107.88 C220.17 107.35 220.17 107.35 220.92 106.82 C223.26 105.18 225.61 103.57 228 102 C228 99.64 228 99.64 227 97 C224.86 95.29 222.92 93.98 220.56 92.62 C219.86 92.2 219.16 91.78 218.44 91.35 C215.97 89.88 213.49 88.44 211 87 C210.06 86.46 209.13 85.91 208.16 85.35 C203.38 82.57 198.6 79.81 193.8 77.06 C185.82 72.48 177.87 67.85 169.94 63.19 C169.32 62.82 168.7 62.46 168.06 62.09 C161.67 58.34 155.29 54.58 148.9 50.82 C139.98 45.56 131.04 40.34 122.05 35.19 C120.3 34.17 118.55 33.13 116.81 32.08 C107.25 26.46 96.96 24.72 86 24 C86.33 25.65 86.66 27.3 87 29 C86.38 28.67 85.76 28.34 85.12 28 C83.09 26.86 83.09 26.86 81 27 C80.67 27.99 80.34 28.98 80 30 C81.98 30 83.96 30 86 30 C86 30.99 86 31.98 86 33 C83.75 33.75 83.75 33.75 81 34 C78.69 32.31 78.69 32.31 77 30 C76.89 27.86 76.89 27.86 77 26 C67.13 28 59.15 31.61 50.34 36.46 C44.84 39.4 40.25 40.83 34 41 C34.5 43.97 34.5 43.97 35 47 C33.31 48.62 33.31 48.62 31 50 C28.61 49.33 26.78 48.78 25 47 C24.96 45.33 24.96 43.67 25 42 C24.13 41.81 24.13 41.81 23.23 41.62 C17.64 40.22 13.33 38.14 8.64 34.88 C8.09 34.5 7.55 34.13 6.98 33.75 C5.65 32.84 4.33 31.92 3 31 C3.01 31.99 3.01 32.99 3.02 34.01 C3.03 37.69 3.05 41.37 3.05 45.04 C3.06 46.64 3.07 48.23 3.08 49.83 C3.09 52.11 3.09 54.4 3.1 56.68 C3.1 57.4 3.11 58.12 3.11 58.86 C3.11 60.57 3.06 62.29 3 64 C2 65 2 65 0.15 65.1 C-0.58 65.09 -1.31 65.07 -2.06 65.06 C-2.8 65.05 -3.53 65.04 -4.29 65.04 C-5.13 65.02 -5.13 65.02 -6 65 C-5.99 65.85 -5.98 66.71 -5.96 67.59 C-5.96 68.69 -5.95 69.8 -5.94 70.94 C-5.93 72.04 -5.91 73.14 -5.9 74.28 C-6 77 -6 77 -7 78 C-8.62 78.1 -10.24 78.13 -11.86 78.13 C-12.89 78.13 -13.92 78.14 -14.99 78.14 C-16.68 78.14 -16.68 78.14 -18.4 78.13 C-19.55 78.13 -20.7 78.13 -21.88 78.14 C-24.31 78.14 -26.75 78.14 -29.18 78.13 C-32.3 78.12 -35.43 78.13 -38.55 78.13 C-41.52 78.14 -44.49 78.14 -47.46 78.13 C-48.59 78.13 -49.71 78.14 -50.87 78.14 C-51.91 78.14 -52.95 78.13 -54.02 78.13 C-54.93 78.13 -55.85 78.13 -56.79 78.13 C-59 78 -59 78 -61 77 C-61.02 73.46 -61.04 69.92 -61.05 66.37 C-61.06 65.17 -61.07 63.96 -61.08 62.76 C-61.09 61.03 -61.09 59.3 -61.1 57.57 C-61.11 56 -61.11 56 -61.11 54.41 C-61 52 -61 52 -60 51 C-58.31 50.91 -56.62 50.88 -54.93 50.89 C-53.85 50.89 -52.77 50.89 -51.65 50.89 C-50.47 50.89 -49.28 50.9 -48.09 50.9 C-46.88 50.9 -45.67 50.91 -44.46 50.91 C-41.27 50.91 -38.09 50.92 -34.9 50.93 C-31.65 50.94 -28.4 50.95 -25.15 50.95 C-18.76 50.96 -12.38 50.98 -6 51 C-6 55.29 -6 59.58 -6 64 C-2.53 63.5 -2.53 63.5 1 63 C1.27 58.47 1.47 53.94 1.6 49.4 C1.66 47.86 1.73 46.32 1.83 44.78 C2.63 36.24 2.63 36.24 -0.1 28.44 C-2.35 26.16 -4.81 24.45 -7.52 22.76 C-10 21 -10 21 -10.84 18.77 C-10.9 18.19 -10.95 17.6 -11 17 C-11.76 17.23 -12.53 17.45 -13.31 17.69 C-16 18 -16 18 -17.81 16.88 C-19.38 14.41 -19.37 12.87 -19 10 C-17 8 -17 8 -15.23 7.95 C-14.56 8 -13.88 8.06 -13.19 8.12 C-8.88 8.27 -7.22 6.87 -4 4 C-1.69 3.75 -1.69 3.75 0 4 C0 2.68 0 1.36 0 0 Z " fill="#3B2623" transform="translate(73,42)"/><path d="M0 0 C10.23 0 20.46 0 31 0 C29.68 0.33 28.36 0.66 27 1 C27 1.66 27 2.32 27 3 C38.88 3.49 38.88 3.49 51 4 C51 4.99 51 5.98 51 7 C46 7 41 7 36 7 C36 7.33 36 7.66 36 8 C41.28 8 46.56 8 52 8 C51.34 8.99 50.68 9.98 50 11 C50.99 11.33 51.98 11.66 53 12 C53 74.7 53 137.4 53 202 C-119.26 202 -291.52 202 -469 202 C-469 178.24 -469 154.48 -469 130 C-462 130 -462 130 -460.36 131.61 C-460.02 132.32 -459.67 133.02 -459.31 133.75 C-457.55 137.05 -455.83 139.48 -453 142 C-453.33 142.33 -453.66 142.66 -454 143 C-454.12 144.68 -454.12 144.68 -454.06 146.56 C-454.04 147.7 -454.02 148.83 -454 150 C-451.69 150 -449.38 150 -447 150 C-446.34 148.02 -445.68 146.04 -445 144 C-430.1 141.46 -418.77 142.69 -404.25 146.5 C-389.67 150.14 -375.56 151.45 -360.56 151.25 C-358.8 151.24 -357.03 151.23 -355.27 151.22 C-344.34 151.14 -333.43 150.84 -322.51 150.36 C-314.42 150.01 -306.35 149.89 -298.25 149.88 C-297.12 149.87 -296 149.87 -294.84 149.86 C-289.45 149.87 -284.31 150.05 -279 151 C-279 151.66 -279 152.32 -279 153 C-279.66 153 -280.32 153 -281 153 C-280.01 156.47 -280.01 156.47 -279 160 C-277.02 160 -275.04 160 -273 160 C-272.34 158.35 -271.68 156.7 -271 155 C-265.66 155.57 -261.45 157.46 -256.62 159.75 C-250.68 162.48 -244.75 164.94 -238.5 166.88 C-237.89 167.07 -237.28 167.26 -236.65 167.45 C-234.78 168.01 -232.9 168.51 -231 169 C-230.34 169.19 -229.68 169.37 -229 169.57 C-220.78 171.59 -212.39 171.3 -203.98 171.26 C-201.34 171.25 -198.69 171.26 -196.05 171.27 C-181.69 171.29 -168.36 170.14 -154.56 165.88 C-153.56 165.57 -152.55 165.27 -151.52 164.96 C-137.72 160.77 -123.92 156.45 -110.56 151.01 C-106.88 149.56 -103.14 148.26 -99.4 146.96 C-86.88 142.57 -74.72 137.6 -62.61 132.16 C-60.2 131.09 -57.77 130.04 -55.34 129.01 C-32.08 119.51 -32.08 119.51 -12 105 C-10.05 104.59 -10.05 104.59 -7.88 104.38 C-7.15 104.3 -6.43 104.23 -5.68 104.15 C-5.13 104.1 -4.57 104.05 -4 104 C-3.96 102 -3.96 100 -4 98 C-5.13 96.65 -5.13 96.65 -8.12 96.81 C-12.17 96.28 -14.07 94.49 -16.97 91.75 C-20.21 88.96 -23.88 86.89 -27.55 84.71 C-30.02 82.98 -31.46 81.58 -33 79 C-33.54 74.78 -33.57 73.14 -31.68 69.33 C-30.05 67.42 -29.1 67.02 -26.61 66.51 C-23.65 66.28 -20.72 66.2 -17.75 66.19 C-16.72 66.16 -15.69 66.14 -14.62 66.11 C-12.08 66.05 -9.54 66.02 -7 66 C-6.34 67.98 -5.68 69.96 -5 72 C-2.58 72.17 -2.58 72.17 0 72 C0.66 71.34 1.32 70.68 2 70 C2.02 68.23 2.02 68.23 1.62 66.38 C1.42 65.26 1.21 64.15 1 63 C2.49 62.5 2.49 62.5 4 62 C5.06 60.18 5.06 60.18 6 58 C7.52 55.68 9.09 53.4 10.66 51.12 C12.15 48.95 12.15 48.95 13 46 C14.79 45.77 16.58 45.54 18.37 45.32 C20.04 45.15 20.04 45.15 21 44 C21.17 41 21.17 41 21 38 C19.96 36.73 19.96 36.73 17.62 36.88 C14.89 36.89 14.89 36.89 12 38 C10.31 37.5 10.31 37.5 9 36 C8.3 30.52 9.73 25.91 11.27 20.67 C12.15 17.44 12.63 14.32 13 11 C14.65 10.34 16.3 9.68 18 9 C18 6.69 18 4.38 18 2 C12.06 1.67 6.12 1.34 0 1 C0 0.67 0 0.34 0 0 Z " fill="#EFEDFE" transform="translate(469,58)"/><path d="M0 0 C12.43 -0.25 24.76 0.08 37.17 0.78 C52.31 1.62 67.46 2.28 82.62 2.78 C83.98 2.83 83.98 2.83 85.37 2.87 C91.87 3.09 98.37 3.29 104.88 3.5 C112.29 3.74 119.7 3.97 127.12 4.22 C128.02 4.25 128.93 4.28 129.86 4.31 C145.31 4.82 160.74 5.52 176.18 6.32 C186.43 6.85 196.68 7.24 206.94 7.5 C208.41 7.54 209.89 7.58 211.37 7.61 C212.07 7.63 212.77 7.65 213.5 7.67 C226.11 8 238.71 8.5 251.31 9 C252.39 9.04 253.47 9.08 254.58 9.13 C266.07 9.58 277.54 10.06 289 11 C288.47 14.33 287.91 17.61 287.03 20.87 C286.85 21.52 286.67 22.18 286.49 22.86 C286.31 23.52 286.13 24.19 285.94 24.88 C285.75 25.56 285.56 26.25 285.37 26.96 C284.92 28.64 284.46 30.32 284 32 C280.53 32.5 280.53 32.5 277 33 C276.96 35 276.96 37 277 39 C277.33 39.33 277.66 39.66 278 40 C280.02 39.78 281.99 39.42 283.99 39.06 C286.35 38.99 287.21 39.52 289 41 C287.7 46.32 285.26 50.47 281 54 C276.1 56.21 271.92 56.1 266.69 55.88 C260.06 55.74 254.58 56.01 249 60 C248.08 60.91 247.18 61.85 246.31 62.81 C245.17 63.9 245.17 63.9 244 65 C240.81 64.81 240.81 64.81 238 64 C237.34 64 236.68 64 236 64 C236 66.64 236 69.28 236 72 C238.31 72 240.62 72 243 72 C243.09 72.65 243.17 73.3 243.26 73.98 C243.47 75.29 243.47 75.29 243.69 76.62 C243.88 77.91 243.88 77.91 244.07 79.23 C246.31 85.92 251.45 89.27 257.31 92.69 C258.59 93.43 259.85 94.18 261.11 94.95 C261.67 95.27 262.22 95.6 262.79 95.93 C263.19 96.28 263.59 96.64 264 97 C264 97.99 264 98.98 264 100 C246.25 110.73 227.26 119.11 208.15 127.1 C206.39 127.84 204.63 128.59 202.87 129.35 C187.85 135.79 172.4 141.38 156.85 146.4 C154.07 147.3 151.3 148.24 148.52 149.17 C145.47 150.2 142.41 151.21 139.35 152.22 C136.96 153.01 134.58 153.83 132.2 154.64 C118.5 159.25 105.5 161.55 91 161 C91.04 160.05 91.08 159.1 91.12 158.12 C91.35 154.9 91.35 154.9 89 153 C85.9 153.32 85.9 153.32 83 154 C83 156.31 83 158.62 83 161 C64.4 162.08 47.93 157.46 31 150 C34.58 148.81 35.54 149.32 39.06 150.44 C54.97 154.61 72.41 152.42 87 145 C87.7 144.69 88.39 144.38 89.11 144.07 C93.52 142.07 96.56 139.8 99.77 136.17 C101 135 101 135 103 135 C103 135.66 103 136.32 103 137 C104.13 137.02 105.27 137.04 106.44 137.06 C107.08 137.07 107.71 137.09 108.37 137.1 C110.04 137.18 110.04 137.18 111 136 C111.04 134 111.04 132 111 130 C109.35 129.34 107.7 128.68 106 128 C106.05 124.1 106.15 120.21 106.25 116.31 C106.26 115.21 106.28 114.11 106.29 112.97 C106.57 103.82 106.57 103.82 108.71 100.94 C111.17 98.85 113.63 97.22 116.44 95.62 C120.09 93.43 122.54 91.72 124.75 88.06 C125.81 86.31 125.81 86.31 127 85 C129.58 84.39 131.32 84.63 134 85 C135 81.42 135 81.42 134 78 C132.45 78.22 132.45 78.22 130.88 78.44 C128.91 78.44 128.91 78.44 127 78 C125.62 76.62 125.62 76.62 124.31 74.82 C120.84 70.54 116.88 68.13 112.12 65.44 C111.26 64.93 110.4 64.43 109.51 63.91 C107.65 62.83 105.78 61.75 103.92 60.68 C100.94 58.97 97.98 57.24 95.02 55.5 C84.95 49.59 74.84 43.75 64.73 37.9 C56.1 32.91 47.51 27.84 38.92 22.77 C33.95 19.84 28.98 16.92 24 14 C23.17 13.51 22.34 13.03 21.49 12.52 C18.91 11.01 16.33 9.51 13.75 8 C12.95 7.53 12.15 7.06 11.33 6.58 C7.63 4.43 4.05 2.43 0 1 C0 0.67 0 0.34 0 0 Z " fill="#F9F9FD" transform="translate(184,60)"/><path d="M0 0 C7 0 7 0 8.64 1.61 C8.98 2.32 9.33 3.02 9.69 3.75 C11.45 7.05 13.17 9.48 16 12 C15.67 12.33 15.34 12.66 15 13 C14.88 14.68 14.88 14.68 14.94 16.56 C14.96 17.7 14.98 18.83 15 20 C17.31 20 19.62 20 22 20 C22.66 18.02 23.32 16.04 24 14 C38.9 11.46 50.23 12.69 64.75 16.5 C79.33 20.14 93.44 21.45 108.44 21.25 C110.2 21.24 111.97 21.23 113.73 21.22 C124.66 21.14 135.57 20.84 146.49 20.36 C154.58 20.01 162.65 19.89 170.75 19.88 C171.88 19.87 173 19.87 174.16 19.86 C179.55 19.87 184.69 20.05 190 21 C190 21.66 190 22.32 190 23 C189.34 23 188.68 23 188 23 C188.99 26.47 188.99 26.47 190 30 C191.98 30 193.96 30 196 30 C196.66 28.35 197.32 26.7 198 25 C203.88 25.46 209.15 27.66 214 31 C215.4 33.14 215.64 34.43 216 37 C216.7 37.12 217.4 37.25 218.12 37.38 C221 38 221 38 223.77 38.95 C228.11 40.36 232.52 41.26 236.98 42.22 C239.62 42.9 241.59 43.78 244 45 C246.13 45.45 246.13 45.45 248.25 45.62 C248.96 45.7 249.66 45.77 250.39 45.85 C250.92 45.9 251.45 45.95 252 46 C251.67 45.01 251.34 44.02 251 43 C261.89 43 272.78 43 284 43 C280.39 44.81 279.46 45.25 275.75 45.12 C275.04 45.11 274.34 45.09 273.61 45.07 C273.08 45.05 272.55 45.02 272 45 C272 45.66 272 46.32 272 47 C274.42 47.2 276.83 47.38 279.25 47.56 C279.93 47.62 280.61 47.67 281.32 47.73 C284.76 47.98 287.68 48.15 291 47 C290.34 47.33 289.68 47.66 289 48 C289 48.66 289 49.32 289 50 C287.68 50.66 286.36 51.32 285 52 C285.66 52.66 286.32 53.32 287 54 C286.34 54.66 285.68 55.32 285 56 C285 56.66 285 57.32 285 58 C284.34 58.66 283.68 59.32 283 60 C283 60.66 283 61.32 283 62 C282.34 62.66 281.68 63.32 281 64 C281 64.66 281 65.32 281 66 C280.34 66.66 279.68 67.32 279 68 C279.66 68.66 280.32 69.32 281 70 C277.93 71.78 275.72 72.25 272.18 72.25 C270.72 72.25 270.72 72.25 269.23 72.26 C267.63 72.25 267.63 72.25 266 72.24 C264.3 72.24 264.3 72.24 262.56 72.25 C259.42 72.25 256.27 72.24 253.12 72.23 C249.72 72.22 246.33 72.23 242.93 72.23 C237.05 72.23 231.16 72.22 225.28 72.21 C216.77 72.2 208.26 72.19 199.76 72.19 C185.95 72.18 172.15 72.17 158.35 72.15 C144.94 72.13 131.54 72.12 118.13 72.11 C117.3 72.11 116.47 72.11 115.62 72.11 C111.48 72.11 107.33 72.1 103.19 72.1 C68.79 72.08 34.4 72.04 0 72 C0 48.24 0 24.48 0 0 Z " fill="#F9FAFD" transform="translate(0,188)"/><path d="M0 0 C5.3 0.12 10.6 0.24 15.89 0.37 C17.69 0.42 19.49 0.46 21.28 0.5 C31.88 0.74 42.43 1.1 53 2 C52.47 5.33 51.91 8.61 51.03 11.87 C50.85 12.52 50.67 13.18 50.49 13.86 C50.31 14.52 50.13 15.19 49.94 15.88 C49.75 16.56 49.56 17.25 49.37 17.96 C48.92 19.64 48.46 21.32 48 23 C45.69 23.33 43.38 23.66 41 24 C40.96 26 40.96 28 41 30 C41.33 30.33 41.66 30.66 42 31 C44.02 30.78 45.99 30.42 47.99 30.06 C50.35 29.99 51.21 30.52 53 32 C51.7 37.32 49.26 41.47 45 45 C40.1 47.21 35.92 47.1 30.69 46.88 C24.06 46.74 18.58 47.01 13 51 C12.08 51.91 11.18 52.85 10.31 53.81 C9.55 54.53 8.79 55.26 8 56 C4.81 55.81 4.81 55.81 2 55 C1.34 55 0.68 55 0 55 C0 57.64 0 60.28 0 63 C2.31 63 4.62 63 7 63 C7.09 63.65 7.17 64.3 7.26 64.98 C7.47 66.29 7.47 66.29 7.69 67.62 C7.88 68.91 7.88 68.91 8.07 70.23 C10.31 76.92 15.45 80.27 21.31 83.69 C22.59 84.43 23.85 85.18 25.11 85.95 C25.67 86.27 26.22 86.6 26.79 86.93 C27.19 87.28 27.59 87.64 28 88 C28 88.99 28 89.98 28 91 C10.25 101.73 -8.74 110.11 -27.85 118.1 C-29.61 118.84 -31.37 119.59 -33.13 120.35 C-48.15 126.79 -63.6 132.38 -79.15 137.4 C-81.93 138.3 -84.7 139.24 -87.48 140.17 C-90.52 141.2 -93.57 142.2 -96.61 143.21 C-98.25 143.75 -99.88 144.3 -101.51 144.85 C-104.02 145.7 -106.54 146.54 -109.06 147.38 C-109.82 147.64 -110.58 147.9 -111.37 148.17 C-116.69 149.91 -121.42 150.31 -127 150 C-126.34 149.01 -125.68 148.02 -125 147 C-125.66 146.34 -126.32 145.68 -127 145 C-125.02 144.01 -125.02 144.01 -123 143 C-123 142.34 -123 141.68 -123 141 C-122.01 140.01 -122.01 140.01 -121 139 C-121.66 138.34 -122.32 137.68 -123 137 C-121.02 136.01 -121.02 136.01 -119 135 C-119 134.34 -119 133.68 -119 133 C-118.01 132.01 -118.01 132.01 -117 131 C-117.66 130.34 -118.32 129.68 -119 129 C-117.02 128.01 -117.02 128.01 -115 127 C-115 126.34 -115 125.68 -115 125 C-113.02 124.01 -113.02 124.01 -111 123 C-111.66 122.34 -112.32 121.68 -113 121 C-112.01 120.01 -112.01 120.01 -111 119 C-111 118.34 -111 117.68 -111 117 C-109.02 116.01 -109.02 116.01 -107 115 C-107.66 114.34 -108.32 113.68 -109 113 C-107.02 112.01 -107.02 112.01 -105 111 C-105 110.34 -105 109.68 -105 109 C-104.01 108.01 -104.01 108.01 -103 107 C-103 106.34 -103 105.68 -103 105 C-101.02 104.01 -101.02 104.01 -99 103 C-99.66 102.34 -100.32 101.68 -101 101 C-100.01 100.01 -100.01 100.01 -99 99 C-99 98.34 -99 97.68 -99 97 C-97.02 96.01 -97.02 96.01 -95 95 C-95 94.34 -95 93.68 -95 93 C-94.34 92.34 -93.68 91.68 -93 91 C-93 90.34 -93 89.68 -93 89 C-91.02 88.01 -91.02 88.01 -89 87 C-89.99 86.01 -89.99 86.01 -91 85 C-89.02 84.01 -89.02 84.01 -87 83 C-87 82.34 -87 81.68 -87 81 C-85.02 80.01 -85.02 80.01 -83 79 C-83 78.34 -83 77.68 -83 77 C-82.34 76.34 -81.68 75.68 -81 75 C-81 74.34 -81 73.68 -81 73 C-79.02 72.01 -79.02 72.01 -77 71 C-77.99 70.01 -77.99 70.01 -79 69 C-77.02 68.01 -77.02 68.01 -75 67 C-75 66.34 -75 65.68 -75 65 C-73.68 64.34 -72.36 63.68 -71 63 C-71 62.34 -71 61.68 -71 61 C-69.68 60.34 -68.36 59.68 -67 59 C-67 58.34 -67 57.68 -67 57 C-65.68 56.34 -64.36 55.68 -63 55 C-63 54.34 -63 53.68 -63 53 C-62.01 52.01 -62.01 52.01 -61 51 C-61 50.34 -61 49.68 -61 49 C-59.02 48.67 -57.04 48.34 -55 48 C-55 47.01 -55 46.02 -55 45 C-54.01 44.01 -54.01 44.01 -53 43 C-53.66 42.34 -54.32 41.68 -55 41 C-52.36 40.67 -49.72 40.34 -47 40 C-47 39.01 -47 38.02 -47 37 C-45.68 36.34 -44.36 35.68 -43 35 C-43.66 34.34 -44.32 33.68 -45 33 C-43.02 32.67 -41.04 32.34 -39 32 C-39 31.01 -39 30.02 -39 29 C-37.68 28.34 -36.36 27.68 -35 27 C-35 26.34 -35 25.68 -35 25 C-33.02 24.67 -31.04 24.34 -29 24 C-29.99 22.52 -29.99 22.52 -31 21 C-27.04 20.5 -27.04 20.5 -23 20 C-23 19.01 -23 18.02 -23 17 C-21.02 16.67 -19.04 16.34 -17 16 C-17.99 14.52 -17.99 14.52 -19 13 C-16.36 12.67 -13.72 12.34 -11 12 C-11 11.01 -11 10.02 -11 9 C-8.36 8.67 -5.72 8.34 -3 8 C-3 7.01 -3 6.02 -3 5 C-0.36 4.67 2.28 4.34 5 4 C4.36 3.71 3.72 3.42 3.06 3.12 C1 2 1 2 0 0 Z " fill="#F0EDFE" transform="translate(420,69)"/><path d="M0 0 C12.73 -0.11 25.42 0.12 38.14 0.68 C43.47 0.92 48.8 1.14 54.12 1.36 C54.71 1.38 55.3 1.41 55.91 1.43 C67.65 1.92 79.39 2.35 91.12 2.77 C92.05 2.8 92.97 2.83 93.91 2.87 C103.22 3.2 112.52 3.53 121.82 3.85 C125.36 3.98 128.89 4.1 132.42 4.23 C134.07 4.29 135.71 4.34 137.35 4.4 C146.29 4.71 155.21 5.09 164.13 5.65 C172.37 6.17 180.61 6.35 188.85 6.55 C195.71 6.73 202.53 6.92 209.36 7.5 C217.73 8.2 226.11 8.32 234.5 8.5 C243.93 8.7 253.3 8.96 262.7 9.76 C269.42 10.24 276.15 10.34 282.88 10.5 C291.07 10.7 299.24 10.9 307.41 11.5 C312.96 11.91 318.5 12.13 324.07 12.25 C325.23 12.27 325.23 12.27 326.42 12.3 C329.6 12.36 332.78 12.42 335.96 12.48 C346.14 12.65 355.96 13.26 366 15 C366.66 13.68 367.32 12.36 368 11 C369.98 11.33 371.96 11.66 374 12 C374.98 17.27 374.98 17.27 375 19 C373 21 373 21 370.88 21.12 C370.26 21.08 369.64 21.04 369 21 C369.09 22.39 369.09 22.39 369.19 23.81 C369.21 28.23 367.9 32.13 366.67 36.33 C365.82 39.71 365.77 42.54 366 46 C367.95 46.59 367.95 46.59 370 47 C370.33 46.67 370.66 46.34 371 46 C373.44 45.81 373.44 45.81 376 46 C378 48 378 48 378.25 51 C378 54 378 54 376 56 C373.64 56.27 371.38 56.09 369 56 C368.89 56.57 368.79 57.13 368.68 57.72 C367.89 60.36 366.73 62.22 365.19 64.5 C364.65 65.29 364.12 66.08 363.57 66.9 C362 69 362 69 359.56 71.12 C357.8 72.81 357.8 72.81 358.09 74.68 C358.26 75.61 358.26 75.61 358.44 76.56 C359 80 359 80 357.88 81.94 C355.4 83.34 353.8 83.36 351 83 C348.86 80.86 348.57 79.87 348 77 C344.56 77.05 341.13 77.15 337.69 77.25 C336.71 77.26 335.73 77.28 334.73 77.29 C333.79 77.33 332.85 77.36 331.89 77.39 C330.59 77.42 330.59 77.42 329.27 77.45 C326.86 77.82 326.86 77.82 325.23 79.82 C323.5 82.89 323.23 85.62 324 89 C327.41 93.71 332.45 96.29 337.38 99.25 C340 101 340 101 342.11 103.18 C344.14 105.13 344.88 105.49 347.62 105.62 C351 106 351 106 353 108 C353.19 111.06 353.19 111.06 353 114 C351.28 115.72 348.65 115.24 346.3 115.33 C343.53 116.14 341.99 117.67 339.86 119.55 C335.97 122.58 331.45 124.64 327.06 126.88 C326.03 127.41 324.99 127.94 323.95 128.48 C316.64 132.22 309.28 135.78 301.8 139.17 C299.9 140.04 298.03 140.96 296.15 141.88 C279.13 150.21 261.2 156.32 243.31 162.49 C240.54 163.45 237.79 164.45 235.05 165.49 C226.8 168.61 218.38 171.28 210 174 C208.67 174.43 208.67 174.43 207.32 174.88 C204.76 175.7 202.19 176.51 199.62 177.31 C198.88 177.55 198.13 177.8 197.36 178.05 C184.44 182 171.12 182.37 157.71 182.37 C155.13 182.37 152.56 182.41 149.98 182.45 C135.96 182.54 122.81 180.38 109.75 175.12 C108.78 174.75 108.78 174.75 107.8 174.37 C102.31 172.21 96.98 169.76 91.67 167.2 C89.42 166.19 87.41 165.49 85 165 C84.86 165.8 84.71 166.61 84.56 167.44 C84 170 84 170 83 171 C80.06 171.19 80.06 171.19 77 171 C75 169 75 169 74.88 165.88 C74.92 164.93 74.96 163.98 75 163 C75.66 163 76.32 163 77 163 C77 162.34 77 161.68 77 161 C53.43 160.85 53.43 160.85 29.88 161.5 C-29.46 163.99 -29.46 163.99 -58.06 154.83 C-60.38 154.17 -62.41 153.79 -64.78 153.5 C-68 153 -68 153 -69.5 151.19 C-70 149 -70 149 -69 145 C-72.63 144.67 -76.26 144.34 -80 144 C-80 143.67 -80 143.34 -80 143 C-69.03 142.23 -59.29 143.97 -48.65 146.61 C-47.79 146.82 -46.92 147.03 -46.03 147.25 C-44.08 147.73 -42.13 148.24 -40.19 148.79 C-29.88 151.41 -19.81 151.35 -9.21 151.23 C-5.93 151.19 -2.64 151.17 0.64 151.15 C7.62 151.12 14.59 151.06 21.56 151 C29.66 150.93 37.75 150.87 45.84 150.83 C49.06 150.81 52.27 150.78 55.49 150.74 C64.75 150.67 73.43 150.7 82.37 153.25 C85.23 154.07 88.07 154.53 91 155 C93.13 155.85 94.98 156.9 97 158 C97 158.66 97 159.32 97 160 C98.03 160.16 98.03 160.16 99.09 160.33 C101.81 160.96 104.2 161.86 106.76 162.97 C121.71 169.44 136.7 173.02 153 172 C152.98 171.04 152.95 170.08 152.93 169.09 C153 166 153 166 154.19 164.56 C156.76 163.76 158.45 164.22 161 165 C161.66 165.66 162.32 166.32 163 167 C162.62 170.12 162.62 170.12 162 173 C179.38 171.76 194.68 168.93 211.14 163.02 C214.13 161.95 217.15 160.94 220.17 159.94 C228.82 157.07 237.41 154.06 246 151 C246.58 150.79 247.16 150.59 247.75 150.38 C268.75 142.97 268.75 142.97 289.07 133.93 C291.36 132.83 293.68 131.8 296 130.77 C309.42 124.84 322.23 118.21 335 111 C332.26 108.05 329.66 106.1 326.12 104.19 C320.69 100.98 316.23 97.74 314.2 91.55 C313.7 89.37 313.29 87.22 313 85 C311.02 84.67 309.04 84.34 307 84 C305.68 78.61 305.68 78.61 307 76.06 C309 75 309 75 312.38 75.69 C314.22 76.13 314.22 76.13 316 76 C317.36 74.86 317.36 74.86 318.44 73.25 C321.37 69.24 324.09 67.81 329 67 C332.58 66.87 336.16 66.93 339.75 67.11 C344.74 67.29 348.73 66.75 353 64 C355.05 61.89 355.05 61.89 356.44 59.44 C357.18 58.26 357.18 58.26 357.93 57.06 C359.15 55.09 359.15 55.09 359 53 C356.04 52.01 355.31 51.97 352.44 52.56 C350.74 52.78 350.74 52.78 349 53 C347 51 347 51 346.69 48 C347 45 347 45 348.19 43.69 C350.42 42.84 352.66 42.45 355 42 C355.19 41.13 355.39 40.26 355.59 39.37 C355.85 38.2 356.11 37.04 356.38 35.88 C356.5 35.31 356.63 34.74 356.76 34.15 C356.89 33.58 357.02 33.01 357.15 32.43 C357.26 31.92 357.38 31.4 357.5 30.87 C358.21 28.21 359.11 25.61 360 23 C359.26 23.01 358.53 23.02 357.77 23.03 C347.02 23.12 336.31 22.66 325.58 22.2 C309.7 21.52 293.83 20.9 277.94 20.5 C265.03 20.17 252.15 19.6 239.26 18.93 C227.98 18.35 216.7 17.86 205.41 17.46 C204.48 17.43 204.48 17.43 203.53 17.39 C197.31 17.17 191.09 16.96 184.88 16.76 C182.01 16.66 179.14 16.56 176.27 16.46 C175.24 16.43 174.2 16.4 173.13 16.37 C162.85 16.01 162.85 16.01 158 15 C157.67 14.34 157.34 13.68 157 13 C157.66 13 158.32 13 159 13 C159 12.34 159 11.68 159 11 C153.08 10.18 147.24 9.76 141.27 9.55 C140.33 9.52 139.39 9.48 138.42 9.44 C135.31 9.32 132.2 9.21 129.09 9.1 C126.88 9.01 124.67 8.93 122.46 8.85 C117.21 8.65 111.96 8.45 106.7 8.26 C95.79 7.86 84.88 7.45 73.96 7.04 C72.84 6.99 71.72 6.95 70.56 6.91 C47.37 6.04 24.19 5.04 1 4 C0.5 2.02 0.5 2.02 0 0 Z " fill="#20323F" transform="translate(113,48)"/><path d="M0 0 C4.58 2.67 8.26 6.65 12.05 10.31 C16.63 14.64 21.08 17.45 27 19.75 C26.97 21.54 26.93 23.33 26.9 25.12 C26.82 26.79 26.82 26.79 28 27.75 C30.5 27.92 30.5 27.92 33 27.75 C34.18 26.79 34.18 26.79 34.1 25.12 C34.09 24.48 34.07 23.84 34.06 23.19 C34.04 22.05 34.02 20.92 34 19.75 C34.81 19.54 35.62 19.33 36.46 19.12 C44.66 16.84 50.92 13.58 58 8.75 C64.06 4.63 70.56 3.13 77.85 4.19 C85.83 6.27 93.06 11.46 100 15.75 C108.2 20.73 116.51 25.52 124.84 30.29 C131.3 34 137.73 37.73 144 41.75 C140.39 42.95 139.32 42.39 135.73 41.32 C126.77 39 117.69 39.43 108.5 39.56 C105.24 39.6 101.97 39.62 98.7 39.64 C90.59 39.69 82.48 39.76 74.37 39.85 C67.5 39.92 60.63 39.98 53.77 40.01 C50.58 40.03 47.4 40.08 44.22 40.13 C29.32 40.25 15.95 38.06 1.67 33.98 C-7.75 31.29 -17.12 31.48 -26.82 31.9 C-36.26 32.18 -36.26 32.18 -39.27 30.05 C-42.24 26.11 -41.66 22.47 -41 17.75 C-38.63 10.19 -31.52 5.32 -24.84 1.57 C-17.3 -1.81 -7.87 -3.31 0 0 Z " fill="#F8F8FC" transform="translate(57,160.25)"/><path d="M0 0 C10.97 -0.77 20.71 0.97 31.35 3.61 C32.21 3.82 33.08 4.03 33.97 4.25 C35.92 4.73 37.87 5.24 39.81 5.79 C50.12 8.41 60.19 8.35 70.79 8.23 C74.07 8.19 77.36 8.17 80.64 8.15 C87.62 8.12 94.59 8.06 101.56 8 C109.66 7.93 117.75 7.87 125.84 7.83 C129.06 7.81 132.27 7.78 135.49 7.74 C144.75 7.67 153.43 7.7 162.37 10.25 C165.23 11.07 168.07 11.53 171 12 C173.13 12.85 174.98 13.9 177 15 C177 15.66 177 16.32 177 17 C177.69 17.11 178.38 17.22 179.09 17.33 C181.81 17.96 184.2 18.86 186.76 19.97 C201.71 26.44 216.7 30.02 233 29 C232.98 28.04 232.95 27.08 232.93 26.09 C233 23 233 23 234.19 21.56 C236.76 20.76 238.45 21.22 241 22 C241.99 22.99 241.99 22.99 243 24 C242.62 27.12 242.62 27.12 242 30 C259.38 28.76 274.67 25.94 291.12 20.02 C294.18 18.93 297.26 17.91 300.34 16.89 C305.2 15.28 309.96 13.52 314.72 11.64 C317 11 317 11 320 12 C319.34 13.32 318.68 14.64 318 16 C320.31 16 322.62 16 325 16 C324.42 17.84 324.42 17.84 323 20 C320.73 21.06 318.66 21.85 316.29 22.59 C315.28 22.92 315.28 22.92 314.24 23.26 C312.04 23.98 309.83 24.68 307.62 25.38 C306.11 25.86 304.59 26.35 303.08 26.84 C299.38 28.04 295.68 29.21 291.97 30.38 C289.27 31.23 286.58 32.11 283.89 32.98 C282.22 33.51 280.55 34.04 278.88 34.56 C277.83 34.9 277.83 34.9 276.76 35.25 C264.08 39.09 250.85 39.37 237.71 39.37 C235.13 39.37 232.56 39.41 229.98 39.45 C215.96 39.54 202.81 37.38 189.75 32.12 C189.11 31.88 188.46 31.63 187.8 31.37 C182.31 29.21 176.98 26.76 171.67 24.2 C169.42 23.19 167.41 22.49 165 22 C164.86 22.8 164.71 23.61 164.56 24.44 C164 27 164 27 163 28 C160.06 28.19 160.06 28.19 157 28 C155 26 155 26 154.88 22.88 C154.92 21.93 154.96 20.98 155 20 C155.66 20 156.32 20 157 20 C157 19.34 157 18.68 157 18 C133.43 17.85 133.43 17.85 109.88 18.5 C50.54 20.99 50.54 20.99 21.94 11.83 C19.62 11.17 17.59 10.79 15.22 10.5 C12 10 12 10 10.5 8.19 C10 6 10 6 11 2 C7.37 1.67 3.74 1.34 0 1 C0 0.67 0 0.34 0 0 Z " fill="#203340" transform="translate(33,191)"/><path d="M0 0 C12.73 -0.11 25.42 0.12 38.14 0.68 C43.47 0.92 48.8 1.14 54.12 1.36 C54.71 1.38 55.3 1.41 55.91 1.43 C67.65 1.92 79.39 2.35 91.12 2.77 C92.05 2.8 92.97 2.83 93.91 2.87 C103.22 3.2 112.52 3.53 121.82 3.85 C125.36 3.98 128.89 4.1 132.42 4.23 C134.07 4.29 135.71 4.34 137.35 4.4 C146.29 4.71 155.21 5.09 164.13 5.65 C172.37 6.17 180.61 6.35 188.85 6.55 C195.71 6.73 202.53 6.92 209.36 7.5 C217.73 8.2 226.11 8.32 234.5 8.5 C243.96 8.7 253.36 8.97 262.79 9.77 C268.34 10.17 273.9 10.26 279.46 10.39 C298.33 10.83 317.16 11.86 336 13 C336 13.66 336 14.32 336 15 C336.99 15 337.98 15 339 15 C339.62 17.37 339.62 17.37 340 20 C338 22 338 22 335.96 22.24 C335.13 22.24 334.3 22.23 333.44 22.23 C332.51 22.23 331.58 22.23 330.62 22.23 C329.1 22.21 329.1 22.21 327.56 22.19 C325.99 22.18 325.99 22.18 324.39 22.17 C317.58 22.1 310.8 21.84 304 21.42 C296.71 20.99 289.41 20.8 282.1 20.62 C267.81 20.26 253.54 19.67 239.26 18.93 C227.98 18.35 216.7 17.86 205.41 17.46 C204.48 17.43 204.48 17.43 203.53 17.39 C197.31 17.17 191.09 16.96 184.88 16.76 C182.01 16.66 179.14 16.56 176.27 16.46 C175.24 16.43 174.2 16.4 173.13 16.37 C162.85 16.01 162.85 16.01 158 15 C157.67 14.34 157.34 13.68 157 13 C157.66 13 158.32 13 159 13 C159 12.34 159 11.68 159 11 C153.08 10.18 147.24 9.76 141.27 9.55 C140.33 9.52 139.39 9.48 138.42 9.44 C135.31 9.32 132.2 9.21 129.09 9.1 C126.88 9.01 124.67 8.93 122.46 8.85 C117.21 8.65 111.96 8.45 106.7 8.26 C95.79 7.86 84.88 7.45 73.96 7.04 C72.84 6.99 71.72 6.95 70.56 6.91 C47.37 6.04 24.19 5.04 1 4 C0.67 2.68 0.34 1.36 0 0 Z " fill="#332F27" transform="translate(113,48)"/><path d="M0 0 C0.33 0 0.66 0 1 0 C1.02 4.82 1.04 9.65 1.05 14.47 C1.06 16.11 1.07 17.76 1.08 19.4 C1.09 21.75 1.09 24.11 1.1 26.46 C1.1 27.2 1.11 27.94 1.11 28.7 C1.11 30.47 1.06 32.23 1 34 C0 35 0 35 -1.85 35.1 C-2.94 35.08 -2.94 35.08 -4.06 35.06 C-5.16 35.05 -5.16 35.05 -6.29 35.04 C-6.85 35.02 -7.42 35.01 -8 35 C-7.99 35.85 -7.98 36.71 -7.96 37.59 C-7.96 38.69 -7.95 39.8 -7.94 40.94 C-7.93 42.04 -7.91 43.14 -7.9 44.28 C-8 47 -8 47 -9 48 C-10.62 48.1 -12.24 48.13 -13.86 48.13 C-14.89 48.13 -15.92 48.14 -16.99 48.14 C-18.68 48.14 -18.68 48.14 -20.4 48.13 C-21.55 48.13 -22.7 48.13 -23.88 48.14 C-26.31 48.14 -28.75 48.14 -31.18 48.13 C-34.3 48.12 -37.43 48.13 -40.55 48.13 C-43.52 48.14 -46.49 48.14 -49.46 48.13 C-50.59 48.13 -51.71 48.14 -52.87 48.14 C-53.91 48.14 -54.95 48.13 -56.02 48.13 C-56.93 48.13 -57.85 48.13 -58.79 48.13 C-61 48 -61 48 -63 47 C-63.02 43.46 -63.04 39.92 -63.05 36.37 C-63.06 35.17 -63.07 33.96 -63.08 32.76 C-63.09 31.03 -63.09 29.3 -63.1 27.57 C-63.1 26.52 -63.11 25.48 -63.11 24.41 C-63 22 -63 22 -62 21 C-60.31 20.91 -58.62 20.88 -56.93 20.89 C-55.85 20.89 -54.77 20.89 -53.65 20.89 C-52.47 20.89 -51.28 20.9 -50.09 20.9 C-48.88 20.9 -47.67 20.91 -46.46 20.91 C-43.27 20.91 -40.09 20.92 -36.9 20.93 C-33.65 20.94 -30.4 20.95 -27.15 20.95 C-20.76 20.96 -14.38 20.98 -8 21 C-8 25.29 -8 29.58 -8 34 C-5.69 33.67 -3.38 33.34 -1 33 C-0.67 22.11 -0.34 11.22 0 0 Z " fill="#1DC20E" transform="translate(75,72)"/><path d="M0 0 C1.04 -0 2.08 -0.01 3.14 -0.01 C4.83 -0.01 4.83 -0.01 6.55 -0 C7.7 -0 8.85 -0.01 10.03 -0.01 C12.46 -0.01 14.9 -0.01 17.33 -0 C20.45 0 23.57 0 26.7 -0 C29.67 -0.01 32.64 -0.01 35.61 -0 C36.74 -0.01 37.87 -0.01 39.03 -0.01 C40.58 -0 40.58 -0 42.16 0 C43.08 0 43.99 0 44.93 0 C47.02 0.13 47.02 0.13 48.02 1.13 C48.1 3.06 48.12 4.99 48.11 6.91 C48.11 7.49 48.11 8.07 48.11 8.66 C48.1 10.5 48.09 12.35 48.08 14.19 C48.07 15.44 48.07 16.69 48.06 17.94 C48.05 21 48.04 24.06 48.02 27.13 C40.99 27.15 33.97 27.17 26.95 27.18 C23.68 27.19 20.42 27.19 17.16 27.2 C14.02 27.22 10.87 27.22 7.73 27.22 C6.53 27.23 5.32 27.23 4.12 27.24 C2.44 27.24 0.76 27.24 -0.91 27.24 C-1.87 27.25 -2.83 27.25 -3.81 27.25 C-5.98 27.13 -5.98 27.13 -6.98 26.13 C-7.07 24.28 -7.09 22.42 -7.08 20.56 C-7.08 19.44 -7.08 18.31 -7.07 17.15 C-7.06 15.96 -7.06 14.76 -7.05 13.57 C-7.04 12.37 -7.04 11.17 -7.03 9.97 C-7.02 7.02 -7.01 4.08 -6.98 1.13 C-4.49 -0.12 -2.8 0 0 0 Z " fill="#19C10A" transform="translate(24.984619140625,220.87060546875)"/><path d="M0 0 C6.89 -0.02 13.79 -0.04 20.68 -0.05 C23.88 -0.06 27.08 -0.06 30.28 -0.08 C33.37 -0.09 36.45 -0.09 39.54 -0.09 C41.29 -0.1 43.05 -0.11 44.81 -0.11 C46.4 -0.11 46.4 -0.11 48.02 -0.11 C48.96 -0.12 49.9 -0.12 50.87 -0.12 C53 0 53 0 54 1 C54.09 2.93 54.11 4.86 54.1 6.79 C54.1 7.36 54.09 7.94 54.09 8.53 C54.09 10.37 54.08 12.22 54.06 14.06 C54.06 15.31 54.05 16.56 54.05 17.81 C54.04 20.87 54.02 23.94 54 27 C46.98 27.02 39.95 27.04 32.93 27.05 C29.67 27.06 26.41 27.06 23.15 27.08 C20 27.09 16.86 27.09 13.71 27.09 C12.51 27.1 11.31 27.1 10.11 27.11 C8.43 27.11 6.75 27.11 5.07 27.11 C4.11 27.12 3.16 27.12 2.17 27.12 C0 27 0 27 -1 26 C-1.1 24.24 -1.13 22.48 -1.13 20.72 C-1.13 19.65 -1.14 18.58 -1.14 17.48 C-1.13 16.35 -1.13 15.22 -1.12 14.06 C-1.13 12.94 -1.13 11.82 -1.14 10.66 C-1.14 9.59 -1.13 8.51 -1.13 7.41 C-1.13 6.42 -1.13 5.43 -1.13 4.41 C-1 2 -1 2 0 0 Z " fill="#18C109" transform="translate(423,15)"/><path d="M0 0 C5.79 -0.11 11.5 -0 17.27 0.47 C25.84 1.13 34.41 1.31 43 1.5 C53.7 1.74 64.33 2.12 75 3 C75 3.33 75 3.66 75 4 C74.16 4.2 73.33 4.39 72.46 4.59 C64.08 6.7 56.89 9.85 49.38 14.1 C48.8 14.42 48.23 14.74 47.65 15.07 C46.11 15.94 44.58 16.81 43.05 17.69 C36.74 20.4 29.66 20.52 23 19 C14.09 15.32 6.26 9.25 -1 3 C-0.67 2.01 -0.34 1.02 0 0 Z " fill="#F4F4F8" transform="translate(72,55)"/><path d="M0 0 C0.95 0.04 1.9 0.08 2.88 0.12 C2.88 0.46 2.88 0.78 2.88 1.12 C1.95 1.39 1.02 1.66 0.06 1.94 C-2.93 3.05 -4.28 3.6 -6.12 6.12 C-6.2 6.75 -6.28 7.37 -6.36 8.01 C-7.52 11.21 -9.58 11.94 -12.5 13.56 C-13.03 13.86 -13.57 14.16 -14.11 14.47 C-28.04 22.12 -28.04 22.12 -33.12 22.12 C-34.08 23.12 -34.08 23.12 -35.06 24.12 C-37.12 26.12 -37.12 26.12 -39.38 26.38 C-39.95 26.29 -40.53 26.21 -41.12 26.12 C-41.45 26.78 -41.78 27.44 -42.12 28.12 C-43.9 28.91 -43.9 28.91 -46.06 29.62 C-48.83 30.55 -50.02 31.02 -52.12 33.12 C-53.73 33.86 -55.36 34.55 -57 35.19 C-57.86 35.53 -58.73 35.87 -59.62 36.22 C-62.12 37.12 -62.12 37.12 -64.21 37.62 C-66.33 38.18 -68.01 39.02 -69.94 40.06 C-73 41.64 -75.88 42.71 -79.2 43.56 C-83.29 44.76 -87.19 46.51 -91.12 48.12 C-93.76 49.2 -96.35 50.2 -99.06 51.06 C-102.19 52.07 -102.19 52.07 -105.19 53.69 C-107.97 55.05 -110.11 55.56 -113.12 56.12 C-119.23 57.74 -125.08 59.81 -130.9 62.26 C-132.97 63.07 -134.97 63.6 -137.12 64.12 C-140.17 65.16 -143.21 66.22 -146.25 67.29 C-148.75 68.02 -150.55 68.32 -153.12 68.12 C-152.8 66.81 -152.46 65.49 -152.12 64.12 C-152.79 63.8 -153.44 63.47 -154.12 63.12 C-153.61 62.99 -153.1 62.85 -152.58 62.7 C-141.78 59.72 -131.07 56.54 -120.44 53 C-119.46 52.68 -118.48 52.35 -117.47 52.02 C-112.13 50.22 -106.9 48.26 -101.68 46.13 C-98 44.68 -94.26 43.39 -90.53 42.08 C-78 37.69 -65.84 32.73 -53.74 27.29 C-51.32 26.21 -48.9 25.17 -46.46 24.14 C-33.61 18.66 -12.66 0.51 0 0 Z " fill="#DBDDE5" transform="translate(460.125,162.875)"/><path d="M0 0 C11.85 -0.72 22.12 1.85 32.25 7.96 C34.29 9.17 36.34 10.33 38.41 11.5 C48.99 17.47 59.46 23.62 69.91 29.84 C78.23 34.79 86.6 39.68 95 44.5 C104.29 49.84 113.53 55.23 122.75 60.69 C123.33 61.03 123.9 61.37 124.5 61.72 C135.69 68.33 135.69 68.33 141 72 C140.67 73.32 140.34 74.64 140 76 C136.35 74.65 133.17 72.99 129.88 70.94 C127.2 69.27 125 68 122 67 C121.67 66.34 121.34 65.68 121 65 C119.35 64.29 117.68 63.63 116 63 C113.98 62.04 111.99 61.02 110 60 C110 59.34 110 58.68 110 58 C109.43 57.88 108.85 57.76 108.26 57.64 C105.87 56.96 104.03 56.04 101.88 54.81 C101.09 54.37 100.31 53.92 99.5 53.46 C96.08 51.46 92.69 49.41 89.3 47.35 C87.39 46.23 85.49 45.21 83.5 44.25 C81 43 81 43 79 41 C76.46 39.37 73.9 37.95 71.19 36.62 C67.28 34.71 63.67 32.33 60 30 C57.35 28.36 54.74 26.87 51.94 25.5 C49.35 24.18 47.31 22.74 45 21 C44.05 20.53 43.1 20.05 42.12 19.56 C39.48 18.24 37.13 16.77 34.7 15.11 C29.1 11.45 23.58 8.37 17 7 C16.1 6.8 15.19 6.61 14.26 6.41 C8.1 4.97 8.1 4.97 2 6 C1.34 6.66 0.68 7.32 0 8 C0 7.34 0 6.68 0 6 C-1.98 6 -3.96 6 -6 6 C-5.67 4.68 -5.34 3.36 -5 2 C-3.35 2.33 -1.7 2.66 0 3 C0 2.01 0 1.02 0 0 Z " fill="#E5E8E9" transform="translate(159,66)"/><path d="M0 0 C11.22 0 22.44 0 34 0 C34.02 3.11 34.04 6.23 34.06 9.44 C34.07 10.42 34.08 11.4 34.09 12.42 C34.09 13.18 34.1 13.95 34.1 14.75 C34.1 15.54 34.11 16.33 34.11 17.14 C34 19 34 19 33 20 C31.42 20.11 31.42 20.11 29.4 20.1 C28.32 20.09 28.32 20.09 27.22 20.09 C26.47 20.08 25.72 20.07 24.94 20.06 C24.18 20.06 23.42 20.05 22.64 20.05 C20.76 20.04 18.88 20.02 17 20 C17.14 22.27 17.29 24.54 17.44 26.81 C17.48 27.46 17.52 28.1 17.56 28.76 C17.76 31.71 18.06 34.18 19 37 C17.68 37.66 16.36 38.32 15 39 C14.44 37.06 14.44 37.06 14 35 C14.5 34.51 14.5 34.51 15 34 C15.24 31.64 15.42 29.3 15.56 26.94 C15.61 26.27 15.65 25.61 15.69 24.93 C15.8 23.29 15.9 21.64 16 20 C14.39 20.02 14.39 20.02 12.75 20.04 C11.36 20.04 9.96 20.05 8.56 20.06 C7.86 20.07 7.15 20.08 6.42 20.09 C4.61 20.1 2.81 20.05 1 20 C0 19 0 19 -0.11 17.14 C-0.11 16.35 -0.1 15.56 -0.1 14.75 C-0.1 13.98 -0.09 13.21 -0.09 12.42 C-0.08 10.94 -0.08 10.94 -0.06 9.44 C-0.04 6.32 -0.02 3.21 0 0 Z " fill="#FD14FE" transform="translate(96,16)"/><path d="M0 0 C5.28 0 10.56 0 16 0 C15.67 1.65 15.34 3.3 15 5 C16.42 5.17 17.83 5.34 19.25 5.5 C20.43 5.64 20.43 5.64 21.64 5.78 C23.78 5.98 25.85 6.04 28 6 C28.5 6.99 28.5 6.99 29 8 C29.66 7.34 30.32 6.68 31 6 C31 7.65 31 9.3 31 11 C26.38 11 21.76 11 17 11 C17 10.01 17 9.02 17 8 C16.34 8 15.68 8 15 8 C15.33 11.3 15.66 14.6 16 18 C13.36 18 10.72 18 8 18 C7.67 17.34 7.34 16.68 7 16 C6.67 16.66 6.34 17.32 6 18 C1.47 18 -2.56 17.93 -7 17 C-6.67 15.35 -6.34 13.7 -6 12 C-5.01 12 -4.02 12 -3 12 C-3 10.35 -3 8.7 -3 7 C-3.66 7.66 -4.32 8.32 -5 9 C-5 9.66 -5 10.32 -5 11 C-8.3 11 -11.6 11 -15 11 C-14.01 10.67 -13.02 10.34 -12 10 C-12 9.01 -12 8.02 -12 7 C-12.99 7.33 -13.98 7.66 -15 8 C-15 7.34 -15 6.68 -15 6 C-10.04 4.68 -5.09 4.91 0 5 C0 3.35 0 1.7 0 0 Z " fill="#33C727" transform="translate(38,226)"/><path d="M0 0 C0.66 0 1.32 0 2 0 C2 1.32 2 2.64 2 4 C2.74 3.98 3.49 3.95 4.25 3.93 C15.9 3.74 27.41 4.87 39 6 C38.34 7.65 37.68 9.3 37 11 C36.34 10.67 35.68 10.34 35 10 C33.44 9.85 31.87 9.75 30.3 9.68 C29.35 9.64 28.39 9.6 27.41 9.56 C26.38 9.52 25.36 9.48 24.31 9.44 C23.28 9.4 22.24 9.36 21.18 9.32 C18.12 9.2 15.06 9.1 12 9 C11.17 8.97 10.35 8.94 9.5 8.91 C7.41 8.84 5.33 8.79 3.25 8.75 C2.1 8.72 0.95 8.7 -0.23 8.67 C-3 8.78 -3 8.78 -4.87 10.33 C-6.63 12.94 -6.38 14.94 -6 18 C-4.46 20.16 -3.37 20.87 -0.88 21.75 C1 23 1 23 1.48 24.68 C1.72 26.44 1.87 28.22 2 30 C-7.91 23.84 -7.91 23.84 -11 19 C-11 18.34 -11 17.68 -11 17 C-11.76 17.23 -12.53 17.45 -13.31 17.69 C-16 18 -16 18 -17.81 16.88 C-19.38 14.41 -19.37 12.87 -19 10 C-17 8 -17 8 -15.23 7.95 C-14.56 8 -13.88 8.06 -13.19 8.12 C-8.88 8.27 -7.22 6.87 -4 4 C-1.69 3.75 -1.69 3.75 0 4 C0 2.68 0 1.36 0 0 Z " fill="#27292E" transform="translate(73,42)"/><path d="M0 0 C3.94 0.58 6.66 1.77 10.04 3.85 C11.02 4.45 12 5.04 13.01 5.66 C13.53 5.98 14.04 6.3 14.58 6.63 C17.36 8.35 20.15 10.04 22.95 11.74 C23.52 12.09 24.1 12.44 24.7 12.81 C30.93 16.58 37.24 20.2 43.56 23.81 C53.18 29.32 62.67 35.01 72 41 C71.67 42.32 71.34 43.64 71 45 C67.35 43.65 64.17 41.99 60.88 39.94 C58.2 38.27 56 37 53 36 C52.67 35.34 52.34 34.68 52 34 C50.35 33.29 48.68 32.63 47 32 C44.98 31.04 42.99 30.02 41 29 C41 28.34 41 27.68 41 27 C40.43 26.88 39.85 26.76 39.26 26.64 C36.87 25.96 35.03 25.04 32.88 23.81 C32.09 23.37 31.31 22.92 30.5 22.46 C27.08 20.46 23.69 18.41 20.3 16.35 C18.39 15.23 16.49 14.21 14.5 13.25 C12 12 12 12 10 10 C9.34 9.67 8.68 9.34 8 9 C8 7.68 8 6.36 8 5 C7.05 4.73 6.1 4.46 5.12 4.19 C1.23 2.71 1.23 2.71 0 0 Z " fill="#E6ECEB" transform="translate(228,97)"/><path d="M0 0 C0.95 0.01 0.95 0.01 1.91 0.03 C2.62 0.03 3.32 0.04 4.05 0.04 C5.17 0.07 5.17 0.07 6.32 0.11 C7.49 0.12 7.49 0.12 8.67 0.14 C13.57 0.23 18.39 0.6 23.26 1.14 C27.58 1.44 31.87 1.39 36.2 1.36 C46.83 1.29 57.25 1.9 67.81 3.17 C69.29 3.38 69.29 3.38 70.39 3.36 C71.05 3.36 71.71 3.36 72.39 3.36 C72.39 4.68 72.39 6 72.39 7.36 C58.64 7.07 44.9 6.75 31.15 6.42 C28.6 6.36 26.05 6.3 23.51 6.24 C20.06 6.16 16.61 6.07 13.17 5.97 C11.94 5.94 10.72 5.91 9.5 5.88 C7.82 5.84 6.15 5.79 4.48 5.74 C3.1 5.7 3.1 5.7 1.69 5.66 C-0.67 5.35 -1.8 4.85 -3.61 3.36 C-2.09 0.46 -2.09 0.46 0 0 Z " fill="#E1ECE5" transform="translate(154.613037109375,44.6435546875)"/><path d="M0 0 C1.01 0.35 1.01 0.35 2.04 0.7 C4.6 1.58 7.15 2.44 9.7 3.31 C11.33 3.86 12.96 4.42 14.59 4.98 C15.64 5.33 16.69 5.69 17.77 6.05 C18.73 6.38 19.68 6.7 20.66 7.04 C28.73 9.36 36.4 10.3 44.79 10.38 C46.26 10.4 46.26 10.4 47.76 10.43 C50.86 10.48 53.96 10.52 57.06 10.56 C60.19 10.61 63.33 10.65 66.46 10.71 C68.4 10.74 70.34 10.76 72.28 10.79 C73.59 10.81 73.59 10.81 74.91 10.83 C76.06 10.84 76.06 10.84 77.24 10.86 C79 11 79 11 80 12 C83.83 12.17 87.27 11.88 91 11 C90.67 11.99 90.34 12.98 90 14 C88.39 14.18 88.39 14.18 86.75 14.37 C85.36 14.54 83.96 14.71 82.56 14.88 C81.5 14.99 81.5 14.99 80.42 15.11 C78.6 15.34 76.8 15.66 75 16 C74.67 16.66 74.34 17.32 74 18 C68.72 17.34 63.44 16.68 58 16 C58 15.34 58 14.68 58 14 C62.45 13.5 62.45 13.5 67 13 C57.43 13 47.86 13 38 13 C38 13.66 38 14.32 38 15 C32.82 15.24 28.92 14.83 24 13 C22.17 12.49 20.34 11.99 18.5 11.5 C12.09 9.77 6.07 7.67 0 5 C0 3.35 0 1.7 0 0 Z " fill="#E3E6EB" transform="translate(214,219)"/><path d="M0 0 C0.63 0.02 1.26 0.04 1.91 0.06 C3.35 0.1 4.78 0.16 6.21 0.22 C9.01 0.32 11.81 0.35 14.61 0.38 C16.68 0.41 18.75 0.46 20.81 0.5 C21.81 0.51 22.8 0.51 23.83 0.52 C25.25 0.56 25.25 0.56 26.7 0.61 C27.54 0.62 28.38 0.64 29.25 0.65 C31.69 1.31 31.69 1.31 36.69 6.31 C23.16 6.31 9.63 6.31 -4.31 6.31 C-4.31 6.97 -4.31 7.63 -4.31 8.31 C-2.75 9.67 -2.75 9.67 -0.81 10.94 C-0.16 11.38 0.49 11.83 1.16 12.29 C1.66 12.63 2.17 12.96 2.69 13.31 C2.36 15.29 2.03 17.27 1.69 19.31 C1.03 19.31 0.37 19.31 -0.31 19.31 C-0.64 20.3 -0.97 21.29 -1.31 22.31 C-2.77 19.67 -3.31 18.42 -3.31 15.31 C-5.69 13.7 -5.69 13.7 -8.31 12.31 C-10.31 10.31 -10.31 10.31 -10.69 7.44 C-10.31 4.31 -10.31 4.31 -8.68 2.14 C-5.57 -0.26 -3.9 -0.13 0 0 Z " fill="#51491F" transform="translate(76.3125,49.6875)"/><path d="M0 0 C5.28 0 10.56 0 16 0 C16 2.67 16 5.33 16 8 C15.34 8 14.68 8 14 8 C14.33 11.3 14.66 14.6 15 18 C13.68 18 12.36 18 11 18 C11 16.02 11 14.04 11 12 C11.66 12 12.32 12 13 12 C13 10.68 13 9.36 13 8 C11.35 8 9.7 8 8 8 C8 8.66 8 9.32 8 10 C8.66 10 9.32 10 10 10 C10 12.64 10 15.28 10 18 C4.33 18 -1.33 18 -7 18 C-7 16.33 -7 14.67 -7 13 C-3.54 12.5 -3.54 12.5 0 12 C0.38 10.01 0.71 8.01 1 6 C0.67 5.67 0.34 5.34 0 5 C0 3.35 0 1.7 0 0 Z " fill="#A8E2A4" transform="translate(32,97)"/><path d="M0 0 C4.95 0 9.9 0 15 0 C15.98 2.93 16.08 4.96 16 8 C15.34 8 14.68 8 14 8 C13.67 9.32 13.34 10.64 13 12 C13 10.68 13 9.36 13 8 C11.35 8 9.7 8 8 8 C8 8.99 8 9.98 8 11 C8.99 11.33 9.98 11.66 11 12 C10.09 11.81 9.19 11.63 8.25 11.44 C5.32 11.04 3.74 11.05 1 12 C1 10.68 1 9.36 1 8 C0.34 8 -0.32 8 -1 8 C-1 9.32 -1 10.64 -1 12 C-1.66 12 -2.32 12 -3 12 C-3 10.68 -3 9.36 -3 8 C-3.66 8.66 -4.32 9.32 -5 10 C-5 10.66 -5 11.32 -5 12 C-8.63 12 -12.26 12 -16 12 C-16 10.35 -16 8.7 -16 7 C-8.08 6.5 -8.08 6.5 0 6 C0 4.02 0 2.04 0 0 Z " fill="#63D25A" transform="translate(442,19)"/><path d="M0 0 C5.28 0 10.56 0 16 0 C15.67 1.65 15.34 3.3 15 5 C15.33 5.66 15.66 6.32 16 7 C15.34 7 14.68 7 14 7 C13.67 8.32 13.34 9.64 13 11 C13 9.68 13 8.36 13 7 C11.35 7 9.7 7 8 7 C8 7.99 8 8.98 8 10 C8.66 10.33 9.32 10.66 10 11 C7.03 11 4.06 11 1 11 C1 9.68 1 8.36 1 7 C0.01 7 -0.98 7 -2 7 C-2.33 8.32 -2.66 9.64 -3 11 C-3 9.68 -3 8.36 -3 7 C-3.66 7.66 -4.32 8.32 -5 9 C-5 9.66 -5 10.32 -5 11 C-8.3 11 -11.6 11 -15 11 C-14.01 10.67 -13.02 10.34 -12 10 C-12 9.01 -12 8.02 -12 7 C-12.99 7.33 -13.98 7.66 -15 8 C-15 7.34 -15 6.68 -15 6 C-10.04 4.68 -5.09 4.91 0 5 C0 3.35 0 1.7 0 0 Z " fill="#35C729" transform="translate(38,226)"/><path d="M0 0 C4.14 0.58 6.98 1.96 10.54 4.13 C11.05 4.45 11.57 4.76 12.11 5.09 C13.76 6.09 15.41 7.11 17.06 8.12 C18.68 9.11 20.3 10.1 21.92 11.09 C22.99 11.74 24.07 12.4 25.14 13.05 C30.71 16.45 36.35 19.73 42 23 C41.67 23.66 41.34 24.32 41 25 C40.44 24.71 39.89 24.42 39.31 24.12 C35.93 22.48 32.96 21.11 29.19 20.69 C25.46 19.88 23.1 18.36 19.96 16.27 C18.22 15.14 16.5 14.2 14.62 13.31 C12 12 12 12 10 10 C9.34 9.67 8.68 9.34 8 9 C8 7.68 8 6.36 8 5 C7.05 4.73 6.1 4.46 5.12 4.19 C1.23 2.71 1.23 2.71 0 0 Z " fill="#E7EBEB" transform="translate(228,97)"/><path d="M0 0 C3.3 0 6.6 0 10 0 C9.01 0.5 9.01 0.5 8 1 C8.33 1.66 8.66 2.32 9 3 C9.68 2.96 10.36 2.92 11.06 2.88 C20.24 3.27 29.12 8.2 36.81 12.88 C40.84 15.31 44.9 17.68 49 20 C48.5 21.48 48.5 21.48 48 23 C43 20 43 20 40.75 18.62 C37.58 16.75 34.36 14.97 31.13 13.2 C29.52 12.29 27.94 11.32 26.38 10.31 C20.35 6.99 10.63 4.32 3.79 5.32 C1.78 5.94 1.78 5.94 0 8 C0 7.34 0 6.68 0 6 C-1.98 6 -3.96 6 -6 6 C-5.67 4.68 -5.34 3.36 -5 2 C-3.35 2.33 -1.7 2.66 0 3 C0 2.01 0 1.02 0 0 Z " fill="#AEE2AB" transform="translate(159,66)"/><path d="M0 0 C3.63 0 7.26 0 11 0 C11 0.99 11 1.98 11 3 C11.66 3 12.32 3 13 3 C13 2.01 13 1.02 13 0 C14.43 0.11 14.43 0.11 15.89 0.22 C23.61 0.78 31.26 1.14 39 1 C39.5 2.48 39.5 2.48 40 4 C31.28 4.97 22.58 5.14 13.81 5.19 C12.13 5.21 12.13 5.21 10.41 5.23 C9.35 5.23 8.3 5.23 7.21 5.23 C6.25 5.23 5.3 5.24 4.32 5.24 C2 5 2 5 0 3 C0 2.01 0 1.02 0 0 Z " fill="#C8EAC6" transform="translate(231,48)"/><path d="M0 0 C0.66 2.31 1.32 4.62 2 7 C1.42 6.81 0.85 6.63 0.25 6.44 C-2.26 5.95 -3.64 6.02 -6 7 C-6.33 7.99 -6.66 8.98 -7 10 C-8.65 10.33 -10.3 10.66 -12 11 C-12 10.34 -12 9.68 -12 9 C-12.99 9 -13.98 9 -15 9 C-14.67 9.99 -14.34 10.98 -14 12 C-15.12 12.36 -16.25 12.72 -17.38 13.06 C-18 13.26 -18.63 13.46 -19.27 13.66 C-21 14 -21 14 -23 13 C-22.41 10.34 -21.75 8.53 -19.47 6.92 C-6 0 -6 0 0 0 Z " fill="#273945" transform="translate(374,194)"/><path d="M0 0 C5.28 0 10.56 0 16 0 C16 1.67 16 3.33 16 5 C13.03 5.66 10.06 6.32 7 7 C7 8.32 7 9.64 7 11 C7.66 11.33 8.32 11.66 9 12 C8.67 13.32 8.34 14.64 8 16 C7.67 15.34 7.34 14.68 7 14 C4.47 13.34 4.47 13.34 2 13 C2.99 12.67 3.98 12.34 5 12 C5 10.02 5 8.04 5 6 C3.35 5.67 1.7 5.34 0 5 C0 3.35 0 1.7 0 0 Z " fill="#61D258" transform="translate(32,97)"/><path d="M0 0 C10.67 0 21.33 0 32 0 C31.01 0.5 31.01 0.5 30 1 C29.35 3.02 29.35 3.02 29 5 C29 3.68 29 2.36 29 1 C27.35 1 25.7 1 24 1 C24 1.99 24 2.98 24 4 C24.99 4.33 25.98 4.66 27 5 C26.09 4.81 25.19 4.63 24.25 4.44 C21.32 4.04 19.74 4.05 17 5 C17 3.68 17 2.36 17 1 C16.34 1 15.68 1 15 1 C15 2.32 15 3.64 15 5 C14.34 5 13.68 5 13 5 C13 3.68 13 2.36 13 1 C12.34 1.66 11.68 2.32 11 3 C11 3.66 11 4.32 11 5 C7.37 5 3.74 5 0 5 C0 3.35 0 1.7 0 0 Z " fill="#DEF1DF" transform="translate(426,26)"/><path d="M0 0 C1.75 -0.05 3.5 -0.09 5.25 -0.12 C6.22 -0.15 7.2 -0.17 8.2 -0.2 C11.02 0 12.61 0.55 15 2 C15.33 1.67 15.66 1.34 16 1 C16.66 1 17.32 1 18 1 C18 2.32 18 3.64 18 5 C7.97 5.18 -1.99 4.63 -12 4 C-12 3.34 -12 2.68 -12 2 C-8.04 2 -4.08 2 0 2 C0 1.34 0 0.68 0 0 Z " fill="#F4F9F7" transform="translate(209,47)"/><path d="M0 0 C10.23 0 20.46 0 31 0 C30.01 0.5 30.01 0.5 29 1 C28.35 3.02 28.35 3.02 28 5 C28 3.68 28 2.36 28 1 C26.35 1 24.7 1 23 1 C23 1.99 23 2.98 23 4 C23.66 4.33 24.32 4.66 25 5 C22.03 5 19.06 5 16 5 C16 3.68 16 2.36 16 1 C15.01 1 14.02 1 13 1 C12.67 2.32 12.34 3.64 12 5 C12 3.68 12 2.36 12 1 C11.34 1.66 10.68 2.32 10 3 C10 3.66 10 4.32 10 5 C6.7 5 3.4 5 0 5 C0.99 4.67 1.98 4.34 3 4 C3 3.01 3 2.02 3 1 C2.01 1.33 1.02 1.66 0 2 C0 1.34 0 0.68 0 0 Z " fill="#DCF1DC" transform="translate(23,232)"/><path d="M0 0 C7.33 0 14.67 0 22 0 C22 1.65 22 3.3 22 5 C14.41 5 6.82 5 -1 5 C-1 4.34 -1 3.68 -1 3 C-0.34 2.67 0.32 2.34 1 2 C0.67 1.34 0.34 0.68 0 0 Z " fill="#B5E6B2" transform="translate(436,32)"/><path d="M0 0 C6.93 0 13.86 0 21 0 C21.33 1.65 21.66 3.3 22 5 C14.1 5.33 7.37 5.2 0 2 C0 1.34 0 0.68 0 0 Z " fill="#DCE2DF" transform="translate(124,44)"/><path d="M0 0 C1.65 0 3.3 0 5 0 C5 1.32 5 2.64 5 4 C5.66 4 6.32 4 7 4 C7 2.68 7 1.36 7 0 C7.66 0 8.32 0 9 0 C9 1.32 9 2.64 9 4 C9.66 3.34 10.32 2.68 11 2 C13.62 2.38 13.62 2.38 16 3 C16 2.01 16 1.02 16 0 C18.31 0 20.62 0 23 0 C23 1.65 23 3.3 23 5 C21.02 5 19.04 5 17 5 C16.67 5.99 16.34 6.98 16 8 C15.67 7.34 15.34 6.68 15 6 C14.02 6.02 13.05 6.05 12.04 6.07 C10.76 6.09 9.47 6.11 8.19 6.12 C7.22 6.15 7.22 6.15 6.24 6.18 C0.37 6.24 0.37 6.24 -2 4 C-1.34 3.34 -0.68 2.68 0 2 C0 1.34 0 0.68 0 0 Z " fill="#2EC621" transform="translate(434,27)"/><path d="M0 0 C13.06 0.04 22.2 4.82 33 12 C29.99 12.93 29.13 13.04 26 12 C26 11.34 26 10.68 26 10 C25.28 9.9 24.56 9.79 23.81 9.69 C21 9 21 9 18.75 7.56 C15.5 5.72 12.53 5.12 8.89 4.43 C7 4 7 4 6 3 C4 2.96 2 2.96 0 3 C0 2.01 0 1.02 0 0 Z " fill="#ECF1EF" transform="translate(167,67)"/><path d="M0 0 C0.7 0.01 1.41 0.02 2.13 0.04 C3.18 0.05 3.18 0.05 4.25 0.06 C5.24 0.08 5.24 0.08 6.26 0.1 C7.25 0.1 8.24 0.1 9.26 0.1 C9.26 1.75 9.26 3.4 9.26 5.1 C6.51 5.88 4.12 6.2 1.26 6.1 C0.93 8.08 0.6 10.06 0.26 12.1 C-1.06 11.77 -2.38 11.44 -3.74 11.1 C-3.74 0.21 -3.74 0.21 0 0 Z " fill="#88DB82" transform="translate(53.7421875,102.90234375)"/><path d="M0 0 C2.97 0 5.94 0 9 0 C9 0.66 9 1.32 9 2 C8.34 2 7.68 2 7 2 C7.33 5.3 7.66 8.6 8 12 C6.68 12 5.36 12 4 12 C4 10.02 4 8.04 4 6 C4.66 6 5.32 6 6 6 C6 4.68 6 3.36 6 2 C4.35 2 2.7 2 1 2 C1 2.66 1 3.32 1 4 C1.66 4 2.32 4 3 4 C3 6.64 3 9.28 3 12 C1.35 11.67 -0.3 11.34 -2 11 C-2 9.68 -2 8.36 -2 7 C-1.01 7.33 -0.02 7.66 1 8 C1.33 7.34 1.66 6.68 2 6 C1.01 5.67 0.02 5.34 -1 5 C-0.67 3.35 -0.34 1.7 0 0 Z " fill="#9FE09B" transform="translate(39,103)"/><path d="M0 0 C-0.57 0.27 -1.14 0.54 -1.72 0.81 C-7.16 3.57 -10.74 6.51 -14.49 11.33 C-16 13 -16 13 -19 14 C-20.01 18.17 -20.12 22.05 -20.06 26.31 C-20.06 26.96 -20.05 27.6 -20.05 28.27 C-20.04 29.85 -20.02 31.42 -20 33 C-22.72 30.28 -22.33 28.68 -22.38 24.88 C-22.31 19.08 -21.8 14.54 -18 10 C-5.76 -1.92 -5.76 -1.92 0 0 Z " fill="#BD0B0D" transform="translate(33,158)"/><path d="M0 0 C4.62 1.65 9.24 3.3 14 5 C13.67 5.99 13.34 6.98 13 8 C14.65 8.33 16.3 8.66 18 9 C17.67 9.66 17.34 10.32 17 11 C16.09 10.69 15.19 10.38 14.25 10.06 C11.24 9.02 11.24 9.02 9.06 8.56 C5.91 7.7 2.98 6.33 0 5 C0 3.35 0 1.7 0 0 Z " fill="#DDE5E1" transform="translate(214,219)"/><path d="M0 0 C0.99 0.33 1.98 0.66 3 1 C3 1.66 3 2.32 3 3 C1.25 4.21 -0.46 5.27 -2.31 6.31 C-2.85 6.62 -3.39 6.92 -3.94 7.24 C-14.62 13.23 -14.62 13.23 -20 15 C-20.99 14.67 -21.98 14.34 -23 14 C-22.67 13.34 -22.34 12.68 -22 12 C-21.4 12.06 -20.8 12.12 -20.19 12.19 C-17.42 11.95 -16.83 10.99 -15 9 C-14.34 9 -13.68 9 -13 9 C-12.59 8.55 -12.18 8.09 -11.75 7.62 C-10 6 -10 6 -7.06 5.06 C-3.75 3.91 -2.27 2.62 0 0 Z " fill="#AAE0A7" transform="translate(450,170)"/><path d="M0 0 C0 0.66 0 1.32 0 2 C-0.86 2.29 -1.73 2.57 -2.62 2.87 C-4.77 3.59 -6.92 4.32 -9.07 5.07 C-10.58 5.59 -10.58 5.59 -12.12 6.12 C-13.14 6.48 -14.15 6.83 -15.2 7.2 C-17.66 7.9 -19.47 8.18 -22 8 C-21.67 6.68 -21.34 5.36 -21 4 C-21.66 3.67 -22.32 3.34 -23 3 C-16.25 1.88 -16.25 1.88 -14 3 C-11.67 2.45 -11.67 2.45 -9.12 1.56 C-5.95 0.5 -3.36 -0.2 0 0 Z " fill="#ADE1AB" transform="translate(329,223)"/><path d="M0 0 C0.99 0.33 1.98 0.66 3 1 C-0.45 4.94 -0.45 4.94 -3.25 5.25 C-3.83 5.17 -4.4 5.09 -5 5 C-5.33 5.66 -5.66 6.32 -6 7 C-7.78 7.78 -7.78 7.78 -9.94 8.5 C-12.7 9.42 -13.89 9.89 -16 12 C-18.12 11.62 -18.12 11.62 -20 11 C-18.82 8.53 -17.95 7.98 -15.4 6.83 C-14.4 6.5 -13.4 6.16 -12.38 5.81 C-11.37 5.47 -10.37 5.12 -9.34 4.77 C-8.18 4.39 -8.18 4.39 -7 4 C-7 3.01 -7 2.02 -7 1 C-5.55 1.03 -5.55 1.03 -4.06 1.06 C-1.13 1.36 -1.13 1.36 0 0 Z " fill="#A3DFA0" transform="translate(424,184)"/><path d="M0 0 C-1.6 3.2 -4.72 3.9 -8 5 C-10.44 5.19 -10.44 5.19 -12 5 C-12.21 5.64 -12.41 6.28 -12.62 6.94 C-14 9 -14 9 -16.62 9.56 C-18.3 9.78 -18.3 9.78 -20 10 C-22.71 10.9 -25.35 11.93 -28 13 C-27 10 -27 10 -25.08 8.85 C-24.26 8.49 -23.44 8.14 -22.6 7.77 C-21.26 7.19 -21.26 7.19 -19.9 6.59 C-18.96 6.19 -18.03 5.79 -17.06 5.38 C-16.13 4.97 -15.2 4.56 -14.24 4.14 C-12.51 3.39 -10.78 2.64 -9.05 1.89 C-5.69 0.43 -3.72 -0.1 0 0 Z " fill="#E1E3ED" transform="translate(418,187)"/><path d="M0 0 C1.46 0.75 2.93 1.5 4.39 2.25 C7.5 3.7 10.65 4.37 14 5 C13.01 5.5 13.01 5.5 12 6 C13.94 8.1 13.94 8.1 16.5 9.5 C19 11 19 11 21 13 C17.67 13.24 15.68 12.56 12.75 11 C12.04 10.63 11.34 10.26 10.61 9.88 C10.08 9.59 9.55 9.3 9 9 C9 8.34 9 7.68 9 7 C8.46 6.92 7.93 6.83 7.38 6.75 C4.11 5.72 1.79 3.97 -1 2 C-0.67 1.34 -0.34 0.68 0 0 Z " fill="#D1E5D2" transform="translate(260,117)"/><path d="M0 0 C0.33 0 0.66 0 1 0 C1 1.65 1 3.3 1 5 C2.65 5.33 4.3 5.66 6 6 C5.67 7.65 5.34 9.3 5 11 C4.44 10.81 3.89 10.63 3.31 10.44 C0.6 9.92 -1.34 10.34 -4 11 C-4 9 -4 7 -4 5 C-3.01 4.67 -2.02 4.34 -1 4 C-0.27 1.98 -0.27 1.98 0 0 Z " fill="#5CD053" transform="translate(36,233)"/><path d="M0 0 C5.94 0 11.88 0 18 0 C18 0.99 18 1.98 18 3 C13.55 3.49 13.55 3.49 9 4 C9 4.33 9 4.66 9 5 C6.69 5 4.38 5 2 5 C1.34 3.35 0.68 1.7 0 0 Z " fill="#B6E3B4" transform="translate(281,50)"/><path d="M0 0 C0.66 0.33 1.32 0.66 2 1 C-0.97 3.47 -0.97 3.47 -4 6 C-2.85 3.53 -1.95 1.95 0 0 Z M-12 3 C-8.88 3.38 -8.88 3.38 -6 4 C-6 4.66 -6 5.32 -6 6 C-5.34 6.33 -4.68 6.66 -4 7 C-4.62 8.5 -4.62 8.5 -6 10 C-9.12 10.19 -9.12 10.19 -12 10 C-12.66 8.35 -13.32 6.7 -14 5 C-13.34 4.34 -12.68 3.68 -12 3 Z " fill="#31323A" transform="translate(289,152)"/><path d="M0 0 C1.22 0.05 1.22 0.05 2.46 0.11 C3.28 0.13 4.1 0.16 4.94 0.19 C5.88 0.24 5.88 0.24 6.84 0.29 C5.85 2.6 4.86 4.91 3.84 7.29 C1.86 7.29 -0.12 7.29 -2.16 7.29 C-2.82 5.97 -3.48 4.65 -4.16 3.29 C-3.05 0.95 -2.64 0.36 0 0 Z " fill="#303139" transform="translate(192.1640625,211.70703125)"/><path d="M0 0 C7.31 0.16 12.09 4.01 18 8 C18.94 8.53 19.87 9.06 20.84 9.6 C21.55 10.06 22.26 10.52 23 11 C23 11.66 23 12.32 23 13 C18.55 12.58 15.64 10.66 12 8.27 C10.24 7.15 8.5 6.21 6.62 5.31 C3.79 3.9 2.22 2.22 0 0 Z " fill="#B4E3B2" transform="translate(236,105)"/><path d="M0 0 C3.63 0 7.26 0 11 0 C11.33 0.66 11.66 1.32 12 2 C12.66 1.34 13.32 0.68 14 0 C14 1.65 14 3.3 14 5 C9.38 5 4.76 5 0 5 C0 3.35 0 1.7 0 0 Z " fill="#D1EED0" transform="translate(55,232)"/><path d="M0 0 C0.12 2.38 0.12 2.38 0 5 C-0.66 5.66 -1.32 6.32 -2 7 C-4.41 6.97 -6.62 6.44 -9 6 C-9 5.34 -9 4.68 -9 4 C-9.66 3.67 -10.32 3.34 -11 3 C-10.34 3 -9.68 3 -9 3 C-9 2.34 -9 1.68 -9 1 C-6 -0.5 -3.34 -0.06 0 0 Z " fill="#2E2F37" transform="translate(296,191)"/><path d="M0 0 C4.67 0 9.33 0 14 0 C14 1.65 14 3.3 14 5 C9.33 5 4.67 5 0 5 C0 3.35 0 1.7 0 0 Z " fill="#C7EBC6" transform="translate(459,26)"/><path d="M0 0 C3.3 0 6.6 0 10 0 C10 1.98 10 3.96 10 6 C9.28 5.81 8.56 5.63 7.81 5.44 C4.87 4.98 2.86 5.26 0 6 C0 4.02 0 2.04 0 0 Z " fill="#9CDF98" transform="translate(16,103)"/><path d="M0 0 C2.14 0.86 2.14 0.86 4.69 2.19 C6.03 2.89 6.03 2.89 7.4 3.6 C12.35 6.27 17.19 9.09 22 12 C21.67 12.99 21.34 13.98 21 15 C16 12 16 12 13.75 10.62 C10.6 8.76 7.4 7.02 4.18 5.28 C1.99 3.99 0 2.56 -2 1 C-1.34 0.67 -0.68 0.34 0 0 Z " fill="#A2DF9E" transform="translate(186,74)"/><path d="M0 0 C5.28 0 10.56 0 16 0 C16 1.65 16 3.3 16 5 C11.31 5.27 11.31 5.27 9 5 C7.98 4.02 6.98 3.02 6 2 C2.87 1.75 2.87 1.75 0 2 C0 1.34 0 0.68 0 0 Z " fill="#C4DCC5" transform="translate(96,43)"/><path d="M0 0 C0 1.65 0 3.3 0 5 C-0.99 5 -1.98 5 -3 5 C-3 4.34 -3 3.68 -3 3 C-3.89 3.35 -4.77 3.7 -5.69 4.06 C-9.06 5.02 -10.7 4.97 -14 4 C-14.33 4.66 -14.66 5.32 -15 6 C-15 5.01 -15 4.02 -15 3 C-16.65 3 -18.3 3 -20 3 C-20 2.67 -20 2.34 -20 2 C-17.6 1.66 -15.21 1.33 -12.81 1 C-11.8 0.86 -11.8 0.86 -10.77 0.71 C-7.15 0.22 -3.67 -0.11 0 0 Z " fill="#DBDDE3" transform="translate(308,227)"/><path d="M0 0 C2.17 1.01 2.94 1.67 3.88 3.88 C3.54 4.87 3.22 5.85 2.88 6.88 C-1.58 7.37 -1.58 7.37 -6.12 7.88 C-6.38 5.56 -6.38 5.56 -6.12 2.88 C-4.08 0.68 -3.04 -0.18 0 0 Z " fill="#37373F" transform="translate(130.125,146.125)"/><path d="M0 0 C3.63 0 7.26 0 11 0 C11 0.33 11 0.66 11 1 C9.35 1 7.7 1 6 1 C6 1.66 6 2.32 6 3 C9.47 2.51 9.47 2.51 13 2 C13.33 2.99 13.66 3.98 14 5 C9.05 5 4.1 5 -1 5 C-0.67 3.35 -0.34 1.7 0 0 Z " fill="#EAF0EE" transform="translate(90,42)"/><path d="M0 0 C5.94 0 11.88 0 18 0 C18 0.99 18 1.98 18 3 C12.06 3 6.12 3 0 3 C0 2.01 0 1.02 0 0 Z " fill="#CAE6CD" transform="translate(253,232)"/><path d="M0 0 C0.66 0.66 1.32 1.32 2 2 C1.62 4.12 1.62 4.12 1 6 C-1.31 6 -3.62 6 -6 6 C-5.67 5.01 -5.34 4.02 -5 3 C-5.99 3.33 -6.98 3.66 -8 4 C-7.62 2.06 -7.62 2.06 -7 0 C-4.29 -1.35 -2.87 -0.79 0 0 Z " fill="#2E3038" transform="translate(274,213)"/><path d="M0 0 C2.31 0 4.62 0 7 0 C7.62 2.38 7.62 2.38 8 5 C7.34 5.66 6.68 6.32 6 7 C3.59 6.97 1.38 6.44 -1 6 C-0.67 4.02 -0.34 2.04 0 0 Z " fill="#3A3A42" transform="translate(16,202)"/><path d="M0 0 C2.64 0 5.28 0 8 0 C8.04 2 8.04 4 8 6 C7 7 7 7 4.56 7.19 C2 7 2 7 0 5 C-0.12 2.38 -0.12 2.38 0 0 Z " fill="#515259" transform="translate(83,182)"/><path d="M0 0 C1.77 0.01 3.54 0.1 5.31 0.2 C5.64 1.19 5.97 2.18 6.31 3.2 C13.24 3.69 13.24 3.69 20.31 4.2 C20.31 4.53 20.31 4.86 20.31 5.2 C16.87 5.26 13.43 5.29 10 5.32 C9.02 5.34 8.04 5.36 7.04 5.38 C6.1 5.38 5.16 5.39 4.2 5.39 C3.33 5.41 2.47 5.42 1.58 5.43 C-0.8 5.19 -1.87 4.7 -3.69 3.2 C-2.9 1.08 -2.29 0.27 0 0 Z " fill="#C0D3C2" transform="translate(154.69140625,44.80078125)"/><path d="M0 0 C0.52 0.19 1.03 0.37 1.56 0.56 C4.92 1.17 7.64 0.58 11 0 C11 1.98 11 3.96 11 6 C8.36 6 5.72 6 3 6 C2.67 5.34 2.34 4.68 2 4 C1.01 4.5 1.01 4.5 0 5 C0 3.35 0 1.7 0 0 Z " fill="#C4EAC3" transform="translate(43,238)"/><path d="M0 0 C4.54 1.35 8.33 3.17 12.38 5.62 C12.92 5.95 13.47 6.27 14.03 6.61 C15.35 7.4 16.68 8.2 18 9 C17.67 9.99 17.34 10.98 17 12 C3.64 5.64 3.64 5.64 -1 1 C-0.67 0.67 -0.34 0.34 0 0 Z " fill="#ADE2AA" transform="translate(218,93)"/><path d="M0 0 C3.63 0 7.26 0 11 0 C11 0.99 11 1.98 11 3 C11.66 3.66 12.32 4.32 13 5 C11.21 5.05 9.42 5.09 7.62 5.12 C6.63 5.15 5.63 5.17 4.6 5.2 C2 5 2 5 0 3 C0 2.01 0 1.02 0 0 Z " fill="#C6DBC7" transform="translate(231,48)"/><path d="M0 0 C-0.33 0.66 -0.66 1.32 -1 2 C-2.69 2.5 -4.39 2.99 -6.1 3.43 C-8.91 4.27 -11.4 5.65 -14 7 C-15.66 7.69 -17.32 8.36 -19 9 C-19.33 8.01 -19.66 7.02 -20 6 C-18.82 5.66 -18.82 5.66 -17.62 5.31 C-13.62 4.02 -10.04 1.96 -6.37 -0.07 C-3.71 -1.11 -2.62 -1 0 0 Z " fill="#B0E1AE" transform="translate(404,196)"/><path d="M0 0 C0.66 0.66 1.32 1.32 2 2 C1.62 4.63 1.62 4.63 1 7 C-0.98 7 -2.96 7 -5 7 C-5.33 6.01 -5.66 5.02 -6 4 C-6.66 3.34 -7.32 2.68 -8 2 C-5.39 -0.2 -3.36 -0.34 0 0 Z " fill="#2F3038" transform="translate(489,94)"/><path d="M0 0 C2.01 0.29 4.01 0.62 6 1 C6.33 3.31 6.66 5.62 7 8 C4.69 7.67 2.38 7.34 0 7 C-0.38 5.01 -0.71 3.01 -1 1 C-0.67 0.67 -0.34 0.34 0 0 Z " fill="#303139" transform="translate(481,59)"/><path d="M0 0 C-0.33 0.99 -0.66 1.98 -1 3 C-2.66 3.53 -4.33 4.05 -6.03 4.46 C-8.01 5 -9.76 5.72 -11.62 6.56 C-14.39 7.8 -16.99 8.54 -20 9 C-19.27 7.07 -19.27 7.07 -18 5 C-16.05 4.28 -16.05 4.28 -13.75 3.94 C-10.76 3.4 -8.3 2.82 -5.62 1.38 C-3 0 -3 0 0 0 Z " fill="#A4DFA0" transform="translate(351,215)"/><path d="M0 0 C3.97 0.61 6.79 2.74 10 5 C11.06 5.71 12.12 6.42 13.19 7.12 C15.12 8.42 17.06 9.71 19 11 C15.12 11.42 12.83 10.03 9.5 8.12 C6.36 6.34 3.25 4.58 0 3 C0 2.01 0 1.02 0 0 Z " fill="#9BDD97" transform="translate(281,130)"/><path d="M0 0 C1.94 0.69 1.94 0.69 3.94 1.69 C3.61 3.34 3.28 4.99 2.94 6.69 C0.63 6.69 -1.68 6.69 -4.06 6.69 C-4.39 5.04 -4.72 3.39 -5.06 1.69 C-3.19 0.09 -2.49 -0.38 0 0 Z " fill="#3A3A43" transform="translate(55.0625,141.3125)"/><path d="M0 0 C2.88 -0.19 2.88 -0.19 6 0 C7.38 1.31 7.38 1.31 8 3 C8 3.99 8 4.98 8 6 C5.36 6 2.72 6 0 6 C0 4.02 0 2.04 0 0 Z " fill="#24252D" transform="translate(312,137)"/><path d="M0 0 C0.66 0 1.32 0 2 0 C2.66 3.63 3.32 7.26 4 11 C2.35 11.33 0.7 11.66 -1 12 C-1.66 11.34 -2.32 10.68 -3 10 C-3 9.34 -3 8.68 -3 8 C-2.34 8 -1.68 8 -1 8 C-1.33 6.02 -1.66 4.04 -2 2 C-1.34 2 -0.68 2 0 2 C0 1.34 0 0.68 0 0 Z " fill="#49CD3E" transform="translate(48,103)"/><path d="M0 0 C2.97 0 5.94 0 9 0 C9.33 1.65 9.66 3.3 10 5 C8.68 5.33 7.36 5.66 6 6 C6 5.34 6 4.68 6 4 C5.34 3.67 4.68 3.34 4 3 C4.33 3.99 4.66 4.98 5 6 C3.33 6 1.67 6 0 6 C0 4.02 0 2.04 0 0 Z " fill="#BAE6B8" transform="translate(448,19)"/><path d="M0 0 C3.3 0 6.6 0 10 0 C10 1.65 10 3.3 10 5 C9.34 5 8.68 5 8 5 C7.67 3.68 7.34 2.36 7 1 C7 2.32 7 3.64 7 5 C4.69 5 2.38 5 0 5 C0 3.35 0 1.7 0 0 Z " fill="#B6E8B4" transform="translate(32,97)"/><path d="M0 0 C2.97 0.33 5.94 0.66 9 1 C9 1.99 9 2.98 9 4 C10.32 4.33 11.64 4.66 13 5 C8.71 5 4.42 5 0 5 C0 3.35 0 1.7 0 0 Z " fill="#F6F9FB" transform="translate(244,48)"/><path d="M0 0 C0.66 2.31 1.32 4.62 2 7 C1.42 6.81 0.85 6.63 0.25 6.44 C-2.24 5.95 -3.64 6.1 -6 7 C-6.33 7.66 -6.66 8.32 -7 9 C-7 8.34 -7 7.68 -7 7 C-7.66 6.67 -8.32 6.34 -9 6 C-7.68 5.67 -6.36 5.34 -5 5 C-4.81 4.04 -4.81 4.04 -4.62 3.06 C-4.42 2.38 -4.21 1.7 -4 1 C-2 0 -2 0 0 0 Z " fill="#2E2F37" transform="translate(374,194)"/><path d="M0 0 C0.64 0.02 1.28 0.04 1.94 0.06 C1.61 1.05 1.28 2.04 0.94 3.06 C-4.43 3.74 -9.65 4.18 -15.06 4.06 C-15.06 3.07 -15.06 2.08 -15.06 1.06 C-13.78 1.08 -13.78 1.08 -12.47 1.1 C-10.82 1.11 -10.82 1.11 -9.12 1.12 C-7.47 1.14 -7.47 1.14 -5.79 1.16 C-2.82 1.05 -2.73 0.08 0 0 Z " fill="#B9E3B7" transform="translate(303.0625,229.9375)"/><path d="M0 0 C2.65 0.11 5.29 0.24 7.94 0.38 C9.07 0.42 9.07 0.42 10.22 0.47 C10.94 0.51 11.66 0.55 12.4 0.59 C13.4 0.63 13.4 0.63 14.42 0.68 C14.94 0.79 15.46 0.89 16 1 C16.33 1.66 16.66 2.32 17 3 C16.34 3 15.68 3 15 3 C15 3.66 15 4.32 15 5 C13.42 4.89 11.83 4.76 10.25 4.62 C9.37 4.56 8.49 4.49 7.58 4.41 C4.98 4 3.23 3.39 1 2 C0.67 1.34 0.34 0.68 0 0 Z " fill="#EAE8F6" transform="translate(420,69)"/><path d="M0 0 C3.67 0 7.33 0 11 0 C11 1.65 11 3.3 11 5 C7.37 5 3.74 5 0 5 C0 3.35 0 1.7 0 0 Z " fill="#C7EBC6" transform="translate(447,32)"/><path d="M0 0 C3.3 0 6.6 0 10 0 C9.67 1.65 9.34 3.3 9 5 C7.02 5 5.04 5 3 5 C2.34 3.68 1.68 2.36 1 1 C0.67 2.32 0.34 3.64 0 5 C0 3.35 0 1.7 0 0 Z " fill="#B4E7B1" transform="translate(44,226)"/><path d="M0 0 C0 0.99 0 1.98 0 3 C-11.52 7.22 -11.52 7.22 -17 9 C-15.97 6.11 -15.33 5.17 -12.54 3.77 C-11.58 3.45 -10.62 3.14 -9.62 2.81 C-8.67 2.49 -7.71 2.17 -6.73 1.83 C-4.49 1.15 -2.27 0.53 0 0 Z " fill="#A6DFA3" transform="translate(383,203)"/><path d="M0 0 C2.97 0.33 5.94 0.66 9 1 C9.33 2.32 9.66 3.64 10 5 C6.7 5 3.4 5 0 5 C0 3.33 0 1.67 0 0 Z " fill="#8DDC88" transform="translate(25,110)"/><path d="M0 0 C2.12 0.94 2.12 0.94 4 2 C3.67 3.65 3.34 5.3 3 7 C0.03 6.67 -2.94 6.34 -6 6 C-6 5.01 -6 4.02 -6 3 C-4.68 3 -3.36 3 -2 3 C-2 2.34 -2 1.68 -2 1 C-1.34 0.67 -0.68 0.34 0 0 Z " fill="#64D35B" transform="translate(461,30)"/><path d="M0 0 C0.33 0.99 0.66 1.98 1 3 C2.32 3 3.64 3 5 3 C5.33 2.34 5.66 1.68 6 1 C6 1.66 6 2.32 6 3 C7.32 3 8.64 3 10 3 C9.67 4.65 9.34 6.3 9 8 C7.68 7.01 6.36 6.02 5 5 C4.01 5.5 4.01 5.5 3 6 C1.27 5.66 1.27 5.66 -0.62 5.06 C-1.26 4.87 -1.89 4.67 -2.54 4.47 C-3.02 4.32 -3.5 4.16 -4 4 C-2.68 2.68 -1.36 1.36 0 0 Z " fill="#FF01FF" transform="translate(110,22)"/><path d="M0 0 C6.3 0.95 10.96 2.02 16 6 C15.34 6.66 14.68 7.32 14 8 C13.58 7.72 13.15 7.45 12.71 7.16 C8.4 4.49 5.05 3.41 0 3 C0 2.01 0 1.02 0 0 Z " fill="#E2E9E6" transform="translate(213,90)"/><path d="M0 0 C1.65 0 3.3 0 5 0 C5 1.32 5 2.64 5 4 C5.66 4 6.32 4 7 4 C7 2.68 7 1.36 7 0 C7.66 0 8.32 0 9 0 C9 1.65 9 3.3 9 5 C2.6 6.23 2.6 6.23 -0.44 5.06 C-0.95 4.71 -1.47 4.36 -2 4 C-1.34 3.34 -0.68 2.68 0 2 C0 1.34 0 0.68 0 0 Z " fill="#27C419" transform="translate(434,27)"/><path d="M0 0 C2.44 0.81 2.44 0.81 5 2 C5.33 2.99 5.66 3.98 6 5 C4.88 5.36 3.75 5.72 2.62 6.06 C2 6.26 1.37 6.46 0.73 6.66 C-1 7 -1 7 -3 6 C-1.12 1.12 -1.12 1.12 0 0 Z " fill="#1F5367" transform="translate(354,201)"/><path d="M0 0 C0.33 0 0.66 0 1 0 C1 1.65 1 3.3 1 5 C-2.05 5.98 -3.95 5.98 -7 5 C-7 3.68 -7 2.36 -7 1 C-4.31 0.1 -2.75 -0.09 0 0 Z " fill="#BAE8B8" transform="translate(62,103)"/><path d="M0 0 C0.99 0 1.98 0 3 0 C3 0.99 3 1.98 3 3 C4.98 3 6.96 3 9 3 C9 3.99 9 4.98 9 6 C6.75 6.75 6.75 6.75 4 7 C1.69 5.25 1.69 5.25 0 3 C0 2.01 0 1.02 0 0 Z " fill="#31323B" transform="translate(150,69)"/><path d="M0 0 C2.64 0 5.28 0 8 0 C8 0.66 8 1.32 8 2 C7.34 2 6.68 2 6 2 C6 2.66 6 3.32 6 4 C2.04 4 -1.92 4 -6 4 C-6 3.67 -6 3.34 -6 3 C-5.2 2.88 -4.39 2.75 -3.56 2.62 C-2.72 2.42 -1.87 2.21 -1 2 C-0.67 1.34 -0.34 0.68 0 0 Z " fill="#D2E4D5" transform="translate(272,50)"/><path d="M0 0 C0.97 0.16 1.94 0.33 2.94 0.5 C4.96 0.86 4.96 0.86 7 1 C7.66 1 8.32 1 9 1 C9 2.32 9 3.64 9 5 C5.04 5 1.08 5 -3 5 C-3 4.67 -3 4.34 -3 4 C-0.69 4 1.62 4 4 4 C2.68 3.67 1.36 3.34 0 3 C0 2.01 0 1.02 0 0 Z " fill="#D2E2D6" transform="translate(218,47)"/><path d="M0 0 C0.8 0.01 1.6 0.02 2.42 0.03 C3.03 0.04 3.63 0.05 4.25 0.06 C3.26 0.56 3.26 0.56 2.25 1.06 C1.6 3.09 1.6 3.09 1.25 5.06 C1.25 3.74 1.25 2.42 1.25 1.06 C-0.4 1.06 -2.05 1.06 -3.75 1.06 C-3.75 2.05 -3.75 3.04 -3.75 4.06 C-3.09 4.39 -2.43 4.72 -1.75 5.06 C-4.06 4.73 -6.37 4.4 -8.75 4.06 C-8.75 3.07 -8.75 2.08 -8.75 1.06 C-5.76 0.19 -3.11 -0.05 0 0 Z " fill="#B9E8B6" transform="translate(49.75,231.9375)"/><path d="M0 0 C0.62 2.06 0.62 2.06 1 4 C-1.31 4.33 -3.62 4.66 -6 5 C-5.67 3.68 -5.34 2.36 -5 1 C-5.66 0.67 -6.32 0.34 -7 0 C-2.25 -1.12 -2.25 -1.12 0 0 Z " fill="#D6DEDE" transform="translate(313,226)"/><path d="M0 0 C2.97 0.5 2.97 0.5 6 1 C6 1.99 6 2.98 6 4 C4 6 4 6 1.88 6.12 C1.26 6.08 0.64 6.04 0 6 C0 4.02 0 2.04 0 0 Z " fill="#505058" transform="translate(422,123)"/><path d="M0 0 C2.64 0.33 5.28 0.66 8 1 C8 2.32 8 3.64 8 5 C2.63 5.88 2.63 5.88 1 6 C0 5 0 5 -0.06 2.44 C-0.04 1.63 -0.02 0.83 0 0 Z " fill="#63646B" transform="translate(98,84)"/><path d="M0 0 C3.37 -0.23 5.41 -0.34 8.38 1.38 C8.91 1.91 9.45 2.45 10 3 C10 3.66 10 4.32 10 5 C6.7 5 3.4 5 0 5 C0.99 4.67 1.98 4.34 3 4 C3 3.01 3 2.02 3 1 C2.01 1.33 1.02 1.66 0 2 C0 1.34 0 0.68 0 0 Z " fill="#E1F3E1" transform="translate(23,232)"/><path d="M0 0 C1.32 0.33 2.64 0.66 4 1 C4.33 2.65 4.66 4.3 5 6 C5.33 5.01 5.66 4.02 6 3 C6 4.32 6 5.64 6 7 C0.25 6.25 0.25 6.25 -2 4 C-1.34 2.68 -0.68 1.36 0 0 Z " fill="#87878D" transform="translate(239,84)"/><path d="M0 0 C0.33 0.66 0.66 1.32 1 2 C0.34 2 -0.32 2 -1 2 C-1 3.32 -1 4.64 -1 6 C-2.32 6.33 -3.64 6.66 -5 7 C-5 6.01 -5 5.02 -5 4 C-5.99 4 -6.98 4 -8 4 C-8 3.01 -8 2.02 -8 1 C-7.05 1.02 -6.1 1.04 -5.12 1.06 C-2.09 1.23 -2.09 1.23 0 0 Z " fill="#2CC61F" transform="translate(54,232)"/><path d="M0 0 C0.98 0.02 1.97 0.04 2.98 0.05 C4.11 0.09 4.11 0.09 5.25 0.12 C4.92 1.12 4.59 2.1 4.25 3.12 C-2.68 2.63 -2.68 2.63 -9.75 2.12 C-5.76 0.13 -4.28 -0.1 0 0 Z " fill="#D7D6E0" transform="translate(474.75,59.875)"/><path d="M0 0 C3.96 0.33 7.92 0.66 12 1 C12 1.66 12 2.32 12 3 C8.04 3 4.08 3 0 3 C0 2.01 0 1.02 0 0 Z " fill="#B0E3AE" transform="translate(196,46)"/><path d="M0 0 C4.62 0 9.24 0 14 0 C14.33 0.66 14.66 1.32 15 2 C11.53 2.87 9.41 2.93 6 2 C4 1.96 2 1.95 0 2 C0 1.34 0 0.68 0 0 Z " fill="#AEE1AB" transform="translate(124,44)"/><path d="M0 0 C2.31 0 4.62 0 7 0 C7 0.99 7 1.98 7 3 C7.66 3.66 8.32 4.32 9 5 C6.69 5 4.38 5 2 5 C1.34 3.35 0.68 1.7 0 0 Z " fill="#BDD9BD" transform="translate(281,50)"/><path d="M0 0 C3.33 0.67 6.67 1.33 10 2 C11.4 2.28 11.4 2.28 12.83 2.57 C13.55 2.71 14.26 2.85 15 3 C14.67 3.99 14.34 4.98 14 6 C12.41 5.57 10.83 5.13 9.25 4.69 C8.37 4.44 7.49 4.2 6.58 3.95 C3.94 2.98 2.15 1.79 0 0 Z " fill="#CFD0D6" transform="translate(215,209)"/><path d="M0 0 C3.91 1.16 6.87 2.36 10 5 C9.67 5.99 9.34 6.98 9 8 C8.26 7.55 7.51 7.09 6.75 6.62 C4.53 5.31 2.32 4.12 0 3 C0 2.01 0 1.02 0 0 Z " fill="#ADE1AA" transform="translate(198,81)"/><path d="M0 0 C3.04 -0.08 5.07 0.02 8 1 C7.67 2.65 7.34 4.3 7 6 C6.67 5.34 6.34 4.68 6 4 C4.02 4 2.04 4 0 4 C0 2.68 0 1.36 0 0 Z " fill="#87878D" transform="translate(153,68)"/><path d="M0 0 C2.64 0 5.28 0 8 0 C8 0.99 8 1.98 8 3 C5.36 3.33 2.72 3.66 0 4 C0 2.68 0 1.36 0 0 Z " fill="#CDE8CF" transform="translate(300,51)"/><path d="M0 0 C0.66 0.99 1.32 1.98 2 3 C0.35 4.65 -1.55 4.17 -3.81 4.19 C-4.69 4.2 -5.56 4.22 -6.46 4.23 C-9 4 -9 4 -13 2 C-8.71 2 -4.42 2 0 2 C0 1.34 0 0.68 0 0 Z " fill="#F0F1F7" transform="translate(299,51)"/><path d="M0 0 C2.12 0.38 2.12 0.38 4 1 C3.67 2.65 3.34 4.3 3 6 C1.68 6 0.36 6 -1 6 C-1.62 4.12 -1.62 4.12 -2 2 C-1.34 1.34 -0.68 0.68 0 0 Z " fill="#5A5B62" transform="translate(58,50)"/><path d="M0 0 C1.98 0 3.96 0 6 0 C6 1.32 6 2.64 6 4 C4.02 4 2.04 4 0 4 C0 2.68 0 1.36 0 0 Z " fill="#909196" transform="translate(190,212)"/><path d="M0 0 C1.32 0 2.64 0 4 0 C4 1.65 4 3.3 4 5 C3.34 5 2.68 5 2 5 C1.67 5.99 1.34 6.98 1 8 C-0.43 5.65 -1.09 4.52 -0.62 1.75 C-0.42 1.17 -0.21 0.59 0 0 Z " fill="#13C003" transform="translate(44,193)"/><path d="M0 0 C1.14 0.09 1.14 0.09 2.31 0.19 C-0.01 2.87 -2.01 3.85 -5.38 4.88 C-6.18 5.13 -6.99 5.38 -7.82 5.64 C-8.75 5.91 -8.75 5.91 -9.69 6.19 C-9.69 5.2 -9.69 4.21 -9.69 3.19 C-9.09 3.25 -8.49 3.31 -7.88 3.38 C-5.6 3.42 -5.6 3.42 -4.25 1.69 C-2.69 0.19 -2.69 0.19 0 0 Z " fill="#ACE1A9" transform="translate(437.6875,178.8125)"/><path d="M0 0 C3.59 1.33 6.84 2.83 10 5 C10 5.66 10 6.32 10 7 C5.01 6.57 3.17 4.62 0 1 C0 0.67 0 0.34 0 0 Z " fill="#B2E1B0" transform="translate(249,111)"/><path d="M0 0 C5.44 0.99 5.44 0.99 11 2 C11.33 2.99 11.66 3.98 12 5 C7.64 4.49 4.03 3.83 0 2 C0 1.34 0 0.68 0 0 Z " fill="#A6E0A3" transform="translate(233,228)"/><path d="M0 0 C-2.58 2.04 -4.98 2.54 -8.19 3.12 C-9.54 3.38 -9.54 3.38 -10.92 3.63 C-11.61 3.75 -12.29 3.88 -13 4 C-12.67 3.01 -12.34 2.02 -12 1 C-8.32 -0.62 -3.95 -0.09 0 0 Z " fill="#E3E2EF" transform="translate(325,223)"/><path d="M0 0 C0.8 0.02 1.6 0.04 2.42 0.05 C3.03 0.08 3.63 0.1 4.25 0.12 C3.92 1.44 3.59 2.76 3.25 4.12 C-2.69 3.13 -2.69 3.13 -8.75 2.12 C-5.01 0.25 -3.91 -0.11 0 0 Z " fill="#CFD9D6" transform="translate(327.75,220.875)"/><path d="M0 0 C-1.41 0.87 -2.83 1.72 -4.25 2.56 C-5.04 3.04 -5.83 3.51 -6.64 4 C-9.31 5.13 -10.35 5.02 -13 4 C-11.59 3.13 -10.17 2.28 -8.75 1.44 C-7.96 0.96 -7.17 0.49 -6.36 -0 C-3.69 -1.13 -2.65 -1.02 0 0 Z " fill="#E6E5F2" transform="translate(432,181)"/><path d="M0 0 C7.43 -0.14 7.43 -0.14 11 1 C11 1.66 11 2.32 11 3 C9.06 3.56 9.06 3.56 7 4 C6.67 3.67 6.34 3.34 6 3 C4 2.96 2 2.96 0 3 C0 2.01 0 1.02 0 0 Z " fill="#F5F7FA" transform="translate(167,67)"/><path d="M0 0 C3.3 0 6.6 0 10 0 C9.01 0.5 9.01 0.5 8 1 C8 1.66 8 2.32 8 3 C6.68 2.67 5.36 2.34 4 2 C3.67 2.99 3.34 3.98 3 5 C3 4.34 3 3.68 3 3 C2.01 2.67 1.02 2.34 0 2 C0 1.34 0 0.68 0 0 Z " fill="#BEC8C1" transform="translate(159,66)"/><path d="M0 0 C1.98 0.5 1.98 0.5 4 1 C4 2.32 4 3.64 4 5 C3.34 5 2.68 5 2 5 C1.67 5.99 1.34 6.98 1 8 C-0.43 5.65 -1.09 4.52 -0.62 1.75 C-0.42 1.17 -0.21 0.59 0 0 Z " fill="#11C001" transform="translate(74,64)"/><path d="M0 0 C0.64 0.02 1.28 0.04 1.94 0.06 C2.27 1.38 2.6 2.7 2.94 4.06 C1.29 4.39 -0.36 4.72 -2.06 5.06 C-2.62 3.12 -2.62 3.12 -3.06 1.06 C-2.06 0.06 -2.06 0.06 0 0 Z " fill="#11C001" transform="translate(450.0625,62.9375)"/><path d="M0 0 C1.65 0 3.3 0 5 0 C5 1.65 5 3.3 5 5 C3.35 5 1.7 5 0 5 C0 3.35 0 1.7 0 0 Z " fill="#ACE5A8" transform="translate(426,26)"/><path d="M0 0 C0 1.65 0 3.3 0 5 C-0.99 5 -1.98 5 -3 5 C-3 4.34 -3 3.68 -3 3 C-4.65 2.67 -6.3 2.34 -8 2 C-5.38 -0.21 -3.35 -0.18 0 0 Z " fill="#E4E9ED" transform="translate(308,227)"/><path d="M0 0 C1.65 0 3.3 0 5 0 C4.67 1.65 4.34 3.3 4 5 C2.68 5 1.36 5 0 5 C0 3.35 0 1.7 0 0 Z " fill="#E2F4E2" transform="translate(38,226)"/><path d="M0 0 C0.66 0 1.32 0 2 0 C2.33 0.66 2.66 1.32 3 2 C3.66 2 4.32 2 5 2 C5 2.66 5 3.32 5 4 C4.34 4 3.68 4 3 4 C3 4.99 3 5.98 3 7 C1.35 6.67 -0.3 6.34 -2 6 C-2 5.34 -2 4.68 -2 4 C-1.34 4 -0.68 4 0 4 C0 2.68 0 1.36 0 0 Z " fill="#67686F" transform="translate(207,64)"/><path d="M0 0 C2.47 0.5 2.47 0.5 5 1 C5 2.32 5 3.64 5 5 C3.35 5 1.7 5 0 5 C0 3.35 0 1.7 0 0 Z " fill="#EFEEF9" transform="translate(121,20)"/><path d="M0 0 C2.97 0.5 2.97 0.5 6 1 C6 1.99 6 2.98 6 4 C4.02 4.33 2.04 4.66 0 5 C0 3.35 0 1.7 0 0 Z " fill="#90DD8A" transform="translate(55,232)"/><path d="M0 0 C1.65 0 3.3 0 5 0 C5 1.32 5 2.64 5 4 C3.02 4 1.04 4 -1 4 C-0.67 2.68 -0.34 1.36 0 0 Z " fill="#8E8E93" transform="translate(289,191)"/><path d="M0 0 C0.99 0.33 1.98 0.66 3 1 C1.68 2.32 0.36 3.64 -1 5 C-3.31 4.34 -5.62 3.68 -8 3 C-7.67 2.34 -7.34 1.68 -7 1 C-5.55 1.03 -5.55 1.03 -4.06 1.06 C-1.13 1.36 -1.13 1.36 0 0 Z " fill="#CEDCD3" transform="translate(424,184)"/><path d="M0 0 C0.66 0 1.32 0 2 0 C1.81 2.38 1.81 2.38 1 5 C-1.44 6.38 -1.44 6.38 -4 7 C-4.66 6.67 -5.32 6.34 -6 6 C-6 5.34 -6 4.68 -6 4 C-4.02 4 -2.04 4 0 4 C0 2.68 0 1.36 0 0 Z " fill="#23252E" transform="translate(106,85)"/><path d="M0 0 C3.94 0.56 6.75 1.68 10 4 C10 4.66 10 5.32 10 6 C5.33 5.74 5.33 5.74 3 5 C1.06 2.44 1.06 2.44 0 0 Z " fill="#EDF2F0" transform="translate(209,86)"/><path d="M0 0 C2.64 0 5.28 0 8 0 C8 0.99 8 1.98 8 3 C5.69 3 3.38 3 1 3 C0.67 2.01 0.34 1.02 0 0 Z " fill="#BAE5B8" transform="translate(181,46)"/><path d="M0 0 C1.32 0 2.64 0 4 0 C4 1.98 4 3.96 4 6 C2.35 5.67 0.7 5.34 -1 5 C-0.67 3.35 -0.34 1.7 0 0 Z " fill="#A3E19F" transform="translate(32,238)"/><path d="M0 0 C1.65 0 3.3 0 5 0 C5 1.65 5 3.3 5 5 C3.19 5.62 3.19 5.62 1 6 C-0.75 5.06 -0.75 5.06 -2 4 C-1.34 3.34 -0.68 2.68 0 2 C0 1.34 0 0.68 0 0 Z " fill="#34C828" transform="translate(30,233)"/><path d="M0 0 C1.98 0 3.96 0 6 0 C5.67 1.32 5.34 2.64 5 4 C3.35 4 1.7 4 0 4 C0 2.68 0 1.36 0 0 Z " fill="#95969C" transform="translate(0,182)"/><path d="M0 0 C1.65 0 3.3 0 5 0 C5 0.99 5 1.98 5 3 C2.69 3.33 0.38 3.66 -2 4 C-1.34 2.68 -0.68 1.36 0 0 Z " fill="#D2ECD3" transform="translate(77,42)"/><path d="M0 0 C2.47 0.5 2.47 0.5 5 1 C4.67 2.65 4.34 4.3 4 6 C2.67 6 1.33 6 0 6 C0 4.02 0 2.04 0 0 Z " fill="#EBD5F4" transform="translate(108,26)"/><path d="M0 0 C1.98 0 3.96 0 6 0 C6 1.32 6 2.64 6 4 C4.02 4 2.04 4 0 4 C0 2.68 0 1.36 0 0 Z " fill="#9D9FA3" transform="translate(268,215)"/><path d="M0 0 C1.65 0 3.3 0 5 0 C5 1.32 5 2.64 5 4 C3.35 4 1.7 4 0 4 C0 2.68 0 1.36 0 0 Z " fill="#A1A2A6" transform="translate(277,158)"/><path d="M0 0 C1.65 0.33 3.3 0.66 5 1 C5 1.99 5 2.98 5 4 C3.02 4 1.04 4 -1 4 C-0.67 2.68 -0.34 1.36 0 0 Z " fill="#94949A" transform="translate(313,139)"/><path d="M0 0 C1.65 0 3.3 0 5 0 C5 1.32 5 2.64 5 4 C4.34 4 3.68 4 3 4 C3 5.65 3 7.3 3 9 C2.67 9 2.34 9 2 9 C2 6.69 2 4.38 2 2 C1.34 2 0.68 2 0 2 C0 1.34 0 0.68 0 0 Z " fill="#2AC51D" transform="translate(40,105)"/><path d="M0 0 C2.64 0.33 5.28 0.66 8 1 C8 1.66 8 2.32 8 3 C5.36 3 2.72 3 0 3 C0 2.01 0 1.02 0 0 Z " fill="#B3E1B1" transform="translate(244,48)"/><path d="M0 0 C2.06 0.44 2.06 0.44 4 1 C4 1.99 4 2.98 4 4 C3.01 4 2.02 4 1 4 C0.67 4.66 0.34 5.32 0 6 C-0.38 4.34 -0.71 2.68 -1 1 C-0.67 0.67 -0.34 0.34 0 0 Z " fill="#E1E4E8" transform="translate(120,26)"/><path d="M0 0 C0 0.99 0 1.98 0 3 C-2.64 3 -5.28 3 -8 3 C-8 2.34 -8 1.68 -8 1 C-5.25 0.21 -2.86 -0.1 0 0 Z " fill="#A8E0A4" transform="translate(280,232)"/><path d="M0 0 C1.98 0.66 3.96 1.32 6 2 C6 2.66 6 3.32 6 4 C3.69 4 1.38 4 -1 4 C-0.67 2.68 -0.34 1.36 0 0 Z " fill="#96969B" transform="translate(52,144)"/><path d="M0 0 C3.49 0.65 6.03 2.1 9 4 C8.67 4.66 8.34 5.32 8 6 C2.1 3.77 2.1 3.77 0 2 C0 1.34 0 0.68 0 0 Z " fill="#A4DFA0" transform="translate(272,125)"/><path d="M0 0 C2.64 0 5.28 0 8 0 C7.67 0.99 7.34 1.98 7 3 C4.69 3 2.38 3 0 3 C0 2.01 0 1.02 0 0 Z " fill="#A7E0A4" transform="translate(209,47)"/><path d="M0 0 C2.47 0.5 2.47 0.5 5 1 C4.67 1.99 4.34 2.98 4 4 C1.94 4.69 1.94 4.69 0 5 C0 3.35 0 1.7 0 0 Z " fill="#F2C2FF" transform="translate(105,20)"/><path d="M0 0 C3.15 0.7 6.03 1.76 9 3 C8.67 3.66 8.34 4.32 8 5 C5.36 4.01 2.72 3.02 0 2 C0 1.34 0 0.68 0 0 Z " fill="#A5DFA1" transform="translate(223,225)"/><path d="M0 0 C-2.31 2.06 -2.31 2.06 -5 4 C-5.99 3.67 -6.98 3.34 -8 3 C-7.67 2.01 -7.34 1.02 -7 0 C-3.87 -1.04 -3.01 -0.93 0 0 Z " fill="#E3E4EE" transform="translate(371,207)"/><path d="M0 0 C-3.96 1.98 -3.96 1.98 -8 4 C-8.66 3.01 -9.32 2.02 -10 1 C-5.89 -0.59 -4.41 -1.1 0 0 Z " fill="#9BDD97" transform="translate(394,201)"/><path d="M0 0 C5.66 1.48 5.66 1.48 7.38 4.12 C7.58 4.74 7.79 5.36 8 6 C4.92 4.8 1.94 3.52 -1 2 C-0.67 1.34 -0.34 0.68 0 0 Z " fill="#A0DE9C" transform="translate(218,93)"/><path d="M0 0 C2.31 0.66 4.62 1.32 7 2 C6.01 3.48 6.01 3.48 5 5 C3.02 4.34 1.04 3.68 -1 3 C-0.67 2.01 -0.34 1.02 0 0 Z " fill="#E0E4E3" transform="translate(178,68)"/><path d="M0 0 C2.64 0 5.28 0 8 0 C8.33 0.99 8.66 1.98 9 3 C6.03 3 3.06 3 0 3 C0 2.01 0 1.02 0 0 Z " fill="#DBBC0D" transform="translate(262,57)"/><path d="M0 0 C0.99 0.66 1.98 1.32 3 2 C2.67 3.32 2.34 4.64 2 6 C0.68 6 -0.64 6 -2 6 C-1.34 4.02 -0.68 2.04 0 0 Z " fill="#EBECF5" transform="translate(115,26)"/><path d="M0 0 C1.32 0.33 2.64 0.66 4 1 C4 2.65 4 4.3 4 6 C2.68 5.67 1.36 5.34 0 5 C0 3.35 0 1.7 0 0 Z " fill="#8EDB89" transform="translate(50,238)"/><path d="M0 0 C1.98 0.66 3.96 1.32 6 2 C6 2.99 6 3.98 6 5 C4.02 4.34 2.04 3.68 0 3 C0 2.01 0 1.02 0 0 Z " fill="#87DA81" transform="translate(214,221)"/><path d="M0 0 C0 0.99 0 1.98 0 3 C-0.66 3.66 -1.32 4.32 -2 5 C-4.12 4.62 -4.12 4.62 -6 4 C-4.84 1.78 -4.32 1.1 -1.88 0.31 C-1.26 0.21 -0.64 0.11 0 0 Z " fill="#B1E1AF" transform="translate(365,209)"/><path d="M0 0 C1.68 0.29 3.34 0.62 5 1 C5.33 2.65 5.66 4.3 6 6 C5.59 5.55 5.18 5.09 4.75 4.62 C2.94 2.94 1.25 2.01 -1 1 C-0.67 0.67 -0.34 0.34 0 0 Z " fill="#181922" transform="translate(460,154)"/><path d="M0 0 C1.98 0.99 3.96 1.98 6 3 C6 3.99 6 4.98 6 6 C4.02 5.01 2.04 4.02 0 3 C0 2.01 0 1.02 0 0 Z " fill="#BEE6BC" transform="translate(260,117)"/><path d="M0 0 C1.65 0 3.3 0 5 0 C4.67 1.98 4.34 3.96 4 6 C3.34 6 2.68 6 2 6 C2 4.68 2 3.36 2 2 C1.34 2 0.68 2 0 2 C0 1.34 0 0.68 0 0 Z " fill="#9DE098" transform="translate(27,103)"/><path d="M0 0 C1.65 0 3.3 0 5 0 C5 1.32 5 2.64 5 4 C3.02 4 1.04 4 -1 4 C-0.67 2.68 -0.34 1.36 0 0 Z " fill="#A9A9AF" transform="translate(463,94)"/><path d="M0 0 C1.67 0 3.33 0 5 0 C5 1.65 5 3.3 5 5 C3.33 5 1.67 5 0 5 C0 3.35 0 1.7 0 0 Z " fill="#DDF2DE" transform="translate(468,26)"/><path d="M0 0 C2.48 0.99 2.48 0.99 5 2 C5 2.99 5 3.98 5 5 C3.35 5 1.7 5 0 5 C-0.56 3.06 -0.56 3.06 -1 1 C-0.67 0.67 -0.34 0.34 0 0 Z " fill="#C5E9C4" transform="translate(432,26)"/><path d="M0 0 C0.33 0.99 0.66 1.98 1 3 C1.66 3 2.32 3 3 3 C3 2.01 3 1.02 3 0 C3.66 0 4.32 0 5 0 C4.67 1.65 4.34 3.3 4 5 C2.68 4.67 1.36 4.34 0 4 C0 2.68 0 1.36 0 0 Z " fill="#BFE9BE" transform="translate(37,239)"/><path d="M0 0 C2.64 0.33 5.28 0.66 8 1 C7.01 2.32 6.02 3.64 5 5 C4.67 4.34 4.34 3.68 4 3 C1.98 2.35 1.98 2.35 0 2 C0 1.34 0 0.68 0 0 Z " fill="#EDF2F1" transform="translate(227,225)"/><path d="M0 0 C2.31 0 4.62 0 7 0 C6.67 0.99 6.34 1.98 6 3 C4.02 3 2.04 3 0 3 C0 2.01 0 1.02 0 0 Z " fill="#A6A6AB" transform="translate(16,202)"/><path d="M0 0 C-1.65 1.32 -3.3 2.64 -5 4 C-5.66 3.67 -6.32 3.34 -7 3 C-7 2.34 -7 1.68 -7 1 C-3.38 -1.12 -3.38 -1.12 0 0 Z " fill="#DCE1E6" transform="translate(449,172)"/><path d="M0 0 C1.67 0 3.33 0 5 0 C5 1.65 5 3.3 5 5 C3.35 4.67 1.7 4.34 0 4 C0 2.68 0 1.36 0 0 Z " fill="#D5EED5" transform="translate(37,110)"/><path d="M0 0 C0.33 0.66 0.66 1.32 1 2 C1.66 2 2.32 2 3 2 C3 3.65 3 5.3 3 7 C2.01 7 1.02 7 0 7 C0 4.69 0 2.38 0 0 Z " fill="#35C829" transform="translate(26,103)"/><path d="M0 0 C5.68 0.92 5.68 0.92 8 3 C8 3.66 8 4.32 8 5 C2.34 3.4 2.34 3.4 0.62 1.38 C0.42 0.92 0.21 0.47 0 0 Z " fill="#EEEFF2" transform="translate(228,97)"/><path d="M0 0 C0.66 0.33 1.32 0.66 2 1 C1.84 1.6 1.67 2.2 1.5 2.81 C0.89 5.11 0.89 5.11 1 8 C0.01 7.67 -0.98 7.34 -2 7 C-2.12 4.62 -2.12 4.62 -2 2 C-1.34 1.34 -0.68 0.68 0 0 Z " fill="#191A23" transform="translate(56,50)"/><path d="M0 0 C1.65 0 3.3 0 5 0 C5 0.99 5 1.98 5 3 C3.02 3 1.04 3 -1 3 C-0.67 2.01 -0.34 1.02 0 0 Z " fill="#C4E6C3" transform="translate(84,42)"/><path d="M0 0 C0.99 0.33 1.98 0.66 3 1 C2.67 2.32 2.34 3.64 2 5 C0.68 4.67 -0.64 4.34 -2 4 C-2 3.01 -2 2.02 -2 1 C-1.34 0.67 -0.68 0.34 0 0 Z " fill="#74D56D" transform="translate(444,32)"/><path d="M0 0 C0.99 0.33 1.98 0.66 3 1 C3.33 2.65 3.66 4.3 4 6 C2.68 6 1.36 6 0 6 C0 4.02 0 2.04 0 0 Z " fill="#A8E2A4" transform="translate(56,238)"/><path d="M0 0 C-0.33 0.99 -0.66 1.98 -1 3 C-3.31 3 -5.62 3 -8 3 C-8 2.34 -8 1.68 -8 1 C-5.25 0.21 -2.86 -0.1 0 0 Z " fill="#9EDE9A" transform="translate(305,230)"/><path d="M0 0 C0.33 0.99 0.66 1.98 1 3 C-0.65 3.33 -2.3 3.66 -4 4 C-4.33 3.01 -4.66 2.02 -5 1 C-3 0 -3 0 0 0 Z " fill="#1C82A2" transform="translate(359,203)"/><path d="M0 0 C1.78 0.89 3.36 1.88 5 3 C4.67 3.99 4.34 4.98 4 6 C2.35 5.01 0.7 4.02 -1 3 C-0.67 2.01 -0.34 1.02 0 0 Z " fill="#CF0A0B" transform="translate(168,176)"/><path d="M0 0 C1.32 0.33 2.64 0.66 4 1 C4 2.32 4 3.64 4 5 C2.68 5 1.36 5 0 5 C0 3.35 0 1.7 0 0 Z " fill="#CBEACB" transform="translate(43,110)"/><path d="M0 0 C1.32 0 2.64 0 4 0 C4 0.99 4 1.98 4 3 C3.34 3 2.68 3 2 3 C2 3.66 2 4.32 2 5 C1.34 5 0.68 5 0 5 C0 3.35 0 1.7 0 0 Z " fill="#B0E4AD" transform="translate(33,103)"/><path d="M0 0 C1.65 0 3.3 0 5 0 C4.67 1.32 4.34 2.64 4 4 C2.68 4 1.36 4 0 4 C0 2.68 0 1.36 0 0 Z " fill="#AEAFB3" transform="translate(484,97)"/><path d="M0 0 C-0.33 1.65 -0.66 3.3 -1 5 C-1.99 5 -2.98 5 -4 5 C-4 3.68 -4 2.36 -4 1 C-2 0 -2 0 0 0 Z " fill="#77797E" transform="translate(215,68)"/><path d="M0 0 C2.64 0.33 5.28 0.66 8 1 C8 1.66 8 2.32 8 3 C5.36 3 2.72 3 0 3 C0 2.01 0 1.02 0 0 Z " fill="#8FDA8A" transform="translate(163,68)"/><path d="M0 0 C1.67 0 3.33 0 5 0 C5 1.32 5 2.64 5 4 C3.35 4 1.7 4 0 4 C0 2.68 0 1.36 0 0 Z " fill="#9A9AA0" transform="translate(481,62)"/><path d="M0 0 C2.31 0 4.62 0 7 0 C6.67 0.99 6.34 1.98 6 3 C4.02 3 2.04 3 0 3 C0 2.01 0 1.02 0 0 Z " fill="#D8B70A" transform="translate(276,57)"/><path d="M0 0 C0.66 0 1.32 0 2 0 C2.33 0.99 2.66 1.98 3 3 C1.02 3.99 1.02 3.99 -1 5 C-1.04 3.67 -1.04 2.33 -1 1 C-0.67 0.67 -0.34 0.34 0 0 Z " fill="#FF01FF" transform="translate(112,50)"/><path d="M0 0 C1.65 0 3.3 0 5 0 C4.67 1.32 4.34 2.64 4 4 C2.68 3.67 1.36 3.34 0 3 C0 2.01 0 1.02 0 0 Z " fill="#76D66E" transform="translate(463,27)"/><path d="M0 0 C0.99 0.33 1.98 0.66 3 1 C2.67 2.65 2.34 4.3 2 6 C1.01 6 0.02 6 -1 6 C-0.67 4.02 -0.34 2.04 0 0 Z " fill="#A4E0A0" transform="translate(455,19)"/><path d="M0 0 C1.65 0 3.3 0 5 0 C5 0.99 5 1.98 5 3 C3.35 3 1.7 3 0 3 C0 2.01 0 1.02 0 0 Z " fill="#A3DFA0" transform="translate(281,232)"/><path d="M0 0 C2.44 0.38 2.44 0.38 5 1 C5.33 1.66 5.66 2.32 6 3 C4 4 4 4 1 4 C0.67 2.68 0.34 1.36 0 0 Z " fill="#691518" transform="translate(172,179)"/><path d="M0 0 C1.98 0 3.96 0 6 0 C6.33 0.99 6.66 1.98 7 3 C4.69 3 2.38 3 0 3 C0 2.01 0 1.02 0 0 Z " fill="#DBDEE0" transform="translate(126,150)"/><path d="M0 0 C1.32 0.33 2.64 0.66 4 1 C4 2.32 4 3.64 4 5 C2.68 4.67 1.36 4.34 0 4 C0 2.68 0 1.36 0 0 Z " fill="#C5E9C3" transform="translate(50,110)"/><path d="M0 0 C1.65 0 3.3 0 5 0 C5 0.99 5 1.98 5 3 C3.35 3 1.7 3 0 3 C0 2.01 0 1.02 0 0 Z " fill="#B2E2B0" transform="translate(190,46)"/><path d="M0 0 C1.65 0.33 3.3 0.66 5 1 C5 1.66 5 2.32 5 3 C3.02 3 1.04 3 -1 3 C-0.67 2.01 -0.34 1.02 0 0 Z " fill="#B3E2B1" transform="translate(147,44)"/><path d="M0 0 C1.65 0 3.3 0 5 0 C5 0.99 5 1.98 5 3 C3.35 3 1.7 3 0 3 C0 2.01 0 1.02 0 0 Z " fill="#B4E2B2" transform="translate(118,43)"/><path d="M0 0 C1.65 0 3.3 0 5 0 C5 0.99 5 1.98 5 3 C3.35 3 1.7 3 0 3 C0 2.01 0 1.02 0 0 Z " fill="#BBE7B9" transform="translate(90,42)"/><path d="M0 0 C2.47 0.5 2.47 0.5 5 1 C5 1.66 5 2.32 5 3 C3.35 3 1.7 3 0 3 C0 2.01 0 1.02 0 0 Z " fill="#AAE0A7" transform="translate(253,232)"/><path d="M0 0 C2.97 0.5 2.97 0.5 6 1 C6 1.66 6 2.32 6 3 C4.35 3 2.7 3 1 3 C0.67 2.01 0.34 1.02 0 0 Z " fill="#AEE2AC" transform="translate(246,231)"/><path d="M0 0 C0.99 0.33 1.98 0.66 3 1 C1.61 3.78 -0.16 3.98 -3 5 C-2.62 3.06 -2.62 3.06 -2 1 C-1.34 0.67 -0.68 0.34 0 0 Z " fill="#25252D" transform="translate(367,196)"/><path d="M0 0 C1.32 0.66 2.64 1.32 4 2 C3.67 2.99 3.34 3.98 3 5 C0.53 4.01 0.53 4.01 -2 3 C-1.34 2.67 -0.68 2.34 0 2 C0 1.34 0 0.68 0 0 Z " fill="#D8090A" transform="translate(182,184)"/><path d="M0 0 C1.32 0.33 2.64 0.66 4 1 C4.33 2.32 4.66 3.64 5 5 C2.52 4.01 2.52 4.01 0 3 C0 2.01 0 1.02 0 0 Z " fill="#AAE1A7" transform="translate(281,130)"/><path d="M0 0 C2.97 0.5 2.97 0.5 6 1 C5.67 2.32 5.34 3.64 5 5 C5 4.34 5 3.68 5 3 C3.35 2.67 1.7 2.34 0 2 C0 1.34 0 0.68 0 0 Z " fill="#E1EAE4" transform="translate(254,113)"/><path d="M0 0 C0.66 0 1.32 0 2 0 C2 0.99 2 1.98 2 3 C2.66 3 3.32 3 4 3 C3.67 3.99 3.34 4.98 3 6 C1.5 5.25 1.5 5.25 0 4 C-0.19 1.88 -0.19 1.88 0 0 Z " fill="#ADE4AA" transform="translate(38,104)"/><path d="M0 0 C0.66 0.33 1.32 0.66 2 1 C1.67 2.32 1.34 3.64 1 5 C1.66 5.33 2.32 5.66 3 6 C2.01 6.33 1.02 6.66 0 7 C-0.66 6.34 -1.32 5.68 -2 5 C-2 4.34 -2 3.68 -2 3 C-1.34 3 -0.68 3 0 3 C0 2.01 0 1.02 0 0 Z " fill="#C6C7CC" transform="translate(210,68)"/><path d="M0 0 C1.65 0 3.3 0 5 0 C5 0.99 5 1.98 5 3 C3.35 3 1.7 3 0 3 C0 2.01 0 1.02 0 0 Z " fill="#B5E2B3" transform="translate(316,51)"/><path d="M0 0 C1.65 0 3.3 0 5 0 C5 0.99 5 1.98 5 3 C3.35 2.67 1.7 2.34 0 2 C0 1.34 0 0.68 0 0 Z " fill="#B0E1AE" transform="translate(237,48)"/><path d="M0 0 C1.65 0 3.3 0 5 0 C5 0.99 5 1.98 5 3 C3.35 3 1.7 3 0 3 C0 2.01 0 1.02 0 0 Z " fill="#B0E1AE" transform="translate(140,44)"/><path d="M0 0 C1.65 0 3.3 0 5 0 C5 0.66 5 1.32 5 2 C4.34 2 3.68 2 3 2 C2.67 3.32 2.34 4.64 2 6 C2 4.68 2 3.36 2 2 C1.34 2 0.68 2 0 2 C0 1.34 0 0.68 0 0 Z " fill="#E9EBF0" transform="translate(102,26)"/><path d="M0 0 C1.32 0.33 2.64 0.66 4 1 C2.68 2.65 1.36 4.3 0 6 C0 4.02 0 2.04 0 0 Z " fill="#A2E29F" transform="translate(448,19)"/><path d="M0 0 C0.33 0.99 0.66 1.98 1 3 C0.34 3 -0.32 3 -1 3 C-1.33 3.66 -1.66 4.32 -2 5 C-2.99 3.68 -3.98 2.36 -5 1 C-3.35 0.67 -1.7 0.34 0 0 Z " fill="#41CA36" transform="translate(48,236)"/><path d="M0 0 C1.32 0.33 2.64 0.66 4 1 C4 1.99 4 2.98 4 4 C2.68 4.33 1.36 4.66 0 5 C0 3.35 0 1.7 0 0 Z " fill="#6FD467" transform="translate(22,232)"/><path d="M0 0 C1.32 0 2.64 0 4 0 C3.67 0.99 3.34 1.98 3 3 C1.68 3 0.36 3 -1 3 C-0.67 2.01 -0.34 1.02 0 0 Z " fill="#ABE1A8" transform="translate(308,228)"/><path d="M0 0 C2 1.38 2 1.38 4 3 C4 3.66 4 4.32 4 5 C2.68 4.67 1.36 4.34 0 4 C0 2.68 0 1.36 0 0 Z " fill="#CBEBCA" transform="translate(208,86)"/><path d="M0 0 C1.65 0 3.3 0 5 0 C4.67 0.99 4.34 1.98 4 3 C2.68 3 1.36 3 0 3 C0 2.01 0 1.02 0 0 Z " fill="#ABE0A8" transform="translate(162,45)"/><path d="M0 0 C0.66 0.33 1.32 0.66 2 1 C0.69 2.5 0.69 2.5 -1 4 C-1.99 4 -2.98 4 -4 4 C-3.67 3.01 -3.34 2.02 -3 1 C-2.01 1.33 -1.02 1.66 0 2 C0 1.34 0 0.68 0 0 Z " fill="#99DD95" transform="translate(357,212)"/><path d="M0 0 C1.21 0.03 1.21 0.03 2.44 0.06 C2.44 0.72 2.44 1.38 2.44 2.06 C1.45 2.06 0.46 2.06 -0.56 2.06 C-0.89 2.72 -1.22 3.38 -1.56 4.06 C-1.56 3.4 -1.56 2.74 -1.56 2.06 C-2.22 1.73 -2.88 1.4 -3.56 1.06 C-2.56 0.06 -2.56 0.06 0 0 Z " fill="#118CB1" transform="translate(368.5625,198.9375)"/><path d="M0 0 C0.99 0.33 1.98 0.66 3 1 C2.67 1.99 2.34 2.98 2 4 C0.68 3.67 -0.64 3.34 -2 3 C-1.34 2.01 -0.68 1.02 0 0 Z " fill="#BCE1BC" transform="translate(406,192)"/><path d="M0 0 C2.97 0.5 2.97 0.5 6 1 C6 1.66 6 2.32 6 3 C3.56 2.62 3.56 2.62 1 2 C0.67 1.34 0.34 0.68 0 0 Z " fill="#EDF0F2" transform="translate(276,126)"/><path d="M0 0 C1.32 0.66 2.64 1.32 4 2 C4 2.66 4 3.32 4 4 C2.35 3.67 0.7 3.34 -1 3 C-0.67 2.01 -0.34 1.02 0 0 Z " fill="#9ADE95" transform="translate(255,114)"/><path d="M0 0 C1.65 0 3.3 0 5 0 C4.34 1.32 3.68 2.64 3 4 C3 3.34 3 2.68 3 2 C2.01 2 1.02 2 0 2 C0 1.34 0 0.68 0 0 Z " fill="#795F25" transform="translate(270,56)"/><path d="M0 0 C1.65 0 3.3 0 5 0 C5 0.66 5 1.32 5 2 C3.35 2.33 1.7 2.66 0 3 C0 2.01 0 1.02 0 0 Z " fill="#B5E2B4" transform="translate(309,51)"/><path d="M0 0 C2.97 0.49 2.97 0.49 6 1 C4 3 4 3 1.88 3.12 C1.26 3.08 0.64 3.04 0 3 C0 2.01 0 1.02 0 0 Z " fill="#B0E2AE" transform="translate(218,47)"/><path d="M0 0 C2.47 0.49 2.47 0.49 5 1 C5 1.66 5 2.32 5 3 C3.35 3 1.7 3 0 3 C0 2.01 0 1.02 0 0 Z " fill="#A9E1A6" transform="translate(168,45)"/><path d="M0 0 C1.65 0 3.3 0 5 0 C5 0.66 5 1.32 5 2 C3.35 2.33 1.7 2.66 0 3 C0 2.01 0 1.02 0 0 Z " fill="#A4DFA0" transform="translate(106,43)"/><path d="M0 0 C0.66 0 1.32 0 2 0 C2 1.32 2 2.64 2 4 C1.01 4 0.02 4 -1 4 C-0.67 2.68 -0.34 1.36 0 0 Z " fill="#94969A" transform="translate(289,191)"/><path d="M0 0 C1.98 0.5 1.98 0.5 4 1 C3.67 1.99 3.34 2.98 3 4 C1.68 3.34 0.36 2.68 -1 2 C-0.67 1.34 -0.34 0.68 0 0 Z " fill="#A7E0A4" transform="translate(213,90)"/><path d="M0 0 C1.32 0.66 2.64 1.32 4 2 C4 2.33 4 2.66 4 3 C2.02 3 0.04 3 -2 3 C-1.34 2.67 -0.68 2.34 0 2 C0 1.34 0 0.68 0 0 Z " fill="#C6E8C5" transform="translate(171,69)"/><path d="M0 0 C0.66 0.33 1.32 0.66 2 1 C2 1.66 2 2.32 2 3 C0.35 3 -1.3 3 -3 3 C-3 2.34 -3 1.68 -3 1 C-2.01 0.67 -1.02 0.34 0 0 Z " fill="#B2E2B0" transform="translate(269,49)"/><path d="M0 0 C1.32 0 2.64 0 4 0 C4 0.99 4 1.98 4 3 C2.68 3 1.36 3 0 3 C0 2.01 0 1.02 0 0 Z " fill="#ACE1AA" transform="translate(113,43)"/><path d="M0 0 C1.32 0 2.64 0 4 0 C4 0.99 4 1.98 4 3 C3.01 3 2.02 3 1 3 C0.67 2.01 0.34 1.02 0 0 Z " fill="#CAE2CC" transform="translate(276,232)"/><path d="M0 0 C0 0.66 0 1.32 0 2 C-0.99 2.33 -1.98 2.66 -3 3 C-4.69 2.06 -4.69 2.06 -6 1 C-3 0 -3 0 0 0 Z " fill="#E4EBE7" transform="translate(244,228)"/><path d="M0 0 C0 0.99 0 1.98 0 3 C-0.99 3.33 -1.98 3.66 -3 4 C-3.33 3.01 -3.66 2.02 -4 1 C-2.68 0.67 -1.36 0.34 0 0 Z " fill="#98DD93" transform="translate(383,203)"/><path d="M0 0 C0.99 0.33 1.98 0.66 3 1 C2.67 1.99 2.34 2.98 2 4 C1.01 3.67 0.02 3.34 -1 3 C-0.67 2.01 -0.34 1.02 0 0 Z " fill="#B10D0F" transform="translate(178,182)"/><path d="M0 0 C0.66 0.33 1.32 0.66 2 1 C2 1.66 2 2.32 2 3 C2.99 3.33 3.98 3.66 5 4 C3.35 3.67 1.7 3.34 0 3 C0 2.01 0 1.02 0 0 Z " fill="#D6F0D4" transform="translate(448,27)"/><path d="M0 0 C0.66 0.66 1.32 1.32 2 2 C1.01 3.49 1.01 3.49 0 5 C-0.56 3.06 -0.56 3.06 -1 1 C-0.67 0.67 -0.34 0.34 0 0 Z " fill="#9EDE9A" transform="translate(28,232)"/><path d="M0 0 C0.99 0 1.98 0 3 0 C3 0.99 3 1.98 3 3 C2.01 3 1.02 3 0 3 C0 2.01 0 1.02 0 0 Z " fill="#47CC3C" transform="translate(39,227)"/><path d="M0 0 C0.66 0 1.32 0 2 0 C2.33 1.32 2.66 2.64 3 4 C2.01 4 1.02 4 0 4 C0 2.68 0 1.36 0 0 Z " fill="#1F7A97" transform="translate(373,197)"/><path d="M0 0 C-0.33 1.32 -0.66 2.64 -1 4 C-1.33 3.34 -1.66 2.68 -2 2 C-2.66 1.67 -3.32 1.34 -4 1 C-2 0 -2 0 0 0 Z " fill="#CFD0D9" transform="translate(390,198)"/><path d="M0 0 C0.99 0.33 1.98 0.66 3 1 C3 1.66 3 2.32 3 3 C1.68 2.67 0.36 2.34 -1 2 C-0.67 1.34 -0.34 0.68 0 0 Z " fill="#6BD363" transform="translate(450,170)"/><path d="M0 0 C2.48 0.5 2.48 0.5 5 1 C4.67 1.66 4.34 2.32 4 3 C2.68 2.34 1.36 1.68 0 1 C0 0.67 0 0.34 0 0 Z " fill="#F1F5F5" transform="translate(265,119)"/><path d="M0 0 C1.32 0.99 2.64 1.98 4 3 C2.68 3.33 1.36 3.66 0 4 C-0.33 3.34 -0.66 2.68 -1 2 C-0.67 1.34 -0.34 0.68 0 0 Z " fill="#35C829" transform="translate(42,98)"/><path d="M0 0 C2.47 0.5 2.47 0.5 5 1 C5 1.66 5 2.32 5 3 C2.53 2.01 2.53 2.01 0 1 C0 0.67 0 0.34 0 0 Z " fill="#DADBE0" transform="translate(237,90)"/><path d="M0 0 C0.99 0 1.98 0 3 0 C3 0.99 3 1.98 3 3 C2.01 3 1.02 3 0 3 C0 2.01 0 1.02 0 0 Z " fill="#CCEBCB" transform="translate(244,48)"/><path d="M0 0 C1.98 0.99 1.98 0.99 4 2 C2.68 2.33 1.36 2.66 0 3 C0 2.01 0 1.02 0 0 Z " fill="#BDE4BC" transform="translate(209,47)"/><path d="M0 0 C0.99 0 1.98 0 3 0 C3 0.99 3 1.98 3 3 C2.01 3 1.02 3 0 3 C0 2.01 0 1.02 0 0 Z " fill="#F39DFB" transform="translate(121,27)"/><path d="M0 0 C1.32 0.99 2.64 1.98 4 3 C2.68 3.33 1.36 3.66 0 4 C0 2.68 0 1.36 0 0 Z " fill="#EDECFB" transform="translate(105,21)"/><path d="M0 0 C0.99 0.33 1.98 0.66 3 1 C2.01 1.99 1.02 2.98 0 4 C-0.33 3.01 -0.66 2.02 -1 1 C-0.67 0.67 -0.34 0.34 0 0 Z " fill="#E4E8EC" transform="translate(232,226)"/><path d="M0 0 C0.99 0.33 1.98 0.66 3 1 C2.67 1.66 2.34 2.32 2 3 C1.01 2.67 0.02 2.34 -1 2 C-0.67 1.34 -0.34 0.68 0 0 Z " fill="#9DDE99" transform="translate(218,223)"/><path d="M0 0 C1.32 0 2.64 0 4 0 C4 0.66 4 1.32 4 2 C3.01 2.33 2.02 2.66 1 3 C0.67 2.01 0.34 1.02 0 0 Z " fill="#9DDE99" transform="translate(325,223)"/><path d="M0 0 C0.99 0 1.98 0 3 0 C2.67 0.99 2.34 1.98 2 3 C1.34 3 0.68 3 0 3 C0 2.01 0 1.02 0 0 Z " fill="#BFE3BF" transform="translate(376,205)"/><path d="M0 0 C0.99 0 1.98 0 3 0 C3 0.99 3 1.98 3 3 C2.01 2.67 1.02 2.34 0 2 C0 1.34 0 0.68 0 0 Z " fill="#374D5A" transform="translate(364,201)"/><path d="M0 0 C0.99 0.33 1.98 0.66 3 1 C2.67 1.66 2.34 2.32 2 3 C1.01 2.67 0.02 2.34 -1 2 C-0.67 1.34 -0.34 0.68 0 0 Z " fill="#A9E1A6" transform="translate(424,184)"/><path d="M0 0 C0.99 0 1.98 0 3 0 C3 0.99 3 1.98 3 3 C2.01 2.67 1.02 2.34 0 2 C0 1.34 0 0.68 0 0 Z " fill="#6C6C73" transform="translate(84,183)"/><path d="M0 0 C0.99 0.33 1.98 0.66 3 1 C1.51 1.99 1.51 1.99 0 3 C-0.66 2.34 -1.32 1.68 -2 1 C-1.34 0.67 -0.68 0.34 0 0 Z " fill="#E3E4EF" transform="translate(446,171)"/><path d="M0 0 C1.32 0.66 2.64 1.32 4 2 C2.68 2.33 1.36 2.66 0 3 C0 2.01 0 1.02 0 0 Z " fill="#DEE0E4" transform="translate(282,128)"/><path d="M0 0 C1.32 0.33 2.64 0.66 4 1 C3.67 1.66 3.34 2.32 3 3 C2.01 2.67 1.02 2.34 0 2 C0 1.34 0 0.68 0 0 Z " fill="#99DD95" transform="translate(277,128)"/><path d="M0 0 C0.99 0.99 1.98 1.98 3 3 C2.01 3 1.02 3 0 3 C0 2.01 0 1.02 0 0 Z " fill="#95DB91" transform="translate(260,117)"/><path d="M0 0 C0.99 0 1.98 0 3 0 C2.67 0.99 2.34 1.98 2 3 C1.34 3 0.68 3 0 3 C0 2.01 0 1.02 0 0 Z " fill="#828288" transform="translate(465,94)"/><path d="M0 0 C0.99 0.33 1.98 0.66 3 1 C3 1.66 3 2.32 3 3 C2.01 2.67 1.02 2.34 0 2 C0 1.34 0 0.68 0 0 Z " fill="#B3B4B8" transform="translate(130,150)"/><path d="M0 0 C0.66 0.33 1.32 0.66 2 1 C2 1.66 2 2.32 2 3 C1.01 3 0.02 3 -1 3 C-0.67 2.01 -0.34 1.02 0 0 Z " fill="#EFCAFA" transform="translate(115,26)"/><path d="M0 0 C0.99 0.33 1.98 0.66 3 1 C2.34 1.66 1.68 2.32 1 3 C0.67 2.01 0.34 1.02 0 0 Z " fill="#C0E4BF" transform="translate(448,172)"/><path d="M0 0 C0.99 0.33 1.98 0.66 3 1 C2.34 1.66 1.68 2.32 1 3 C0.67 2.01 0.34 1.02 0 0 Z " fill="#376E82" transform="translate(451,154)"/><path d="M0 0 C0.99 0.33 1.98 0.66 3 1 C2.34 1.66 1.68 2.32 1 3 C0.67 2.01 0.34 1.02 0 0 Z " fill="#E0E4E5" transform="translate(248,108)"/><path d="M0 0 C0.66 0.66 1.32 1.32 2 2 C1.01 2.33 0.02 2.66 -1 3 C-0.67 2.01 -0.34 1.02 0 0 Z " fill="#FF01FF" transform="translate(123,21)"/><path d="M0 0 C0.66 0.66 1.32 1.32 2 2 C1.01 2 0.02 2 -1 2 C-0.67 1.34 -0.34 0.68 0 0 Z " fill="#4C4E56" transform="translate(132,148)"/><path d="M0 0 C0.66 0.66 1.32 1.32 2 2 C1.01 2 0.02 2 -1 2 C-0.67 1.34 -0.34 0.68 0 0 Z " fill="#A8E0A4" transform="translate(448,27)"/></svg>