<svg xmlns="http://www.w3.org/2000/svg" width="538" height="281" viewBox="0 0 538 281"><path d="M0 0 C177.54 0 355.08 0 538 0 C538 92.73 538 185.46 538 281 C360.46 281 182.92 281 0 281 C0 188.27 0 95.54 0 0 Z " fill="#FAFAFE" transform="translate(0,0)"/><path d="M0 0 C2.38 1.56 2.38 1.56 4 4 C4.56 7.09 4.63 9.94 2.98 12.71 C2.65 13.14 2.33 13.56 2 14 C2.5 14.36 2.99 14.72 3.51 15.09 C5.86 16.81 8.21 18.53 10.56 20.25 C11.43 20.88 12.29 21.51 13.18 22.17 C18.52 26.1 23.7 30.16 28.81 34.38 C34.34 38.89 39.99 42.54 46.26 45.94 C53 49.6 59.47 53.73 65.99 57.76 C67.71 58.82 69.44 59.87 71.17 60.91 C76.74 64.32 81.74 68.09 86.59 72.45 C93.15 78.2 100.96 80.84 109.12 83.56 C114.62 85.4 119.89 87.24 125 90 C125.1 89.07 125.21 88.14 125.31 87.19 C126 84 126 84 127.12 82.12 C130.01 80.39 132.79 80.36 136 81 C138.5 82.56 138.5 82.56 140 85 C140.29 87.57 140.12 89.66 139 92 C136.43 94.22 136.43 94.22 134 96 C134.88 96.63 135.77 97.26 136.68 97.91 C137.25 98.32 137.83 98.73 138.42 99.15 C139.69 100.06 140.96 100.96 142.24 101.86 C145.23 103.99 148.21 106.14 151.1 108.41 C156.38 112.53 160.15 115 167 115 C166.67 114.34 166.34 113.68 166 113 C165.61 109.42 165.56 107.64 167.62 104.62 C170.71 102.51 172.33 102.39 176 103 C178.37 104.62 178.37 104.62 180 107 C180.25 110.13 180.25 110.13 180 113 C180 113.66 180 114.32 180 115 C186.46 111.18 189.47 107.06 192 100 C192.36 97.5 192.36 97.5 192.41 94.92 C192.45 93.99 192.49 93.06 192.53 92.1 C192.56 91.14 192.59 90.18 192.62 89.19 C192.66 88.21 192.7 87.23 192.74 86.22 C192.84 83.81 192.92 81.41 193 79 C191.9 79.03 190.79 79.07 189.65 79.1 C186.73 79.19 186.13 79.09 183.56 77.38 C181.52 74.26 181.31 72.66 182 69 C184.06 66.56 184.06 66.56 187 65 C189.52 64.97 191.51 65.41 194 66 C194.66 67.65 195.32 69.3 196 71 C196.61 70.53 197.21 70.06 197.84 69.57 C199.09 68.64 199.09 68.64 200.38 67.69 C201.19 67.07 202 66.46 202.84 65.82 C212.52 59.73 225.5 59.45 236.56 57.94 C238.4 57.68 240.23 57.42 242.06 57.16 C274.34 52.63 274.34 52.63 284.38 52.75 C285.08 52.74 285.79 52.73 286.52 52.73 C290.02 52.74 292.21 52.87 295 55 C295.1 54.22 295.21 53.43 295.31 52.62 C296 50 296 50 297.12 48.62 C300.18 47.61 302.94 48.13 306 49 C307.94 50.19 307.94 50.19 309 52 C309.51 54.94 309.7 56.94 308.02 59.5 C306.09 61.6 304.74 62.95 301.83 63.13 C301.22 63.09 300.62 63.05 300 63 C300.01 63.54 300.02 64.09 300.04 64.64 C300.05 65.72 300.05 65.72 300.06 66.81 C300.07 67.52 300.09 68.23 300.1 68.96 C300 71 300 71 299 74 C300 74.25 301 74.5 302.03 74.76 C306.17 75.95 309.79 77.76 313.56 79.81 C314.2 80.14 314.83 80.47 315.48 80.81 C321.01 83.78 325.68 87.44 330 92 C330.31 91.04 330.31 91.04 330.62 90.06 C332 88 332 88 334.81 87 C338 87 338 87 340.88 88.5 C343.3 91.36 343.71 92.68 343.42 96.32 C342.7 99.22 341.46 100.38 339 102 C335.42 102.52 333.7 102.44 330.62 100.5 C330.09 100 329.55 99.51 329 99 C328.9 99.76 328.79 100.53 328.69 101.31 C327.95 104.18 327.33 105.23 325 107 C324.34 107 323.68 107 323 107 C323 107.66 323 108.32 323 109 C321.43 110.41 319.85 111.71 318.19 113 C314.16 116.2 310.28 119.5 306.5 123 C298.16 130.68 289.46 137.73 280 144 C279.3 144.48 278.61 144.96 277.89 145.45 C262.55 155.37 243.7 161.92 226 166 C226.33 166.33 226.66 166.66 227 167 C227.41 170.49 227.59 173.82 226 177 C222.74 178.63 219.56 178.66 216 178 C214 176.38 214 176.38 213 174 C212.69 170.87 212.69 170.87 213 168 C213.66 167.34 214.32 166.68 215 166 C214.3 165.91 213.6 165.82 212.88 165.73 C204.43 164.49 196.73 162.16 188.69 159.38 C187.37 158.93 186.05 158.48 184.73 158.03 C182.08 157.13 179.43 156.22 176.78 155.3 C173.33 154.11 169.88 152.94 166.43 151.77 C156.09 148.26 145.93 144.54 136 140 C135.88 137.62 135.88 137.62 136 135 C136.66 134.34 137.32 133.68 138 133 C137.68 130.89 137.68 130.89 137 129 C135.68 129 134.36 129 133 129 C133 130.65 133 132.3 133 134 C133.66 134.33 134.32 134.66 135 135 C135 135.99 135 136.98 135 138 C130.21 136.62 126.45 134.62 122.31 131.88 C121.41 131.29 121.41 131.29 120.49 130.68 C114.86 126.97 109.4 123.04 104 119 C103.4 119.8 102.8 120.61 102.18 121.43 C100 124 100 124 97.06 125.06 C94 125 94 125 91.12 123.44 C89 121 89 121 88.69 117.75 C88.84 116.39 88.84 116.39 89 115 C87.35 115 85.7 115 84 115 C83.92 115.76 83.84 116.53 83.75 117.31 C83 120 83 120 81.31 121.81 C78.24 123.39 76.41 123.57 73 123 C70.56 120.88 70.56 120.88 69 118 C68.94 114.94 68.94 114.94 70 112 C72.56 109.62 72.56 109.62 75 108 C72.52 100.77 69.42 97 63.19 92.69 C61.65 91.57 60.12 90.45 58.59 89.34 C57.82 88.78 57.05 88.23 56.26 87.66 C52.84 85.15 49.54 82.49 46.25 79.81 C41.08 75.64 35.86 71.56 30.58 67.52 C26.34 64.28 22.17 60.96 18.02 57.59 C16.39 56.31 14.75 55.12 13 54 C13.08 54.74 13.16 55.48 13.25 56.25 C13 59 13 59 11.44 61.38 C8.88 63.08 8.34 63.26 5.44 63 C2.99 62.46 1.99 62 0 60.38 C-1.46 56.92 -0.77 54.64 0 51 C-13.75 54.4 -23.09 61.28 -33 71 C-31.33 71.4 -31.33 71.4 -29.62 71.81 C-27.41 72.35 -26.3 72.65 -24.8 74.39 C-23.46 77.09 -23.58 79.05 -24 82 C-26.46 84.67 -28.01 85.86 -31.62 86.38 C-33.99 86 -35.19 85.53 -37 84 C-36.67 85.65 -36.34 87.3 -36 89 C-35.34 88.34 -34.68 87.68 -34 87 C-30.41 86.53 -28.65 86.56 -25.62 88.62 C-23.52 91.69 -23.47 93.35 -24 97 C-25 99.38 -25 99.38 -27 101 C-29.77 101.57 -32.23 101.59 -35 101 C-37 99.12 -37 99.12 -38 97 C-38 96.34 -38 95.68 -38 95 C-42.61 99.22 -45.92 104.01 -49.38 109.19 C-50.52 110.89 -51.67 112.58 -52.82 114.28 C-54.3 116.47 -55.78 118.67 -57.25 120.86 C-58.22 122.31 -59.2 123.75 -60.19 125.19 C-60.7 125.94 -61.21 126.7 -61.73 127.48 C-62.36 128.23 -62.36 128.23 -63 129 C-63.66 129 -64.32 129 -65 129 C-65 129.66 -65 130.32 -65 131 C-63.58 131.19 -63.58 131.19 -62.12 131.38 C-59 132 -59 132 -57 134 C-56.55 138.08 -56.38 140.01 -58.56 143.5 C-61.53 145.33 -63.04 145.32 -66.38 144.62 C-68.87 143.67 -69.83 142.34 -71 140 C-71 139.01 -71 138.02 -71 137 C-71.99 137 -72.98 137 -74 137 C-73.65 137.35 -73.3 137.7 -72.94 138.06 C-71.46 141.11 -71.98 143.83 -73 147 C-74.62 149 -74.62 149 -77 150 C-81.08 150.05 -83.58 149.28 -87 147 C-88.32 150.3 -89.64 153.6 -91 157 C-89.35 156.67 -87.7 156.34 -86 156 C-83.37 156.83 -82.3 157.58 -80.69 159.81 C-79.79 162.68 -80.01 164.17 -81 167 C-82.63 169.38 -82.63 169.38 -85 171 C-87.56 171.08 -89.47 170.62 -92 170 C-92.33 169.67 -92.66 169.34 -93 169 C-93.33 171.97 -93.66 174.94 -94 178 C-78.82 178 -63.64 178 -48 178 C-48 172.39 -48 166.78 -48 161 C-46.33 159.33 -44.29 159.87 -42.06 159.86 C-41.36 159.87 -40.65 159.87 -39.93 159.87 C-38.82 159.87 -38.82 159.87 -37.68 159.87 C-35.23 159.86 -32.77 159.86 -30.31 159.87 C-28.61 159.87 -26.91 159.87 -25.21 159.86 C-21.64 159.86 -18.08 159.86 -14.51 159.87 C-9.93 159.88 -5.34 159.87 -0.76 159.87 C2.75 159.86 6.27 159.86 9.78 159.87 C11.47 159.87 13.16 159.87 14.85 159.86 C17.21 159.86 19.57 159.87 21.93 159.87 C22.63 159.87 23.34 159.87 24.06 159.86 C28.89 159.89 28.89 159.89 30 161 C30.1 163.65 30.14 166.28 30.13 168.94 C30.13 169.73 30.13 170.53 30.14 171.35 C30.14 173.03 30.13 174.72 30.13 176.4 C30.13 178.99 30.13 181.58 30.14 184.16 C30.14 185.8 30.13 187.43 30.13 189.06 C30.13 189.84 30.14 190.62 30.14 191.42 C30.11 196.89 30.11 196.89 29 198 C26.63 198.1 24.29 198.14 21.93 198.13 C20.82 198.13 20.82 198.13 19.68 198.13 C17.23 198.14 14.77 198.14 12.31 198.13 C10.61 198.13 8.91 198.13 7.21 198.14 C3.64 198.14 0.08 198.14 -3.49 198.13 C-8.07 198.12 -12.66 198.13 -17.24 198.13 C-20.75 198.14 -24.27 198.14 -27.78 198.13 C-29.47 198.13 -31.16 198.13 -32.85 198.14 C-35.21 198.14 -37.57 198.13 -39.93 198.13 C-40.63 198.13 -41.34 198.13 -42.06 198.14 C-46.89 198.11 -46.89 198.11 -48 197 C-48 191.06 -48 185.12 -48 179 C-62.85 179 -77.7 179 -93 179 C-91.68 182.96 -90.36 186.92 -89 191 C-89.16 194.59 -89.3 197.57 -90 201 C-88.61 201.15 -88.61 201.15 -87.19 201.31 C-84 202 -84 202 -82.12 203.19 C-80.43 205.91 -80.62 207.86 -81 211 C-82 213.38 -82 213.38 -84 215 C-86.77 215.57 -89.23 215.58 -92 215 C-94.64 212.61 -95.21 210.38 -96 207 C-96.78 207.1 -96.78 207.1 -97.58 207.21 C-107.89 207.97 -116.42 201.4 -124 195 C-128.31 191.12 -128.31 191.12 -130 189 C-130 188.34 -130 187.68 -130 187 C-130.66 187 -131.32 187 -132 187 C-132.33 187.99 -132.66 188.98 -133 190 C-135.84 191.42 -137.85 191.31 -141 191 C-143.37 189.38 -143.37 189.38 -145 187 C-145.61 183.33 -145.49 181.71 -143.38 178.62 C-140.36 176.56 -138.59 176.69 -135 177 C-132.05 177.33 -132.05 177.33 -130.5 175.71 C-126.4 170.53 -124.98 165.83 -123.69 159.41 C-116.41 123.56 -92.88 87.89 -68.27 61.45 C-66.28 59.3 -64.35 57.11 -62.44 54.88 C-52.66 43.68 -42.26 34.76 -29 28 C-21.07 23.94 -13.84 19.81 -7 14 C-7.49 13.58 -7.97 13.15 -8.47 12.71 C-10.46 10.49 -10.49 8.64 -10.35 5.72 C-10 4 -10 4 -8.38 1.56 C-5.28 -0.47 -3.64 -0.61 0 0 Z " fill="#1E1D26" transform="translate(154,46)"/><path d="M0 0 C5.28 0 10.56 0 16 0 C16 0.66 16 1.32 16 2 C16.66 2 17.32 2 18 2 C18 1.34 18 0.68 18 0 C39.45 0 60.9 0 83 0 C81.68 1.32 80.36 2.64 79 4 C79 4.33 79 4.66 79 5 C82.3 5.33 85.6 5.66 89 6 C89 69.03 89 132.06 89 197 C5.51 197 -77.98 197 -164 197 C-164 190 -164 190 -162 188 C-162 187.34 -162 186.68 -162 186 C-161.01 185.01 -161.01 185.01 -160 184 C-160 183.34 -160 182.68 -160 182 C-159.01 181.01 -159.01 181.01 -158 180 C-158.66 179.34 -159.32 178.68 -160 178 C-158.02 177.01 -158.02 177.01 -156 176 C-156 175.34 -156 174.68 -156 174 C-155.01 173.01 -155.01 173.01 -154 172 C-154.66 171.34 -155.32 170.68 -156 170 C-154.02 169.01 -154.02 169.01 -152 168 C-152 166.02 -152 164.04 -152 162 C-150.02 161.01 -150.02 161.01 -148 160 C-148 158.02 -148 156.04 -148 154 C-165.32 153.5 -165.32 153.5 -183 153 C-184.38 150.25 -184.13 148.01 -184.13 144.93 C-184.13 144.34 -184.13 143.75 -184.14 143.13 C-184.14 141.88 -184.13 140.62 -184.13 139.37 C-184.13 137.44 -184.13 135.51 -184.14 133.59 C-184.14 132.37 -184.13 131.15 -184.13 129.93 C-184.13 128.82 -184.13 127.71 -184.13 126.56 C-184 124 -184 124 -183 123 C-181.29 122.91 -179.58 122.89 -177.87 122.9 C-176.94 122.9 -176.01 122.91 -175.05 122.91 C-173.26 122.92 -173.26 122.92 -171.44 122.94 C-167.66 122.96 -163.89 122.98 -160 123 C-160 114.42 -160 105.84 -160 97 C-161.49 96.5 -161.49 96.5 -163 96 C-163 94.35 -163 92.7 -163 91 C-160.62 90.38 -160.62 90.38 -158 90 C-157.34 90.66 -156.68 91.32 -156 92 C-156.25 93.75 -156.25 93.75 -157 96 C-157.35 97.07 -157.7 98.14 -158.06 99.25 C-158.37 100.16 -158.68 101.06 -159 102 C-158.54 102.15 -158.07 102.29 -157.59 102.45 C-153.27 103.85 -149.01 105.36 -144.77 106.98 C-135.12 110.66 -125.36 113.96 -115.56 117.19 C-113.98 117.71 -112.39 118.24 -110.81 118.76 C-107.82 119.75 -104.83 120.74 -101.84 121.73 C-98.8 122.73 -95.77 123.77 -92.75 124.82 C-89.64 125.86 -86.72 126.46 -83.44 126.69 C-82.59 126.75 -81.74 126.82 -80.87 126.89 C-80.25 126.92 -79.64 126.96 -79 127 C-79.32 127.43 -79.65 127.87 -79.98 128.31 C-81.54 130.9 -81.25 133.05 -81 136 C-80.32 137.72 -80.32 137.72 -79 139 C-77.1 139.44 -77.1 139.44 -75 139.31 C-74.3 139.31 -73.6 139.3 -72.88 139.3 C-70.76 139.15 -70.76 139.15 -69 137 C-68.72 135.09 -68.72 135.09 -68.81 133 C-68.82 132.3 -68.83 131.6 -68.83 130.88 C-68.89 128.91 -68.89 128.91 -70 127 C-69.2 126.82 -68.39 126.63 -67.56 126.44 C-49.08 121.97 -31.07 115.23 -15 105 C-14.12 104.45 -13.24 103.9 -12.33 103.34 C-5.01 98.48 1.47 92.52 8.04 86.72 C11.24 83.9 14.46 81.1 17.69 78.31 C18.26 77.81 18.84 77.3 19.43 76.78 C22.16 74.43 24.64 72.4 28 71 C28 70.34 28 69.68 28 69 C29.25 67.75 30.5 66.5 31.81 65.32 C33.26 63.89 33.26 63.89 34 61 C34.8 61.5 34.8 61.5 35.62 62 C39.6 63.67 42.97 63.34 47 62 C47.64 56.07 47.64 56.07 45.38 50.88 C42.17 49.69 40.24 50.01 37 51 C35.59 52.44 35.59 52.44 35 54 C32 53 32 53 29.94 50.81 C23.03 43.68 12.94 39.95 4 36 C4.33 32.37 4.66 28.74 5 25 C6.79 24.28 8.58 23.57 10.37 22.85 C12.19 22.1 12.19 22.1 13 20 C13.49 15.69 13.49 15.69 11.44 12.06 C7.93 10.53 5.71 11.21 2 12 C1.34 13.65 0.68 15.3 0 17 C-0.99 16.67 -1.98 16.34 -3 16 C-4.7 15.92 -6.4 15.89 -8.11 15.9 C-9.58 15.91 -9.58 15.91 -11.08 15.91 C-12.62 15.92 -12.62 15.92 -14.19 15.94 C-15.22 15.94 -16.26 15.95 -17.33 15.95 C-19.88 15.96 -22.44 15.98 -25 16 C-24.67 14.02 -24.34 12.04 -24 10 C-21.36 9.67 -18.72 9.34 -16 9 C-16 8.01 -16 7.02 -16 6 C-13.36 5.67 -10.72 5.34 -8 5 C-8 4.67 -8 4.34 -8 4 C-5.36 3.67 -2.72 3.34 0 3 C0 2.01 0 1.02 0 0 Z " fill="#F0EDFE" transform="translate(449,84)"/><path d="M0 0 C0.99 0.33 1.98 0.66 3 1 C2.34 1 1.68 1 1 1 C1 1.66 1 2.32 1 3 C0.34 3 -0.32 3 -1 3 C-0.67 2.01 -0.34 1.02 0 0 Z M4 0 C4.99 0.33 5.98 0.66 7 1 C6.34 1 5.68 1 5 1 C5 1.66 5 2.32 5 3 C4.34 3 3.68 3 3 3 C3.33 2.01 3.66 1.02 4 0 Z M24 0 C24.99 0.33 25.98 0.66 27 1 C26.34 1 25.68 1 25 1 C25 1.66 25 2.32 25 3 C24.34 3 23.68 3 23 3 C23.33 2.01 23.66 1.02 24 0 Z M20 0 C20.99 0.33 21.98 0.66 23 1 C22.34 1 21.68 1 21 1 C21 1.66 21 2.32 21 3 C31.89 3.5 31.89 3.5 43 4 C42.34 4.33 41.68 4.66 41 5 C41 5.66 41 6.32 41 7 C47.93 7.5 47.93 7.5 55 8 C55 8.99 55 9.98 55 11 C56.98 11.33 58.96 11.66 61 12 C61 38.07 61 64.14 61 91 C17.2 91.12 17.2 91.12 -1.11 91.15 C-13.77 91.16 -26.42 91.19 -39.08 91.23 C-48.3 91.26 -57.51 91.28 -66.73 91.28 C-71.61 91.29 -76.5 91.3 -81.38 91.32 C-85.97 91.34 -90.56 91.34 -95.15 91.34 C-96.84 91.34 -98.53 91.35 -100.22 91.36 C-102.52 91.37 -104.82 91.37 -107.12 91.36 C-107.79 91.37 -108.47 91.38 -109.16 91.39 C-111.02 91.37 -111.02 91.37 -114 91 C-115.43 89.48 -115.43 89.48 -116 88 C-114.02 87.01 -114.02 87.01 -112 86 C-112 85.34 -112 84.68 -112 84 C-110.02 83.01 -110.02 83.01 -108 82 C-108.66 81.34 -109.32 80.68 -110 80 C-108.02 79.01 -108.02 79.01 -106 78 C-106 77.34 -106 76.68 -106 76 C-105.01 75.01 -105.01 75.01 -104 74 C-104 73.34 -104 72.68 -104 72 C-102.02 71.01 -102.02 71.01 -100 70 C-100 69.34 -100 68.68 -100 68 C-98.02 67.01 -98.02 67.01 -96 66 C-96.66 65.34 -97.32 64.68 -98 64 C-95.03 63.5 -95.03 63.5 -92 63 C-92.66 62.01 -93.32 61.02 -94 60 C-92.68 59.34 -91.36 58.68 -90 58 C-90.66 57.34 -91.32 56.68 -92 56 C-90.68 55.34 -89.36 54.68 -88 54 C-88 53.34 -88 52.68 -88 52 C-86.68 51.34 -85.36 50.68 -84 50 C-84 49.34 -84 48.68 -84 48 C-82.68 47.34 -81.36 46.68 -80 46 C-80 45.34 -80 44.68 -80 44 C-78.68 43.34 -77.36 42.68 -76 42 C-76 41.34 -76 40.68 -76 40 C-73.03 39.5 -73.03 39.5 -70 39 C-70.66 38.01 -71.32 37.02 -72 36 C-69.03 35.5 -69.03 35.5 -66 35 C-66.66 34.01 -67.32 33.02 -68 32 C-64.04 31.5 -64.04 31.5 -60 31 C-60 30.01 -60 29.02 -60 28 C-58.68 27.34 -57.36 26.68 -56 26 C-56 25.34 -56 24.68 -56 24 C-52.04 23.5 -52.04 23.5 -48 23 C-48 22.01 -48 21.02 -48 20 C-46.68 19.34 -45.36 18.68 -44 18 C-44 17.34 -44 16.68 -44 16 C-40.04 15.67 -36.08 15.34 -32 15 C-33.32 14.01 -34.64 13.02 -36 12 C-32.04 11.67 -28.08 11.34 -24 11 C-25.32 10.01 -26.64 9.02 -28 8 C-24.37 7.67 -20.74 7.34 -17 7 C-16.67 6.01 -16.34 5.02 -16 4 C-13.1 3.83 -10.21 3.66 -7.31 3.5 C-6.02 3.43 -6.02 3.43 -4.7 3.35 C1.37 3.03 7.35 2.99 13.43 3.26 C16.49 2.95 17.63 1.85 20 0 Z M-14 5 C-13 7 -13 7 -13 7 Z M17 5 C17 5.33 17 5.66 17 6 C24.26 6 31.52 6 39 6 C39 5.67 39 5.34 39 5 C31.74 5 24.48 5 17 5 Z " fill="#EEEDFF" transform="translate(477,190)"/><path d="M0 0 C4.59 1.62 8.52 3.99 12.62 6.56 C13.33 7 14.04 7.45 14.77 7.9 C19.93 11.18 24.61 14.74 29.18 18.8 C36.58 24.88 44.98 28.38 53.94 31.5 C65.64 35.59 75.71 40.59 85.38 48.38 C99.87 59.69 111.29 66.7 130.38 64.76 C137.34 63.57 143.14 60.33 147.76 54.96 C149.34 52.7 150.69 50.42 152 48 C152.4 47.32 152.8 46.64 153.22 45.94 C156.65 39.07 156.5 31.84 156.5 24.31 C156.58 17.59 156.58 17.59 158.78 14.47 C168.16 8.27 181.37 7.86 192.25 6.56 C198.61 5.79 204.97 5.01 211.32 4.14 C212.34 4 213.35 3.86 214.4 3.72 C216.32 3.46 218.24 3.19 220.16 2.91 C226.14 2.1 231.96 1.85 238 2 C237.27 5.31 236.4 6.96 234.06 9.44 C229.16 14.63 228.53 20.3 227.56 27.16 C227 30 227 30 225.98 32.01 C224.7 34.6 224.58 36.88 224.38 39.75 C224.3 40.73 224.23 41.72 224.15 42.73 C224.07 43.86 224.07 43.86 224 45 C223.22 45.29 222.43 45.58 221.62 45.88 C218.9 46.85 218.9 46.85 217 49 C216.54 52.56 216.54 52.56 217 56 C219.56 58.34 221.12 58.96 224.56 59.12 C227.39 57.82 227.57 57.2 228.88 54.5 C230.55 51.15 230.55 51.15 232.63 50.46 C233.84 50.36 235.04 50.29 236.25 50.23 C239.22 49.84 240.92 48.02 243 46 C244.22 43.57 244.32 41.58 244.56 38.88 C244.65 37.96 244.73 37.05 244.82 36.12 C244.88 35.42 244.94 34.72 245 34 C246.07 34.08 247.14 34.16 248.25 34.25 C251.31 34.26 251.84 34.13 254.38 32.12 C256.03 30.1 256.03 30.1 257 28 C260.49 28.65 263.03 30.1 266 32 C264.4 36.34 261.21 38.65 257.75 41.5 C256.48 42.57 255.2 43.64 253.93 44.71 C253.28 45.25 252.62 45.8 251.95 46.36 C249.48 48.43 247.05 50.55 244.62 52.67 C229.65 65.66 214.66 75.25 196.06 82.44 C195.21 82.77 194.36 83.1 193.48 83.44 C172.65 91.18 157.06 88.03 136.85 80.09 C133.16 78.68 129.42 77.5 125.62 76.38 C97.61 67.85 75.29 54.33 52.12 36.57 C48.52 33.9 45.42 33.45 41 34 C38.82 34.95 38.82 34.95 37 36 C36.89 35.49 36.77 34.98 36.65 34.45 C33.66 25.24 25.44 20.52 18 15 C16.18 13.62 14.36 12.23 12.55 10.84 C11.47 10.02 10.39 9.2 9.3 8.39 C5.91 5.82 2.95 3.06 0 0 Z " fill="#EFEDFC" transform="translate(203,110)"/><path d="M0 0 C0.71 0 1.41 0 2.14 0.01 C3.25 0 3.25 0 4.38 0 C6.84 -0 9.29 -0 11.75 0 C13.45 0 15.15 0 16.85 -0 C20.42 -0 23.99 0 27.55 0.01 C32.14 0.01 36.72 0.01 41.31 0 C44.82 -0 48.33 -0 51.84 0 C53.53 0 55.22 0 56.91 -0 C59.27 -0 61.63 0 63.99 0.01 C64.69 0 65.4 0 66.13 0 C70.95 0.02 70.95 0.02 72.06 1.14 C72.16 3.79 72.2 6.42 72.2 9.07 C72.2 9.87 72.2 10.66 72.2 11.48 C72.2 13.17 72.2 14.85 72.19 16.54 C72.19 19.12 72.19 21.71 72.2 24.3 C72.2 25.93 72.2 27.57 72.2 29.2 C72.2 29.98 72.2 30.76 72.2 31.56 C72.18 37.02 72.18 37.02 71.06 38.14 C68.7 38.24 66.36 38.27 63.99 38.26 C63.25 38.27 62.51 38.27 61.75 38.27 C59.29 38.27 56.83 38.27 54.38 38.27 C52.68 38.27 50.98 38.27 49.28 38.27 C45.71 38.27 42.14 38.27 38.57 38.27 C33.99 38.26 29.41 38.26 24.82 38.27 C21.31 38.27 17.8 38.27 14.29 38.27 C12.59 38.27 10.9 38.27 9.21 38.27 C6.86 38.27 4.5 38.27 2.14 38.26 C1.43 38.27 0.73 38.27 0 38.27 C-4.82 38.25 -4.82 38.25 -5.94 37.14 C-5.94 31.2 -5.94 25.26 -5.94 19.14 C-21.78 19.14 -37.62 19.14 -53.94 19.14 C-54.27 18.48 -54.6 17.82 -54.94 17.14 C-30.68 17.63 -30.68 17.63 -5.94 18.14 C-5.94 12.53 -5.94 6.92 -5.94 1.14 C-4.27 -0.54 -2.23 0.01 0 0 Z " fill="#15BF03" transform="translate(111.93637084960938,205.86447143554688)"/><path d="M0 0 C1.48 0.95 2.96 1.91 4.44 2.88 C5.26 3.41 6.08 3.94 6.93 4.49 C9 6 9 6 10 8 C9.47 8.14 8.95 8.28 8.4 8.42 C-13 14.2 -33.57 23.24 -45.78 42.86 C-46.99 45.97 -47.1 47.92 -46.75 51.2 C-46.16 56.96 -46.48 61.18 -50.01 65.88 C-51.81 68.03 -53.66 70.14 -55.52 72.23 C-58.21 75.45 -60.49 78.95 -62.81 82.44 C-64.51 84.98 -66.23 87.5 -68 90 C-68.42 90.6 -68.83 91.2 -69.26 91.82 C-70.43 93.38 -71.51 94.74 -73 96 C-75.5 96.23 -75.5 96.23 -78 95.62 C-80.48 94.95 -80.48 94.95 -83 95 C-86.97 97.66 -88.96 100.2 -91.01 104.47 C-91.26 105 -91.51 105.52 -91.77 106.06 C-92.3 107.16 -92.82 108.27 -93.34 109.38 C-94.12 111.04 -94.91 112.69 -95.71 114.34 C-100.44 124.2 -103.54 133.6 -103.38 144.62 C-103.39 145.41 -103.4 146.19 -103.41 146.99 C-103.38 152.14 -102.46 156.28 -100.55 161.07 C-100 163 -100 163 -101 166 C-105.83 162.84 -110.58 159.71 -115 156 C-114.71 155.44 -114.42 154.88 -114.12 154.3 C-111.02 147.93 -109 141.4 -107.69 134.44 C-104.72 119.4 -97.76 106.07 -90.11 92.94 C-88.66 90.41 -87.3 87.83 -85.94 85.25 C-79.67 73.77 -72.24 63.15 -64 53 C-63.56 52.45 -63.12 51.91 -62.66 51.35 C-47.27 32.47 -31.46 17.98 -9.68 7.09 C-5.84 5.14 -2.87 3.31 0 0 Z " fill="#F3F3F7" transform="translate(151,73)"/><path d="M0 0 C1.68 0.29 3.34 0.62 5 1 C5.62 2.88 5.62 2.88 6 5 C5.34 5.66 4.68 6.32 4 7 C3.63 9.72 3.63 9.72 3.59 12.88 C3.57 13.46 3.55 14.03 3.53 14.62 C3.47 16.46 3.42 18.29 3.38 20.12 C3.34 21.37 3.3 22.61 3.26 23.86 C3.16 26.9 3.08 29.95 3 33 C3.69 32.99 4.38 32.99 5.1 32.98 C8.21 32.96 11.32 32.95 14.44 32.94 C15.53 32.93 16.61 32.92 17.74 32.91 C18.77 32.91 19.81 32.91 20.87 32.9 C21.83 32.9 22.79 32.89 23.78 32.89 C26 33 26 33 27 34 C27.1 35.99 27.13 37.98 27.13 39.97 C27.13 40.56 27.13 41.16 27.14 41.77 C27.14 43.03 27.13 44.3 27.13 45.56 C27.13 47.49 27.13 49.43 27.14 51.36 C27.14 52.59 27.13 53.81 27.13 55.03 C27.13 56.15 27.13 57.27 27.13 58.42 C27 61 27 61 26 62 C24.53 62.1 23.06 62.13 21.59 62.13 C20.65 62.13 19.71 62.14 18.75 62.14 C17.73 62.14 16.71 62.13 15.66 62.13 C14.1 62.13 14.1 62.13 12.51 62.14 C10.3 62.14 8.1 62.13 5.9 62.13 C2.51 62.13 -0.87 62.13 -4.25 62.14 C-6.39 62.14 -8.52 62.13 -10.66 62.13 C-11.68 62.13 -12.7 62.14 -13.75 62.14 C-15.15 62.13 -15.15 62.13 -16.59 62.13 C-17.42 62.13 -18.25 62.13 -19.1 62.13 C-21 62 -21 62 -22 61 C-22.1 59.01 -22.13 57.02 -22.13 55.03 C-22.13 54.44 -22.13 53.84 -22.14 53.23 C-22.14 51.97 -22.13 50.7 -22.13 49.44 C-22.13 47.51 -22.13 45.57 -22.14 43.64 C-22.14 42.41 -22.13 41.19 -22.13 39.97 C-22.13 38.85 -22.13 37.73 -22.13 36.58 C-22 34 -22 34 -21 33 C-19.29 32.91 -17.58 32.89 -15.87 32.9 C-14.94 32.9 -14.01 32.91 -13.05 32.91 C-11.26 32.92 -11.26 32.92 -9.44 32.94 C-5.66 32.96 -1.89 32.98 2 33 C2 24.42 2 15.84 2 7 C1.01 6.67 0.02 6.34 -1 6 C-1.04 4.33 -1.04 2.67 -1 1 C-0.67 0.67 -0.34 0.34 0 0 Z " fill="#FF02FF" transform="translate(287,174)"/><path d="M0 0 C2.21 1.82 3.12 3.46 3.86 6.22 C4.2 9.86 3.96 12.27 1.84 15.32 C0.59 16.78 -0.68 18.23 -1.94 19.68 C-4.61 23.54 -5.21 27.55 -6.06 32.11 C-6.61 34.82 -7.32 37.15 -8.37 39.7 C-9.57 42.64 -9.99 44.98 -9.68 48.2 C-8.03 48.2 -6.38 48.2 -4.68 48.2 C-4.65 47.53 -4.61 46.86 -4.58 46.17 C-4.41 43.11 -4.2 40.06 -4 37.01 C-3.94 35.96 -3.89 34.9 -3.83 33.81 C-3.2 25.05 -3.2 25.05 -0.48 21.96 C2.96 19.79 4.31 19.53 8.32 20.2 C11.24 21.2 13.98 22.47 16.75 23.82 C17.48 24.16 18.2 24.49 18.95 24.83 C24.84 27.63 31.15 30.95 33.44 37.32 C33.3 40.66 32.7 41.9 30.32 44.2 C29.66 44.2 29 44.2 28.32 44.2 C28.32 44.86 28.32 45.52 28.32 46.2 C26.6 47.78 24.89 49.25 23.07 50.7 C22.58 51.1 22.08 51.51 21.58 51.92 C18.95 54.04 16.42 55.84 13.32 57.2 C13.32 57.86 13.32 58.52 13.32 59.2 C11.7 60.65 10.09 61.99 8.38 63.32 C4.8 66.16 1.38 69.05 -1.93 72.2 C-20.55 88.83 -50.56 101.56 -75.46 101.43 C-80.72 101.05 -85.63 99.7 -90.68 98.2 C-90.68 97.54 -90.68 96.88 -90.68 96.2 C-89.44 96.43 -89.44 96.43 -88.16 96.66 C-60.36 101.26 -33.86 90.41 -11.02 74.99 C-6.87 72.2 -6.87 72.2 -4.68 72.2 C-4.68 71.54 -4.68 70.88 -4.68 70.2 C-3.09 68.77 -1.5 67.45 0.19 66.14 C3.94 63.15 7.59 60.12 11.13 56.89 C17.4 51.18 23.86 45.69 30.32 40.2 C29.99 37.34 29.79 35.67 27.71 33.61 C23.14 30.73 18.47 28.13 13.63 25.76 C12.83 25.35 12.83 25.35 12.01 24.94 C8.09 23.11 5.47 23.15 1.32 24.2 C-0.16 30.66 -0.97 36.91 -1.24 43.54 C-1.75 46.59 -2.5 48.02 -4.68 50.2 C-7.87 50.45 -7.87 50.45 -10.68 50.2 C-10.68 49.54 -10.68 48.88 -10.68 48.2 C-11.34 48.2 -12 48.2 -12.68 48.2 C-13.03 43.64 -12.2 40.67 -10.47 36.48 C-9.56 33.85 -9.16 31.32 -8.75 28.57 C-7.72 22.46 -5.65 19.33 -1.43 14.76 C0.96 11.26 0.71 9.38 0.32 5.2 C-0.18 4.21 -0.18 4.21 -0.68 3.2 C-6.12 1.73 -12.1 2.08 -17.68 2.2 C-17.68 1.54 -17.68 0.88 -17.68 0.2 C-4.35 -2.07 -4.35 -2.07 0 0 Z " fill="#0394BD" transform="translate(444.68359375,104.80078125)"/><path d="M0 0 C5.71 1.9 11.33 3.84 16.94 6 C22.89 8.26 28.85 10.32 35 12 C35 12.99 35 13.98 35 15 C36.32 15.33 37.64 15.66 39 16 C37.02 16.99 37.02 16.99 35 18 C35 18.66 35 19.32 35 20 C34.34 20.66 33.68 21.32 33 22 C33 22.66 33 23.32 33 24 C32.34 24.66 31.68 25.32 31 26 C30.83 28.08 30.83 28.08 31 30 C30.34 30 29.68 30 29 30 C29 30.66 29 31.32 29 32 C28.34 32 27.68 32 27 32 C27 32.66 27 33.32 27 34 C26.34 33.67 25.68 33.34 25 33 C25 29.37 25 25.74 25 22 C16.75 21.67 8.5 21.34 0 21 C0 14.07 0 7.14 0 0 Z " fill="#F8F7FD" transform="translate(290,186)"/><path d="M0 0 C0.96 0.71 1.91 1.45 2.85 2.2 C3.59 2.74 3.59 2.74 4.34 3.3 C5.58 4.25 6.75 5.28 7.91 6.32 C7.91 6.98 7.91 7.64 7.91 8.32 C8.63 8.56 9.34 8.8 10.08 9.05 C13.27 10.48 15.63 12.4 18.22 14.7 C22.92 18.73 27.75 22.51 32.72 26.2 C39.01 30.85 45.15 35.64 51.21 40.58 C51.8 41.05 52.39 41.53 53 42.02 C53.51 42.44 54.03 42.86 54.56 43.3 C55.95 44.42 55.95 44.42 57.91 45.32 C57.91 45.98 57.91 46.64 57.91 47.32 C59.02 47.69 59.02 47.69 60.16 48.07 C63.26 49.48 64.81 50.64 66.91 53.32 C67.22 54.48 67.49 55.65 67.72 56.82 C68.28 59.22 68.63 60.1 70.59 61.66 C72.33 62.64 74.07 63.53 75.91 64.32 C75.91 63.66 75.91 63 75.91 62.32 C76.57 62.32 77.23 62.32 77.91 62.32 C77.91 61.66 77.91 61 77.91 60.32 C81.6 59.98 83.44 60.02 86.61 62.04 C87.45 62.77 88.29 63.5 89.16 64.26 C92.34 67.09 92.34 67.09 95.91 69.32 C95.91 69.98 95.91 70.64 95.91 71.32 C96.58 71.55 97.25 71.78 97.93 72.01 C101.77 73.7 105.07 75.92 108.54 78.26 C109.2 78.7 109.87 79.14 110.56 79.6 C113.63 81.66 116.35 83.64 118.91 86.32 C117.92 86.82 117.92 86.82 116.91 87.32 C114.77 86.17 112.8 84.97 110.79 83.63 C110.17 83.23 109.56 82.83 108.93 82.42 C103.28 78.68 97.86 74.63 92.51 70.48 C88.46 67.38 84.39 64.75 79.91 62.32 C79.32 63.31 79.32 63.31 78.72 64.32 C76.91 66.32 76.91 66.32 74.6 66.88 C70.7 66.07 68.47 64.33 65.91 61.32 C65.19 59.46 65.19 59.46 64.61 57.45 C63 52.94 60.7 50.9 56.85 48.2 C55.58 47.25 54.31 46.31 53.05 45.36 C52.37 44.87 51.7 44.38 51.01 43.87 C47.34 41.16 43.76 38.32 40.16 35.51 C38.63 34.32 37.1 33.13 35.57 31.94 C34.8 31.34 34.03 30.75 33.24 30.13 C32.47 29.53 31.7 28.94 30.91 28.32 C27.83 25.92 24.74 23.53 21.66 21.13 C20.92 20.56 20.18 19.98 19.41 19.39 C14 15.18 8.61 10.95 3.24 6.69 C-1.94 2.22 -1.94 2.22 -8.34 1.32 C-23.96 3.26 -38.19 12.46 -49.09 23.32 C-49.73 23.91 -50.36 24.5 -51.02 25.11 C-56.1 30.61 -55.88 36.78 -55.98 43.91 C-56.09 47.32 -56.09 47.32 -57.09 49.32 C-57.75 49.32 -58.41 49.32 -59.09 49.32 C-58.92 48.81 -58.74 48.29 -58.56 47.77 C-58.05 45.14 -58.21 42.8 -58.41 40.14 C-58.78 34.03 -58.59 29.88 -54.65 24.88 C-53.17 23.32 -51.65 21.8 -50.09 20.32 C-49.4 19.63 -48.72 18.93 -48.01 18.21 C-39.48 10.05 -29.85 4.6 -18.71 0.82 C-17.59 0.44 -17.59 0.44 -16.45 0.05 C-10.84 -1.73 -5.32 -3.35 0 0 Z " fill="#048EB6" transform="translate(167.08984375,88.6796875)"/><path d="M0 0 C0.81 -0.02 1.61 -0.04 2.44 -0.05 C3.2 -0.05 3.96 -0.05 4.75 -0.05 C5.43 -0.05 6.12 -0.06 6.83 -0.06 C8.56 0.31 8.56 0.31 10.56 3.31 C7.92 3.64 5.28 3.97 2.56 4.31 C3.55 5.8 3.55 5.8 4.56 7.31 C2.58 7.64 0.6 7.97 -1.44 8.31 C-1.44 9.3 -1.44 10.29 -1.44 11.31 C-3.42 12.3 -3.42 12.3 -5.44 13.31 C-5.44 13.97 -5.44 14.63 -5.44 15.31 C-7.42 16.3 -7.42 16.3 -9.44 17.31 C-9.44 17.97 -9.44 18.63 -9.44 19.31 C-11.42 20.3 -11.42 20.3 -13.44 21.31 C-13.44 21.97 -13.44 22.63 -13.44 23.31 C-15.42 24.3 -15.42 24.3 -17.44 25.31 C-17.44 25.97 -17.44 26.63 -17.44 27.31 C-20.08 27.31 -22.72 27.31 -25.44 27.31 C-25.44 20.38 -25.44 13.45 -25.44 6.31 C-16.46 1.18 -10 0.14 0 0 Z " fill="#F7F7FC" transform="translate(386.4375,118.6875)"/><path d="M0 0 C0 0.66 0 1.32 0 2 C-0.82 2.1 -0.82 2.1 -1.65 2.21 C-7.4 2.93 -13.14 3.66 -18.88 4.4 C-21.02 4.67 -23.15 4.94 -25.29 5.21 C-47.75 6.7 -47.75 6.7 -68 15 C-69.66 17.8 -70.25 19.88 -70.27 23.12 C-70.3 24.3 -70.3 24.3 -70.33 25.5 C-70.34 26.32 -70.36 27.15 -70.38 28 C-70.83 39.93 -72.96 50.41 -82 59 C-87.68 63.55 -93.43 64.45 -100.5 64.56 C-101.53 64.58 -101.53 64.58 -102.58 64.61 C-112.84 64.4 -120.63 59.28 -128.5 53.19 C-130.17 51.93 -131.85 50.67 -133.52 49.41 C-135.54 47.88 -137.57 46.33 -139.58 44.78 C-151.53 35.58 -166.41 30.94 -180.37 25.65 C-182 25 -182 25 -184 24 C-184 23.34 -184 22.68 -184 22 C-164.04 28.5 -146.93 35.7 -130.25 48.53 C-118.97 57.2 -109.45 63.27 -94.59 61.75 C-87.23 60.15 -82.93 56.33 -78.39 50.49 C-73.99 42.62 -73.57 35.03 -73.56 26.2 C-73.43 20.49 -72.75 17.38 -69 13 C-61.65 6.65 -50.16 5.51 -40.92 4.39 C-39.9 4.27 -38.88 4.14 -37.84 4 C-35.7 3.74 -33.57 3.47 -31.44 3.21 C-28.18 2.81 -24.92 2.4 -21.66 1.99 C-19.58 1.73 -17.5 1.47 -15.42 1.21 C-14.45 1.09 -13.48 0.96 -12.48 0.84 C-11.57 0.73 -10.66 0.62 -9.72 0.5 C-8.93 0.41 -8.14 0.31 -7.32 0.21 C-4.87 -0.01 -2.46 -0.04 0 0 Z " fill="#ED0101" transform="translate(426,106)"/><path d="M0 0 C1 3 1 3 0.26 4.72 C-0.34 5.67 -0.34 5.67 -0.96 6.63 C-1.41 7.35 -1.85 8.06 -2.32 8.8 C-2.81 9.57 -3.3 10.33 -3.81 11.12 C-4.84 12.76 -5.86 14.4 -6.88 16.04 C-7.41 16.87 -7.93 17.7 -8.47 18.56 C-20.06 37 -30.87 57.19 -33.94 79.06 C-34.64 83.81 -36.33 86.17 -39.95 89.27 C-41.32 91.1 -41.32 91.1 -40.46 93.95 C-36.94 101.31 -27.46 106.98 -20 110 C-17.83 110.17 -17.83 110.17 -16 110 C-14.15 106.31 -15.31 101.96 -16 98 C-16.48 96.71 -17 95.44 -17.56 94.19 C-19.88 88.74 -19.24 82.8 -19 77 C-18.34 77 -17.68 77 -17 77 C-16.97 77.8 -16.95 78.6 -16.92 79.42 C-16.55 86.58 -15.48 92.49 -12.84 99.25 C-11.51 103.62 -11.37 106.8 -13.5 110.88 C-14.24 111.93 -14.24 111.93 -15 113 C-26.21 112.12 -34.49 104.7 -42 97 C-43.45 94.1 -43.37 92.23 -43 89 C-41.93 87.66 -41.93 87.66 -40.59 86.3 C-37.5 82.75 -36.92 79.43 -36.19 74.88 C-31.67 51.5 -17.29 17.29 0 0 Z " fill="#87878D" transform="translate(71,135)"/><path d="M0 0 C2.58 0.9 4.22 1.89 6.34 3.6 C7.06 4.17 7.77 4.74 8.51 5.32 C9.26 5.93 10.02 6.55 10.79 7.18 C12.42 8.46 14.04 9.75 15.66 11.03 C16.88 12 16.88 12 18.12 12.99 C30.34 22.71 42.95 31.07 56.48 38.86 C53.48 39.86 53.48 39.86 51.59 39.1 C50.88 38.68 50.17 38.26 49.45 37.83 C48.65 37.36 47.84 36.88 47.02 36.4 C46.16 35.87 45.3 35.34 44.42 34.8 C43.09 33.99 43.09 33.99 41.73 33.17 C33.16 27.86 25.31 21.78 17.48 15.46 C14.55 13.12 11.55 10.86 8.54 8.61 C7.63 7.93 6.71 7.24 5.77 6.54 C4.63 5.71 4.63 5.71 3.48 4.86 C2.65 4.25 2.65 4.25 1.81 3.63 C0.41 2.68 0.41 2.68 -1.77 2.86 C-4.51 3.86 -5.48 4.64 -7.55 6.59 C-11.87 10.38 -16.7 12.72 -21.83 15.24 C-29.43 19.13 -36.35 22.89 -42.52 28.86 C-43.18 29.5 -43.84 30.13 -44.52 30.78 C-53.42 39.36 -62.03 48.01 -69.52 57.86 C-70.44 59.05 -71.35 60.24 -72.27 61.42 C-74.7 64.56 -77.11 67.71 -79.52 70.86 C-79.85 69.87 -80.18 68.88 -80.52 67.86 C-79.16 65.72 -77.8 63.83 -76.21 61.86 C-75.75 61.29 -75.3 60.72 -74.83 60.12 C-71.02 55.36 -66.98 50.82 -62.82 46.35 C-60.82 44.19 -58.88 41.98 -56.96 39.74 C-45.81 27.01 -34.3 18.35 -19.17 10.93 C-13.69 8.2 -9.18 5.2 -4.61 1.11 C-2.52 -0.14 -2.52 -0.14 0 0 Z " fill="#EC0101" transform="translate(152.51904296875,65.135009765625)"/><path d="M0 0 C2.17 0.51 4 1 6 2 C6 2.66 6 3.32 6 4 C6.74 4.25 7.49 4.5 8.25 4.75 C11.35 6.16 12.9 7.32 15 10 C15.31 11.16 15.58 12.33 15.81 13.5 C16.37 15.9 16.72 16.78 18.68 18.34 C20.42 19.32 22.16 20.21 24 21 C24 20.34 24 19.68 24 19 C24.66 19 25.32 19 26 19 C26 18.34 26 17.68 26 17 C29.69 16.66 31.53 16.7 34.7 18.71 C35.54 19.45 36.38 20.18 37.25 20.94 C40.43 23.77 40.43 23.77 44 26 C44 26.66 44 27.32 44 28 C44.67 28.23 45.34 28.46 46.02 28.69 C49.86 30.38 53.16 32.6 56.62 34.94 C57.29 35.38 57.96 35.82 58.65 36.28 C61.72 38.34 64.44 40.32 67 43 C66.01 43.5 66.01 43.5 65 44 C62.86 42.85 60.89 41.65 58.88 40.31 C58.26 39.91 57.65 39.51 57.02 39.1 C51.37 35.36 45.95 31.31 40.6 27.16 C36.55 24.06 32.48 21.43 28 19 C27.61 19.66 27.22 20.32 26.81 21 C25 23 25 23 22.69 23.56 C18.84 22.76 16.49 21.04 14 18 C13.3 16.17 13.3 16.17 12.75 14.19 C11.18 9.07 7.38 6.72 3.18 3.66 C1 2 1 2 0 0 Z " fill="#0392BB" transform="translate(219,132)"/><path d="M0 0 C2.38 1.62 2.38 1.62 4 4 C4.48 7.31 4.3 9.3 3 12.38 C0.29 14.57 -1.71 14.56 -5.12 14.4 C-7 14 -7 14 -9 12.12 C-10 10 -10 10 -10 8 C-10.66 7.67 -11.32 7.34 -12 7 C-10.55 2.41 -10.55 2.41 -8.25 0.69 C-5.28 -0.22 -3.09 -0.39 0 0 Z " fill="#2B2D35" transform="translate(126,133)"/><path d="M0 0 C2.64 0 5.28 0 8 0 C8 0.66 8 1.32 8 2 C7.34 2 6.68 2 6 2 C6 2.66 6 3.32 6 4 C3.03 3.5 3.03 3.5 0 3 C0 2.01 0 1.02 0 0 Z M-21 1 C-20.67 1 -20.34 1 -20 1 C-20 7.27 -20 13.54 -20 20 C-17.36 20 -14.72 20 -12 20 C-12 20.66 -12 21.32 -12 22 C-12.66 22 -13.32 22 -14 22 C-14 22.66 -14 23.32 -14 24 C-14.66 24 -15.32 24 -16 24 C-16.33 24.66 -16.66 25.32 -17 26 C-17 25.34 -17 24.68 -17 24 C-18.32 24 -19.64 24 -21 24 C-21 16.41 -21 8.82 -21 1 Z M-4 4 C-1.36 4 1.28 4 4 4 C4 4.66 4 5.32 4 6 C3.34 6 2.68 6 2 6 C2 6.66 2 7.32 2 8 C-0.97 7.5 -0.97 7.5 -4 7 C-4 6.01 -4 5.02 -4 4 Z M-8 8 C-5.36 8 -2.72 8 0 8 C0 8.66 0 9.32 0 10 C-0.66 10 -1.32 10 -2 10 C-2 10.66 -2 11.32 -2 12 C-4.97 11.5 -4.97 11.5 -8 11 C-8 10.01 -8 9.02 -8 8 Z M-12 12 C-9.36 12 -6.72 12 -4 12 C-4 12.66 -4 13.32 -4 14 C-4.66 14 -5.32 14 -6 14 C-6 14.66 -6 15.32 -6 16 C-8.97 15.5 -8.97 15.5 -12 15 C-12 14.01 -12 13.02 -12 12 Z M-16 16 C-13.36 16 -10.72 16 -8 16 C-8 16.66 -8 17.32 -8 18 C-8.66 18 -9.32 18 -10 18 C-10 18.66 -10 19.32 -10 20 C-12.97 19.5 -12.97 19.5 -16 19 C-16 18.01 -16 17.02 -16 16 Z " fill="#E8E6F3" transform="translate(381,126)"/><path d="M0 0 C0.33 0 0.66 0 1 0 C1 1.98 1 3.96 1 6 C1.66 6 2.32 6 3 6 C3 4.02 3 2.04 3 0 C3.99 0.33 4.98 0.66 6 1 C5.34 1 4.68 1 4 1 C4.99 2.98 5.98 4.96 7 7 C5.68 7.33 4.36 7.66 3 8 C2.67 9.98 2.34 11.96 2 14 C0.35 13.67 -1.3 13.34 -3 13 C-2.01 12.34 -1.02 11.68 0 11 C-0.99 10.34 -1.98 9.68 -3 9 C-1.68 9 -0.36 9 1 9 C1 8.34 1 7.68 1 7 C-1.31 7 -3.62 7 -6 7 C-4.36 5.88 -2.78 4.89 -1 4 C-0.35 1.98 -0.35 1.98 0 0 Z M-15 9 C-13.68 9 -12.36 9 -11 9 C-11 10.65 -11 12.3 -11 14 C-10.34 14 -9.68 14 -9 14 C-9 12.35 -9 10.7 -9 9 C-8.01 9 -7.02 9 -6 9 C-5.67 10.65 -5.34 12.3 -5 14 C-3.35 14.33 -1.7 14.66 0 15 C-0.33 16.32 -0.66 17.64 -1 19 C-1.66 18.34 -2.32 17.68 -3 17 C-5.58 16.83 -5.58 16.83 -8 17 C-8.33 18.98 -8.66 20.96 -9 23 C-10.65 22.67 -12.3 22.34 -14 22 C-13.53 21.57 -13.05 21.13 -12.56 20.69 C-10.76 18.98 -10.76 18.98 -10 16 C-11.98 16 -13.96 16 -16 16 C-15.67 15.01 -15.34 14.02 -15 13 C-16.32 12.67 -17.64 12.34 -19 12 C-17.68 12 -16.36 12 -15 12 C-15 11.01 -15 10.02 -15 9 Z " fill="#13BF01" transform="translate(141,214)"/><path d="M0 0 C0.99 0 1.98 0 3 0 C3.5 1.48 3.5 1.48 4 3 C2.23 3.98 0.46 4.96 -1.31 5.94 C-2.3 6.48 -3.28 7.03 -4.3 7.59 C-7 9 -7 9 -10 10 C-10.33 10.66 -10.66 11.32 -11 12 C-12.11 13.08 -13.26 14.11 -14.44 15.12 C-15.05 15.66 -15.67 16.2 -16.31 16.76 C-18 18 -18 18 -20 18 C-20.33 18.99 -20.66 19.98 -21 21 C-21.66 21 -22.32 21 -23 21 C-23.33 21.99 -23.66 22.98 -24 24 C-26.14 26.36 -28.26 28.36 -31 30 C-31.66 29.67 -32.32 29.34 -33 29 C-32.67 28.01 -32.34 27.02 -32 26 C-31.34 26 -30.68 26 -30 26 C-29.67 25.01 -29.34 24.02 -29 23 C-28.34 23 -27.68 23 -27 23 C-26.67 22.01 -26.34 21.02 -26 20 C-25.34 20 -24.68 20 -24 20 C-23.67 19.01 -23.34 18.02 -23 17 C-22.34 17 -21.68 17 -21 17 C-20.67 16.01 -20.34 15.02 -20 14 C-19.34 14 -18.68 14 -18 14 C-17.67 13.34 -17.34 12.68 -17 12 C-15.67 11.33 -14.33 10.67 -13 10 C-12.67 9.34 -12.34 8.68 -12 8 C-10.66 6.93 -10.66 6.93 -9.06 5.88 C-8.54 5.52 -8.01 5.17 -7.47 4.8 C-6 4 -6 4 -4 4 C-3.67 3.34 -3.34 2.68 -3 2 C-2.01 2 -1.02 2 0 2 C0 1.34 0 0.68 0 0 Z " fill="#C7E1C6" transform="translate(118,69)"/><path d="M0 0 C0.33 0.66 0.66 1.32 1 2 C-0.65 2.66 -2.3 3.32 -4 4 C-1.65 5.43 -0.52 6.09 2.25 5.62 C2.83 5.42 3.4 5.21 4 5 C4.33 7.64 4.66 10.28 5 13 C3.31 14.56 3.31 14.56 1 16 C-1.87 15.86 -3.74 15.13 -6.31 13.88 C-8 12 -8 12 -8.5 8.56 C-8.33 5.74 -8.01 5.01 -6.25 2.62 C-4.07 1.05 -2.63 0.38 0 0 Z " fill="#32333B" transform="translate(427,154)"/><path d="M0 0 C19.47 0 38.94 0 59 0 C54.5 3.37 54.5 3.37 50.09 3.29 C49.16 3.28 48.23 3.27 47.28 3.26 C46.32 3.24 45.36 3.21 44.38 3.19 C43.41 3.17 42.44 3.16 41.45 3.15 C38.96 3.11 36.48 3.06 34 3 C32.33 3 30.67 3.03 29 3.06 C26 3 26 3 24 2 C22.19 1.85 20.37 1.75 18.55 1.68 C17.48 1.64 16.4 1.6 15.29 1.56 C13.6 1.5 13.6 1.5 11.88 1.44 C10.74 1.39 9.6 1.35 8.43 1.31 C5.62 1.2 2.81 1.1 0 1 C0 0.67 0 0.34 0 0 Z M0 2 C7.92 2 15.84 2 24 2 C24 2.33 24 2.66 24 3 C16.08 3 8.16 3 0 3 C0 2.67 0 2.34 0 2 Z " fill="#F1EEFF" transform="translate(461,80)"/><path d="M0 0 C6.54 0.56 12.26 2.19 18.44 4.38 C19.35 4.68 20.26 4.98 21.19 5.3 C22.06 5.6 22.92 5.9 23.81 6.21 C24.59 6.48 25.37 6.75 26.18 7.03 C28 8 28 8 29 11 C28.34 11 27.68 11 27 11 C26.67 11.66 26.34 12.32 26 13 C24.68 12.55 23.37 12.09 22.06 11.62 C21.33 11.37 20.6 11.11 19.85 10.85 C18 10 18 10 17 8 C16.01 8.5 16.01 8.5 15 9 C15 7.68 15 6.36 15 5 C13.68 4.67 12.36 4.34 11 4 C11 4.99 11 5.98 11 7 C11.66 7.33 12.32 7.66 13 8 C11.58 7.72 10.17 7.42 8.75 7.12 C7.96 6.96 7.17 6.8 6.36 6.63 C4.03 6.01 2.11 5.15 0 4 C0 2.68 0 1.36 0 0 Z " fill="#0685AB" transform="translate(319,188)"/><path d="M0 0 C0.66 0.66 1.32 1.32 2 2 C1.06 2.45 0.11 2.9 -0.86 3.36 C-9.72 7.74 -16.98 12.65 -23.83 19.79 C-24.8 20.79 -25.8 21.75 -26.82 22.7 C-31.3 27.57 -30.72 34.28 -30.86 40.55 C-31 44 -31 44 -32 46 C-32.66 46 -33.32 46 -34 46 C-33.83 45.49 -33.65 44.97 -33.47 44.45 C-32.96 41.82 -33.12 39.48 -33.32 36.82 C-33.69 30.71 -33.5 26.56 -29.56 21.56 C-28.08 20 -26.56 18.48 -25 17 C-24.31 16.31 -23.63 15.61 -22.92 14.89 C-16.61 8.85 -8.36 2.79 0 0 Z " fill="#88888D" transform="translate(142,92)"/><path d="M0 0 C2.38 1.56 2.38 1.56 4 4 C4.32 6.44 4.19 8.52 4 11 C-6.4 9.6 -6.4 9.6 -8 8 C-8.66 8.99 -9.32 9.98 -10 11 C-10.48 4.72 -10.48 4.72 -8.38 1.56 C-5.28 -0.47 -3.64 -0.61 0 0 Z " fill="#272831" transform="translate(154,46)"/><path d="M0 0 C1.32 0.33 2.64 0.66 4 1 C4 1.99 4 2.98 4 4 C4.66 4 5.32 4 6 4 C6 3.01 6 2.02 6 1 C8.31 0.31 8.31 0.31 11 0 C12.88 1.12 12.88 1.12 14 3 C13.76 6.34 13.39 7.61 11 10 C8.29 10.5 5.72 10.44 3 10 C1 8.38 1 8.38 0 6 C-0.19 2.75 -0.19 2.75 0 0 Z " fill="#2A2B34" transform="translate(367,214)"/><path d="M0 0 C1.94 1.19 1.94 1.19 3 3 C3.19 6.19 3.19 6.19 3 9 C1.38 9.03 -0.25 9.05 -1.88 9.06 C-2.78 9.07 -3.68 9.09 -4.62 9.1 C-7 9 -7 9 -9 8 C-10.19 6.69 -10.19 6.69 -11 5 C-10.79 2.69 -10.39 1.45 -8.88 -0.31 C-5.83 -1.43 -3.07 -0.87 0 0 Z " fill="#282831" transform="translate(460,95)"/><path d="M0 0 C1.44 2.06 1.44 2.06 2 4 C1.34 4 0.68 4 0 4 C0 5.32 0 6.64 0 8 C-1.27 8.17 -2.54 8.34 -3.81 8.5 C-4.52 8.59 -5.23 8.69 -5.96 8.78 C-7.98 9 -9.96 9 -12 9 C-12.31 6.25 -12.31 6.25 -12 3 C-8.17 -1.53 -5.36 -1.62 0 0 Z " fill="#31323A" transform="translate(348,112)"/><path d="M0 0 C2.95 1.16 4.02 2.06 5.38 4.94 C4.56 7.69 4.56 7.69 3.38 9.94 C2.08 9.96 0.79 9.98 -0.5 10 C-1.22 10.01 -1.94 10.02 -2.68 10.04 C-4.62 9.94 -4.62 9.94 -6.62 8.94 C-7.25 5.88 -7.25 5.88 -7.62 2.94 C-4.94 1.02 -3.35 -0.08 0 0 Z " fill="#292B34" transform="translate(491.625,133.0625)"/><path d="M0 0 C2.86 0.09 3.59 0.35 6.06 2.06 C7.88 4.76 7.98 6.19 7.62 9.38 C6.96 8.72 6.31 8.06 5.62 7.38 C5.3 8.03 4.96 8.69 4.62 9.38 C1.65 9.38 -1.31 9.38 -4.38 9.38 C-5.38 5.38 -5.38 5.38 -5.38 2.38 C-3.38 0.38 -3.38 0.38 0 0 Z " fill="#292A32" transform="translate(286.375,126.625)"/><path d="M0 0 C0.66 0 1.32 0 2 0 C0.12 4.88 0.12 4.88 -1 6 C-2.93 5.91 -2.93 5.91 -5.31 5.62 C-6.09 5.53 -6.87 5.44 -7.68 5.35 C-9.83 5.03 -11.89 4.57 -14 4 C-14.25 4.65 -14.5 5.3 -14.75 5.97 C-16.67 10.63 -18.89 15.14 -21.08 19.67 C-23.01 23.73 -24.69 27.7 -26 32 C-26.66 32 -27.32 32 -28 32 C-27.45 26.25 -25.18 21.6 -22.69 16.44 C-22.3 15.6 -21.91 14.76 -21.5 13.9 C-17.21 4.9 -17.21 4.9 -14 2 C-10.98 1.73 -10.98 1.73 -7.75 2.19 C-6.67 2.33 -5.59 2.46 -4.48 2.61 C-3.25 2.8 -3.25 2.8 -2 3 C-1.71 2.5 -1.42 2.01 -1.12 1.5 C-0.75 1 -0.38 0.51 0 0 Z " fill="#85858B" transform="translate(83,171)"/><path d="M0 0 C2.38 2 2.38 2 4 4 C3.01 4.33 2.02 4.66 1 5 C1.33 6.32 1.66 7.64 2 9 C0.56 9.08 -0.87 9.14 -2.31 9.19 C-3.51 9.24 -3.51 9.24 -4.74 9.29 C-7 9 -7 9 -8.8 7.62 C-10 6 -10 6 -9.88 3.94 C-7.87 -0.51 -4.57 -0.56 0 0 Z " fill="#24242D" transform="translate(330,149)"/><path d="M0 0 C1.32 0 2.64 0 4 0 C4.33 1.32 4.66 2.64 5 4 C5.66 2.68 6.32 1.36 7 0 C7.21 3.15 7.23 5.45 6 8.38 C2.92 10.88 -0.18 10.33 -4 10 C-5.06 8.12 -5.06 8.12 -6 6 C-5.67 5.34 -5.34 4.68 -5 4 C-4.34 4 -3.68 4 -3 4 C-3.33 3.01 -3.66 2.02 -4 1 C-3.34 1 -2.68 1 -2 1 C-2 1.99 -2 2.98 -2 4 C-1.34 4 -0.68 4 0 4 C0 2.68 0 1.36 0 0 Z " fill="#26262F" transform="translate(66,251)"/><path d="M0 0 C6.25 2.32 10.41 5.29 15 10 C16.67 11.26 16.67 11.26 18 12 C17.34 13.65 16.68 15.3 16 17 C15.01 16.67 14.02 16.34 13 16 C13 15.34 13 14.68 13 14 C12.34 14 11.68 14 11 14 C10.75 13.36 10.5 12.72 10.25 12.06 C9.18 9.81 9.18 9.81 6.88 9.25 C6.26 9.17 5.64 9.09 5 9 C4.67 7.68 4.34 6.36 4 5 C3.01 5 2.02 5 1 5 C1.66 4.01 2.32 3.02 3 2 C2.01 2 1.02 2 0 2 C0 1.34 0 0.68 0 0 Z " fill="#B20709" transform="translate(222,111)"/><path d="M0 0 C-1.34 4.68 -3.17 8.04 -6 12 C-6.99 11.67 -7.98 11.34 -9 11 C-9 10.01 -9 9.02 -9 8 C-10.32 8.33 -11.64 8.66 -13 9 C-13 8.01 -13 7.02 -13 6 C-12.01 5.67 -11.02 5.34 -10 5 C-10 4.01 -10 3.02 -10 2 C-3.38 0 -3.38 0 0 0 Z " fill="#8C8E92" transform="translate(60,117)"/><path d="M0 0 C1 3 1 3 0.21 4.8 C-0.21 5.46 -0.63 6.13 -1.06 6.81 C-1.53 7.55 -1.99 8.29 -2.47 9.06 C-2.97 9.84 -3.48 10.63 -4 11.44 C-5.02 13.06 -6.03 14.68 -7.05 16.3 C-7.8 17.5 -7.8 17.5 -8.57 18.71 C-10.51 21.81 -12.36 24.96 -14.19 28.12 C-15.01 29.55 -15.01 29.55 -15.86 31.01 C-16.42 31.99 -16.42 31.99 -17 33 C-17.66 32.34 -18.32 31.68 -19 31 C-4.37 4.37 -4.37 4.37 0 0 Z " fill="#84848A" transform="translate(71,135)"/><path d="M0 0 C2.47 0.99 2.47 0.99 5 2 C4.67 2.66 4.34 3.32 4 4 C3.34 4 2.68 4 2 4 C1.73 4.8 1.46 5.61 1.19 6.44 C0.8 7.28 0.4 8.13 0 9 C-0.99 9.33 -1.98 9.66 -3 10 C-3.66 9.67 -4.32 9.34 -5 9 C-4.34 10.32 -3.68 11.64 -3 13 C-3.8 13.12 -4.61 13.25 -5.44 13.38 C-6.28 13.58 -7.13 13.79 -8 14 C-8.33 14.66 -8.66 15.32 -9 16 C-7.68 15.67 -6.36 15.34 -5 15 C-5.33 15.99 -5.66 16.98 -6 18 C-7.32 17.67 -8.64 17.34 -10 17 C-9.51 12.15 -7.37 9.38 -4.44 5.69 C-4.01 5.14 -3.59 4.59 -3.15 4.02 C-2.11 2.67 -1.06 1.34 0 0 Z " fill="#706F75" transform="translate(101,144)"/><path d="M0 0 C4.95 0 9.9 0 15 0 C14.67 1.65 14.34 3.3 14 5 C14 5.99 14 6.98 14 8 C12.33 8.04 10.67 8.04 9 8 C8 7 8 7 7.94 4.44 C7.96 3.63 7.98 2.83 8 2 C7.01 2 6.02 2 5 2 C5 3.65 5 5.3 5 7 C4.34 7 3.68 7 3 7 C3 5.35 3 3.7 3 2 C2.01 2 1.02 2 0 2 C0 1.34 0 0.68 0 0 Z " fill="#B3C2B5" transform="translate(127,221)"/><path d="M0 0 C0.33 0.66 0.66 1.32 1 2 C1.66 2 2.32 2 3 2 C3 2.99 3 3.98 3 5 C7.45 4.5 7.45 4.5 12 4 C11.12 8.88 11.12 8.88 10 10 C7.29 10.37 4.7 10.38 2 10 C-0.06 8.38 -0.06 8.38 -1 6 C-0.69 2.75 -0.69 2.75 0 0 Z " fill="#23232C" transform="translate(117,137)"/><path d="M0 0 C2.38 1.5 2.38 1.5 4 3 C1 4 1 4 -2 3.38 C-4.93 2.66 -4.93 2.66 -6.64 4.18 C-8.32 6.43 -8.5 7.88 -8.73 10.67 C-8.81 11.56 -8.89 12.45 -8.97 13.37 C-9.04 14.3 -9.12 15.23 -9.19 16.19 C-9.31 17.6 -9.31 17.6 -9.44 19.04 C-9.64 21.36 -9.82 23.68 -10 26 C-10.33 26 -10.66 26 -11 26 C-12.74 9.48 -12.74 9.48 -10 3 C-7.1 -0.41 -4.33 -0.54 0 0 Z " fill="#0393BC" transform="translate(453,125)"/><path d="M0 0 C1.68 0.29 3.34 0.62 5 1 C5.62 2.88 5.62 2.88 6 5 C5.34 5.66 4.68 6.32 4 7 C3.63 9.62 3.63 9.62 3.59 12.66 C3.55 13.79 3.51 14.91 3.47 16.06 C3.44 17.25 3.41 18.44 3.38 19.62 C3.34 20.82 3.3 22.02 3.26 23.21 C3.16 26.14 3.08 29.07 3 32 C2.67 32 2.34 32 2 32 C2 23.75 2 15.5 2 7 C1.01 6.67 0.02 6.34 -1 6 C-1.04 4.33 -1.04 2.67 -1 1 C-0.67 0.67 -0.34 0.34 0 0 Z " fill="#FF02FF" transform="translate(287,174)"/><path d="M0 0 C2.06 0.44 2.06 0.44 4 1 C4.38 2.66 4.71 4.32 5 6 C4.67 6.33 4.34 6.66 4 7 C3.77 9.02 3.59 11.04 3.44 13.06 C3.35 14.17 3.27 15.27 3.18 16.41 C3.12 17.26 3.06 18.12 3 19 C0.22 16.22 0.59 13.9 0.34 10.09 C0.17 7.78 0.17 7.78 -2 6 C-1.44 1.44 -1.44 1.44 0 0 Z " fill="#12C000" transform="translate(53,203)"/><path d="M0 0 C0.99 0.33 1.98 0.66 3 1 C1.56 6.63 -0.54 11.74 -3 17 C-4.32 17 -5.64 17 -7 17 C-5.83 10.6 -3.36 5.54 0 0 Z " fill="#BAE7B6" transform="translate(38,166)"/><path d="M0 0 C3 1 3 1 5 3 C5 3.66 5 4.32 5 5 C4.34 5 3.68 5 3 5 C3 4.34 3 3.68 3 3 C1.35 3 -0.3 3 -2 3 C-1.34 2.67 -0.68 2.34 0 2 C0 1.34 0 0.68 0 0 Z M-4 4 C-1.69 4.33 0.62 4.66 3 5 C3 5.66 3 6.32 3 7 C2.34 7 1.68 7 1 7 C1 7.66 1 8.32 1 9 C0.34 9 -0.32 9 -1 9 C-1 9.66 -1 10.32 -1 11 C-1.66 11 -2.32 11 -3 11 C-3.33 11.66 -3.66 12.32 -4 13 C-4 12.34 -4 11.68 -4 11 C-5.32 10.67 -6.64 10.34 -8 10 C-7.34 8.68 -6.68 7.36 -6 6 C-5.34 6 -4.68 6 -4 6 C-4 5.34 -4 4.68 -4 4 Z M-3 5 C1 6 1 6 1 6 Z " fill="#F7F6FF" transform="translate(340,175)"/><path d="M0 0 C0.33 0 0.66 0 1 0 C1 1.98 1 3.96 1 6 C1.66 6 2.32 6 3 6 C3 4.02 3 2.04 3 0 C3.99 0.33 4.98 0.66 6 1 C5.34 1 4.68 1 4 1 C4.99 2.98 5.98 4.96 7 7 C5.68 7.33 4.36 7.66 3 8 C2.67 9.98 2.34 11.96 2 14 C0.35 13.67 -1.3 13.34 -3 13 C-2.01 12.34 -1.02 11.68 0 11 C-0.99 10.34 -1.98 9.68 -3 9 C-1.68 9 -0.36 9 1 9 C1 8.34 1 7.68 1 7 C-1.31 7 -3.62 7 -6 7 C-4.36 5.88 -2.78 4.89 -1 4 C-0.35 1.98 -0.35 1.98 0 0 Z M-2 15 C-1.34 15 -0.68 15 0 15 C-0.33 16.32 -0.66 17.64 -1 19 C-1.66 18.01 -2.32 17.02 -3 16 C-2.67 15.67 -2.34 15.34 -2 15 Z " fill="#19BB08" transform="translate(141,214)"/><path d="M0 0 C0.33 0 0.66 0 1 0 C1.19 4.08 0.85 6.42 -1 10 C-1.17 12.67 -1.17 12.67 -1 15 C0.65 15 2.3 15 4 15 C4.33 11.37 4.66 7.74 5 4 C5.33 4 5.66 4 6 4 C6.05 5.79 6.09 7.58 6.12 9.38 C6.15 10.37 6.17 11.37 6.2 12.4 C6 15 6 15 4 17 C0.88 17.12 0.88 17.12 -2 17 C-2 16.34 -2 15.68 -2 15 C-2.66 15 -3.32 15 -4 15 C-4.59 9.22 -2.55 5.12 0 0 Z " fill="#029BC7" transform="translate(436,138)"/><path d="M0 0 C3 0.12 3 0.12 4 1.12 C4.19 3.56 4.19 3.56 4 6.12 C3.34 6.78 2.68 7.44 2 8.12 C-2.56 7.57 -2.56 7.57 -4 6.12 C-4.12 3.62 -4.12 3.62 -4 1.12 C-3 0.12 -3 0.12 0 0 Z " fill="#D3DFD4" transform="translate(165,220.875)"/><path d="M0 0 C2.56 0.19 2.56 0.19 4.56 2.19 C4.19 4.81 4.19 4.81 3.56 7.19 C-1.19 8.31 -1.19 8.31 -3.44 7.19 C-3.48 5.19 -3.48 3.19 -3.44 1.19 C-2.44 0.19 -2.44 0.19 0 0 Z " fill="#D1DCD2" transform="translate(135.4375,229.8125)"/><path d="M0 0 C5.37 -0.1 5.37 -0.1 7 0 C8 1 8 1 8.12 3.5 C8 6 8 6 7 7 C4.66 7.14 2.34 7.04 0 7 C0 4.69 0 2.38 0 0 Z " fill="#D2DCD5" transform="translate(111,221)"/><path d="M0 0 C0.74 0.19 1.49 0.37 2.25 0.56 C4.95 0.99 6.45 0.85 9 0 C9.19 2.88 9.19 2.88 9 6 C7.5 7.38 7.5 7.38 6 8 C5.01 7.01 4.02 6.02 3 5 C2.67 5.66 2.34 6.32 2 7 C1.34 7 0.68 7 0 7 C0 4.69 0 2.38 0 0 Z " fill="#D4DED6" transform="translate(170,221)"/><path d="M0 0 C7.86 2.48 15.45 5.72 23 9 C23 9.66 23 10.32 23 11 C14.41 9.04 6.86 5.86 -1 2 C-0.67 1.34 -0.34 0.68 0 0 Z " fill="#0396C0" transform="translate(294,179)"/><path d="M0 0 C2.97 0 5.94 0 9 0 C9 1.65 9 3.3 9 5 C5.42 6.24 2.66 5.75 -1 5 C-0.67 3.35 -0.34 1.7 0 0 Z " fill="#88888F" transform="translate(452,98)"/><path d="M0 0 C2 -0.04 4 -0.04 6 0 C7 1 7 1 7.25 3.44 C7 6 7 6 5.75 7.31 C4 8 4 8 0 8 C0 5.36 0 2.72 0 0 Z " fill="#DBE9DC" transform="translate(134,212)"/><path d="M0 0 C1.21 0.01 2.41 0.02 3.62 0.04 C4.24 0.04 4.85 0.04 5.49 0.05 C7.01 0.06 8.53 0.08 10.06 0.1 C10.06 0.76 10.06 1.42 10.06 2.1 C9.07 2.1 8.08 2.1 7.06 2.1 C7.06 3.75 7.06 5.4 7.06 7.1 C6.4 7.1 5.74 7.1 5.06 7.1 C5.06 5.45 5.06 3.8 5.06 2.1 C2.75 2.1 0.44 2.1 -1.94 2.1 C-1.94 3.42 -1.94 4.74 -1.94 6.1 C-0.62 6.43 0.7 6.76 2.06 7.1 C0.08 7.1 -1.9 7.1 -3.94 7.1 C-3.98 5.1 -3.98 3.1 -3.94 1.1 C-2.94 0.1 -2.94 0.1 0 0 Z " fill="#DEEEDE" transform="translate(146.94140625,220.90234375)"/><path d="M0 0 C3.88 0.88 3.88 0.88 5 2 C5.33 1.34 5.66 0.68 6 0 C6.66 0 7.32 0 8 0 C8 2.31 8 4.62 8 7 C5.33 7 2.67 7 0 7 C0 4.69 0 2.38 0 0 Z " fill="#D7E5D7" transform="translate(141,230)"/><path d="M0 0 C2 -0.04 4 -0.04 6 0 C7 1 7 1 7.12 3.5 C7 6 7 6 6 7 C4 7.04 2 7.04 0 7 C0 4.69 0 2.38 0 0 Z " fill="#F4F2FC" transform="translate(301,214)"/><path d="M0 0 C4.09 1.4 6.77 3.23 10 6 C9.67 7.32 9.34 8.64 9 10 C8.34 10 7.68 10 7 10 C6.67 9.34 6.34 8.68 6 8 C3.98 7.35 3.98 7.35 2 7 C2 6.34 2 5.68 2 5 C1.01 4.67 0.02 4.34 -1 4 C-0.67 2.68 -0.34 1.36 0 0 Z " fill="#7C0C10" transform="translate(212,105)"/><path d="M0 0 C1.86 2.41 2 2.99 2 6.25 C1.33 10.33 -1 12.44 -3.77 15.36 C-5.31 17.05 -5.31 17.05 -4.88 19.94 C-4.59 20.62 -4.3 21.3 -4 22 C-4.66 22.33 -5.32 22.66 -6 23 C-7.45 20.1 -7.37 18.23 -7 15 C-5.95 13.59 -5.95 13.59 -4.62 12.19 C-1.28 8.63 -0.7 4.71 0 0 Z " fill="#818187" transform="translate(35,209)"/><path d="M0 0 C1.45 0.03 1.45 0.03 2.94 0.06 C3.6 2.04 4.26 4.02 4.94 6.06 C2.3 6.06 -0.34 6.06 -3.06 6.06 C-3.44 4.41 -3.78 2.74 -4.06 1.06 C-3.06 0.06 -3.06 0.06 0 0 Z " fill="#96999B" transform="translate(151.0625,49.9375)"/><path d="M0 0 C1.29 0.14 2.58 0.29 3.88 0.44 C4.95 0.56 4.95 0.56 6.05 0.68 C8 1 8 1 10 2 C10 2.66 10 3.32 10 4 C9.34 4 8.68 4 8 4 C7.67 4.99 7.34 5.98 7 7 C4.69 6.01 2.38 5.02 0 4 C0 2.68 0 1.36 0 0 Z " fill="#0584AA" transform="translate(319,188)"/><path d="M0 0 C0 0.66 0 1.32 0 2 C-0.94 2.19 -1.88 2.39 -2.85 2.59 C-4.11 2.85 -5.37 3.11 -6.62 3.38 C-7.24 3.5 -7.86 3.63 -8.5 3.76 C-12.45 4.59 -16.19 5.65 -20 7 C-20 6.01 -20 5.02 -20 4 C-6.37 -0.59 -6.37 -0.59 0 0 Z " fill="#029AC5" transform="translate(164,87)"/><path d="M0 0 C2.31 0 4.62 0 7 0 C6.81 0.76 6.63 1.53 6.44 2.31 C5.77 5.09 5.77 5.09 7 8 C5.06 7.25 5.06 7.25 3 6 C2.25 3.88 2.25 3.88 2 2 C2 3.98 2 5.96 2 8 C1.34 8 0.68 8 0 8 C0 5.36 0 2.72 0 0 Z " fill="#D4E4D4" transform="translate(142,212)"/><path d="M0 0 C2.97 0 5.94 0 9 0 C9 1.65 9 3.3 9 5 C6.03 5 3.06 5 0 5 C0 3.35 0 1.7 0 0 Z " fill="#A7A8AD" transform="translate(323,153)"/><path d="M0 0 C2.97 0 5.94 0 9 0 C9 1.65 9 3.3 9 5 C6.36 5 3.72 5 1 5 C0.67 3.35 0.34 1.7 0 0 Z " fill="#C3C4C8" transform="translate(486,138)"/><path d="M0 0 C2.64 0 5.28 0 8 0 C8 1.65 8 3.3 8 5 C5.03 5 2.06 5 -1 5 C-0.67 3.35 -0.34 1.7 0 0 Z " fill="#B4B4BA" transform="translate(283,131)"/><path d="M0 0 C1.98 0 3.96 0 6 0 C6.33 1.32 6.66 2.64 7 4 C6.34 4 5.68 4 5 4 C5.33 4.99 5.66 5.98 6 7 C4 7 2 7 0 7 C0 4.69 0 2.38 0 0 Z " fill="#F1F0FA" transform="translate(282,223)"/><path d="M0 0 C0.87 0.28 0.87 0.28 1.75 0.56 C4.21 1.04 5.64 0.76 8 0 C8 1.65 8 3.3 8 5 C5.03 5 2.06 5 -1 5 C-0.67 3.35 -0.34 1.7 0 0 Z " fill="#AEAFB5" transform="translate(423,159)"/><path d="M0 0 C1.65 0 3.3 0 5 0 C5.33 1.98 5.66 3.96 6 6 C3.6 7.92 2.04 8.21 -1 8 C-1 7.34 -1 6.68 -1 6 C-0.01 5.67 0.98 5.34 2 5 C1.01 4.34 0.02 3.68 -1 3 C-0.67 2.01 -0.34 1.02 0 0 Z " fill="#C6CCC9" transform="translate(151,212)"/><path d="M0 0 C1.98 0 3.96 0 6 0 C6.33 1.32 6.66 2.64 7 4 C5.35 4.33 3.7 4.66 2 5 C2 5.66 2 6.32 2 7 C1.34 7 0.68 7 0 7 C0 4.69 0 2.38 0 0 Z " fill="#EBEAF2" transform="translate(278,214)"/><path d="M0 0 C2.64 0 5.28 0 8 0 C8 1.65 8 3.3 8 5 C5.36 5 2.72 5 0 5 C0 3.35 0 1.7 0 0 Z " fill="#9D9EA4" transform="translate(246,161)"/><path d="M0 0 C1.98 0 3.96 0 6 0 C6 2.31 6 4.62 6 7 C4.02 7 2.04 7 0 7 C0 4.69 0 2.38 0 0 Z " fill="#D2E9D1" transform="translate(150,230)"/><path d="M0 0 C1.88 0.12 1.88 0.12 4 1 C5.25 4.06 5.25 4.06 6 7 C3.36 7 0.72 7 -2 7 C-1.12 2.25 -1.12 2.25 0 0 Z " fill="#EFEEF6" transform="translate(292,223)"/><path d="M0 0 C1.32 0.99 2.64 1.98 4 3 C3.67 3.99 3.34 4.98 3 6 C2.34 6 1.68 6 1 6 C0.67 7.32 0.34 8.64 0 10 C-0.33 9.34 -0.66 8.68 -1 8 C-1.99 8 -2.98 8 -4 8 C-2.91 5.11 -1.84 2.5 0 0 Z " fill="#76767C" transform="translate(89,160)"/><path d="M0 0 C1.32 0 2.64 0 4 0 C4.04 1.67 4.04 3.33 4 5 C3 6 3 6 1.37 6.1 C-0.42 6.07 -2.21 6.03 -4 6 C-4 4.35 -4 2.7 -4 1 C-3.34 1 -2.68 1 -2 1 C-2 1.99 -2 2.98 -2 4 C-1.34 4 -0.68 4 0 4 C0 2.68 0 1.36 0 0 Z " fill="#A4A4AA" transform="translate(66,251)"/><path d="M0 0 C2.31 0 4.62 0 7 0 C7 0.99 7 1.98 7 3 C5.68 3.33 4.36 3.66 3 4 C3 4.66 3 5.32 3 6 C4.32 6.33 5.64 6.66 7 7 C4.69 7 2.38 7 0 7 C0 4.69 0 2.38 0 0 Z " fill="#EEEEF5" transform="translate(293,214)"/><path d="M0 0 C1.98 0 3.96 0 6 0 C6 2.31 6 4.62 6 7 C4.02 7 2.04 7 0 7 C0 4.69 0 2.38 0 0 Z " fill="#E7E8EA" transform="translate(120,221)"/><path d="M0 0 C2.64 0 5.28 0 8 0 C7.62 1.94 7.62 1.94 7 4 C6.01 4.5 6.01 4.5 5 5 C5.33 3.68 5.66 2.36 6 1 C5.34 1 4.68 1 4 1 C4 2.32 4 3.64 4 5 C2.35 4.67 0.7 4.34 -1 4 C-0.67 2.68 -0.34 1.36 0 0 Z " fill="#D6D9DA" transform="translate(449,135)"/><path d="M0 0 C1.98 0 3.96 0 6 0 C5.67 1.65 5.34 3.3 5 5 C4.01 5 3.02 5 2 5 C2 5.66 2 6.32 2 7 C1.34 7 0.68 7 0 7 C0 4.69 0 2.38 0 0 Z " fill="#F2D2F9" transform="translate(299,223)"/><path d="M0 0 C0.66 0 1.32 0 2 0 C2 0.99 2 1.98 2 3 C2.66 3 3.32 3 4 3 C4.33 2.01 4.66 1.02 5 0 C6.67 0 8.33 0 10 0 C10 1.32 10 2.64 10 4 C8.71 4.2 7.42 4.38 6.12 4.56 C5.05 4.72 5.05 4.72 3.95 4.88 C2 5 2 5 0 4 C0 2.68 0 1.36 0 0 Z " fill="#BABABE" transform="translate(338,116)"/><path d="M0 0 C0.5 0.38 0.99 0.75 1.5 1.14 C5.96 4.49 10.45 7.78 15 11 C14.01 11.33 13.02 11.66 12 12 C9.84 10.67 9.84 10.67 7.5 8.75 C6.73 8.13 5.95 7.5 5.16 6.86 C1.48 3.69 1.48 3.69 0 2 C0 1.34 0 0.68 0 0 Z " fill="#8B8B91" transform="translate(30,231)"/><path d="M0 0 C0 1.32 0 2.64 0 4 C-2.97 4 -5.94 4 -9 4 C-8.67 2.68 -8.34 1.36 -8 0 C-8 0.99 -8 1.98 -8 3 C-7.34 3 -6.68 3 -6 3 C-6 2.01 -6 1.02 -6 0 C-3.51 -1.25 -2.59 -0.78 0 0 Z " fill="#ACACB1" transform="translate(379,215)"/><path d="M0 0 C2.02 2.49 2.2 4.06 1.98 7.23 C1.93 8.03 1.87 8.84 1.82 9.66 C1.72 10.91 1.72 10.91 1.62 12.19 C1.57 13.03 1.51 13.88 1.45 14.75 C1.31 16.83 1.16 18.92 1 21 C0.67 21 0.34 21 0 21 C-1.33 6.22 -1.33 6.22 0 0 Z " fill="#0581A6" transform="translate(442,130)"/><path d="M0 0 C1.09 1.08 1.09 1.08 2 3 C1.66 5.33 1.23 7.43 0.62 9.69 C0.47 10.29 0.32 10.9 0.16 11.53 C-0.21 13.02 -0.6 14.51 -1 16 C-3 14 -3 14 -3.05 11.76 C-2.95 10.89 -2.85 10.02 -2.75 9.12 C-2.66 8.26 -2.57 7.4 -2.48 6.51 C-2 4.02 -1.25 2.19 0 0 Z " fill="#048CB4" transform="translate(439,124)"/><path d="M0 0 C1.98 0 3.96 0 6 0 C5.62 1.94 5.62 1.94 5 4 C4.01 4.5 4.01 4.5 3 5 C3.99 5.66 4.98 6.32 6 7 C4.02 7 2.04 7 0 7 C0 4.67 0 2.33 0 0 Z " fill="#DFEFE0" transform="translate(125,230)"/><path d="M0 0 C1.98 0 3.96 0 6 0 C6 2.33 6 4.67 6 7 C4.02 7 2.04 7 0 7 C0.99 6.34 1.98 5.68 3 5 C2.01 4.67 1.02 4.34 0 4 C0 2.68 0 1.36 0 0 Z " fill="#F1F0FA" transform="translate(271,214)"/><path d="M0 0 C1.98 0 3.96 0 6 0 C6 1.32 6 2.64 6 4 C4.68 4 3.36 4 2 4 C2 4.66 2 5.32 2 6 C3.32 6.33 4.64 6.66 6 7 C4.02 7 2.04 7 0 7 C0 4.69 0 2.38 0 0 Z " fill="#F4F2FF" transform="translate(286,214)"/><path d="M0 0 C1.32 0.33 2.64 0.66 4 1 C4.33 3.31 4.66 5.62 5 8 C3.35 8 1.7 8 0 8 C0 5.36 0 2.72 0 0 Z " fill="#C0CBC3" transform="translate(160,230)"/><path d="M0 0 C0.99 0.33 1.98 0.66 3 1 C3 1.99 3 2.98 3 4 C3.33 2.68 3.66 1.36 4 0 C5.32 0 6.64 0 8 0 C8 1.65 8 3.3 8 5 C5.36 5 2.72 5 0 5 C0 3.35 0 1.7 0 0 Z " fill="#C9C9CD" transform="translate(12,227)"/><path d="M0 0 C2.86 -0.1 5.25 0.21 8 1 C8 2.32 8 3.64 8 5 C5.36 5 2.72 5 0 5 C0 3.35 0 1.7 0 0 Z " fill="#B9BABE" transform="translate(71,186)"/><path d="M0 0 C0.33 0.66 0.66 1.32 1 2 C1.66 2 2.32 2 3 2 C3 2.66 3 3.32 3 4 C2.34 4 1.68 4 1 4 C0.57 5.21 0.57 5.21 0.12 6.44 C-1 9 -1 9 -3 10 C-3.66 9.34 -4.32 8.68 -5 8 C-3.35 5.36 -1.7 2.72 0 0 Z " fill="#DDDBE8" transform="translate(356,156)"/><path d="M0 0 C0.99 0.33 1.98 0.66 3 1 C3 1.99 3 2.98 3 4 C2.34 4 1.68 4 1 4 C0.34 5.65 -0.32 7.3 -1 9 C-1.99 8.67 -2.98 8.34 -4 8 C-2.68 5.36 -1.36 2.72 0 0 Z " fill="#D3EDD2" transform="translate(50,144)"/><path d="M0 0 C0.33 0.99 0.66 1.98 1 3 C-0.21 5.26 -0.21 5.26 -1.94 7.69 C-2.79 8.9 -2.79 8.9 -3.65 10.14 C-4.1 10.75 -4.54 11.37 -5 12 C-5.66 11.34 -6.32 10.68 -7 10 C-4.69 6.7 -2.38 3.4 0 0 Z " fill="#818186" transform="translate(71,135)"/><path d="M0 0 C0.33 0 0.66 0 1 0 C1.31 3.14 1.28 4.59 -0.53 7.24 C-1.18 7.92 -1.83 8.61 -2.5 9.31 C-3.15 10.01 -3.8 10.71 -4.47 11.43 C-4.97 11.95 -5.48 12.46 -6 13 C-6.33 12.01 -6.66 11.02 -7 10 C-6.07 8.54 -6.07 8.54 -4.69 7.06 C-2.68 4.82 -1.19 2.8 0 0 Z " fill="#0299C4" transform="translate(447,113)"/><path d="M0 0 C0.61 0.08 1.22 0.16 1.84 0.24 C3.5 0.69 3.5 0.69 5.5 2.69 C4.84 2.69 4.18 2.69 3.5 2.69 C3.17 3.68 2.84 4.67 2.5 5.69 C2.17 4.37 1.84 3.05 1.5 1.69 C0.18 1.36 -1.14 1.03 -2.5 0.69 C-2.5 1.68 -2.5 2.67 -2.5 3.69 C-1.84 4.02 -1.18 4.35 -0.5 4.69 C-2.44 4.38 -2.44 4.38 -4.5 3.69 C-4.83 2.7 -5.16 1.71 -5.5 0.69 C-3.23 -0.45 -2.45 -0.35 0 0 Z " fill="#048AB1" transform="translate(332.5,191.3125)"/><path d="M0 0 C0.99 0.33 1.98 0.66 3 1 C3 1.99 3 2.98 3 4 C3.66 3.67 4.32 3.34 5 3 C4.67 2.01 4.34 1.02 4 0 C5.32 0 6.64 0 8 0 C8 1.65 8 3.3 8 5 C5.36 5 2.72 5 0 5 C0 3.35 0 1.7 0 0 Z " fill="#CBCCD0" transform="translate(119,122)"/><path d="M0 0 C2.64 0 5.28 0 8 0 C8 0.66 8 1.32 8 2 C7.01 2 6.02 2 5 2 C5 3.65 5 5.3 5 7 C4.34 7 3.68 7 3 7 C3 5.35 3 3.7 3 2 C2.01 2 1.02 2 0 2 C0 1.34 0 0.68 0 0 Z " fill="#EFEEF9" transform="translate(273,223)"/><path d="M0 0 C6.52 -0.25 6.52 -0.25 8.94 1 C9.29 1.33 9.64 1.66 10 2 C8.25 5.88 8.25 5.88 6 7 C6 5.02 6 3.04 6 1 C4.35 1 2.7 1 1 1 C0.67 1.99 0.34 2.98 0 4 C0 2.68 0 1.36 0 0 Z " fill="#3F4149" transform="translate(237,160)"/><path d="M0 0 C0.66 0.33 1.32 0.66 2 1 C2 2.32 2 3.64 2 5 C-0.31 5 -2.62 5 -5 5 C-5 3.68 -5 2.36 -5 1 C-4.36 1.02 -3.72 1.04 -3.06 1.06 C-1.01 1.24 -1.01 1.24 0 0 Z " fill="#C0C2C4" transform="translate(125,137)"/><path d="M0 0 C0.99 0.33 1.98 0.66 3 1 C3 1.99 3 2.98 3 4 C2.34 4 1.68 4 1 4 C0.67 4.99 0.34 5.98 0 7 C-1.32 6.67 -2.64 6.34 -4 6 C-3.67 5.01 -3.34 4.02 -3 3 C-2.34 3 -1.68 3 -1 3 C-0.67 2.01 -0.34 1.02 0 0 Z " fill="#C6DAC6" transform="translate(61,126)"/><path d="M0 0 C0.99 0.33 1.98 0.66 3 1 C2.25 3.44 2.25 3.44 1 6 C-1.12 6.81 -1.12 6.81 -3 7 C-3.33 6.34 -3.66 5.68 -4 5 C-2.53 1.26 -2.53 1.26 0 0 Z " fill="#C2D5C2" transform="translate(66,119)"/><path d="M0 0 C1.98 0.5 1.98 0.5 4 1 C3.67 2.65 3.34 4.3 3 6 C1.68 5.67 0.36 5.34 -1 5 C-0.67 3.35 -0.34 1.7 0 0 Z " fill="#9C9CA1" transform="translate(452,98)"/><path d="M0 0 C2.31 0 4.62 0 7 0 C7 0.66 7 1.32 7 2 C6.34 2 5.68 2 5 2 C5 3.65 5 5.3 5 7 C4.34 7 3.68 7 3 7 C3 5.35 3 3.7 3 2 C2.01 2 1.02 2 0 2 C0 1.34 0 0.68 0 0 Z " fill="#E0F1E0" transform="translate(127,221)"/><path d="M0 0 C0.6 0.21 1.2 0.41 1.81 0.62 C1.15 2.28 0.49 3.92 -0.19 5.62 C-1.18 5.3 -2.17 4.97 -3.19 4.62 C-3.19 3.97 -3.19 3.31 -3.19 2.62 C-3.85 2.3 -4.51 1.97 -5.19 1.62 C-3.23 -0.04 -2.6 -0.45 0 0 Z " fill="#770C11" transform="translate(238.1875,122.375)"/><path d="M0 0 C0.82 0.14 1.65 0.29 2.5 0.44 C6.32 1.08 10.16 1.54 14 2 C14 2.33 14 2.66 14 3 C8.67 4 5.03 4.14 0 2 C0 1.34 0 0.68 0 0 Z " fill="#048AB2" transform="translate(354,201)"/><path d="M0 0 C1.32 0.66 2.64 1.32 4 2 C3.34 3.98 2.68 5.96 2 8 C1.01 8 0.02 8 -1 8 C-1.12 2.25 -1.12 2.25 0 0 Z " fill="#B6D4B5" transform="translate(28,189)"/><path d="M0 0 C0.99 0.33 1.98 0.66 3 1 C2.19 3.44 2.19 3.44 1 6 C0.01 6.33 -0.98 6.66 -2 7 C-2.66 6.67 -3.32 6.34 -4 6 C-3.67 5.01 -3.34 4.02 -3 3 C-2.34 3 -1.68 3 -1 3 C-0.67 2.01 -0.34 1.02 0 0 Z " fill="#ACC8AC" transform="translate(89,92)"/><path d="M0 0 C1.98 0 3.96 0 6 0 C6 1.32 6 2.64 6 4 C4.35 4 2.7 4 1 4 C0.67 4.66 0.34 5.32 0 6 C0 4.02 0 2.04 0 0 Z " fill="#E1EEE3" transform="translate(136,221)"/><path d="M0 0 C4.57 1.44 6.83 3.56 10 7 C5.76 6.51 2.94 3.9 0 1 C0 0.67 0 0.34 0 0 Z " fill="#0395BF" transform="translate(173,96)"/><path d="M0 0 C0.66 0 1.32 0 2 0 C3.12 1.5 3.12 1.5 4 3 C4.33 2.34 4.66 1.68 5 1 C4.34 0.67 3.68 0.34 3 0 C4.32 0 5.64 0 7 0 C6.34 1.65 5.68 3.3 5 5 C3.35 5 1.7 5 0 5 C0 3.35 0 1.7 0 0 Z " fill="#CCCCD1" transform="translate(63,207)"/><path d="M0 0 C0.66 0.33 1.32 0.66 2 1 C1.81 3.81 1.81 3.81 1 7 C-1.56 8.88 -1.56 8.88 -4 10 C-3.71 9.46 -3.42 8.93 -3.12 8.38 C-1.83 5.65 -0.91 2.87 0 0 Z " fill="#029DC9" transform="translate(476,140)"/><path d="M0 0 C1.65 0 3.3 0 5 0 C4.34 0.66 3.68 1.32 3 2 C2.6 3.99 2.26 5.99 2 8 C1.34 8 0.68 8 0 8 C0 5.36 0 2.72 0 0 Z " fill="#E2EDE3" transform="translate(142,212)"/><path d="M0 0 C5.54 -0.37 5.54 -0.37 7.88 1.5 C8.25 2 8.62 2.49 9 3 C8.67 3.66 8.34 4.32 8 5 C7.05 4.48 6.1 3.97 5.12 3.44 C4.09 2.96 3.06 2.49 2 2 C1.01 2.5 1.01 2.5 0 3 C0 2.01 0 1.02 0 0 Z " fill="#029BC7" transform="translate(245,149)"/><path d="M0 0 C1.32 0.66 2.64 1.32 4 2 C3.34 2 2.68 2 2 2 C1.67 2.99 1.34 3.98 1 5 C0.34 5 -0.32 5 -1 5 C-1.33 5.66 -1.66 6.32 -2 7 C-2.33 6.34 -2.66 5.68 -3 5 C-1.56 2.38 -1.56 2.38 0 0 Z " fill="#B1D6AE" transform="translate(55,135)"/><path d="M0 0 C1.98 0.5 1.98 0.5 4 1 C3.67 2.65 3.34 4.3 3 6 C1.68 5.67 0.36 5.34 -1 5 C-1 4.34 -1 3.68 -1 3 C-0.34 3 0.32 3 1 3 C0.67 2.01 0.34 1.02 0 0 Z " fill="#0585AA" transform="translate(349,197)"/><path d="M0 0 C1.98 0.5 1.98 0.5 4 1 C3.34 2.65 2.68 4.3 2 6 C1.01 5.67 0.02 5.34 -1 5 C-0.67 3.35 -0.34 1.7 0 0 Z " fill="#BFCDC0" transform="translate(44,153)"/><path d="M0 0 C-0.99 1.32 -1.98 2.64 -3 4 C-3.99 3.67 -4.98 3.34 -6 3 C-6 2.01 -6 1.02 -6 0 C-3.51 -1.25 -2.59 -0.78 0 0 Z " fill="#D8D9DE" transform="translate(57,125)"/><path d="M0 0 C1.65 0.33 3.3 0.66 5 1 C4.67 2.65 4.34 4.3 4 6 C3.34 6 2.68 6 2 6 C1.67 5.34 1.34 4.68 1 4 C0.34 4 -0.32 4 -1 4 C-0.67 2.68 -0.34 1.36 0 0 Z " fill="#A4080B" transform="translate(217,109)"/><path d="M0 0 C0.99 0.33 1.98 0.66 3 1 C3.33 2.65 3.66 4.3 4 6 C2.68 6 1.36 6 0 6 C0 4.02 0 2.04 0 0 Z " fill="#86878D" transform="translate(152,50)"/><path d="M0 0 C1.65 0 3.3 0 5 0 C5 0.66 5 1.32 5 2 C4.34 2 3.68 2 3 2 C3 2.66 3 3.32 3 4 C1.68 3.67 0.36 3.34 -1 3 C-0.67 2.01 -0.34 1.02 0 0 Z " fill="#D9EBD9" transform="translate(151,212)"/><path d="M0 0 C1.98 0.66 3.96 1.32 6 2 C6 2.66 6 3.32 6 4 C5.34 4 4.68 4 4 4 C3.67 4.99 3.34 5.98 3 7 C2.71 6.38 2.42 5.76 2.12 5.12 C1.06 2.87 1.06 2.87 -1 1 C-0.67 0.67 -0.34 0.34 0 0 Z " fill="#0E607C" transform="translate(323,188)"/><path d="M0 0 C0.99 0.33 1.98 0.66 3 1 C2.67 2.65 2.34 4.3 2 6 C0.68 6 -0.64 6 -2 6 C-1.49 3.83 -1 2 0 0 Z " fill="#BAD3BA" transform="translate(38,166)"/><path d="M0 0 C2.31 0.66 4.62 1.32 7 2 C6.4 2.29 5.8 2.58 5.19 2.88 C3.35 3.82 1.69 4.82 0 6 C0 4.02 0 2.04 0 0 Z " fill="#DBDADF" transform="translate(117,130)"/><path d="M0 0 C0.66 0 1.32 0 2 0 C2 0.99 2 1.98 2 3 C2.66 3 3.32 3 4 3 C4.33 2.01 4.66 1.02 5 0 C5 1.65 5 3.3 5 5 C3.35 5 1.7 5 0 5 C0 3.35 0 1.7 0 0 Z " fill="#BEBFC3" transform="translate(62,252)"/><path d="M0 0 C1.65 0 3.3 0 5 0 C5 1.32 5 2.64 5 4 C3.35 4 1.7 4 0 4 C0 2.68 0 1.36 0 0 Z " fill="#E5EEE7" transform="translate(151,233)"/><path d="M0 0 C0.66 0.33 1.32 0.66 2 1 C1.34 3.64 0.68 6.28 0 9 C-0.66 8.67 -1.32 8.34 -2 8 C-1.48 5.24 -0.89 2.67 0 0 Z " fill="#7B7B81" transform="translate(41,189)"/><path d="M0 0 C0.66 0 1.32 0 2 0 C0.12 4.88 0.12 4.88 -1 6 C-2.67 6.04 -4.33 6.04 -6 6 C-5.2 5.38 -4.39 4.76 -3.56 4.12 C-0.96 2.26 -0.96 2.26 0 0 Z " fill="#8B8B91" transform="translate(83,171)"/><path d="M0 0 C1 3 1 3 0.22 4.61 C-0.85 6.07 -1.93 7.54 -3 9 C-4 6 -4 6 -3.22 4.39 C-2.15 2.93 -1.07 1.46 0 0 Z " fill="#8B8B91" transform="translate(64,146)"/><path d="M0 0 C0.33 0.66 0.66 1.32 1 2 C1.99 2 2.98 2 4 2 C4 2.66 4 3.32 4 4 C2.68 4.33 1.36 4.66 0 5 C0 5.66 0 6.32 0 7 C-0.66 6.67 -1.32 6.34 -2 6 C-1.34 4.02 -0.68 2.04 0 0 Z " fill="#E1E0EB" transform="translate(359,148)"/><path d="M0 0 C1.32 0 2.64 0 4 0 C4 1.32 4 2.64 4 4 C2.02 4 0.04 4 -2 4 C-1.34 2.68 -0.68 1.36 0 0 Z " fill="#585860" transform="translate(96,150)"/><path d="M0 0 C1.98 0.5 1.98 0.5 4 1 C3.67 2.65 3.34 4.3 3 6 C1.68 4.68 0.36 3.36 -1 2 C-0.67 1.34 -0.34 0.68 0 0 Z " fill="#77757B" transform="translate(104,139)"/><path d="M0 0 C3.69 0.5 5.6 1.1 8 4 C6.25 4.25 6.25 4.25 4 4 C1.75 2 1.75 2 0 0 Z " fill="#048BB3" transform="translate(181,103)"/><path d="M0 0 C0.66 0.66 1.32 1.32 2 2 C-1.47 3.48 -1.47 3.48 -5 5 C-5.66 4.34 -6.32 3.68 -7 3 C-4.69 2.01 -2.38 1.02 0 0 Z " fill="#85858B" transform="translate(142,92)"/><path d="M0 0 C-0.33 1.32 -0.66 2.64 -1 4 C-2.32 4.33 -3.64 4.66 -5 5 C-4.62 3.06 -4.62 3.06 -4 1 C-2 0 -2 0 0 0 Z " fill="#C4DDC3" transform="translate(127,66)"/><path d="M0 0 C0.99 0.33 1.98 0.66 3 1 C1.35 2.32 -0.3 3.64 -2 5 C-2.99 4.34 -3.98 3.68 -5 3 C-2.69 1.44 -2.69 1.44 0 0 Z " fill="#048BB2" transform="translate(432,181)"/><path d="M0 0 C1.32 0 2.64 0 4 0 C3.67 1.32 3.34 2.64 3 4 C1.68 4 0.36 4 -1 4 C-0.67 2.68 -0.34 1.36 0 0 Z " fill="#D2E5D2" transform="translate(32,179)"/><path d="M0 0 C0.99 0.99 1.98 1.98 3 3 C2.01 4.49 2.01 4.49 1 6 C0.01 5.67 -0.98 5.34 -2 5 C-1.34 3.35 -0.68 1.7 0 0 Z " fill="#AFD6AC" transform="translate(42,158)"/><path d="M0 0 C4.68 0.62 4.68 0.62 6.31 2.56 C6.54 3.04 6.77 3.51 7 4 C6.34 4.66 5.68 5.32 5 6 C3.35 4.02 1.7 2.04 0 0 Z " fill="#0589B0" transform="translate(470,136)"/><path d="M0 0 C0.99 0 1.98 0 3 0 C2.34 1.98 1.68 3.96 1 6 C0.34 5.67 -0.32 5.34 -1 5 C-0.67 3.35 -0.34 1.7 0 0 Z " fill="#D3D2DA" transform="translate(57,117)"/><path d="M0 0 C0.99 0 1.98 0 3 0 C3 0.99 3 1.98 3 3 C2.34 3 1.68 3 1 3 C1 3.66 1 4.32 1 5 C0.01 4.67 -0.98 4.34 -2 4 C-2 3.34 -2 2.68 -2 2 C-1.34 2 -0.68 2 0 2 C0 1.34 0 0.68 0 0 Z " fill="#CEE7CD" transform="translate(97,84)"/><path d="M0 0 C1.32 0 2.64 0 4 0 C4 1.32 4 2.64 4 4 C2.68 3.67 1.36 3.34 0 3 C0 2.01 0 1.02 0 0 Z " fill="#30B025" transform="translate(163,223)"/><path d="M0 0 C0.33 0.99 0.66 1.98 1 3 C1.66 3 2.32 3 3 3 C3 2.01 3 1.02 3 0 C3.99 0 4.98 0 6 0 C5.34 1.32 4.68 2.64 4 4 C2.68 4 1.36 4 0 4 C0 2.68 0 1.36 0 0 Z " fill="#DADAE0" transform="translate(370,215)"/><path d="M0 0 C1.32 0.99 2.64 1.98 4 3 C3.67 3.99 3.34 4.98 3 6 C1.68 5.34 0.36 4.68 -1 4 C-0.67 2.68 -0.34 1.36 0 0 Z " fill="#7C7C82" transform="translate(89,160)"/><path d="M0 0 C3.46 1.25 6.15 2.68 9 5 C8.01 5.33 7.02 5.66 6 6 C4.39 5.04 4.39 5.04 2.81 3.62 C2.28 3.16 1.75 2.7 1.21 2.23 C0 1 0 1 0 0 Z " fill="#DADADF" transform="translate(203,110)"/><path d="M0 0 C0.99 0.33 1.98 0.66 3 1 C2.34 2.65 1.68 4.3 1 6 C0.01 5.01 -0.98 4.02 -2 3 C-1.34 2.01 -0.68 1.02 0 0 Z " fill="#C3D0C4" transform="translate(80,101)"/><path d="M0 0 C0.99 0 1.98 0 3 0 C3.33 0.99 3.66 1.98 4 3 C2.35 3.66 0.7 4.32 -1 5 C-1.33 4.01 -1.66 3.02 -2 2 C-1.34 2 -0.68 2 0 2 C0 1.34 0 0.68 0 0 Z " fill="#BCCFBC" transform="translate(118,69)"/><path d="M0 0 C0.66 1.32 1.32 2.64 2 4 C0.35 4.33 -1.3 4.66 -3 5 C-2.62 3.06 -2.62 3.06 -2 1 C-1.34 0.67 -0.68 0.34 0 0 Z " fill="#F3CEFB" transform="translate(293,225)"/><path d="M0 0 C1.98 0.99 1.98 0.99 4 2 C4 3.32 4 4.64 4 6 C3.01 5.67 2.02 5.34 1 5 C0.67 3.35 0.34 1.7 0 0 Z " fill="#F99EFF" transform="translate(284,224)"/><path d="M0 0 C0.33 0.66 0.66 1.32 1 2 C1.66 2 2.32 2 3 2 C3 2.66 3 3.32 3 4 C2.34 4 1.68 4 1 4 C1 4.66 1 5.32 1 6 C0.34 6 -0.32 6 -1 6 C-0.67 4.02 -0.34 2.04 0 0 Z " fill="#E6E5EF" transform="translate(356,156)"/><path d="M0 0 C0 0.66 0 1.32 0 2 C-1.98 2.33 -3.96 2.66 -6 3 C-6 2.01 -6 1.02 -6 0 C-2.25 -1.12 -2.25 -1.12 0 0 Z " fill="#3C3D45" transform="translate(53,123)"/><path d="M0 0 C0.33 0.66 0.66 1.32 1 2 C1.99 2 2.98 2 4 2 C4 2.66 4 3.32 4 4 C2.35 4.33 0.7 4.66 -1 5 C-0.67 3.35 -0.34 1.7 0 0 Z " fill="#2B141B" transform="translate(221,111)"/><path d="M0 0 C0.99 0.99 1.98 1.98 3 3 C1.02 3.99 1.02 3.99 -1 5 C-1.04 3.67 -1.04 2.33 -1 1 C-0.67 0.67 -0.34 0.34 0 0 Z " fill="#B5C8B5" transform="translate(133,61)"/><path d="M0 0 C1.32 0 2.64 0 4 0 C3.67 1.32 3.34 2.64 3 4 C2.01 3.67 1.02 3.34 0 3 C0 2.01 0 1.02 0 0 Z " fill="#B9B8C0" transform="translate(16,227)"/><path d="M0 0 C1.98 0 3.96 0 6 0 C6 0.66 6 1.32 6 2 C4.35 2.33 2.7 2.66 1 3 C0.67 2.01 0.34 1.02 0 0 Z " fill="#E3F3E3" transform="translate(120,221)"/><path d="M0 0 C1.5 0.81 1.5 0.81 3 2 C3 2.99 3 3.98 3 5 C2.01 5.33 1.02 5.66 0 6 C0 4.02 0 2.04 0 0 Z " fill="#494951" transform="translate(367,214)"/><path d="M0 0 C0.99 0 1.98 0 3 0 C3.33 1.65 3.66 3.3 4 5 C3.01 5.5 3.01 5.5 2 6 C1.34 4.02 0.68 2.04 0 0 Z " fill="#E4E3EA" transform="translate(80,183)"/><path d="M0 0 C-0.66 1.65 -1.32 3.3 -2 5 C-2.33 4.01 -2.66 3.02 -3 2 C-3.99 1.67 -4.98 1.34 -6 1 C-3.92 0.45 -2.16 0 0 0 Z " fill="#7B7B81" transform="translate(103,148)"/><path d="M0 0 C1.32 0.33 2.64 0.66 4 1 C3.67 1.99 3.34 2.98 3 4 C2.01 4 1.02 4 0 4 C0 2.68 0 1.36 0 0 Z " fill="#8B8D93" transform="translate(486,138)"/><path d="M0 0 C0.66 0 1.32 0 2 0 C2.33 1.98 2.66 3.96 3 6 C2.01 6 1.02 6 0 6 C0 4.02 0 2.04 0 0 Z " fill="#3D3E46" transform="translate(54,118)"/><path d="M0 0 C0.99 0 1.98 0 3 0 C3 1.32 3 2.64 3 4 C2.01 4 1.02 4 0 4 C0 2.68 0 1.36 0 0 Z " fill="#12C000" transform="translate(134,232)"/><path d="M0 0 C0.99 0 1.98 0 3 0 C3 1.32 3 2.64 3 4 C2.01 4 1.02 4 0 4 C0 2.68 0 1.36 0 0 Z " fill="#FF02FF" transform="translate(303,216)"/><path d="M0 0 C0.66 0.66 1.32 1.32 2 2 C1.62 4.12 1.62 4.12 1 6 C0.01 5.67 -0.98 5.34 -2 5 C-1.34 3.35 -0.68 1.7 0 0 Z " fill="#ADC8AD" transform="translate(48,147)"/><path d="M0 0 C1.32 0 2.64 0 4 0 C4 0.99 4 1.98 4 3 C2.68 3 1.36 3 0 3 C0 2.01 0 1.02 0 0 Z " fill="#818187" transform="translate(448,136)"/><path d="M0 0 C0.99 0 1.98 0 3 0 C2.67 1.32 2.34 2.64 2 4 C1.34 4 0.68 4 0 4 C0 2.68 0 1.36 0 0 Z " fill="#12C000" transform="translate(114,223)"/><path d="M0 0 C0.99 0 1.98 0 3 0 C2.67 1.32 2.34 2.64 2 4 C1.34 4 0.68 4 0 4 C0 2.68 0 1.36 0 0 Z " fill="#12C000" transform="translate(136,214)"/><path d="M0 0 C1.32 0.33 2.64 0.66 4 1 C3.67 1.99 3.34 2.98 3 4 C2.01 4 1.02 4 0 4 C0 2.68 0 1.36 0 0 Z " fill="#115168" transform="translate(337,194)"/><path d="M0 0 C-1.98 0.99 -1.98 0.99 -4 2 C-4.99 1.34 -5.98 0.68 -7 0 C-4.33 -1.33 -2.83 -0.67 0 0 Z " fill="#0588AE" transform="translate(313,186)"/><path d="M0 0 C2.44 0.38 2.44 0.38 5 1 C5.33 1.66 5.66 2.32 6 3 C3.56 2.62 3.56 2.62 1 2 C0.67 1.34 0.34 0.68 0 0 Z " fill="#029CC7" transform="translate(466,133)"/><path d="M0 0 C0.99 0.66 1.98 1.32 3 2 C1.62 3.5 1.62 3.5 0 5 C-0.66 5 -1.32 5 -2 5 C-1.34 3.35 -0.68 1.7 0 0 Z " fill="#E60102" transform="translate(216,107)"/><path d="M0 0 C1.32 0.66 2.64 1.32 4 2 C2.52 2.99 2.52 2.99 1 4 C0.34 3.01 -0.32 2.02 -1 1 C-0.67 0.67 -0.34 0.34 0 0 Z " fill="#B6C7B6" transform="translate(83,98)"/><path d="M0 0 C1.32 0 2.64 0 4 0 C4 0.99 4 1.98 4 3 C2.35 2.67 0.7 2.34 -1 2 C-0.67 1.34 -0.34 0.68 0 0 Z " fill="#FA94FF" transform="translate(281,215)"/><path d="M0 0 C0.99 0.33 1.98 0.66 3 1 C2.67 1.66 2.34 2.32 2 3 C0.68 2.67 -0.64 2.34 -2 2 C-1.34 1.34 -0.68 0.68 0 0 Z " fill="#B4C5B5" transform="translate(34,176)"/><path d="M0 0 C0.66 0 1.32 0 2 0 C2.33 1.65 2.66 3.3 3 5 C2.01 5 1.02 5 0 5 C0 3.35 0 1.7 0 0 Z " fill="#CCCFCF" transform="translate(246,161)"/><path d="M0 0 C0.99 0.99 1.98 1.98 3 3 C1.68 3.33 0.36 3.66 -1 4 C-0.67 2.68 -0.34 1.36 0 0 Z " fill="#534F56" transform="translate(87,163)"/><path d="M0 0 C0.66 0.33 1.32 0.66 2 1 C2 1.99 2 2.98 2 4 C1.01 4 0.02 4 -1 4 C-0.67 2.68 -0.34 1.36 0 0 Z " fill="#484A52" transform="translate(230,159)"/><path d="M0 0 C0.99 0.33 1.98 0.66 3 1 C0.52 2.49 0.52 2.49 -2 4 C-1.34 2.68 -0.68 1.36 0 0 Z " fill="#02A0CD" transform="translate(459,159)"/><path d="M0 0 C0.66 0 1.32 0 2 0 C2.33 1.32 2.66 2.64 3 4 C2.01 4 1.02 4 0 4 C0 2.68 0 1.36 0 0 Z " fill="#A7A7AC" transform="translate(120,138)"/><path d="M0 0 C0.99 0.33 1.98 0.66 3 1 C2.34 1.66 1.68 2.32 1 3 C0.01 2.67 -0.98 2.34 -2 2 C-1.34 1.34 -0.68 0.68 0 0 Z " fill="#0589B0" transform="translate(470,149)"/><path d="M0 0 C1.94 0.38 1.94 0.38 4 1 C4.33 1.66 4.66 2.32 5 3 C3.06 2.62 3.06 2.62 1 2 C0.67 1.34 0.34 0.68 0 0 Z " fill="#029BC6" transform="translate(201,118)"/><path d="M0 0 C0.66 0 1.32 0 2 0 C2.33 0.99 2.66 1.98 3 3 C1.68 3 0.36 3 -1 3 C-0.67 2.01 -0.34 1.02 0 0 Z " fill="#B1B9B3" transform="translate(71,112)"/><path d="M0 0 C0.99 0.33 1.98 0.66 3 1 C2.01 2.48 2.01 2.48 1 4 C0.34 3.01 -0.32 2.02 -1 1 C-0.67 0.67 -0.34 0.34 0 0 Z " fill="#A5C0A5" transform="translate(76,106)"/><path d="M0 0 C2.47 0.99 2.47 0.99 5 2 C4.34 2.66 3.68 3.32 3 4 C2.01 2.68 1.02 1.36 0 0 Z " fill="#029CC8" transform="translate(173,96)"/><path d="M0 0 C2.47 0.5 2.47 0.5 5 1 C3.52 1.99 3.52 1.99 2 3 C1.34 2.67 0.68 2.34 0 2 C0 1.34 0 0.68 0 0 Z " fill="#C9DACA" transform="translate(85,96)"/><path d="M0 0 C0.66 0.99 1.32 1.98 2 3 C0.68 3 -0.64 3 -2 3 C-1 1 -1 1 0 0 Z " fill="#B4C9B4" transform="translate(109,75)"/><path d="M0 0 C0.99 0.33 1.98 0.66 3 1 C2.67 1.99 2.34 2.98 2 4 C1.34 3.67 0.68 3.34 0 3 C0 2.01 0 1.02 0 0 Z " fill="#36373F" transform="translate(65,207)"/><path d="M0 0 C0.99 0.33 1.98 0.66 3 1 C1.51 1.99 1.51 1.99 0 3 C-0.66 2.34 -1.32 1.68 -2 1 C-1.34 0.67 -0.68 0.34 0 0 Z " fill="#0588AE" transform="translate(412,192)"/><path d="M0 0 C0.99 0.33 1.98 0.66 3 1 C1.02 1.99 1.02 1.99 -1 3 C-0.67 2.01 -0.34 1.02 0 0 Z " fill="#9FC49E" transform="translate(50,144)"/><path d="M0 0 C1.32 0.66 2.64 1.32 4 2 C3.01 2.33 2.02 2.66 1 3 C0.34 2.34 -0.32 1.68 -1 1 C-0.67 0.67 -0.34 0.34 0 0 Z " fill="#0489B0" transform="translate(464,131)"/><path d="M0 0 C0.66 0.99 1.32 1.98 2 3 C1.34 3.66 0.68 4.32 0 5 C-0.33 4.01 -0.66 3.02 -1 2 C-0.67 1.34 -0.34 0.68 0 0 Z " fill="#0588AE" transform="translate(439,124)"/><path d="M0 0 C0.99 0.33 1.98 0.66 3 1 C1.02 1.99 1.02 1.99 -1 3 C-0.67 2.01 -0.34 1.02 0 0 Z " fill="#B8CCB9" transform="translate(61,126)"/><path d="M0 0 C0.66 0 1.32 0 2 0 C1.67 0.99 1.34 1.98 1 3 C0.01 2.67 -0.98 2.34 -2 2 C-1.34 1.34 -0.68 0.68 0 0 Z " fill="#B4C8B5" transform="translate(69,116)"/><path d="M0 0 C0.99 0.33 1.98 0.66 3 1 C2.67 1.66 2.34 2.32 2 3 C1.01 2.67 0.02 2.34 -1 2 C-0.67 1.34 -0.34 0.68 0 0 Z " fill="#46464D" transform="translate(53,114)"/><path d="M0 0 C1.98 0.99 1.98 0.99 4 2 C3.01 2.33 2.02 2.66 1 3 C0.67 2.01 0.34 1.02 0 0 Z " fill="#0299C4" transform="translate(188,107)"/><path d="M0 0 C0.99 0.33 1.98 0.66 3 1 C1.51 1.99 1.51 1.99 0 3 C-0.66 2.34 -1.32 1.68 -2 1 C-1.34 0.67 -0.68 0.34 0 0 Z " fill="#76767C" transform="translate(137,94)"/><path d="M0 0 C-0.33 0.99 -0.66 1.98 -1 3 C-1.99 2.34 -2.98 1.68 -4 1 C-2 0 -2 0 0 0 Z " fill="#048DB5" transform="translate(444,174)"/><path d="M0 0 C0.66 0.99 1.32 1.98 2 3 C1.34 3.66 0.68 4.32 0 5 C-0.33 4.01 -0.66 3.02 -1 2 C-0.67 1.34 -0.34 0.68 0 0 Z " fill="#696970" transform="translate(59,153)"/><path d="M0 0 C0.66 0.99 1.32 1.98 2 3 C1.34 3.66 0.68 4.32 0 5 C-0.33 4.01 -0.66 3.02 -1 2 C-0.67 1.34 -0.34 0.68 0 0 Z " fill="#0587AD" transform="translate(434,143)"/><path d="M0 0 C0.66 0 1.32 0 2 0 C2 0.99 2 1.98 2 3 C1.01 2.67 0.02 2.34 -1 2 C-0.67 1.34 -0.34 0.68 0 0 Z " fill="#41434B" transform="translate(52,126)"/><path d="M0 0 C0.99 0.33 1.98 0.66 3 1 C1.51 1.99 1.51 1.99 0 3 C0 2.01 0 1.02 0 0 Z " fill="#0589B0" transform="translate(445,126)"/><path d="M0 0 C0.99 0 1.98 0 3 0 C2.67 0.99 2.34 1.98 2 3 C1.34 2.67 0.68 2.34 0 2 C0 1.34 0 0.68 0 0 Z " fill="#484A52" transform="translate(57,117)"/><path d="M0 0 C0.99 0.33 1.98 0.66 3 1 C1.51 1.99 1.51 1.99 0 3 C0 2.01 0 1.02 0 0 Z " fill="#E20203" transform="translate(212,105)"/><path d="M0 0 C0.99 0.33 1.98 0.66 3 1 C1.51 1.99 1.51 1.99 0 3 C0 2.01 0 1.02 0 0 Z " fill="#75757B" transform="translate(130,98)"/><path d="M0 0 C0.99 0.33 1.98 0.66 3 1 C1.51 1.99 1.51 1.99 0 3 C0 2.01 0 1.02 0 0 Z " fill="#048BB2" transform="translate(144,91)"/><path d="M0 0 C0.99 0.99 1.98 1.98 3 3 C2.01 3 1.02 3 0 3 C0 2.01 0 1.02 0 0 Z " fill="#12C000" transform="translate(133,61)"/><path d="M0 0 C0.66 0.99 1.32 1.98 2 3 C1.01 3 0.02 3 -1 3 C-0.67 2.01 -0.34 1.02 0 0 Z " fill="#6F6F75" transform="translate(65,143)"/><path d="M0 0 C0.66 0.66 1.32 1.32 2 2 C1.01 2 0.02 2 -1 2 C-0.67 1.34 -0.34 0.68 0 0 Z " fill="#11475D" transform="translate(323,188)"/></svg>