<svg xmlns="http://www.w3.org/2000/svg" width="508" height="303" viewBox="0 0 508 303"><path d="M0 0 C167.64 0 335.28 0 508 0 C508 99.99 508 199.98 508 303 C340.36 303 172.72 303 0 303 C0 203.01 0 103.02 0 0 Z " fill="#FAFAFE" transform="translate(0,0)"/><path d="M0 0 C2.44 1.63 2.44 1.63 4 4 C3.84 7.8 2.89 10.72 1 14 C1.5 14.45 1.99 14.91 2.5 15.38 C4 17 4 17 4 19 C11.92 19 19.84 19 28 19 C27.96 13.78 27.96 13.78 27.91 8.56 C27.91 7.91 27.9 7.26 27.9 6.6 C27.9 5.93 27.89 5.27 27.89 4.58 C28 3 28 3 29 2 C31.18 1.9 33.34 1.86 35.52 1.87 C36.2 1.87 36.89 1.87 37.59 1.87 C39.85 1.86 42.11 1.86 44.38 1.87 C45.94 1.87 47.51 1.87 49.07 1.86 C52.36 1.86 55.64 1.86 58.93 1.87 C63.15 1.88 67.37 1.87 71.59 1.87 C74.82 1.86 78.06 1.86 81.29 1.87 C82.85 1.87 84.4 1.87 85.96 1.86 C88.13 1.86 90.3 1.87 92.48 1.87 C93.45 1.87 93.45 1.87 94.44 1.86 C98.89 1.89 98.89 1.89 100 3 C100.11 5.35 100.16 7.67 100.17 10.03 C100.17 10.73 100.17 11.44 100.18 12.16 C100.18 13.65 100.19 15.15 100.19 16.64 C100.19 18.92 100.21 21.21 100.22 23.5 C100.23 24.95 100.23 26.39 100.23 27.84 C100.24 28.53 100.24 29.21 100.25 29.92 C100.23 34.77 100.23 34.77 98 37 C95.81 37.19 93.75 37.26 91.56 37.24 C90.57 37.25 90.57 37.25 89.56 37.25 C87.37 37.25 85.19 37.24 83 37.23 C81.48 37.23 79.97 37.23 78.45 37.23 C75.27 37.23 72.09 37.22 68.91 37.21 C64.82 37.19 60.74 37.18 56.66 37.19 C53.53 37.19 50.39 37.18 47.26 37.17 C45.75 37.17 44.25 37.17 42.74 37.17 C40.64 37.16 38.54 37.16 36.44 37.15 C35.81 37.15 35.19 37.15 34.54 37.15 C30.23 37.11 30.23 37.11 28 36 C28 30.72 28 25.44 28 20 C20.74 20 13.48 20 6 20 C9.52 25.3 13.04 30.6 16.56 35.89 C17.75 37.69 18.95 39.48 20.14 41.28 C24.07 47.2 28.02 53.11 32 59 C32.46 59.68 32.92 60.37 33.39 61.07 C39.24 69.72 45.63 77.18 53.12 84.44 C54.07 85.37 55.02 86.31 55.96 87.25 C60.54 91.77 65.22 96.12 70.1 100.31 C74.27 104.01 78.1 108.06 82 112.04 C85.24 115.32 88.51 118.49 92 121.5 C96.93 125.75 101.44 130.39 106 135.04 C109.97 139.06 114.04 142.86 118.35 146.51 C120 148 120 148 121.81 150.5 C125.72 153.18 130.51 151.71 135 151 C134.75 149.93 134.5 148.85 134.25 147.75 C133.82 144.72 133.84 144.25 135.62 141.56 C138.46 139.7 139.68 139.34 143 140 C145.38 141.56 145.38 141.56 147 144 C147.11 147.22 146.45 150.11 145 153 C145.89 153.56 146.77 154.11 147.69 154.69 C150.02 156.15 151.17 157.24 152.81 159.54 C157.03 163.76 163.32 162.77 168.9 162.79 C170.2 162.81 171.5 162.83 172.8 162.86 C176.19 162.92 179.59 162.95 182.99 162.98 C186.15 163.01 189.32 163.07 192.48 163.12 C197.53 163.21 202.58 163.28 207.62 163.34 C234.63 163.66 261.63 164.23 288.62 165.06 C289.37 165.09 290.12 165.11 290.89 165.13 C299.93 165.41 308.96 165.7 318 166 C317.91 159.91 317.8 153.83 317.68 147.74 C317.64 145.67 317.61 143.59 317.58 141.52 C317.53 138.55 317.47 135.58 317.41 132.6 C317.4 131.21 317.4 131.21 317.38 129.78 C317.35 128.49 317.35 128.49 317.32 127.17 C317.3 126.04 317.3 126.04 317.28 124.87 C317.15 122.76 317.15 122.76 315 121 C312.57 120.54 312.57 120.54 309.88 120.38 C308.51 120.26 308.51 120.26 307.12 120.15 C306.07 120.07 306.07 120.07 305 120 C305.01 121.14 305.02 122.29 305.04 123.46 C305.04 124.96 305.05 126.45 305.06 127.94 C305.07 128.69 305.08 129.45 305.09 130.22 C305.09 131.3 305.09 131.3 305.1 132.4 C305.11 133.4 305.11 133.4 305.11 134.42 C305 136 305 136 304 137 C301.82 137.1 299.66 137.14 297.48 137.13 C296.8 137.13 296.11 137.13 295.41 137.13 C293.15 137.14 290.89 137.14 288.62 137.13 C287.06 137.13 285.49 137.13 283.93 137.14 C280.64 137.14 277.36 137.14 274.07 137.13 C269.85 137.12 265.63 137.13 261.41 137.13 C258.18 137.14 254.94 137.14 251.71 137.13 C250.15 137.13 248.6 137.13 247.04 137.14 C244.87 137.14 242.7 137.13 240.52 137.13 C239.87 137.13 239.22 137.13 238.56 137.14 C234.11 137.11 234.11 137.11 233 136 C232.89 133.65 232.84 131.33 232.83 128.97 C232.83 128.27 232.83 127.56 232.82 126.84 C232.82 125.35 232.81 123.85 232.81 122.36 C232.81 120.08 232.79 117.79 232.78 115.5 C232.77 114.05 232.77 112.61 232.77 111.16 C232.76 110.47 232.76 109.79 232.75 109.08 C232.77 104.23 232.77 104.23 235 102 C237.44 101.68 237.44 101.68 240.55 101.59 C241.12 101.57 241.68 101.55 242.27 101.53 C244.14 101.47 246.01 101.42 247.88 101.37 C249.18 101.33 250.48 101.28 251.78 101.24 C255.19 101.13 258.61 101.03 262.02 100.94 C265.51 100.84 269 100.72 272.48 100.61 C279.32 100.4 286.16 100.2 293 100 C293 99.01 293 98.02 293 97 C295.64 96.67 298.28 96.34 301 96 C301 95.01 301 94.02 301 93 C302.32 92.34 303.64 91.68 305 91 C305 90.34 305 89.68 305 89 C310.94 88.5 310.94 88.5 317 88 C315.68 87.01 314.36 86.02 313 85 C318.94 84.5 318.94 84.5 325 84 C323.68 83.01 322.36 82.02 321 81 C328.92 80.5 328.92 80.5 337 80 C337 79.01 337 78.02 337 77 C361.09 77 385.18 77 410 77 C410 143.99 410 210.98 410 280 C330.47 280 250.94 280 169 280 C169 277 169 277 171 275 C171 274.34 171 273.68 171 273 C171.66 272.34 172.32 271.68 173 271 C173 270.34 173 269.68 173 269 C173.66 268.34 174.32 267.68 175 267 C174.34 266.34 173.68 265.68 173 265 C174.32 264.34 175.64 263.68 177 263 C177 261.02 177 259.04 177 257 C178.32 256.34 179.64 255.68 181 255 C180.34 254.34 179.68 253.68 179 253 C179.66 252.34 180.32 251.68 181 251 C181 250.34 181 249.68 181 249 C182.32 248.34 183.64 247.68 185 247 C184.34 246.34 183.68 245.68 183 245 C183.66 244.34 184.32 243.68 185 243 C185 242.34 185 241.68 185 241 C185.66 240.34 186.32 239.68 187 239 C187 238.34 187 237.68 187 237 C187.66 236.34 188.32 235.68 189 235 C189 234.34 189 233.68 189 233 C179 231.44 169.31 230.72 159.19 230.8 C157.85 230.81 156.5 230.81 155.15 230.81 C151.67 230.82 148.18 230.84 144.69 230.86 C141.11 230.88 137.53 230.89 133.95 230.9 C126.97 230.92 119.98 230.96 113 231 C113 227.37 113 223.74 113 220 C113.66 220 114.32 220 115 220 C114.67 218.35 114.34 216.7 114 215 C112.68 215.33 111.36 215.66 110 216 C110.58 218.39 111.22 220.67 112 223 C105.4 223 98.8 223 92 223 C92.66 223.99 93.32 224.98 94 226 C93.94 229 93.94 229 93 232 C90.29 234.33 88.9 235.06 85.31 234.81 C83 234 83 234 81 232 C80.42 227.53 80.42 227.53 81 225 C83.5 222.56 83.5 222.56 86 221 C85.01 220.01 84.02 219.02 83 218 C81.93 218.35 80.85 218.7 79.75 219.06 C78.31 219.52 76.87 219.98 75.44 220.44 C74.38 220.78 74.38 220.78 73.3 221.13 C72.6 221.36 71.9 221.58 71.18 221.81 C70.55 222.01 69.92 222.22 69.26 222.43 C61.56 224.38 53.72 224.29 45.82 224.35 C44.33 224.37 42.84 224.39 41.35 224.43 C27.75 224.78 16.08 222.33 4 216 C3.9 216.93 3.79 217.86 3.69 218.81 C3 222 3 222 1.88 223.94 C-0.72 225.41 -2.54 225.08 -5.41 224.5 C-7 224 -7 224 -8.44 222.81 C-9.29 220.07 -9.3 217.85 -9 215 C-7.15 212.44 -6.06 212.02 -3 211 C-3.48 210.56 -3.97 210.12 -4.47 209.67 C-19.73 195.23 -26.02 176.95 -29.5 156.62 C-29.72 155.38 -29.94 154.13 -30.15 152.88 C-33.21 135.32 -35.64 117.67 -38 100 C-39.64 99.44 -39.64 99.44 -41.31 98.88 C-41.93 98.67 -42.54 98.46 -43.18 98.24 C-45.53 97.93 -46.14 98.62 -48 100 C-51 100.38 -51 100.38 -54 100 C-56.59 97.76 -56.95 96.32 -57.44 92.94 C-57 90 -57 90 -55.31 88.12 C-52.66 86.83 -50.91 86.91 -48 87 C-49.47 83.5 -50.95 80 -52.43 76.5 C-52.92 75.31 -53.42 74.12 -53.92 72.94 C-56.83 66.02 -59.8 59.15 -62.94 52.33 C-65.72 46.22 -67.48 40.73 -68 34 C-68.91 34.23 -69.81 34.45 -70.75 34.69 C-74 35 -74 35 -76.38 34 C-78.44 31.46 -78.53 29.86 -78.32 26.65 C-78 25 -78 25 -76.88 23.06 C-74.05 21.46 -72.2 21.55 -69 22 C-67.06 23.16 -65.66 24.44 -64 26 C-63.5 25.52 -63.01 25.04 -62.5 24.54 C-61.82 23.91 -61.14 23.28 -60.44 22.62 C-59.78 22 -59.11 21.37 -58.43 20.73 C-52.03 16.18 -43.35 16.06 -35.75 15 C-28.21 13.93 -20.69 12.82 -13.22 11.37 C-11 11 -11 11 -8 11 C-8.5 10.01 -8.5 10.01 -9 9 C-9.45 3.75 -9.45 3.75 -7.88 1.12 C-5.08 -0.55 -3.2 -0.46 0 0 Z " fill="#EEECFE" transform="translate(98,23)"/><path d="M0 0 C1.87 1.93 3.28 4.09 4.73 6.35 C5.17 7 5.6 7.65 6.05 8.32 C7.44 10.42 8.82 12.52 10.19 14.62 C11.09 15.99 11.99 17.35 12.9 18.71 C15.17 22.12 17.42 25.54 19.66 28.97 C23.41 34.67 27.18 40.35 31 46 C31.34 46.5 31.68 47.01 32.03 47.53 C36.99 54.87 42.68 61.1 48.99 67.27 C50.51 68.76 52.01 70.25 53.51 71.75 C58.24 76.44 63.04 80.97 68.09 85.31 C72.49 89.21 76.53 93.49 80.64 97.68 C84.64 101.72 88.72 105.54 93.02 109.24 C97.21 112.96 101.07 117.04 105 121.04 C108.93 125.02 112.95 128.77 117.24 132.36 C119.1 134.09 120.53 135.93 122 138 C121.2 138.37 120.39 138.74 119.56 139.12 C116.74 140.8 116.74 140.8 116.06 144 C115.86 146.84 115.86 146.84 116.5 148.88 C118.69 150.52 120.66 150.32 123.34 150.3 C125.27 150.11 125.27 150.11 127 148 C127.46 146.26 127.46 146.26 127.62 144.38 C127.75 143.26 127.87 142.15 128 141 C135.15 139.26 140.79 138.04 147.69 141.25 C150.36 143.27 152.03 145.3 154 148 C153.15 148.72 152.31 149.44 151.44 150.19 C150.04 151.51 150.04 151.51 149 153 C149.08 156.45 149.56 157.56 152 160 C153.73 160.06 153.73 160.06 155.56 159.69 C156.18 159.59 156.8 159.49 157.44 159.39 C159.04 159.13 159.04 159.13 160 158 C160.07 156.65 160.08 155.29 160.06 153.94 C160.05 153.2 160.04 152.47 160.04 151.71 C160.02 150.87 160.02 150.87 160 150 C166.37 150.11 172.73 150.22 179.1 150.34 C182.06 150.39 185.01 150.45 187.97 150.5 C199.79 150.7 211.6 150.95 223.41 151.5 C233.5 151.97 243.59 152.16 253.69 152.28 C254.86 152.3 254.86 152.3 256.05 152.31 C261.7 152.38 267.35 152.44 273 152.5 C285.33 152.63 297.67 152.77 310 153 C310.97 153.02 310.97 153.02 311.97 153.04 C315.98 153.11 319.99 153.22 324 153.34 C324.96 153.36 325.92 153.38 326.91 153.41 C331.67 153.59 335.22 153.78 339 157 C340.35 161.05 340.8 164.71 339.39 168.77 C335.21 176.93 328.42 181.21 319.99 184.12 C315.22 185.53 310.5 186.21 305.56 186.73 C304.42 186.86 303.27 186.98 302.09 187.1 C284.52 188.82 266.78 188.37 249.14 188.27 C244.98 188.24 240.82 188.23 236.66 188.21 C227.99 188.18 219.32 188.14 210.64 188.09 C199.52 188.02 188.4 187.99 177.28 187.98 C168.68 187.98 160.08 187.96 151.48 187.91 C146.36 187.89 141.25 187.87 136.14 187.88 C131.36 187.89 126.58 187.87 121.8 187.82 C120.04 187.81 118.29 187.81 116.54 187.82 C114.15 187.83 111.76 187.81 109.38 187.77 C108.33 187.79 108.33 187.79 107.27 187.81 C104.63 187.74 102.61 187.59 100.66 185.7 C98.98 183.3 98.01 181.5 97.93 178.55 C98.1 177.81 98.27 177.07 98.44 176.31 C98.99 174.1 98.99 174.1 99 172 C97.86 170.13 97.86 170.13 96 169 C93.49 168.85 91.49 169.45 89 170 C87.27 171.73 87.88 173.91 87.87 176.21 C87.94 178.24 87.94 178.24 89 181 C86.86 181.8 84.71 182.59 82.56 183.38 C81.97 183.6 81.38 183.82 80.77 184.05 C71.09 187.57 62.11 188.37 51.88 188.37 C49.7 188.37 47.52 188.41 45.35 188.45 C30.96 188.57 18.27 184.88 7.38 174.94 C-11.47 154.8 -13.07 124.94 -17 99 C-17.1 98.36 -17.19 97.72 -17.3 97.06 C-17.58 95.17 -17.86 93.28 -18.14 91.38 C-18.3 90.28 -18.47 89.18 -18.63 88.05 C-19.12 83.99 -19.14 80.08 -19 76 C-15.7 76 -12.4 76 -9 76 C-8.94 74.56 -8.88 73.11 -8.81 71.62 C-8.78 70.81 -8.74 70 -8.71 69.16 C-8.78 66.95 -8.78 66.95 -10.32 65.7 C-13.09 64.55 -15.19 65.22 -18 66 C-19.26 67.48 -19.26 67.48 -20 69 C-20.66 69 -21.32 69 -22 69 C-23.33 67.67 -24.67 66.33 -26 65 C-26.65 64.78 -27.3 64.56 -27.96 64.33 C-31.13 62.26 -31.64 59.08 -32.69 55.62 C-35.22 47.87 -38.33 40.52 -41.75 33.13 C-50.01 15.29 -50.01 15.29 -49 10 C-46.12 6.01 -43.18 5.29 -38.58 4.45 C-37.32 4.25 -37.32 4.25 -36.04 4.04 C-35.16 3.89 -34.29 3.74 -33.4 3.58 C-31.56 3.26 -29.72 2.95 -27.88 2.65 C-25.07 2.19 -22.27 1.7 -19.46 1.21 C-17.67 0.9 -15.89 0.6 -14.1 0.29 C-13.26 0.15 -12.42 0 -11.56 -0.15 C-3.36 -1.47 -3.36 -1.47 0 0 Z " fill="#F9F9FD" transform="translate(92,47)"/><path d="M0 0 C2.44 1.63 2.44 1.63 4 4 C3.84 7.8 2.89 10.72 1 14 C1.5 14.45 1.99 14.91 2.5 15.38 C4 17 4 17 4 19 C11.92 19 19.84 19 28 19 C27.96 13.78 27.96 13.78 27.91 8.56 C27.91 7.91 27.9 7.26 27.9 6.6 C27.9 5.93 27.89 5.27 27.89 4.58 C28 3 28 3 29 2 C31.18 1.9 33.34 1.86 35.52 1.87 C36.2 1.87 36.89 1.87 37.59 1.87 C39.85 1.86 42.11 1.86 44.38 1.87 C45.94 1.87 47.51 1.87 49.07 1.86 C52.36 1.86 55.64 1.86 58.93 1.87 C63.15 1.88 67.37 1.87 71.59 1.87 C74.82 1.86 78.06 1.86 81.29 1.87 C82.85 1.87 84.4 1.87 85.96 1.86 C88.13 1.86 90.3 1.87 92.48 1.87 C93.45 1.87 93.45 1.87 94.44 1.86 C98.89 1.89 98.89 1.89 100 3 C100.11 5.35 100.16 7.67 100.17 10.03 C100.17 10.73 100.17 11.44 100.18 12.16 C100.18 13.65 100.19 15.15 100.19 16.64 C100.19 18.92 100.21 21.21 100.22 23.5 C100.23 24.95 100.23 26.39 100.23 27.84 C100.24 28.53 100.24 29.21 100.25 29.92 C100.23 34.77 100.23 34.77 98 37 C95.81 37.19 93.75 37.26 91.56 37.24 C90.57 37.25 90.57 37.25 89.56 37.25 C87.37 37.25 85.19 37.24 83 37.23 C81.48 37.23 79.97 37.23 78.45 37.23 C75.27 37.23 72.09 37.22 68.91 37.21 C64.82 37.19 60.74 37.18 56.66 37.19 C53.53 37.19 50.39 37.18 47.26 37.17 C45.75 37.17 44.25 37.17 42.74 37.17 C40.64 37.16 38.54 37.16 36.44 37.15 C35.81 37.15 35.19 37.15 34.54 37.15 C30.23 37.11 30.23 37.11 28 36 C28 30.72 28 25.44 28 20 C20.74 20 13.48 20 6 20 C9.52 25.3 13.04 30.6 16.56 35.89 C17.75 37.69 18.95 39.48 20.14 41.28 C24.07 47.2 28.02 53.11 32 59 C32.46 59.68 32.92 60.37 33.39 61.07 C39.24 69.72 45.63 77.18 53.12 84.44 C54.07 85.37 55.02 86.31 55.96 87.25 C60.54 91.77 65.22 96.12 70.1 100.31 C74.27 104.01 78.1 108.06 82 112.04 C85.24 115.32 88.51 118.49 92 121.5 C96.93 125.75 101.44 130.39 106 135.04 C109.97 139.06 114.04 142.86 118.35 146.51 C120 148 120 148 121.81 150.5 C125.72 153.18 130.51 151.71 135 151 C134.75 149.93 134.5 148.85 134.25 147.75 C133.82 144.72 133.84 144.25 135.62 141.56 C138.46 139.7 139.68 139.34 143 140 C145.38 141.56 145.38 141.56 147 144 C147.11 147.22 146.45 150.11 145 153 C145.89 153.56 146.77 154.11 147.69 154.69 C150.02 156.15 151.17 157.24 152.81 159.54 C157.03 163.76 163.32 162.77 168.9 162.79 C170.2 162.81 171.5 162.83 172.8 162.86 C176.19 162.92 179.59 162.95 182.99 162.98 C186.15 163.01 189.32 163.07 192.48 163.12 C197.53 163.21 202.58 163.28 207.62 163.34 C234.63 163.66 261.63 164.23 288.62 165.06 C289.37 165.09 290.12 165.11 290.89 165.13 C299.93 165.41 308.96 165.7 318 166 C317.91 159.93 317.8 153.86 317.68 147.79 C317.64 145.73 317.61 143.66 317.58 141.6 C317.53 138.63 317.47 135.67 317.41 132.7 C317.4 131.31 317.4 131.31 317.38 129.9 C317.35 128.6 317.35 128.6 317.32 127.29 C317.3 126.15 317.3 126.15 317.28 124.99 C316.97 122.82 316.36 121.7 315 120 C316.32 120.66 317.64 121.32 319 122 C319 136.52 319 151.04 319 166 C322.96 166 326.92 166 331 166 C337.82 168.82 337.82 168.82 340 171 C340.37 170.2 340.74 169.39 341.12 168.56 C343 166 343 166 345.88 164.94 C349 165 349 165 351.88 166.62 C354 169 354 169 354.56 171.5 C353.82 174.81 352.73 176.01 350 178 C347.25 178.25 347.25 178.25 345 178 C345.33 178.66 345.66 179.32 346 180 C346.84 189.6 345.94 196.73 340.08 204.56 C331.93 214.26 323.32 218.64 311 221 C310.23 221.16 309.45 221.32 308.65 221.48 C301.22 222.94 293.8 223.65 286.25 224.12 C285.6 224.17 284.95 224.21 284.29 224.25 C261.63 225.69 239 225.04 216.32 224.5 C194.26 223.97 172.19 223.7 150.12 223.44 C149.21 223.43 148.29 223.42 147.34 223.4 C135.89 223.27 124.45 223.13 113 223 C113 222.01 113 221.02 113 220 C113.66 220 114.32 220 115 220 C114.67 218.35 114.34 216.7 114 215 C112.68 215.33 111.36 215.66 110 216 C110.58 218.39 111.22 220.67 112 223 C105.4 223 98.8 223 92 223 C92.66 223.99 93.32 224.98 94 226 C93.94 229 93.94 229 93 232 C90.29 234.33 88.9 235.06 85.31 234.81 C83 234 83 234 81 232 C80.42 227.53 80.42 227.53 81 225 C83.5 222.56 83.5 222.56 86 221 C85.01 220.01 84.02 219.02 83 218 C81.93 218.35 80.85 218.7 79.75 219.06 C78.31 219.52 76.87 219.98 75.44 220.44 C74.38 220.78 74.38 220.78 73.3 221.13 C72.6 221.36 71.9 221.58 71.18 221.81 C70.55 222.01 69.92 222.22 69.26 222.43 C61.56 224.38 53.72 224.29 45.82 224.35 C44.33 224.37 42.84 224.39 41.35 224.43 C27.75 224.78 16.08 222.33 4 216 C3.9 216.93 3.79 217.86 3.69 218.81 C3 222 3 222 1.88 223.94 C-0.72 225.41 -2.54 225.08 -5.41 224.5 C-7 224 -7 224 -8.44 222.81 C-9.29 220.07 -9.3 217.85 -9 215 C-7.15 212.44 -6.06 212.02 -3 211 C-3.48 210.56 -3.97 210.12 -4.47 209.67 C-19.73 195.23 -26.02 176.95 -29.5 156.62 C-29.72 155.38 -29.94 154.13 -30.15 152.88 C-33.21 135.32 -35.64 117.67 -38 100 C-39.64 99.44 -39.64 99.44 -41.31 98.88 C-41.93 98.67 -42.54 98.46 -43.18 98.24 C-45.53 97.93 -46.14 98.62 -48 100 C-51 100.38 -51 100.38 -54 100 C-56.59 97.76 -56.95 96.32 -57.44 92.94 C-57 90 -57 90 -55.31 88.12 C-52.66 86.83 -50.91 86.91 -48 87 C-49.47 83.5 -50.95 80 -52.43 76.5 C-52.92 75.31 -53.42 74.12 -53.92 72.94 C-56.83 66.02 -59.8 59.15 -62.94 52.33 C-65.72 46.22 -67.48 40.73 -68 34 C-68.91 34.23 -69.81 34.45 -70.75 34.69 C-74 35 -74 35 -76.38 34 C-78.44 31.46 -78.53 29.86 -78.32 26.65 C-78 25 -78 25 -76.88 23.06 C-74.05 21.46 -72.2 21.55 -69 22 C-67.06 23.16 -65.66 24.44 -64 26 C-63.5 25.52 -63.01 25.04 -62.5 24.54 C-61.82 23.91 -61.14 23.28 -60.44 22.62 C-59.78 22 -59.11 21.37 -58.43 20.73 C-52.03 16.18 -43.35 16.06 -35.75 15 C-28.21 13.93 -20.69 12.82 -13.22 11.37 C-11 11 -11 11 -8 11 C-8.5 10.01 -8.5 10.01 -9 9 C-9.45 3.75 -9.45 3.75 -7.88 1.12 C-5.08 -0.55 -3.2 -0.46 0 0 Z M-20.1 24.29 C-20.97 24.44 -21.84 24.59 -22.74 24.74 C-24.58 25.05 -26.41 25.37 -28.25 25.7 C-31.05 26.19 -33.86 26.65 -36.67 27.11 C-38.46 27.42 -40.25 27.73 -42.04 28.04 C-43.29 28.25 -43.29 28.25 -44.58 28.45 C-48.22 29.12 -50.54 29.66 -53.55 31.89 C-55.67 34.98 -55.37 36.55 -54.79 40.15 C-52.99 46.64 -49.99 52.71 -47.19 58.81 C-45.92 61.59 -44.67 64.36 -43.42 67.14 C-43.11 67.81 -42.81 68.48 -42.5 69.17 C-40.24 74.25 -38.49 79.33 -36.98 84.69 C-35.85 87.36 -34.82 88.22 -32.31 89.62 C-31.71 89.86 -31.11 90.1 -30.49 90.35 C-29 91 -29 91 -28 93 C-27.34 93 -26.68 93 -26 93 C-25.42 92.32 -24.84 91.64 -24.25 90.94 C-22 89 -22 89 -18.81 89.19 C-16 90 -16 90 -15 91 C-14.86 94 -14.96 96.99 -15 100 C-18.3 100 -21.6 100 -25 100 C-25.33 108.37 -24.06 116.39 -22.75 124.62 C-22.52 126.1 -22.29 127.58 -22.06 129.05 C-21.49 132.7 -20.9 136.35 -20.32 139.99 C-20.03 141.84 -19.74 143.69 -19.45 145.54 C-16.05 167.45 -11.35 189.52 7.38 203.81 C18.26 210.79 28.77 212.65 41.4 212.47 C43.56 212.44 45.72 212.45 47.89 212.46 C56.04 212.45 63.22 211.68 71 209 C71.65 208.8 72.3 208.59 72.97 208.38 C74.55 207.88 76.12 207.35 77.69 206.81 C78.7 206.47 79.72 206.12 80.76 205.77 C81.5 205.52 82.24 205.26 83 205 C82.67 204.01 82.34 203.02 82 202 C81.72 199.56 81.82 197.49 82 195 C83.69 192.96 84.88 193.02 87.5 192.69 C90 193 90 193 91.81 194.19 C93.41 196.62 93.28 198.13 93 201 C92.63 201.96 92.63 201.96 92.25 202.94 C91.91 205.78 93.05 207.4 94.65 209.69 C96.6 211.58 98.62 211.74 101.27 211.81 C102.31 211.79 102.31 211.79 103.38 211.77 C104.12 211.78 104.87 211.79 105.64 211.81 C108.14 211.83 110.64 211.82 113.14 211.8 C114.94 211.82 116.73 211.83 118.52 211.85 C123.41 211.88 128.3 211.88 133.18 211.88 C138.32 211.87 143.46 211.9 148.6 211.93 C157.27 211.97 165.94 211.98 174.61 211.99 C185.72 211.99 196.83 212.04 207.95 212.11 C216.57 212.16 225.2 212.2 233.82 212.23 C237.94 212.24 242.06 212.26 246.18 212.29 C272.87 212.5 272.87 212.5 299.5 210.8 C300.52 210.7 301.53 210.6 302.58 210.49 C313.41 209.15 323.63 205.29 331 197 C334.1 192.87 334.55 189.01 334 184 C332.83 181.13 332.83 181.13 331 179 C328.32 178.11 326.53 177.82 323.76 177.7 C322.88 177.66 322 177.62 321.09 177.58 C320.11 177.54 319.13 177.51 318.12 177.47 C317.08 177.43 316.03 177.39 314.96 177.34 C298.98 176.76 282.99 176.67 267 176.5 C260.56 176.43 254.12 176.36 247.69 176.28 C246.52 176.27 246.52 176.27 245.32 176.25 C235.07 176.12 224.83 175.85 214.58 175.37 C202.56 174.81 190.53 174.64 178.5 174.44 C176.1 174.39 173.71 174.35 171.31 174.31 C165.54 174.2 159.77 174.1 154 174 C154.03 174.55 154.07 175.11 154.11 175.68 C154.13 176.4 154.16 177.13 154.19 177.88 C154.22 178.59 154.26 179.31 154.29 180.05 C154 182 154 182 152.64 183.23 C150.24 184.35 148.61 184.39 146 184 C144.12 182.31 144.12 182.31 143 180 C143.09 176.55 143.75 175.28 146.06 172.69 C146.7 172.13 147.34 171.57 148 171 C147.11 170.03 146.22 169.08 145.31 168.12 C144.81 167.59 144.31 167.06 143.8 166.51 C140.8 163.99 138.17 163 134.25 162.99 C132.86 163.15 132.86 163.15 131.44 163.31 C130.51 163.41 129.58 163.51 128.62 163.61 C126.36 163.95 124.21 164.39 122 165 C121.88 166.11 121.75 167.23 121.62 168.38 C121.3 171.3 121.19 171.81 119 174 C116.63 174.43 114.38 174.36 112 174 C110.5 172.88 110.5 172.88 110 171 C110.06 168.06 110.06 168.06 111 165 C113.56 162.62 113.56 162.62 116 161 C114.67 159.64 113.34 158.29 112 156.94 C111.26 156.18 110.51 155.43 109.75 154.65 C107.64 152.57 105.43 150.63 103.19 148.69 C98.2 144.36 93.62 139.67 89 134.96 C85.77 131.69 82.51 128.53 79.03 125.53 C73.86 121.07 69.14 116.19 64.36 111.32 C60.38 107.3 56.32 103.48 52.04 99.8 C41.58 90.59 31.53 80.75 24.17 68.86 C22.3 65.9 20.34 63 18.39 60.09 C15.96 56.45 13.55 52.79 11.15 49.13 C9.34 46.38 7.52 43.64 5.7 40.91 C4.76 39.49 3.83 38.08 2.91 36.66 C1.55 34.58 0.18 32.52 -1.2 30.46 C-1.61 29.82 -2.02 29.19 -2.44 28.53 C-4.19 25.94 -5.33 24.3 -8.23 23.02 C-12.28 22.99 -16.12 23.6 -20.1 24.29 Z " fill="#24232D" transform="translate(98,23)"/><path d="M0 0 C24.09 0 48.18 0 73 0 C73 40.92 73 81.84 73 124 C68.05 124.5 68.05 124.5 63 125 C62.34 124.34 61.68 123.68 61 123 C61 122.34 61 121.68 61 121 C54.56 120.5 54.56 120.5 48 120 C47.67 120.66 47.34 121.32 47 122 C47 121.34 47 120.68 47 120 C46.01 120 45.02 120 44 120 C43.67 120.66 43.34 121.32 43 122 C43 121.34 43 120.68 43 120 C42.01 120 41.02 120 40 120 C39.67 120.66 39.34 121.32 39 122 C39 121.34 39 120.68 39 120 C38.01 120 37.02 120 36 120 C35.67 120.66 35.34 121.32 35 122 C35 121.34 35 120.68 35 120 C34.01 120 33.02 120 32 120 C31.67 120.66 31.34 121.32 31 122 C31 121.34 31 120.68 31 120 C30.34 119.67 29.68 119.34 29 119 C29.99 118.67 30.98 118.34 32 118 C32 117.34 32 116.68 32 116 C24.74 116 17.48 116 10 116 C9.34 111.05 8.68 106.1 8 101 C9.98 100.34 11.96 99.68 14 99 C16.22 97.18 16.22 97.18 16.38 94.56 C16.22 91.92 16.22 91.92 14.38 90.12 C11.11 88.58 9.38 88.82 6 90 C4.79 92.51 4.79 92.51 4 95 C3.13 94.48 3.13 94.48 2.23 93.94 C1.41 93.49 0.59 93.03 -0.25 92.56 C-1.04 92.11 -1.83 91.66 -2.64 91.19 C-7.38 89.07 -12.9 89.27 -18 89 C-18.02 88.18 -18.02 88.18 -18.03 87.34 C-18.14 81.64 -18.25 75.95 -18.37 70.26 C-18.42 68.13 -18.46 66 -18.5 63.87 C-18.55 60.82 -18.62 57.77 -18.68 54.72 C-18.7 53.77 -18.72 52.81 -18.73 51.82 C-18.76 50.5 -18.76 50.5 -18.79 49.15 C-18.82 47.98 -18.82 47.98 -18.84 46.79 C-18.81 44.98 -18.81 44.98 -20 44 C-22.02 43.77 -24.04 43.59 -26.06 43.44 C-27.17 43.35 -28.27 43.27 -29.41 43.18 C-30.26 43.12 -31.12 43.06 -32 43 C-31.99 44.14 -31.98 45.29 -31.96 46.46 C-31.96 47.96 -31.95 49.45 -31.94 50.94 C-31.93 51.69 -31.92 52.45 -31.91 53.22 C-31.91 53.94 -31.91 54.66 -31.9 55.4 C-31.9 56.07 -31.89 56.73 -31.89 57.42 C-32 59 -32 59 -33 60 C-35.18 60.1 -37.34 60.14 -39.52 60.13 C-40.2 60.13 -40.89 60.13 -41.59 60.13 C-43.85 60.14 -46.11 60.14 -48.38 60.13 C-49.94 60.13 -51.51 60.13 -53.07 60.14 C-56.36 60.14 -59.64 60.14 -62.93 60.13 C-67.15 60.12 -71.37 60.13 -75.59 60.13 C-78.82 60.14 -82.06 60.14 -85.29 60.13 C-86.85 60.13 -88.4 60.13 -89.96 60.14 C-92.13 60.14 -94.3 60.13 -96.48 60.13 C-97.13 60.13 -97.78 60.13 -98.44 60.14 C-102.89 60.11 -102.89 60.11 -104 59 C-104.11 56.65 -104.16 54.33 -104.17 51.97 C-104.17 51.27 -104.17 50.56 -104.18 49.84 C-104.18 48.35 -104.19 46.85 -104.19 45.36 C-104.19 43.08 -104.21 40.79 -104.22 38.5 C-104.23 37.05 -104.23 35.61 -104.23 34.16 C-104.24 33.47 -104.24 32.79 -104.25 32.08 C-104.23 27.23 -104.23 27.23 -102 25 C-99.56 24.68 -99.56 24.68 -96.45 24.59 C-95.88 24.57 -95.32 24.55 -94.73 24.53 C-92.86 24.47 -90.99 24.42 -89.12 24.37 C-87.82 24.33 -86.52 24.28 -85.22 24.24 C-81.81 24.13 -78.39 24.03 -74.98 23.94 C-71.49 23.84 -68 23.72 -64.52 23.61 C-57.68 23.4 -50.84 23.2 -44 23 C-44 22.01 -44 21.02 -44 20 C-40.04 19.5 -40.04 19.5 -36 19 C-36 18.01 -36 17.02 -36 16 C-34.68 15.34 -33.36 14.68 -32 14 C-32 13.34 -32 12.68 -32 12 C-28.04 11.67 -24.08 11.34 -20 11 C-21.32 10.01 -22.64 9.02 -24 8 C-20.04 7.67 -16.08 7.34 -12 7 C-13.32 6.01 -14.64 5.02 -16 4 C-8.08 3.5 -8.08 3.5 0 3 C0 2.01 0 1.02 0 0 Z " fill="#F0EDFE" transform="translate(435,100)"/><path d="M0 0 C18.35 -0.08 36.69 0.12 55.03 0.37 C58.3 0.42 61.57 0.46 64.84 0.5 C75.56 0.63 86.28 0.79 97 1 C97.65 1.01 98.3 1.02 98.97 1.04 C102.98 1.12 106.99 1.22 111 1.35 C112.44 1.38 112.44 1.38 113.91 1.41 C118.67 1.59 122.22 1.78 126 5 C127.35 9.05 127.8 12.71 126.39 16.77 C122.21 24.94 115.41 29.2 106.97 32.12 C102.32 33.5 97.74 34.22 92.92 34.74 C91.79 34.86 90.67 34.98 89.51 35.11 C70 37.02 50.22 36.33 30.64 36.21 C25.03 36.17 19.42 36.16 13.81 36.15 C2.87 36.11 -8.06 36.06 -19 36 C-19 35.67 -19 35.34 -19 35 C-17.66 34.94 -17.66 34.94 -16.3 34.89 C-15.11 34.82 -13.93 34.75 -12.75 34.69 C-12.16 34.66 -11.58 34.64 -10.97 34.62 C-7.08 34.38 -4.87 33.65 -2 31 C-2.66 30.34 -3.32 29.68 -4 29 C-3.34 28.34 -2.68 27.68 -2 27 C-2 26.34 -2 25.68 -2 25 C-0.68 24.34 0.64 23.68 2 23 C2 21.02 2 19.04 2 17 C3.32 16.34 4.64 15.68 6 15 C6 14.34 6 13.68 6 13 C6.66 12.34 7.32 11.68 8 11 C7.34 10.34 6.68 9.68 6 9 C7.32 8.34 8.64 7.68 10 7 C10 6.34 10 5.68 10 5 C11.32 4.34 12.64 3.68 14 3 C10.92 2.14 7.93 1.73 4.75 1.44 C3.86 1.35 2.97 1.27 2.05 1.18 C1.37 1.12 0.7 1.06 0 1 C0 0.67 0 0.34 0 0 Z " fill="#EFECFD" transform="translate(305,199)"/><path d="M0 0 C0.65 0 1.3 0 1.97 0.01 C2.65 0 3.33 0 4.03 0 C6.29 -0 8.56 -0 10.82 0 C12.38 0 13.95 0 15.52 -0 C18.8 -0 22.09 0 25.37 0.01 C29.59 0.01 33.81 0.01 38.03 0 C41.27 -0 44.5 -0 47.74 0 C49.29 0 50.85 0 52.41 -0 C54.58 -0 56.75 0 58.92 0.01 C59.9 0 59.9 0 60.89 0 C65.33 0.02 65.33 0.02 66.44 1.14 C66.56 3.49 66.61 5.81 66.61 8.16 C66.62 9.22 66.62 9.22 66.62 10.3 C66.63 11.79 66.63 13.28 66.63 14.77 C66.63 17.06 66.65 19.35 66.67 21.63 C66.67 23.08 66.67 24.53 66.67 25.98 C66.68 26.66 66.69 27.35 66.7 28.06 C66.67 32.91 66.67 32.91 64.44 35.14 C62.26 35.33 60.2 35.4 58.01 35.38 C57.02 35.38 57.02 35.38 56.01 35.38 C53.82 35.39 51.63 35.38 49.44 35.37 C47.93 35.36 46.41 35.36 44.89 35.36 C41.71 35.36 38.53 35.35 35.35 35.34 C31.27 35.32 27.19 35.32 23.1 35.32 C19.97 35.32 16.84 35.32 13.7 35.31 C12.2 35.31 10.69 35.3 9.19 35.3 C7.09 35.3 4.98 35.29 2.88 35.28 C2.26 35.28 1.63 35.28 0.99 35.28 C-3.33 35.25 -3.33 35.25 -5.56 34.14 C-5.56 28.86 -5.56 23.58 -5.56 18.14 C-14.8 18.47 -24.04 18.8 -33.56 19.14 C-31.51 22.02 -29.47 24.91 -27.37 27.89 C-22.36 35 -17.51 42.19 -12.81 49.51 C-3.99 63.18 4.8 76.72 17.22 87.42 C22.45 91.95 27.24 96.89 32.09 101.82 C36.09 105.86 40.18 109.7 44.49 113.41 C48.45 116.92 52.1 120.75 55.8 124.53 C58.9 127.67 62.03 130.67 65.39 133.51 C68.37 136.07 70.94 138.77 73.5 141.76 C81.45 151.57 81.45 151.57 92.63 156.2 C96.64 156.26 100.5 155.73 104.46 155.18 C107.74 155.11 109.72 156.4 112.44 158.14 C111.78 158.47 111.12 158.8 110.44 159.14 C109.76 158.83 109.08 158.52 108.38 158.2 C103.25 156.34 97.99 156.78 92.69 157.82 C88.71 158.21 87.68 157.38 84.44 155.14 C83.02 153.85 81.64 152.52 80.3 151.15 C79.54 150.38 78.78 149.61 78 148.82 C77.22 148.01 76.44 147.21 75.63 146.39 C70.7 141.35 65.75 136.46 60.4 131.87 C56.21 128.16 52.36 124.09 48.44 120.1 C45.21 116.83 41.96 113.66 38.48 110.67 C33.3 106.21 28.58 101.32 23.8 96.45 C20.48 93.09 17.15 89.84 13.54 86.79 C2.28 76.98 -5.46 65.24 -13.56 52.82 C-17.37 47.01 -21.2 41.2 -25.05 35.42 C-26.49 33.23 -27.9 31.03 -29.3 28.82 C-30.15 27.54 -31 26.25 -31.84 24.97 C-32.2 24.38 -32.56 23.8 -32.93 23.2 C-34.58 20.76 -35.68 19.39 -38.57 18.55 C-44.97 17.69 -50.81 18.09 -56.56 21.14 C-57.22 20.81 -57.88 20.48 -58.56 20.14 C-58.56 18.49 -58.56 16.84 -58.56 15.14 C-56.18 14.51 -56.18 14.51 -53.56 14.14 C-52.9 14.8 -52.24 15.46 -51.56 16.14 C-49.78 15.89 -49.78 15.89 -47.87 15.2 C-43.69 14 -40.78 14.25 -36.56 15.14 C-36.56 15.8 -36.56 16.46 -36.56 17.14 C-26.33 17.14 -16.1 17.14 -5.56 17.14 C-5.6 11.91 -5.6 11.91 -5.65 6.69 C-5.65 6.05 -5.65 5.4 -5.65 4.73 C-5.66 4.07 -5.66 3.4 -5.67 2.72 C-5.42 -0.77 -2.9 0.01 0 0 Z " fill="#1CC20A" transform="translate(131.55560302734375,24.864471435546875)"/><path d="M0 0 C0.94 0.01 0.94 0.01 1.9 0.01 C2.56 0.01 3.22 0.01 3.9 0 C6.08 -0.01 8.27 -0 10.46 0.01 C11.97 0 13.49 0 15.01 -0 C18.19 -0 21.37 0 24.55 0.01 C28.63 0.02 32.72 0.02 36.8 0 C39.93 -0 43.06 -0 46.2 0 C47.7 0 49.21 0 50.71 -0 C52.82 -0.01 54.92 0 57.02 0.01 C57.65 0.01 58.27 0 58.92 0 C63.23 0.04 63.23 0.04 65.46 2.27 C65.6 4.85 65.64 7.32 65.58 9.9 C65.57 10.6 65.56 11.31 65.56 12.04 C65.53 13.78 65.5 15.53 65.46 17.27 C68.76 17.27 72.06 17.27 75.46 17.27 C75.46 17.6 75.46 17.93 75.46 18.27 C72.16 18.27 68.86 18.27 65.46 18.27 C65.47 19.41 65.48 20.56 65.49 21.74 C65.5 23.23 65.51 24.72 65.52 26.21 C65.53 26.96 65.54 27.72 65.55 28.5 C65.55 29.21 65.55 29.93 65.56 30.67 C65.56 31.34 65.57 32 65.57 32.69 C65.46 34.27 65.46 34.27 64.46 35.27 C62.27 35.37 60.12 35.41 57.93 35.4 C57.25 35.4 56.57 35.4 55.87 35.41 C53.61 35.41 51.35 35.41 49.08 35.4 C47.52 35.4 45.95 35.41 44.39 35.41 C41.1 35.41 37.82 35.41 34.53 35.4 C30.31 35.4 26.09 35.4 21.87 35.41 C18.63 35.41 15.4 35.41 12.17 35.4 C10.61 35.4 9.05 35.41 7.5 35.41 C5.33 35.41 3.15 35.41 0.98 35.4 C0.33 35.4 -0.32 35.4 -0.99 35.41 C-5.43 35.39 -5.43 35.39 -6.54 34.27 C-6.66 31.92 -6.71 29.6 -6.71 27.24 C-6.71 26.54 -6.72 25.84 -6.72 25.11 C-6.73 23.62 -6.73 22.13 -6.73 20.63 C-6.73 18.35 -6.75 16.06 -6.77 13.77 C-6.77 12.33 -6.77 10.88 -6.77 9.43 C-6.78 8.74 -6.79 8.06 -6.79 7.35 C-6.77 1.69 -5.79 0.06 0 0 Z " fill="#1BC20A" transform="translate(337.5419921875,124.72894287109375)"/><path d="M0 0 C2.62 -0.44 2.62 -0.44 6 0 C11.12 4.48 14.72 10.87 18.39 16.52 C19.61 18.37 20.83 20.21 22.04 22.06 C23.93 24.93 25.81 27.81 27.69 30.69 C37.35 45.62 37.35 45.62 49 59 C49.68 59.7 50.36 60.41 51.06 61.13 C53.04 63.17 55.05 65.18 57.06 67.19 C57.72 67.85 58.37 68.51 59.05 69.19 C62.27 72.4 65.54 75.51 69 78.49 C73.93 82.75 78.44 87.39 83 92.04 C86.24 95.32 89.51 98.49 93 101.5 C97.93 105.75 102.44 110.39 107 115.04 C110.97 119.06 115.04 122.86 119.35 126.51 C121 128 121 128 122.81 130.5 C126.72 133.18 131.51 131.71 136 131 C135.75 129.93 135.5 128.85 135.25 127.75 C134.82 124.72 134.84 124.25 136.62 121.56 C139.46 119.7 140.68 119.34 144 120 C146.38 121.56 146.38 121.56 148 124 C148.11 127.22 147.45 130.11 146 133 C146.89 133.56 147.77 134.11 148.69 134.69 C151.02 136.15 152.17 137.24 153.81 139.54 C158.03 143.76 164.32 142.77 169.9 142.79 C171.2 142.81 172.5 142.83 173.8 142.86 C177.19 142.92 180.59 142.95 183.99 142.98 C187.15 143.01 190.32 143.07 193.48 143.12 C198.53 143.21 203.58 143.28 208.62 143.34 C235.63 143.66 262.63 144.23 289.62 145.06 C290.37 145.09 291.12 145.11 291.89 145.13 C300.93 145.41 309.96 145.7 319 146 C318.91 139.93 318.8 133.86 318.68 127.79 C318.64 125.73 318.61 123.66 318.58 121.6 C318.53 118.63 318.47 115.67 318.41 112.7 C318.4 111.31 318.4 111.31 318.38 109.9 C318.35 108.6 318.35 108.6 318.32 107.29 C318.3 106.15 318.3 106.15 318.28 104.99 C317.97 102.82 317.36 101.7 316 100 C317.32 100.66 318.64 101.32 320 102 C320.01 102.86 320.01 102.86 320.02 103.73 C320.11 109.67 320.21 115.61 320.32 121.54 C320.36 123.76 320.39 125.98 320.42 128.2 C320.47 131.38 320.53 134.56 320.59 137.74 C320.6 139.24 320.6 139.24 320.62 140.76 C320.65 142.14 320.65 142.14 320.68 143.55 C320.7 144.77 320.7 144.77 320.72 146.01 C320.83 148.23 320.83 148.23 323 150 C322.62 152.62 322.62 152.62 322 155 C321.01 155.33 320.02 155.66 319 156 C318.57 155.35 318.14 154.69 317.69 154.02 C313.43 150.82 309.11 151.53 303.93 151.64 C302.31 151.66 302.31 151.66 300.65 151.67 C297.79 151.69 294.93 151.73 292.07 151.78 C288.03 151.85 283.98 151.89 279.94 151.92 C277.79 151.95 275.63 151.97 273.48 152.01 C272.51 152.02 271.55 152.04 270.55 152.05 C269.69 152.06 268.84 152.08 267.95 152.09 C266 152 266 152 265 151 C264.67 151.66 264.34 152.32 264 153 C260.12 152.12 260.12 152.12 259 151 C258.34 151.66 257.68 152.32 257 153 C254.63 153.09 252.36 153.09 250 153 C249.2 153 248.39 153 247.56 153 C247.05 153 246.53 153 246 153 C246 151.68 246 150.36 246 149 C244.68 149 243.36 149 242 149 C242 149.99 242 150.98 242 152 C242.66 152.33 243.32 152.66 244 153 C240.04 153 236.08 153 232 153 C231.67 152.01 231.34 151.02 231 150 C230.67 150.33 230.34 150.66 230 151 C228.1 151.07 226.2 151.07 224.29 151.04 C223.7 151.03 223.1 151.02 222.49 151.01 C220.51 150.99 218.53 150.95 216.54 150.91 C215.16 150.89 213.78 150.87 212.4 150.85 C209.49 150.8 206.58 150.75 203.67 150.7 C199.97 150.64 196.27 150.58 192.58 150.53 C189.71 150.48 186.85 150.43 183.99 150.39 C182.63 150.36 181.27 150.34 179.91 150.32 C173.38 150.22 166.86 150.06 160.35 149.69 C159.43 149.64 158.5 149.59 157.55 149.54 C152.92 148.56 150.08 145.4 147 142 C144.87 139.68 144.1 139.03 141 138 C139.25 138.25 139.25 138.25 137.39 138.75 C131.55 139.77 125.67 140.41 120.46 136.99 C113.56 131.6 107.74 124.87 101.95 118.34 C98.79 114.8 95.49 111.64 91.85 108.59 C87.88 105.18 84.3 101.34 80.64 97.61 C77.54 94.47 74.41 91.44 71.06 88.56 C65.88 84.09 61.15 79.2 56.36 74.32 C53.02 70.94 49.68 67.69 46.03 64.66 C36.95 56.8 30.46 46.53 23.94 36.56 C23.18 35.41 22.42 34.26 21.66 33.12 C20.17 30.85 18.68 28.59 17.19 26.32 C15.04 23.05 12.87 19.8 10.69 16.54 C8.08 12.64 5.51 8.72 3 4.75 C2.42 3.84 1.84 2.92 1.25 1.98 C0.84 1.33 0.42 0.67 0 0 Z " fill="#232A2B" transform="translate(97,43)"/><path d="M0 0 C1.05 -0.11 1.05 -0.11 2.12 -0.21 C4.49 -0.3 6.12 -0.12 8.38 0.62 C10.09 2.35 10.09 2.35 11.73 4.58 C12.34 5.4 12.94 6.22 13.56 7.06 C16.39 11.07 19.12 15.13 21.8 19.23 C23 21.06 24.2 22.89 25.41 24.71 C27.26 27.54 29.12 30.36 30.97 33.19 C40.39 47.6 49.86 60.98 62.69 72.56 C64.15 73.91 65.62 75.26 67.08 76.62 C67.8 77.28 68.52 77.95 69.26 78.63 C73.12 82.27 76.85 86.05 80.56 89.85 C83.37 92.7 86.24 95.41 89.28 98.03 C94.24 102.32 98.79 106.98 103.38 111.66 C106.63 114.96 109.91 118.14 113.43 121.16 C118.03 125.13 122.19 129.48 126.35 133.9 C130.55 138.32 130.55 138.32 136.38 139.62 C138.04 139.3 139.71 138.97 141.38 138.62 C147.99 137.94 152.84 138.85 158.38 142.62 C159.47 143.68 160.55 144.74 161.62 145.81 C164.62 148.48 166.7 149.04 170.68 149.28 C171.75 149.35 172.82 149.41 173.92 149.48 C180.02 149.73 186.12 149.86 192.22 149.94 C193.61 149.96 195 149.98 196.39 150 C200 150.06 203.61 150.11 207.23 150.16 C210.92 150.21 214.61 150.26 218.3 150.32 C223.68 150.4 229.06 150.48 234.44 150.55 C236.06 150.57 236.06 150.57 237.7 150.59 C239.59 150.62 241.48 150.62 243.38 150.62 C243.38 151.28 243.38 151.94 243.38 152.62 C246.35 152.62 249.31 152.62 252.38 152.62 C252.38 151.63 252.38 150.65 252.38 149.62 C253.69 149.62 255.01 149.62 256.38 149.62 C256.38 150.94 256.38 152.26 256.38 153.62 C257.04 153.62 257.69 153.62 258.38 153.62 C258.7 152.31 259.04 150.99 259.38 149.62 C259.7 150.62 260.04 151.6 260.38 152.62 C265.2 153.12 265.2 153.12 269.31 151.12 C269.66 150.63 270.01 150.13 270.38 149.62 C271.69 150.94 273.01 152.26 274.38 153.62 C274.7 152.63 275.04 151.65 275.38 150.62 C275.7 151.28 276.04 151.94 276.38 152.62 C292.88 152.29 309.38 151.97 326.38 151.62 C326.7 152.62 327.04 153.6 327.38 154.62 C329.02 154.96 330.68 155.28 332.38 155.62 C332.38 156.62 332.38 157.6 332.38 158.62 C320.92 158.52 309.47 158.4 298.02 158.29 C292.7 158.23 287.38 158.18 282.06 158.13 C240.64 157.74 240.64 157.74 222.77 156.86 C211.98 156.35 201.17 156.25 190.38 156.06 C188.03 156.02 185.68 155.98 183.33 155.93 C177.68 155.83 172.03 155.72 166.38 155.62 C166.41 156.74 166.44 157.86 166.48 159 C166.59 162.38 166.59 162.38 164.69 164.56 C161.88 165.85 160.42 166.23 157.38 165.62 C155 163.44 155 163.44 153.38 160.62 C153.38 157.13 154.11 155.93 156.44 153.31 C157.08 152.76 157.72 152.2 158.38 151.62 C157.65 150.84 156.93 150.06 156.19 149.25 C155.78 148.81 155.38 148.37 154.96 147.91 C150.4 144.2 146.08 144.47 140.56 145 C139.87 145.06 139.18 145.11 138.46 145.17 C136.77 145.31 135.07 145.47 133.38 145.62 C133.4 146.74 133.42 147.86 133.44 149 C133.49 151.41 133.49 152.41 132.31 154.56 C129.36 156.18 126.65 156.31 123.38 155.62 C121.38 154 121.38 154 120.38 151.62 C120.38 148.62 120.38 148.62 121.38 145.62 C123.94 143.25 123.94 143.25 126.38 141.62 C125.21 140.43 124.04 139.25 122.88 138.06 C121.9 137.07 121.9 137.07 120.91 136.06 C118.88 134.06 116.75 132.2 114.59 130.35 C109.6 126.01 105.01 121.31 100.38 116.59 C97.15 113.32 93.89 110.15 90.41 107.16 C85.23 102.7 80.51 97.81 75.73 92.94 C71.77 88.93 67.72 85.13 63.45 81.45 C52.55 71.84 42.09 61.55 34.36 49.19 C27.98 39.08 21.09 29.27 14.38 19.38 C13.4 17.94 12.42 16.5 11.45 15.06 C9.09 11.58 6.73 8.1 4.38 4.62 C-2.06 5.12 -2.06 5.12 -8.62 5.62 C-8.62 -0.94 -5.62 0.25 0 0 Z " fill="#1C1C25" transform="translate(86.625,42.375)"/><path d="M0 0 C1.59 -0.06 3.18 -0.12 4.81 -0.19 C6.15 -0.24 6.15 -0.24 7.52 -0.29 C10 0 10 0 11.63 1.25 C13.34 3.43 13.36 4.54 13.34 7.29 C13.34 8.15 13.34 9.01 13.34 9.9 C13.32 10.82 13.31 11.75 13.29 12.7 C13.29 13.65 13.28 14.6 13.28 15.58 C13.26 18.62 13.23 21.65 13.19 24.69 C13.17 26.75 13.16 28.8 13.15 30.86 C13.11 35.91 13.06 40.95 13 46 C-8.06 46.14 -29.09 45.87 -50.14 45.13 C-53.62 45.01 -57.1 44.91 -60.58 44.82 C-62.41 44.75 -64.24 44.69 -66.06 44.62 C-66.87 44.61 -67.67 44.59 -68.5 44.57 C-70.66 44.48 -70.66 44.48 -74 44 C-75.21 42.47 -75.21 42.47 -76 41 C-74.68 40.34 -73.36 39.68 -72 39 C-72 38.34 -72 37.68 -72 37 C-70.68 36.34 -69.36 35.68 -68 35 C-68 34.34 -68 33.68 -68 33 C-66.68 32.34 -65.36 31.68 -64 31 C-64 30.34 -64 29.68 -64 29 C-63.34 28.34 -62.68 27.68 -62 27 C-62.66 26.34 -63.32 25.68 -64 25 C-62.02 24.67 -60.04 24.34 -58 24 C-58 23.01 -58 22.02 -58 21 C-57.34 20.34 -56.68 19.68 -56 19 C-60.95 18.67 -65.9 18.34 -71 18 C-71 17.67 -71 17.34 -71 17 C-36.35 16.5 -36.35 16.5 -1 16 C-0.67 10.72 -0.34 5.44 0 0 Z " fill="#EFECFD" transform="translate(403,143)"/><path d="M0 0 C1.88 1.25 1.88 1.25 3 3 C3.44 5.44 3.44 5.44 3 8 C1.31 10.31 1.31 10.31 -1 12 C-3.75 12.25 -3.75 12.25 -6 12 C-5.67 12.66 -5.34 13.32 -5 14 C-4.16 23.6 -5.06 30.73 -10.92 38.56 C-19.07 48.26 -27.68 52.64 -40 55 C-40.77 55.16 -41.55 55.32 -42.35 55.48 C-49.78 56.94 -57.2 57.65 -64.75 58.12 C-65.4 58.17 -66.05 58.21 -66.71 58.25 C-89.37 59.69 -112 59.04 -134.68 58.5 C-156.74 57.97 -178.81 57.7 -200.88 57.44 C-202.25 57.42 -202.25 57.42 -203.66 57.4 C-215.11 57.27 -226.55 57.13 -238 57 C-238 56.01 -238 55.02 -238 54 C-237.34 54 -236.68 54 -236 54 C-236 53.34 -236 52.68 -236 52 C-224.06 51.97 -212.13 51.95 -200.19 51.94 C-199.28 51.94 -198.38 51.94 -197.45 51.93 C-167.42 51.91 -137.4 52.11 -107.38 52.5 C-106.45 52.51 -105.53 52.52 -104.58 52.54 C-93.39 52.68 -82.19 52.84 -71 53 C-71 52.34 -71 51.68 -71 51 C-69.83 50.9 -69.83 50.9 -68.64 50.79 C-65.67 50.52 -62.71 50.23 -59.75 49.94 C-58.48 49.81 -57.21 49.7 -55.94 49.58 C-41.85 48.32 -26.09 45.71 -16.5 34.25 C-13.15 29.25 -11.37 23.75 -12.38 17.73 C-13.84 13.22 -15.77 10.35 -20 8 C-21.35 7.81 -22.7 7.66 -24.06 7.56 C-27.5 7.3 -27.84 7.15 -30.5 4.56 C-32 2 -32 2 -32 0 C-24.37 -0.46 -18.46 -0.4 -12 4 C-11.67 4.33 -11.34 4.66 -11 5 C-10.55 4.2 -10.09 3.39 -9.62 2.56 C-6.86 -1.79 -4.74 -1.16 0 0 Z " fill="#232628" transform="translate(449,189)"/><path d="M0 0 C12.41 2.67 12.41 2.67 16 8 C18 13.07 18.53 17.8 16.88 23.03 C12.78 32.22 5.21 37.29 -3.75 41.25 C-15.89 45.73 -29.22 45.53 -42 46 C-42 46.66 -42 47.32 -42 48 C-54.15 48.03 -66.29 48.05 -78.44 48.06 C-79.35 48.06 -80.27 48.06 -81.21 48.07 C-111.04 48.09 -140.86 47.9 -170.69 47.5 C-171.59 47.49 -172.48 47.48 -173.41 47.46 C-184.27 47.32 -195.14 47.16 -206 47 C-206.27 46.2 -206.54 45.39 -206.81 44.56 C-207.2 43.72 -207.6 42.87 -208 42 C-208.99 41.67 -209.98 41.34 -211 41 C-209.7 41 -209.7 41 -208.37 40.99 C-187.16 40.93 -165.94 40.86 -144.73 40.76 C-134.47 40.72 -124.21 40.68 -113.95 40.65 C-104.99 40.63 -96.04 40.6 -87.08 40.55 C-82.35 40.53 -77.62 40.51 -72.89 40.5 C-47.77 40.48 -47.77 40.48 -22.72 38.78 C-21.69 38.68 -20.66 38.58 -19.59 38.48 C-9.47 37.26 1.11 33.9 8 26 C11.08 21.83 11.46 18.02 11 13 C10.39 10.81 10.39 10.81 9 9 C6.63 8.16 6.63 8.16 3.94 7.88 C1.21 7.49 1.21 7.49 -1 7 C-1.33 6.34 -1.66 5.68 -2 5 C-1.06 2.38 -1.06 2.38 0 0 Z " fill="#3B181F" transform="translate(420,194)"/><path d="M0 0 C1.26 -0 1.26 -0 2.54 -0.01 C3.44 -0.01 4.35 -0.01 5.28 -0 C6.21 -0 7.14 -0.01 8.09 -0.01 C10.05 -0.01 12.01 -0.01 13.97 -0 C16.99 0 20 -0 23.01 -0.01 C24.92 -0.01 26.82 -0.01 28.72 -0 C29.63 -0.01 30.53 -0.01 31.47 -0.01 C32.72 -0 32.72 -0 34 0 C35.1 0 35.1 0 36.23 0 C37.93 0.13 37.93 0.13 38.93 1.13 C39.01 2.98 39.02 4.84 39 6.69 C38.99 7.7 38.98 8.72 38.97 9.76 C38.96 10.54 38.95 11.32 38.93 12.13 C39.92 12.46 40.91 12.79 41.93 13.13 C41.27 13.46 40.61 13.79 39.93 14.13 C39.46 16.95 39.46 16.95 39.31 20.19 C39.23 21.3 39.16 22.4 39.08 23.54 C39.03 24.39 38.98 25.25 38.93 26.13 C32.69 26.15 26.44 26.17 20.19 26.18 C18.06 26.19 15.93 26.2 13.81 26.2 C10.76 26.22 7.71 26.22 4.66 26.23 C3.22 26.23 3.22 26.23 1.76 26.24 C0.87 26.24 -0.01 26.24 -0.91 26.24 C-1.69 26.25 -2.47 26.25 -3.28 26.25 C-5.07 26.13 -5.07 26.13 -6.07 25.13 C-6.15 23.35 -6.17 21.56 -6.16 19.78 C-6.16 18.7 -6.16 17.62 -6.15 16.51 C-6.15 15.37 -6.14 14.24 -6.13 13.07 C-6.12 11.93 -6.12 10.79 -6.12 9.61 C-6.1 6.78 -6.09 3.96 -6.07 1.13 C-3.79 -0.01 -2.53 0 0 0 Z " fill="#FE05FE" transform="translate(166.066650390625,273.87060546875)"/><path d="M0 0 C6.93 0 13.86 0 21 0 C21 0.99 21 1.98 21 3 C21.5 4.98 21.5 4.98 22 7 C25.3 7.33 28.6 7.66 32 8 C33 12 33 12 32.06 13.75 C31.54 14.37 31.54 14.37 31 15 C30.26 14.84 29.51 14.67 28.75 14.5 C26.41 14.07 24.37 13.91 22 14 C22 12.68 22 11.36 22 10 C21.34 10 20.68 10 20 10 C20.5 13.47 20.5 13.47 21 17 C19.68 17 18.36 17 17 17 C17 17.66 17 18.32 17 19 C18.32 19.33 19.64 19.66 21 20 C21 20.99 21 21.98 21 23 C17.7 23 14.4 23 11 23 C10.67 22.34 10.34 21.68 10 21 C9.67 21.66 9.34 22.32 9 23 C3.67 23 -1.67 23 -7 23 C-7 21.68 -7 20.36 -7 19 C-6.34 18.67 -5.68 18.34 -5 18 C-8.91 14.55 -15.06 14.85 -20 15 C-20 12.69 -20 10.38 -20 8 C-13.3 6.97 -6.77 6.9 0 7 C0 4.69 0 2.38 0 0 Z " fill="#3CCA2E" transform="translate(151,31)"/><path d="M0 0 C26.4 0 52.8 0 80 0 C79.67 0.99 79.34 1.98 79 3 C78.34 3 77.68 3 77 3 C77 3.66 77 4.32 77 5 C81.95 5 86.9 5 92 5 C91.67 6.32 91.34 7.64 91 9 C87.53 9.02 84.06 9.04 80.59 9.05 C78.84 9.06 77.08 9.08 75.33 9.09 C74.21 9.09 73.1 9.09 71.96 9.1 C70.94 9.1 69.91 9.11 68.86 9.11 C66 9 66 9 63.71 8.5 C60.69 7.94 57.9 7.88 54.83 7.89 C54.24 7.89 53.64 7.89 53.03 7.89 C51.07 7.89 49.12 7.89 47.17 7.9 C45.81 7.9 44.45 7.91 43.09 7.91 C39.52 7.91 35.95 7.92 32.38 7.93 C28.73 7.94 25.09 7.95 21.44 7.95 C14.29 7.96 7.15 7.98 0 8 C0 5.36 0 2.72 0 0 Z " fill="#E8EAED" transform="translate(211,246)"/><path d="M0 0 C0.33 0.33 0.66 0.66 1 1 C3 1.04 5 1.04 7 1 C6.81 1.64 6.63 2.28 6.44 2.94 C6.29 3.62 6.15 4.3 6 5 C6.33 5.33 6.66 5.66 7 6 C7.33 4.35 7.66 2.7 8 1 C9.98 1 11.96 1 14 1 C14.69 3.31 14.69 3.31 15 6 C13.56 7.56 13.56 7.56 12 9 C11.75 11.13 11.75 11.13 12 13 C10.68 13 9.36 13 8 13 C8 13.99 8 14.98 8 16 C6.35 16 4.7 16 3 16 C3 15.34 3 14.68 3 14 C1.35 14.33 -0.3 14.66 -2 15 C-1.34 12.69 -0.68 10.38 0 8 C-0.99 8 -1.98 8 -3 8 C-3.33 10.31 -3.66 12.62 -4 15 C-5.98 15.33 -7.96 15.66 -10 16 C-10 14.35 -10 12.7 -10 11 C-10.66 11 -11.32 11 -12 11 C-12 12.65 -12 14.3 -12 16 C-12.99 16 -13.98 16 -15 16 C-15 14.35 -15 12.7 -15 11 C-15.66 11 -16.32 11 -17 11 C-17 10.01 -17 9.02 -17 8 C-17.66 8 -18.32 8 -19 8 C-19 7.34 -19 6.68 -19 6 C-18.34 5.67 -17.68 5.34 -17 5 C-17.66 4.67 -18.32 4.34 -19 4 C-19 3.01 -19 2.02 -19 1 C-17.35 1 -15.7 1 -14 1 C-14 3 -14 5 -14 7 C-13.34 7.33 -12.68 7.66 -12 8 C-12 5.69 -12 3.38 -12 1 C-7.94 0.23 -4.13 -0.19 0 0 Z " fill="#FB4EFD" transform="translate(185,280)"/><path d="M0 0 C3.82 1.49 5.33 3.52 7.54 6.92 C7.86 7.41 8.18 7.9 8.52 8.4 C9.56 9.99 10.59 11.59 11.62 13.19 C12.35 14.29 13.07 15.39 13.79 16.49 C15.22 18.67 16.64 20.85 18.06 23.03 C33.79 47.9 33.79 47.9 53.77 69.29 C59.01 73.81 63.8 78.75 68.64 83.68 C72.65 87.73 76.74 91.56 81.05 95.27 C85.01 98.78 88.65 102.62 92.36 106.39 C95.45 109.53 98.58 112.53 101.95 115.38 C104.93 117.94 107.5 120.64 110.05 123.62 C118 133.43 118 133.43 129.18 138.06 C133.19 138.13 137.05 137.6 141.01 137.04 C144.29 136.97 146.27 138.27 149 140 C148.34 140.33 147.68 140.66 147 141 C146.32 140.69 145.64 140.38 144.94 140.06 C139.81 138.21 134.55 138.65 129.25 139.69 C125.26 140.07 124.24 139.24 121 137 C119.57 135.72 118.19 134.39 116.86 133.02 C116.1 132.24 115.34 131.47 114.55 130.68 C113.77 129.88 112.99 129.08 112.19 128.25 C107.26 123.21 102.31 118.33 96.96 113.73 C92.77 110.02 88.92 105.95 85 101.96 C81.77 98.69 78.51 95.53 75.03 92.53 C69.86 88.07 65.14 83.19 60.36 78.32 C57.03 74.96 53.71 71.7 50.09 68.66 C38.84 58.85 31.09 47.11 23 34.69 C20.77 31.29 18.54 27.9 16.31 24.51 C15.78 23.7 15.24 22.88 14.69 22.05 C10.9 16.28 6.97 10.63 2.89 5.06 C0 1.09 0 1.09 0 0 Z " fill="#12ACC3" transform="translate(95,43)"/><path d="M0 0 C2 -0.04 4 -0.04 6 0 C6.33 0.33 6.66 0.66 7 1 C8.64 1.03 8.64 1.03 10.56 0.84 C11.63 0.76 11.63 0.76 12.73 0.68 C13.48 0.62 14.23 0.56 15 0.5 C16.48 0.38 17.96 0.27 19.44 0.16 C20.1 0.1 20.75 0.05 21.43 -0.01 C23 0 23 0 24 1 C26 1.04 28 1.04 30 1 C30.62 2.81 30.62 2.81 31 5 C30.06 6.75 30.06 6.75 29 8 C27.89 7.75 27.89 7.75 26.75 7.5 C24.41 7.07 22.37 6.91 20 7 C20 5.68 20 4.36 20 3 C19.34 3 18.68 3 18 3 C18.33 5.31 18.66 7.62 19 10 C17.68 10 16.36 10 15 10 C15 10.66 15 11.32 15 12 C16.32 12.33 17.64 12.66 19 13 C19 13.99 19 14.98 19 16 C15.7 16 12.4 16 9 16 C8.67 15.34 8.34 14.68 8 14 C7.67 14.66 7.34 15.32 7 16 C6.34 16 5.68 16 5 16 C5 13.69 5 11.38 5 9 C7.64 8.67 10.28 8.34 13 8 C11.94 6.72 11.94 6.72 9.5 6.88 C7.06 6.72 7.06 6.72 6 8 C4 8.04 2 8.04 0 8 C0 5.36 0 2.72 0 0 Z " fill="#3ECA30" transform="translate(153,38)"/><path d="M0 0 C6.6 0 13.2 0 20 0 C20 1.32 20 2.64 20 4 C18.68 4 17.36 4 16 4 C16 4.66 16 5.32 16 6 C17.32 6.33 18.64 6.66 20 7 C19.01 7 18.02 7 17 7 C17.19 8.13 17.37 9.27 17.56 10.44 C17.88 12.37 17.88 12.37 18 14 C17 15 17 15 14.06 15.1 C12.85 15.09 11.64 15.08 10.44 15.06 C9.82 15.06 9.21 15.05 8.57 15.05 C7.05 15.04 5.52 15.02 4 15 C4.66 13.68 5.32 12.36 6 11 C5.34 10.67 4.68 10.34 4 10 C4 9.34 4 8.68 4 8 C2.68 7.67 1.36 7.34 0 7 C0 4.69 0 2.38 0 0 Z " fill="#1EC20D" transform="translate(344,139)"/><path d="M0 0 C1.89 2.44 2.42 4.46 2.88 7.49 C3.03 8.4 3.17 9.31 3.32 10.25 C3.47 11.23 3.62 12.22 3.77 13.23 C4.1 15.34 4.44 17.44 4.78 19.54 C5.29 22.85 5.81 26.15 6.31 29.45 C9.08 47.32 11.83 63.75 22 79 C22.47 79.75 22.94 80.5 23.43 81.27 C30.34 91.48 41.98 96.41 53 101 C48.14 102.62 44.03 99.98 39.62 97.84 C24.81 90.13 15.57 76.29 10.24 60.8 C8.33 54.57 7.03 48.37 5.96 41.95 C5.78 40.94 5.61 39.92 5.43 38.88 C5.07 36.75 4.71 34.62 4.36 32.49 C3.81 29.24 3.26 25.99 2.7 22.75 C2.35 20.67 1.99 18.59 1.64 16.52 C1.48 15.55 1.31 14.58 1.14 13.59 C0.38 9 -0.2 4.66 0 0 Z " fill="#FB0000" transform="translate(68,138)"/><path d="M0 0 C0 0.66 0 1.32 0 2 C-0.66 2 -1.32 2 -2 2 C-1.94 2.89 -1.88 3.77 -1.81 4.69 C-2.02 8.34 -2.92 10.05 -5 13 C-4.34 13.33 -3.68 13.66 -3 14 C-3 14.66 -3 15.32 -3 16 C-4.65 16 -6.3 16 -8 16 C-8 14.68 -8 13.36 -8 12 C-7.34 11.67 -6.68 11.34 -6 11 C-9.91 7.55 -16.06 7.85 -21 8 C-21 5.69 -21 3.38 -21 1 C-13.98 -0.1 -7.09 -0.1 0 0 Z " fill="#3CCA2E" transform="translate(152,38)"/><path d="M0 0 C1.65 0.02 1.65 0.02 3.34 0.04 C5 0.05 5 0.05 6.69 0.06 C7.54 0.07 8.4 0.09 9.28 0.1 C9.28 0.76 9.28 1.42 9.28 2.1 C8.62 2.1 7.96 2.1 7.28 2.1 C7.19 5.32 7.47 7.99 8.28 11.1 C8.3 12.43 8.3 13.76 8.28 15.1 C3.61 15.1 -1.06 15.1 -5.72 15.1 C-5.72 13.12 -5.72 11.14 -5.72 9.1 C-4.4 9.1 -3.08 9.1 -1.72 9.1 C-1.39 10.09 -1.06 11.08 -0.72 12.1 C-0.39 10.45 -0.06 8.8 0.28 7.1 C-1.04 6.77 -2.36 6.44 -3.72 6.1 C-3.77 4.43 -3.76 2.76 -3.72 1.1 C-2.72 0.1 -2.72 0.1 0 0 Z " fill="#34C825" transform="translate(368.72265625,138.90234375)"/><path d="M0 0 C6.6 0 13.2 0 20 0 C19.67 2.64 19.34 5.28 19 8 C18.12 7.99 17.24 7.98 16.33 7.96 C15.16 7.96 13.99 7.95 12.81 7.94 C11.66 7.93 10.52 7.91 9.33 7.9 C6.41 7.99 3.84 8.32 1 9 C1.02 8.07 1.04 7.14 1.06 6.19 C1.16 2.98 1.16 2.98 0 0 Z " fill="#DDEADF" transform="translate(190,246)"/><path d="M0 0 C2.47 0.5 2.47 0.5 5 1 C5.06 1.62 5.12 2.24 5.19 2.88 C5.46 3.58 5.72 4.28 6 5 C7.66 5.69 9.33 6.35 11 7 C12.91 8.54 14.37 10.14 16 12 C16 12.66 16 13.32 16 14 C17.32 14.66 18.64 15.32 20 16 C20 16.66 20 17.32 20 18 C20.99 18.33 21.98 18.66 23 19 C24.89 20.53 26.36 22.18 28 24 C28 24.66 28 25.32 28 26 C28.99 26.33 29.98 26.66 31 27 C32.44 28.31 32.44 28.31 34 30 C34.72 30.72 35.44 31.44 36.19 32.19 C36.79 32.79 37.38 33.38 38 34 C37.34 34.66 36.68 35.32 36 36 C31.24 33.62 31.24 33.62 30 30.44 C29.67 29.63 29.34 28.83 29 28 C27.89 27.57 27.89 27.57 26.75 27.12 C23.23 25.69 21.74 23.6 19.43 20.66 C18.09 18.95 18.09 18.95 16.32 17.91 C15.88 17.61 15.45 17.31 15 17 C15 16.34 15 15.68 15 15 C14.24 14.77 13.47 14.55 12.69 14.31 C9.38 12.7 8.85 11.11 7 8 C5.52 6.9 5.52 6.9 3.88 5.94 C1 4 1 4 0.12 1.75 C0.08 1.17 0.04 0.59 0 0 Z " fill="#BAE7B8" transform="translate(155,105)"/><path d="M0 0 C2 1.5 3.36 3.08 5 5 C4.69 5.6 4.38 6.2 4.06 6.81 C2.9 9.09 2.9 9.09 2 12 C-4.23 13.32 -4.23 13.32 -7.44 12 C-9.43 9.45 -9.52 7.82 -9.32 4.65 C-9 3 -9 3 -7.88 1.06 C-5.01 -0.56 -3.23 -0.52 0 0 Z " fill="#2F3039" transform="translate(29,45)"/><path d="M0 0 C1.65 0 3.3 0 5 0 C5 2 5 4 5 6 C5.66 6.33 6.32 6.66 7 7 C7 4.69 7 2.38 7 0 C8.65 0 10.3 0 12 0 C12 1.32 12 2.64 12 4 C10.68 4 9.36 4 8 4 C8 4.99 8 5.98 8 7 C10.64 7.33 13.28 7.66 16 8 C15.67 9.98 15.34 11.96 15 14 C13.02 14.33 11.04 14.66 9 15 C9 13.35 9 11.7 9 10 C8.34 10 7.68 10 7 10 C7 11.65 7 13.3 7 15 C6.01 15 5.02 15 4 15 C4 13.35 4 11.7 4 10 C3.34 10 2.68 10 2 10 C2 9.01 2 8.02 2 7 C1.34 7 0.68 7 0 7 C0 6.34 0 5.68 0 5 C0.66 4.67 1.32 4.34 2 4 C1.34 3.67 0.68 3.34 0 3 C0 2.01 0 1.02 0 0 Z " fill="#FB81FE" transform="translate(166,281)"/><path d="M0 0 C0.33 0 0.66 0 1 0 C1.33 2.97 1.66 5.94 2 9 C8.93 9.33 15.86 9.66 23 10 C23 10.66 23 11.32 23 12 C21.37 13.38 19.71 14.72 18 16 C18 15.34 18 14.68 18 14 C13.71 14 9.42 14 5 14 C5 14.66 5 15.32 5 16 C2.29 17.35 -0.01 17.07 -3 17 C-2.69 16.05 -2.38 15.1 -2.06 14.12 C-0.72 9.49 -0.37 4.79 0 0 Z " fill="#E8E7F7" transform="translate(444,206)"/><path d="M0 0 C18.15 0 36.3 0 55 0 C55 0.99 55 1.98 55 3 C48.42 3.07 41.84 3.12 35.26 3.16 C32.2 3.17 29.15 3.19 26.09 3.23 C22.58 3.27 19.06 3.28 15.55 3.29 C14.45 3.31 13.36 3.32 12.23 3.34 C11.21 3.34 10.19 3.34 9.14 3.34 C8.24 3.35 7.34 3.35 6.42 3.36 C4 3 4 3 0 0 Z " fill="#F1EEFF" transform="translate(443,96)"/><path d="M0 0 C1.67 0.31 3.34 0.64 5 1 C8.59 1 12.06 0.55 15.62 0.12 C18 0 18 0 21 1 C21 1.66 21 2.32 21 3 C31.23 3 41.46 3 52 3 C52 3.33 52 3.66 52 4 C38.89 4.7 25.85 5.14 12.72 4.88 C11.29 4.86 11.29 4.86 9.83 4.84 C8.99 4.82 8.16 4.81 7.29 4.79 C4.77 5.02 3.23 5.87 1 7 C0.34 6.67 -0.32 6.34 -1 6 C-1.04 4.33 -1.04 2.67 -1 1 C-0.67 0.67 -0.34 0.34 0 0 Z " fill="#1DB33F" transform="translate(74,39)"/><path d="M0 0 C-1.52 6.19 -1.52 6.19 -3.19 9 C-5.74 10.41 -7.61 10.07 -10.41 9.5 C-12 9 -12 9 -13.44 7.81 C-14.25 5.18 -14.12 2.73 -14 0 C-12.23 -0.2 -10.46 -0.38 -8.69 -0.56 C-7.7 -0.67 -6.72 -0.77 -5.7 -0.88 C-3 -1 -3 -1 0 0 Z " fill="#303139" transform="translate(103,238)"/><path d="M0 0 C0.9 0.34 0.9 0.34 1.81 0.69 C-0.17 1.68 -0.17 1.68 -2.19 2.69 C-1.07 2.87 0.04 3.06 1.19 3.25 C1.81 3.35 2.44 3.46 3.09 3.57 C4.93 3.84 4.93 3.84 6.81 2.69 C7.17 9.03 7.17 9.03 5.75 11.62 C2.8 13.24 0.09 13.38 -3.19 12.69 C-5.19 11.06 -5.19 11.06 -6.19 8.69 C-6.06 5.46 -5.69 3.43 -3.88 0.75 C-2.19 -0.31 -2.19 -0.31 0 0 Z " fill="#262730" transform="translate(213.1875,185.3125)"/><path d="M0 0 C0.66 0.33 1.32 0.66 2 1 C2 1.99 2 2.98 2 4 C2.78 3.96 3.57 3.92 4.38 3.88 C7 4 7 4 9 6 C8.8 8.64 8.61 10.36 6.75 12.31 C4.23 13.3 2.68 13.46 0 13 C-2.38 10.81 -2.38 10.81 -4 8 C-3.93 4.9 -3.46 3.54 -1.44 1.19 C-0.96 0.8 -0.49 0.4 0 0 Z " fill="#262730" transform="translate(244,195)"/><path d="M0 0 C0.66 0 1.32 0 2 0 C2.33 1.32 2.66 2.64 3 4 C5.97 4.49 5.97 4.49 9 5 C9.33 4.34 9.66 3.68 10 3 C11.98 3 13.96 3 16 3 C16 3.66 16 4.32 16 5 C14.68 5 13.36 5 12 5 C11.67 5.66 11.34 6.32 11 7 C10.01 6.67 9.02 6.34 8 6 C8 8.31 8 10.62 8 13 C3.08 13.2 -0.42 12.79 -5 11 C-3.68 9.35 -2.36 7.7 -1 6 C-1.66 5.67 -2.32 5.34 -3 5 C-2.01 5 -1.02 5 0 5 C0 3.35 0 1.7 0 0 Z " fill="#2CC61C" transform="translate(150,41)"/><path d="M0 0 C2.12 1.06 2.9 1.93 4.38 3.75 C4.82 4.29 5.26 4.84 5.71 5.39 C6.79 6.74 7.87 8.09 8.94 9.44 C12.2 13.49 15.5 17.5 19.19 21.19 C21.01 23.01 22.51 24.91 24 27 C23.01 27.66 22.02 28.32 21 29 C20.69 28.61 20.37 28.23 20.05 27.83 C16.83 23.92 13.43 20.35 9.75 16.88 C8 15 8 15 8 13 C7.01 12.67 6.02 12.34 5 12 C3.36 9.79 3.36 9.79 1.75 7.06 C1.21 6.17 0.67 5.27 0.11 4.35 C-0.26 3.57 -0.62 2.8 -1 2 C-0.67 1.34 -0.34 0.68 0 0 Z " fill="#B6E6B3" transform="translate(132,77)"/><path d="M0 0 C2.97 0.99 5.94 1.98 9 3 C8.98 3.78 8.96 4.57 8.94 5.38 C8.81 7.98 8.81 7.98 10 10 C7.98 11.8 6.75 12.03 4 12.38 C1 12 1 12 -0.88 10.38 C-2.3 7.37 -2.36 5.28 -2 2 C-1.34 1.34 -0.68 0.68 0 0 Z " fill="#21222A" transform="translate(43,111)"/><path d="M0 0 C1.98 0.99 1.98 0.99 4 2 C4.01 2.57 4.02 3.14 4.02 3.73 C4.11 9.67 4.21 15.61 4.32 21.54 C4.36 23.76 4.39 25.98 4.42 28.2 C4.47 31.38 4.53 34.56 4.59 37.74 C4.6 38.74 4.61 39.73 4.62 40.76 C4.64 41.68 4.66 42.6 4.68 43.55 C4.7 44.77 4.7 44.77 4.72 46.01 C4.83 48.23 4.83 48.23 7 50 C6.62 52.62 6.62 52.62 6 55 C4.51 55.5 4.51 55.5 3 56 C1.31 55.06 1.31 55.06 0 54 C0.88 49.12 0.88 49.12 2 48 C2.1 46.6 2.14 45.2 2.15 43.8 C2.15 42.91 2.16 42.02 2.16 41.1 C2.17 40.13 2.17 39.16 2.17 38.16 C2.17 37.17 2.17 36.18 2.18 35.16 C2.18 33.06 2.19 30.96 2.19 28.86 C2.19 25.65 2.21 22.43 2.22 19.21 C2.23 17.17 2.23 15.14 2.23 13.1 C2.24 12.14 2.24 11.17 2.25 10.18 C2.25 9.28 2.25 8.38 2.24 7.46 C2.25 6.27 2.25 6.27 2.25 5.06 C1.98 2.82 1.4 1.74 0 0 Z " fill="#49CD3C" transform="translate(413,143)"/><path d="M0 0 C2.31 1.69 2.31 1.69 4 4 C4.25 6.75 4.25 6.75 4 9 C-3.73 9.18 -3.73 9.18 -7 8 C-8.31 5.44 -8.31 5.44 -9 3 C-5.98 0.31 -4.06 -0.71 0 0 Z " fill="#262730" transform="translate(188,215)"/><path d="M0 0 C2 -0.04 4 -0.04 6 0 C6.33 0.33 6.66 0.66 7 1 C9.2 1.07 11.37 1.09 13.56 1.06 C14.49 1.06 14.49 1.06 15.43 1.05 C16.95 1.04 18.48 1.02 20 1 C19.01 1.33 18.02 1.66 17 2 C17 3.65 17 5.3 17 7 C16.67 7 16.34 7 16 7 C16 5.35 16 3.7 16 2 C13.69 2 11.38 2 9 2 C9 3.32 9 4.64 9 6 C9.99 6.33 10.98 6.66 12 7 C10.79 6.97 10.79 6.97 9.56 6.94 C7.07 6.7 7.07 6.7 6 8 C4 8.04 2 8.04 0 8 C0 5.36 0 2.72 0 0 Z " fill="#A6E4A1" transform="translate(153,38)"/><path d="M0 0 C1.24 0.02 1.24 0.02 2.5 0.04 C3.32 0.04 4.15 0.05 5 0.06 C5.64 0.07 6.28 0.09 6.93 0.1 C7.26 2.41 7.59 4.72 7.93 7.1 C5.47 8.65 4.25 9.13 1.31 8.85 C-1.07 8.1 -1.07 8.1 -3.07 6.1 C-3.25 3.54 -3.25 3.54 -3.07 1.1 C-2.07 0.1 -2.07 0.1 0 0 Z " fill="#272730" transform="translate(182.06640625,248.90234375)"/><path d="M0 0 C2.88 0.94 2.88 0.94 4.31 2.75 C4.88 4.94 4.88 4.94 3.88 8.94 C0.91 8.94 -2.06 8.94 -5.12 8.94 C-5.78 6.96 -6.44 4.98 -7.12 2.94 C-4.61 0.52 -3.56 -0.07 0 0 Z " fill="#4D4E55" transform="translate(79.125,111.0625)"/><path d="M0 0 C0.99 0 1.98 0 3 0 C3 0.99 3 1.98 3 3 C3.66 3 4.32 3 5 3 C5 2.01 5 1.02 5 0 C5.99 0 6.98 0 8 0 C8 0.66 8 1.32 8 2 C8.66 2 9.32 2 10 2 C10 1.34 10 0.68 10 0 C10.66 0 11.32 0 12 0 C11.67 1.65 11.34 3.3 11 5 C11.66 5 12.32 5 13 5 C13 5.99 13 6.98 13 8 C12.01 8 11.02 8 10 8 C10 7.01 10 6.02 10 5 C9.34 5 8.68 5 8 5 C8 5.99 8 6.98 8 8 C7.01 8 6.02 8 5 8 C5 7.34 5 6.68 5 6 C4.34 6 3.68 6 3 6 C3 6.66 3 7.32 3 8 C2.01 8 1.02 8 0 8 C0 5.36 0 2.72 0 0 Z " fill="#707279" transform="translate(371,253)"/><path d="M0 0 C2 0.25 2 0.25 4 1 C4.33 1.99 4.66 2.98 5 4 C4.67 4.66 4.34 5.32 4 6 C3.34 6 2.68 6 2 6 C2 19.53 2 33.06 2 47 C1.01 47.5 1.01 47.5 0 48 C0 47.49 0.01 46.98 0.01 46.46 C0.06 41.17 0.09 35.88 0.11 30.59 C0.12 28.62 0.13 26.64 0.15 24.67 C0.18 21.83 0.19 19 0.2 16.16 C0.21 15.28 0.22 14.39 0.23 13.48 C0.23 12.66 0.23 11.84 0.23 10.99 C0.23 10.27 0.24 9.54 0.24 8.8 C0.15 6.75 0.15 6.75 -2 5 C-1.46 1.46 -1.46 1.46 0 0 Z " fill="#FE22FE" transform="translate(209,237)"/><path d="M0 0 C2.31 1.69 2.31 1.69 4 4 C4.25 6.75 4.25 6.75 4 9 C1.12 9.19 1.12 9.19 -2 9 C-3.38 7.5 -3.38 7.5 -4 6 C-4.33 6.66 -4.66 7.32 -5 8 C-4.34 8.33 -3.68 8.66 -3 9 C-4.32 8.67 -5.64 8.34 -7 8 C-7.33 6.02 -7.66 4.04 -8 2 C-5.38 -0.21 -3.37 -0.49 0 0 Z " fill="#27272F" transform="translate(241,163)"/><path d="M0 0 C6.6 0 13.2 0 20 0 C19.67 1.32 19.34 2.64 19 4 C12.73 4 6.46 4 0 4 C0 2.68 0 1.36 0 0 Z " fill="#D0E6D3" transform="translate(283,251)"/><path d="M0 0 C5.94 0 11.88 0 18 0 C18 1.65 18 3.3 18 5 C12.39 4.67 6.78 4.34 1 4 C0.67 2.68 0.34 1.36 0 0 Z " fill="#ECEEF7" transform="translate(264,250)"/><path d="M0 0 C4.33 0 8.67 0 13 0 C13.09 2.74 12.89 4.33 12 7 C11.34 5.68 10.68 4.36 10 3 C10.66 3 11.32 3 12 3 C12 2.34 12 1.68 12 1 C11.01 1 10.02 1 9 1 C9 2.98 9 4.96 9 7 C6 7 3 7 0 7 C0 4.69 0 2.38 0 0 Z " fill="#CEEECD" transform="translate(357,131)"/><path d="M0 0 C3.85 1.28 4.21 2.43 6 6 C6.79 8.31 7.42 10.63 8 13 C8.21 13.8 8.41 14.61 8.62 15.44 C8.75 15.95 8.87 16.47 9 17 C7.19 17.31 7.19 17.31 5 17 C2.68 14.02 1.58 11.79 2 8 C1.34 8 0.68 8 0 8 C-0.88 2.63 -0.88 2.63 -1 1 C-0.67 0.67 -0.34 0.34 0 0 Z " fill="#156D8A" transform="translate(44,79)"/><path d="M0 0 C1.94 0.31 1.94 0.31 4 1 C4.33 1.99 4.66 2.98 5 4 C5.33 2.68 5.66 1.36 6 0 C8.64 0 11.28 0 14 0 C12.68 0.33 11.36 0.66 10 1 C10 1.66 10 2.32 10 3 C11.32 3.33 12.64 3.66 14 4 C14 4.99 14 5.98 14 7 C10.7 7 7.4 7 4 7 C3.67 6.34 3.34 5.68 3 5 C2.67 5.66 2.34 6.32 2 7 C1.34 7 0.68 7 0 7 C0 4.69 0 2.38 0 0 Z " fill="#C5ECC3" transform="translate(158,47)"/><path d="M0 0 C1.69 -0.38 1.69 -0.38 4 0 C5.38 1.41 6.52 2.92 7.71 4.49 C9.03 6.2 9.03 6.2 11.5 7.5 C15.69 10.01 18.46 13.37 20 18 C19.34 18.33 18.68 18.66 18 19 C17.7 18.6 17.39 18.2 17.08 17.79 C15.02 15.19 13.38 13.23 10.5 11.5 C7.69 9.81 6.17 7.98 4.21 5.4 C3.05 3.92 3.05 3.92 1.35 2.94 C0.91 2.63 0.46 2.32 0 2 C0 1.34 0 0.68 0 0 Z " fill="#B0E5AD" transform="translate(192,141)"/><path d="M0 0 C2.31 0 4.62 0 7 0 C7 0.66 7 1.32 7 2 C7.66 2 8.32 2 9 2 C9.33 4.31 9.66 6.62 10 9 C6.7 8.34 3.4 7.68 0 7 C0 4.69 0 2.38 0 0 Z " fill="#2DC61E" transform="translate(344,139)"/><path d="M0 0 C3 0.38 3 0.38 4.88 1.88 C5.25 2.37 5.62 2.87 6 3.38 C5.01 5.02 4.02 6.68 3 8.38 C2.34 7.38 1.68 6.39 1 5.38 C0.67 6.37 0.34 7.36 0 8.38 C-1.32 8.38 -2.64 8.38 -4 8.38 C-4.66 6.73 -5.32 5.07 -6 3.38 C-4.09 0.83 -3.22 0.4 0 0 Z " fill="#585960" transform="translate(95,22.625)"/><path d="M0 0 C2.97 0.33 5.94 0.66 9 1 C10 5 10 5 9.06 6.75 C8.71 7.16 8.36 7.58 8 8 C7.24 7.81 6.47 7.63 5.69 7.44 C2.91 6.77 2.91 6.77 0 8 C0 5.36 0 2.72 0 0 Z " fill="#D5F0D5" transform="translate(174,38)"/><path d="M0 0 C4.29 0 8.58 0 13 0 C13 1.32 13 2.64 13 4 C11.68 4 10.36 4 9 4 C9 4.66 9 5.32 9 6 C10.32 6.33 11.64 6.66 13 7 C11.02 7 9.04 7 7 7 C7 5.35 7 3.7 7 2 C6.01 2 5.02 2 4 2 C4 3.65 4 5.3 4 7 C3.34 7 2.68 7 2 7 C2 5.35 2 3.7 2 2 C1.34 2 0.68 2 0 2 C0 1.34 0 0.68 0 0 Z " fill="#CDEECB" transform="translate(351,139)"/><path d="M0 0 C4.29 0 8.58 0 13 0 C13 2 13 4 13 6 C11.02 6 9.04 6 7 6 C7.66 5.34 8.32 4.68 9 4 C7.68 3.67 6.36 3.34 5 3 C5.33 3.99 5.66 4.98 6 6 C5.01 5.67 4.02 5.34 3 5 C2.31 2.94 2.31 2.94 2 1 C2 2.65 2 4.3 2 6 C1.34 6 0.68 6 0 6 C0 4.02 0 2.04 0 0 Z " fill="#DCF1DC" transform="translate(159,31)"/><path d="M0 0 C1.5 0.01 1.5 0.01 3.04 0.03 C3.81 0.04 4.58 0.05 5.38 0.06 C5.04 1.71 4.72 3.36 4.38 5.06 C3.8 4.88 3.22 4.69 2.62 4.5 C0.17 4.02 -1.27 4.31 -3.62 5.06 C-3.96 4.07 -4.28 3.08 -4.62 2.06 C-5.28 2.06 -5.94 2.06 -6.62 2.06 C-6.96 2.72 -7.28 3.38 -7.62 4.06 C-7.62 3.07 -7.62 2.08 -7.62 1.06 C-4.98 -0.26 -2.95 -0.03 0 0 Z " fill="#880B0E" transform="translate(144.625,237.9375)"/><path d="M0 0 C1.65 0.02 1.65 0.02 3.34 0.04 C5 0.05 5 0.05 6.69 0.06 C7.54 0.07 8.4 0.09 9.28 0.1 C9.28 0.76 9.28 1.42 9.28 2.1 C8.62 2.1 7.96 2.1 7.28 2.1 C7.28 3.75 7.28 5.4 7.28 7.1 C6.62 7.1 5.96 7.1 5.28 7.1 C5.28 5.45 5.28 3.8 5.28 2.1 C2.97 2.1 0.66 2.1 -1.72 2.1 C-1.72 3.42 -1.72 4.74 -1.72 6.1 C-0.4 6.43 0.92 6.76 2.28 7.1 C0.61 7.14 -1.06 7.14 -2.72 7.1 C-3.72 6.1 -3.72 6.1 -3.85 3.6 C-3.67 0.1 -3.53 0.13 0 0 Z " fill="#CBEDC9" transform="translate(368.72265625,138.90234375)"/><path d="M0 0 C2 -0.04 4 -0.04 6 0 C7 1 7 1 7.12 3.5 C7 6 7 6 6 7 C4 7.04 2 7.04 0 7 C0 4.69 0 2.38 0 0 Z " fill="#CAECC9" transform="translate(336,139)"/><path d="M0 0 C2.12 1.06 2.9 1.93 4.38 3.75 C5.03 4.55 5.03 4.55 5.69 5.37 C6.12 5.91 6.56 6.45 7 7 C7.6 7.73 7.6 7.73 8.21 8.47 C11 11.87 11 11.87 11 13 C8.74 13.34 8.74 13.34 6 13 C4.4 11.18 3.31 9.69 2.12 7.62 C1.81 7.12 1.49 6.61 1.16 6.09 C0.26 4.6 0.26 4.6 -1 2 C-0.67 1.34 -0.34 0.68 0 0 Z " fill="#B5E7B1" transform="translate(132,77)"/><path d="M0 0 C0.99 0 1.98 0 3 0 C3.33 0.66 3.66 1.32 4 2 C4.66 2 5.32 2 6 2 C6 1.34 6 0.68 6 0 C6.66 0.33 7.32 0.66 8 1 C7.01 2.49 7.01 2.49 6 4 C6.99 5.49 6.99 5.49 8 7 C5 7 2 7 -1 7 C-1.62 4.62 -1.62 4.62 -2 2 C-1.34 1.34 -0.68 0.68 0 0 Z " fill="#7D7E84" transform="translate(339,255)"/><path d="M0 0 C2.5 0.12 2.5 0.12 3.5 1.12 C3.62 3.62 3.62 3.62 3.5 6.12 C2.5 7.12 2.5 7.12 0 7.25 C-2.5 7.12 -2.5 7.12 -3.5 6.12 C-3.62 3.62 -3.62 3.62 -3.5 1.12 C-2.5 0.12 -2.5 0.12 0 0 Z " fill="#D9F0D9" transform="translate(385.5,138.875)"/><path d="M0 0 C1.98 0 3.96 0 6 0 C6.62 2.38 6.62 2.38 7 5 C5 7 5 7 2.38 7.12 C1.59 7.08 0.81 7.04 0 7 C0 4.69 0 2.38 0 0 Z " fill="#D9F2D8" transform="translate(131,39)"/><path d="M0 0 C2.06 1.69 2.06 1.69 4 4 C3.75 6.75 3.75 6.75 3 9 C2.01 9.33 1.02 9.66 0 10 C-1.69 9.06 -1.69 9.06 -3 8 C-2.49 4.86 -1.99 2.52 0 0 Z " fill="#13C001" transform="translate(416,189)"/><path d="M0 0 C1.21 0.03 1.21 0.03 2.44 0.06 C3.06 2.44 3.06 2.44 3.44 5.06 C2.78 5.72 2.12 6.38 1.44 7.06 C-1.19 6.69 -1.19 6.69 -3.56 6.06 C-3.61 4.4 -3.6 2.73 -3.56 1.06 C-2.56 0.06 -2.56 0.06 0 0 Z " fill="#D2EED2" transform="translate(153.5625,46.9375)"/><path d="M0 0 C0.66 0.33 1.32 0.66 2 1 C2 1.66 2 2.32 2 3 C-2.43 5.09 -2.43 5.09 -5.31 4.62 C-5.87 4.42 -6.43 4.21 -7 4 C-7 5.32 -7 6.64 -7 8 C-7.66 8 -8.32 8 -9 8 C-8.41 2.63 -8.41 2.63 -8 1 C-5.26 -0.37 -3.03 -0.13 0 0 Z " fill="#24252E" transform="translate(29,45)"/><path d="M0 0 C0.38 1.66 0.71 3.32 1 5 C0 6 0 6 -2.5 6.12 C-5 6 -5 6 -6 5 C-6.04 3.33 -6.04 1.67 -6 0 C-3.51 -1.25 -2.59 -0.78 0 0 Z " fill="#DEF2DE" transform="translate(361,148)"/><path d="M0 0 C1.1 0.02 1.1 0.02 2.21 0.04 C2.95 0.04 3.68 0.05 4.44 0.06 C5 0.07 5.57 0.09 6.15 0.1 C6.48 1.09 6.81 2.08 7.15 3.1 C5.15 5.1 5.15 5.1 3.43 5.29 C1.67 5.23 -0.09 5.16 -1.85 5.1 C-2.41 3.16 -2.41 3.16 -2.85 1.1 C-1.85 0.1 -1.85 0.1 0 0 Z " fill="#5F9D5A" transform="translate(348.84765625,190.90234375)"/><path d="M0 0 C1.1 0.02 1.1 0.02 2.21 0.04 C2.95 0.04 3.68 0.05 4.44 0.06 C5 0.07 5.57 0.09 6.15 0.1 C6.15 1.75 6.15 3.4 6.15 5.1 C3.51 5.1 0.87 5.1 -1.85 5.1 C-2.41 3.16 -2.41 3.16 -2.85 1.1 C-1.85 0.1 -1.85 0.1 0 0 Z " fill="#B9BABF" transform="translate(211.84765625,188.90234375)"/><path d="M0 0 C2.31 0 4.62 0 7 0 C7.04 1.67 7.04 3.33 7 5 C6 6 6 6 2.94 6.06 C1.48 6.03 1.48 6.03 0 6 C0 4.02 0 2.04 0 0 Z " fill="#DBF2DB" transform="translate(151,31)"/><path d="M0 0 C1.98 0 3.96 0 6 0 C6.38 1.66 6.71 3.32 7 5 C6 6 6 6 2.94 6.06 C1.48 6.03 1.48 6.03 0 6 C0 4.02 0 2.04 0 0 Z " fill="#F3F2FD" transform="translate(193,281)"/><path d="M0 0 C1.1 0.02 1.1 0.02 2.21 0.04 C2.95 0.04 3.68 0.05 4.44 0.06 C5 0.07 5.57 0.09 6.15 0.1 C5.82 1.75 5.49 3.4 5.15 5.1 C2.84 5.1 0.53 5.1 -1.85 5.1 C-2.41 3.16 -2.41 3.16 -2.85 1.1 C-1.85 0.1 -1.85 0.1 0 0 Z " fill="#C4C9C7" transform="translate(45.84765625,113.90234375)"/><path d="M0 0 C3 1 3 1 4 3 C4.33 2.01 4.66 1.02 5 0 C5.66 0 6.32 0 7 0 C7 1.98 7 3.96 7 6 C5.68 6.33 4.36 6.66 3 7 C2.67 6.34 2.34 5.68 2 5 C1.67 5.66 1.34 6.32 1 7 C0.34 7 -0.32 7 -1 7 C-1.04 5 -1.04 3 -1 1 C-0.67 0.67 -0.34 0.34 0 0 Z " fill="#D2EED1" transform="translate(391,139)"/><path d="M0 0 C2 0.25 2 0.25 4 1 C4.33 1.99 4.66 2.98 5 4 C4.67 4.66 4.34 5.32 4 6 C3.34 6 2.68 6 2 6 C1.67 6.99 1.34 7.98 1 9 C-0.56 7.25 -0.56 7.25 -2 5 C-1.75 2.83 -1.56 1.56 0 0 Z " fill="#FF00FF" transform="translate(209,237)"/><path d="M0 0 C0.6 0.19 1.2 0.37 1.81 0.56 C4.16 1.22 4.16 1.22 7 0 C7 1.98 7 3.96 7 6 C5.68 5.67 4.36 5.34 3 5 C2.67 5.66 2.34 6.32 2 7 C1.34 7 0.68 7 0 7 C0 4.69 0 2.38 0 0 Z " fill="#CFEECF" transform="translate(185,39)"/><path d="M0 0 C2.64 0 5.28 0 8 0 C7.67 1.65 7.34 3.3 7 5 C4.69 5 2.38 5 0 5 C0 3.35 0 1.7 0 0 Z " fill="#A9AAB0" transform="translate(243,199)"/><path d="M0 0 C2.97 0 5.94 0 9 0 C9 1.32 9 2.64 9 4 C6.03 4 3.06 4 0 4 C0 2.68 0 1.36 0 0 Z " fill="#A9DEA7" transform="translate(316,251)"/><path d="M0 0 C0.99 0.33 1.98 0.66 3 1 C3.33 1.99 3.66 2.98 4 4 C4.66 2.68 5.32 1.36 6 0 C6 2.31 6 4.62 6 7 C5.4 6.81 4.8 6.63 4.19 6.44 C1.84 5.78 1.84 5.78 -1 7 C-1.04 5 -1.04 3 -1 1 C-0.67 0.67 -0.34 0.34 0 0 Z " fill="#D8F1D8" transform="translate(364,147)"/><path d="M0 0 C2.64 0 5.28 0 8 0 C8 1.65 8 3.3 8 5 C5.36 5 2.72 5 0 5 C0 3.35 0 1.7 0 0 Z " fill="#65CF5A" transform="translate(329,191)"/><path d="M0 0 C0.99 0 1.98 0 3 0 C3 0.66 3 1.32 3 2 C3.66 2 4.32 2 5 2 C5 1.34 5 0.68 5 0 C5.66 0 6.32 0 7 0 C6.67 1.65 6.34 3.3 6 5 C6.66 5 7.32 5 8 5 C8 5.99 8 6.98 8 8 C7.01 8 6.02 8 5 8 C5 7.01 5 6.02 5 5 C4.34 5 3.68 5 3 5 C3 4.34 3 3.68 3 3 C2.01 3 1.02 3 0 3 C0 2.01 0 1.02 0 0 Z " fill="#5D5E65" transform="translate(376,253)"/><path d="M0 0 C2.31 0 4.62 0 7 0 C7.33 1.65 7.66 3.3 8 5 C5.03 4.67 2.06 4.34 -1 4 C-0.67 2.68 -0.34 1.36 0 0 Z " fill="#B1B4B7" transform="translate(182,219)"/><path d="M0 0 C2.48 0.99 2.48 0.99 5 2 C5 3.98 5 5.96 5 8 C4.34 7.67 3.68 7.34 3 7 C2.67 6.01 2.34 5.02 2 4 C1.34 4 0.68 4 0 4 C-0.33 5.98 -0.66 7.96 -1 10 C-1.66 9.67 -2.32 9.34 -3 9 C-3 6.69 -3 4.38 -3 2 C-2.01 2 -1.02 2 0 2 C0 1.34 0 0.68 0 0 Z " fill="#2DC61D" transform="translate(364,144)"/><path d="M0 0 C2.64 0 5.28 0 8 0 C8.33 1.32 8.66 2.64 9 4 C6.03 4 3.06 4 0 4 C0 2.68 0 1.36 0 0 Z " fill="#B4B8B9" transform="translate(22,49)"/><path d="M0 0 C1.98 0 3.96 0 6 0 C5.67 1.98 5.34 3.96 5 6 C3.35 6 1.7 6 0 6 C0 4.02 0 2.04 0 0 Z " fill="#F1D5F7" transform="translate(176,289)"/><path d="M0 0 C3.96 0 7.92 0 12 0 C12 0.33 12 0.66 12 1 C10.35 1 8.7 1 7 1 C7 3.31 7 5.62 7 8 C6.01 7.67 5.02 7.34 4 7 C4 6.01 4 5.02 4 4 C2.68 2.68 1.36 1.36 0 0 Z " fill="#FE1CFE" transform="translate(166,280)"/><path d="M0 0 C2.31 0 4.62 0 7 0 C7.33 1.32 7.66 2.64 8 4 C6.68 4.33 5.36 4.66 4 5 C3.34 4.01 2.68 3.02 2 2 C1.67 2.66 1.34 3.32 1 4 C1.66 4.33 2.32 4.66 3 5 C1.68 4.67 0.36 4.34 -1 4 C-0.67 2.68 -0.34 1.36 0 0 Z " fill="#BCBDC1" transform="translate(235,167)"/><path d="M0 0 C2.31 0 4.62 0 7 0 C7 1.65 7 3.3 7 5 C4.36 4.67 1.72 4.34 -1 4 C-0.67 2.68 -0.34 1.36 0 0 Z " fill="#A1A3A6" transform="translate(182,249)"/><path d="M0 0 C1.98 0 3.96 0 6 0 C6 1.32 6 2.64 6 4 C4.68 4 3.36 4 2 4 C2 4.66 2 5.32 2 6 C3.32 6.33 4.64 6.66 6 7 C4.02 7 2.04 7 0 7 C0 4.69 0 2.38 0 0 Z " fill="#D0EED0" transform="translate(344,139)"/><path d="M0 0 C1.98 0 3.96 0 6 0 C6 1.32 6 2.64 6 4 C4.68 4 3.36 4 2 4 C2 4.66 2 5.32 2 6 C1.34 6 0.68 6 0 6 C0 4.02 0 2.04 0 0 Z " fill="#F6D6FD" transform="translate(191,289)"/><path d="M0 0 C1.65 0 3.3 0 5 0 C5 2.31 5 4.62 5 7 C3.35 7 1.7 7 0 7 C0 4.69 0 2.38 0 0 Z " fill="#DDF0DE" transform="translate(372,147)"/><path d="M0 0 C0.99 0 1.98 0 3 0 C3.66 1.98 4.32 3.96 5 6 C2.69 6 0.38 6 -2 6 C-1.34 4.02 -0.68 2.04 0 0 Z " fill="#F4E2FD" transform="translate(185,289)"/><path d="M0 0 C1.98 0 3.96 0 6 0 C5.81 0.62 5.63 1.24 5.44 1.88 C4.76 4.04 4.76 4.04 6 6 C4.02 6 2.04 6 0 6 C0 4.02 0 2.04 0 0 Z " fill="#F3F2FC" transform="translate(186,281)"/><path d="M0 0 C1.65 0 3.3 0 5 0 C5.04 1.33 5.04 2.67 5 4 C4.67 4.33 4.34 4.66 4 5 C4.66 5.66 5.32 6.32 6 7 C4.02 7 2.04 7 0 7 C0.66 5.68 1.32 4.36 2 3 C1.34 2.67 0.68 2.34 0 2 C0 1.34 0 0.68 0 0 Z " fill="#CEEECD" transform="translate(380,147)"/><path d="M0 0 C1.98 0 3.96 0 6 0 C6 0.66 6 1.32 6 2 C6.66 2.33 7.32 2.66 8 3 C8 3.66 8 4.32 8 5 C5.36 4.67 2.72 4.34 0 4 C0 2.68 0 1.36 0 0 Z " fill="#E40202" transform="translate(123,238)"/><path d="M0 0 C1.65 0 3.3 0 5 0 C5 1.32 5 2.64 5 4 C4.01 4.5 4.01 4.5 3 5 C3.99 5.66 4.98 6.32 6 7 C4.02 7 2.04 7 0 7 C0.66 5.68 1.32 4.36 2 3 C1.34 2.67 0.68 2.34 0 2 C0 1.34 0 0.68 0 0 Z " fill="#DDF2DD" transform="translate(348,147)"/><path d="M0 0 C1.98 0 3.96 0 6 0 C5.34 1.32 4.68 2.64 4 4 C4.66 4.33 5.32 4.66 6 5 C6 5.66 6 6.32 6 7 C4.35 7 2.7 7 1 7 C1 5.68 1 4.36 1 3 C1.66 2.67 2.32 2.34 3 2 C2.01 1.34 1.02 0.68 0 0 Z " fill="#D2EFD2" transform="translate(143,47)"/><path d="M0 0 C2.44 0.81 2.44 0.81 5 2 C5.33 2.99 5.66 3.98 6 5 C6.66 5 7.32 5 8 5 C8 5.99 8 6.98 8 8 C7.01 8 6.02 8 5 8 C4.73 7.38 4.46 6.76 4.19 6.12 C2.95 3.92 2.07 3.31 0 2 C0 1.34 0 0.68 0 0 Z " fill="#BFEABC" transform="translate(212,159)"/><path d="M0 0 C1.65 0 3.3 0 5 0 C4.01 0.33 3.02 0.66 2 1 C2 1.66 2 2.32 2 3 C2.99 3 3.98 3 5 3 C5 4.32 5 5.64 5 7 C3.35 7 1.7 7 0 7 C0 4.67 0 2.33 0 0 Z " fill="#D7F0D7" transform="translate(372,131)"/><path d="M0 0 C1.65 0 3.3 0 5 0 C5 1.32 5 2.64 5 4 C3.68 4 2.36 4 1 4 C0.67 4.66 0.34 5.32 0 6 C0 4.02 0 2.04 0 0 Z " fill="#F5CEFC" transform="translate(173,281)"/><path d="M0 0 C2.64 0 5.28 0 8 0 C8 0.99 8 1.98 8 3 C5.36 3 2.72 3 0 3 C0 2.01 0 1.02 0 0 Z " fill="#B0E3AD" transform="translate(222,251)"/><path d="M0 0 C2.31 0 4.62 0 7 0 C7 1.32 7 2.64 7 4 C4.69 4 2.38 4 0 4 C0.66 3.67 1.32 3.34 2 3 C2 2.34 2 1.68 2 1 C1.34 0.67 0.68 0.34 0 0 Z " fill="#D4D7D8" transform="translate(92,239)"/><path d="M0 0 C0.66 0 1.32 0 2 0 C2.33 0.33 2.66 0.66 3 1 C3.99 0.67 4.98 0.34 6 0 C6.33 1.65 6.66 3.3 7 5 C4.69 5 2.38 5 0 5 C0 3.35 0 1.7 0 0 Z " fill="#9E9EA4" transform="translate(442,192)"/><path d="M0 0 C2.47 0.5 2.47 0.5 5 1 C5.33 2.65 5.66 4.3 6 6 C4.12 5.81 4.12 5.81 2 5 C0.75 2.44 0.75 2.44 0 0 Z " fill="#D1EED1" transform="translate(155,105)"/><path d="M0 0 C1.98 0 3.96 0 6 0 C5.01 0.49 5.01 0.49 4 1 C4 2.98 4 4.96 4 7 C3.01 7 2.02 7 1 7 C0.67 4.69 0.34 2.38 0 0 Z " fill="#B4E8B1" transform="translate(146,39)"/><path d="M0 0 C1.65 0 3.3 0 5 0 C5 1.98 5 3.96 5 6 C3.35 6 1.7 6 0 6 C0 4.02 0 2.04 0 0 Z " fill="#DAF1DA" transform="translate(153,39)"/><path d="M0 0 C1.65 0 3.3 0 5 0 C5 1.98 5 3.96 5 6 C3.35 6 1.7 6 0 6 C0 4.02 0 2.04 0 0 Z " fill="#DDF2DE" transform="translate(139,39)"/><path d="M0 0 C0.99 0 1.98 0 3 0 C2.12 4.75 2.12 4.75 1 7 C1.66 7.33 2.32 7.66 3 8 C1.35 8 -0.3 8 -2 8 C-1.34 5.36 -0.68 2.72 0 0 Z " fill="#FE15FE" transform="translate(182,288)"/><path d="M0 0 C2.64 0 5.28 0 8 0 C7.67 0.99 7.34 1.98 7 3 C4.69 3 2.38 3 0 3 C0 2.01 0 1.02 0 0 Z " fill="#B7E4B5" transform="translate(266,251)"/><path d="M0 0 C2.64 0 5.28 0 8 0 C7.67 0.99 7.34 1.98 7 3 C4.69 3 2.38 3 0 3 C0 2.01 0 1.02 0 0 Z " fill="#BAE7B8" transform="translate(247,251)"/><path d="M0 0 C4.29 0 8.58 0 13 0 C13 0.33 13 0.66 13 1 C12.22 1.14 11.43 1.29 10.62 1.44 C8.04 1.88 8.04 1.88 6 3 C5.67 3.66 5.34 4.32 5 5 C5 4.34 5 3.68 5 3 C4.01 2.67 3.02 2.34 2 2 C1.34 1.34 0.68 0.68 0 0 Z " fill="#5DD251" transform="translate(139,38)"/><path d="M0 0 C2.88 1.25 4.48 2.22 6 5 C5.01 5.33 4.02 5.66 3 6 C1.68 4.68 0.36 3.36 -1 2 C-0.67 1.34 -0.34 0.68 0 0 Z " fill="#C1EABE" transform="translate(124,66)"/><path d="M0 0 C0.66 0.33 1.32 0.66 2 1 C1.01 2.49 1.01 2.49 0 4 C0.99 5.49 0.99 5.49 2 7 C-0.44 7.08 -1.78 7.11 -4 6 C-3.67 4.68 -3.34 3.36 -3 2 C-2.01 2 -1.02 2 0 2 C0 1.34 0 0.68 0 0 Z " fill="#88898F" transform="translate(345,255)"/><path d="M0 0 C2.31 0.33 4.62 0.66 7 1 C7 1.66 7 2.32 7 3 C4.29 4.35 1.99 4.07 -1 4 C-0.67 2.68 -0.34 1.36 0 0 Z " fill="#E6E5F4" transform="translate(442,219)"/><path d="M0 0 C4.68 1.48 4.68 1.48 6.31 4.12 C6.54 4.74 6.77 5.36 7 6 C6.01 6.5 6.01 6.5 5 7 C3.02 5.35 1.04 3.7 -1 2 C-0.67 1.34 -0.34 0.68 0 0 Z " fill="#B8E7B5" transform="translate(161,110)"/><path d="M0 0 C3 3.62 3 3.62 3 7 C1.68 7 0.36 7 -1 7 C-1.66 5.35 -2.32 3.7 -3 2 C-2.01 1.34 -1.02 0.68 0 0 Z " fill="#0C96BE" transform="translate(50,89)"/><path d="M0 0 C1.32 0.33 2.64 0.66 4 1 C4.33 2.98 4.66 4.96 5 7 C3.35 7 1.7 7 0 7 C0 6.34 0 5.68 0 5 C0.66 5 1.32 5 2 5 C2 3.68 2 2.36 2 1 C1.34 0.67 0.68 0.34 0 0 Z " fill="#C3EAC1" transform="translate(175,47)"/><path d="M0 0 C0.66 0 1.32 0 2 0 C3.12 5.75 3.12 5.75 2 8 C1.34 8 0.68 8 0 8 C0 5.36 0 2.72 0 0 Z " fill="#96E090" transform="translate(174,38)"/><path d="M0 0 C0.99 0 1.98 0 3 0 C3.37 4.55 3.37 4.55 1.5 6.81 C1 7.2 0.51 7.6 0 8 C0 5.36 0 2.72 0 0 Z " fill="#C9CACF" transform="translate(371,253)"/><path d="M0 0 C0.99 0.33 1.98 0.66 3 1 C3.69 3.06 3.69 3.06 4 5 C3.01 5.5 3.01 5.5 2 6 C1.01 5.34 0.02 4.68 -1 4 C-0.67 2.68 -0.34 1.36 0 0 Z " fill="#B3E3B0" transform="translate(121,60)"/><path d="M0 0 C2.31 0 4.62 0 7 0 C6.44 1.44 6.44 1.44 5 3 C2.66 3.58 0.42 3.78 -2 4 C-2 3.34 -2 2.68 -2 2 C-1.34 2 -0.68 2 0 2 C0 1.34 0 0.68 0 0 Z " fill="#FAFAFF" transform="translate(290,247)"/><path d="M0 0 C-0.33 0.99 -0.66 1.98 -1 3 C-0.34 3.33 0.32 3.66 1 4 C-0.32 3.67 -1.64 3.34 -3 3 C-3 2.34 -3 1.68 -3 1 C-3.66 1 -4.32 1 -5 1 C-5.33 1.66 -5.66 2.32 -6 3 C-6 2.01 -6 1.02 -6 0 C-3.51 -1.25 -2.59 -0.78 0 0 Z " fill="#D00405" transform="translate(143,239)"/><path d="M0 0 C-0.33 1.65 -0.66 3.3 -1 5 C-1.35 4.53 -1.7 4.05 -2.06 3.56 C-4.91 1.27 -7.39 1.34 -11 1 C-11 0.67 -11 0.34 -11 0 C-9.73 -0.2 -8.46 -0.38 -7.19 -0.56 C-6.13 -0.72 -6.13 -0.72 -5.04 -0.88 C-3 -1 -3 -1 0 0 Z " fill="#606067" transform="translate(103,238)"/><path d="M0 0 C2.31 0.33 4.62 0.66 7 1 C7 1.66 7 2.32 7 3 C4.69 3 2.38 3 0 3 C0 2.01 0 1.02 0 0 Z " fill="#A9E0A5" transform="translate(291,251)"/><path d="M0 0 C1.32 0.33 2.64 0.66 4 1 C4 2.32 4 3.64 4 5 C2.68 5 1.36 5 0 5 C0 3.35 0 1.7 0 0 Z " fill="#94959A" transform="translate(243,199)"/><path d="M0 0 C0.99 0.33 1.98 0.66 3 1 C2.34 2.98 1.68 4.96 1 7 C0.34 7 -0.32 7 -1 7 C-1.04 5 -1.04 3 -1 1 C-0.67 0.67 -0.34 0.34 0 0 Z " fill="#DCF1DC" transform="translate(391,139)"/><path d="M0 0 C1.32 0.33 2.64 0.66 4 1 C3.34 2.32 2.68 3.64 2 5 C1.34 5 0.68 5 0 5 C0 3.35 0 1.7 0 0 Z " fill="#63BE5C" transform="translate(352,191)"/><path d="M0 0 C1.32 0 2.64 0 4 0 C3.67 1.32 3.34 2.64 3 4 C1.68 3.67 0.36 3.34 -1 3 C-0.67 2.01 -0.34 1.02 0 0 Z " fill="#1D3240" transform="translate(304,0)"/><path d="M0 0 C1.65 0 3.3 0 5 0 C5 0.99 5 1.98 5 3 C3.35 3 1.7 3 0 3 C0 2.01 0 1.02 0 0 Z " fill="#FE04FE" transform="translate(174,285)"/><path d="M0 0 C0.33 0 0.66 0 1 0 C1.33 1.98 1.66 3.96 2 6 C-0.97 5.5 -0.97 5.5 -4 5 C-2.69 3.31 -1.36 1.65 0 0 Z " fill="#4CCE3F" transform="translate(354,148)"/><path d="M0 0 C1.32 1.32 2.64 2.64 4 4 C3.01 4 2.02 4 1 4 C1 4.66 1 5.32 1 6 C0.34 6 -0.32 6 -1 6 C-1.33 5.01 -1.66 4.02 -2 3 C-1.06 1.31 -1.06 1.31 0 0 Z " fill="#36C827" transform="translate(371,132)"/><path d="M0 0 C1.65 0 3.3 0 5 0 C4.67 1.32 4.34 2.64 4 4 C2.68 3.67 1.36 3.34 0 3 C0 2.01 0 1.02 0 0 Z " fill="#D0D3D5" transform="translate(77,116)"/><path d="M0 0 C0.99 0.33 1.98 0.66 3 1 C2.67 1.99 2.34 2.98 2 4 C0.68 3.67 -0.64 3.34 -2 3 C-1.34 2.01 -0.68 1.02 0 0 Z " fill="#9C9CA2" transform="translate(49,115)"/><path d="M0 0 C1.02 0.98 2.02 1.98 3 3 C3 3.33 3 3.66 3 4 C1.35 4 -0.3 4 -2 4 C-2 3.01 -2 2.02 -2 1 C-1.34 1.33 -0.68 1.66 0 2 C0 1.34 0 0.68 0 0 Z " fill="#D2EFD0" transform="translate(140,86)"/><path d="M0 0 C0.99 0.33 1.98 0.66 3 1 C3.33 1.99 3.66 2.98 4 4 C2.68 4 1.36 4 0 4 C-0.33 3.01 -0.66 2.02 -1 1 C-0.67 0.67 -0.34 0.34 0 0 Z " fill="#ACE3A8" transform="translate(129,72)"/><path d="M0 0 C0.99 0 1.98 0 3 0 C3 1.98 3 3.96 3 6 C2.34 5.67 1.68 5.34 1 5 C0.38 2.44 0.38 2.44 0 0 Z " fill="#3BCA2D" transform="translate(366,146)"/><path d="M0 0 C1.32 1.32 2.64 2.64 4 4 C2.51 4.99 2.51 4.99 1 6 C0.34 4.35 -0.32 2.7 -1 1 C-0.67 0.67 -0.34 0.34 0 0 Z " fill="#ABE3A7" transform="translate(185,132)"/><path d="M0 0 C0 0.66 0 1.32 0 2 C0.66 2 1.32 2 2 2 C2 2.66 2 3.32 2 4 C-0.87 3.43 -1.86 3.14 -4 1 C-2 0 -2 0 0 0 Z " fill="#BFE8BD" transform="translate(183,129)"/><path d="M0 0 C1.32 1.32 2.64 2.64 4 4 C2.51 4.99 2.51 4.99 1 6 C0.34 4.35 -0.32 2.7 -1 1 C-0.67 0.67 -0.34 0.34 0 0 Z " fill="#A9E3A5" transform="translate(152,100)"/><path d="M0 0 C-0.31 1.94 -0.31 1.94 -1 4 C-1.99 4.33 -2.98 4.66 -4 5 C-4.33 3.68 -4.66 2.36 -5 1 C-2 0 -2 0 0 0 Z " fill="#0999C2" transform="translate(55,97)"/><path d="M0 0 C0.99 0.33 1.98 0.66 3 1 C3.33 1.99 3.66 2.98 4 4 C3.01 4.33 2.02 4.66 1 5 C0.67 3.35 0.34 1.7 0 0 Z " fill="#C4E8C2" transform="translate(148,97)"/><path d="M0 0 C1.32 0.99 2.64 1.98 4 3 C2.35 3.33 0.7 3.66 -1 4 C-1.33 3.01 -1.66 2.02 -2 1 C-1.34 0.67 -0.68 0.34 0 0 Z " fill="#35C825" transform="translate(166,33)"/><path d="M0 0 C0.99 0 1.98 0 3 0 C3 1.32 3 2.64 3 4 C2.01 4 1.02 4 0 4 C0 2.68 0 1.36 0 0 Z " fill="#FE14FE" transform="translate(195,282)"/><path d="M0 0 C0.99 0 1.98 0 3 0 C3 1.32 3 2.64 3 4 C2.01 4 1.02 4 0 4 C0 2.68 0 1.36 0 0 Z " fill="#B6E4B8" transform="translate(308,251)"/><path d="M0 0 C0.99 0 1.98 0 3 0 C3 1.32 3 2.64 3 4 C2.01 4 1.02 4 0 4 C0 2.68 0 1.36 0 0 Z " fill="#B8E8B5" transform="translate(304,251)"/><path d="M0 0 C1.32 0 2.64 0 4 0 C4 0.99 4 1.98 4 3 C2.68 3 1.36 3 0 3 C0 2.01 0 1.02 0 0 Z " fill="#C2E5C2" transform="translate(201,251)"/><path d="M0 0 C0.99 0 1.98 0 3 0 C3 1.65 3 3.3 3 5 C2.34 5 1.68 5 1 5 C0.67 3.35 0.34 1.7 0 0 Z " fill="#8A0B0E" transform="translate(151,238)"/><path d="M0 0 C0.99 1.32 1.98 2.64 3 4 C2.34 4.66 1.68 5.32 1 6 C0.01 4.68 -0.98 3.36 -2 2 C-1.34 1.34 -0.68 0.68 0 0 Z " fill="#A9E1A5" transform="translate(209,154)"/><path d="M0 0 C0.99 0 1.98 0 3 0 C3 1.32 3 2.64 3 4 C2.01 4 1.02 4 0 4 C0 2.68 0 1.36 0 0 Z " fill="#27C416" transform="translate(357,149)"/><path d="M0 0 C1.32 1.32 2.64 2.64 4 4 C3.01 4.5 3.01 4.5 2 5 C0.68 4.01 -0.64 3.02 -2 2 C-1.34 1.34 -0.68 0.68 0 0 Z " fill="#AAE1A6" transform="translate(199,145)"/><path d="M0 0 C0.99 0 1.98 0 3 0 C3 1.32 3 2.64 3 4 C2.01 4 1.02 4 0 4 C0 2.68 0 1.36 0 0 Z " fill="#3CCA2D" transform="translate(338,141)"/><path d="M0 0 C0.99 0 1.98 0 3 0 C3 1.32 3 2.64 3 4 C2.01 4 1.02 4 0 4 C0 2.68 0 1.36 0 0 Z " fill="#2DC61D" transform="translate(384,141)"/><path d="M0 0 C0.66 0.33 1.32 0.66 2 1 C1.34 2.32 0.68 3.64 0 5 C-0.99 4.01 -1.98 3.02 -3 2 C-2.01 1.34 -1.02 0.68 0 0 Z " fill="#D1ECD0" transform="translate(168,115)"/><path d="M0 0 C0.99 0 1.98 0 3 0 C3.33 1.32 3.66 2.64 4 4 C2.68 3.67 1.36 3.34 0 3 C0 2.01 0 1.02 0 0 Z " fill="#8C8C91" transform="translate(43,115)"/><path d="M0 0 C1.32 0.66 2.64 1.32 4 2 C0.25 4 0.25 4 -2 4 C-1.34 2.68 -0.68 1.36 0 0 Z " fill="#33353E" transform="translate(43,111)"/><path d="M0 0 C2.47 0.5 2.47 0.5 5 1 C4.67 1.99 4.34 2.98 4 4 C2.68 3.34 1.36 2.68 0 2 C0 1.34 0 0.68 0 0 Z " fill="#BDE5BB" transform="translate(155,105)"/><path d="M0 0 C0.99 0 1.98 0 3 0 C3 1.32 3 2.64 3 4 C2.01 4 1.02 4 0 4 C0 2.68 0 1.36 0 0 Z " fill="#30C720" transform="translate(152,48)"/><path d="M0 0 C0.99 0 1.98 0 3 0 C3 1.32 3 2.64 3 4 C2.01 4 1.02 4 0 4 C0 2.68 0 1.36 0 0 Z " fill="#36C827" transform="translate(179,40)"/><path d="M0 0 C0.99 0 1.98 0 3 0 C3 1.32 3 2.64 3 4 C2.01 4 1.02 4 0 4 C0 2.68 0 1.36 0 0 Z " fill="#2DC61D" transform="translate(133,40)"/><path d="M0 0 C0.99 0 1.98 0 3 0 C3 1.32 3 2.64 3 4 C2.01 4 1.02 4 0 4 C0 2.68 0 1.36 0 0 Z " fill="#28C517" transform="translate(153,32)"/><path d="M0 0 C0.99 0 1.98 0 3 0 C3 1.32 3 2.64 3 4 C2.01 4 1.02 4 0 4 C0 2.68 0 1.36 0 0 Z " fill="#9FE19B" transform="translate(283,251)"/><path d="M0 0 C1.32 0 2.64 0 4 0 C4 0.99 4 1.98 4 3 C2.68 3 1.36 3 0 3 C0 2.01 0 1.02 0 0 Z " fill="#9A9A9F" transform="translate(95,240)"/><path d="M0 0 C0.66 0 1.32 0 2 0 C2 1.65 2 3.3 2 5 C1.34 5 0.68 5 0 5 C-0.33 4.01 -0.66 3.02 -1 2 C-0.67 1.34 -0.34 0.68 0 0 Z " fill="#32323A" transform="translate(190,219)"/><path d="M0 0 C0.99 0 1.98 0 3 0 C2.67 1.32 2.34 2.64 2 4 C1.01 3.67 0.02 3.34 -1 3 C-0.67 2.01 -0.34 1.02 0 0 Z " fill="#5A7E57" transform="translate(330,192)"/><path d="M0 0 C1.32 0.33 2.64 0.66 4 1 C3.01 2.49 3.01 2.49 2 4 C1.34 3.67 0.68 3.34 0 3 C0 2.01 0 1.02 0 0 Z " fill="#302931" transform="translate(339,192)"/><path d="M0 0 C2.47 0.99 2.47 0.99 5 2 C4.34 2.66 3.68 3.32 3 4 C1.5 3.12 1.5 3.12 0 2 C0 1.34 0 0.68 0 0 Z " fill="#A6E2A2" transform="translate(140,90)"/><path d="M0 0 C0.33 1.32 0.66 2.64 1 4 C-0.65 4 -2.3 4 -4 4 C-2.68 2.68 -1.36 1.36 0 0 Z " fill="#4DCE40" transform="translate(149,48)"/><path d="M0 0 C-0.66 1.32 -1.32 2.64 -2 4 C-2.66 4 -3.32 4 -4 4 C-4 3.01 -4 2.02 -4 1 C-2 0 -2 0 0 0 Z " fill="#01ABDA" transform="translate(45,75)"/><path d="M0 0 C0.66 0 1.32 0 2 0 C2.33 1.32 2.66 2.64 3 4 C2.01 4 1.02 4 0 4 C0 2.68 0 1.36 0 0 Z " fill="#999A9F" transform="translate(28,49)"/><path d="M0 0 C0.99 0 1.98 0 3 0 C3 0.99 3 1.98 3 3 C2.01 3 1.02 3 0 3 C0 2.01 0 1.02 0 0 Z " fill="#585960" transform="translate(376,253)"/><path d="M0 0 C0.99 0 1.98 0 3 0 C3 0.99 3 1.98 3 3 C2.01 3 1.02 3 0 3 C0 2.01 0 1.02 0 0 Z " fill="#6D6D74" transform="translate(371,253)"/><path d="M0 0 C0.99 0 1.98 0 3 0 C3 0.99 3 1.98 3 3 C2.01 3 1.02 3 0 3 C0 2.01 0 1.02 0 0 Z " fill="#88D981" transform="translate(287,251)"/><path d="M0 0 C0.99 0 1.98 0 3 0 C3 0.99 3 1.98 3 3 C2.01 3 1.02 3 0 3 C0 2.01 0 1.02 0 0 Z " fill="#98DD93" transform="translate(279,251)"/><path d="M0 0 C0.99 0 1.98 0 3 0 C3 0.99 3 1.98 3 3 C2.01 3 1.02 3 0 3 C0 2.01 0 1.02 0 0 Z " fill="#ADDFAA" transform="translate(275,251)"/><path d="M0 0 C0.99 0 1.98 0 3 0 C3 0.99 3 1.98 3 3 C2.01 3 1.02 3 0 3 C0 2.01 0 1.02 0 0 Z " fill="#BDE6BF" transform="translate(262,251)"/><path d="M0 0 C0.99 0 1.98 0 3 0 C3 0.99 3 1.98 3 3 C2.01 3 1.02 3 0 3 C0 2.01 0 1.02 0 0 Z " fill="#BAE9B6" transform="translate(256,251)"/><path d="M0 0 C0.99 0 1.98 0 3 0 C3 0.99 3 1.98 3 3 C2.01 3 1.02 3 0 3 C0 2.01 0 1.02 0 0 Z " fill="#A9E1A8" transform="translate(243,251)"/><path d="M0 0 C0.99 0 1.98 0 3 0 C3 0.99 3 1.98 3 3 C2.01 3 1.02 3 0 3 C0 2.01 0 1.02 0 0 Z " fill="#96DD94" transform="translate(239,251)"/><path d="M0 0 C0.99 0 1.98 0 3 0 C3 0.99 3 1.98 3 3 C2.01 3 1.02 3 0 3 C0 2.01 0 1.02 0 0 Z " fill="#89DE81" transform="translate(235,251)"/><path d="M0 0 C0.99 0 1.98 0 3 0 C3 0.99 3 1.98 3 3 C2.01 3 1.02 3 0 3 C0 2.01 0 1.02 0 0 Z " fill="#98DB93" transform="translate(231,251)"/><path d="M0 0 C0.99 0 1.98 0 3 0 C3 0.99 3 1.98 3 3 C2.01 3 1.02 3 0 3 C0 2.01 0 1.02 0 0 Z " fill="#ACE5A7" transform="translate(218,251)"/><path d="M0 0 C0.99 0 1.98 0 3 0 C3 0.99 3 1.98 3 3 C2.01 3 1.02 3 0 3 C0 2.01 0 1.02 0 0 Z " fill="#ACE5A7" transform="translate(214,251)"/><path d="M0 0 C0.99 0 1.98 0 3 0 C3 0.99 3 1.98 3 3 C2.01 3 1.02 3 0 3 C0 2.01 0 1.02 0 0 Z " fill="#BCE9B9" transform="translate(206,251)"/><path d="M0 0 C0.99 0 1.98 0 3 0 C3 0.99 3 1.98 3 3 C2.01 3 1.02 3 0 3 C0 2.01 0 1.02 0 0 Z " fill="#BCE9B9" transform="translate(197,251)"/><path d="M0 0 C0.99 0 1.98 0 3 0 C2.67 1.32 2.34 2.64 2 4 C1.34 3.67 0.68 3.34 0 3 C0 2.01 0 1.02 0 0 Z " fill="#7C7C82" transform="translate(209,190)"/><path d="M0 0 C0.66 0 1.32 0 2 0 C2 0.99 2 1.98 2 3 C0.68 2.67 -0.64 2.34 -2 2 C-1.34 1.34 -0.68 0.68 0 0 Z " fill="#C3EAC2" transform="translate(202,149)"/><path d="M0 0 C0.99 0 1.98 0 3 0 C3 0.99 3 1.98 3 3 C2.01 3 1.02 3 0 3 C0 2.01 0 1.02 0 0 Z " fill="#35C826" transform="translate(359,133)"/><path d="M0 0 C1.32 0.66 2.64 1.32 4 2 C3.01 2.33 2.02 2.66 1 3 C0.34 2.34 -0.32 1.68 -1 1 C-0.67 0.67 -0.34 0.34 0 0 Z " fill="#AEE4AB" transform="translate(124,66)"/><path d="M0 0 C0.66 0 1.32 0 2 0 C1.34 1.32 0.68 2.64 0 4 C-0.33 3.01 -0.66 2.02 -1 1 C-0.67 0.67 -0.34 0.34 0 0 Z " fill="#E5E4F0" transform="translate(424,221)"/><path d="M0 0 C0.99 0 1.98 0 3 0 C2.67 0.99 2.34 1.98 2 3 C1.34 3 0.68 3 0 3 C0 2.01 0 1.02 0 0 Z " fill="#66A862" transform="translate(358,191)"/><path d="M0 0 C0.66 0 1.32 0 2 0 C2 0.99 2 1.98 2 3 C1.01 3 0.02 3 -1 3 C-0.67 2.01 -0.34 1.02 0 0 Z " fill="#3ECA30" transform="translate(218,164)"/><path d="M0 0 C0.99 0 1.98 0 3 0 C2.67 0.99 2.34 1.98 2 3 C1.34 3 0.68 3 0 3 C0 2.01 0 1.02 0 0 Z " fill="#BEE7BB" transform="translate(196,144)"/><path d="M0 0 C0.66 1.32 1.32 2.64 2 4 C1.01 3.67 0.02 3.34 -1 3 C-0.67 2.01 -0.34 1.02 0 0 Z " fill="#AAE4A6" transform="translate(170,117)"/><path d="M0 0 C0.99 0.33 1.98 0.66 3 1 C3 1.66 3 2.32 3 3 C2.01 2.67 1.02 2.34 0 2 C0 1.34 0 0.68 0 0 Z " fill="#A6E3A2" transform="translate(212,159)"/><path d="M0 0 C0.99 0.33 1.98 0.66 3 1 C2.34 1.66 1.68 2.32 1 3 C0.34 2.34 -0.32 1.68 -1 1 C-0.67 0.67 -0.34 0.34 0 0 Z " fill="#A4E39E" transform="translate(190,138)"/><path d="M0 0 C0.99 0.33 1.98 0.66 3 1 C2.34 1.66 1.68 2.32 1 3 C0.34 2.34 -0.32 1.68 -1 1 C-0.67 0.67 -0.34 0.34 0 0 Z " fill="#A4E39F" transform="translate(179,127)"/><path d="M0 0 C0.99 0.33 1.98 0.66 3 1 C2.34 1.66 1.68 2.32 1 3 C0.34 2.34 -0.32 1.68 -1 1 C-0.67 0.67 -0.34 0.34 0 0 Z " fill="#A3E39E" transform="translate(165,114)"/><path d="M0 0 C0.99 0.33 1.98 0.66 3 1 C2.34 1.66 1.68 2.32 1 3 C0.34 2.34 -0.32 1.68 -1 1 C-0.67 0.67 -0.34 0.34 0 0 Z " fill="#A7E3A2" transform="translate(161,110)"/><path d="M0 0 C0.66 0 1.32 0 2 0 C1.67 0.99 1.34 1.98 1 3 C0.34 3 -0.32 3 -1 3 C-0.67 2.01 -0.34 1.02 0 0 Z " fill="#32C723" transform="translate(121,60)"/><path d="M0 0 C0.66 0.33 1.32 0.66 2 1 C2 1.66 2 2.32 2 3 C1.01 2.67 0.02 2.34 -1 2 C-0.67 1.34 -0.34 0.68 0 0 Z " fill="#C5EDC2" transform="translate(168,115)"/><path d="M0 0 C0.99 0.33 1.98 0.66 3 1 C2.34 1.66 1.68 2.32 1 3 C0.67 2.01 0.34 1.02 0 0 Z " fill="#A4E39F" transform="translate(155,105)"/><path d="M0 0 C0.66 0.66 1.32 1.32 2 2 C1.01 2.33 0.02 2.66 -1 3 C-0.67 2.01 -0.34 1.02 0 0 Z " fill="#242933" transform="translate(48,88)"/></svg>