<svg xmlns="http://www.w3.org/2000/svg" width="435" height="314" viewBox="0 0 435 314"><path d="M0 0 C143.55 0 287.1 0 435 0 C435 103.62 435 207.24 435 314 C291.45 314 147.9 314 0 314 C0 210.38 0 106.76 0 0 Z " fill="#F9F9FD" transform="translate(0,0)"/><path d="M0 0 C1.05 -0.01 2.09 -0.02 3.17 -0.02 C19.06 0.02 33.73 3.03 45.62 14.25 C50.45 19.53 54.23 25.5 56.62 32.25 C57.29 32.25 57.94 32.25 58.62 32.25 C59.75 36 59.75 36 58.62 38.25 C60.61 37.92 62.58 37.59 64.62 37.25 C64.62 36.26 64.62 35.27 64.62 34.25 C63.31 34.58 61.99 34.91 60.62 35.25 C60.3 34.26 59.96 33.27 59.62 32.25 C62 31.62 62 31.62 64.62 31.25 C66.62 33.25 66.62 33.25 66.88 36.25 C66.62 39.25 66.62 39.25 64.62 41.25 C61.5 41.38 61.5 41.38 58.62 41.25 C58.66 42.34 58.69 43.43 58.73 44.55 C58.98 55.66 57.92 64.86 53.62 75.25 C54.29 75.25 54.94 75.25 55.62 75.25 C55.95 73.6 56.29 71.95 56.62 70.25 C57.62 70.25 58.61 70.25 59.62 70.25 C59.08 74.84 57.75 78.17 55.62 82.25 C55.46 82.91 55.3 83.57 55.12 84.25 C54.57 86.48 53.57 88.32 52.51 90.35 C50.97 93.66 49.82 97.13 48.6 100.57 C47.4 103.86 46.04 107.04 44.62 110.25 C43.95 111.91 43.29 113.58 42.62 115.25 C38.62 125.25 38.62 125.25 37.57 127.86 C36.48 130.62 35.55 133.42 34.62 136.25 C35.29 135.59 35.94 134.93 36.62 134.25 C36.62 133.59 36.62 132.93 36.62 132.25 C39.26 131.92 41.9 131.59 44.62 131.25 C44.62 130.26 44.62 129.27 44.62 128.25 C45.94 127.59 47.26 126.93 48.62 126.25 C48.62 125.59 48.62 124.93 48.62 124.25 C51.26 123.92 53.9 123.59 56.62 123.25 C55.31 122.26 53.99 121.27 52.62 120.25 C55.26 119.92 57.9 119.59 60.62 119.25 C60.62 118.26 60.62 117.27 60.62 116.25 C63.26 115.92 65.9 115.59 68.62 115.25 C68.62 114.26 68.62 113.27 68.62 112.25 C71.26 111.92 73.9 111.59 76.62 111.25 C75.31 110.26 73.99 109.27 72.62 108.25 C78.56 107.75 78.56 107.75 84.62 107.25 C84.62 106.26 84.62 105.27 84.62 104.25 C90.56 103.75 90.56 103.75 96.62 103.25 C95.31 102.26 93.99 101.27 92.62 100.25 C98.89 99.92 105.17 99.59 111.62 99.25 C111.95 98.26 112.29 97.27 112.62 96.25 C115.93 96.25 119.23 96.25 122.62 96.25 C122.62 163.9 122.62 231.55 122.62 301.25 C57.94 301.25 -6.74 301.25 -73.38 301.25 C-71.37 298.24 -70.54 297.62 -67.38 296.25 C-68.03 295.59 -68.69 294.93 -69.38 294.25 C-68.72 293.59 -68.06 292.93 -67.38 292.25 C-67.38 291.59 -67.38 290.93 -67.38 290.25 C-66.72 289.59 -66.06 288.93 -65.38 288.25 C-65.38 287.59 -65.38 286.93 -65.38 286.25 C-64.72 285.59 -64.06 284.93 -63.38 284.25 C-63.38 283.59 -63.38 282.93 -63.38 282.25 C-61.06 281.92 -58.75 281.59 -56.38 281.25 C-56.38 277.3 -57.93 276.27 -60.38 273.25 C-62.79 268.67 -63.17 264.21 -61.84 259.25 C-60.22 254.43 -58.36 249.8 -56.27 245.16 C-46.45 223.31 -42.17 204.04 -42.38 180.25 C-43.16 179.8 -43.94 179.34 -44.75 178.88 C-47.38 177.25 -47.38 177.25 -49.38 175.25 C-49.05 171.95 -48.75 170.63 -46.38 168.25 C-43.25 168.12 -43.25 168.12 -40.38 168.25 C-39.72 169.57 -39.06 170.89 -38.38 172.25 C-37.69 171.78 -37.69 171.78 -36.99 171.31 C-31.54 167.73 -25.95 165.27 -19.88 162.94 C-18.96 162.58 -18.04 162.22 -17.09 161.85 C-14.86 160.98 -12.62 160.11 -10.38 159.25 C-11.01 159.11 -11.64 158.97 -12.3 158.83 C-14.38 158.25 -14.38 158.25 -15.62 157 C-16.63 154.66 -16.57 152.77 -16.38 150.25 C-16.05 149.92 -15.71 149.59 -15.38 149.25 C-20.43 149.91 -24.95 151.38 -29.75 153.06 C-35.8 155.13 -41.85 157.02 -48.06 158.56 C-48.7 158.72 -49.33 158.88 -49.98 159.04 C-54.09 160.04 -58.18 160.71 -62.38 161.25 C-62.02 161.64 -61.67 162.03 -61.31 162.44 C-59.98 165.02 -60.54 166.53 -61.38 169.25 C-63.38 171.25 -63.38 171.25 -65.81 171.56 C-68.38 171.25 -68.38 171.25 -70.25 170.19 C-72.04 167.1 -71.09 164.68 -70.38 161.25 C-71.32 161.3 -71.32 161.3 -72.28 161.35 C-79.72 161.57 -86.54 160.43 -93.75 158.8 C-96.93 158.08 -100.12 157.4 -103.31 156.72 C-104.23 156.52 -104.23 156.52 -105.18 156.32 C-111.87 154.9 -118.57 153.93 -125.38 153.25 C-125.04 153.69 -124.71 154.14 -124.36 154.59 C-123.38 156.25 -123.38 156.25 -123.56 158.75 C-124.45 161.47 -124.97 162.7 -127.38 164.25 C-130.72 164.01 -131.98 163.64 -134.38 161.25 C-134.5 158.62 -134.5 158.62 -134.38 156.25 C-143.43 159.52 -151.17 164.07 -159.12 169.44 C-168.6 175.8 -168.6 175.8 -173.38 175.25 C-173.02 175.6 -172.67 175.95 -172.31 176.31 C-170.82 179.4 -171.75 181.93 -172.38 185.25 C-178.82 186.59 -178.82 186.59 -181.31 185.06 C-182.56 182.93 -182.46 181.68 -182.38 179.25 C-183.21 179.26 -184.05 179.27 -184.92 179.28 C-199.42 179.45 -213.9 179.54 -228.38 178.44 C-229.37 178.37 -230.37 178.3 -231.4 178.23 C-244.01 177.14 -253.41 172.27 -261.61 162.6 C-264.71 158.48 -267.38 154.49 -267.38 149.25 C-267.73 149.6 -268.08 149.95 -268.44 150.31 C-271.52 151.8 -274.06 150.88 -277.38 150.25 C-278.7 143.86 -278.7 143.86 -277.31 141.25 C-274.5 139.8 -272.41 140.66 -269.38 141.25 C-269.35 140.02 -269.35 140.02 -269.33 138.76 C-268.74 124.97 -262.21 116.43 -254.36 105.46 C-247.14 95.32 -241.58 84.86 -236.32 73.56 C-233.85 68.26 -231.27 63.14 -228.28 58.12 C-227.16 56.15 -227.16 56.15 -227.38 53.25 C-227.73 52.78 -228.08 52.3 -228.44 51.81 C-229.38 50.25 -229.38 50.25 -229.19 48.25 C-228.22 45.88 -227.51 44.7 -225.38 43.25 C-222.88 43.31 -222.88 43.31 -220.38 44.25 C-217.38 47.46 -217.38 47.46 -217.38 50.25 C-216.27 50.28 -215.17 50.3 -214.04 50.33 C-193.29 51.02 -173.76 55.38 -158.38 70.25 C-155.75 73.31 -153.4 76.48 -151.38 79.97 C-151.05 80.39 -150.72 80.81 -150.38 81.25 C-147.79 81.5 -147.79 81.5 -145.38 81.25 C-144.72 82.57 -144.06 83.89 -143.38 85.25 C-146.01 84.92 -148.66 84.59 -151.38 84.25 C-151.38 85.57 -151.38 86.89 -151.38 88.25 C-148.74 87.92 -146.09 87.59 -143.38 87.25 C-144.25 91.13 -144.25 91.13 -145.38 92.25 C-147.78 92.32 -150.06 92.3 -152.44 91.94 C-155.06 92.36 -155.51 93.72 -157.02 95.76 C-163.63 103.05 -173.09 104.64 -182.31 106.06 C-184.14 106.36 -185.97 106.67 -187.8 106.98 C-189.43 107.25 -191.07 107.51 -192.71 107.77 C-195.47 108.2 -195.47 108.2 -198.38 109.25 C-167.35 109.25 -136.33 109.25 -104.38 109.25 C-104.71 109.91 -105.03 110.57 -105.38 111.25 C-105.89 111.25 -106.4 111.25 -106.93 111.25 C-119.44 111.27 -131.95 111.31 -144.47 111.38 C-150.52 111.42 -156.57 111.44 -162.62 111.45 C-168.46 111.45 -174.3 111.48 -180.15 111.52 C-182.37 111.54 -184.6 111.54 -186.82 111.54 C-189.95 111.53 -193.07 111.56 -196.2 111.59 C-197.11 111.58 -198.03 111.57 -198.97 111.56 C-205.22 111.68 -209.57 113.16 -214.38 117.25 C-216.25 121.01 -215.51 125.52 -215.19 129.62 C-214.47 131.46 -214.47 131.46 -212.28 132.28 C-187.61 140.5 -155.41 135.75 -130.38 131.25 C-129.56 131.11 -128.75 130.96 -127.91 130.81 C-104.83 126.53 -81.61 117.37 -60.62 107.06 C-59.64 106.58 -59.64 106.58 -58.64 106.09 C-54.83 104.17 -51.48 102.2 -48.38 99.25 C-48.12 96.17 -48.12 96.17 -48.38 93.25 C-46.38 91.25 -46.38 91.25 -43.44 90.88 C-40.38 91.25 -40.38 91.25 -38.44 92.94 C-37.1 95.85 -37.52 97.21 -38.38 100.25 C-38.38 103.42 -37.96 104.31 -36.38 106.94 C-36 107.56 -35.63 108.18 -35.25 108.82 C-34.82 109.53 -34.82 109.53 -34.38 110.25 C-33.72 108.27 -33.06 106.29 -32.38 104.25 C-27.1 103.27 -27.1 103.27 -25.38 103.25 C-24.72 103.91 -24.06 104.57 -23.38 105.25 C-24.05 100.4 -24.8 95.57 -25.61 90.75 C-25.73 90.04 -25.85 89.33 -25.97 88.6 C-26.22 87.08 -26.48 85.56 -26.73 84.05 C-27.13 81.66 -27.53 79.27 -27.93 76.89 C-29.12 69.74 -30.32 62.59 -31.52 55.44 C-31.99 52.66 -32.45 49.88 -32.92 47.09 C-33.25 45.15 -33.57 43.21 -33.9 41.27 C-34.1 40.09 -34.3 38.92 -34.49 37.74 C-34.66 36.72 -34.83 35.71 -35.01 34.66 C-35.38 32.25 -35.38 32.25 -35.38 30.25 C-47.91 30.25 -60.46 30.25 -73.38 30.25 C-73.38 34.54 -73.38 38.83 -73.38 43.25 C-75.98 44.55 -77.9 44.38 -80.82 44.38 C-82.53 44.38 -82.53 44.38 -84.27 44.39 C-85.51 44.39 -86.76 44.39 -88 44.38 C-89.28 44.38 -90.55 44.38 -91.82 44.39 C-94.49 44.39 -97.16 44.39 -99.82 44.38 C-103.25 44.37 -106.68 44.38 -110.1 44.38 C-112.73 44.39 -115.36 44.39 -117.98 44.38 C-119.25 44.38 -120.51 44.38 -121.77 44.39 C-123.54 44.39 -125.3 44.38 -127.06 44.38 C-128.07 44.38 -129.07 44.38 -130.1 44.38 C-132.38 44.25 -132.38 44.25 -133.38 43.25 C-133.47 41.26 -133.51 39.27 -133.51 37.28 C-133.51 36.69 -133.51 36.09 -133.51 35.48 C-133.51 34.22 -133.51 32.95 -133.51 31.69 C-133.5 29.76 -133.51 27.82 -133.51 25.89 C-133.51 24.66 -133.51 23.44 -133.51 22.22 C-133.51 21.1 -133.51 19.98 -133.5 18.83 C-133.38 16.25 -133.38 16.25 -132.38 15.25 C-130.57 15.15 -128.76 15.12 -126.95 15.12 C-126.39 15.12 -125.82 15.12 -125.24 15.12 C-123.37 15.11 -121.5 15.11 -119.62 15.12 C-118.33 15.12 -117.03 15.12 -115.74 15.11 C-113.01 15.11 -110.29 15.11 -107.57 15.12 C-104.08 15.13 -100.59 15.12 -97.09 15.12 C-94.41 15.11 -91.74 15.11 -89.06 15.12 C-87.77 15.12 -86.48 15.12 -85.19 15.11 C-83.39 15.11 -81.6 15.12 -79.8 15.12 C-78.77 15.12 -77.75 15.12 -76.69 15.12 C-74.38 15.25 -74.38 15.25 -73.38 16.25 C-73.38 20.54 -73.38 24.83 -73.38 29.25 C-61.16 29.25 -48.95 29.25 -36.38 29.25 C-36.38 25.62 -36.38 21.99 -36.38 18.25 C-34.88 14.06 -34.88 14.06 -33.38 11.25 C-35.02 10.92 -36.68 10.59 -38.38 10.25 C-39.35 4.98 -39.35 4.98 -39.38 3.25 C-37.38 1.25 -37.38 1.25 -33.94 0.88 C-30.98 0.94 -30.6 1.01 -28.44 3.25 C-28.09 3.91 -27.74 4.57 -27.38 5.25 C-26.45 4.57 -26.45 4.57 -25.5 3.88 C-18.03 -0.55 -8.38 -0.06 0 0 Z " fill="#EEEDFD" transform="translate(312.375,12.75)"/><path d="M0 0 C1.02 0.01 2.03 0.02 3.08 0.02 C17.08 0.23 28.42 2.07 39.06 12.06 C48.01 21.65 49.16 31.08 48.97 43.66 C48.6 52.63 44.8 60.27 41.03 68.29 C39.75 71.11 38.62 73.95 37.53 76.85 C34.39 85.11 31.06 93.28 27.73 101.46 C25.83 106.14 23.94 110.81 22.05 115.48 C21.67 116.41 21.29 117.34 20.91 118.29 C17.71 126.19 14.53 134.09 11.38 142 C11.02 142.88 11.02 142.88 10.66 143.79 C8.19 149.96 5.73 156.13 3.28 162.31 C2.2 165.03 1.12 167.75 0.03 170.47 C-0.72 172.36 -1.47 174.25 -2.22 176.15 C-4.31 181.42 -6.46 186.65 -8.84 191.81 C-11.36 197.25 -13.55 202.8 -15.71 208.39 C-19.94 219.36 -24.32 230.26 -28.81 241.12 C-29.07 241.74 -29.32 242.36 -29.59 243 C-30.31 244.77 -31.05 246.54 -31.78 248.3 C-32.2 249.31 -32.62 250.32 -33.04 251.35 C-37.45 261.43 -37.45 261.43 -41.31 263.25 C-44.62 263.36 -47.35 262.83 -50.19 261.12 C-52 258.11 -52.61 255.71 -52.31 252.25 C-50.27 245.51 -47.29 239.14 -44.41 232.73 C-36.81 215.57 -32.78 200.32 -32.82 181.48 C-32.8 180.36 -32.79 179.24 -32.78 178.08 C-32.79 176.58 -32.79 176.58 -32.79 175.04 C-32.17 171.45 -30.86 169.83 -28.31 167.25 C-26.33 166.1 -26.33 166.1 -24.27 165.37 C-23.5 165.09 -22.74 164.81 -21.95 164.52 C-21.16 164.24 -20.38 163.97 -19.56 163.69 C-7.36 159.74 -7.36 159.74 1.69 151.25 C2.1 150.65 2.51 150.05 2.94 149.44 C4.28 145.52 4.6 141.41 2.96 137.54 C0.43 133.49 -2.61 130.14 -7.26 128.61 C-15.96 127.02 -24.16 130.55 -32.31 133.25 C-58.39 141.65 -79.16 142.95 -105.81 135.88 C-112.27 134.25 -118.68 134.02 -125.31 134.25 C-125.99 134.26 -126.66 134.26 -127.36 134.27 C-140.8 134.97 -152.57 143 -163.5 150.09 C-166.06 151.73 -168.66 153.26 -171.31 154.75 C-172.1 155.19 -172.88 155.64 -173.69 156.09 C-182.05 159.78 -190.47 159.57 -199.44 159.5 C-200.5 159.49 -200.5 159.49 -201.58 159.49 C-240.16 159.27 -240.16 159.27 -250.31 150.53 C-256.71 144.04 -259.76 135.67 -259.75 126.61 C-258.48 119.69 -255.26 114.26 -251.19 108.62 C-250.2 107.21 -249.21 105.8 -248.22 104.39 C-247.73 103.69 -247.24 102.99 -246.73 102.27 C-239.89 92.53 -234.43 82.66 -229.46 71.84 C-226.68 65.83 -223.6 60 -220.31 54.25 C-220.02 53.71 -219.73 53.18 -219.43 52.62 C-218.31 51.25 -218.31 51.25 -214.96 50.82 C-213.54 50.79 -212.11 50.79 -210.69 50.81 C-209.93 50.82 -209.17 50.83 -208.39 50.84 C-192.5 51.3 -176.51 56.74 -164.77 67.67 C-162.12 70.54 -162.12 70.54 -161.31 72.25 C-161.62 75.58 -162.83 77.16 -165.31 79.31 C-172.43 84.99 -180.77 85.7 -189.5 87.06 C-198.95 88.58 -208.04 91.32 -216.31 96.25 C-216.87 96.57 -217.42 96.89 -217.99 97.23 C-223.23 100.85 -224.56 106.37 -226.31 112.25 C-227.7 111.97 -227.7 111.97 -229.12 111.69 C-232.33 111.01 -232.33 111.01 -235.31 112.25 C-235.17 113.38 -235.02 114.52 -234.88 115.69 C-234.79 116.33 -234.71 116.96 -234.63 117.62 C-234.46 119.29 -234.46 119.29 -233.31 120.25 C-229.17 120.5 -229.17 120.5 -225.31 119.25 C-225.08 119.78 -224.85 120.31 -224.61 120.86 C-222.51 125.42 -220.74 128.57 -216.31 131.25 C-189.12 139.92 -156.95 135.85 -129.31 131.25 C-128.43 131.11 -127.56 130.96 -126.65 130.81 C-101.26 126.43 -71.26 116.41 -49.51 102.45 C-48.78 102.05 -48.06 101.66 -47.31 101.25 C-44.31 102.25 -44.31 102.25 -42.5 105.06 C-40.35 108.39 -38.1 110.88 -34.31 112.25 C-29.25 112.91 -24.88 113.02 -20.25 110.75 C-19.61 110.25 -18.97 109.76 -18.31 109.25 C-17.65 109.25 -16.99 109.25 -16.31 109.25 C-16 108.45 -15.69 107.64 -15.38 106.81 C-14.31 104.25 -14.31 104.25 -13.31 103.25 C-12.73 96.38 -13.2 89.91 -14.68 83.22 C-15.75 78.12 -16.72 73.03 -17.52 67.88 C-17.62 67.27 -17.71 66.67 -17.81 66.04 C-18.01 64.79 -18.2 63.54 -18.39 62.3 C-20.2 50.6 -22.23 39 -24.79 27.44 C-27.99 12.44 -27.99 12.44 -25.16 7.07 C-22.08 2.71 -19.02 1.61 -13.9 0.61 C-9.27 -0.03 -4.67 -0.05 0 0 Z " fill="#F8F8FC" transform="translate(312.3125,22.75)"/><path d="M0 0 C1.05 -0.01 2.09 -0.02 3.17 -0.02 C19.06 0.02 33.73 3.03 45.62 14.25 C50.45 19.53 54.23 25.5 56.62 32.25 C57.29 32.25 57.94 32.25 58.62 32.25 C59.75 36 59.75 36 58.62 38.25 C60.61 37.92 62.58 37.59 64.62 37.25 C64.62 36.26 64.62 35.27 64.62 34.25 C63.31 34.58 61.99 34.91 60.62 35.25 C60.3 34.26 59.96 33.27 59.62 32.25 C62 31.62 62 31.62 64.62 31.25 C66.62 33.25 66.62 33.25 66.88 36.25 C66.62 39.25 66.62 39.25 64.62 41.25 C61.5 41.38 61.5 41.38 58.62 41.25 C58.66 42.34 58.69 43.43 58.73 44.55 C59.01 57 57.39 67.01 51.94 78.34 C50.49 81.55 49.33 84.8 48.19 88.12 C46.47 93.1 44.49 97.83 42.21 102.58 C39.41 108.53 36.99 114.64 34.56 120.75 C34.15 121.78 33.74 122.81 33.32 123.88 C31.29 128.98 29.3 134.09 27.35 139.22 C23.38 149.55 19.16 159.79 14.99 170.04 C13.88 172.78 12.77 175.51 11.66 178.25 C11.3 179.12 10.95 180 10.58 180.9 C8.2 186.8 5.88 192.71 3.64 198.66 C2.64 201.22 1.54 203.7 0.38 206.19 C-2.21 211.76 -4.55 217.44 -6.88 223.12 C-7.24 224.02 -7.61 224.92 -7.99 225.84 C-11.11 233.51 -14.08 241.23 -17.03 248.97 C-18.36 252.45 -19.7 255.92 -21.07 259.38 C-21.53 260.55 -21.98 261.72 -22.42 262.9 C-25.57 271.19 -28.88 278.09 -36.88 282.69 C-40.14 283.42 -43.03 283.38 -46.38 283.25 C-46.56 284.43 -46.56 284.43 -46.75 285.62 C-47.38 288.25 -47.38 288.25 -49.38 290.25 C-52.22 290.61 -53.76 290.65 -56.19 289.06 C-57.79 286.62 -57.73 285.12 -57.38 282.25 C-56.36 280.59 -56.36 280.59 -55.38 279.25 C-55.71 278.87 -56.05 278.5 -56.4 278.11 C-60.46 273.45 -62.84 269.62 -62.63 263.18 C-61.8 256.89 -58.85 250.89 -56.27 245.16 C-46.45 223.31 -42.17 204.04 -42.38 180.25 C-43.16 179.8 -43.94 179.34 -44.75 178.88 C-47.38 177.25 -47.38 177.25 -49.38 175.25 C-49.05 171.95 -48.75 170.63 -46.38 168.25 C-43.25 168.12 -43.25 168.12 -40.38 168.25 C-39.72 169.57 -39.06 170.89 -38.38 172.25 C-37.69 171.78 -37.69 171.78 -36.99 171.31 C-31.54 167.73 -25.95 165.27 -19.88 162.94 C-18.96 162.58 -18.04 162.22 -17.09 161.85 C-14.86 160.98 -12.62 160.11 -10.38 159.25 C-11.01 159.11 -11.64 158.97 -12.3 158.83 C-14.38 158.25 -14.38 158.25 -15.62 157 C-16.63 154.66 -16.57 152.77 -16.38 150.25 C-16.05 149.92 -15.71 149.59 -15.38 149.25 C-20.43 149.91 -24.95 151.38 -29.75 153.06 C-35.8 155.13 -41.85 157.02 -48.06 158.56 C-48.7 158.72 -49.33 158.88 -49.98 159.04 C-54.09 160.04 -58.18 160.71 -62.38 161.25 C-62.02 161.64 -61.67 162.03 -61.31 162.44 C-59.98 165.02 -60.54 166.53 -61.38 169.25 C-63.38 171.25 -63.38 171.25 -65.81 171.56 C-68.38 171.25 -68.38 171.25 -70.25 170.19 C-72.04 167.1 -71.09 164.68 -70.38 161.25 C-71.32 161.3 -71.32 161.3 -72.28 161.35 C-79.72 161.57 -86.54 160.43 -93.75 158.8 C-96.93 158.08 -100.12 157.4 -103.31 156.72 C-104.23 156.52 -104.23 156.52 -105.18 156.32 C-111.87 154.9 -118.57 153.93 -125.38 153.25 C-125.04 153.69 -124.71 154.14 -124.36 154.59 C-123.38 156.25 -123.38 156.25 -123.56 158.75 C-124.45 161.47 -124.97 162.7 -127.38 164.25 C-130.72 164.01 -131.98 163.64 -134.38 161.25 C-134.5 158.62 -134.5 158.62 -134.38 156.25 C-143.43 159.52 -151.17 164.07 -159.12 169.44 C-168.6 175.8 -168.6 175.8 -173.38 175.25 C-173.02 175.6 -172.67 175.95 -172.31 176.31 C-170.82 179.4 -171.75 181.93 -172.38 185.25 C-178.82 186.59 -178.82 186.59 -181.31 185.06 C-182.56 182.93 -182.46 181.68 -182.38 179.25 C-183.21 179.26 -184.05 179.27 -184.92 179.28 C-199.42 179.45 -213.9 179.54 -228.38 178.44 C-229.37 178.37 -230.37 178.3 -231.4 178.23 C-244.01 177.14 -253.41 172.27 -261.61 162.6 C-264.71 158.48 -267.38 154.49 -267.38 149.25 C-267.73 149.6 -268.08 149.95 -268.44 150.31 C-271.52 151.8 -274.06 150.88 -277.38 150.25 C-278.7 143.86 -278.7 143.86 -277.31 141.25 C-274.5 139.8 -272.41 140.66 -269.38 141.25 C-269.35 140.02 -269.35 140.02 -269.33 138.76 C-268.74 124.97 -262.21 116.43 -254.36 105.46 C-247.14 95.32 -241.58 84.86 -236.32 73.56 C-233.85 68.26 -231.27 63.14 -228.28 58.12 C-227.16 56.15 -227.16 56.15 -227.38 53.25 C-227.73 52.78 -228.08 52.3 -228.44 51.81 C-229.38 50.25 -229.38 50.25 -229.19 48.25 C-228.22 45.88 -227.51 44.7 -225.38 43.25 C-222.88 43.31 -222.88 43.31 -220.38 44.25 C-217.38 47.46 -217.38 47.46 -217.38 50.25 C-216.27 50.28 -215.17 50.3 -214.04 50.33 C-193.29 51.02 -173.76 55.38 -158.38 70.25 C-155.75 73.31 -153.4 76.48 -151.38 79.97 C-151.05 80.39 -150.72 80.81 -150.38 81.25 C-147.79 81.5 -147.79 81.5 -145.38 81.25 C-144.72 82.57 -144.06 83.89 -143.38 85.25 C-146.01 84.92 -148.66 84.59 -151.38 84.25 C-151.38 85.57 -151.38 86.89 -151.38 88.25 C-148.74 87.92 -146.09 87.59 -143.38 87.25 C-144.25 91.13 -144.25 91.13 -145.38 92.25 C-147.78 92.32 -150.06 92.3 -152.44 91.94 C-155.06 92.36 -155.51 93.72 -157.02 95.76 C-163.63 103.05 -173.09 104.64 -182.31 106.06 C-184.14 106.36 -185.97 106.67 -187.8 106.98 C-189.43 107.25 -191.07 107.51 -192.71 107.77 C-195.47 108.2 -195.47 108.2 -198.38 109.25 C-167.35 109.25 -136.33 109.25 -104.38 109.25 C-104.71 109.91 -105.03 110.57 -105.38 111.25 C-105.89 111.25 -106.4 111.25 -106.93 111.25 C-119.44 111.27 -131.95 111.31 -144.47 111.38 C-150.52 111.42 -156.57 111.44 -162.62 111.45 C-168.46 111.45 -174.3 111.48 -180.15 111.52 C-182.37 111.54 -184.6 111.54 -186.82 111.54 C-189.95 111.53 -193.07 111.56 -196.2 111.59 C-197.11 111.58 -198.03 111.57 -198.97 111.56 C-205.22 111.68 -209.57 113.16 -214.38 117.25 C-216.25 121.01 -215.51 125.52 -215.19 129.62 C-214.47 131.46 -214.47 131.46 -212.28 132.28 C-187.61 140.5 -155.41 135.75 -130.38 131.25 C-129.56 131.11 -128.75 130.96 -127.91 130.81 C-104.83 126.53 -81.61 117.37 -60.62 107.06 C-59.64 106.58 -59.64 106.58 -58.64 106.09 C-54.83 104.17 -51.48 102.2 -48.38 99.25 C-48.12 96.17 -48.12 96.17 -48.38 93.25 C-46.38 91.25 -46.38 91.25 -43.44 90.88 C-40.38 91.25 -40.38 91.25 -38.44 92.94 C-37.1 95.85 -37.52 97.21 -38.38 100.25 C-38.38 103.42 -37.96 104.31 -36.38 106.94 C-36 107.56 -35.63 108.18 -35.25 108.82 C-34.82 109.53 -34.82 109.53 -34.38 110.25 C-33.72 108.27 -33.06 106.29 -32.38 104.25 C-27.1 103.27 -27.1 103.27 -25.38 103.25 C-24.72 103.91 -24.06 104.57 -23.38 105.25 C-24.05 100.4 -24.8 95.57 -25.61 90.75 C-25.73 90.04 -25.85 89.33 -25.97 88.6 C-26.22 87.08 -26.48 85.56 -26.73 84.05 C-27.13 81.66 -27.53 79.27 -27.93 76.89 C-29.12 69.74 -30.32 62.59 -31.52 55.44 C-31.99 52.66 -32.45 49.88 -32.92 47.09 C-33.25 45.15 -33.57 43.21 -33.9 41.27 C-34.1 40.09 -34.3 38.92 -34.49 37.74 C-34.66 36.72 -34.83 35.71 -35.01 34.66 C-35.38 32.25 -35.38 32.25 -35.38 30.25 C-47.91 30.25 -60.46 30.25 -73.38 30.25 C-73.38 34.54 -73.38 38.83 -73.38 43.25 C-75.98 44.55 -77.9 44.38 -80.82 44.38 C-82.53 44.38 -82.53 44.38 -84.27 44.39 C-85.51 44.39 -86.76 44.39 -88 44.38 C-89.28 44.38 -90.55 44.38 -91.82 44.39 C-94.49 44.39 -97.16 44.39 -99.82 44.38 C-103.25 44.37 -106.68 44.38 -110.1 44.38 C-112.73 44.39 -115.36 44.39 -117.98 44.38 C-119.25 44.38 -120.51 44.38 -121.77 44.39 C-123.54 44.39 -125.3 44.38 -127.06 44.38 C-128.07 44.38 -129.07 44.38 -130.1 44.38 C-132.38 44.25 -132.38 44.25 -133.38 43.25 C-133.47 41.26 -133.51 39.27 -133.51 37.28 C-133.51 36.69 -133.51 36.09 -133.51 35.48 C-133.51 34.22 -133.51 32.95 -133.51 31.69 C-133.5 29.76 -133.51 27.82 -133.51 25.89 C-133.51 24.66 -133.51 23.44 -133.51 22.22 C-133.51 21.1 -133.51 19.98 -133.5 18.83 C-133.38 16.25 -133.38 16.25 -132.38 15.25 C-130.57 15.15 -128.76 15.12 -126.95 15.12 C-126.39 15.12 -125.82 15.12 -125.24 15.12 C-123.37 15.11 -121.5 15.11 -119.62 15.12 C-118.33 15.12 -117.03 15.12 -115.74 15.11 C-113.01 15.11 -110.29 15.11 -107.57 15.12 C-104.08 15.13 -100.59 15.12 -97.09 15.12 C-94.41 15.11 -91.74 15.11 -89.06 15.12 C-87.77 15.12 -86.48 15.12 -85.19 15.11 C-83.39 15.11 -81.6 15.12 -79.8 15.12 C-78.77 15.12 -77.75 15.12 -76.69 15.12 C-74.38 15.25 -74.38 15.25 -73.38 16.25 C-73.38 20.54 -73.38 24.83 -73.38 29.25 C-61.16 29.25 -48.95 29.25 -36.38 29.25 C-36.38 25.62 -36.38 21.99 -36.38 18.25 C-34.88 14.06 -34.88 14.06 -33.38 11.25 C-35.02 10.92 -36.68 10.59 -38.38 10.25 C-39.35 4.98 -39.35 4.98 -39.38 3.25 C-37.38 1.25 -37.38 1.25 -33.94 0.88 C-30.98 0.94 -30.6 1.01 -28.44 3.25 C-28.09 3.91 -27.74 4.57 -27.38 5.25 C-26.45 4.57 -26.45 4.57 -25.5 3.88 C-18.03 -0.55 -8.38 -0.06 0 0 Z M-22.57 13.62 C-26.08 17.79 -26.8 20.68 -26.67 26.05 C-26.09 32.35 -24.8 38.53 -23.55 44.73 C-22.72 48.87 -21.92 53.02 -21.12 57.16 C-20.89 58.36 -20.89 58.36 -20.65 59.59 C-19.38 66.14 -18.28 72.71 -17.3 79.3 C-16.71 83.31 -15.97 87.25 -15.1 91.21 C-13.52 98.47 -12.28 105.82 -13.38 113.25 C-14.9 115.49 -14.9 115.49 -16.38 117.25 C-16.38 117.91 -16.38 118.57 -16.38 119.25 C-17.16 119.56 -17.94 119.87 -18.75 120.19 C-21.3 121.18 -21.3 121.18 -23.38 122.25 C-28.99 122.81 -34.51 123.3 -39.09 119.61 C-41.51 117.05 -43.49 114.22 -45.38 111.25 C-50.21 112.71 -54.52 114.74 -59 117.06 C-69.51 122.4 -80.28 126.73 -91.42 130.57 C-92.77 131.04 -94.12 131.51 -95.46 131.99 C-128.6 143.72 -183.78 156.12 -217.38 140.25 C-221.36 137.37 -223.43 133.65 -225.38 129.25 C-226.37 129.75 -226.37 129.75 -227.38 130.25 C-230.44 130.38 -230.44 130.38 -233.38 130.25 C-235.3 128.33 -235.05 124.82 -235.38 122.25 C-228.62 121.12 -228.62 121.12 -226.38 122.25 C-226.1 121.18 -226.1 121.18 -225.82 120.09 C-223.15 111.29 -219.19 107.38 -211.2 103.08 C-201.32 98.64 -189.88 96.94 -179.25 95.25 C-172.03 93.98 -165.92 91.12 -161.38 85.25 C-161.28 82.19 -162.94 79.96 -164.9 77.67 C-177.34 65.72 -193.67 61.28 -210.44 60.56 C-211.15 60.51 -211.87 60.45 -212.6 60.39 C-214.78 60.36 -216.34 60.48 -218.38 61.25 C-220.69 63.59 -221.97 66.3 -223.38 69.25 C-223.81 70.12 -224.24 70.99 -224.69 71.89 C-226.1 74.76 -227.46 77.66 -228.81 80.56 C-234.06 91.8 -239.45 102.45 -246.94 112.38 C-257.45 126.36 -257.45 126.36 -259.38 143.25 C-257.15 152.69 -252.62 159.95 -244.31 165.12 C-230.98 171.03 -213.97 169.44 -199.62 169.56 C-198.6 169.58 -198.6 169.58 -197.55 169.59 C-187.28 169.72 -178.25 168.79 -169.12 163.62 C-168.21 163.11 -167.29 162.59 -166.34 162.05 C-164.22 160.76 -162.15 159.45 -160.09 158.07 C-149.63 151.05 -138.33 144.4 -125.38 144.25 C-124.73 144.2 -124.09 144.15 -123.43 144.1 C-112.89 143.58 -102.05 146.63 -91.81 148.88 C-84.65 150.44 -84.65 150.44 -77.38 151.25 C-75.74 151.36 -75.74 151.36 -74.07 151.48 C-58.61 152.21 -44.15 147.75 -29.75 142.5 C-13.4 136.54 -13.4 136.54 -5.5 139.31 C-1.32 141.48 1.55 145.09 3.62 149.25 C4.57 154.98 3.25 158.71 0.11 163.49 C-3.56 167.84 -7.91 169.35 -13.12 171.19 C-24.2 174.65 -24.2 174.65 -32.38 182.25 C-32.81 184.98 -32.81 184.98 -32.75 187.98 C-32.76 189.11 -32.77 190.23 -32.79 191.39 C-32.79 191.98 -32.8 192.57 -32.8 193.18 C-32.93 210.41 -36.63 224.48 -43.38 240.25 C-43.83 241.33 -44.28 242.42 -44.73 243.5 C-45.36 245.02 -45.36 245.02 -46 246.56 C-46.4 247.52 -46.79 248.48 -47.2 249.47 C-47.98 251.31 -48.78 253.15 -49.61 254.97 C-51.93 260.25 -53.09 263.64 -51.38 269.25 C-50.09 271.39 -49.13 271.99 -46.8 272.79 C-44.11 273.39 -44.11 273.39 -41.38 273.25 C-37.43 270.56 -35.59 268.33 -33.87 263.9 C-33.44 262.84 -33.02 261.77 -32.58 260.67 C-32.14 259.51 -31.69 258.35 -31.25 257.19 C-30.78 255.98 -30.3 254.78 -29.83 253.58 C-28.84 251.08 -27.85 248.57 -26.87 246.06 C-25.41 242.33 -23.91 238.62 -22.39 234.92 C-22.15 234.32 -21.9 233.73 -21.65 233.12 C-21.17 231.94 -20.69 230.76 -20.2 229.59 C-17.57 223.18 -14.94 216.78 -12.49 210.3 C-10.4 204.78 -8.12 199.4 -5.63 194.04 C-3.55 189.42 -1.7 184.71 0.16 180 C1.45 176.74 2.75 173.48 4.04 170.22 C4.46 169.16 4.46 169.16 4.89 168.09 C8.61 158.75 12.41 149.44 16.19 140.12 C21.6 126.8 26.96 113.46 32.14 100.04 C34.41 94.2 36.85 88.49 39.48 82.8 C41.08 79.23 42.47 75.61 43.81 71.94 C44.06 71.27 44.31 70.61 44.56 69.93 C45.04 68.63 45.51 67.33 45.98 66.03 C46.55 64.45 47.16 62.88 47.78 61.32 C48.88 57.31 48.97 53.58 48.94 49.44 C48.93 48.64 48.93 47.84 48.92 47.01 C48.7 36.17 45.35 29.06 37.74 21.34 C26.53 10.99 14.62 10.1 -0.06 10 C-1.04 9.99 -2.01 9.98 -3.01 9.97 C-13.22 10 -13.22 10 -22.57 13.62 Z " fill="#3F2421" transform="translate(312.375,12.75)"/><path d="M0 0 C1.14 -0.02 2.28 -0.03 3.45 -0.05 C16.79 -0.06 29.58 2.23 39.56 11.81 C40.28 12.64 41.01 13.46 41.75 14.31 C42.38 14.99 42.38 14.99 43.02 15.68 C50.98 24.57 53.34 35.05 53.04 46.78 C52.3 58.77 45.82 70.92 41.31 81.88 C40.56 83.71 39.82 85.54 39.07 87.38 C37.88 90.3 36.69 93.21 35.5 96.13 C32.53 103.38 29.59 110.64 26.66 117.91 C26.24 118.97 25.81 120.02 25.37 121.12 C24.72 122.73 24.07 124.35 23.41 125.97 C15.46 145.72 7.45 165.44 -0.61 185.14 C-7.81 202.76 -14.96 220.39 -22.07 238.04 C-23.83 242.39 -25.59 246.75 -27.36 251.1 C-28.17 253.11 -28.97 255.14 -29.77 257.16 C-30.2 258.23 -30.63 259.3 -31.08 260.4 C-31.43 261.28 -31.77 262.16 -32.13 263.07 C-34.01 266.84 -36.47 269.45 -40.25 271.31 C-44.44 272.34 -47.87 271.85 -51.56 269.62 C-55.38 266.64 -57.05 263.88 -57.68 259.02 C-57.58 252.99 -54.79 247.6 -52.41 242.17 C-50.99 238.94 -49.62 235.69 -48.25 232.44 C-47.98 231.81 -47.71 231.18 -47.44 230.53 C-41.11 215.58 -37.79 201.77 -38.41 185.43 C-38.57 178.88 -37.82 174.09 -33.28 169.18 C-28.04 165.5 -21.52 163.49 -15.62 161.11 C-8 157.98 -8 157.98 -2.25 152.31 C-1.27 148.75 -1.4 144.99 -3.09 141.66 C-4.6 139.7 -6.04 138.42 -8.25 137.31 C-15.86 136.61 -21.99 137.81 -29.06 140.5 C-53.52 149.14 -73.51 151.12 -98.72 145.89 C-121.7 141.15 -138.41 142.61 -158.25 155.31 C-159.14 155.92 -160.03 156.52 -160.95 157.14 C-170.25 163.39 -180.73 168.68 -192.25 167.31 C-192.25 167.97 -192.25 168.63 -192.25 169.31 C-201.7 169.4 -211.1 169.27 -220.54 168.68 C-221.81 168.6 -223.08 168.53 -224.35 168.47 C-236.83 167.86 -247.81 165.99 -257.05 156.93 C-263.78 148.91 -266.87 140.25 -266.06 129.86 C-264.36 118.53 -257.18 109.69 -250.71 100.63 C-243.23 90.13 -237.62 79.16 -232.16 67.5 C-225.13 52.51 -225.13 52.51 -221.25 50.31 C-207.88 46.26 -190.6 50.57 -178.25 56.31 C-169.94 60.78 -159.28 66.82 -156.25 76.31 C-156.25 80.25 -156.85 81.84 -159.38 84.88 C-160.32 85.71 -161.28 86.52 -162.25 87.31 C-162.98 87.96 -162.98 87.96 -163.71 88.63 C-171.34 94.87 -182.09 95.5 -191.51 97.18 C-196.01 98.01 -200.26 99.12 -204.55 100.76 C-206.25 101.31 -206.25 101.31 -209.25 101.31 C-209.75 102.8 -209.75 102.8 -210.25 104.31 C-211.24 104.31 -212.23 104.31 -213.25 104.31 C-213.58 103.65 -213.91 102.99 -214.25 102.31 C-215.24 102.31 -216.23 102.31 -217.25 102.31 C-217.58 103.96 -217.91 105.61 -218.25 107.31 C-216.6 107.31 -214.95 107.31 -213.25 107.31 C-213.25 106.65 -213.25 105.99 -213.25 105.31 C-211.27 105.31 -209.29 105.31 -207.25 105.31 C-207.99 105.89 -208.74 106.47 -209.5 107.06 C-209.95 107.43 -210.4 107.81 -210.87 108.19 C-212.08 109.17 -213.32 110.12 -214.56 111.06 C-217.06 114.39 -216.65 117.29 -216.25 121.31 C-216.19 122.1 -216.13 122.88 -216.06 123.69 C-215.35 125.53 -215.35 125.53 -213.16 126.34 C-188.49 134.57 -156.28 129.81 -131.25 125.31 C-130.03 125.1 -130.03 125.1 -128.78 124.88 C-105.7 120.59 -82.49 111.44 -61.5 101.12 C-60.52 100.64 -60.52 100.64 -59.51 100.15 C-55.71 98.23 -52.35 96.26 -49.25 93.31 C-49 90.23 -49 90.23 -49.25 87.31 C-47.25 85.31 -47.25 85.31 -44.31 84.94 C-41.25 85.31 -41.25 85.31 -39.31 87 C-37.97 89.92 -38.39 91.27 -39.25 94.31 C-39.25 97.49 -38.83 98.38 -37.25 101 C-36.88 101.62 -36.51 102.25 -36.12 102.89 C-35.69 103.59 -35.69 103.59 -35.25 104.31 C-34.59 102.33 -33.93 100.35 -33.25 98.31 C-27.98 97.34 -27.98 97.34 -26.25 97.31 C-25.59 97.97 -24.93 98.63 -24.25 99.31 C-24.93 94.46 -25.67 89.64 -26.48 84.81 C-26.6 84.1 -26.72 83.39 -26.84 82.66 C-27.1 81.14 -27.35 79.63 -27.6 78.11 C-28 75.72 -28.4 73.34 -28.8 70.95 C-29.99 63.8 -31.19 56.65 -32.39 49.51 C-32.86 46.72 -33.33 43.94 -33.79 41.16 C-34.12 39.21 -34.45 37.27 -34.78 35.33 C-34.97 34.15 -35.17 32.98 -35.37 31.8 C-35.54 30.79 -35.71 29.77 -35.89 28.72 C-36.25 26.31 -36.25 26.31 -36.25 24.31 C-35.59 24.31 -34.93 24.31 -34.25 24.31 C-34.25 24.97 -34.25 25.63 -34.25 26.31 C-33.26 26.64 -32.27 26.97 -31.25 27.31 C-29.85 35.01 -28.45 42.7 -27.05 50.4 C-26.4 53.97 -25.75 57.54 -25.1 61.12 C-24.47 64.58 -23.84 68.04 -23.21 71.51 C-22.98 72.81 -22.74 74.12 -22.5 75.43 C-21.22 82.43 -20.03 89.44 -19.02 96.49 C-18.93 97.11 -18.84 97.74 -18.74 98.38 C-18.3 101.62 -18.17 104.21 -19.25 107.31 C-15.79 100.4 -20.02 87.14 -21.42 79.7 C-21.8 77.7 -22.17 75.7 -22.53 73.7 C-23.57 68.03 -24.62 62.36 -25.68 56.69 C-26.33 53.2 -26.98 49.7 -27.61 46.2 C-27.85 44.88 -28.1 43.56 -28.35 42.24 C-29.66 35.38 -30.67 29.24 -29.25 22.31 C-31.23 21.32 -31.23 21.32 -33.25 20.31 C-32.59 20.31 -31.93 20.31 -31.25 20.31 C-31.3 19.8 -31.34 19.3 -31.39 18.77 C-31.63 14.2 -31.29 11.27 -28.44 7.62 C-20.87 -0.74 -10.59 -0.03 0 0 Z M-23.44 7.69 C-26.96 11.86 -27.68 14.75 -27.54 20.11 C-26.97 26.41 -25.67 32.6 -24.43 38.8 C-23.6 42.93 -22.8 47.08 -22 51.22 C-21.76 52.43 -21.76 52.43 -21.52 53.66 C-20.25 60.21 -19.15 66.77 -18.18 73.37 C-17.58 77.38 -16.85 81.32 -15.98 85.27 C-14.4 92.53 -13.16 99.89 -14.25 107.31 C-15.77 109.55 -15.77 109.55 -17.25 111.31 C-17.25 111.97 -17.25 112.63 -17.25 113.31 C-18.03 113.62 -18.82 113.93 -19.62 114.25 C-22.17 115.24 -22.17 115.24 -24.25 116.31 C-29.86 116.87 -35.39 117.36 -39.97 113.67 C-42.39 111.11 -44.37 108.28 -46.25 105.31 C-51.09 106.77 -55.39 108.8 -59.88 111.12 C-70.39 116.46 -81.15 120.79 -92.3 124.64 C-93.64 125.1 -94.99 125.58 -96.34 126.05 C-129.47 137.78 -184.65 150.19 -218.25 134.31 C-222.23 131.43 -224.31 127.71 -226.25 123.31 C-227.24 123.81 -227.24 123.81 -228.25 124.31 C-231.31 124.44 -231.31 124.44 -234.25 124.31 C-236.17 122.39 -235.92 118.89 -236.25 116.31 C-229.5 115.19 -229.5 115.19 -227.25 116.31 C-226.97 115.24 -226.97 115.24 -226.69 114.15 C-224.03 105.35 -220.06 101.44 -212.07 97.14 C-202.2 92.71 -190.76 91 -180.12 89.31 C-172.9 88.04 -166.8 85.18 -162.25 79.31 C-162.15 76.25 -163.81 74.02 -165.77 71.73 C-178.22 59.78 -194.55 55.34 -211.31 54.62 C-212.03 54.57 -212.74 54.51 -213.48 54.46 C-215.65 54.42 -217.21 54.54 -219.25 55.31 C-221.56 57.65 -222.84 60.36 -224.25 63.31 C-224.68 64.18 -225.12 65.05 -225.57 65.95 C-226.98 68.83 -228.34 71.72 -229.69 74.62 C-234.93 85.87 -240.33 96.51 -247.81 106.44 C-258.33 120.42 -258.33 120.42 -260.25 137.31 C-258.02 146.76 -253.5 154.02 -245.19 159.19 C-231.85 165.09 -214.84 163.5 -200.5 163.62 C-199.47 163.64 -199.47 163.64 -198.43 163.65 C-188.16 163.78 -179.12 162.85 -170 157.69 C-169.08 157.17 -168.16 156.65 -167.22 156.12 C-165.1 154.83 -163.03 153.52 -160.97 152.13 C-150.5 145.11 -139.21 138.46 -126.25 138.31 C-125.61 138.26 -124.97 138.21 -124.3 138.16 C-113.77 137.64 -102.92 140.7 -92.69 142.94 C-85.52 144.5 -85.52 144.5 -78.25 145.31 C-76.62 145.43 -76.62 145.43 -74.95 145.54 C-59.48 146.27 -45.02 141.81 -30.62 136.56 C-14.28 130.61 -14.28 130.61 -6.38 133.38 C-2.2 135.54 0.67 139.15 2.75 143.31 C3.69 149.04 2.37 152.77 -0.77 157.55 C-4.43 161.9 -8.78 163.41 -14 165.25 C-25.08 168.72 -25.08 168.72 -33.25 176.31 C-33.69 179.05 -33.69 179.05 -33.62 182.05 C-33.64 183.17 -33.65 184.29 -33.66 185.45 C-33.67 186.04 -33.67 186.63 -33.67 187.24 C-33.8 204.48 -37.5 218.54 -44.25 234.31 C-44.7 235.4 -45.16 236.48 -45.61 237.57 C-46.23 239.08 -46.23 239.08 -46.88 240.62 C-47.27 241.58 -47.67 242.54 -48.08 243.53 C-48.86 245.38 -49.66 247.21 -50.48 249.03 C-52.81 254.31 -53.97 257.7 -52.25 263.31 C-50.97 265.45 -50 266.06 -47.67 266.85 C-44.98 267.46 -44.98 267.46 -42.25 267.31 C-38.31 264.62 -36.46 262.39 -34.74 257.96 C-34.32 256.9 -33.89 255.83 -33.46 254.73 C-33.01 253.57 -32.57 252.41 -32.12 251.25 C-31.65 250.05 -31.18 248.85 -30.7 247.64 C-29.71 245.14 -28.73 242.63 -27.75 240.12 C-26.29 236.39 -24.78 232.68 -23.27 228.98 C-23.02 228.39 -22.78 227.79 -22.53 227.18 C-22.04 226 -21.56 224.83 -21.08 223.65 C-18.45 217.24 -15.82 210.84 -13.37 204.37 C-11.28 198.84 -8.99 193.47 -6.51 188.11 C-4.43 183.49 -2.58 178.78 -0.72 174.06 C0.57 170.8 1.87 167.54 3.17 164.29 C3.59 163.23 3.59 163.23 4.02 162.15 C7.74 152.81 11.53 143.5 15.31 134.19 C20.72 120.86 26.09 107.52 31.26 94.1 C33.53 88.26 35.98 82.55 38.6 76.86 C40.21 73.3 41.6 69.67 42.94 66 C43.18 65.34 43.43 64.67 43.69 63.99 C44.17 62.69 44.64 61.4 45.1 60.1 C45.68 58.51 46.29 56.95 46.91 55.38 C48.01 51.37 48.09 47.64 48.06 43.5 C48.06 42.7 48.05 41.9 48.05 41.07 C47.82 30.23 44.48 23.12 36.86 15.4 C25.66 5.05 13.74 4.16 -0.94 4.06 C-1.91 4.05 -2.89 4.04 -3.89 4.03 C-14.09 4.06 -14.09 4.06 -23.44 7.69 Z " fill="#1E2A36" transform="translate(313.25,18.6875)"/><path d="M0 0 C0.56 -0 1.13 -0 1.71 -0.01 C3.58 -0.01 5.46 -0.01 7.33 -0 C8.62 -0 9.92 -0.01 11.22 -0.01 C13.94 -0.01 16.66 -0.01 19.38 -0 C22.87 0 26.37 0 29.86 -0 C32.54 -0.01 35.22 -0.01 37.9 -0 C39.18 -0 40.47 -0 41.76 -0.01 C43.56 -0.01 45.36 -0.01 47.16 0 C48.18 0 49.21 0 50.26 0 C52.58 0.13 52.58 0.13 53.58 1.13 C53.65 3.33 53.67 5.49 53.64 7.69 C53.64 8.31 53.63 8.92 53.63 9.56 C53.62 11.08 53.6 12.61 53.58 14.13 C59.18 14.01 64.79 13.89 70.39 13.76 C72.3 13.71 74.21 13.67 76.11 13.63 C78.85 13.57 81.6 13.51 84.34 13.45 C85.61 13.42 85.61 13.42 86.91 13.4 C90.92 13.3 94.67 13.11 98.58 12.13 C99.37 14.51 99.64 15.89 99.04 18.36 C98.48 21.7 98.94 24.54 99.57 27.83 C99.68 28.48 99.8 29.13 99.92 29.81 C100.31 31.95 100.71 34.1 101.11 36.25 C101.38 37.75 101.65 39.25 101.92 40.75 C102.63 44.7 103.35 48.64 104.07 52.59 C105.23 58.89 106.38 65.2 107.51 71.51 C107.91 73.71 108.32 75.9 108.72 78.1 C108.97 79.46 109.22 80.81 109.46 82.17 C109.57 82.77 109.69 83.38 109.81 84 C110.54 88.13 110.83 91.95 110.58 96.13 C108.58 98.57 108.58 98.57 106.58 100.13 C106.94 99.05 107.31 97.97 107.68 96.86 C109.08 91.2 107.99 86.14 106.95 80.49 C106.75 79.38 106.56 78.26 106.36 77.11 C105.85 74.15 105.31 71.19 104.78 68.24 C104.25 65.3 103.74 62.36 103.23 59.42 C102.23 53.74 101.21 48.06 100.17 42.39 C99.59 39.18 99.02 35.98 98.45 32.78 C98.1 30.85 97.75 28.91 97.4 26.98 C97.24 26.1 97.09 25.21 96.93 24.29 C96.78 23.49 96.63 22.69 96.48 21.86 C96.35 21.16 96.22 20.46 96.1 19.74 C95.84 18.94 95.84 18.94 95.58 18.13 C94.92 17.8 94.26 17.47 93.58 17.13 C93.58 16.47 93.58 15.81 93.58 15.13 C80.38 15.13 67.18 15.13 53.58 15.13 C53.58 19.42 53.58 23.71 53.58 28.13 C50.97 29.43 49.06 29.26 46.13 29.26 C44.43 29.26 44.43 29.26 42.69 29.27 C41.44 29.27 40.2 29.26 38.95 29.26 C37.68 29.26 36.4 29.26 35.13 29.27 C32.46 29.27 29.8 29.26 27.13 29.26 C23.7 29.25 20.28 29.26 16.85 29.26 C14.22 29.27 11.6 29.27 8.97 29.26 C7.71 29.26 6.44 29.26 5.18 29.27 C3.42 29.27 1.65 29.26 -0.11 29.26 C-1.11 29.26 -2.12 29.26 -3.15 29.26 C-5.42 29.13 -5.42 29.13 -6.42 28.13 C-6.52 26.14 -6.55 24.15 -6.55 22.16 C-6.56 21.57 -6.56 20.97 -6.56 20.36 C-6.56 19.1 -6.56 17.83 -6.55 16.57 C-6.55 14.64 -6.55 12.7 -6.56 10.77 C-6.56 9.54 -6.56 8.32 -6.55 7.1 C-6.55 5.98 -6.55 4.86 -6.55 3.71 C-6.32 -0.94 -4.12 0 0 0 Z " fill="#2BC109" transform="translate(185.421875,27.87060546875)"/><path d="M0 0 C0.66 0 1.32 0 2 0 C2 0.66 2 1.32 2 2 C2.99 2.33 3.98 2.66 5 3 C6.4 10.69 7.8 18.39 9.2 26.08 C9.85 29.66 10.5 33.23 11.15 36.81 C11.78 40.27 12.41 43.73 13.04 47.19 C13.27 48.5 13.51 49.81 13.75 51.12 C14.42 54.78 15.07 58.45 15.69 62.13 C15.9 63.42 16.13 64.71 16.35 66 C16.71 68.02 17.03 70.03 17.35 72.05 C17.52 72.96 17.52 72.96 17.69 73.89 C18.39 78.66 17.51 81.06 15 85 C11.7 87.38 9.02 88.27 5 88.12 C0.73 87.4 -1.25 85.18 -3.87 81.89 C-5.05 79.92 -5.57 78.24 -6 76 C-13.06 75.16 -17.8 78.03 -23.88 81.38 C-24.84 81.88 -25.8 82.39 -26.79 82.91 C-31.66 85.15 -31.66 85.15 -35 89 C-37.21 90.03 -37.21 90.03 -40.16 91.14 C-40.69 91.34 -41.22 91.54 -41.77 91.74 C-43.53 92.4 -45.3 93.05 -47.06 93.69 C-47.67 93.91 -48.27 94.13 -48.9 94.36 C-68.93 101.67 -88.82 107.19 -110 110 C-110.88 110.12 -111.75 110.23 -112.66 110.35 C-129.99 112.58 -147.01 112.66 -164.38 110.75 C-165.43 110.64 -166.48 110.53 -167.56 110.42 C-174.5 109.56 -180.2 108.27 -184.88 102.81 C-187.13 97.18 -187.71 92.18 -185.56 86.44 C-185.06 85.28 -184.55 84.13 -184 83 C-181.69 83 -179.38 83 -177 83 C-177 82.34 -177 81.68 -177 81 C-175.02 81 -173.04 81 -171 81 C-171.74 81.58 -172.49 82.16 -173.25 82.75 C-173.7 83.12 -174.15 83.49 -174.62 83.88 C-175.83 84.86 -177.07 85.81 -178.31 86.75 C-180.81 90.08 -180.4 92.98 -180 97 C-179.91 98.18 -179.91 98.18 -179.81 99.38 C-179.1 101.21 -179.1 101.21 -176.91 102.03 C-152.24 110.25 -120.03 105.5 -95 101 C-94.19 100.86 -93.37 100.71 -92.53 100.56 C-69.45 96.28 -46.24 87.12 -25.25 76.81 C-24.27 76.33 -24.27 76.33 -23.26 75.84 C-19.46 73.92 -16.1 71.95 -13 69 C-12.75 65.92 -12.75 65.92 -13 63 C-11 61 -11 61 -8.06 60.62 C-5 61 -5 61 -3.06 62.69 C-1.72 65.6 -2.14 66.96 -3 70 C-3 73.17 -2.58 74.06 -1 76.69 C-0.63 77.31 -0.26 77.93 0.12 78.57 C0.56 79.28 0.56 79.28 1 80 C1.66 78.02 2.32 76.04 3 74 C8.27 73.02 8.27 73.02 10 73 C10.66 73.66 11.32 74.32 12 75 C11.32 70.15 10.58 65.32 9.77 60.5 C9.65 59.79 9.53 59.08 9.41 58.35 C9.15 56.83 8.9 55.31 8.65 53.8 C8.25 51.41 7.85 49.02 7.45 46.64 C6.26 39.49 5.06 32.34 3.86 25.19 C3.39 22.41 2.92 19.63 2.46 16.84 C2.13 14.9 1.8 12.96 1.47 11.02 C1.28 9.84 1.08 8.67 0.88 7.49 C0.71 6.47 0.54 5.46 0.36 4.41 C0 2 0 2 0 0 Z " fill="#1A3240" transform="translate(277,43)"/><path d="M0 0 C1.11 -0.01 2.23 -0.01 3.38 -0.02 C4.6 -0.02 5.82 -0.02 7.04 -0.02 C8.29 -0.03 9.53 -0.03 10.78 -0.03 C13.4 -0.04 16.01 -0.04 18.63 -0.04 C21.99 -0.04 25.34 -0.05 28.7 -0.07 C31.28 -0.08 33.85 -0.08 36.43 -0.08 C37.67 -0.08 38.91 -0.09 40.14 -0.1 C41.87 -0.11 43.6 -0.1 45.33 -0.1 C46.31 -0.1 47.3 -0.1 48.31 -0.1 C50.66 0.15 50.66 0.15 52.66 2.15 C52.91 4.74 52.91 4.74 52.89 7.99 C52.89 8.56 52.89 9.14 52.89 9.73 C52.89 10.93 52.88 12.14 52.87 13.35 C52.85 15.2 52.85 17.06 52.85 18.91 C52.81 28 52.81 28 51.66 29.15 C47.43 29.55 43.16 29.63 38.91 29.77 C38.28 29.79 37.64 29.82 36.98 29.84 C26.78 30.18 16.62 30.13 6.41 29.77 C5.78 29.75 5.14 29.73 4.48 29.71 C-6.15 29.34 -6.15 29.34 -7.34 28.15 C-7.42 26.15 -7.44 24.14 -7.43 22.14 C-7.43 21.54 -7.43 20.95 -7.43 20.33 C-7.42 18.41 -7.41 16.5 -7.4 14.58 C-7.39 13.29 -7.39 11.99 -7.38 10.69 C-7.37 7.51 -7.36 4.33 -7.34 1.15 C-4.76 -0.14 -2.89 0.01 0 0 Z " fill="#1AC109" transform="translate(186.3359375,70.854736328125)"/><path d="M0 0 C0.66 0 1.32 0 2 0 C9.26 37.78 9.26 37.78 11.07 50.05 C11.67 54.06 12.4 58 13.27 61.96 C17.37 80.78 17.37 80.78 13.44 87.56 C8.76 92.24 5.16 94.23 -1.56 94.5 C-6.69 94.3 -9.2 93.43 -13 90 C-15 87.73 -16.65 85.7 -18 83 C-22.84 84.46 -27.14 86.49 -31.62 88.81 C-42.14 94.15 -52.9 98.48 -64.05 102.32 C-65.39 102.79 -66.74 103.26 -68.09 103.74 C-101.94 115.73 -155.55 127.27 -190 112 C-194.52 109.12 -196.65 105.67 -199 101 C-199.5 101.5 -199.5 101.5 -200 102 C-202.94 102.19 -202.94 102.19 -206 102 C-208.22 99.78 -208.29 99.46 -208.31 96.5 C-208.2 93.26 -208.2 93.26 -206.81 91.5 C-204.31 90.81 -202.47 91.33 -200 92 C-199.78 91.2 -199.78 91.2 -199.55 90.39 C-197.81 84.89 -196.1 82.72 -191 80 C-190.67 81.32 -190.34 82.64 -190 84 C-190.66 84 -191.32 84 -192 84 C-194.28 90.92 -194.63 97.05 -191.81 103.88 C-186.84 109.7 -179.61 109.89 -172.44 110.69 C-171.32 110.81 -170.21 110.94 -169.07 111.07 C-131.68 114.99 -95.22 107.71 -60.02 95.52 C-59.42 95.31 -58.81 95.1 -58.19 94.89 C-54.56 93.62 -51.06 92.18 -47.58 90.57 C-46 90 -46 90 -43 90 C-42.67 89.01 -42.34 88.02 -42 87 C-38.82 84.75 -35.32 83.05 -31.88 81.25 C-30.94 80.73 -30 80.21 -29.03 79.68 C-21.21 75.55 -21.21 75.55 -16.98 75.93 C-13.65 77.13 -12.88 77.74 -11.38 80.88 C-9.38 84.48 -8.05 86.59 -4 88 C1 88.13 4.97 87.05 9 84 C12.46 77.07 8.22 63.75 6.83 56.3 C6.45 54.29 6.08 52.28 5.72 50.27 C4.68 44.56 3.63 38.86 2.57 33.15 C1.92 29.64 1.28 26.12 0.64 22.6 C0.28 20.63 -0.09 18.66 -0.46 16.69 C-0.68 15.47 -0.9 14.26 -1.12 13.05 C-1.31 12 -1.51 10.95 -1.71 9.87 C-2.08 6.17 -1.66 3.33 0 0 Z " fill="#292626" transform="translate(285,42)"/><path d="M0 0 C2.64 0 5.28 0 8 0 C6.61 5.21 5.02 10.17 2.7 15.05 C0.11 20.66 -2.17 26.38 -4.39 32.14 C-8.63 43.11 -13.01 54.01 -17.5 64.88 C-17.76 65.49 -18.01 66.11 -18.27 66.75 C-19 68.52 -19.73 70.29 -20.47 72.05 C-21.09 73.56 -21.09 73.56 -21.73 75.1 C-26.14 85.18 -26.14 85.18 -30 87 C-33.31 87.11 -36.03 86.58 -38.88 84.88 C-40.68 81.86 -41.3 79.46 -41 76 C-38.96 69.28 -36 62.9 -33.11 56.52 C-31.63 53.16 -30.25 49.77 -28.88 46.38 C-28.62 45.75 -28.37 45.13 -28.11 44.49 C-26.46 40.38 -25.15 36.27 -24 32 C-23.67 32.66 -23.34 33.32 -23 34 C-22.01 34 -21.02 34 -20 34 C-20 33.34 -20 32.68 -20 32 C-19.34 31.34 -18.68 30.68 -18 30 C-18 29.34 -18 28.68 -18 28 C-17.34 27.34 -16.68 26.68 -16 26 C-16 25.34 -16 24.68 -16 24 C-14.68 23.34 -13.36 22.68 -12 22 C-12 20.02 -12 18.04 -12 16 C-10.68 15.34 -9.36 14.68 -8 14 C-8 13.34 -8 12.68 -8 12 C-5.36 12 -2.72 12 0 12 C0 11.34 0 10.68 0 10 C0.66 10 1.32 10 2 10 C2 9.34 2 8.68 2 8 C1.38 7.71 0.76 7.42 0.12 7.12 C-2 6 -2 6 -4 4 C-2.68 3.34 -1.36 2.68 0 2 C0 1.34 0 0.68 0 0 Z " fill="#EEEDFB" transform="translate(301,199)"/><path d="M0 0 C0.99 0 1.98 0 3 0 C2.45 4.59 1.13 7.92 -1 12 C-1.17 12.66 -1.33 13.32 -1.5 14 C-2.06 16.23 -3.06 18.07 -4.11 20.1 C-5.66 23.41 -6.8 26.88 -8.02 30.32 C-9.22 33.61 -10.59 36.79 -12 40 C-12.67 41.66 -13.34 43.33 -14 45 C-15.33 48.33 -16.67 51.67 -18 55 C-18.34 55.88 -18.68 56.75 -19.03 57.66 C-20 60 -20 60 -21.56 62.5 C-23.06 65.1 -23.49 67.07 -24 70 C-24.65 71.67 -25.32 73.34 -26 75 C-26.33 75.86 -26.66 76.72 -27 77.61 C-27.33 78.46 -27.66 79.31 -28 80.19 C-28.33 81.05 -28.66 81.91 -29 82.79 C-30 85 -30 85 -32 87 C-32.12 87.87 -32.25 88.73 -32.38 89.62 C-33.04 93.22 -34.25 95.78 -35.96 98.97 C-37.14 101.27 -38.07 103.6 -39 106 C-39.33 106.81 -39.66 107.63 -40 108.46 C-41.45 112.04 -42.86 115.58 -44.06 119.25 C-44.9 121.72 -45.94 123.92 -47.14 126.23 C-48.99 130.05 -50.45 134.05 -52 138 C-52.97 140.43 -53.94 142.86 -54.93 145.29 C-56.73 149.75 -58.45 154.22 -60.06 158.75 C-61.47 162.68 -63.07 166.31 -65 170 C-65.69 171.66 -66.36 173.32 -67 175 C-67.31 175.77 -67.62 176.54 -67.93 177.33 C-68.63 179.08 -69.32 180.84 -70 182.61 C-70.33 183.46 -70.66 184.31 -71 185.19 C-71.33 186.05 -71.66 186.91 -72 187.79 C-73 190 -73 190 -75 192 C-75.35 194 -75.69 196 -76 198 C-76.62 199.68 -77.28 201.36 -78 203 C-78.99 202.67 -79.98 202.34 -81 202 C-83.03 195.75 -80.41 191.15 -77.88 185.38 C-77.45 184.39 -77.03 183.4 -76.6 182.38 C-75.41 179.58 -74.21 176.79 -73 174 C-72.14 171.96 -71.29 169.92 -70.44 167.88 C-70.06 166.99 -69.69 166.1 -69.31 165.18 C-68.22 162.54 -67.15 159.88 -66.1 157.22 C-65.75 156.35 -65.41 155.48 -65.05 154.59 C-64.37 152.88 -63.7 151.17 -63.03 149.47 C-61.36 145.26 -59.62 141.13 -57.71 137.03 C-54.4 129.83 -51.55 122.45 -48.67 115.07 C-47.67 112.52 -46.67 109.98 -45.67 107.43 C-44.68 104.91 -43.69 102.39 -42.7 99.86 C-40.27 93.69 -37.84 87.53 -35.38 81.38 C-35.09 80.67 -34.81 79.96 -34.52 79.24 C-32.96 75.33 -31.35 71.45 -29.73 67.57 C-27.64 62.59 -25.62 57.58 -23.62 52.56 C-23.33 51.82 -23.04 51.08 -22.73 50.31 C-21.51 47.25 -20.3 44.19 -19.08 41.12 C-15.89 33.07 -12.67 25.06 -9.01 17.2 C-7.81 14.6 -6.73 11.98 -5.69 9.31 C-5.36 8.48 -5.04 7.65 -4.7 6.8 C-4.47 6.21 -4.24 5.61 -4 5 C-3.01 5 -2.02 5 -1 5 C-0.67 3.35 -0.34 1.7 0 0 Z " fill="#E2E5EA" transform="translate(369,83)"/><path d="M0 0 C5.94 0 11.88 0 18 0 C18.02 2.39 18.04 4.78 18.06 7.25 C18.07 8 18.08 8.74 18.09 9.51 C18.1 12.83 18.05 15.81 17 19 C15.68 19 14.36 19 13 19 C13.33 15.37 13.66 11.74 14 8 C12.35 8 10.7 8 9 8 C9 8.99 9 9.98 9 11 C9.99 11 10.98 11 12 11 C12 13.64 12 16.28 12 19 C11.23 18.69 11.23 18.69 10.44 18.38 C6.9 17.83 4.39 18.89 1 20 C0.34 19.34 -0.32 18.68 -1 18 C-0.76 15.62 -0.76 15.62 -0.12 12.88 C0.08 11.96 0.28 11.05 0.49 10.12 C0.66 9.42 0.83 8.72 1 8 C0.34 8 -0.32 8 -1 8 C-1 9.65 -1 11.3 -1 13 C-1.66 13 -2.32 13 -3 13 C-3 11.35 -3 9.7 -3 8 C-5.22 9.93 -5.22 9.93 -6 13 C-9.63 13 -13.26 13 -17 13 C-17 11.02 -17 9.04 -17 7 C-8.59 6.5 -8.59 6.5 0 6 C0 4.02 0 2.04 0 0 Z " fill="#34C726" transform="translate(200,76)"/><path d="M0 0 C0.14 0.62 0.29 1.24 0.44 1.88 C0.93 4.03 0.93 4.03 2 6 C-14.23 8.74 -30.6 8.2 -47 8 C-46.34 7.67 -45.68 7.34 -45 7 C-45 6.34 -45 5.68 -45 5 C-46.32 5 -47.64 5 -49 5 C-48.67 4.01 -48.34 3.02 -48 2 C-41.73 2.33 -35.46 2.66 -29 3 C-29 3.99 -29 4.98 -29 6 C-27.68 6 -26.36 6 -25 6 C-25 5.01 -25 4.02 -25 3 C-24.28 3.02 -23.56 3.04 -22.81 3.06 C-20.09 3.08 -20.09 3.08 -17.81 2.56 C-14.29 1.86 -10.75 1.4 -7.19 0.94 C-6.49 0.85 -5.8 0.76 -5.09 0.66 C-3.39 0.44 -1.7 0.22 0 0 Z " fill="#D7DCDB" transform="translate(168,141)"/><path d="M0 0 C0.99 0.33 1.98 0.66 3 1 C1.65 6 0.19 10.09 -2.56 14.5 C-3.9 16.83 -4.37 18.43 -5 21 C-5.62 22.72 -6.27 24.43 -6.94 26.12 C-7.28 26.99 -7.62 27.86 -7.96 28.76 C-9 31 -9 31 -11 33 C-11.35 35 -11.69 37 -12 39 C-12.62 40.68 -13.28 42.36 -14 44 C-14.99 43.67 -15.98 43.34 -17 43 C-19.03 36.75 -16.41 32.15 -13.88 26.38 C-13.46 25.4 -13.05 24.42 -12.62 23.42 C-11.8 21.49 -10.97 19.56 -10.14 17.63 C-8.7 14.31 -7.32 10.97 -5.94 7.62 C-5.29 6.08 -4.65 4.54 -4 3 C-3.01 3 -2.02 3 -1 3 C-0.67 2.01 -0.34 1.02 0 0 Z " fill="#E3E3EF" transform="translate(305,242)"/><path d="M0 0 C0.66 0 1.32 0 2 0 C3.62 2 3.62 2 5 4 C-13.9 13.56 -13.9 13.56 -22 17 C-22.92 17.39 -23.85 17.79 -24.8 18.19 C-30.71 20.54 -35.64 21.57 -42 21 C-42 20.01 -42 19.02 -42 18 C-41.38 17.83 -40.77 17.66 -40.13 17.48 C-34.94 16 -30.1 14.24 -25.21 11.96 C-23.04 11.02 -20.89 10.31 -18.62 9.62 C-13.84 8.12 -9.7 5.73 -5.38 3.21 C-3 2 -3 2 0 2 C0 1.34 0 0.68 0 0 Z " fill="#E8EEEC" transform="translate(254,113)"/><path d="M0 0 C9.24 0 18.48 0 28 0 C27.34 1.98 26.68 3.96 26 6 C25.67 6 25.34 6 25 6 C25 4.35 25 2.7 25 1 C23.02 1 21.04 1 19 1 C19.78 4.07 19.78 4.07 22 6 C20.68 6.33 19.36 6.66 18 7 C18.66 7 19.32 7 20 7 C22.33 7 24.67 7 27 7 C27 8.98 27 10.96 27 13 C19.79 13.16 19.79 13.16 16.25 12.44 C13.8 11.96 12.37 12.32 10 13 C9 12 9 12 8.94 9.44 C8.96 8.63 8.98 7.83 9 7 C9.66 7 10.32 7 11 7 C11 5.35 11 3.7 11 2 C10.34 2 9.68 2 9 2 C9 3.32 9 4.64 9 6 C8.34 6 7.68 6 7 6 C7 4.35 7 2.7 7 1 C6.01 1.33 5.02 1.66 4 2 C4.33 3.32 4.66 4.64 5 6 C3.35 6 1.7 6 0 6 C0 4.02 0 2.04 0 0 Z " fill="#38C82B" transform="translate(190,39)"/><path d="M0 0 C1.1 0.02 1.1 0.02 2.21 0.04 C2.95 0.04 3.68 0.05 4.44 0.06 C5 0.07 5.57 0.09 6.15 0.1 C6.48 1.75 6.81 3.4 7.15 5.1 C6.66 5.3 6.16 5.51 5.65 5.72 C3.79 7.11 3.79 7.11 3.96 10.22 C4.03 11.17 4.09 12.12 4.15 13.1 C3.37 12.91 2.58 12.73 1.78 12.54 C-0.82 11.84 -0.82 11.84 -2.85 13.1 C-2.85 11.78 -2.85 10.46 -2.85 9.1 C-5.18 8.32 -7.46 7.67 -9.85 7.1 C-10.18 8.09 -10.51 9.08 -10.85 10.1 C-11.51 8.45 -12.17 6.8 -12.85 5.1 C-11.86 5.1 -10.87 5.1 -9.85 5.1 C-10.18 3.78 -10.51 2.46 -10.85 1.1 C-8.18 1.1 -5.51 1.1 -2.85 1.1 C-1.85 0.1 -1.85 0.1 0 0 Z " fill="#33C725" transform="translate(219.84765625,38.90234375)"/><path d="M0 0 C1.32 0.33 2.64 0.66 4 1 C4 1.66 4 2.32 4 3 C57.46 2.5 57.46 2.5 112 2 C111.67 2.66 111.34 3.32 111 4 C75.69 4 40.38 4 4 4 C4 4.66 4 5.32 4 6 C2.35 6 0.7 6 -1 6 C-1.33 5.01 -1.66 4.02 -2 3 C-1.06 1.31 -1.06 1.31 0 0 Z " fill="#44CB38" transform="translate(96,120)"/><path d="M0 0 C0.99 0 1.98 0 3 0 C2.45 4.59 1.13 7.92 -1 12 C-1.17 12.66 -1.33 13.32 -1.5 14 C-2.08 16.32 -3.14 18.24 -4.25 20.34 C-5.07 22.14 -5.53 23.89 -6 25.81 C-6.33 26.86 -6.66 27.92 -7 29 C-7.99 29.33 -8.98 29.66 -10 30 C-9.67 27.36 -9.34 24.72 -9 22 C-9.66 22.33 -10.32 22.66 -11 23 C-9.44 16.63 -6.8 10.91 -4 5 C-3.01 5 -2.02 5 -1 5 C-0.67 3.35 -0.34 1.7 0 0 Z " fill="#E6EAEC" transform="translate(369,83)"/><path d="M0 0 C-0.33 0.33 -0.66 0.66 -1 1 C40.09 1.5 40.09 1.5 82 2 C82 2.33 82 2.66 82 3 C50.65 3 19.3 3 -13 3 C-10.37 1.25 -8.89 0.55 -5.94 -0.19 C-5.25 -0.37 -4.55 -0.55 -3.84 -0.73 C-2 -1 -2 -1 0 0 Z " fill="#DEEDDE" transform="translate(124,120)"/><path d="M0 0 C-0.42 2.47 -0.68 3.93 -2 6 C-4.64 7.53 -7.43 8.21 -10.38 8.94 C-11.14 9.16 -11.91 9.38 -12.7 9.6 C-16.58 10.65 -19.09 11.23 -23 10 C-22.31 7.56 -22.31 7.56 -21 5 C-18.81 4.31 -18.81 4.31 -16 4 C-14.85 3.71 -13.7 3.4 -12.56 3.06 C-11.97 2.89 -11.38 2.72 -10.77 2.54 C-9.08 2.03 -7.42 1.45 -5.75 0.88 C-3 0 -3 0 0 0 Z " fill="#ECF1F0" transform="translate(211,132)"/><path d="M0 0 C5.94 0 11.88 0 18 0 C18 1.65 18 3.3 18 5 C16.35 5.33 14.7 5.66 13 6 C12.67 5.01 12.34 4.02 12 3 C12 3.99 12 4.98 12 6 C11.01 5.67 10.02 5.34 9 5 C9.33 3.68 9.66 2.36 10 1 C9.34 1 8.68 1 8 1 C8 2.65 8 4.3 8 6 C5.36 6 2.72 6 0 6 C0 4.02 0 2.04 0 0 Z " fill="#B4E7B1" transform="translate(200,76)"/><path d="M0 0 C1.22 3.67 0.63 4.65 -0.75 8.19 C-1.31 9.64 -1.31 9.64 -1.88 11.12 C-2.25 12.07 -2.62 13.02 -3 14 C-3.59 15.56 -4.17 17.12 -4.75 18.69 C-5.17 19.79 -5.58 20.9 -6 22 C-6.66 22 -7.32 22 -8 22 C-8.33 23.32 -8.66 24.64 -9 26 C-9.66 25.67 -10.32 25.34 -11 25 C-10.29 20.57 -8.84 16.64 -7.19 12.5 C-6.82 11.52 -6.82 11.52 -6.44 10.53 C-4.8 6.41 -2.94 3.32 0 0 Z " fill="#D9DAE3" transform="translate(313,220)"/><path d="M0 0 C5.94 0 11.88 0 18 0 C17.01 0.5 17.01 0.5 16 1 C16 2.65 16 4.3 16 6 C15.34 6 14.68 6 14 6 C14 4.35 14 2.7 14 1 C11.78 2.93 11.78 2.93 11 6 C7.37 6 3.74 6 0 6 C0 4.02 0 2.04 0 0 Z " fill="#AEE5AA" transform="translate(183,83)"/><path d="M0 0 C1.62 -0.03 3.25 -0.05 4.88 -0.06 C5.78 -0.07 6.68 -0.09 7.62 -0.1 C10 0 10 0 12 1 C12 1.66 12 2.32 12 3 C12.66 3 13.32 3 14 3 C14.33 2.01 14.66 1.02 15 0 C16.65 0 18.3 0 20 0 C19.67 2.31 19.34 4.62 19 7 C12.55 8.34 12.55 8.34 10.06 6.81 C9 5 9 5 9 1 C6.03 1 3.06 1 0 1 C0 0.67 0 0.34 0 0 Z " fill="#32333C" transform="translate(121,191)"/><path d="M0 0 C0.14 0.62 0.29 1.24 0.44 1.88 C0.93 4.03 0.93 4.03 2 6 C-3.94 6.33 -9.88 6.66 -16 7 C-15.67 6.34 -15.34 5.68 -15 5 C-14.34 5 -13.68 5 -13 5 C-12.67 4.34 -12.34 3.68 -12 3 C-9.32 0.32 -3.58 0.48 0 0 Z " fill="#E3E9E6" transform="translate(168,141)"/><path d="M0 0 C0.66 0 1.32 0 2 0 C3.62 2 3.62 2 5 4 C3.45 4.12 3.45 4.12 1.88 4.25 C-1.65 4.74 -3.66 5.95 -6.48 8.03 C-8.59 9.37 -10.71 9.84 -13.12 10.43 C-16.62 11.49 -19.79 13.28 -23 15 C-23.33 14.01 -23.66 13.02 -24 12 C-23.24 11.7 -22.48 11.39 -21.69 11.08 C-15.82 8.7 -10.28 6.21 -4.84 2.92 C-3 2 -3 2 0 2 C0 1.34 0 0.68 0 0 Z " fill="#A3E0A0" transform="translate(254,113)"/><path d="M0 0 C0.66 0.33 1.32 0.66 2 1 C1.53 1.74 1.05 2.49 0.56 3.25 C-0.83 5.71 -1.34 7.32 -2 10 C-2.62 11.63 -3.27 13.26 -3.94 14.88 C-5.43 18.55 -6.77 22.23 -8 26 C-8.65 27.67 -9.32 29.34 -10 31 C-10.99 30.34 -11.98 29.68 -13 29 C-12.75 28.54 -12.49 28.08 -12.23 27.6 C-9.79 22.98 -8.19 18.49 -6.79 13.47 C-5.78 10.31 -4.36 7.5 -2.77 4.59 C-1.86 2.99 -1.86 2.99 -2 1 C-1.34 0.67 -0.68 0.34 0 0 Z " fill="#A7E1A3" transform="translate(332,179)"/><path d="M0 0 C2.31 1.31 2.31 1.31 4 3 C4 3.99 4 4.98 4 6 C1.33 6.89 0.12 7.07 -2.56 6.94 C-6.07 6.6 -6.07 6.6 -8 9 C-8.36 3.57 -8.36 3.57 -6.81 1.12 C-4.33 -0.42 -2.88 -0.42 0 0 Z " fill="#57585F" transform="translate(287,116)"/><path d="M0 0 C3.96 0 7.92 0 12 0 C11.67 1.98 11.34 3.96 11 6 C7.33 6 3.67 6 0 6 C0 4.02 0 2.04 0 0 Z " fill="#9FE19A" transform="translate(200,32)"/><path d="M0 0 C3.3 0 6.6 0 10 0 C10.14 8.57 10.14 8.57 9 12 C7.68 12 6.36 12 5 12 C5.33 8.37 5.66 4.74 6 1 C4.35 1 2.7 1 1 1 C1 1.99 1 2.98 1 4 C1.99 4 2.98 4 4 4 C4 4.66 4 5.32 4 6 C2.35 5.67 0.7 5.34 -1 5 C-0.67 3.35 -0.34 1.7 0 0 Z " fill="#99E194" transform="translate(208,83)"/><path d="M0 0 C1.32 0.66 2.64 1.32 4 2 C4.42 6.66 2.98 9.9 1 14 C0.01 13.67 -0.98 13.34 -2 13 C-3.47 7.53 -2.44 4.88 0 0 Z " fill="#C5E1C9" transform="translate(290,272)"/><path d="M0 0 C3.96 0 7.92 0 12 0 C12 1.65 12 3.3 12 5 C11.48 4.79 10.97 4.59 10.44 4.38 C6.9 3.83 4.39 4.89 1 6 C0.34 5.34 -0.32 4.68 -1 4 C-0.67 2.68 -0.34 1.36 0 0 Z " fill="#9BE196" transform="translate(200,90)"/><path d="M0 0 C0.61 0.01 1.22 0.01 1.84 0.02 C2.76 0.01 2.76 0.01 3.69 0 C5.34 0.27 5.34 0.27 7.34 2.27 C6.81 5.8 6.81 5.8 5.34 7.27 C3.34 7.31 1.34 7.31 -0.66 7.27 C-0.99 5.95 -1.32 4.63 -1.66 3.27 C-2.32 4.59 -2.98 5.91 -3.66 7.27 C-3.78 4.89 -3.78 4.89 -3.66 2.27 C-1.66 0.27 -1.66 0.27 0 0 Z " fill="#595960" transform="translate(276.65625,13.734375)"/><path d="M0 0 C2.31 0 4.62 0 7 0 C7.62 2.88 7.62 2.88 8 6 C6 8 6 8 3.38 8.12 C2.59 8.08 1.81 8.04 1 8 C-0.43 5.65 -1.09 4.52 -0.62 1.75 C-0.42 1.17 -0.21 0.59 0 0 Z " fill="#22232B" transform="translate(243,176)"/><path d="M0 0 C0.99 0.66 1.98 1.32 3 2 C2.53 2.74 2.05 3.49 1.56 4.25 C0.17 6.71 -0.34 8.32 -1 11 C-1.62 12.63 -2.27 14.26 -2.94 15.88 C-4.43 19.55 -5.8 23.22 -7 27 C-7.66 26.67 -8.32 26.34 -9 26 C-7.36 19.09 -5.19 12.81 -2.09 6.41 C-1.12 4.26 -0.48 2.3 0 0 Z " fill="#A2E09E" transform="translate(316,215)"/><path d="M0 0 C3.06 0.38 3.06 0.38 5 2.19 C6.06 4.38 6.06 4.38 5.06 7.38 C2.75 7.38 0.44 7.38 -1.94 7.38 C-1.94 6.39 -1.94 5.39 -1.94 4.38 C-3.38 3.16 -3.38 3.16 -4.94 2.38 C-2.94 0.38 -2.94 0.38 0 0 Z " fill="#505157" transform="translate(268.9375,103.625)"/><path d="M0 0 C4.29 0.33 8.58 0.66 13 1 C13 1.99 13 2.98 13 4 C8.05 6.8 3.38 5.77 -2 5 C-1.34 4.34 -0.68 3.68 0 3 C0 2.01 0 1.02 0 0 Z " fill="#D4D7D8" transform="translate(105,142)"/><path d="M0 0 C0.66 0.99 1.32 1.98 2 3 C0.35 3.66 -1.3 4.32 -3 5 C-2.01 5.33 -1.02 5.66 0 6 C-3.3 6.66 -6.6 7.32 -10 8 C-11 6 -11 6 -10.38 3.94 C-9 2 -9 2 -6.62 1.31 C-5.33 1.16 -5.33 1.16 -4 1 C-2.66 0.68 -1.33 0.34 0 0 Z " fill="#E0E3E5" transform="translate(199,135)"/><path d="M0 0 C3.67 0 7.33 0 11 0 C11 1.98 11 3.96 11 6 C9.73 6.03 8.46 6.05 7.19 6.06 C6.48 6.07 5.77 6.09 5.04 6.1 C3 6 3 6 0 5 C0 3.35 0 1.7 0 0 Z " fill="#B6E6B4" transform="translate(206,46)"/><path d="M0 0 C0.99 0 1.98 0 3 0 C2.44 4.69 1.15 7.89 -1 12 C-1 12.66 -1 13.32 -1 14 C-2.32 14.33 -3.64 14.66 -5 15 C-4.34 12.36 -3.68 9.72 -3 7 C-3.99 7.5 -3.99 7.5 -5 8 C-4.67 7.01 -4.34 6.02 -4 5 C-3.01 5 -2.02 5 -1 5 C-0.67 3.35 -0.34 1.7 0 0 Z " fill="#BAE1B9" transform="translate(369,83)"/><path d="M0 0 C0.66 0 1.32 0 2 0 C2.33 1.32 2.66 2.64 3 4 C2.01 4.5 2.01 4.5 1 5 C1.06 5.58 1.12 6.16 1.19 6.75 C0.85 10.82 -2.16 13.29 -5 16 C-6.26 12.21 -5.17 10.33 -3.62 6.88 C-3.39 6.32 -3.16 5.77 -2.91 5.21 C-1.17 1.17 -1.17 1.17 0 0 Z " fill="#E2E4EC" transform="translate(335,163)"/><path d="M0 0 C0.9 0.34 0.9 0.34 1.81 0.69 C0.82 1.02 -0.17 1.35 -1.19 1.69 C1.29 2.68 1.29 2.68 3.81 3.69 C3.48 5.01 3.15 6.33 2.81 7.69 C-0.16 7.36 -3.13 7.03 -6.19 6.69 C-4.36 -0.62 -4.36 -0.62 0 0 Z " fill="#4A4B53" transform="translate(89.1875,56.3125)"/><path d="M0 0 C1.98 0.66 3.96 1.32 6 2 C6 3.65 6 5.3 6 7 C3.36 7.33 0.72 7.66 -2 8 C-2.69 6.25 -2.69 6.25 -3 4 C-1.56 1.75 -1.56 1.75 0 0 Z " fill="#32343D" transform="translate(266,181)"/><path d="M0 0 C1.65 0 3.3 0 5 0 C4.34 1.98 3.68 3.96 3 6 C2.01 6 1.02 6 0 6 C0 7.65 0 9.3 0 11 C-1.65 11.66 -3.3 12.32 -5 13 C-3.78 8.3 -2.3 4.28 0 0 Z " fill="#D0E3D7" transform="translate(316,209)"/><path d="M0 0 C0.99 0.66 1.98 1.32 3 2 C2.29 3.08 2.29 3.08 1.56 4.19 C0.03 6.95 -0.46 8.93 -1 12 C-2.14 15.11 -3.48 18.06 -5 21 C-5.66 20.67 -6.32 20.34 -7 20 C-6.27 17.8 -5.53 15.6 -4.79 13.39 C-4.32 11.98 -3.86 10.56 -3.43 9.14 C-2.59 6.44 -2.04 5.04 0 3 C0 2.01 0 1.02 0 0 Z " fill="#98DE93" transform="translate(346,141)"/><path d="M0 0 C2.31 0 4.62 0 7 0 C7.33 1.65 7.66 3.3 8 5 C5.24 5.6 2.84 6 0 6 C0 4.02 0 2.04 0 0 Z " fill="#BEE8BD" transform="translate(219,39)"/><path d="M0 0 C1.65 0 3.3 0 5 0 C2.24 3.34 -1.36 4.85 -5.19 6.69 C-5.84 7.01 -6.5 7.33 -7.17 7.66 C-8.78 8.44 -10.39 9.22 -12 10 C-12.66 9.34 -13.32 8.68 -14 8 C-11.59 5.59 -9.87 5.33 -6.66 4.56 C-4.76 4.05 -4.76 4.05 -3 2 C-2.34 2.33 -1.68 2.66 -1 3 C-0.67 2.01 -0.34 1.02 0 0 Z " fill="#E3E9E8" transform="translate(251,117)"/><path d="M0 0 C-0.33 0.99 -0.66 1.98 -1 3 C-0.01 3.66 0.98 4.32 2 5 C-2.46 5.5 -2.46 5.5 -7 6 C-7 5.34 -7 4.68 -7 4 C-7.99 4 -8.98 4 -10 4 C-10 3.01 -10 2.02 -10 1 C-6.63 0.39 -3.43 -0.13 0 0 Z " fill="#D0E5D1" transform="translate(180,140)"/><path d="M0 0 C2.64 0 5.28 0 8 0 C8 1.65 8 3.3 8 5 C5.22 5.77 2.89 6 0 6 C0 4.02 0 2.04 0 0 Z " fill="#BDE9BC" transform="translate(219,83)"/><path d="M0 0 C2.17 2.17 2.65 3.01 3 6 C2.06 8.25 2.06 8.25 1 10 C0.34 10 -0.32 10 -1 10 C-1.33 11.32 -1.66 12.64 -2 14 C-2.66 13.67 -3.32 13.34 -4 13 C-3.28 8.42 -1.69 4.29 0 0 Z " fill="#D4D9DC" transform="translate(306,232)"/><path d="M0 0 C0 1.65 0 3.3 0 5 C-3.72 6.19 -7.13 6.07 -11 6 C-11 5.01 -11 4.02 -11 3 C-9.73 2.49 -8.46 2 -7.19 1.5 C-6.48 1.22 -5.77 0.94 -5.04 0.66 C-3 0 -3 0 0 0 Z " fill="#E3EAE7" transform="translate(223,128)"/><path d="M0 0 C0 2.62 -0.31 4.51 -1 7 C-2.65 7.33 -4.3 7.66 -6 8 C-5.67 8.99 -5.34 9.98 -5 11 C-5.66 11 -6.32 11 -7 11 C-7.33 11.66 -7.66 12.32 -8 13 C-8.66 13 -9.32 13 -10 13 C-8.96 8.31 -8.96 8.31 -8 6 C-6.12 4.81 -6.12 4.81 -4 4 C-2.63 2.71 -1.29 1.38 0 0 Z " fill="#D8DCE0" transform="translate(336,172)"/><path d="M0 0 C2.12 2.58 3.68 4.62 4 8 C2.99 10.63 2.01 11.99 0 14 C-0.33 14.66 -0.66 15.32 -1 16 C-1.66 15.67 -2.32 15.34 -3 15 C-2.5 14.24 -2.01 13.47 -1.5 12.69 C0.24 10.08 0.24 10.08 0 7 C-0.66 7 -1.32 7 -2 7 C-1.34 4.69 -0.68 2.38 0 0 Z " fill="#BFE0C0" transform="translate(337,156)"/><path d="M0 0 C0.99 0.33 1.98 0.66 3 1 C1.52 7.65 1.52 7.65 -1.12 9.44 C-1.74 9.62 -2.36 9.81 -3 10 C-3 9.34 -3 8.68 -3 8 C-3.66 7.67 -4.32 7.34 -5 7 C-4.67 5.68 -4.34 4.36 -4 3 C-3.01 3 -2.02 3 -1 3 C-0.67 2.01 -0.34 1.02 0 0 Z " fill="#CFDBD7" transform="translate(305,242)"/><path d="M0 0 C2.31 0.33 4.62 0.66 7 1 C7 2.32 7 3.64 7 5 C4.69 5.33 2.38 5.66 0 6 C0 4.02 0 2.04 0 0 Z " fill="#9BE097" transform="translate(200,76)"/><path d="M0 0 C3.63 0 7.26 0 11 0 C10.01 0.49 10.01 0.49 9 1 C9 2.65 9 4.3 9 6 C8.34 6 7.68 6 7 6 C7 4.35 7 2.7 7 1 C6.01 1.33 5.02 1.66 4 2 C4.33 3.32 4.66 4.64 5 6 C3.35 6 1.7 6 0 6 C0 4.02 0 2.04 0 0 Z " fill="#B8E7B6" transform="translate(190,39)"/><path d="M0 0 C2.31 0.33 4.62 0.66 7 1 C7.33 2.65 7.66 4.3 8 6 C5.14 6.1 2.75 5.79 0 5 C0 3.35 0 1.7 0 0 Z " fill="#B8E7B6" transform="translate(199,46)"/><path d="M0 0 C0.66 0.33 1.32 0.66 2 1 C0.35 5.29 -1.3 9.58 -3 14 C-4 10 -4 10 -3 8 C-4.65 7.67 -6.3 7.34 -8 7 C-5.25 5 -5.25 5 -3 5 C-3.33 4.01 -3.66 3.02 -4 2 C-2.68 2 -1.36 2 0 2 C0 1.34 0 0.68 0 0 Z " fill="#E8E8F3" transform="translate(313,185)"/><path d="M0 0 C1.32 0.33 2.64 0.66 4 1 C4 1.66 4 2.32 4 3 C6.31 3 8.62 3 11 3 C11 3.33 11 3.66 11 4 C8.69 4 6.38 4 4 4 C4 4.66 4 5.32 4 6 C2.35 6 0.7 6 -1 6 C-1.33 5.01 -1.66 4.02 -2 3 C-1.06 1.31 -1.06 1.31 0 0 Z " fill="#12C000" transform="translate(96,120)"/><path d="M0 0 C0.66 0 1.32 0 2 0 C2.66 2.31 3.32 4.62 4 7 C3.34 7 2.68 7 2 7 C2 8.32 2 9.64 2 11 C1.34 11 0.68 11 0 11 C-0.33 10.34 -0.66 9.68 -1 9 C-1.66 9 -2.32 9 -3 9 C-2.62 6.06 -2.62 6.06 -2 3 C-1.34 2.67 -0.68 2.34 0 2 C0 1.34 0 0.68 0 0 Z " fill="#54555D" transform="translate(335,187)"/><path d="M0 0 C3.96 0.33 7.92 0.66 12 1 C11.67 1.99 11.34 2.98 11 4 C3.57 4.14 3.57 4.14 0 3 C0 2.01 0 1.02 0 0 Z " fill="#B6E6B4" transform="translate(119,143)"/><path d="M0 0 C2.97 0 5.94 0 9 0 C8.67 1.32 8.34 2.64 8 4 C5.36 4 2.72 4 0 4 C0 2.68 0 1.36 0 0 Z " fill="#919397" transform="translate(161,97)"/><path d="M0 0 C1.65 0 3.3 0 5 0 C5.38 1.66 5.71 3.32 6 5 C5 6 5 6 2.44 6.06 C1.23 6.03 1.23 6.03 0 6 C0 4.02 0 2.04 0 0 Z " fill="#A0E19C" transform="translate(183,39)"/><path d="M0 0 C0.66 0.33 1.32 0.66 2 1 C0.46 5.72 -1.08 10.42 -3 15 C-3.99 14.34 -4.98 13.68 -6 13 C-5.73 12.48 -5.47 11.96 -5.2 11.43 C-3.29 7.67 -1.48 3.95 0 0 Z " fill="#99DE95" transform="translate(325,195)"/><path d="M0 0 C-0.66 0.66 -1.32 1.32 -2 2 C-0.68 2.33 0.64 2.66 2 3 C2 3.99 2 4.98 2 6 C0.02 6.33 -1.96 6.66 -4 7 C-4.19 5.82 -4.19 5.82 -4.38 4.62 C-4.79 1.86 -4.79 1.86 -7 0 C-3.99 -0.93 -3.13 -1.04 0 0 Z " fill="#8E8F95" transform="translate(375,44)"/><path d="M0 0 C-0.31 1.94 -0.31 1.94 -1 4 C-1.99 4.33 -2.98 4.66 -4 5 C-4.66 4.67 -5.32 4.34 -6 4 C-6 3.34 -6 2.68 -6 2 C-6.66 1.67 -7.32 1.34 -8 1 C-5.24 -1.47 -3.43 -0.93 0 0 Z " fill="#12C000" transform="translate(285,41)"/><path d="M0 0 C0.33 0.99 0.66 1.98 1 3 C0.13 4.46 0.13 4.46 -1 6 C-1.66 7.82 -1.66 7.82 -2.12 9.69 C-2.41 10.78 -2.7 11.87 -3 13 C-3.99 13 -4.98 13 -6 13 C-4.67 9 -3.33 5 -2 1 C-1.34 0.67 -0.68 0.34 0 0 Z " fill="#9FE09B" transform="translate(300,259)"/><path d="M0 0 C1.32 0.33 2.64 0.66 4 1 C4 1.66 4 2.32 4 3 C3.01 3.5 3.01 3.5 2 4 C2.66 4.33 3.32 4.66 4 5 C4 5.66 4 6.32 4 7 C2.02 7.33 0.04 7.66 -2 8 C-1.34 5.36 -0.68 2.72 0 0 Z " fill="#EFEFFA" transform="translate(275,238)"/><path d="M0 0 C3.3 0 6.6 0 10 0 C9.01 0.5 9.01 0.5 8 1 C8 2.65 8 4.3 8 6 C7.67 6 7.34 6 7 6 C7 4.35 7 2.7 7 1 C5.02 1 3.04 1 1 1 C1 1.99 1 2.98 1 4 C1.99 4 2.98 4 4 4 C4 4.66 4 5.32 4 6 C2.35 5.67 0.7 5.34 -1 5 C-0.67 3.35 -0.34 1.7 0 0 Z " fill="#C7EBC5" transform="translate(208,83)"/><path d="M0 0 C0.66 0 1.32 0 2 0 C1.14 7.43 1.14 7.43 -1 11 C-1.66 11 -2.32 11 -3 11 C-2.89 9.73 -2.76 8.46 -2.62 7.19 C-2.56 6.48 -2.49 5.77 -2.41 5.04 C-1.98 2.88 -1.45 1.65 0 0 Z " fill="#EDF0F5" transform="translate(341,148)"/><path d="M0 0 C3.3 0 6.6 0 10 0 C9.34 1.98 8.68 3.96 8 6 C7.67 6 7.34 6 7 6 C7 4.35 7 2.7 7 1 C5.02 1 3.04 1 1 1 C1.78 4.07 1.78 4.07 4 6 C2.35 5.67 0.7 5.34 -1 5 C-0.67 3.35 -0.34 1.7 0 0 Z " fill="#BFE9BE" transform="translate(208,39)"/><path d="M0 0 C0.99 0 1.98 0 3 0 C2.81 0.78 2.63 1.57 2.44 2.38 C1.74 4.97 1.74 4.97 3 7 C1.35 7.66 -0.3 8.32 -2 9 C-1.12 2.25 -1.12 2.25 0 0 Z " fill="#E4E6EB" transform="translate(348,129)"/><path d="M0 0 C0.93 0.28 0.93 0.28 1.88 0.56 C4.04 1.24 4.04 1.24 6 0 C6 1.98 6 3.96 6 6 C4 6 2 6 0 6 C0 4.02 0 2.04 0 0 Z " fill="#B8E7B5" transform="translate(228,83)"/><path d="M0 0 C0.99 0 1.98 0 3 0 C3.33 0.66 3.66 1.32 4 2 C4.66 1.34 5.32 0.68 6 0 C6 1.98 6 3.96 6 6 C4 6 2 6 0 6 C0 4.02 0 2.04 0 0 Z " fill="#C7ECC6" transform="translate(228,39)"/><path d="M0 0 C-0.33 1.32 -0.66 2.64 -1 4 C-2.98 4 -4.96 4 -7 4 C-6.62 2.06 -6.62 2.06 -6 0 C-3.51 -1.25 -2.59 -0.78 0 0 Z " fill="#6F6F76" transform="translate(86,137)"/><path d="M0 0 C0.33 0.66 0.66 1.32 1 2 C1.66 2 2.32 2 3 2 C3.33 1.34 3.66 0.68 4 0 C4.66 0.66 5.32 1.32 6 2 C5.01 4.64 4.02 7.28 3 10 C2.01 9.34 1.02 8.68 0 8 C0.66 6.35 1.32 4.7 2 3 C1.34 3 0.68 3 0 3 C0 2.01 0 1.02 0 0 Z " fill="#AEDAAD" transform="translate(349,126)"/><path d="M0 0 C1.65 0 3.3 0 5 0 C4.67 1.65 4.34 3.3 4 5 C3.01 5 2.02 5 1 5 C0.67 5.99 0.34 6.98 0 8 C-0.66 6.35 -1.32 4.7 -2 3 C-1.01 3 -0.02 3 1 3 C0.67 2.01 0.34 1.02 0 0 Z " fill="#1CC20C" transform="translate(209,41)"/><path d="M0 0 C0.66 1.32 1.32 2.64 2 4 C1.38 5.01 0.76 6 0.12 7 C-0.4 7.84 -0.4 7.84 -0.93 8.69 C-1.28 9.12 -1.64 9.55 -2 10 C-2.66 10 -3.32 10 -4 10 C-3.43 6.04 -2.19 3.33 0 0 Z " fill="#EBEBF8" transform="translate(321,199)"/><path d="M0 0 C2.31 0 4.62 0 7 0 C7 1.32 7 2.64 7 4 C4.69 4 2.38 4 0 4 C0 2.68 0 1.36 0 0 Z " fill="#A4A5AA" transform="translate(243,176)"/><path d="M0 0 C0.21 0.47 0.41 0.95 0.62 1.44 C2.71 3.8 4.97 3.67 8 4 C7.67 4.99 7.34 5.98 7 7 C4.62 7.12 4.62 7.12 2 7 C0 5 0 5 -0.12 2.38 C-0.08 1.59 -0.04 0.81 0 0 Z " fill="#1A1B24" transform="translate(256,296)"/><path d="M0 0 C1.32 0.66 2.64 1.32 4 2 C3.01 2.5 3.01 2.5 2 3 C2 4.32 2 5.64 2 7 C0.35 7.66 -1.3 8.32 -3 9 C-2.01 6.03 -1.02 3.06 0 0 Z " fill="#E7E7F1" transform="translate(265,262)"/><path d="M0 0 C1.65 0 3.3 0 5 0 C5.66 1.32 6.32 2.64 7 4 C4.69 4 2.38 4 0 4 C0 2.68 0 1.36 0 0 Z " fill="#A3A6A9" transform="translate(180,169)"/><path d="M0 0 C2.31 0 4.62 0 7 0 C6.67 1.32 6.34 2.64 6 4 C4.35 4 2.7 4 1 4 C0.67 2.68 0.34 1.36 0 0 Z " fill="#909197" transform="translate(36,157)"/><path d="M0 0 C2.97 0 5.94 0 9 0 C8.67 0.99 8.34 1.98 8 3 C5.03 3 2.06 3 -1 3 C-0.67 2.01 -0.34 1.02 0 0 Z " fill="#A2E09F" transform="translate(149,143)"/><path d="M0 0 C0.66 0.66 1.32 1.32 2 2 C5.08 2.17 5.08 2.17 8 2 C4.47 5.25 1.62 5.56 -3 6 C-2.01 4.02 -1.02 2.04 0 0 Z " fill="#EEF3F2" transform="translate(211,131)"/><path d="M0 0 C0.66 0 1.32 0 2 0 C2.33 1.32 2.66 2.64 3 4 C3.33 3.01 3.66 2.02 4 1 C4.99 1.66 5.98 2.32 7 3 C6.34 3 5.68 3 5 3 C5 3.66 5 4.32 5 5 C6.65 5 8.3 5 10 5 C10 5.33 10 5.66 10 6 C8.52 6.03 7.04 6.05 5.56 6.06 C4.33 6.08 4.33 6.08 3.07 6.1 C1 6 1 6 0 5 C-0.04 3.33 -0.04 1.67 0 0 Z " fill="#48CC3C" transform="translate(208,77)"/><path d="M0 0 C0.99 0.33 1.98 0.66 3 1 C1.52 6.66 1.52 6.66 -1.12 8.38 C-1.74 8.58 -2.36 8.79 -3 9 C-2.69 7.87 -2.38 6.75 -2.06 5.62 C-1.89 5 -1.71 4.37 -1.54 3.73 C-1 2 -1 2 0 0 Z " fill="#DADCE5" transform="translate(300,249)"/><path d="M0 0 C0 3.7 -0.93 6.47 -2 10 C-2.99 10 -3.98 10 -5 10 C-4.55 8.52 -4.09 7.04 -3.62 5.56 C-3.37 4.74 -3.11 3.92 -2.85 3.07 C-2 1 -2 1 0 0 Z " fill="#A2E09E" transform="translate(359,114)"/><path d="M0 0 C1.98 0 3.96 0 6 0 C6 1.65 6 3.3 6 5 C5.38 4.81 4.76 4.63 4.12 4.44 C1.96 3.76 1.96 3.76 0 5 C0 3.35 0 1.7 0 0 Z " fill="#D7F0D7" transform="translate(206,90)"/><path d="M0 0 C1.65 0 3.3 0 5 0 C4.67 1.98 4.34 3.96 4 6 C2.67 6 1.33 6 0 6 C0 4.02 0 2.04 0 0 Z " fill="#BCE9B9" transform="translate(207,32)"/><path d="M0 0 C1.98 0 3.96 0 6 0 C6 1.32 6 2.64 6 4 C4.02 4 2.04 4 0 4 C0 2.68 0 1.36 0 0 Z " fill="#AAACB0" transform="translate(266,184)"/><path d="M0 0 C0.33 0.99 0.66 1.98 1 3 C-2.37 3.61 -5.57 4.13 -9 4 C-9 3.34 -9 2.68 -9 2 C-6.03 1.34 -3.06 0.68 0 0 Z " fill="#ADE3AA" transform="translate(168,141)"/><path d="M0 0 C-0.33 0.99 -0.66 1.98 -1 3 C-3.07 3.73 -3.07 3.73 -5.56 4.19 C-6.39 4.35 -7.22 4.5 -8.07 4.67 C-9.02 4.83 -9.02 4.83 -10 5 C-9.67 4.01 -9.34 3.02 -9 2 C-5.83 0.69 -3.44 0 0 0 Z " fill="#ACE2A9" transform="translate(211,132)"/><path d="M0 0 C2.31 0 4.62 0 7 0 C6.67 1.32 6.34 2.64 6 4 C4.02 4 2.04 4 0 4 C0 2.68 0 1.36 0 0 Z " fill="#AEB0B3" transform="translate(86,60)"/><path d="M0 0 C1.65 0 3.3 0 5 0 C5 1.65 5 3.3 5 5 C3.35 5.33 1.7 5.66 0 6 C0 4 0 2 0 0 Z " fill="#BDE9BB" transform="translate(213,32)"/><path d="M0 0 C1.65 0 3.3 0 5 0 C5.33 1.32 5.66 2.64 6 4 C3.69 4 1.38 4 -1 4 C-0.67 2.68 -0.34 1.36 0 0 Z " fill="#8F9095" transform="translate(258,295)"/><path d="M0 0 C0.33 0.66 0.66 1.32 1 2 C3.02 2.65 3.02 2.65 5 3 C4.67 3.99 4.34 4.98 4 6 C2.35 6 0.7 6 -1 6 C-0.67 4.02 -0.34 2.04 0 0 Z " fill="#89898F" transform="translate(317,232)"/><path d="M0 0 C0.33 1.32 0.66 2.64 1 4 C0.01 4.5 0.01 4.5 -1 5 C-1.65 7.02 -1.65 7.02 -2 9 C-2.66 9 -3.32 9 -4 9 C-3.47 5.18 -2.5 2.94 0 0 Z " fill="#EDEFF2" transform="translate(360,104)"/><path d="M0 0 C0.33 0.66 0.66 1.32 1 2 C1.99 2.33 2.98 2.66 4 3 C3.67 3.66 3.34 4.32 3 5 C2.34 5 1.68 5 1 5 C0.67 5.99 0.34 6.98 0 8 C-0.66 7.67 -1.32 7.34 -2 7 C-1.34 4.69 -0.68 2.38 0 0 Z " fill="#D7DCDD" transform="translate(343,141)"/><path d="M0 0 C1.32 0.33 2.64 0.66 4 1 C4 2.65 4 4.3 4 6 C2.68 6 1.36 6 0 6 C0 4.02 0 2.04 0 0 Z " fill="#C3EAC1" transform="translate(202,83)"/><path d="M0 0 C1.65 0 3.3 0 5 0 C5 2 5 4 5 6 C3.35 5.67 1.7 5.34 0 5 C0 4.34 0 3.68 0 3 C0.66 2.67 1.32 2.34 2 2 C1.34 1.34 0.68 0.68 0 0 Z " fill="#C2EAC0" transform="translate(193,46)"/><path d="M0 0 C1.65 1.65 3.3 3.3 5 5 C4.01 5.66 3.02 6.32 2 7 C1.01 6.34 0.02 5.68 -1 5 C-0.67 3.35 -0.34 1.7 0 0 Z " fill="#E3E3EE" transform="translate(253,288)"/><path d="M0 0 C2.31 0 4.62 0 7 0 C7 1.32 7 2.64 7 4 C5.68 3.67 4.36 3.34 3 3 C3 2.34 3 1.68 3 1 C2.34 1 1.68 1 1 1 C0.67 1.66 0.34 2.32 0 3 C0 2.01 0 1.02 0 0 Z " fill="#AAAAB0" transform="translate(298,164)"/><path d="M0 0 C1.32 0 2.64 0 4 0 C4 1.98 4 3.96 4 6 C2.68 6 1.36 6 0 6 C0 4.02 0 2.04 0 0 Z " fill="#BFEABD" transform="translate(194,90)"/><path d="M0 0 C1.32 0.33 2.64 0.66 4 1 C2 3 2 3 0 4 C-0.65 6.02 -0.65 6.02 -1 8 C-1.33 8 -1.66 8 -2 8 C-2.18 4.65 -2.21 2.62 0 0 Z " fill="#393B44" transform="translate(298,160)"/><path d="M0 0 C0.33 0.66 0.66 1.32 1 2 C-2.96 1.67 -6.92 1.34 -11 1 C-11 0.67 -11 0.34 -11 0 C-9.73 -0.2 -8.46 -0.38 -7.19 -0.56 C-6.13 -0.72 -6.13 -0.72 -5.04 -0.88 C-3 -1 -3 -1 0 0 Z " fill="#C9CACE" transform="translate(186,155)"/><path d="M0 0 C1.98 0 3.96 0 6 0 C3.88 2.06 3.88 2.06 1 4 C-2.31 3.75 -2.31 3.75 -5 3 C-5 2.67 -5 2.34 -5 2 C-3.35 2 -1.7 2 0 2 C0 1.34 0 0.68 0 0 Z " fill="#282A32" transform="translate(100,124)"/><path d="M0 0 C2.47 0.49 2.47 0.49 5 1 C5 2.65 5 4.3 5 6 C3.35 5.67 1.7 5.34 0 5 C0 3.35 0 1.7 0 0 Z " fill="#D8F1D8" transform="translate(206,46)"/><path d="M0 0 C1.32 0 2.64 0 4 0 C4 1.98 4 3.96 4 6 C2.68 6 1.36 6 0 6 C0.19 5.38 0.37 4.76 0.56 4.12 C1.24 1.96 1.24 1.96 0 0 Z " fill="#D5EFD4" transform="translate(220,46)"/><path d="M0 0 C1.32 0.33 2.64 0.66 4 1 C4 2.65 4 4.3 4 6 C2.68 6 1.36 6 0 6 C0 4.02 0 2.04 0 0 Z " fill="#BAE7B9" transform="translate(202,39)"/><path d="M0 0 C0 0.99 0 1.98 0 3 C-2.31 3.33 -4.62 3.66 -7 4 C-6.67 3.01 -6.34 2.02 -6 1 C-3 0 -3 0 0 0 Z " fill="#ADE3AA" transform="translate(188,138)"/><path d="M0 0 C-2.62 2.15 -4.64 3.4 -8 4 C-7.69 2.06 -7.69 2.06 -7 0 C-3.87 -1.04 -3.01 -0.93 0 0 Z " fill="#B0E4AD" transform="translate(238,124)"/><path d="M0 0 C0.66 0.33 1.32 0.66 2 1 C1.19 3.94 1.19 3.94 0 7 C-0.99 7.33 -1.98 7.66 -3 8 C-2.41 2.63 -2.41 2.63 -2 1 C-1.34 0.67 -0.68 0.34 0 0 Z " fill="#A9E1A6" transform="translate(362,105)"/><path d="M0 0 C1.32 0.66 2.64 1.32 4 2 C3.34 3.32 2.68 4.64 2 6 C1.01 6 0.02 6 -1 6 C-0.67 4.02 -0.34 2.04 0 0 Z " fill="#DEE3E6" transform="translate(292,267)"/><path d="M0 0 C0.66 0.33 1.32 0.66 2 1 C0.69 3.5 0.69 3.5 -1 6 C-1.99 6 -2.98 6 -4 6 C-4 5.34 -4 4.68 -4 4 C-3.34 4 -2.68 4 -2 4 C-2 3.34 -2 2.68 -2 2 C-1.34 2 -0.68 2 0 2 C0 1.34 0 0.68 0 0 Z " fill="#E7E7F4" transform="translate(305,205)"/><path d="M0 0 C0.66 0 1.32 0 2 0 C2.66 2.31 3.32 4.62 4 7 C3.34 7 2.68 7 2 7 C2 6.34 2 5.68 2 5 C0.68 4.34 -0.64 3.68 -2 3 C-1.34 2.67 -0.68 2.34 0 2 C0 1.34 0 0.68 0 0 Z " fill="#5E5F66" transform="translate(335,187)"/><path d="M0 0 C0.66 0.33 1.32 0.66 2 1 C0.68 3.31 -0.64 5.62 -2 8 C-2.93 4.99 -3.04 4.13 -2 1 C-1.34 0.67 -0.68 0.34 0 0 Z " fill="#9BDF97" transform="translate(332,179)"/><path d="M0 0 C2.31 0.33 4.62 0.66 7 1 C6.67 1.66 6.34 2.32 6 3 C4.02 3 2.04 3 0 3 C0 2.01 0 1.02 0 0 Z " fill="#8ADB85" transform="translate(105,142)"/><path d="M0 0 C2.31 0.33 4.62 0.66 7 1 C3.55 3.95 3.55 3.95 0.75 4.19 C0.17 4.13 -0.41 4.06 -1 4 C-0.67 2.68 -0.34 1.36 0 0 Z " fill="#EEF5F2" transform="translate(223,128)"/><path d="M0 0 C0.66 0.33 1.32 0.66 2 1 C1.67 1.66 1.34 2.32 1 3 C1.66 3 2.32 3 3 3 C1.96 6.13 1.68 6.48 -1 8 C-1.12 2.25 -1.12 2.25 0 0 Z " fill="#3A3B43" transform="translate(280,117)"/><path d="M0 0 C0.99 0.66 1.98 1.32 3 2 C2.19 3.94 2.19 3.94 1 6 C0.01 6.33 -0.98 6.66 -2 7 C-1.34 4.69 -0.68 2.38 0 0 Z " fill="#9BDF97" transform="translate(301,252)"/><path d="M0 0 C0.99 0 1.98 0 3 0 C2.34 1.98 1.68 3.96 1 6 C0.34 5.67 -0.32 5.34 -1 5 C-0.67 3.35 -0.34 1.7 0 0 Z " fill="#D6D6E3" transform="translate(303,240)"/><path d="M0 0 C2.64 0 5.28 0 8 0 C8 0.66 8 1.32 8 2 C6.02 2.33 4.04 2.66 2 3 C1.34 2.01 0.68 1.02 0 0 Z " fill="#F1F0FF" transform="translate(295,207)"/><path d="M0 0 C1 2 1 2 0.06 5.12 C-0.29 6.07 -0.64 7.02 -1 8 C-1.99 7.67 -2.98 7.34 -4 7 C-2.93 4.08 -2.22 2.22 0 0 Z " fill="#E9ECF0" transform="translate(366,89)"/><path d="M0 0 C0.99 0 1.98 0 3 0 C3.33 1.98 3.66 3.96 4 6 C2.68 5.67 1.36 5.34 0 5 C0 3.35 0 1.7 0 0 Z " fill="#ABE4A8" transform="translate(220,90)"/><path d="M0 0 C2.47 0.99 2.47 0.99 5 2 C4.67 2.99 4.34 3.98 4 5 C2.68 5 1.36 5 0 5 C0 3.35 0 1.7 0 0 Z " fill="#BCE8BA" transform="translate(213,77)"/><path d="M0 0 C0.33 0.66 0.66 1.32 1 2 C1.66 2 2.32 2 3 2 C3 1.34 3 0.68 3 0 C4.32 0.33 5.64 0.66 7 1 C7 1.66 7 2.32 7 3 C4.69 3 2.38 3 0 3 C0 2.01 0 1.02 0 0 Z " fill="#C1C1C6" transform="translate(132,192)"/><path d="M0 0 C0.66 0 1.32 0 2 0 C2.33 1.32 2.66 2.64 3 4 C1.02 4.99 1.02 4.99 -1 6 C-1.04 4.33 -1.04 2.67 -1 1 C-0.67 0.67 -0.34 0.34 0 0 Z " fill="#EAEBF5" transform="translate(335,163)"/><path d="M0 0 C1.65 0 3.3 0 5 0 C5 0.99 5 1.98 5 3 C3.35 3 1.7 3 0 3 C0 2.01 0 1.02 0 0 Z " fill="#B1E4AF" transform="translate(113,143)"/><path d="M0 0 C-0.33 0.99 -0.66 1.98 -1 3 C-2.98 3 -4.96 3 -7 3 C-7 2.34 -7 1.68 -7 1 C-4.33 0.11 -2.74 -0.09 0 0 Z " fill="#A5E1A2" transform="translate(180,140)"/><path d="M0 0 C-0.68 0.4 -0.68 0.4 -1.38 0.81 C-3.07 2.05 -3.94 3.2 -5 5 C-5 4.34 -5 3.68 -5 3 C-5.66 3 -6.32 3 -7 3 C-7 2.34 -7 1.68 -7 1 C-4.56 -1.32 -3.07 -1.06 0 0 Z " fill="#494B53" transform="translate(84,134)"/><path d="M0 0 C-0.33 0.99 -0.66 1.98 -1 3 C-3.06 3.69 -3.06 3.69 -5 4 C-5.33 3.01 -5.66 2.02 -6 1 C-3.78 -0.11 -2.44 -0.08 0 0 Z " fill="#ABE1A8" transform="translate(229,126)"/><path d="M0 0 C2.97 0.5 2.97 0.5 6 1 C2.38 4 2.38 4 -1 4 C-0.67 2.68 -0.34 1.36 0 0 Z " fill="#D6E2DA" transform="translate(355,112)"/><path d="M0 0 C0.99 0.33 1.98 0.66 3 1 C2.34 1 1.68 1 1 1 C0.67 2.65 0.34 4.3 0 6 C-0.66 6 -1.32 6 -2 6 C-1.12 1.12 -1.12 1.12 0 0 Z " fill="#EAECEF" transform="translate(368,82)"/><path d="M0 0 C0.66 0 1.32 0 2 0 C1.67 1.65 1.34 3.3 1 5 C0.01 4.67 -0.98 4.34 -2 4 C-1.34 2.68 -0.68 1.36 0 0 Z " fill="#7DD876" transform="translate(290,281)"/><path d="M0 0 C1.32 0.66 2.64 1.32 4 2 C3.34 3.32 2.68 4.64 2 6 C1.01 5.34 0.02 4.68 -1 4 C-0.67 2.68 -0.34 1.36 0 0 Z " fill="#D7DEDE" transform="translate(321,196)"/><path d="M0 0 C0 3.09 -0.24 3.68 -2 6 C-2.66 5.67 -3.32 5.34 -4 5 C-2.25 1.12 -2.25 1.12 0 0 Z " fill="#A5E0A2" transform="translate(336,172)"/><path d="M0 0 C1.32 0 2.64 0 4 0 C3.67 0.99 3.34 1.98 3 3 C0.94 3.69 0.94 3.69 -1 4 C-0.67 2.68 -0.34 1.36 0 0 Z " fill="#A1E09D" transform="translate(190,137)"/><path d="M0 0 C0.66 0.99 1.32 1.98 2 3 C0.02 3.33 -1.96 3.66 -4 4 C-4 3.01 -4 2.02 -4 1 C-2.68 0.67 -1.36 0.34 0 0 Z " fill="#A9E2A6" transform="translate(199,135)"/><path d="M0 0 C0 0.99 0 1.98 0 3 C-1.65 3.33 -3.3 3.66 -5 4 C-5 3.01 -5 2.02 -5 1 C-3 0 -3 0 0 0 Z " fill="#A9E2A6" transform="translate(217,130)"/><path d="M0 0 C0.99 0.33 1.98 0.66 3 1 C2.67 2.65 2.34 4.3 2 6 C1.34 6 0.68 6 0 6 C0 4.02 0 2.04 0 0 Z " fill="#ADE5AB" transform="translate(219,39)"/><path d="M0 0 C1.32 0.66 2.64 1.32 4 2 C3.01 2.5 3.01 2.5 2 3 C1.67 3.66 1.34 4.32 1 5 C0.34 5 -0.32 5 -1 5 C-0.67 3.35 -0.34 1.7 0 0 Z " fill="#DCE0E5" transform="translate(296,257)"/><path d="M0 0 C0.99 0 1.98 0 3 0 C2.67 1.32 2.34 2.64 2 4 C1.01 4 0.02 4 -1 4 C-0.67 2.68 -0.34 1.36 0 0 Z " fill="#9FA1A5" transform="translate(80,137)"/><path d="M0 0 C0.66 0 1.32 0 2 0 C3.62 2 3.62 2 5 4 C4.01 4.33 3.02 4.66 2 5 C1.34 4.67 0.68 4.34 0 4 C0 2.68 0 1.36 0 0 Z " fill="#87D382" transform="translate(254,113)"/><path d="M0 0 C0.93 3.01 1.04 3.87 0 7 C-0.66 6.01 -1.32 5.02 -2 4 C-1.34 2.68 -0.68 1.36 0 0 Z " fill="#EAEDF1" transform="translate(355,115)"/><path d="M0 0 C0.99 0 1.98 0 3 0 C2.67 1.65 2.34 3.3 2 5 C1.34 4.67 0.68 4.34 0 4 C0 2.68 0 1.36 0 0 Z " fill="#7BD874" transform="translate(369,83)"/><path d="M0 0 C1.32 0.66 2.64 1.32 4 2 C2.68 2.99 1.36 3.98 0 5 C-0.33 4.34 -0.66 3.68 -1 3 C-0.67 2.01 -0.34 1.02 0 0 Z " fill="#DFDFEA" transform="translate(265,262)"/><path d="M0 0 C0.66 0.66 1.32 1.32 2 2 C1.34 3.32 0.68 4.64 0 6 C-0.66 4.68 -1.32 3.36 -2 2 C-1.34 1.34 -0.68 0.68 0 0 Z " fill="#E7EBF0" transform="translate(309,230)"/><path d="M0 0 C0.66 0 1.32 0 2 0 C1.67 1.65 1.34 3.3 1 5 C0.34 5 -0.32 5 -1 5 C-0.67 3.35 -0.34 1.7 0 0 Z " fill="#F0F2FA" transform="translate(341,148)"/><path d="M0 0 C1.32 0 2.64 0 4 0 C4 0.99 4 1.98 4 3 C2.68 3 1.36 3 0 3 C0 2.01 0 1.02 0 0 Z " fill="#B6E6B4" transform="translate(135,144)"/><path d="M0 0 C0.66 0.33 1.32 0.66 2 1 C1.34 2.32 0.68 3.64 0 5 C-0.66 4.67 -1.32 4.34 -2 4 C-1.34 2.68 -0.68 1.36 0 0 Z " fill="#94DD8F" transform="translate(349,136)"/><path d="M0 0 C0.99 0.33 1.98 0.66 3 1 C2.34 2.32 1.68 3.64 1 5 C0.34 4.67 -0.32 4.34 -1 4 C-0.67 2.68 -0.34 1.36 0 0 Z " fill="#9EDF9A" transform="translate(363,99)"/><path d="M0 0 C0.33 0 0.66 0 1 0 C1 1.98 1 3.96 1 6 C0.01 5.67 -0.98 5.34 -2 5 C-1 2 -1 2 0 0 Z " fill="#D9F1D9" transform="translate(233,83)"/><path d="M0 0 C1.32 1.32 2.64 2.64 4 4 C2.35 4.33 0.7 4.66 -1 5 C-0.67 3.35 -0.34 1.7 0 0 Z " fill="#41CA34" transform="translate(212,33)"/><path d="M0 0 C1.98 0.5 1.98 0.5 4 1 C3.34 1.66 2.68 2.32 2 3 C1.01 3 0.02 3 -1 3 C-0.67 2.01 -0.34 1.02 0 0 Z " fill="#E4E4EE" transform="translate(267,259)"/><path d="M0 0 C0.66 1.32 1.32 2.64 2 4 C0.68 4.33 -0.64 4.66 -2 5 C-1.34 3.35 -0.68 1.7 0 0 Z " fill="#EDEDFC" transform="translate(299,253)"/><path d="M0 0 C1.65 0 3.3 0 5 0 C4.34 1.32 3.68 2.64 3 4 C3 3.34 3 2.68 3 2 C2.01 1.67 1.02 1.34 0 1 C0 0.67 0 0.34 0 0 Z " fill="#494B53" transform="translate(136,191)"/><path d="M0 0 C1.68 0.29 3.34 0.62 5 1 C3.02 1.99 3.02 1.99 1 3 C0.34 2.34 -0.32 1.68 -1 1 C-0.67 0.67 -0.34 0.34 0 0 Z " fill="#171720" transform="translate(38,154)"/><path d="M0 0 C0.66 1.32 1.32 2.64 2 4 C0.35 4 -1.3 4 -3 4 C-2.67 3.34 -2.34 2.68 -2 2 C-1.34 2 -0.68 2 0 2 C0 1.34 0 0.68 0 0 Z " fill="#F6F8F9" transform="translate(155,144)"/><path d="M0 0 C0.99 0.33 1.98 0.66 3 1 C2.34 2.32 1.68 3.64 1 5 C0.34 4.34 -0.32 3.68 -1 3 C-0.67 2.01 -0.34 1.02 0 0 Z " fill="#96DE91" transform="translate(350,131)"/><path d="M0 0 C0.99 0 1.98 0 3 0 C2.67 0.99 2.34 1.98 2 3 C-0.06 3.69 -0.06 3.69 -2 4 C-1.34 2.68 -0.68 1.36 0 0 Z " fill="#A6E1A3" transform="translate(220,128)"/><path d="M0 0 C0.99 0.33 1.98 0.66 3 1 C2.01 2.49 2.01 2.49 1 4 C0.34 3.67 -0.32 3.34 -1 3 C-0.67 2.01 -0.34 1.02 0 0 Z " fill="#9ADF96" transform="translate(303,248)"/><path d="M0 0 C0.99 0.33 1.98 0.66 3 1 C3 1.66 3 2.32 3 3 C1.68 3.33 0.36 3.66 -1 4 C-0.67 2.68 -0.34 1.36 0 0 Z " fill="#98DE93" transform="translate(305,242)"/><path d="M0 0 C0.66 0.66 1.32 1.32 2 2 C1.01 3.49 1.01 3.49 0 5 C-0.66 4.67 -1.32 4.34 -2 4 C-1.34 2.68 -0.68 1.36 0 0 Z " fill="#E7E8F3" transform="translate(327,184)"/><path d="M0 0 C1.32 0 2.64 0 4 0 C3.67 1.32 3.34 2.64 3 4 C2.01 2.68 1.02 1.36 0 0 Z " fill="#4F4F57" transform="translate(185,169)"/><path d="M0 0 C1.32 0 2.64 0 4 0 C3.67 0.99 3.34 1.98 3 3 C2.01 3 1.02 3 0 3 C0 2.01 0 1.02 0 0 Z " fill="#97DE92" transform="translate(143,144)"/><path d="M0 0 C1.32 0 2.64 0 4 0 C4 0.66 4 1.32 4 2 C2.68 2.33 1.36 2.66 0 3 C0 2.01 0 1.02 0 0 Z " fill="#171821" transform="translate(81,134)"/><path d="M0 0 C0.66 0 1.32 0 2 0 C2 1.32 2 2.64 2 4 C1.01 4 0.02 4 -1 4 C-0.67 2.68 -0.34 1.36 0 0 Z " fill="#D7D8DD" transform="translate(352,119)"/><path d="M0 0 C0.99 0 1.98 0 3 0 C3 0.99 3 1.98 3 3 C1.68 2.67 0.36 2.34 -1 2 C-0.67 1.34 -0.34 0.68 0 0 Z " fill="#A7E2A4" transform="translate(191,86)"/><path d="M0 0 C0.64 0.02 1.28 0.04 1.94 0.06 C1.94 0.72 1.94 1.38 1.94 2.06 C0.95 2.39 -0.04 2.72 -1.06 3.06 C-1.72 2.4 -2.38 1.74 -3.06 1.06 C-2.06 0.06 -2.06 0.06 0 0 Z " fill="#171821" transform="translate(90.0625,56.9375)"/><path d="M0 0 C0.66 0.33 1.32 0.66 2 1 C2 1.99 2 2.98 2 4 C1.01 4 0.02 4 -1 4 C-0.67 2.68 -0.34 1.36 0 0 Z " fill="#D2D2DD" transform="translate(290,272)"/><path d="M0 0 C0.66 1.32 1.32 2.64 2 4 C1.01 4 0.02 4 -1 4 C-0.67 2.68 -0.34 1.36 0 0 Z " fill="#3F4048" transform="translate(264,184)"/><path d="M0 0 C0.99 0 1.98 0 3 0 C2.67 1.32 2.34 2.64 2 4 C1.34 3.67 0.68 3.34 0 3 C0 2.01 0 1.02 0 0 Z " fill="#B8E5B6" transform="translate(343,149)"/><path d="M0 0 C0.99 0.99 1.98 1.98 3 3 C1.68 3.33 0.36 3.66 -1 4 C-0.67 2.68 -0.34 1.36 0 0 Z " fill="#EFF4F5" transform="translate(235,124)"/><path d="M0 0 C0.99 0 1.98 0 3 0 C2.67 0.99 2.34 1.98 2 3 C1.01 3 0.02 3 -1 3 C-0.67 2.01 -0.34 1.02 0 0 Z " fill="#9EE09A" transform="translate(251,115)"/><path d="M0 0 C0.99 0 1.98 0 3 0 C3 0.99 3 1.98 3 3 C2.01 3 1.02 3 0 3 C0 2.01 0 1.02 0 0 Z " fill="#56565E" transform="translate(83,60)"/><path d="M0 0 C0.99 0.33 1.98 0.66 3 1 C2.67 1.99 2.34 2.98 2 4 C1.34 3.67 0.68 3.34 0 3 C0 2.01 0 1.02 0 0 Z " fill="#2DC61E" transform="translate(223,40)"/><path d="M0 0 C0.33 0.99 0.66 1.98 1 3 C0.01 3.33 -0.98 3.66 -2 4 C-1.34 2.68 -0.68 1.36 0 0 Z " fill="#EDEDFB" transform="translate(313,220)"/><path d="M0 0 C0.99 1.32 1.98 2.64 3 4 C2.01 4 1.02 4 0 4 C0 2.68 0 1.36 0 0 Z " fill="#E2E3EC" transform="translate(339,151)"/><path d="M0 0 C0.66 0 1.32 0 2 0 C2 0.99 2 1.98 2 3 C1.01 3 0.02 3 -1 3 C-0.67 2.01 -0.34 1.02 0 0 Z " fill="#B4E3B2" transform="translate(149,143)"/><path d="M0 0 C1.98 0.5 1.98 0.5 4 1 C2.02 1.99 2.02 1.99 0 3 C0 2.01 0 1.02 0 0 Z " fill="#EDF3F0" transform="translate(244,121)"/><path d="M0 0 C0.99 0.33 1.98 0.66 3 1 C3 1.66 3 2.32 3 3 C2.01 3 1.02 3 0 3 C0 2.01 0 1.02 0 0 Z " fill="#24C414" transform="translate(223,84)"/><path d="M0 0 C0.66 0.33 1.32 0.66 2 1 C2 1.66 2 2.32 2 3 C0.68 2.67 -0.64 2.34 -2 2 C-1.34 1.34 -0.68 0.68 0 0 Z " fill="#A4E1A1" transform="translate(222,49)"/><path d="M0 0 C0.66 0 1.32 0 2 0 C2 0.99 2 1.98 2 3 C1.01 3 0.02 3 -1 3 C-0.67 2.01 -0.34 1.02 0 0 Z " fill="#24C414" transform="translate(201,47)"/><path d="M0 0 C0.66 0 1.32 0 2 0 C2 0.99 2 1.98 2 3 C1.01 2.67 0.02 2.34 -1 2 C-0.67 1.34 -0.34 0.68 0 0 Z " fill="#77777D" transform="translate(339,188)"/><path d="M0 0 C1.49 0.99 1.49 0.99 3 2 C1.68 2.33 0.36 2.66 -1 3 C-0.67 2.01 -0.34 1.02 0 0 Z " fill="#2EC61F" transform="translate(212,78)"/><path d="M0 0 C0.66 0 1.32 0 2 0 C1.67 0.99 1.34 1.98 1 3 C0.34 2.34 -0.32 1.68 -1 1 C-0.67 0.67 -0.34 0.34 0 0 Z " fill="#D3E3D6" transform="translate(294,273)"/><path d="M0 0 C0.99 0.33 1.98 0.66 3 1 C2.34 1.66 1.68 2.32 1 3 C0.67 2.01 0.34 1.02 0 0 Z " fill="#EBF0F5" transform="translate(300,249)"/><path d="M0 0 C0.66 0 1.32 0 2 0 C1.67 0.99 1.34 1.98 1 3 C0.34 2.34 -0.32 1.68 -1 1 C-0.67 0.67 -0.34 0.34 0 0 Z " fill="#EBEBFA" transform="translate(303,243)"/><path d="M0 0 C0.99 0.33 1.98 0.66 3 1 C2.34 1.66 1.68 2.32 1 3 C0.67 2.01 0.34 1.02 0 0 Z " fill="#BFE3BF" transform="translate(338,162)"/><path d="M0 0 C0.99 0.33 1.98 0.66 3 1 C2.34 1.66 1.68 2.32 1 3 C0.67 2.01 0.34 1.02 0 0 Z " fill="#BBE7B9" transform="translate(244,119)"/><path d="M0 0 C0.66 0.66 1.32 1.32 2 2 C1.01 2.33 0.02 2.66 -1 3 C-0.67 2.01 -0.34 1.02 0 0 Z " fill="#3AC92D" transform="translate(221,87)"/><path d="M0 0 C0.66 0.66 1.32 1.32 2 2 C1.01 2 0.02 2 -1 2 C-0.67 1.34 -0.34 0.68 0 0 Z " fill="#EFEEFF" transform="translate(296,261)"/></svg>